<svg width="20" height="20" viewBox="0 0 20 20" fill="none" xmlns="http://www.w3.org/2000/svg">
  <circle cx="10" cy="10" r="10" fill="url(#paint0_linear)" />
  <circle cx="10" cy="10" r="9.375" fill="url(#paint1_linear)" />
  <path fill-rule="evenodd" clip-rule="evenodd"
    d="M17.9667 7.81716C16.9804 4.47734 13.7871 2.03125 10 2.03125C6.21286 2.03125 3.01945 4.47751 2.0332 7.81752C2.12857 4.1767 5.6589 1.25 9.99997 1.25C14.3409 1.25 17.8711 4.17651 17.9667 7.81716Z"
    fill="url(#paint2_linear)" />
  <path
    d="M14.479 4.92451C14.6612 4.24948 14.3635 3.41984 13.6389 3.43779C12.2454 3.41846 12.0184 5.36349 12.1747 7.06279L10.697 8.32313C10.1464 7.8524 9.37699 7.75991 8.68503 7.92418C6.37124 8.49154 5.51886 11.7908 6.48679 13.6833C6.0137 14.7932 6.08031 16.1557 6.72605 17.1855C7.26984 18.2705 8.91749 18.6225 8.58987 17.9102C8.51238 17.8136 8.51238 17.8481 8.3941 17.8357C6.84841 17.7377 6.46232 15.4158 6.88919 14.3032C8.25952 15.9155 11.2789 15.3633 12.3447 13.9277C13.9203 11.8156 13.3833 9.25492 13.0584 6.95512C13.6334 6.38224 14.2751 5.74725 14.479 4.92451ZM6.74101 12.9931C5.95388 9.92305 8.58035 7.43827 10.2715 8.68894H10.2729C8.80602 9.84988 7.60154 11.3187 6.74101 12.9931ZM11.6799 13.3534C10.7691 14.974 8.05968 15.3288 7.04553 13.6971C7.34053 12.8275 7.79323 12.0213 8.37915 11.32L8.38731 11.3173C9.05072 10.5263 9.77531 9.79052 10.5543 9.11549C10.9037 10.1908 10.0418 11.6444 9.03305 11.574C9.09286 12.5238 10.5026 11.7852 10.7772 11.4056C11.4366 10.685 11.4964 9.36397 11.026 8.6986L12.2318 7.68399C12.482 10.5677 12.6533 11.4208 11.6799 13.3534ZM12.9768 6.29804C12.7253 3.59792 13.7789 3.86158 13.9135 4.09349C14.2765 4.83202 13.314 6.06751 12.9768 6.29804Z"
    fill="#987918" />
  <path
    d="M14.1665 4.76826C14.3487 4.09323 14.051 3.26359 13.3264 3.28154C11.9329 3.26221 11.7059 5.20724 11.8622 6.90654L10.3845 8.16688C9.83394 7.69615 9.06449 7.60366 8.37253 7.76793C6.05874 8.33529 5.20636 11.6345 6.17429 13.5271C5.7012 14.637 5.76781 15.9994 6.41355 17.0292C6.95734 18.1143 8.60499 18.4663 8.27737 17.754C8.19988 17.6573 8.19988 17.6918 8.0816 17.6794C6.53591 17.5814 6.14982 15.2595 6.57669 14.1469C7.94702 15.7592 10.9664 15.2071 12.0322 13.7714C13.6078 11.6594 13.0708 9.09867 12.7459 6.79887C13.3209 6.22599 13.9626 5.591 14.1665 4.76826ZM6.42851 12.8369C5.64138 9.7668 8.26785 7.28202 9.95901 8.53269H9.96037C8.49352 9.69363 7.28904 11.1624 6.42851 12.8369ZM11.3674 13.1972C10.4566 14.8178 7.74718 15.1726 6.73303 13.5409C7.02803 12.6712 7.48073 11.865 8.06665 11.1638L8.07481 11.161C8.73822 10.37 9.46281 9.63427 10.2418 8.95924C10.5912 10.0346 9.72926 11.4882 8.72055 11.4178C8.78036 12.3675 10.1901 11.629 10.4647 11.2494C11.1241 10.5288 11.1839 9.20772 10.7135 8.54235L11.9193 7.52774C12.1695 10.4115 12.3408 11.2646 11.3674 13.1972ZM12.6643 6.14179C12.4128 3.44167 13.4664 3.70533 13.601 3.93724C13.964 4.67577 13.0015 5.91126 12.6643 6.14179Z"
    fill="url(#paint3_linear)" fill="black" />
  <defs>
    <linearGradient id="paint0_linear" x1="10" y1="0" x2="10" y2="20" gradientUnits="userSpaceOnUse">
      <stop stop-color="#FADC7E" />
      <stop offset="1" stop-color="#50400F" />
    </linearGradient>
    <linearGradient id="paint1_linear" x1="10" y1="0.625" x2="10" y2="19.375" gradientUnits="userSpaceOnUse">
      <stop stop-color="#DAAB16" />
      <stop offset="1" stop-color="#A78A30" />
    </linearGradient>
    <linearGradient id="paint2_linear" x1="9.99997" y1="0.937493" x2="9.99997" y2="10.0002"
      gradientUnits="userSpaceOnUse">
      <stop stop-color="#FCD24F" />
      <stop offset="1" stop-color="#C39C22" />
    </linearGradient>
    <linearGradient id="paint3_linear" x1="10" y1="3.28125" x2="10" y2="18.125" gradientUnits="userSpaceOnUse">
      <stop stop-color="#FFE8A0" />
      <stop offset="1" stop-color="#DFC05C" />
    </linearGradient>
  </defs>
</svg>