<svg width="24" height="24" viewBox="0 0 24 24" fill="none" xmlns="http://www.w3.org/2000/svg">
<g clip-path="url(#clip0)">
<path d="M0.0167247 23.9998C5.03043e-05 23.6663 -0.00550783 23.3328 0.0111666 22.9994C0.122329 22.966 0.233492 22.9438 0.350212 22.9271C0.6837 22.8715 1.01719 22.7882 1.33956 22.6937C1.42849 22.6659 1.51742 22.6325 1.60635 22.5992C2.03433 22.4324 2.41228 22.1545 2.7013 21.7988C2.90139 21.5487 3.0737 21.2763 3.22377 20.9929C3.43497 20.6038 3.61839 20.1981 3.78514 19.7868C4.11862 18.953 4.45211 18.1249 4.78004 17.2912C5.9139 14.4232 7.04776 11.5552 8.18162 8.6872C9.25434 5.95816 10.3104 3.22912 11.3442 0.483408C11.3664 0.427827 11.3887 0.372246 11.4109 0.316664C11.7944 0.21106 12.1668 0.0998975 12.5559 -0.00570679C12.5781 0.0498744 12.6003 0.0998975 12.617 0.149921C13.0561 1.37271 13.4952 2.59549 13.9287 3.82384C15.4239 7.99799 16.919 12.1666 18.453 16.3241C18.8755 17.4579 19.2979 18.5973 19.7259 19.7312C19.8926 20.1925 20.0927 20.6483 20.3206 21.0818C20.4206 21.2708 20.5262 21.4486 20.6429 21.6265C20.9987 22.1823 21.5489 22.5769 22.1881 22.7437C22.5327 22.8326 22.8773 22.9049 23.233 22.9493L23.4831 22.9882C23.5165 23.0994 23.4998 23.205 23.4998 23.3106C23.4998 23.4162 23.4998 23.5385 23.4998 23.6497C23.5054 23.7608 23.4998 23.8664 23.4943 23.9776C23.4609 23.9831 23.4331 23.9887 23.3998 23.9943C23.3609 23.9943 23.322 23.9943 23.2831 23.9943H14.6068C14.5957 23.9776 14.5901 23.9554 14.5846 23.9331C14.5846 23.633 14.5846 23.3328 14.5846 23.0327C14.5846 23.0216 14.5901 23.0049 14.5957 22.9938C14.668 22.9716 14.7402 22.9605 14.818 22.9493C15.1793 22.8993 15.535 22.8326 15.8907 22.7381C16.0297 22.6992 16.1742 22.6492 16.3076 22.5936C16.3743 22.5658 16.441 22.5325 16.5077 22.4936C16.8579 22.299 16.9968 21.9933 16.9635 21.6043C16.9468 21.4264 16.919 21.2541 16.869 21.0818C16.7967 20.815 16.7022 20.5538 16.6133 20.2981C14.7902 15.2124 12.9894 10.1212 11.2052 5.01884C11.1886 4.96325 11.1774 4.90212 11.1219 4.85209C11.1052 4.86321 11.0774 4.87432 11.0663 4.88544C11.0496 4.91323 11.0385 4.94102 11.0329 4.96881C10.1603 7.47553 9.2321 9.96556 8.30945 12.45C7.6258 14.2898 6.94215 16.1351 6.30853 17.9915C6.05285 18.7363 5.8083 19.4866 5.5693 20.237C5.47481 20.526 5.40811 20.8206 5.36365 21.1152C5.3303 21.3153 5.32474 21.5153 5.34697 21.721C5.37476 21.9822 5.51371 22.2212 5.73048 22.3769C5.86943 22.4769 6.02506 22.5547 6.19181 22.6103C6.45304 22.7048 6.71983 22.7715 6.99218 22.8159C7.29232 22.8715 7.59246 22.916 7.89815 22.9605C7.92038 22.966 7.93706 22.966 7.96485 22.9716C7.97041 22.9938 7.97597 23.016 7.98152 23.0383C7.98152 23.3273 7.98152 23.6219 7.98152 23.9109C7.98152 23.9276 7.97597 23.9442 7.97041 23.9609C7.94262 23.9665 7.91483 23.972 7.88704 23.972C7.84813 23.972 7.80922 23.972 7.77032 23.972L0.0167247 23.9998Z" fill="black"/>
</g>
<defs>
<clipPath id="clip0">
<rect width="24" height="24" fill="white"/>
</clipPath>
</defs>
</svg>
