<svg width="24" height="24" viewBox="0 0 24 24" fill="none" xmlns="http://www.w3.org/2000/svg">
<path fill-rule="evenodd" clip-rule="evenodd" d="M20.4108 20.4103C19.5613 21.2592 18.0821 21.2589 17.2327 20.4105L3.5892 6.76653C3.16507 6.3424 2.93093 5.77787 2.93093 5.178C2.93093 4.57773 3.16507 4.01333 3.5892 3.58893C4.01387 3.1644 4.5784 2.93093 5.17827 2.93093C5.77813 2.93093 6.34267 3.1644 6.76733 3.58893L20.4108 17.2324C21.2867 18.1088 21.2867 19.5341 20.4108 20.4103ZM19.3225 11.9997L22.4831 8.83933C23.4613 7.86133 24 6.56107 24 5.178C24 3.79467 23.4613 2.4944 22.4831 1.51667C20.4652 -0.502267 17.1795 -0.502 15.1604 1.5164L13.8461 2.8304L15.9183 4.9032L17.2327 3.58893C18.1085 2.71307 19.5349 2.7128 20.4108 3.5892C20.8349 4.01333 21.0691 4.57773 21.0691 5.178C21.0691 5.77787 20.8349 6.3424 20.4108 6.7668L17.2503 9.92733L8.8396 1.51667C7.86187 0.5384 6.56133 0 5.17827 0C3.7952 0 2.49467 0.5384 1.51693 1.5164C0.538667 2.4944 0 3.79467 0 5.178C0 6.56107 0.538667 7.86133 1.51693 8.83907L4.67747 11.9997L1.51693 15.1601C0.538667 16.1381 0 17.4384 0 18.8215C0 20.2044 0.538667 21.5048 1.51693 22.4831C2.52613 23.4923 3.85253 23.9969 5.17827 23.9969C6.504 23.9969 7.8304 23.492 8.8396 22.4828L10.1441 21.178L8.072 19.1056L6.76733 20.4103C5.89147 21.2867 4.46507 21.2864 3.5892 20.4105C2.71333 19.5341 2.71333 18.1088 3.5892 17.2324L6.74973 14.072L15.1604 22.4831C16.1387 23.4608 17.4387 23.9995 18.8217 23.9995C20.2048 23.9995 21.5048 23.4608 22.4831 22.4828C24.502 20.4641 24.502 17.1788 22.4831 15.1601L19.3225 11.9997Z" fill="url(#paint0_linear)"/>
<defs>
<linearGradient id="paint0_linear" x1="1.5168" y1="1.51713" x2="22.4826" y2="22.4829" gradientUnits="userSpaceOnUse">
<stop stop-color="#D53F3C"/>
<stop offset="1" stop-color="#C22752"/>
</linearGradient>
</defs>
</svg>
