<svg width="24" height="24" viewBox="0 0 24 24" fill="none" xmlns="http://www.w3.org/2000/svg">
<path d="M12.2898 21.1769C17.554 21.1769 21.8215 16.9094 21.8215 11.6452C21.8215 6.38093 17.554 2.11343 12.2898 2.11343C7.02555 2.11343 2.75806 6.38093 2.75806 11.6452C2.75806 16.9094 7.02555 21.1769 12.2898 21.1769Z" fill="url(#paint0_linear)"/>
<path d="M13.4975 10.62C14.2699 9.61584 14.0272 7.7262 13.0921 7.08C12.1569 6.4338 11.1721 6.75732 10.9816 6.93924C10.7912 7.12116 10.7999 11.3596 10.7999 11.3596C10.7999 11.3596 12.7251 11.6245 13.4975 10.62ZM13.6408 12.4242C12.9181 12.1097 10.7996 12.1925 10.7996 12.1925C10.7996 12.1925 10.7667 13.2628 10.8436 15.2657C10.9205 17.2686 11.6051 17.2577 12.3169 17.285C13.0286 17.3124 14.386 17.263 14.8329 15.5359C15.2798 13.8089 14.3639 12.739 13.6408 12.4246" fill="black"/>
<path d="M12 0C5.37264 0 0 5.37264 0 12C0 18.6274 5.37264 24 12 24C18.6274 24 24 18.6275 24 12C24 5.37252 18.6275 0 12 0ZM16.8743 8.63688C16.9073 10.6397 15.161 11.2025 15.161 11.2025C15.161 11.2025 15.8728 10.5146 15.8396 8.75292C15.8065 6.9912 14.4824 6.12108 14.4824 6.12108C14.4824 6.12108 16.8413 6.63408 16.8743 8.63688ZM9.02316 18.0466L6.60648 18.1625V17.9418C6.60648 17.9418 8.08524 17.7928 8.08524 15.1997V8.57328C8.08524 6.37728 6.60648 5.99664 6.60648 5.99664V5.79816L9.02316 5.91384V18.0466ZM12.8852 18.1706C11.8342 18.179 9.88368 18.0355 9.88368 18.0355V5.93064C11.1694 5.91396 11.619 5.7402 12.6782 5.88912C13.7375 6.03804 14.648 7.07268 14.8963 8.1072C15.1446 9.14172 14.8799 10.1266 14.5403 10.6644C14.2007 11.2022 13.4562 11.575 13.4562 11.575C13.4562 11.575 14.5818 11.9556 14.9792 12.2866C15.3767 12.6175 16.1461 13.5197 15.8482 15.4812C15.5502 17.4427 13.9362 18.1625 12.8851 18.1706H12.8852ZM15.6785 17.724C15.6785 17.724 16.8245 16.7473 16.7741 14.7671C16.7237 12.7868 15.6785 11.856 15.6785 11.856C15.6785 11.856 17.8342 12.3858 17.8589 14.7444C17.8836 17.103 15.6785 17.724 15.6785 17.724Z" fill="black"/>
<defs>
<linearGradient id="paint0_linear" x1="7.73146" y1="5.21003" x2="16.9124" y2="18.1714" gradientUnits="userSpaceOnUse">
<stop stop-color="#DEB354"/>
<stop offset="1" stop-color="#C89550"/>
</linearGradient>
</defs>
</svg>
