<svg width="24" height="24" viewBox="0 0 24 24" fill="none" xmlns="http://www.w3.org/2000/svg">
<path d="M12 24C18.6274 24 24 18.6274 24 12C24 5.37258 18.6274 0 12 0C5.37258 0 0 5.37258 0 12C0 18.6274 5.37258 24 12 24Z" fill="#FE5D86"/>
<path d="M6 6.77925C6 6.34875 6.354 6 6.7905 6H12.4815C15.8385 6 17.0228 6.396 17.8388 7.20075C18.0911 7.45705 18.2869 7.76342 18.4135 8.10007C18.5401 8.43673 18.5947 8.79619 18.5738 9.15525C18.5738 10.5435 17.826 11.4848 15.8085 11.898C17.757 12.2385 18.7463 13.0305 18.7463 14.6235C18.7647 14.995 18.7063 15.3664 18.5747 15.7143C18.4431 16.0622 18.241 16.3792 17.9813 16.6455C17.1825 17.433 15.8775 18 12.3653 18H6.7905C6.58237 18.0014 6.38219 17.9201 6.23397 17.774C6.08574 17.6279 6.00159 17.4289 6 17.2208V6.77925ZM10.3208 11.2508C10.3208 10.9635 10.557 10.731 10.848 10.731H12.6803C13.7258 10.731 14.508 10.68 14.8703 10.305C14.9546 10.2164 15.0197 10.1113 15.0614 9.99626C15.1031 9.88125 15.1205 9.75883 15.1125 9.63675C15.135 9.39675 15.054 9.15825 14.8875 8.9805C14.52 8.619 13.7385 8.55525 12.6803 8.55525H9.27V15.4792H12.645C13.794 15.4792 14.6453 15.3938 15.0428 14.9977C15.2257 14.8102 15.3203 14.5552 15.3023 14.295C15.3188 14.0302 15.225 13.77 15.0428 13.575C14.6407 13.1798 13.7903 13.1498 12.645 13.1498H10.86C10.7885 13.1515 10.7173 13.1388 10.6508 13.1124C10.5843 13.086 10.5238 13.0464 10.473 12.996C10.4226 12.9462 10.3829 12.8865 10.3566 12.8207C10.3303 12.7549 10.3178 12.6844 10.32 12.6135L10.3208 11.2508Z" fill="white"/>
</svg>
