<svg width="24" height="24" viewBox="0 0 24 24" fill="none" xmlns="http://www.w3.org/2000/svg">
<path d="M12 24C18.6274 24 24 18.6274 24 12C24 5.37258 18.6274 0 12 0C5.37258 0 0 5.37258 0 12C0 18.6274 5.37258 24 12 24Z" fill="#FB2EA3"/>
<path d="M16.974 10.515C16.8037 11.6663 16.1655 12.2235 15.3187 12.4185C16.4812 13.0238 17.0737 13.953 16.5097 15.5625C15.81 17.562 14.148 17.73 11.9377 17.3123L11.4 19.4625L10.104 19.1393L10.6335 17.0183C10.288 16.9325 9.94349 16.843 9.59997 16.7498L9.06897 18.8813L7.77372 18.5588L8.31072 16.404C8.00772 16.3268 7.70022 16.2443 7.38597 16.1655L5.69922 15.7455L6.34272 14.2605C6.34272 14.2605 7.29822 14.5155 7.28472 14.496C7.65222 14.5868 7.81497 14.3475 7.87947 14.1885L8.72697 10.7895L8.86422 10.8233C8.82021 10.806 8.77511 10.7918 8.72922 10.7805L9.33372 8.35425C9.34947 8.07825 9.25497 7.73175 8.72997 7.59975C8.75022 7.58625 7.78797 7.36575 7.78797 7.36575L8.13297 5.98125L9.92097 6.4275L9.91947 6.435C10.188 6.501 10.4655 6.56475 10.7475 6.62925L11.2792 4.5L12.5752 4.8225L12.0547 6.9105C12.402 6.99 12.7522 7.0695 13.0927 7.155L13.6102 5.08125L14.9062 5.40375L14.3752 7.53375C16.0125 8.09775 17.2095 8.943 16.974 10.515ZM14.0115 14.6685C14.4315 12.99 11.613 12.5558 10.734 12.336L10.0222 15.1898C10.9012 15.408 13.6117 16.2788 14.0122 14.6685H14.0115ZM14.4127 10.4918C14.7937 8.964 12.4372 8.62425 11.7052 8.44125L11.0602 11.0295C11.7915 11.2125 14.0475 11.9565 14.4127 10.4918ZM18.1852 16.2135C18.1224 16.2051 18.0585 16.2092 17.9972 16.2255C17.936 16.2419 17.8785 16.2702 17.8282 16.3088C17.7308 16.3923 17.6646 16.5066 17.6407 16.6328C17.6253 16.7029 17.6203 16.7749 17.6257 16.8465C17.6321 16.9281 17.6584 17.0069 17.7022 17.076C17.7472 17.151 17.8192 17.2215 17.9167 17.2875C18.0142 17.3528 18.1492 17.4053 18.3217 17.445C18.4147 17.4675 18.5107 17.478 18.609 17.4773C18.708 17.4773 18.7995 17.4615 18.8835 17.43C18.9723 17.3986 19.0515 17.3448 19.1133 17.2737C19.1751 17.2025 19.2173 17.1166 19.236 17.0243C19.2537 16.9584 19.2581 16.8897 19.2491 16.8221C19.2401 16.7545 19.2178 16.6894 19.1835 16.6305C19.1145 16.515 19.0012 16.4265 18.843 16.365L18.9585 15.8655C19.2435 15.9803 19.443 16.1445 19.5585 16.3568C19.674 16.5698 19.698 16.8225 19.6305 17.115C19.5963 17.2772 19.5286 17.4305 19.4317 17.565C19.3447 17.6836 19.2331 17.7822 19.1046 17.8539C18.9761 17.9256 18.8337 17.9687 18.687 17.9805C18.5256 17.9951 18.363 17.9832 18.2055 17.9453C18.0434 17.9091 17.8879 17.8484 17.7442 17.7653C17.6118 17.6894 17.4962 17.5873 17.4045 17.4653C17.3153 17.344 17.2543 17.2043 17.226 17.0565C17.1957 16.8869 17.2021 16.7127 17.2447 16.5458C17.2734 16.419 17.3196 16.2968 17.382 16.1828C17.4427 16.0718 17.517 15.978 17.6062 15.9015C17.6947 15.825 17.7967 15.7695 17.9122 15.735C18.0285 15.6998 18.1575 15.693 18.3007 15.7133L18.1852 16.2135ZM20.2042 14.6287C20.1689 14.7955 20.1003 14.9534 20.0025 15.093C19.9102 15.2205 19.8 15.321 19.6725 15.3953C19.5406 15.4702 19.3944 15.5167 19.2435 15.5318C19.076 15.5485 18.9068 15.5368 18.7432 15.4973C18.5802 15.4613 18.4245 15.3979 18.2827 15.3098C18.1538 15.2301 18.0429 15.1243 17.9572 14.9993C17.8731 14.8736 17.8169 14.7314 17.7922 14.5823C17.7658 14.4142 17.7734 14.2425 17.8147 14.0775C17.8501 13.9108 17.9187 13.7529 18.0165 13.6132C18.1095 13.4858 18.219 13.3845 18.3472 13.311C18.4791 13.2361 18.6253 13.1896 18.7762 13.1745C18.9337 13.1573 19.0987 13.1685 19.2712 13.2083C19.4356 13.2442 19.5928 13.3076 19.7362 13.3958C19.8712 13.4813 19.9792 13.5848 20.0617 13.707C20.1442 13.8293 20.199 13.968 20.2267 14.1233C20.2533 14.2915 20.2456 14.4635 20.2042 14.6287ZM18.2362 12.5303L18.345 12.0615L18.783 12.1627L18.7852 12.1538C18.724 12.1223 18.6697 12.0789 18.6255 12.0263C18.5237 11.9079 18.4563 11.7639 18.4305 11.61C18.4179 11.5322 18.4205 11.4528 18.438 11.376C18.4515 11.3127 18.4706 11.2507 18.495 11.1908L18.9772 11.3018C18.9632 11.3362 18.9499 11.371 18.9375 11.406C18.9249 11.4406 18.9144 11.4759 18.906 11.5118C18.8852 11.594 18.8834 11.68 18.9005 11.7631C18.9177 11.8462 18.9534 11.9244 19.005 11.9918C19.0634 12.0672 19.1357 12.1309 19.218 12.1793C19.3072 12.234 19.4145 12.276 19.5405 12.3053L20.619 12.5543L20.5035 13.0538L18.2362 12.5303ZM19.9462 10.8878C20.0332 10.9088 20.121 10.9155 20.2087 10.9103C20.2921 10.905 20.3736 10.8836 20.4487 10.8473C20.5233 10.8108 20.5886 10.758 20.64 10.6928C20.6979 10.6164 20.7379 10.5279 20.757 10.434C20.7918 10.3107 20.7873 10.1796 20.7442 10.059C20.6955 9.94795 20.6128 9.85524 20.508 9.79425L20.6167 9.321C20.7794 9.39495 20.9184 9.51251 21.0184 9.66065C21.1183 9.80879 21.1753 9.98171 21.183 10.1603C21.1905 10.2803 21.18 10.4018 21.1522 10.5248C21.111 10.7033 21.045 10.8548 20.955 10.9785C20.8685 11.1 20.756 11.2007 20.6258 11.2734C20.4956 11.346 20.3508 11.3887 20.202 11.3985C19.8734 11.4248 19.545 11.3471 19.263 11.1765C19.134 11.0959 19.0216 10.9915 18.9315 10.869C18.8438 10.748 18.7822 10.6101 18.7507 10.464C18.717 10.3155 18.7207 10.1565 18.759 9.98625C18.7948 9.81875 18.8713 9.66265 18.9817 9.53175C19.0852 9.41041 19.214 9.31314 19.359 9.24675C19.5073 9.18109 19.6671 9.14541 19.8292 9.14175C19.9987 9.13575 20.1652 9.16275 20.3302 9.222L19.9455 10.8885L19.9462 10.8878ZM19.8097 14.538C19.8344 14.4419 19.8345 14.3411 19.8098 14.245C19.7852 14.1489 19.7366 14.0606 19.6687 13.9882C19.6031 13.9167 19.5254 13.8573 19.4392 13.8128C19.2603 13.7186 19.0601 13.6721 18.858 13.6778C18.761 13.6796 18.6652 13.6992 18.5752 13.7355C18.4829 13.7711 18.401 13.8294 18.3371 13.9051C18.2733 13.9807 18.2296 14.0712 18.21 14.1683C18.185 14.264 18.1845 14.3645 18.2087 14.4604C18.2328 14.5564 18.2807 14.6447 18.348 14.7172C18.4102 14.7878 18.4867 14.8455 18.5775 14.8928C18.7566 14.9865 18.9566 15.033 19.1587 15.0278C19.2559 15.0254 19.3519 15.0058 19.4422 14.97C19.5349 14.9348 19.6172 14.8767 19.6814 14.8012C19.7457 14.7257 19.7898 14.6351 19.8097 14.538ZM19.8862 9.64575C19.8068 9.63334 19.7259 9.63258 19.6462 9.6435C19.5704 9.65199 19.4969 9.67537 19.4301 9.71231C19.3633 9.74925 19.3045 9.79901 19.257 9.85875C19.2078 9.92523 19.1725 10.0009 19.1532 10.0813C19.1338 10.1617 19.1309 10.2452 19.1445 10.3268C19.1595 10.4055 19.1872 10.4768 19.2292 10.5405C19.3218 10.6746 19.4594 10.7712 19.617 10.8128L19.8862 9.64575Z" fill="white"/>
</svg>
