<svg width="24" height="24" viewBox="0 0 24 24" fill="none" xmlns="http://www.w3.org/2000/svg">
<rect y="3.05176e-05" width="24" height="24" fill="#00C38C"/>
<path fill-rule="evenodd" clip-rule="evenodd" d="M13.84 3.95626L12.535 4.70626V10.9875L13.2475 11.3925V6.60376L15.6962 7.99126L16.1687 8.26126L16.5662 8.03626V7.66126L13.2512 5.78626V5.11876L13.8438 4.78126L17.2787 6.73126V8.46751L15.6287 9.39751L15.5725 9.37126C15.4771 9.32303 15.3719 9.29737 15.265 9.29626C15.169 9.29621 15.074 9.31546 14.9856 9.35285C14.8972 9.39025 14.8172 9.44503 14.7504 9.51394C14.6836 9.58285 14.6313 9.66449 14.5967 9.754C14.562 9.84351 14.5457 9.93908 14.5487 10.035C14.5483 10.1291 14.5663 10.2223 14.6018 10.3094C14.6374 10.3965 14.6897 10.4757 14.7559 10.5426C14.822 10.6094 14.9007 10.6626 14.9874 10.6991C15.0741 10.7355 15.1672 10.7545 15.2612 10.755C15.4384 10.7539 15.6087 10.6868 15.7391 10.5668C15.8694 10.4469 15.9504 10.2827 15.9662 10.1063V10.0425L17.6312 9.10126L19.1762 9.97876V13.8525L17.6312 14.73L11.3538 11.16V4.69876L10.0488 3.94876L5.905 6.31501V8.46376L4 9.54376V14.2688L5.905 15.3525V17.505L10.0488 19.86L11.3538 19.11V12.8175L10.6412 12.4125V17.2163L7.72 15.5588L7.3225 15.7838V16.1588L10.6375 18.0338V18.6975L10.045 19.035L6.61 17.085V15.345L8.26 14.415L8.31625 14.4413C8.4116 14.4896 8.51684 14.5153 8.62375 14.5163C8.7194 14.5168 8.81419 14.4981 8.90251 14.4614C8.99084 14.4247 9.07092 14.3707 9.13803 14.3025C9.20514 14.2344 9.25792 14.1535 9.29325 14.0646C9.32858 13.9757 9.34575 13.8806 9.34375 13.785C9.34424 13.691 9.32621 13.5977 9.29067 13.5106C9.25513 13.4235 9.20278 13.3443 9.13662 13.2774C9.07046 13.2106 8.99178 13.1574 8.90506 13.121C8.81835 13.0845 8.72531 13.0655 8.63125 13.065C8.45412 13.0662 8.28377 13.1333 8.15343 13.2532C8.02309 13.3731 7.9421 13.5373 7.92625 13.7138V13.7775L6.26125 14.7188L4.72 13.8413V9.96751L6.265 9.09001L12.5387 12.66V19.1213L13.8438 19.8713L17.9912 17.5163V15.3563L19.8962 14.2763V9.55126L17.9912 8.46751V6.31501L13.84 3.95626ZM6.6175 6.73501L10.0525 4.78501L10.645 5.12251V5.77501L6.6175 8.05876V6.73501ZM6.9925 8.67751L10.6487 6.60376V10.755L6.9925 8.67751ZM13.255 13.065L16.9113 15.1425L13.255 17.2163V13.065ZM13.255 18.69V18.045L17.2825 15.7613V17.085L13.84 19.035L13.2475 18.6975L13.255 18.69Z" fill="white"/>
</svg>
