<svg width="24" height="24" viewBox="0 0 24 24" fill="none" xmlns="http://www.w3.org/2000/svg">
<g clip-path="url(#clip0)">
<path d="M11.9988 24C9.62588 23.9995 7.30637 23.2954 5.33355 21.9768C3.36073 20.6582 1.82319 18.7842 0.915336 16.5918C0.00747682 14.3994 -0.229935 11.9871 0.233118 9.65974C0.696172 7.33243 1.8389 5.19468 3.51681 3.51676C5.19472 1.83885 7.33248 0.696126 9.65979 0.233073C11.9871 -0.22998 14.3995 0.00743104 16.5918 0.91529C18.7842 1.82315 20.6582 3.36069 21.9768 5.3335C23.2955 7.30632 23.9995 9.62583 24 11.9988C24.0003 13.5749 23.6901 15.1356 23.0871 16.5918C22.4841 18.048 21.6001 19.3711 20.4857 20.4856C19.3712 21.6001 18.048 22.4841 16.5918 23.0871C15.1357 23.6901 13.5749 24.0003 11.9988 24ZM11.9988 23.0634C14.1866 23.0634 16.3253 22.4146 18.1444 21.1992C19.9635 19.9838 21.3814 18.2563 22.2187 16.2351C23.056 14.2138 23.2752 11.9897 22.8486 9.84395C22.422 7.69817 21.3686 5.72707 19.8218 4.1799C18.275 2.63273 16.3041 1.57897 14.1584 1.15186C12.0127 0.724752 9.78857 0.943473 7.76718 1.78037C5.74579 2.61727 4.01794 4.03476 2.80212 5.8536C1.5863 7.67245 0.937109 9.81097 0.936629 11.9988C0.939844 14.9307 2.10666 17.7416 4.1808 19.8139C6.25495 21.8862 9.06681 23.0506 11.9988 23.0512V23.0634Z" fill="black"/>
<path d="M12.0231 13.0543C12.5926 13.0543 13.0543 12.5926 13.0543 12.023C13.0543 11.4535 12.5926 10.9918 12.0231 10.9918C11.4535 10.9918 10.9918 11.4535 10.9918 12.023C10.9918 12.5926 11.4535 13.0543 12.0231 13.0543Z" fill="black"/>
</g>
<defs>
<clipPath id="clip0">
<rect width="24" height="24" fill="white"/>
</clipPath>
</defs>
</svg>
