<svg width="24" height="24" viewBox="0 0 24 24" fill="none" xmlns="http://www.w3.org/2000/svg">
<path fill-rule="evenodd" clip-rule="evenodd" d="M24 12C24 18.6274 18.6274 24 12 24C5.37255 24 0 18.6274 0 12C0 5.37255 5.37255 0 12 0C18.6274 0 24 5.37255 24 12Z" fill="#2E344F"/>
<path fill-rule="evenodd" clip-rule="evenodd" d="M19.1991 19.2945L17.9659 18.0613L17.6854 18.3138C16.1241 19.7197 14.1064 20.4939 12.0042 20.4939C7.32063 20.4939 3.51033 16.6836 3.51033 12C3.51033 7.31649 7.32063 3.50613 12.0042 3.50613C14.1065 3.50613 16.1241 4.28036 17.6854 5.68621L17.9659 5.93881L19.1991 4.70553C21.084 6.56593 22.2542 9.14871 22.2542 12C22.2542 14.8513 21.084 17.4341 19.1991 19.2945ZM1.74587 12C1.74587 6.34588 6.34591 1.74584 12 1.74584C14.5171 1.74584 16.8247 2.65804 18.6112 4.16845L17.9318 4.84781C16.2673 3.46681 14.1771 2.71055 12.0042 2.71055C6.88194 2.71055 2.71475 6.87779 2.71475 12C2.71475 17.1223 6.88194 21.2895 12.0042 21.2895C14.1771 21.2895 16.2673 20.5332 17.9318 19.1523L18.6112 19.8316C16.8247 21.342 14.5171 22.2542 12 22.2542C6.34591 22.2542 1.74587 17.6541 1.74587 12ZM12 1.08286C5.98034 1.08286 1.08289 5.98025 1.08289 12C1.08289 18.0197 5.98034 22.9172 12 22.9172C18.0197 22.9172 22.9172 18.0197 22.9172 12C22.9172 5.98025 18.0197 1.08286 12 1.08286Z" fill="#FFFFFE"/>
<path fill-rule="evenodd" clip-rule="evenodd" d="M12.294 18.3857C13.7275 18.3216 15.0631 17.7933 16.1563 16.8579L16.483 16.5784L14.8974 14.9928L14.619 15.2193C13.8827 15.8181 12.9542 16.1479 12.0042 16.1479C10.0002 16.1479 8.28477 14.719 7.92516 12.7501L7.86556 12.4238H5.61115L5.67314 12.8756C5.85785 14.2228 6.45646 15.4544 7.40419 16.4372C8.27137 17.3366 9.35694 17.9515 10.5605 18.2284L10.5604 18.8971C7.3365 18.2243 4.95891 15.3371 4.95891 12C4.95891 8.11525 8.11935 4.95474 12.0042 4.95474C12.1605 4.95474 12.3175 4.95998 12.4737 4.97026L12.4813 6.41304L12.8196 6.4625C13.7182 6.5939 14.5678 6.9429 15.3007 7.47872L14.8331 7.94646C14.0072 7.37039 13.0157 7.05647 12.0042 7.05647C9.45579 7.05647 7.34141 8.96599 7.08583 11.4982L7.87743 11.5781C8.09177 9.45388 9.86592 7.85205 12.0042 7.85205C12.9541 7.85205 13.8827 8.18188 14.619 8.78069L14.8974 9.00723L16.483 7.42151L16.1563 7.14206C15.3257 6.43141 14.335 5.94862 13.2733 5.73415L13.2654 4.25238L12.9154 4.21174C12.6151 4.17687 12.3085 4.15916 12.0042 4.15916C7.68072 4.15916 4.16333 7.67656 4.16333 12C4.16333 13.9018 4.85277 15.736 6.10461 17.1648C7.34466 18.5802 9.04859 19.5032 10.9027 19.764L11.3558 19.8277L11.3562 17.5695L11.0273 17.5117C8.77922 17.116 7.02689 15.4179 6.54198 13.2194H7.21352C7.76393 15.3964 9.72788 16.9435 12.0042 16.9435C13.0158 16.9435 14.0073 16.6296 14.8331 16.0536L15.301 16.5215C14.4123 17.1731 13.3688 17.5412 12.2583 17.5909L12.294 18.3857Z" fill="#FFFFFE"/>
<path fill-rule="evenodd" clip-rule="evenodd" d="M14.1165 5.27748C15.059 5.57383 15.9152 6.05781 16.6613 6.71589L17.1875 6.11927C16.3575 5.38707 15.4045 4.84846 14.3551 4.51849L14.1165 5.27748Z" fill="#FFFFFE"/>
<path fill-rule="evenodd" clip-rule="evenodd" d="M12.2616 19.0405L12.2902 19.8357C14.0926 19.7709 15.8319 19.0765 17.1876 17.8807L16.6614 17.284C15.4433 18.3586 13.8807 18.9823 12.2616 19.0405Z" fill="#FFFFFE"/>
<path fill-rule="evenodd" clip-rule="evenodd" d="M11.5067 5.62694C9.99036 5.74376 8.56156 6.40256 7.48349 7.48203C6.40567 8.5613 5.74833 9.99103 5.63257 11.5079L6.42583 11.5684C6.63374 8.84327 8.84433 6.62997 11.5678 6.42013L11.5067 5.62694Z" fill="#FFFFFE"/>
</svg>
