<svg width="24" height="24" viewBox="0 0 24 24" fill="none" xmlns="http://www.w3.org/2000/svg">
<path d="M12 24C18.6274 24 24 18.6274 24 12C24 5.37258 18.6274 0 12 0C5.37258 0 0 5.37258 0 12C0 18.6274 5.37258 24 12 24Z" fill="#37E8A3"/>
<path d="M9.102 11.9745L11.7135 14.5942L18.561 7.701L19.5 8.6535L11.7135 16.5L8.16225 12.9277L9.102 11.9745ZM10.6845 11.742L14.898 7.5L15.8378 8.4525L11.625 12.6975L10.6845 11.742ZM8.9775 15.3645L8.0505 16.299L4.5 12.7275L5.43825 11.775L8.9775 15.3645Z" fill="white"/>
</svg>
