<svg width="24" height="24" viewBox="0 0 24 24" fill="none" xmlns="http://www.w3.org/2000/svg">
<path d="M12 24C18.6274 24 24 18.6274 24 12C24 5.37258 18.6274 0 12 0C5.37258 0 0 5.37258 0 12C0 18.6274 5.37258 24 12 24Z" fill="#3C80F1"/>
<path d="M12.063 3C7.96049 3.003 4.63499 6.327 4.63049 10.4288C4.63424 10.8292 4.67924 11.2282 4.76399 11.6198C4.76831 11.6383 4.77713 11.6554 4.78968 11.6697C4.80223 11.684 4.81812 11.695 4.83592 11.7017C4.85373 11.7084 4.87292 11.7105 4.89177 11.708C4.91062 11.7055 4.92856 11.6984 4.94399 11.6873C5.22794 11.4839 5.56827 11.3743 5.91749 11.3737C5.93437 11.3743 5.95116 11.3711 5.96665 11.3644C5.98214 11.3577 5.99595 11.3476 6.00707 11.3349C6.01819 11.3222 6.02636 11.3072 6.03097 11.291C6.03558 11.2747 6.03653 11.2577 6.03374 11.241C5.98436 10.9758 5.95875 10.7067 5.95724 10.437C5.95724 9.63528 6.11515 8.84141 6.42196 8.10072C6.72876 7.36002 7.17845 6.68701 7.74536 6.12011C8.31226 5.55321 8.98527 5.10352 9.72596 4.79672C10.4667 4.48991 11.2605 4.332 12.0622 4.332C12.864 4.332 13.6578 4.48991 14.3985 4.79672C15.1392 5.10352 15.8122 5.55321 16.3791 6.12011C16.946 6.68701 17.3957 7.36002 17.7025 8.10072C18.0093 8.84141 18.1672 9.63528 18.1672 10.437C18.1672 13.8045 13.8592 18.1058 12.3172 19.6245C12.2494 19.6911 12.1581 19.7284 12.063 19.7284C11.9679 19.7284 11.8766 19.6911 11.8087 19.6245C11.1559 18.9874 10.5224 18.3309 9.90899 17.6558H9.87899C9.28905 17.5978 8.70988 17.459 8.15774 17.2432L8.05574 17.202C8.03212 17.1911 8.00549 17.1886 7.98026 17.195C7.95503 17.2013 7.93273 17.2161 7.91706 17.2368C7.90138 17.2576 7.89327 17.2831 7.89408 17.3091C7.89489 17.3351 7.90456 17.36 7.92149 17.3798C8.8762 18.5206 9.88931 19.6113 10.9567 20.6475C11.2522 20.9356 11.6485 21.0969 12.0611 21.0969C12.4738 21.0969 12.8701 20.9356 13.1655 20.6475C15.8805 17.9655 19.4955 13.998 19.4955 10.4288C19.491 6.32625 16.1655 3.003 12.063 3Z" fill="white"/>
<path d="M15.153 11.1803C15.153 11.2852 15.1447 11.388 15.135 11.49C15.108 11.8805 15.0176 12.2641 14.8672 12.6255C14.7052 12.9855 14.4892 13.3177 14.2275 13.6125L14.235 13.6193C13.7165 14.1986 13.0762 14.6561 12.36 14.9587C11.6508 15.2639 10.8768 15.3881 10.1077 15.3203C9.37482 15.2474 8.6743 14.9816 8.07749 14.55C8.27024 14.544 8.46149 14.5148 8.64749 14.463C8.81546 14.4165 8.9764 14.3477 9.12599 14.2583C9.4494 14.0652 9.7003 13.7711 9.83999 13.4213C9.90524 13.2615 9.94949 13.095 9.97349 12.924C9.98849 12.7815 9.99224 12.6367 9.98699 12.4928V7.62525C9.98665 7.62051 9.98665 7.61574 9.98699 7.611V7.5855C9.99787 7.52685 10.027 7.47314 10.0702 7.43206C10.1135 7.39097 10.1686 7.36461 10.2277 7.35675H11.835C12.216 7.38675 12.5887 7.4865 12.9337 7.6515C13.6527 7.99143 14.2541 8.53795 14.661 9.22125C14.76 9.38925 14.847 9.56475 14.9197 9.74625C14.9895 9.92625 15.045 10.1138 15.0847 10.3028C15.1245 10.4918 15.147 10.6838 15.1522 10.8765V11.181L15.153 11.1803ZM16.476 10.8308C16.4679 10.5606 16.4355 10.2918 16.3792 10.0275C16.2677 9.50472 16.0711 9.0038 15.7972 8.54475C15.2544 7.63177 14.4506 6.9022 13.4895 6.45C12.9984 6.21682 12.4686 6.07598 11.9265 6.0345C11.8582 6.0345 11.7922 6.0345 11.7172 6.027H10.2187C10.1707 6.027 10.1212 6.027 10.0725 6.0375C9.87674 6.06 9.68624 6.12 9.51149 6.213C9.27127 6.34136 9.0676 6.52867 8.91962 6.75733C8.77163 6.986 8.68419 7.24852 8.66549 7.52025V12.4928C8.66549 12.5798 8.65949 12.6667 8.64749 12.753C8.63999 12.8115 8.62574 12.8685 8.60474 12.924C8.58833 12.9653 8.56555 13.0038 8.53724 13.038C8.46807 13.1122 8.37818 13.164 8.27924 13.1865C8.13149 13.224 7.97924 13.236 7.82699 13.2218C7.28393 13.1686 6.77293 12.9401 6.37124 12.5708C6.25588 12.464 6.10636 12.4018 5.94935 12.3951C5.79234 12.3884 5.63806 12.4377 5.51402 12.5341C5.38997 12.6306 5.30423 12.768 5.27208 12.9218C5.23993 13.0757 5.26347 13.2359 5.33849 13.374C5.80646 14.2288 6.44885 14.9757 7.22399 15.5662C7.62377 15.8645 8.06166 16.1079 8.52599 16.29C8.99206 16.4719 9.48086 16.589 9.97874 16.638C10.9671 16.7295 11.9627 16.5739 12.876 16.185C13.7856 15.8088 14.5923 15.2207 15.2287 14.4697L15.237 14.4765C15.5881 14.0794 15.8765 13.631 16.092 13.1467C16.2963 12.6536 16.4191 12.1305 16.4557 11.598C16.4662 11.4645 16.473 11.3438 16.4775 11.2163V11.028C16.4827 10.9725 16.4782 10.8968 16.4775 10.8308H16.476Z" fill="white"/>
</svg>
