<svg width="24" height="24" viewBox="0 0 24 24" fill="none" xmlns="http://www.w3.org/2000/svg">
<path fill-rule="evenodd" clip-rule="evenodd" d="M19.3376 7.88695C19.1622 8.02389 18.9386 8.17958 18.6799 8.34776L18.7022 8.3612L23.4225 16.2876V7.00195C23.4225 6.01051 23.1979 5.07095 22.7961 4.23251C22.7961 4.23251 20.3282 7.11201 19.3376 7.88695Z" fill="#560B74"/>
<path fill-rule="evenodd" clip-rule="evenodd" d="M5.89024 8.60012L12.0896 5.02081L12.5226 5.27137L18.2852 8.59831C18.424 8.51244 18.5556 8.42919 18.6799 8.34775L12.0896 4.543L5.47681 8.36119V15.9896C5.61549 15.8643 5.75418 15.7435 5.89024 15.6271V8.60012Z" fill="#763C90"/>
<path fill-rule="evenodd" clip-rule="evenodd" d="M18.2852 8.59832L18.2889 8.60013V15.7578L12.0896 19.3371L5.89024 15.7578V15.6271C5.75418 15.7435 5.61549 15.8643 5.47681 15.9896V15.9967L12.0896 19.8149L18.7022 15.9967V8.36119L18.6799 8.34776C18.5556 8.42919 18.424 8.51244 18.2852 8.59832Z" fill="#602278"/>
<path fill-rule="evenodd" clip-rule="evenodd" d="M14.9485 10.4819L17.7439 15.3166C17.7663 15.3552 17.7377 15.4034 17.693 15.4034H6.50051C6.45576 15.4034 6.42801 15.3552 6.45039 15.3166L6.59626 15.0643L12.0395 5.62488C12.0618 5.58638 12.1173 5.58638 12.1396 5.62488L14.9485 10.4819ZM11.439 5.66957L6.12645 14.8701C6.01101 15.0706 5.99939 15.2907 6.06383 15.4822C6.16045 15.7713 6.42976 15.9967 6.77701 15.9967H17.4021C17.8406 15.9967 18.1547 15.637 18.1547 15.2442C18.1547 15.1198 18.1225 14.9909 18.0526 14.8701L12.7401 5.66957C12.6676 5.54432 12.5691 5.45038 12.4555 5.3877C12.1164 5.19982 11.6556 5.29376 11.439 5.66957Z" fill="#743E89"/>
<path fill-rule="evenodd" clip-rule="evenodd" d="M23.4225 16.9981V16.2876L18.7022 8.3612V15.9967L12.0896 19.8149L5.47681 15.9967L9.83012 23.4219H16.9976C20.5456 23.4219 23.4225 20.546 23.4225 16.9981Z" fill="#753F8A"/>
<path fill-rule="evenodd" clip-rule="evenodd" d="M5.47676 15.9896V8.36119L12.0895 4.543L18.6799 8.34775C18.9385 8.17956 19.1622 8.02388 19.3375 7.88694C20.3281 7.112 22.796 4.2325 22.796 4.2325C21.7616 2.07063 19.5541 0.578064 16.9976 0.578064H7.00245C3.45445 0.578064 0.577637 3.454 0.577637 7.00194V16.9981C0.577637 18.1711 0.891699 19.2709 1.44114 20.2168C1.44114 20.2168 3.52782 17.7389 5.47676 15.9896Z" fill="#662083"/>
<path fill-rule="evenodd" clip-rule="evenodd" d="M18.0526 14.8701C18.1225 14.9909 18.1547 15.1198 18.1547 15.2442H18.2889V8.60013L18.2853 8.59832C17.4505 9.11557 16.3767 9.71507 15.3843 10.2493L18.0526 14.8701Z" fill="#50056E"/>
<path fill-rule="evenodd" clip-rule="evenodd" d="M23.4225 16.9981C23.4225 20.546 20.5456 23.4219 16.9976 23.4219H9.83008L10.1656 23.9938H17.2481C20.9733 23.9938 23.9942 20.9737 23.9942 17.2477L23.4225 16.2876V16.9981Z" fill="#7E4498"/>
<path fill-rule="evenodd" clip-rule="evenodd" d="M12.0394 5.62488L6.59619 15.0643C6.844 14.88 7.08119 14.7225 7.30219 14.5981C8.60238 13.8671 12.5369 11.7347 12.5369 11.7347C12.5369 11.7347 13.6206 11.1898 14.9484 10.4819L12.1396 5.62488C12.1173 5.58638 12.0618 5.58638 12.0394 5.62488Z" fill="#5E187B"/>
<path fill-rule="evenodd" clip-rule="evenodd" d="M12.4554 5.38769C12.5691 5.45038 12.6676 5.54432 12.74 5.66957L15.3842 10.2493C16.3766 9.71507 17.4504 9.11557 18.2852 8.59832L12.5226 5.27138L12.4554 5.38769Z" fill="#60187C"/>
<path fill-rule="evenodd" clip-rule="evenodd" d="M7.30229 14.5981C7.08129 14.7225 6.8441 14.88 6.59629 15.0643L6.45041 15.3166C6.42804 15.3552 6.45579 15.4034 6.50054 15.4034H17.693C17.7377 15.4034 17.7663 15.3552 17.7439 15.3166L14.9485 10.4819C13.6207 11.1898 12.537 11.7347 12.537 11.7347C12.537 11.7347 8.60247 13.8671 7.30229 14.5981Z" fill="#4D026B"/>
<path fill-rule="evenodd" clip-rule="evenodd" d="M17.4021 15.9967H6.77701C6.42976 15.9967 6.16045 15.7713 6.06382 15.4822C6.00657 15.5296 5.94838 15.5779 5.89026 15.6271V15.7578L12.0896 19.3371L18.2889 15.7578V15.2442H18.1547C18.1547 15.637 17.8406 15.9967 17.4021 15.9967Z" fill="#4B0069"/>
<path fill-rule="evenodd" clip-rule="evenodd" d="M6.12645 14.8701L11.439 5.66956C11.6556 5.29375 12.1164 5.19981 12.4555 5.38769L12.5226 5.27138L12.0896 5.02081L5.89026 8.60013V15.6271C5.94838 15.5779 6.00657 15.5296 6.06382 15.4822C5.99938 15.2907 6.01101 15.0706 6.12645 14.8701Z" fill="#5E167A"/>
<path fill-rule="evenodd" clip-rule="evenodd" d="M5.47679 15.9896C3.52785 17.7389 1.44116 20.2168 1.44116 20.2168C2.55341 22.1334 4.6276 23.4219 7.00247 23.4219H9.8301L5.47679 15.9967V15.9896Z" fill="#4B0069"/>
<path fill-rule="evenodd" clip-rule="evenodd" d="M17.2484 0.0065155H6.75217C3.02704 0.0065155 0.00610352 3.02652 0.00610352 6.75258V17.248C0.00610352 20.974 3.02704 23.994 6.75217 23.994H10.1659L9.83035 23.4222H7.00273C4.62785 23.4222 2.55367 22.1337 1.44142 20.217C0.891979 19.2711 0.577916 18.1714 0.577916 16.9983V7.0022C0.577916 3.45427 3.45473 0.578328 7.00273 0.578328H16.9979C19.5544 0.578328 21.7619 2.07089 22.7963 4.23277C23.1981 5.0712 23.4227 6.01077 23.4227 7.0022V16.2878L23.9945 17.248V6.75258C23.9945 3.02652 20.9735 0.0065155 17.2484 0.0065155Z" fill="#500071"/>
</svg>
