<svg width="24" height="24" viewBox="0 0 24 24" fill="none" xmlns="http://www.w3.org/2000/svg">
<g clip-path="url(#clip0)">
<path d="M12.512 6.16321L17.3984 9.11041L12.512 11.904L7.40485 9.11041L12.512 6.16321Z" fill="#EA259E"/>
<path d="M7.40485 9.21594L12.512 11.9999L12.4832 17.6831L7.40485 14.9951V9.21594Z" fill="#014C99"/>
<path d="M12.512 12L17.456 9.21594L17.6 14.9952L12.5792 17.7889L12.512 12Z" fill="#08B0F9"/>
<path d="M22.6689 5.80806L22.5921 5.76006L17.7153 2.96643L12.6081 0.0384004L12.5409 0L12.4833 0.0288003C12.3874 0.0630614 12.2943 0.10479 12.2049 0.153602L7.75044 2.75523L2.24001 5.98086C2.00961 6.08646 2.01921 6.32646 2.01921 6.47047V6.57607L2.00961 14.7553L2.00001 17.789C1.99041 17.9714 2.06721 18.1346 2.20161 18.1922L8.53765 21.7922L12.2817 23.9234C12.3585 23.9714 12.4449 24.0002 12.5217 24.0002C12.5874 24.0032 12.652 23.9828 12.7041 23.9426L18.1185 20.8226L22.7265 18.173C22.8993 18.0962 23.0049 17.9234 22.9761 17.7602L22.9953 6.26886C23.0241 6.00006 22.8033 5.87526 22.6689 5.80806ZM12.5025 6.53767L16.9665 9.12969L12.5121 11.6929L10.9953 10.8385L8.00005 9.13929L12.5025 6.53767ZM17.5713 8.77449L12.7329 5.96166C12.6692 5.9148 12.5926 5.88873 12.5136 5.88701C12.4346 5.88529 12.3569 5.90801 12.2913 5.95206L7.39524 8.79369L2.94082 6.26886L6.05124 4.45445L12.5121 0.681607L18.4545 4.08964L22.0833 6.17286L17.5713 8.77449ZM2.63362 6.79687L7.06884 9.31209L7.15524 14.8418C7.14564 15.0146 7.23204 15.1682 7.36644 15.2354L10.3137 16.925L12.2049 18.0098V23.1842L2.61442 17.7314L2.63362 6.79687ZM7.68324 9.6577L12.2145 12.2209L12.2049 17.309L7.76964 14.7649L7.68324 9.6577ZM12.8193 18.0194L14.7105 16.925L17.6289 15.2546L17.6577 15.2354C17.7153 15.2066 17.7825 15.1586 17.8305 15.0914L17.8593 15.053V15.005L17.8497 11.3377V9.32169L22.3809 6.70087V11.1649L22.3713 17.6738L16.2945 21.1682L12.8097 23.1746L12.8193 18.0194ZM12.8193 17.3186V12.2209L17.2833 9.6481V14.7553L12.8193 17.3186Z" fill="#2F2F2F"/>
<path d="M12.3776 1.27674C12.2432 1.29594 12.128 1.38234 12.0704 1.49754C12.0128 1.63194 12.0224 1.77594 12.0896 1.87194C12.1664 1.98714 12.2912 2.05434 12.4352 2.05434C12.461 2.05256 12.4866 2.04935 12.512 2.04474C12.6752 2.02554 12.8 1.91034 12.8288 1.76634C12.8488 1.70341 12.8513 1.63624 12.836 1.57199C12.8208 1.50775 12.7885 1.44884 12.7424 1.40154C12.6974 1.3512 12.6402 1.31327 12.5763 1.29142C12.5124 1.26956 12.444 1.26451 12.3776 1.27674ZM12.6368 2.95674C12.4928 2.87994 12.3296 2.88954 12.2144 2.96634C12.1088 3.02394 12.0416 3.13914 12.0224 3.26394C12.0128 3.39834 12.0704 3.51354 12.1472 3.58074C12.1842 3.61599 12.2279 3.64349 12.2758 3.66162C12.3236 3.67976 12.3745 3.68816 12.4256 3.68634C12.4852 3.68534 12.544 3.67227 12.5984 3.64794C12.752 3.59034 12.8384 3.44634 12.8384 3.30234C12.848 3.16794 12.7616 3.03354 12.6368 2.95674ZM12.6464 4.60794C12.512 4.52154 12.3488 4.52154 12.224 4.58874C12.1088 4.64634 12.032 4.76154 12.0224 4.89594C12.0128 5.03034 12.0704 5.17434 12.176 5.24154C12.248 5.2948 12.3361 5.32189 12.4256 5.31834C12.4852 5.31734 12.544 5.30427 12.5984 5.27994C12.6637 5.25385 12.7203 5.2099 12.7617 5.15314C12.8032 5.09638 12.8278 5.02909 12.8329 4.95897C12.8379 4.88886 12.823 4.81875 12.7901 4.75667C12.7571 4.69459 12.7073 4.64305 12.6464 4.60794ZM6.128 15.3695C5.984 15.4079 5.8784 15.5231 5.8496 15.6671C5.8208 15.8207 5.8688 15.9647 5.9744 16.0511C6.04095 16.1087 6.12647 16.1395 6.2144 16.1375C6.24348 16.1377 6.27247 16.1345 6.3008 16.1279C6.4256 16.0991 6.5312 16.0127 6.5696 15.9071C6.6368 15.7727 6.6176 15.6095 6.5024 15.4847C6.45816 15.4309 6.39909 15.3913 6.33252 15.3709C6.26595 15.3504 6.19483 15.3499 6.128 15.3695ZM18.5312 16.1471C18.564 16.1455 18.5963 16.139 18.6272 16.1279C18.752 16.0991 18.8576 16.0127 18.8864 15.9167C18.9536 15.7727 18.9248 15.5999 18.8192 15.4751C18.7708 15.4214 18.7079 15.3828 18.638 15.3641C18.5682 15.3454 18.4944 15.3473 18.4256 15.3695C18.2912 15.4079 18.1856 15.5231 18.1568 15.6671C18.128 15.8207 18.1856 15.9647 18.2912 16.0511C18.3488 16.1183 18.4352 16.1471 18.5312 16.1471ZM4.7264 16.1951C4.5824 16.2431 4.4864 16.3775 4.4768 16.5311C4.4576 16.6943 4.5344 16.8479 4.6592 16.9151C4.71657 16.9519 4.78308 16.9718 4.8512 16.9727C4.90769 16.9715 4.9633 16.9584 5.0144 16.9343C5.1392 16.8767 5.2256 16.7615 5.2352 16.6559C5.264 16.5119 5.2064 16.3583 5.0912 16.2623C5.04307 16.2176 4.98319 16.1876 4.91858 16.1757C4.85397 16.1638 4.78731 16.1705 4.7264 16.1951ZM19.8944 16.9631C19.94 16.965 19.9855 16.9585 20.0288 16.9439C20.1632 16.8959 20.2592 16.7807 20.2688 16.6655C20.3072 16.5215 20.2688 16.3775 20.1536 16.2719C20.1035 16.224 20.0408 16.1913 19.9728 16.1776C19.9048 16.164 19.8343 16.1701 19.7696 16.1951C19.7048 16.2219 19.6479 16.2648 19.6043 16.3196C19.5606 16.3745 19.5317 16.4396 19.5201 16.5088C19.5086 16.5779 19.5149 16.6489 19.5384 16.7149C19.5619 16.781 19.6018 16.84 19.6544 16.8863C19.7235 16.9382 19.808 16.9653 19.8944 16.9631ZM3.6704 17.0495C3.5552 16.9823 3.4112 16.9823 3.3056 17.0495C3.1808 17.1167 3.104 17.2415 3.104 17.3951C3.104 17.5487 3.1808 17.6831 3.3056 17.7407C3.35779 17.7721 3.41752 17.7887 3.4784 17.7887C3.55283 17.7899 3.62607 17.7699 3.6896 17.7311C3.8144 17.6447 3.8816 17.5007 3.872 17.3759C3.872 17.2415 3.7952 17.1167 3.6704 17.0399V17.0495ZM21.0368 17.7023C21.1004 17.7584 21.1824 17.7892 21.2672 17.7887C21.3166 17.7887 21.3656 17.779 21.4112 17.7599C21.5456 17.7023 21.6416 17.5679 21.6512 17.4527C21.68 17.2991 21.6128 17.1455 21.4784 17.0591C21.3536 16.9727 21.2 16.9727 21.0848 17.0495C21.0285 17.0841 20.9816 17.1319 20.9481 17.1888C20.9146 17.2457 20.8956 17.31 20.8928 17.3759C20.8832 17.5103 20.9408 17.6351 21.0368 17.7023Z" fill="#2F2F2F"/>
</g>
<defs>
<clipPath id="clip0">
<rect width="24" height="24" fill="white"/>
</clipPath>
</defs>
</svg>
