<svg width="24" height="24" viewBox="0 0 24 24" fill="none" xmlns="http://www.w3.org/2000/svg">
<path d="M12 24C18.6274 24 24 18.6274 24 12C24 5.37258 18.6274 0 12 0C5.37258 0 0 5.37258 0 12C0 18.6274 5.37258 24 12 24Z" fill="#5411B3"/>
<path fill-rule="evenodd" clip-rule="evenodd" d="M12.0398 3.75C12.4373 3.98925 12.8318 4.23375 13.2323 4.467C15.1335 5.5695 17.0348 6.6705 18.9383 7.7685C19.0635 7.8405 19.119 7.92075 19.119 8.0745C19.1153 10.6935 19.116 13.3125 19.125 15.9315C19.125 16.1025 19.047 16.1737 18.9225 16.2457C16.6598 17.5552 14.3985 18.867 12.1373 20.1788C12.1028 20.199 12.072 20.226 12.0398 20.25H11.9573C11.2748 19.848 10.5923 19.4423 9.90751 19.044C8.29201 18.1058 6.67501 17.169 5.05651 16.2367C4.91926 16.158 4.87426 16.068 4.87501 15.9105C4.88251 13.3125 4.88401 10.7145 4.87876 8.11575C4.87876 7.92975 4.94251 7.836 5.09551 7.74825C7.33726 6.45525 9.57526 5.15775 11.814 3.86025C11.8658 3.83025 11.91 3.78675 11.9573 3.75H12.0398ZM14.1443 16.86C14.454 17.0722 14.757 17.295 15.069 17.52C15.0863 17.5125 15.1118 17.502 15.135 17.4893C16.1475 16.9035 17.1623 16.3193 18.1718 15.7267C18.2318 15.6915 18.2843 15.588 18.2843 15.5167C18.2895 13.1722 18.2888 10.8285 18.282 8.48475C18.2786 8.44395 18.2664 8.40438 18.2462 8.36877C18.226 8.33316 18.1983 8.30236 18.165 8.2785C17.1675 7.692 16.1648 7.116 15.1665 6.53175C15.063 6.47175 15.0053 6.48975 14.9175 6.558C14.6753 6.74775 12.2933 8.20275 11.3603 8.763C10.6313 9.1995 9.91876 9.66 9.35476 10.3155C8.57701 11.2192 8.50426 12.4717 9.18451 13.4542C9.52126 13.9417 9.97051 14.3122 10.452 14.6415C10.836 14.9032 11.232 15.1463 11.622 15.3975C11.6115 15.4125 11.6055 15.4275 11.595 15.4335C11.0805 15.732 10.5675 16.0335 10.047 16.3237C9.99676 16.3515 9.89251 16.3237 9.83551 16.2877C9.28254 15.9309 8.77527 15.5077 8.32501 15.0278C7.02751 13.6673 6.76351 11.4375 7.71001 9.81075C8.14597 9.06031 8.75229 8.42291 9.48001 7.95C10.425 7.332 13.0575 5.76975 13.4063 5.556C13.3763 5.517 13.368 5.496 13.3523 5.48625C12.9383 5.24475 12.5273 4.99875 12.1073 4.7685C12.0458 4.73475 11.934 4.7475 11.8673 4.782C11.6363 4.90125 11.415 5.0385 11.1908 5.16975C10.9928 5.28525 10.7955 5.40225 10.5683 5.5365L11.6468 6.2145C11.0955 6.54 10.5743 6.852 10.047 7.15425C10.005 7.17825 9.91501 7.1595 9.86926 7.128C9.60814 6.95228 9.35348 6.76716 9.10576 6.573C8.99701 6.48675 8.92501 6.4785 8.80351 6.54975C7.82266 7.12333 6.83915 7.69233 5.85301 8.25675C5.74426 8.319 5.70901 8.39175 5.70901 8.51775C5.71276 10.8413 5.71201 13.1648 5.70826 15.4875C5.70826 15.612 5.74051 15.6855 5.85226 15.75C6.83176 16.311 7.80826 16.878 8.78251 17.4487C8.89051 17.5125 8.96251 17.5095 9.07126 17.4368C9.77026 16.9695 12.9683 14.9647 13.857 14.412C14.0078 14.3182 14.1345 14.184 14.271 14.0685L14.2485 14.016H10.929C11.2665 13.4295 11.5815 12.876 11.9078 12.3292C11.9378 12.2797 12.048 12.2587 12.1215 12.2587C13.6268 12.255 15.1328 12.2565 16.638 12.2565C16.698 12.2565 16.758 12.2633 16.8308 12.267C16.8345 12.3383 16.851 12.402 16.8375 12.4575C16.7385 12.8693 16.6725 13.2945 16.5225 13.6875C16.167 14.622 15.5078 15.3405 14.7045 15.894C13.827 16.4977 11.0333 18.144 10.5593 18.4268C10.5818 18.4665 10.5848 18.483 10.5945 18.489C10.8833 18.6593 11.193 18.8017 11.4563 19.0057C11.835 19.2982 12.165 19.2968 12.5438 19.0057C12.8168 18.7965 13.1363 18.6488 13.467 18.4545L12.369 17.7682C12.399 17.742 12.4163 17.721 12.438 17.7083C12.9405 17.4165 13.443 17.1233 13.95 16.8383C13.998 16.812 14.0955 16.8263 14.1443 16.86ZM16.3148 9.85725C16.5735 10.3162 16.7663 10.9065 16.7948 11.3618C16.2863 11.3618 15.7958 11.3647 15.3045 11.358C15.2595 11.3573 15.189 11.3055 15.1748 11.262C14.9348 10.521 14.4225 9.9945 13.8173 9.552C13.3875 9.23775 12.93 8.961 12.4853 8.667C12.4478 8.643 12.411 8.61675 12.3503 8.57475C12.4515 8.514 12.5303 8.46525 12.6113 8.418C13.0253 8.178 13.4363 7.93275 13.8563 7.70175C13.9313 7.65975 14.0663 7.63425 14.127 7.674C15.0045 8.25075 15.7883 8.92425 16.3148 9.85725Z" fill="white"/>
</svg>
