<svg width="24" height="24" viewBox="0 0 24 24" fill="none" xmlns="http://www.w3.org/2000/svg">
<path d="M12 24C18.6274 24 24 18.6274 24 12C24 5.37258 18.6274 0 12 0C5.37258 0 0 5.37258 0 12C0 18.6274 5.37258 24 12 24Z" fill="#FF0060"/>
<path d="M18.8025 9.03525H11.9415C11.4103 9.03442 10.889 9.17918 10.4342 9.45381C9.97945 9.72843 9.60865 10.1224 9.36207 10.593C9.1155 11.0635 9.00259 11.5927 9.03559 12.1229C9.0686 12.6531 9.24627 13.1641 9.5493 13.6005C9.85233 14.0368 10.2691 14.3818 10.7544 14.5979C11.2397 14.814 11.775 14.8929 12.302 14.8262C12.8291 14.7595 13.3277 14.5497 13.7439 14.2195C14.16 13.8893 14.4778 13.4513 14.6625 12.9532H11.9415C11.8407 12.9533 11.7409 12.9336 11.6478 12.895C11.5546 12.8565 11.47 12.8 11.3988 12.7287C11.3275 12.6575 11.271 12.5729 11.2325 12.4797C11.1939 12.3866 11.1742 12.2868 11.1743 12.186V12.093C11.1742 11.9922 11.1939 11.8924 11.2325 11.7993C11.271 11.7061 11.3275 11.6215 11.3988 11.5503C11.47 11.479 11.5546 11.4225 11.6478 11.384C11.7409 11.3454 11.8407 11.3257 11.9415 11.3257H16.4768C16.5098 11.5373 16.5255 11.751 16.5233 11.9648C16.5188 12.87 16.2463 13.7536 15.7402 14.5041C15.234 15.2546 14.5169 15.8383 13.6793 16.1817C12.8417 16.525 11.9212 16.6125 11.0339 16.4332C10.1467 16.2539 9.33237 15.8157 8.69385 15.1741C8.05533 14.5324 7.62119 13.716 7.44622 12.8279C7.27125 11.9397 7.36329 11.0196 7.71072 10.1837C8.05815 9.34784 8.64541 8.63359 9.39838 8.13113C10.1513 7.62867 11.0363 7.36051 11.9415 7.3605L12.0818 7.33725C12.111 7.35075 12.1418 7.35825 12.1748 7.3605H16.2443C18.465 7.3605 19.3718 6.17475 19.3718 4.5H11.9415C7.83751 4.5 4.50751 7.82475 4.50001 11.9302C4.49401 16.0357 7.81351 19.3702 11.919 19.3837C16.0245 19.3965 19.3643 16.0822 19.3838 11.9767V9.62775C19.3853 9.55048 19.3713 9.47368 19.3428 9.40186C19.3142 9.33003 19.2717 9.26462 19.2175 9.20945C19.1634 9.15428 19.0988 9.11046 19.0276 9.08055C18.9563 9.05063 18.8798 9.03524 18.8025 9.03525Z" fill="white"/>
</svg>
