<svg width="24" height="24" viewBox="0 0 24 24" fill="none" xmlns="http://www.w3.org/2000/svg">
<path d="M12 24C18.6274 24 24 18.6274 24 12C24 5.37258 18.6274 0 12 0C5.37258 0 0 5.37258 0 12C0 18.6274 5.37258 24 12 24Z" fill="#B3B3B3"/>
<path d="M5.06016 5.24354C6.04296 4.21558 7.83812 4.17472 8.85425 5.17364C9.91518 6.21056 10.9648 7.25733 12.0032 8.31397C13.1091 7.26343 14.143 6.143 15.2532 5.09676C16.3096 4.143 18.1026 4.25805 19.043 5.32687C20.0048 6.3344 19.9892 8.093 18.9892 9.07149C17.9618 10.1177 16.9215 11.1478 15.8854 12.1849C16.944 13.2763 18.0478 14.3242 19.0973 15.429C20.0392 16.4618 19.9489 18.2199 18.929 19.1693C17.9241 20.1833 16.1241 20.186 15.1215 19.1693C14.0784 18.1478 13.058 17.0973 12.022 16.0693C10.9161 17.1333 9.86178 18.2494 8.74242 19.3021C7.67253 20.2516 5.86769 20.1086 4.94619 19.0204C4.01823 18.015 4.04027 16.3016 5.00909 15.3274C5.91877 14.3941 6.84457 13.4763 7.77307 12.5661C8.16178 12.9538 8.55103 13.3441 8.93973 13.7317C8.02952 14.672 7.07199 15.5715 6.17522 16.5274C5.57038 17.1473 6.10318 18.3016 6.95264 18.2882C7.46715 18.3333 7.82253 17.907 8.15748 17.5849C9.04511 16.6806 9.94672 15.7925 10.8344 14.8887C8.89888 12.9365 6.93221 11.0107 5.0064 9.04945C4.00156 8.03708 4.03328 6.23117 5.06016 5.24837V5.24354ZM6.18382 7.87311C7.20855 8.94192 8.27199 9.96988 9.31447 11.0231C9.81626 10.5134 10.3227 10.007 10.8338 9.50375C9.82468 8.48708 8.81984 7.46074 7.79726 6.4602C7.47146 6.10859 6.91393 5.97633 6.48866 6.23009C5.89726 6.51665 5.71124 7.39569 6.18275 7.87364L6.18382 7.87311ZM16.201 6.48708C14.2768 8.37633 12.3913 10.3043 10.4763 12.2043C10.9935 12.7048 11.508 13.2075 12.0112 13.7215C12.3978 13.3403 12.7822 12.9548 13.1666 12.5693C13.5553 12.957 13.9419 13.3473 14.3333 13.7328C13.9537 14.1204 13.5715 14.5038 13.1849 14.8871C14.2231 15.9312 15.2413 16.9951 16.3139 18.0054C16.858 18.5785 17.9145 18.2306 18.0715 17.4758C18.2397 16.9414 17.8564 16.4796 17.494 16.1435C15.7879 14.4457 14.0854 12.7443 12.3865 11.0392C12.7754 10.6514 13.1627 10.2622 13.5483 9.87149C13.9349 10.257 14.3215 10.6425 14.7172 11.0215C15.7354 9.96665 16.8139 8.96988 17.8166 7.89891C18.3225 7.40751 18.1198 6.46719 17.4752 6.20106C17.0413 5.97794 16.5129 6.13547 16.2005 6.48708H16.201Z" fill="url(#paint0_linear)"/>
<defs>
<linearGradient id="paint0_linear" x1="12.0091" y1="19.9339" x2="12.0091" y2="4.44784" gradientUnits="userSpaceOnUse">
<stop stop-color="#2F75BB"/>
<stop offset="1" stop-color="#0A4185"/>
</linearGradient>
</defs>
</svg>
