<svg width="24" height="24" viewBox="0 0 24 24" fill="none" xmlns="http://www.w3.org/2000/svg">
<path fill-rule="evenodd" clip-rule="evenodd" d="M24 12C24 18.6274 18.6274 24 12 24C5.37255 24 0 18.6274 0 12C0 5.37255 5.37255 0 12 0C18.6274 0 24 5.37255 24 12Z" fill="#527DB2"/>
<path fill-rule="evenodd" clip-rule="evenodd" d="M12.3978 8.45421C11.0519 8.45421 9.82515 8.97227 8.90513 9.81896V5.49293H7.23474V17.844H8.90513V13.6173C8.90513 11.6915 10.472 10.1246 12.3978 10.1246C14.3238 10.1246 15.8906 11.6915 15.8906 13.6173V17.844H17.561V13.6173C17.561 10.7704 15.2448 8.45421 12.3978 8.45421Z" fill="#FFFFFE"/>
</svg>
