<svg width="24" height="24" viewBox="0 0 24 24" fill="none" xmlns="http://www.w3.org/2000/svg">
<path fill-rule="evenodd" clip-rule="evenodd" d="M3.36957 11.082L7.05837 2.31355L17.5368 3.52075L19.6824 9.99236L18.6096 18.9444C17.0676 20.5992 16.0836 21.426 15.6588 21.426C15.234 21.426 12.0156 20.8392 6.00237 19.6656L3.37077 13.1604L3.36957 11.082Z" fill="#F9F9F9"/>
<mask id="mask0" mask-type="alpha" maskUnits="userSpaceOnUse" x="0" y="0" width="24" height="24">
<path fill-rule="evenodd" clip-rule="evenodd" d="M0 0H24V24H0V0Z" fill="white"/>
</mask>
<g mask="url(#mask0)">
<path fill-rule="evenodd" clip-rule="evenodd" d="M17.028 18.9528H14.4732V14.5548C14.4732 13.8504 13.9032 13.278 13.1988 13.278H13.1976H9.5256C8.1156 13.278 6.972 12.1344 6.972 10.7244V5.0484H9.5256V9.4476C9.5256 10.152 10.0968 10.7244 10.8012 10.7244H14.4732C15.8832 10.7256 17.0256 11.868 17.0268 13.278L17.028 18.9528ZM9.6144 18.9528H7.0596V14.664C8.4696 14.664 9.6132 15.8064 9.6132 17.2176L9.6144 18.9528ZM14.3856 5.0472H16.9392V9.3384C15.528 9.3384 14.3856 8.1948 14.3856 6.7848V5.0472ZM12 0C5.3724 0 0 5.3736 0 12C0 18.6264 5.3724 24 12 24C18.6276 24 24 18.6276 24 12C24 5.3724 18.6276 0 12 0Z" fill="#005FFA"/>
</g>
</svg>
