<svg width="24" height="24" viewBox="0 0 24 24" fill="none" xmlns="http://www.w3.org/2000/svg">
<path d="M12 24C18.6274 24 24 18.6274 24 12C24 5.37258 18.6274 0 12 0C5.37258 0 0 5.37258 0 12C0 18.6274 5.37258 24 12 24Z" fill="#102044"/>
<path d="M18.186 14.5125C18.5235 14.6422 18.747 14.9632 18.75 15.3225C18.7502 15.473 18.7109 15.6209 18.6362 15.7516C18.5615 15.8823 18.4538 15.9911 18.324 16.0672C18.1937 16.1438 18.0458 16.1854 17.8947 16.188C17.7436 16.1907 17.5944 16.1542 17.4615 16.0822L12.939 18.5497C12.9502 18.669 12.9366 18.7893 12.8991 18.9031C12.8616 19.0169 12.8009 19.1216 12.721 19.2109C12.6411 19.3001 12.5436 19.3718 12.4346 19.4216C12.3256 19.4713 12.2075 19.498 12.0878 19.5C11.8571 19.5056 11.6337 19.4194 11.4666 19.2604C11.2995 19.1013 11.2025 18.8824 11.1968 18.6517L8.99177 17.3895H8.94152V17.3632L6.61802 16.035C6.47293 16.1351 6.30076 16.1884 6.12452 16.188C5.9147 16.1891 5.71155 16.1143 5.5525 15.9775C5.39345 15.8406 5.28922 15.6509 5.25902 15.4432C5.23003 15.2357 5.2773 15.0248 5.39205 14.8495C5.5068 14.6742 5.68125 14.5464 5.88302 14.49V9.528C5.71325 9.48036 5.56203 9.38214 5.44948 9.24641C5.33694 9.11069 5.26841 8.9439 5.25302 8.76825C5.22302 8.40975 5.41877 8.07 5.74652 7.91475C5.9064 7.83883 6.0855 7.81302 6.2603 7.84073C6.43511 7.86844 6.59745 7.94836 6.72602 8.07L11.2035 5.505C11.184 5.3806 11.1917 5.25344 11.2261 5.13231C11.2605 5.01118 11.3208 4.89896 11.4028 4.8034C11.4848 4.70784 11.5866 4.63122 11.7011 4.57884C11.8156 4.52646 11.9401 4.49956 12.066 4.5C12.1956 4.49979 12.3236 4.52852 12.4406 4.58411C12.5577 4.6397 12.6609 4.72073 12.7426 4.82129C12.8243 4.92185 12.8825 5.03939 12.913 5.16534C12.9435 5.29128 12.9455 5.42245 12.9188 5.54925L17.2898 8.05275C17.4495 7.90875 17.6573 7.82925 17.874 7.83C17.9922 7.78583 18.1187 7.76807 18.2445 7.77796C18.3703 7.78785 18.4924 7.82516 18.6022 7.88726C18.7121 7.94936 18.807 8.03475 18.8804 8.13743C18.9537 8.24012 19.0037 8.35762 19.0268 8.48167C19.0499 8.60573 19.0456 8.73334 19.0142 8.85555C18.9827 8.97776 18.9249 9.09161 18.8448 9.1891C18.7647 9.28659 18.6642 9.36537 18.5504 9.4199C18.4366 9.47443 18.3122 9.50339 18.186 9.50475V14.5132V14.5125ZM15.0975 12.5587V16.821L17.1015 15.7282C17.0391 15.6087 17.0052 15.4763 17.0027 15.3415C17.0002 15.2067 17.0291 15.0731 17.0871 14.9513C17.145 14.8296 17.2305 14.7229 17.3368 14.6399C17.443 14.5568 17.5671 14.4996 17.6993 14.4727V9.54525C17.5023 9.5063 17.3248 9.4004 17.197 9.24552C17.0692 9.09064 16.9989 8.89631 16.998 8.6955C16.998 8.616 17.0093 8.5365 17.031 8.45925L15.1313 7.37025V11.3332H15.1283L15.1208 11.5927L15.0135 11.643L14.3288 12.0525L14.9835 12.4425L15.0878 12.492L15.0908 12.5385L15.0945 12.5587H15.0975ZM12.0675 6.23175C11.8185 6.23175 11.5815 6.12675 11.4158 5.9415L9.42827 7.08075V11.2897L10.2443 11.7757L11.2748 11.1697C11.2535 11.0583 11.2572 10.9435 11.2856 10.8336C11.3139 10.7237 11.3663 10.6215 11.4388 10.5342C11.5114 10.447 11.6024 10.3769 11.7052 10.3289C11.8081 10.281 11.9203 10.2564 12.0338 10.257C12.1445 10.2567 12.254 10.2804 12.3547 10.3264C12.4555 10.3724 12.5451 10.4396 12.6174 10.5234C12.6898 10.6072 12.7432 10.7057 12.774 10.8121C12.8048 10.9185 12.8122 11.0302 12.7958 11.1397L13.86 11.7727L14.649 11.3002V7.0935L12.6885 5.97075C12.6076 6.05331 12.5109 6.11887 12.4043 6.16356C12.2976 6.20825 12.1831 6.23118 12.0675 6.231V6.23175ZM12.5775 12.5482L13.3898 12.0592L12.5738 11.5725C12.432 11.7102 12.2431 11.7887 12.0454 11.7919C11.8478 11.7951 11.6564 11.7228 11.5103 11.5897L10.7078 12.0555L11.5065 12.5317C11.653 12.3964 11.8459 12.3226 12.0453 12.3257C12.2447 12.3287 12.4353 12.4084 12.5775 12.5482ZM6.93152 15.6585L8.94152 16.8105V12.6915L8.94527 12.5587L8.97902 12.525L9.14702 12.4252L9.77102 12.0592L9.20702 11.7262L8.94527 11.5927V11.433H8.94227V7.35675L6.97127 8.48625C7.08752 8.93625 6.82127 9.39675 6.37127 9.525V14.493C6.60902 14.562 6.80627 14.7292 6.91352 14.9512C7.02077 15.174 7.02752 15.4312 6.93152 15.6585ZM12.0675 17.7532C12.3413 17.7532 12.5985 17.8807 12.762 18.0997L14.6145 17.0872V12.7852L13.86 12.3352L12.795 12.975C12.8025 13.0125 12.8055 13.05 12.8055 13.0875C12.8055 13.5112 12.4605 13.854 12.033 13.854C11.9207 13.8541 11.8098 13.8295 11.708 13.7821C11.6062 13.7347 11.516 13.6656 11.4438 13.5796C11.3716 13.4936 11.3191 13.3928 11.2901 13.2843C11.261 13.1758 11.256 13.0623 11.2755 12.9517L10.2308 12.3322L9.42527 12.8017V17.0872L11.319 18.1725C11.4765 17.9115 11.7608 17.7525 12.0675 17.7532Z" fill="white"/>
</svg>
