<svg width="24" height="24" viewBox="0 0 24 24" fill="none" xmlns="http://www.w3.org/2000/svg">
<path fill-rule="evenodd" clip-rule="evenodd" d="M12 0C18.6264 0 24 5.3736 24 12C24 18.6264 18.6264 24 12 24C5.3736 24 0 18.6264 0 12C0 5.3736 5.3736 0 12 0Z" fill="#B41514"/>
<path d="M11.904 19.8C11.5859 19.8 11.275 19.7057 11.0106 19.529C10.7462 19.3523 10.5401 19.1012 10.4184 18.8074C10.2967 18.5135 10.2648 18.1902 10.3269 17.8783C10.3889 17.5664 10.5421 17.2799 10.7669 17.055C10.9918 16.8301 11.2783 16.6769 11.5903 16.6149C11.9022 16.5529 12.2255 16.5847 12.5193 16.7064C12.8132 16.8281 13.0643 17.0342 13.241 17.2986C13.4177 17.5631 13.512 17.874 13.512 18.192C13.512 18.6185 13.3426 19.0275 13.041 19.329C12.7395 19.6306 12.3304 19.8 11.904 19.8Z" fill="white"/>
<path d="M11.904 8.71197C11.5859 8.71197 11.275 8.61766 11.0106 8.44098C10.7462 8.26429 10.5401 8.01315 10.4184 7.71933C10.2967 7.4255 10.2648 7.10219 10.3269 6.79027C10.3889 6.47835 10.5421 6.19183 10.7669 5.96694C10.9918 5.74206 11.2783 5.58891 11.5903 5.52687C11.9022 5.46482 12.2255 5.49667 12.5193 5.61837C12.8132 5.74008 13.0643 5.94618 13.241 6.21062C13.4177 6.47505 13.512 6.78594 13.512 7.10397C13.512 7.53044 13.3426 7.93944 13.041 8.241C12.7395 8.54256 12.3304 8.71197 11.904 8.71197Z" fill="white"/>
<path d="M5.328 15.504V13.272H18.48V15.504H5.328Z" fill="white"/>
<path d="M11.904 12.168C8.15278 12.168 5.09998 9.19198 4.97278 5.472H7.35118C7.47598 7.87919 9.46798 9.79198 11.904 9.79198C14.34 9.79198 16.332 7.87919 16.4568 5.472H18.8352C18.708 9.19198 15.6552 12.168 11.904 12.168Z" fill="white"/>
</svg>
