<svg width="24" height="24" viewBox="0 0 24 24" fill="none" xmlns="http://www.w3.org/2000/svg">
<path opacity="0.2" d="M3.15567 19.996L4.49251 24L13.669 12L4.49251 0L3.09052 3.9171L9.18608 11.9978L3.15567 19.996Z" fill="#FF564F"/>
<path d="M22.7162 23.9978H18.3614L9.1828 11.9978L18.3614 0H22.7162L13.6668 11.9978L22.7162 23.9978Z" fill="#F08179"/>
<path d="M1 0H4.49032V23.9978H1V0Z" fill="#FF564F"/>
<path d="M22.7195 23.9978H18.3647L9.18604 11.9978L18.3647 0H22.7195L13.67 11.9978L22.7195 23.9978Z" fill="#FF564F"/>
<path d="M22.7195 23.9978H18.3647L9.18604 11.9978L18.3647 0H22.7195L13.67 11.9978L22.7195 23.9978Z" fill="#FF564F"/>
<path d="M22.7195 23.9978H18.3647L9.18604 11.9978L18.3647 0H22.7195L13.67 11.9978L22.7195 23.9978Z" fill="#FF564F"/>
<path d="M22.7195 23.9978H18.3647L9.18604 11.9978L18.3647 0H22.7195L13.67 11.9978L22.7195 23.9978Z" fill="#FF564F"/>
</svg>
