<svg width="24" height="24" viewBox="0 0 24 24" fill="none" xmlns="http://www.w3.org/2000/svg">
<g clip-path="url(#clip0)">
<path d="M0.036525 12.5155H0.0183H0V11.396C0.012525 11.396 0.02505 11.396 0.0375 11.396C0.0793501 11.4333 0.10245 11.4874 0.100425 11.5434C0.1116 11.8184 0.1116 12.0936 0.100425 12.3689C0.10245 12.4249 0.0789751 12.4788 0.036525 12.5155Z" fill="#FEF5F6"/>
<path d="M9.77794 7.84605C10.2627 8.02155 10.7667 8.12805 11.2629 8.26102C13.8552 8.9556 16.4481 9.64807 19.0414 10.3385C20.6331 10.7629 22.2253 11.1855 23.8179 11.606C23.9552 11.6422 24.0082 11.7015 23.9987 11.8476C23.9837 12.0746 23.9957 12.3033 23.9882 12.531C23.9833 12.6814 23.9317 12.745 23.7547 12.6919C23.3017 12.556 22.8406 12.4472 22.384 12.323C22.2737 12.293 22.2241 12.308 22.2611 12.4331C22.267 12.4528 22.2681 12.4739 22.2736 12.4937C22.3751 12.8584 22.3083 12.79 22.6602 12.8026C23.0446 12.8163 23.4287 12.8374 23.8132 12.8452C23.9393 12.8477 23.9668 12.904 23.9545 13.0115C23.9245 13.271 23.8979 13.5309 23.8654 13.7901C23.8529 13.8899 23.7999 13.9188 23.6915 13.9034C23.3786 13.8589 23.0594 13.9034 22.746 13.847C22.6185 13.8245 22.5975 13.8782 22.6279 13.997C22.6941 14.2568 22.7491 14.5198 22.8036 14.7826C22.8261 14.8914 22.8865 14.9219 22.9923 14.9234C23.1635 14.9256 23.3344 14.9493 23.5057 14.9559C23.6004 14.9595 23.6236 14.987 23.593 15.0814C23.5063 15.3497 23.4287 15.6214 23.3468 15.8914C23.3331 15.9364 23.3239 16.0001 23.263 15.9927C23.0483 15.9668 23.1157 16.1019 23.1376 16.208C23.1501 16.268 23.1842 16.3271 23.1601 16.3893C22.9678 16.9077 22.7297 17.408 22.4486 17.8841C22.3414 17.4349 22.2428 17.0324 22.1496 16.6286C21.8802 15.4618 21.6118 14.2947 21.3446 13.1273C21.2689 12.7988 21.1813 12.4727 21.1168 12.1419C21.1035 12.0306 21.0158 11.9428 20.9045 11.9293C20.6382 11.8628 20.371 11.7979 20.109 11.7167C19.9398 11.6642 19.9373 11.7242 19.97 11.8622C20.1521 12.6324 20.3282 13.4041 20.5066 14.1752C20.8775 15.7777 21.2493 17.3799 21.6219 18.982C21.649 19.061 21.6357 19.1482 21.5862 19.2155C21.3745 19.487 21.1662 19.7612 20.9307 20.0132C20.8237 20.1276 20.7944 20.1019 20.7619 19.96C20.4819 18.7391 20.1947 17.5199 19.9118 16.2996C19.6429 15.1396 19.3754 13.9793 19.1093 12.8189C19.0071 12.3764 18.8993 11.9351 18.8045 11.4914C18.7965 11.4087 18.7343 11.3417 18.6525 11.3276C18.3665 11.2548 18.0797 11.1843 17.7964 11.1018C17.6373 11.0555 17.6274 11.1018 17.6614 11.2452C17.885 12.1827 18.1011 13.1216 18.3188 14.0603C18.7743 16.0247 19.2294 17.9894 19.6838 19.9541C19.6942 20.0151 19.7009 20.0767 19.7037 20.1385C19.6831 20.1668 19.6482 20.1807 19.6137 20.1744C19.2477 20.0777 18.8712 20.0134 18.5343 19.8249C18.4912 19.7474 18.4642 19.6619 18.4548 19.5737C18.3899 19.2685 18.3849 19.2651 18.0744 19.3427C17.9029 19.3855 17.7325 19.4327 17.5592 19.4678C17.2172 19.4132 16.926 19.2247 16.6098 19.1017C16.4463 19.0326 16.2874 18.9533 16.1339 18.8642C16.0664 18.8276 15.9736 18.8067 15.9795 18.698C16.0408 18.6202 16.1346 18.6144 16.2195 18.5925C16.752 18.455 17.2901 18.3404 17.8221 18.2004C17.8758 18.1884 17.9288 18.1736 17.9809 18.156C18.0334 18.1362 18.087 18.1142 18.0795 18.0428C18.0756 17.9853 18.0317 17.9385 17.9745 17.9309C17.8746 17.9051 17.7721 17.8902 17.669 17.8864C17.2974 17.8923 16.9284 17.8493 16.5579 17.8392C16.3794 17.8385 16.2009 17.828 16.0236 17.8079C15.6697 17.7597 15.3261 17.8236 14.9865 17.9237C14.8821 17.9587 14.7742 17.9819 14.6647 17.9933C14.5678 17.99 14.4744 17.9566 14.3975 17.8976C13.8444 17.5358 13.2969 17.1659 12.7775 16.7557C12.7161 16.7113 12.6606 16.6592 12.6125 16.6007C12.5694 16.5436 12.601 16.5143 12.6544 16.4938C13.0806 16.438 13.5048 16.5121 13.9284 16.5303C14.3043 16.5464 14.6829 16.5702 15.0588 16.5856C15.7584 16.6142 16.4564 16.6807 17.1572 16.6819C17.3018 16.6819 17.4429 16.7213 17.5881 16.7201C17.721 16.7189 17.7788 16.6683 17.7445 16.5288C17.6968 16.3346 17.6447 16.1414 17.605 15.9454C17.5912 15.8379 17.4945 15.7609 17.3867 15.7714C16.8036 15.7513 16.221 15.7163 15.6387 15.6824C14.9466 15.6422 14.2533 15.6317 13.562 15.5736C13.2274 15.5456 12.89 15.5386 12.5544 15.5286C12.1765 15.5172 11.801 15.4716 11.4234 15.4711C11.3749 15.4696 11.3282 15.4524 11.2903 15.422C10.9494 15.1029 10.6029 14.7889 10.3183 14.4152C10.2749 14.3582 10.2381 14.2925 10.3443 14.2546C10.7365 14.2219 11.1276 14.2702 11.517 14.2921C11.8663 14.3118 12.2177 14.3325 12.5666 14.348C13.2808 14.3796 13.995 14.4135 14.7091 14.4497C15.3885 14.4835 16.0697 14.4941 16.7476 14.5604C16.8712 14.5698 16.9953 14.5704 17.119 14.5622C17.2246 14.5576 17.2667 14.5043 17.2471 14.3999C17.2072 14.1896 17.1564 13.9814 17.0949 13.7763C17.0562 13.6457 16.9485 13.6196 16.8335 13.6188C16.5649 13.6175 16.2975 13.5854 16.0302 13.5797C15.0264 13.5587 14.025 13.4848 13.0227 13.4398C12.0756 13.3973 11.1275 13.3585 10.1814 13.2884C9.89869 13.2674 9.88279 13.2809 9.84904 13.5575C9.85226 13.6204 9.82781 13.6814 9.78229 13.7248C9.68059 13.6883 9.68614 13.5959 9.68614 13.5173C9.68614 12.1659 9.66776 10.8145 9.69364 9.4638C9.72169 9.31485 9.87904 9.29947 9.96116 9.20557C9.99004 9.17257 10.0569 9.16057 10.0362 9.10057C10.022 9.0597 9.97009 9.06105 9.93274 9.04762C9.84941 9.01762 9.73339 9.04762 9.70211 8.92072C9.68711 8.56672 9.65524 8.2128 9.71981 7.86045C9.72649 7.84177 9.74704 7.83202 9.76571 7.8387C9.77021 7.84027 9.77441 7.84282 9.77794 7.84605Z" fill="#ABACAC"/>
<path d="M10.2865 14.306C10.6123 14.702 10.9668 15.0735 11.347 15.4177C11.5621 15.5093 11.691 15.706 11.8585 15.8536C12.1125 16.0775 12.4004 16.2661 12.61 16.5394C13.2328 17.0687 13.9018 17.5409 14.6091 17.9503C14.8428 18.015 15.0291 18.17 15.2374 18.2836C15.4344 18.3911 15.6283 18.504 15.8308 18.6011C15.8965 18.622 15.9516 18.6673 15.9847 18.7277C16.4878 19.0027 17.0112 19.2388 17.5504 19.4339C17.8995 19.5134 18.2428 19.6087 18.5495 19.8037C18.9255 19.9433 19.3112 20.0551 19.7035 20.1384C19.9784 20.252 20.2759 20.2793 20.6013 20.3764C20.4363 20.5343 20.2883 20.6815 20.1346 20.8223C19.6637 21.2538 19.6628 21.2529 19.0632 21.0802C11.9034 19.0182 6.52214 13.2642 4.92816 5.96282C4.71141 4.92932 4.56966 3.88142 4.50419 2.82745C4.48259 2.69095 4.54461 2.55475 4.66169 2.48132C4.94526 2.27785 5.22051 2.06275 5.54181 1.86512C5.54676 3.92432 5.90571 5.9674 6.60299 7.90495V7.69645C6.60299 5.61737 6.60171 3.53822 6.59924 1.45915C6.59886 1.30675 6.63764 1.2199 6.78021 1.16072C7.06424 1.0429 7.34219 0.910373 7.62284 0.783773C7.65704 0.858848 7.66791 0.942473 7.65411 1.02377C7.65524 4.1182 7.65569 7.2127 7.65561 10.3072C7.64849 10.3687 7.65464 10.431 7.67369 10.4899C7.96724 11.0867 8.31396 11.6558 8.70974 12.1902V11.9754C8.70974 8.20405 8.70839 4.43267 8.70576 0.661298C8.70576 0.481673 8.73869 0.394223 8.93271 0.357098C9.20744 0.304598 9.47669 0.220973 9.75456 0.178673C9.82319 0.259598 9.80744 0.358673 9.81216 0.452948C9.83106 0.827948 9.79161 1.20137 9.77264 1.57532C9.81981 1.99487 9.84329 2.41405 9.75456 2.83165C9.75419 3.2086 9.75389 3.58555 9.75359 3.9625C9.78396 4.00817 9.80106 4.06135 9.80294 4.11617C9.80796 4.45 9.80796 4.7839 9.80294 5.11772C9.79746 5.18582 9.78059 5.2525 9.75306 5.31497L9.75479 6.48767C9.78389 6.53432 9.80046 6.58765 9.80294 6.64255C9.80796 6.97757 9.80796 7.31252 9.80294 7.64755C9.79806 7.71595 9.78111 7.78292 9.75299 7.84547L9.76724 8.9755C9.83256 9.103 9.83166 9.25435 9.76484 9.3811C9.76131 10.7961 9.75801 12.2111 9.75501 13.6261C9.75861 13.6526 9.76566 13.6786 9.77609 13.7033C9.98894 13.8637 10.1633 14.0696 10.2865 14.306Z" fill="#EE1D55"/>
<path d="M0.0364921 12.5154L0.0374671 11.3958C0.00844214 10.8696 0.320592 10.4842 0.577467 10.0758C0.639192 9.97745 0.697467 9.87665 0.756792 9.77697C0.839292 9.5165 1.01712 9.31302 1.17417 9.10055C1.26739 8.98947 1.29154 8.83602 1.23687 8.7017C1.18729 8.55507 1.10614 8.41152 1.14612 8.24577C1.13457 8.171 1.11612 8.0975 1.09114 8.0261C0.891867 7.58495 0.973242 7.17702 1.20739 6.7736C1.36879 6.49535 1.49284 6.1955 1.69489 5.88972C2.43612 9.84545 4.04704 13.3626 6.56374 16.4507C9.08337 19.5423 12.203 21.8262 15.9162 23.3499C15.4056 23.529 14.8832 23.6727 14.3528 23.7803C14.2839 23.7876 14.2147 23.7704 14.1573 23.7317C13.872 23.5962 13.587 23.46 13.3023 23.3229C13.0893 23.2847 12.918 23.1547 12.7344 23.0549C12.1869 22.7573 11.6628 22.4205 11.1374 22.0862C10.7685 21.8205 10.3848 21.5762 10.026 21.2958C9.94624 21.2193 9.83847 21.174 9.78072 21.0745C9.77382 21.0642 9.76722 21.0417 9.76204 21.0417C9.74389 21.0417 9.75019 21.0477 9.76302 21.0627C9.78379 21.0901 9.79677 21.1227 9.80052 21.1568C9.80989 21.8677 9.80944 22.578 9.79924 23.2878C9.79422 23.4516 9.77764 23.6148 9.74959 23.7762C9.42769 23.7466 9.12132 23.6452 8.80842 23.5737C8.67867 23.5437 8.71024 23.4436 8.71017 23.3594C8.70912 22.3653 8.70634 21.3711 8.71294 20.377C8.72052 20.2475 8.66344 20.1225 8.56047 20.0436C8.26414 19.7886 7.97937 19.5202 7.68649 19.254C7.63009 19.3242 7.65649 19.3951 7.65649 19.4593C7.65447 20.6261 7.65394 21.7928 7.65492 22.9595C7.65492 23.1867 7.65319 23.1894 7.43742 23.0954C7.21092 22.9968 6.98907 22.8872 6.76084 22.793C6.63259 22.74 6.59937 22.6593 6.59989 22.5236C6.60522 21.1221 6.60162 19.7207 6.60567 18.3192C6.61144 18.1966 6.56734 18.0768 6.48334 17.9872C6.18222 17.6502 5.89219 17.3033 5.56977 16.9272C5.56459 17.0364 5.55837 17.1078 5.55829 17.1793C5.55777 18.7533 5.55619 20.3274 5.55372 21.9015C5.55372 21.9481 5.63682 22.0652 5.48434 22.0536C5.46987 21.9511 5.46649 21.8474 5.47422 21.7442C5.47377 20.2409 5.47092 18.7377 5.47707 17.2344C5.48547 17.0202 5.41122 16.811 5.26977 16.65C4.99444 16.3148 4.73839 15.9642 4.50289 15.6C4.41139 15.4158 4.30504 15.2395 4.18504 15.0726C4.18077 15.0674 4.17754 15.0612 4.17319 15.0561C4.11777 14.9934 4.10479 14.8634 4.00542 14.8785C3.92779 14.8902 3.92097 15.0071 3.88887 15.081C3.74172 15.4035 3.59749 15.7269 3.46324 16.0549C3.32824 16.4145 3.18694 16.7716 3.07024 17.1378C3.02119 17.2884 2.96584 17.4369 2.92654 17.5906C2.78727 18.0621 2.66284 18.5375 2.54817 19.0156C2.53182 19.0839 2.53909 19.1718 2.44384 19.1969C2.15344 18.8552 1.92762 18.4694 1.69054 18.0911C1.63624 18.0045 1.67029 17.9336 1.69129 17.8561C2.07109 16.4543 2.60502 15.0988 3.28332 13.8146C3.35194 13.712 3.35262 13.5783 3.28512 13.475C3.11502 13.1767 2.96472 12.867 2.80647 12.5619C2.76139 12.4989 2.73087 12.4267 2.71707 12.3505C2.69757 12.4305 2.79754 12.4818 2.76957 12.5616C2.03382 13.8415 1.43149 15.1936 0.971967 16.5966C0.840942 16.3956 0.788292 16.1889 0.717342 15.9926C0.372342 15.0379 0.376542 15.0378 0.794517 14.1101C1.19022 13.223 1.64457 12.3632 2.15457 11.5365C2.22799 11.4369 2.23849 11.3043 2.18172 11.1944C2.04124 10.8743 1.91599 10.5474 1.77102 10.1898C1.14432 11.123 0.585192 12.0999 0.0980671 13.1131L0.0364921 12.5154Z" fill="#EE1D55"/>
<path d="M3.50047 3.52319C4.29255 12.3778 10.372 19.5993 18.5495 22.0326C18.437 22.165 18.2854 22.2299 18.1492 22.3114C17.358 22.7845 17.3523 22.7947 16.4992 22.442C9.7536 19.6527 5.32155 14.7538 3.20302 7.74539C2.9175 6.75802 2.7078 5.75024 2.57557 4.73092C2.55592 4.66424 2.5674 4.59232 2.6067 4.53502C2.88645 4.18207 3.1848 3.84434 3.50047 3.52319Z" fill="#EE1D55"/>
<path d="M21.0394 4.06681C21.2355 4.33089 21.2359 4.33141 20.9764 4.53316C20.8409 4.63816 20.7039 4.74189 20.5675 4.84614C20.441 4.85086 20.5225 4.92369 20.5269 4.97116C20.5962 5.25849 20.6731 5.54424 20.7321 5.83366C20.7671 6.00534 20.8111 6.02229 20.9464 5.90559C21.2068 5.68104 21.4864 5.47906 21.7481 5.25601C21.8531 5.16639 21.9061 5.18619 21.9702 5.29194C22.095 5.49811 22.2227 5.70264 22.3559 5.90341C22.4304 6.01591 22.4284 6.09091 22.307 6.17394C22.137 6.28996 21.9799 6.42534 21.8202 6.55599C21.7867 6.58336 21.7268 6.60714 21.749 6.66669C21.7653 6.71034 21.817 6.70419 21.8562 6.71491C22.1542 6.79539 22.4503 6.88396 22.7503 6.95581C22.8671 6.97449 22.9637 7.05684 23.0005 7.16919C23.1088 7.45959 23.2255 7.74669 23.3371 8.03589C23.3538 8.07931 23.3941 8.12956 23.3632 8.17239C23.3203 8.23179 23.2626 8.18259 23.2132 8.16939C21.8266 7.80196 20.44 7.43394 19.0535 7.06539C17.3688 6.61659 15.6844 6.16681 14.0001 5.71606C13.8808 5.68419 13.7614 5.65246 13.6419 5.62089C13.6349 5.56741 13.6766 5.54881 13.7121 5.53336C14.2407 5.29231 14.7888 5.09664 15.3505 4.94836C15.4692 4.96794 15.5628 5.06229 15.6835 5.05906C15.6385 5.00866 15.4627 5.08606 15.5293 4.90996C15.7217 4.80271 15.9193 4.71639 16.1475 4.74099C16.2408 4.79806 16.2516 4.89931 16.2712 4.99119C16.2882 5.11756 16.3874 5.21716 16.5137 5.23464C16.781 5.28894 17.0367 5.39169 17.3252 5.43916C17.3102 5.21004 17.2409 5.00416 17.1959 4.79416C17.175 4.69666 17.1191 4.59856 17.1803 4.49544C17.5204 4.35804 17.8841 4.28889 18.2509 4.29204C18.3553 4.49656 18.3698 4.72599 18.4246 4.94401C18.4783 5.15739 18.5353 5.37069 18.5727 5.58789C18.5882 5.72206 18.6898 5.83014 18.8228 5.85376C19.0424 5.90896 19.2634 5.95876 19.4809 6.02214C19.6117 6.06009 19.6452 6.01171 19.6144 5.88946C19.493 5.40886 19.3865 4.92474 19.2769 4.44144C19.252 4.33186 19.1388 4.29316 19.1218 4.18824C19.1532 4.15104 19.1994 4.12951 19.2481 4.12921C19.7843 4.09014 20.3218 4.07251 20.8584 4.03854C20.9196 4.04116 20.9803 4.05069 21.0394 4.06681Z" fill="#ABACAC"/>
<path d="M12.1813 6.31378C13.2416 6.59878 14.3019 6.88378 15.3623 7.16878C18.0872 7.89823 20.8125 8.62618 23.5381 9.35256C23.6696 9.38751 23.7344 9.43701 23.7556 9.57868C23.7947 9.83668 23.8436 10.0934 23.8856 10.3512C23.9129 10.5188 23.8913 10.5448 23.7291 10.4998C23.1207 10.3309 22.5091 10.1736 21.8991 10.0107C18.2722 9.04191 14.6453 8.07283 11.0184 7.10346C10.9719 7.09108 10.925 7.08096 10.8783 7.06978C10.865 7.00641 10.9178 6.98773 10.9547 6.96231C11.3054 6.72051 11.6835 6.52528 12.0537 6.31731C12.0915 6.29578 12.1377 6.26128 12.1813 6.31378Z" fill="#ABACAC"/>
<path d="M12.1813 6.31378C11.732 6.53938 11.2968 6.79191 10.878 7.06993L9.84301 7.75686C9.78811 7.76533 9.76846 7.73293 9.76966 7.68643C9.77978 7.29351 9.74296 6.89976 9.78923 6.50743C12.2489 4.83381 15.0518 3.73191 17.9927 3.28243C18.6384 3.1817 19.289 3.12298 19.9408 3.07768C20.03 3.07318 20.1163 3.10978 20.175 3.17698C20.4793 3.45771 20.7605 3.76078 21.039 4.06671C20.8246 4.14921 20.5982 4.11321 20.378 4.12626C19.9644 4.15086 19.5499 4.15896 19.1383 4.21243C19.0447 4.32291 18.9082 4.29336 18.7913 4.30603C18.6104 4.32561 18.4282 4.40263 18.2438 4.32238C17.8883 4.36656 17.5358 4.43233 17.1883 4.51918C16.8596 4.66138 16.5087 4.74508 16.1513 4.76668C15.9389 4.80208 15.7307 4.85893 15.5298 4.93648C15.4898 4.98313 15.4259 5.00158 15.3671 4.98358C14.7782 5.15706 14.2015 5.37006 13.6412 5.62108C13.139 5.81751 12.6511 6.04903 12.1813 6.31378Z" fill="#EE1D55"/>
<path d="M9.86963 3.97217C11.0373 3.27355 12.2717 2.6929 13.5543 2.2387C14.7632 1.80377 16.0077 1.47557 17.2739 1.25792C17.3402 1.24022 17.4107 1.24622 17.473 1.27495C17.9472 1.51772 18.4037 1.79372 18.839 2.10085C18.4332 2.16025 18.0576 2.21125 17.6833 2.27065C14.9608 2.70085 12.351 3.6685 10.0061 5.1172C9.94786 5.15297 9.88718 5.1847 9.82756 5.21822C9.73756 5.2102 9.77071 5.1388 9.77026 5.09358C9.76718 4.77767 9.77206 4.46162 9.76643 4.1458C9.75346 4.07042 9.79718 3.99677 9.86963 3.97217Z" fill="#EE1D55"/>
<path d="M9.83002 1.57785C10.9639 0.972146 12.149 0.467696 13.3717 0.0704208C13.5811 0.00157082 13.7911 0.0920208 13.9979 0.124646C14.5511 0.210746 15.0962 0.342671 15.6276 0.519071C14.935 0.694271 14.2807 0.877196 13.6367 1.09492C12.3597 1.52587 11.1227 2.0673 9.93975 2.71305C9.89182 2.73922 9.8409 2.7597 9.7914 2.78287C9.74137 2.40787 9.7788 2.03137 9.77205 1.65562C9.77415 1.62045 9.79695 1.58992 9.83002 1.57785Z" fill="#EE1D55"/>
<path d="M11.1543 22.0483C11.8593 22.4922 12.5775 22.9128 13.3023 23.3226C13.2864 23.4896 13.2705 23.6567 13.2546 23.8237C13.2133 23.8794 13.2072 23.9583 13.1007 23.9594C12.8406 23.9621 12.5807 23.9819 12.3207 23.998C12.1988 24.0055 12.1308 23.9988 12.169 23.8324C12.2301 23.5655 12.2529 23.2899 12.2973 23.019C12.3158 22.9065 12.2872 22.8615 12.1689 22.8915C11.8899 22.9626 11.6106 23.0321 11.3309 23.0997C11.247 23.1093 11.1848 23.1821 11.1884 23.2665C11.1742 23.4509 11.1321 23.633 11.1113 23.8171C11.0995 23.9209 11.0539 23.9671 10.9518 23.956C10.6798 23.926 10.4077 23.897 10.1361 23.8641C10.0746 23.8566 10.0343 23.8218 10.0574 23.7495C10.06 23.7431 10.062 23.7364 10.0632 23.7297C10.0936 23.4063 10.0936 23.4063 9.79654 23.4597C9.73579 23.1897 9.78402 22.9158 9.76969 22.644C9.76572 22.569 9.76894 22.493 9.76924 22.4177C9.77614 22.3686 9.81409 22.3296 9.86299 22.3213C10.2534 22.2017 10.6512 22.1078 11.0538 22.0403C11.0875 22.0352 11.1219 22.0379 11.1543 22.0483Z" fill="#ABACAC"/>
<path d="M9.75171 1.56246C9.75246 1.10128 9.75328 0.640035 9.75418 0.17886C10.4098 0.0421356 11.0791 -0.0177143 11.7486 0.000660658C11.3509 0.264135 10.9533 0.52761 10.5556 0.791085C10.3781 0.90846 10.2062 1.03618 10.0204 1.13803C9.84628 1.23343 9.74676 1.35418 9.77563 1.55953C9.77068 1.58601 9.76258 1.58571 9.75171 1.56246Z" fill="#ABABAC"/>
<path d="M1.146 8.24573C1.36627 8.68823 1.36102 9.09757 0.983471 9.46387C0.898646 9.56122 0.822746 9.666 0.756596 9.77692L0.185547 10.1259C0.248172 9.65092 0.348372 9.18165 0.485097 8.7225C0.511647 8.6325 0.597597 8.6049 0.663372 8.55968C0.821471 8.451 0.984821 8.3499 1.146 8.24573Z" fill="#ABACAC"/>
<path d="M9.8696 3.97217C9.84005 4.02272 9.7859 4.05467 9.7871 4.12802C9.7919 4.46815 9.78935 4.80842 9.7922 5.14862C9.7922 5.17195 9.8153 5.19504 9.82768 5.21822L9.75305 5.3152C9.75305 4.86445 9.7532 4.41362 9.75358 3.9628C9.78995 3.9937 9.83015 3.97825 9.8696 3.97217Z" fill="#EF4464"/>
<path d="M9.78944 6.50742C9.78944 6.85534 9.78764 7.20327 9.78944 7.55119C9.78981 7.62274 9.76439 7.70449 9.84314 7.75684L9.77796 7.84587L9.76536 7.84347L9.75269 7.84564C9.75336 7.39309 9.75396 6.94062 9.75456 6.48814C9.76821 6.48987 9.78074 6.49677 9.78944 6.50742Z" fill="#EF4263"/>
<path d="M9.75171 1.56245C9.75966 1.56568 9.76866 1.56463 9.77571 1.55968L9.83001 1.5779C9.74818 1.74793 9.79723 1.92875 9.79078 2.10433C9.78246 2.33023 9.79041 2.55665 9.79131 2.78285L9.75441 2.83183C9.75351 2.4089 9.75261 1.98583 9.75171 1.56245Z" fill="#EF4263"/>
<path d="M20.5268 4.97114C20.4565 4.91024 20.5 4.82286 20.4693 4.74823C20.5507 4.73998 20.5143 4.83629 20.5674 4.84574L20.5268 4.97114Z" fill="#B1B2B2"/>
<path d="M4.50482 15.5423C4.7644 15.8854 5.0077 16.2428 5.28902 16.5669C5.49024 16.7987 5.53884 17.0422 5.53652 17.3369C5.52527 18.8318 5.53187 20.3267 5.52984 21.8216C5.52984 21.8996 5.56322 21.989 5.48402 22.0532C5.1703 21.861 4.86955 21.6485 4.58365 21.4169C4.5184 21.3671 4.48465 21.2861 4.49515 21.2047C4.4956 20.9447 4.49095 20.6848 4.48825 20.4247C4.44955 20.3678 4.432 20.2991 4.43867 20.2307C4.4353 19.9037 4.43635 19.5767 4.43777 19.2497C4.44055 19.1746 4.4578 19.1007 4.48855 19.0322C4.48817 18.5861 4.48772 18.1402 4.48735 17.6942C4.44625 17.6295 4.42877 17.5527 4.43777 17.4767C4.43777 17.0277 4.43027 16.5787 4.44115 16.1297C4.45675 15.9335 4.3831 15.7275 4.50482 15.5423Z" fill="#ED1A47"/>
<path d="M4.48755 16.1246C4.48755 16.648 4.48755 17.1714 4.48755 17.6948C3.8856 18.1718 3.2856 18.6515 2.67863 19.1222C2.62013 19.1672 2.56538 19.3172 2.44403 19.1962C2.58796 18.6557 2.69371 18.1049 2.88158 17.5762C3.04763 17.4153 3.20655 17.2448 3.42848 17.1574C3.5151 17.1366 3.6045 17.1298 3.69323 17.1376C3.59355 17.1291 3.49313 17.1368 3.39585 17.1601C3.26798 17.1759 3.138 17.2089 3.02678 17.1081C3.13935 16.7481 3.27128 16.3945 3.4221 16.0488C3.7782 15.9884 4.1436 16.0144 4.48755 16.1246Z" fill="#ABACAC"/>
<path d="M4.48862 19.0327C4.48862 19.4969 4.48862 19.961 4.48862 20.425C4.25469 20.4453 4.03374 20.525 3.80709 20.578C3.72969 20.6097 3.64082 20.5897 3.58442 20.528C3.36609 20.2893 3.14567 20.0526 2.92307 19.8179C2.84522 19.7354 2.88017 19.7054 2.97219 19.6871C3.07959 19.6656 3.18437 19.6271 3.29252 19.6136C3.74454 19.5578 4.16522 19.3534 4.48862 19.0327Z" fill="#ABACAC"/>
<path d="M9.79462 22.3829C9.79507 22.7419 9.79552 23.101 9.79604 23.4601C9.75599 23.5618 9.82529 23.6798 9.74969 23.7762C9.75217 22.8706 9.75464 21.9651 9.75719 21.0597C9.76409 21.0376 9.77474 21.0344 9.78974 21.0532L10.0362 21.2504C9.87224 21.3541 9.84584 21.5075 9.84509 21.6913C9.84367 21.9216 9.90202 22.1596 9.79462 22.3829Z" fill="#C1A0A4"/>
<path d="M2.76937 12.5609C2.74529 12.4916 2.68484 12.4358 2.69437 12.323C2.75647 12.3883 2.79592 12.4718 2.80687 12.5612L2.78827 12.5593L2.76937 12.5609Z" fill="#EF3C60"/>
<path d="M10.2865 14.3061C10.0999 14.1198 9.92914 13.9183 9.77606 13.7036C9.77831 13.6622 9.78244 13.6211 9.78281 13.5797C9.78626 13.2118 9.78626 13.2068 10.1623 13.2244C11.3077 13.2779 12.4533 13.3301 13.5981 13.3933C14.4208 13.4387 15.2433 13.4853 16.0666 13.5199C16.3476 13.5317 16.6291 13.5499 16.9102 13.5566C17.0565 13.5602 17.1465 13.6122 17.1727 13.7765C17.2102 14.0069 17.268 14.2346 17.328 14.4607C17.3615 14.5868 17.339 14.6414 17.1985 14.6339C16.4171 14.5918 15.6355 14.5517 14.8538 14.5139C14.5383 14.4982 14.2227 14.489 13.9071 14.4714C12.8922 14.4147 11.8761 14.3814 10.8609 14.3308C10.6698 14.3214 10.4794 14.2869 10.2865 14.3061Z" fill="white"/>
<path d="M12.61 16.5395C12.1597 16.1999 11.7373 15.8248 11.3469 15.4178C12.4102 15.4513 13.4724 15.5061 14.5344 15.5738C14.8632 15.5947 15.1927 15.5935 15.5222 15.6165C16.1726 15.6615 16.8249 15.6823 17.4766 15.7052C17.5615 15.694 17.6395 15.7538 17.6507 15.8387C17.6514 15.8438 17.6518 15.8489 17.652 15.8541C17.7052 16.1099 17.7702 16.3634 17.8332 16.6171C17.865 16.745 17.8225 16.7928 17.6897 16.7847C17.0186 16.7438 16.3472 16.7097 15.6759 16.6689C15.3881 16.6514 15.1 16.653 14.8116 16.6341C14.0786 16.586 13.3439 16.569 12.61 16.5395Z" fill="white"/>
<path d="M12.059 10.3125C11.65 10.5905 11.2805 10.92 10.8913 11.2234C10.5304 11.505 10.1741 11.7924 9.78375 12.1026C9.78375 11.6526 9.78413 11.2419 9.78375 10.8311C9.78375 10.7507 9.83745 10.7089 9.8919 10.6661C10.3877 10.2736 10.8848 9.88287 11.3773 9.48619C11.4287 9.43002 11.5102 9.41292 11.5798 9.44367C11.6062 9.45117 11.6331 9.45672 11.6603 9.46024C12.2116 9.60402 12.2114 9.60409 12.1076 10.1688C12.103 10.203 12.1001 10.2373 12.0992 10.2718C12.092 10.2903 12.0774 10.3051 12.059 10.3125Z" fill="white"/>
<path d="M13.5981 12.3476C13.3927 12.3349 13.1874 12.3176 12.9819 12.3112C12.8813 12.3081 12.8586 12.2822 12.8754 12.1762C12.9739 11.5585 13.0544 10.9378 13.1568 10.3207C13.2305 9.87713 13.2437 9.87143 13.6761 10.001C13.8587 10.0556 14.1074 10.0343 14.2077 10.181C14.3016 10.3182 14.1826 10.5353 14.1597 10.7168C14.0997 11.1941 14.0076 11.6677 13.9539 12.1456C13.9242 12.4109 13.7509 12.3426 13.5981 12.3476Z" fill="white"/>
<path d="M15.9847 18.7275C15.5046 18.5085 15.0444 18.2484 14.6091 17.95C14.8029 17.905 15.0003 17.8718 15.1897 17.813C15.5071 17.7145 15.8244 17.738 16.148 17.7641C16.5654 17.7979 16.9852 17.8024 17.4038 17.8222C17.5808 17.8432 17.759 17.8532 17.9373 17.8522C18.1179 17.838 18.1398 17.9474 18.1647 18.071C18.1977 18.2365 18.0491 18.204 17.9758 18.2227C17.3442 18.3836 16.7099 18.5344 16.0767 18.6892C16.045 18.6995 16.0143 18.7123 15.9847 18.7275Z" fill="white"/>
<path d="M16.2755 10.8284C16.195 11.338 16.1122 11.8472 16.0355 12.3575C16.0198 12.4625 15.9617 12.4831 15.878 12.4646C15.6538 12.4274 15.4259 12.417 15.1992 12.4337C15.0241 12.4369 14.9646 12.3804 14.9934 12.2073C15.0589 11.8138 15.1171 11.419 15.1774 11.0246C15.2003 10.8749 15.2238 10.7254 15.2416 10.5752C15.2541 10.4702 15.2941 10.4297 15.4054 10.4617C15.6561 10.5335 15.9095 10.5958 16.1618 10.6619C16.2343 10.6693 16.2871 10.734 16.2796 10.8065C16.2789 10.8139 16.2775 10.8212 16.2755 10.8284Z" fill="white"/>
<path d="M18.5495 19.8038C18.2078 19.7053 17.8738 19.5817 17.5504 19.434C17.7912 19.3359 18.0491 19.302 18.2981 19.2343C18.3577 19.2093 18.4261 19.2374 18.451 19.2969C18.4569 19.3109 18.46 19.3258 18.4601 19.3409C18.4875 19.4956 18.5195 19.6496 18.5495 19.8038Z" fill="#FDFCFC"/>
<path d="M11.832 11.8307C11.8707 12.2558 11.847 12.2753 11.3723 12.2099C11.5129 12.0689 11.6669 11.9419 11.832 11.8307Z" fill="#F6F6F5"/>
<path d="M9.76501 9.38135C9.76576 9.24635 9.76652 9.1112 9.76734 8.97591C9.90001 8.98536 10.0863 8.97681 10.1261 9.09021C10.1615 9.191 9.96361 9.23938 9.88614 9.32923C9.85434 9.36515 9.81961 9.3983 9.76501 9.38135Z" fill="#FBF1F0"/>
<path d="M12.0589 10.3125L12.099 10.2716C12.0959 10.4955 12.0613 10.7179 11.996 10.9321C11.97 10.721 12.0266 10.5178 12.0589 10.3125Z" fill="#B0B1B1"/>
<path d="M12.3206 12.256C12.2217 12.3293 12.1171 12.2978 11.9767 12.3115C12.1043 12.1748 12.2175 12.2475 12.3206 12.256Z" fill="#B0B1B1"/>
<path d="M16.9102 12.7362C16.8867 12.5128 16.7362 12.4858 16.554 12.5081C16.8876 12.4417 16.9344 12.4725 16.9102 12.7362Z" fill="#B2B3B3"/>
<path d="M16.6734 11.6393C16.5972 11.4983 16.5596 11.3396 16.5644 11.1794C16.636 11.3221 16.6734 11.4796 16.6734 11.6393Z" fill="#B1B2B2"/>
<path d="M10.5025 12.1778C10.4131 12.2338 10.3012 12.2394 10.2066 12.1928C10.3163 12.1072 10.4108 12.1543 10.5025 12.1778Z" fill="#B0B1B1"/>
<path d="M18.8949 11.4114C19.0313 11.3994 19.1682 11.4291 19.2874 11.4965C19.1661 11.5117 19.0561 11.4772 18.8949 11.4114Z" fill="#B1B2B2"/>
<path d="M17.4767 11.0163C17.3261 11.0178 17.1774 10.9823 17.0436 10.9129C17.1952 10.9013 17.3467 10.9374 17.4767 11.0163Z" fill="#B1B2B2"/>
<path d="M22.9589 15.3316L23.0533 15.6979C22.9469 15.5974 22.9555 15.465 22.9589 15.3316Z" fill="#B1B2B2"/>
<path d="M14.6132 17.6894H14.3395L14.3389 17.6686H14.6127L14.6132 17.6894Z" fill="#B5B6B6"/>
<path d="M15.0308 17.7267H14.788L14.7884 17.7075H15.0312L15.0308 17.7267Z" fill="#B3B4B4"/>
<path d="M14.339 12.3706C14.4246 12.3433 14.5165 12.3428 14.6023 12.3694C14.5168 12.3973 14.4247 12.3977 14.339 12.3706Z" fill="#B4B4B5"/>
<path d="M12.7525 12.3003H12.52L12.5195 12.2796H12.7559L12.7525 12.3003Z" fill="#B5B6B6"/>
<path d="M10.9339 12.2163H10.6999C10.7729 12.1771 10.8608 12.1771 10.9339 12.2163Z" fill="#B5B6B6"/>
<path d="M10.0291 12.1575C9.96505 12.1884 9.89133 12.1924 9.82428 12.1687C9.89725 12.1166 9.96588 12.1575 10.0291 12.1575Z" fill="#B5B6B7"/>
<path d="M8.89374 12.5532C9.00496 12.5875 9.01629 12.6933 9.07216 12.7672C8.96139 12.7326 8.94984 12.627 8.89374 12.5532Z" fill="#EE365D"/>
<path d="M7.09644 9.22876L7.19469 9.43508C7.11362 9.40193 7.07102 9.31261 7.09644 9.22876Z" fill="#EE375E"/>
<path d="M7.46491 10.0939C7.41054 10.0425 7.37979 9.97098 7.37994 9.8962C7.44444 9.93985 7.47759 10.0171 7.46491 10.0939Z" fill="#EE365E"/>
<path d="M9.56656 13.4298C9.49231 13.4115 9.43441 13.3533 9.41656 13.2789C9.48744 13.303 9.54294 13.3588 9.56656 13.4298Z" fill="#EE355D"/>
<path d="M9.27879 13.0532C9.21406 13.0539 9.18878 13.018 9.17798 12.96C9.24901 12.9609 9.25741 13.0125 9.27879 13.0532Z" fill="#EF385E"/>
<path d="M6.85978 8.7324C6.81171 8.64151 6.75995 8.6001 6.79018 8.52758C6.85543 8.57251 6.85363 8.63806 6.85978 8.7324Z" fill="#EF395E"/>
<path d="M6.85223 8.67039C6.90046 8.76197 6.95274 8.80307 6.92229 8.87559C6.85621 8.83097 6.85898 8.76527 6.85223 8.67039Z" fill="#EE375D"/>
<path d="M9.79463 22.3829C9.79163 22.0685 9.79298 21.7541 9.78391 21.4398C9.77836 21.2462 9.92318 21.2748 10.0359 21.2504L11.1543 22.0484L9.79463 22.3829Z" fill="#FFFDFD"/>
<path d="M4.21003 15.0418C4.09348 15.0398 3.97701 15.0376 3.86053 15.0354C3.90253 14.9432 3.94446 14.8511 3.99553 14.7388C4.08793 14.8232 4.16113 14.9266 4.21003 15.0418Z" fill="#B4A9AA"/>
<path d="M7.62355 19.1516L7.14205 18.6671L7.12585 18.6828L7.5868 19.1879L7.62355 19.1516Z" fill="#EE355C"/>
<path d="M1.61114 9.78947L1.48364 9.41628L1.52444 9.40128L1.65644 9.76877L1.61114 9.78947Z" fill="#EE375E"/>
<path d="M8.78839 20.2473C8.86752 20.2548 8.89969 20.3111 8.96922 20.3898C8.88837 20.3767 8.82004 20.3228 8.78839 20.2473Z" fill="#EE365D"/>
<path d="M9.21042 20.598C9.30402 20.6024 9.34602 20.6699 9.4184 20.7673C9.32915 20.7411 9.25414 20.6802 9.21027 20.5982L9.21042 20.598Z" fill="#EE345C"/>
<path d="M2.39546 11.6863C2.29796 11.6451 2.31491 11.5497 2.29346 11.4724C2.36666 11.5249 2.37596 11.6081 2.39561 11.6862L2.39546 11.6863Z" fill="#EE365E"/>
<path d="M9.20998 20.5982C9.14211 20.5951 9.08308 20.5509 9.06104 20.4866C9.12823 20.4913 9.1865 20.5348 9.21013 20.598L9.20998 20.5982Z" fill="#EE375E"/>
<path d="M9.78933 21.0532C9.77928 21.0584 9.76803 21.0606 9.75678 21.0597C9.71291 21.0326 9.65876 21.0147 9.65381 20.9454C9.73128 20.9457 9.75656 21.0042 9.78933 21.0532Z" fill="#EF395E"/>
<path d="M2.39558 11.6861C2.45197 11.7254 2.47882 11.7949 2.46345 11.8619C2.41088 11.8198 2.38493 11.7527 2.39543 11.6862L2.39558 11.6861Z" fill="#EF385E"/>
<path d="M18.244 4.3224L19.1384 4.21245C19.2193 4.1991 19.2956 4.2537 19.309 4.33455C19.3096 4.33763 19.3099 4.3407 19.3102 4.34378C19.4348 4.89195 19.5673 5.43833 19.6943 5.98627C19.7168 6.08332 19.7059 6.14902 19.5711 6.1095C19.289 6.027 19.0032 5.95702 18.7196 5.87955C18.6474 5.85982 18.5696 5.8407 18.5517 5.7492C18.4599 5.27107 18.31 4.80585 18.244 4.3224Z" fill="white"/>
<path d="M16.1516 4.76648C16.4887 4.65181 16.8358 4.56893 17.1885 4.51898C17.2549 4.80533 17.3194 5.09213 17.3883 5.37788C17.4148 5.48791 17.3985 5.53148 17.2722 5.49443C17.0038 5.41583 16.7346 5.33836 16.4618 5.27843C16.3212 5.24753 16.2458 5.18843 16.2278 5.04188C16.2095 4.94828 16.184 4.85618 16.1516 4.76648Z" fill="#FFFEFE"/>
<path d="M15.3675 4.98337C15.4218 4.96837 15.4657 4.91587 15.5302 4.93627C15.5472 5.0619 15.6971 4.97962 15.7421 5.08507C15.6095 5.09197 15.4783 5.05635 15.3675 4.98337Z" fill="#B1B2B1"/>
<path d="M20.1975 6.29394C20.3137 6.26492 20.4366 6.29694 20.5238 6.37891L20.1975 6.29394Z" fill="#B1B1B1"/>
<path d="M20.4139 4.45262C20.4707 4.49657 20.4951 4.5706 20.4756 4.63975C20.3992 4.60502 20.4023 4.54352 20.4139 4.45262Z" fill="#B1B2B2"/>
<path d="M20.3625 4.2704C20.4059 4.29665 20.4261 4.3286 20.4083 4.3679C20.4073 4.37 20.38 4.36595 20.3788 4.36115C20.3708 4.3313 20.3671 4.3007 20.3625 4.2704Z" fill="#B1B2B2"/>
<path d="M10.8186 23.2246C10.7196 23.3231 10.5786 23.2789 10.4617 23.3288C10.5646 23.2452 10.6896 23.2354 10.8186 23.2246Z" fill="#B1B2B2"/>
<path d="M3.42139 17.1967C3.42251 17.1704 3.42371 17.1441 3.42484 17.1178H3.70691C3.61564 17.1659 3.50929 17.1435 3.42139 17.1967Z" fill="#B6B6B7"/>
<path d="M4.21359 17.175C4.10537 17.2048 3.99144 17.2075 3.88202 17.1825C3.99024 17.1527 4.10417 17.1501 4.21359 17.175Z" fill="#B2B4B3"/>
</g>
<defs>
<clipPath id="clip0">
<rect width="24" height="24" fill="white"/>
</clipPath>
</defs>
</svg>
