<svg width="24" height="24" viewBox="0 0 24 24" fill="none" xmlns="http://www.w3.org/2000/svg">
<path d="M12 24C18.6274 24 24 18.6274 24 12C24 5.37258 18.6274 0 12 0C5.37258 0 0 5.37258 0 12C0 18.6274 5.37258 24 12 24Z" fill="#1E252C"/>
<path d="M10.665 11.6918C10.3652 11.6918 10.0778 11.5727 9.86579 11.3607C9.65383 11.1488 9.53475 10.8613 9.53475 10.5615C9.53475 10.2617 9.65383 9.97426 9.86579 9.7623C10.0778 9.55034 10.3652 9.43126 10.665 9.43126C10.9648 9.43126 11.2522 9.55034 11.4642 9.7623C11.6762 9.97426 11.7952 10.2617 11.7952 10.5615C11.7952 10.8613 11.6762 11.1488 11.4642 11.3607C11.2522 11.5727 10.9648 11.6918 10.665 11.6918ZM13.4385 11.6918C13.1387 11.6918 12.8513 11.5727 12.6393 11.3607C12.4273 11.1488 12.3082 10.8613 12.3082 10.5615C12.3082 10.2617 12.4273 9.97426 12.6393 9.7623C12.8513 9.55034 13.1387 9.43126 13.4385 9.43126C13.7383 9.43126 14.0257 9.55034 14.2377 9.7623C14.4497 9.97426 14.5687 10.2617 14.5687 10.5615C14.5687 10.8613 14.4497 11.1488 14.2377 11.3607C14.0257 11.5727 13.7383 11.6918 13.4385 11.6918ZM10.6642 14.466C10.3645 14.466 10.077 14.3469 9.86504 14.135C9.65308 13.923 9.534 13.6355 9.534 13.3358C9.534 13.036 9.65308 12.7485 9.86504 12.5365C10.077 12.3246 10.3645 12.2055 10.6642 12.2055C10.964 12.2055 11.2515 12.3246 11.4635 12.5365C11.6754 12.7485 11.7945 13.036 11.7945 13.3358C11.7945 13.6355 11.6754 13.923 11.4635 14.135C11.2515 14.3469 10.964 14.466 10.6642 14.466ZM13.4385 14.466C13.1387 14.466 12.8513 14.3469 12.6393 14.135C12.4273 13.923 12.3082 13.6355 12.3082 13.3358C12.3082 13.036 12.4273 12.7485 12.6393 12.5365C12.8513 12.3246 13.1387 12.2055 13.4385 12.2055C13.7383 12.2055 14.0257 12.3246 14.2377 12.5365C14.4497 12.7485 14.5687 13.036 14.5687 13.3358C14.5687 13.6355 14.4497 13.923 14.2377 14.135C14.0257 14.3469 13.7383 14.466 13.4385 14.466ZM16.212 11.3835C16.1041 11.3835 15.9972 11.3622 15.8974 11.3209C15.7977 11.2796 15.7071 11.2191 15.6308 11.1427C15.5544 11.0664 15.4939 10.9758 15.4526 10.8761C15.4113 10.7763 15.39 10.6695 15.39 10.5615C15.39 10.4536 15.4113 10.3467 15.4526 10.2469C15.4939 10.1472 15.5544 10.0566 15.6308 9.98027C15.7071 9.90394 15.7977 9.84339 15.8974 9.80208C15.9972 9.76077 16.1041 9.73951 16.212 9.73951C16.43 9.73951 16.6391 9.82611 16.7932 9.98027C16.9474 10.1344 17.034 10.3435 17.034 10.5615C17.034 10.7795 16.9474 10.9886 16.7932 11.1427C16.6391 11.2969 16.43 11.3835 16.212 11.3835ZM16.212 14.1578C15.994 14.1578 15.7849 14.0712 15.6308 13.917C15.4766 13.7628 15.39 13.5538 15.39 13.3358C15.39 13.1177 15.4766 12.9087 15.6308 12.7545C15.7849 12.6004 15.994 12.5138 16.212 12.5138C16.43 12.5138 16.6391 12.6004 16.7932 12.7545C16.9474 12.9087 17.034 13.1177 17.034 13.3358C17.034 13.5538 16.9474 13.7628 16.7932 13.917C16.6391 14.0712 16.43 14.1578 16.212 14.1578ZM7.788 11.3835C7.56999 11.3835 7.36091 11.2969 7.20676 11.1427C7.0526 10.9886 6.966 10.7795 6.966 10.5615C6.966 10.3435 7.0526 10.1344 7.20676 9.98027C7.36091 9.82611 7.56999 9.73951 7.788 9.73951C8.00601 9.73951 8.21509 9.82611 8.36924 9.98027C8.5234 10.1344 8.61 10.3435 8.61 10.5615C8.61 10.7795 8.5234 10.9886 8.36924 11.1427C8.21509 11.2969 8.00601 11.3835 7.788 11.3835ZM7.788 14.1578C7.56999 14.1578 7.36091 14.0712 7.20676 13.917C7.0526 13.7628 6.966 13.5538 6.966 13.3358C6.966 13.1177 7.0526 12.9087 7.20676 12.7545C7.36091 12.6004 7.56999 12.5138 7.788 12.5138C8.00601 12.5138 8.21509 12.6004 8.36924 12.7545C8.5234 12.9087 8.61 13.1177 8.61 13.3358C8.61 13.5538 8.5234 13.7628 8.36924 13.917C8.21509 14.0712 8.00601 14.1578 7.788 14.1578ZM10.6642 16.9313C10.5543 16.9346 10.4447 16.9158 10.3421 16.876C10.2396 16.8362 10.146 16.7762 10.067 16.6996C9.98805 16.623 9.92527 16.5313 9.88239 16.4299C9.83952 16.3286 9.81742 16.2197 9.81742 16.1096C9.81742 15.9996 9.83952 15.8907 9.88239 15.7893C9.92527 15.688 9.98805 15.5963 10.067 15.5197C10.146 15.4431 10.2396 15.3831 10.3421 15.3433C10.4447 15.3035 10.5543 15.2847 10.6642 15.288C10.8779 15.2945 11.0806 15.3839 11.2294 15.5372C11.3782 15.6906 11.4614 15.8959 11.4614 16.1096C11.4614 16.3233 11.3782 16.5287 11.2294 16.682C11.0806 16.8354 10.8779 16.9248 10.6642 16.9313ZM13.4385 16.9313C13.3285 16.9346 13.219 16.9158 13.1164 16.876C13.0138 16.8362 12.9202 16.7762 12.8413 16.6996C12.7623 16.623 12.6995 16.5313 12.6566 16.4299C12.6138 16.3286 12.5917 16.2197 12.5917 16.1096C12.5917 15.9996 12.6138 15.8907 12.6566 15.7893C12.6995 15.688 12.7623 15.5963 12.8413 15.5197C12.9202 15.4431 13.0138 15.3831 13.1164 15.3433C13.219 15.3035 13.3285 15.2847 13.4385 15.288C13.6521 15.2945 13.8548 15.3839 14.0036 15.5372C14.1524 15.6906 14.2357 15.8959 14.2357 16.1096C14.2357 16.3233 14.1524 16.5287 14.0036 16.682C13.8548 16.8354 13.6521 16.9248 13.4385 16.9313ZM10.6642 8.61001C10.5543 8.61333 10.4447 8.59454 10.3421 8.55474C10.2396 8.51495 10.146 8.45496 10.067 8.37834C9.98805 8.30171 9.92527 8.21001 9.88239 8.10867C9.83952 8.00733 9.81742 7.89842 9.81742 7.78838C9.81742 7.67835 9.83952 7.56943 9.88239 7.46809C9.92527 7.36675 9.98805 7.27505 10.067 7.19843C10.146 7.1218 10.2396 7.06182 10.3421 7.02202C10.4447 6.98223 10.5543 6.96343 10.6642 6.96676C10.8779 6.97321 11.0806 7.0626 11.2294 7.21599C11.3782 7.36937 11.4614 7.57467 11.4614 7.78838C11.4614 8.00209 11.3782 8.2074 11.2294 8.36078C11.0806 8.51416 10.8779 8.60355 10.6642 8.61001ZM13.4385 8.61001C13.3285 8.61333 13.219 8.59454 13.1164 8.55474C13.0138 8.51495 12.9202 8.45496 12.8413 8.37834C12.7623 8.30171 12.6995 8.21001 12.6566 8.10867C12.6138 8.00733 12.5917 7.89842 12.5917 7.78838C12.5917 7.67835 12.6138 7.56943 12.6566 7.46809C12.6995 7.36675 12.7623 7.27505 12.8413 7.19843C12.9202 7.1218 13.0138 7.06182 13.1164 7.02202C13.219 6.98223 13.3285 6.96343 13.4385 6.96676C13.6521 6.97321 13.8548 7.0626 14.0036 7.21599C14.1524 7.36937 14.2357 7.57467 14.2357 7.78838C14.2357 8.00209 14.1524 8.2074 14.0036 8.36078C13.8548 8.51416 13.6521 8.60355 13.4385 8.61001ZM10.6642 5.52751C10.5952 5.53015 10.5263 5.51882 10.4617 5.49421C10.3971 5.4696 10.3382 5.43221 10.2884 5.38428C10.2386 5.33635 10.1989 5.27886 10.1719 5.21526C10.1448 5.15166 10.1309 5.08325 10.1309 5.01413C10.1309 4.94501 10.1448 4.8766 10.1719 4.813C10.1989 4.7494 10.2386 4.69191 10.2884 4.64398C10.3382 4.59605 10.3971 4.55866 10.4617 4.53405C10.5263 4.50944 10.5952 4.49812 10.6642 4.50076C10.8005 4.50076 10.9312 4.55488 11.0275 4.65123C11.1239 4.74758 11.178 4.87825 11.178 5.01451C11.178 5.15076 11.1239 5.28144 11.0275 5.37778C10.9312 5.47413 10.8005 5.52826 10.6642 5.52826V5.52751ZM13.4385 5.52751C13.3694 5.53015 13.3005 5.51882 13.236 5.49421C13.1714 5.4696 13.1124 5.43221 13.0626 5.38428C13.0128 5.33635 12.9732 5.27886 12.9461 5.21526C12.9191 5.15166 12.9051 5.08325 12.9051 5.01413C12.9051 4.94501 12.9191 4.8766 12.9461 4.813C12.9732 4.7494 13.0128 4.69191 13.0626 4.64398C13.1124 4.59605 13.1714 4.55866 13.236 4.53405C13.3005 4.50944 13.3694 4.49812 13.4385 4.50076C13.5748 4.50076 13.7054 4.55488 13.8018 4.65123C13.8981 4.74758 13.9523 4.87825 13.9523 5.01451C13.9523 5.15076 13.8981 5.28144 13.8018 5.37778C13.7054 5.47413 13.5748 5.52826 13.4385 5.52826V5.52751ZM18.9862 11.076C18.85 11.076 18.7193 11.0219 18.623 10.9255C18.5266 10.8292 18.4725 10.6985 18.4725 10.5623C18.4725 10.426 18.5266 10.2953 18.623 10.199C18.7193 10.1026 18.85 10.0485 18.9862 10.0485C19.1225 10.0485 19.2532 10.1026 19.3495 10.199C19.4459 10.2953 19.5 10.426 19.5 10.5623C19.5 10.6985 19.4459 10.8292 19.3495 10.9255C19.2532 11.0219 19.1225 11.076 18.9862 11.076ZM18.9862 13.8503C18.85 13.8503 18.7193 13.7961 18.623 13.6998C18.5266 13.6034 18.4725 13.4728 18.4725 13.3365C18.4725 13.2003 18.5266 13.0696 18.623 12.9732C18.7193 12.8769 18.85 12.8228 18.9862 12.8228C19.1225 12.8228 19.2532 12.8769 19.3495 12.9732C19.4459 13.0696 19.5 13.2003 19.5 13.3365C19.5 13.4728 19.4459 13.6034 19.3495 13.6998C19.2532 13.7961 19.1225 13.8503 18.9862 13.8503ZM5.01375 11.076C4.87749 11.076 4.74682 11.0219 4.65047 10.9255C4.55413 10.8292 4.5 10.6985 4.5 10.5623C4.5 10.426 4.55413 10.2953 4.65047 10.199C4.74682 10.1026 4.87749 10.0485 5.01375 10.0485C5.15 10.0485 5.28068 10.1026 5.37703 10.199C5.47337 10.2953 5.5275 10.426 5.5275 10.5623C5.5275 10.6985 5.47337 10.8292 5.37703 10.9255C5.28068 11.0219 5.15 11.076 5.01375 11.076ZM5.01375 13.8503C4.87749 13.8503 4.74682 13.7961 4.65047 13.6998C4.55413 13.6034 4.5 13.4728 4.5 13.3365C4.5 13.2003 4.55413 13.0696 4.65047 12.9732C4.74682 12.8769 4.87749 12.8228 5.01375 12.8228C5.15 12.8228 5.28068 12.8769 5.37703 12.9732C5.47337 13.0696 5.5275 13.2003 5.5275 13.3365C5.5275 13.4728 5.47337 13.6034 5.37703 13.6998C5.28068 13.7961 5.15 13.8503 5.01375 13.8503ZM10.6642 19.5C10.528 19.5 10.3973 19.4459 10.301 19.3495C10.2046 19.2532 10.1505 19.1225 10.1505 18.9863C10.1505 18.85 10.2046 18.7193 10.301 18.623C10.3973 18.5266 10.528 18.4725 10.6642 18.4725C10.8005 18.4725 10.9312 18.5266 11.0275 18.623C11.1239 18.7193 11.178 18.85 11.178 18.9863C11.178 19.1225 11.1239 19.2532 11.0275 19.3495C10.9312 19.4459 10.8005 19.5 10.6642 19.5ZM13.4385 19.5C13.3022 19.5 13.1716 19.4459 13.0752 19.3495C12.9789 19.2532 12.9247 19.1225 12.9247 18.9863C12.9247 18.85 12.9789 18.7193 13.0752 18.623C13.1716 18.5266 13.3022 18.4725 13.4385 18.4725C13.5748 18.4725 13.7054 18.5266 13.8018 18.623C13.8981 18.7193 13.9523 18.85 13.9523 18.9863C13.9523 19.1225 13.8981 19.2532 13.8018 19.3495C13.7054 19.4459 13.5748 19.5 13.4385 19.5Z" fill="white"/>
</svg>
