<svg width="24" height="24" viewBox="0 0 24 24" fill="none" xmlns="http://www.w3.org/2000/svg">
<path d="M12 24C18.6274 24 24 18.6274 24 12C24 5.37258 18.6274 0 12 0C5.37258 0 0 5.37258 0 12C0 18.6274 5.37258 24 12 24Z" fill="url(#paint0_linear)"/>
<path d="M6.0936 15.6V9.95198L10.3768 13.1756V15.6H11.47V12.948C11.4698 12.8494 11.4468 12.7523 11.4027 12.6641C11.3586 12.576 11.2947 12.4993 11.216 12.44L6.0216 8.52918C5.92659 8.45862 5.81388 8.41578 5.69598 8.40542C5.57809 8.39507 5.45963 8.41761 5.35378 8.47054C5.24792 8.52346 5.15882 8.6047 5.09636 8.70523C5.03391 8.80576 5.00055 8.92164 5 9.03998V15.6H6.0936ZM17.9392 15.6V9.95198L13.656 13.1756V15.6H12.5628V12.948C12.563 12.8494 12.586 12.7523 12.6301 12.6641C12.6742 12.576 12.7381 12.4993 12.8168 12.44L18.0112 8.53078C18.1061 8.4603 18.2187 8.41747 18.3364 8.40705C18.4542 8.39664 18.5725 8.41904 18.6783 8.47177C18.7841 8.52451 18.8732 8.60551 18.9358 8.70581C18.9984 8.8061 19.032 8.92177 19.0328 9.03998V15.6H17.9392Z" fill="white"/>
<defs>
<linearGradient id="paint0_linear" x1="12" y1="0" x2="12" y2="24" gradientUnits="userSpaceOnUse">
<stop stop-color="#4FA89B"/>
<stop offset="1" stop-color="#6ACEBB"/>
</linearGradient>
</defs>
</svg>
