<svg width="24" height="24" viewBox="0 0 24 24" fill="none" xmlns="http://www.w3.org/2000/svg">
<path d="M11.9517 15.7699L13.2418 13.5911H10.7124L11.9517 15.7699Z" fill="#F0DBB0"/>
<path d="M21.0354 8.64122L19.327 0.960007L15.9706 6.24605C13.3614 5.61734 10.6398 5.61734 8.03063 6.24605L4.68151 0.960007L2.96705 8.64122C1.12322 10.1127 0 12.0351 0 14.1449C0 18.7672 5.37068 22.5153 11.9964 22.5153C18.6221 22.5153 23.9927 18.7672 23.9927 14.1449C23.9915 12.0351 22.8768 10.1127 21.0354 8.64122ZM5.33199 12.1596H4.5328L6.48423 9.91195H7.9061L5.33199 12.1596ZM11.9359 17.6488L8.61703 11.8138L9.43678 11.3471L10.1767 12.6469H13.8027L14.5753 11.3411L15.3866 11.8223L11.9359 17.6488ZM18.6716 12.1596L16.0963 9.91195H17.5267L19.4769 12.1596H18.6716Z" fill="#F0DBB0"/>
</svg>
