<svg width="24" height="24" viewBox="0 0 24 24" fill="none" xmlns="http://www.w3.org/2000/svg">
<path d="M11.9964 0C5.37068 0 0 5.37068 0 11.9964C0 18.6221 5.37068 23.9927 11.9964 23.9927C18.6221 23.9927 23.9927 18.6221 23.9927 11.9964C23.9915 5.37068 18.6209 0 11.9964 0ZM9.56856 6.30892C10.0474 6.0127 11.4632 8.22166 11.7304 8.26035C11.9988 8.29904 12.688 7.60987 13.1269 7.24594C13.5657 6.88202 15.4906 5.67657 15.5752 5.80111C15.6611 5.92564 14.2259 6.75869 13.4315 7.37048C12.6372 7.98227 12.0774 8.91567 11.4438 8.91567C10.8103 8.91567 9.66408 7.13592 9.50207 6.93884C9.34368 6.76957 9.35335 6.50358 9.52262 6.34519C9.53713 6.33189 9.55285 6.3198 9.56856 6.30892ZM15.7614 16.4832L14.562 11.5091L11.994 14.5959L9.38237 11.5067L8.18297 16.4808H5.91839L8.18418 6.94005L11.994 11.6058L15.7094 6.94005L17.9559 16.4784L15.7614 16.4832Z" fill="#FF9616"/>
</svg>
