<svg width="24" height="24" viewBox="0 0 24 24" fill="none" xmlns="http://www.w3.org/2000/svg">
<path d="M11.994 23.988C5.37331 23.988 0 18.6147 0 11.994C0 5.37331 5.37331 0 11.994 0C15.3043 0 18.3076 1.34333 20.4762 3.51184L18.4804 5.50765C16.8204 3.84768 14.5271 2.82099 11.994 2.82099C6.92774 2.82099 2.82099 6.92774 2.82099 11.994C2.82099 17.0603 6.92774 21.167 11.994 21.167C16.5805 21.167 20.3706 17.7991 21.0423 13.4045H11.994V10.5835H23.9016C23.9597 11.0514 23.9885 11.5225 23.988 11.994C23.988 18.6147 18.6147 23.988 11.994 23.988Z" fill="url(#paint0_linear)"/>
<defs>
<linearGradient id="paint0_linear" x1="0" y1="0" x2="0" y2="23.988" gradientUnits="userSpaceOnUse">
<stop stop-color="#39ADFF"/>
<stop offset="1" stop-color="#1B67DE"/>
</linearGradient>
</defs>
</svg>
