<svg width="24" height="24" viewBox="0 0 24 24" fill="none" xmlns="http://www.w3.org/2000/svg">
<path fill-rule="evenodd" clip-rule="evenodd" d="M17.6414 9.50897C18.9104 11.4152 16.5766 15.1972 12.4331 17.9558C8.5462 20.5435 4.44415 21.3131 2.90208 19.8235C2.80001 19.7076 2.70346 19.5917 2.60966 19.4703C1.78207 18.1793 2.57379 16.0469 4.44689 13.9531C4.67033 14.1131 4.94619 14.2069 5.24139 14.2069C6.00278 14.2069 6.62071 13.589 6.62071 12.8276C6.62071 12.56 6.54343 12.3117 6.41102 12.0993C6.85793 11.7379 7.33519 11.3876 7.83723 11.0538C11.9834 8.29516 16.3724 7.60276 17.6414 9.50897Z" fill="#0CA4FB"/>
<path fill-rule="evenodd" clip-rule="evenodd" d="M12.4331 17.9558C8.5462 20.5435 4.44415 21.3131 2.90208 19.8235C2.80001 19.7296 2.70898 19.6193 2.62896 19.5007C2.62344 19.4896 2.61518 19.4814 2.60966 19.4703C1.78207 18.1793 2.57379 16.0469 4.44689 13.9531C4.67033 14.1131 4.94619 14.2069 5.24139 14.2069C6.00278 14.2069 6.62071 13.589 6.62071 12.8276C6.62071 12.56 6.54343 12.3117 6.41102 12.0993C6.85793 11.7379 7.33519 11.3876 7.83723 11.0538C11.9834 8.29516 16.3724 7.60276 17.6414 9.50897C18.9104 11.4152 16.5766 15.1972 12.4331 17.9558Z" fill="#0CA4FB"/>
<path fill-rule="evenodd" clip-rule="evenodd" d="M22.6207 6.41102C20.091 4.67033 14.4855 5.80965 9.19173 9.3324C8.05515 10.0883 7.01517 10.8993 6.08829 11.7407C5.85655 11.5559 5.56138 11.4483 5.24139 11.4483C4.48001 11.4483 3.86208 12.0662 3.86208 12.8276C3.86208 13.1559 3.97793 13.4565 4.17103 13.6938C2.91861 15.1421 2.02485 16.6041 1.57241 17.9421C0.571029 16.1904 0 14.1627 0 12C0 5.37377 5.37377 0 12 0C16.6069 0 20.6097 2.59862 22.6207 6.41102Z" fill="#0CA4FB"/>
<path fill-rule="evenodd" clip-rule="evenodd" d="M24 12C24 18.6262 18.6262 24 11.9999 24C10.4386 24 8.94616 23.7021 7.57788 23.1586C10.113 22.7448 13.1144 21.5283 16.022 19.5917C20.3282 16.7255 23.2606 13.0593 23.862 10.1765C23.953 10.7697 24 11.3793 24 12Z" fill="#0CA4FB"/>
<path fill-rule="evenodd" clip-rule="evenodd" d="M12.4331 17.9558C8.5462 20.5435 4.44415 21.3131 2.90208 19.8235C2.80001 19.7296 2.70898 19.6193 2.62896 19.5007C2.62344 19.4896 2.61518 19.4814 2.60966 19.4703C1.78207 18.1793 2.57379 16.0469 4.44689 13.9531C4.67033 14.1131 4.94619 14.2069 5.24139 14.2069C6.00278 14.2069 6.62071 13.589 6.62071 12.8276C6.62071 12.56 6.54343 12.3117 6.41102 12.0993C6.85793 11.7379 7.33519 11.3876 7.83723 11.0538C11.9834 8.29516 16.3724 7.60276 17.6414 9.50897C18.9104 11.4152 16.5766 15.1972 12.4331 17.9558Z" fill="#0CA4FB"/>
</svg>
