<svg width="24" height="24" viewBox="0 0 24 24" fill="none" xmlns="http://www.w3.org/2000/svg">
<path d="M23.0003 14.4014L18.8419 18.5574V18.2178C18.8432 18.131 18.8268 18.0449 18.7938 17.9647C18.7608 17.8844 18.7118 17.8117 18.6499 17.7509L18.1567 17.2709L22.0078 13.4197C22.3829 13.0434 22.5935 12.5337 22.5935 12.0024C22.5935 11.471 22.3829 10.9614 22.0078 10.585L13.4054 1.98016C13.0292 1.60479 12.5195 1.39398 11.988 1.39398C11.4566 1.39398 10.9469 1.60479 10.5707 1.98016L1.97423 10.5814C1.59916 10.9578 1.38855 11.4674 1.38855 11.9988C1.38855 12.5301 1.59916 13.0398 1.97423 13.4161L10.5779 22.0198C10.9537 22.3954 11.4633 22.6063 11.9946 22.6063C12.526 22.6063 13.0356 22.3954 13.4114 22.0198L16.6181 18.813L16.7837 18.9331L16.7645 20.6924L14.4291 22.9967C13.7874 23.6342 12.9196 23.992 12.015 23.992C11.1105 23.992 10.2427 23.6342 9.601 22.9967L0.994936 14.4014C0.359694 13.7641 0.00299072 12.901 0.00299072 12.0012C0.00299072 11.1013 0.359694 10.2382 0.994936 9.60093L9.5938 0.994865C10.2306 0.358744 11.0939 0.00143433 11.994 0.00143433C12.8941 0.00143433 13.7574 0.358744 14.3943 0.994865L23.0003 9.60093C23.6353 10.2384 23.9918 11.1014 23.9918 12.0012C23.9918 12.9009 23.6353 13.764 23.0003 14.4014Z" fill="#1EB3DE"/>
<path d="M18.6583 17.751L18.165 17.2709L13.5614 12.7561C13.7374 12.3906 13.7804 11.9753 13.683 11.5815C13.5856 11.1878 13.354 10.8403 13.0279 10.5991C12.7018 10.3578 12.3018 10.2379 11.8968 10.2599C11.4918 10.2819 11.1072 10.4445 10.8092 10.7197C10.5112 10.9949 10.3186 11.3654 10.2644 11.7674C10.2103 12.1693 10.2981 12.5776 10.5127 12.9218C10.7273 13.266 11.0552 13.5245 11.44 13.6529C11.8247 13.7813 12.2422 13.7714 12.6205 13.625L15.0963 16.054L17.3286 18.1026L17.5446 18.3018C17.5778 18.332 17.604 18.3692 17.6212 18.4107C17.6385 18.4522 17.6463 18.497 17.6442 18.5418L17.6418 19.7912V22.381L17.6058 22.9055C17.5942 23.0771 17.6507 23.2464 17.763 23.3767C17.8753 23.5069 18.0344 23.5877 18.2058 23.6016H18.2166C18.389 23.5909 18.5509 23.5152 18.6697 23.3898C18.7884 23.2644 18.8551 23.0986 18.8563 22.9259V18.5826V18.2322C18.8573 18.1428 18.8403 18.0541 18.8062 17.9715C18.7722 17.8888 18.7219 17.8138 18.6583 17.751Z" fill="#1EB3DE"/>
<path d="M11.9484 12.9613C11.7609 12.9517 11.5803 12.8873 11.429 12.7761C11.2777 12.665 11.1624 12.5119 11.0972 12.3358C11.032 12.1597 11.0199 11.9684 11.0623 11.7856C11.1047 11.6027 11.1998 11.4362 11.3358 11.3068C11.4719 11.1774 11.6429 11.0908 11.8276 11.0575C12.0124 11.0243 12.2029 11.046 12.3755 11.1199C12.548 11.1938 12.6952 11.3166 12.7987 11.4733C12.9021 11.6299 12.9574 11.8135 12.9577 12.0012C12.9578 12.0506 12.9542 12.1 12.9469 12.1488C12.9117 12.3746 12.7972 12.5805 12.6238 12.7295C12.4505 12.8784 12.2297 12.9606 12.0012 12.9613H11.9484Z" fill="#1EB3DE"/>
</svg>
