<svg width="24" height="24" viewBox="0 0 24 24" fill="none" xmlns="http://www.w3.org/2000/svg">
<path d="M8.82157 8.89282C8.46285 8.79261 6.85265 8.40073 6.5139 8.31426C6.15189 8.22119 5.58578 8.16018 5.34212 8.712C5.09827 9.264 4.40263 10.8894 4.18041 11.4517C3.95818 12.0139 4.29857 12.2253 4.62834 12.3115C4.95812 12.3974 6.65717 12.8039 7.05161 12.8898C7.44569 12.9758 7.82749 12.9431 8.07115 12.3983C8.315 11.8536 9.02218 10.218 9.21583 9.68721C9.40929 9.15701 9.17955 8.99322 8.82157 8.89282Z" fill="#1767A0"/>
<path d="M11.9956 0C5.3705 0 0 5.3705 0 11.996C0 18.6214 5.3705 23.9919 11.9956 23.9919C18.6205 23.9919 23.9916 18.6214 23.9916 11.996C23.9916 5.3705 18.6205 0 11.9956 0ZM7.78754 15.4223C6.98382 15.247 2.48354 14.0634 1.81154 13.8879C1.13936 13.713 0.423389 13.1122 0.876458 11.9659C1.32934 10.8198 2.64421 7.67835 3.14107 6.55347C3.63792 5.42821 5.58815 5.73582 6.32629 5.92525C7.01643 6.10205 10.505 6.94809 11.2355 7.15255C11.9661 7.35719 12.9596 7.97056 12.5652 9.05185C12.1707 10.1335 10.8266 13.2747 10.3297 14.385C9.83304 15.4954 8.59127 15.5978 7.78754 15.4223ZM21.0727 14.9146C20.777 15.7037 19.6703 18.3554 19.6703 18.3554L16.8537 17.6541C16.8537 17.6541 17.7743 15.4844 17.862 15.2103C17.9498 14.9364 18.0262 14.5858 17.6101 14.4654C17.1937 14.3449 14.7169 13.6983 14.7169 13.6983L13.4239 16.8214L10.5527 16.0762L14.0264 7.81356L16.8757 8.53667L15.1114 12.6242L20.2179 9.35853L23.6151 10.2187L19.6153 12.624C19.6153 12.624 20.7113 13.0514 20.9742 13.4459C21.2373 13.8407 21.3688 14.1256 21.0727 14.9146Z" fill="#1767A0"/>
</svg>
