<svg width="24" height="24" viewBox="0 0 24 24" fill="none" xmlns="http://www.w3.org/2000/svg">
<g clip-path="url(#clip0)">
<path d="M11.3094 0.207633C12.0825 -0.128751 12.6337 0.584176 13.1103 1.0607C13.9608 1.78387 14.7715 2.55259 15.5389 3.36348C15.9791 3.8436 15.8008 4.7222 15.2023 4.98953C14.742 5.24056 14.1799 5.05139 13.8271 4.70182C12.9012 3.81471 12.0152 2.88288 11.053 2.0352C10.4563 1.54777 10.5782 0.488751 11.3094 0.207273V0.207633ZM19.7426 2.66673C20.2666 2.38478 21.105 2.61399 21.2507 3.23784C21.4726 3.79265 21.1161 4.34182 20.7249 4.71117C19.8681 5.55692 19.0346 6.42629 18.2018 7.29578C17.898 7.66334 17.3632 7.76152 16.9339 7.56324C16.3137 7.30669 16.1463 6.37546 16.6138 5.90434C17.6653 4.83489 18.5931 3.6362 19.7427 2.66673H19.7426ZM2.99749 2.8396C3.54331 2.51041 4.21811 2.72859 4.62199 3.1761C5.5302 4.09271 6.46694 4.97862 7.38511 5.88084C7.99266 6.44284 7.56888 7.63241 6.72121 7.63612C6.01176 7.74533 5.63522 7.04308 5.16037 6.65934C4.32816 5.97003 3.56561 5.2028 2.8106 4.42933C2.38311 3.98913 2.5109 3.18162 2.99797 2.8396H2.99749ZM3.70203 8.25818C4.61695 7.90525 5.51018 9.0585 4.93955 9.85319C4.26463 10.7336 3.38603 11.4411 2.64984 12.2725C2.21504 12.7199 1.80948 13.4074 1.08541 13.3201C0.237734 13.2874 -0.18796 12.1093 0.428703 11.5376C1.54203 10.4718 2.42603 9.12384 3.70311 8.25806L3.70203 8.25818ZM22.2548 10.8082C22.8842 10.3971 23.8337 10.8645 23.8539 11.6233C23.9465 12.3363 23.239 12.7128 22.8496 13.1912C22.1639 14.017 21.4111 14.7865 20.634 15.5268C20.0665 16.0632 19.0059 15.6867 18.904 14.9102C18.7712 14.108 19.5243 13.6096 19.9991 13.0968C20.7849 12.3673 21.4488 11.5071 22.2547 10.8085L22.2548 10.8082ZM6.0886 16.4486C6.69999 16.083 7.62762 16.5177 7.64213 17.2597C7.75494 17.9764 7.04729 18.3566 6.65983 18.835C5.9758 19.6621 5.2136 20.421 4.44421 21.1705C3.94395 21.6761 2.87797 21.4323 2.73604 20.7067C2.494 20.0064 3.08896 19.4407 3.54187 19.001C4.42059 18.1789 5.18423 17.2388 6.0886 16.4492V16.4486ZM16.9523 16.4213C17.2907 16.305 17.7195 16.2959 18.0054 16.5396C19.0642 17.5455 20.1901 18.4804 21.1852 19.5535C21.4926 19.8646 21.5199 20.3866 21.3163 20.7612C21.0285 21.4342 20.0428 21.4505 19.5643 20.974C18.5985 20.0629 17.6702 19.106 16.6992 18.1983C16.1118 17.7418 16.2499 16.6849 16.9521 16.4212L16.9523 16.4213ZM8.80089 18.9932C9.30439 18.7204 9.896 18.9787 10.258 19.3624C11.1712 20.2683 12.0843 21.1741 13.0322 22.0436C13.6556 22.6365 13.2341 23.8389 12.3555 23.8479C11.6461 23.9318 11.2765 23.2276 10.8001 22.8421C9.97296 22.1562 9.20477 21.4014 8.46247 20.6243C8.01496 20.1459 8.19682 19.2566 8.80077 18.9927L8.80089 18.9932ZM7.18131 1.12244C7.18136 1.54313 6.92797 1.92243 6.53931 2.08344C6.15065 2.24446 5.70326 2.15548 5.40578 1.85801C5.10831 1.56053 5.01933 1.11314 5.18035 0.724481C5.34136 0.335819 5.72066 0.0824293 6.14135 0.0824777C6.7157 0.0824777 7.18131 0.548084 7.18131 1.12244ZM10.2128 3.88843C10.2128 4.46277 9.74726 4.92837 9.17292 4.92839C8.59858 4.92841 8.13296 4.46285 8.13292 3.88851C8.13288 3.31417 8.59842 2.84854 9.17276 2.84847C9.44859 2.84844 9.71314 2.95799 9.9082 3.15303C10.1033 3.34806 10.2128 3.6126 10.2128 3.88843ZM2.09252 6.42941C2.09262 6.85011 1.83927 7.22943 1.45063 7.39049C1.06198 7.55155 0.614587 7.46262 0.317077 7.16518C0.0195662 6.86774 -0.0694626 6.42036 0.091508 6.03168C0.252479 5.643 0.631745 5.38957 1.05244 5.38957C1.32825 5.38954 1.59278 5.49907 1.78784 5.69408C1.98289 5.88909 2.09249 6.1536 2.09252 6.42941ZM18.6024 1.03996C18.6024 1.46063 18.349 1.83987 17.9603 2.0008C17.5716 2.16174 17.1243 2.07268 16.8269 1.77515C16.5295 1.47763 16.4407 1.03024 16.6018 0.641652C16.7629 0.253061 17.1423 -0.000193745 17.5629 1.11214e-07C17.8388 -3.15782e-05 18.1033 0.109525 18.2983 0.304562C18.4934 0.4996 18.6029 0.764136 18.6029 1.03996H18.6024ZM23.9885 6.16855C23.9885 6.74291 23.5229 7.20851 22.9485 7.20851C22.3742 7.20851 21.9086 6.74291 21.9086 6.16855C21.9086 5.5942 22.3742 5.12859 22.9485 5.12859C23.5229 5.12859 23.9885 5.5942 23.9885 6.16855ZM21.1461 9.15668C21.1462 9.73104 20.6807 10.1967 20.1063 10.1968C19.532 10.1968 19.0663 9.73128 19.0662 9.15692C19.0662 8.58257 19.5317 8.11691 20.1061 8.11684C20.3819 8.11681 20.6464 8.22635 20.8415 8.42136C21.0365 8.61636 21.1461 8.88087 21.1461 9.15668ZM23.9837 17.5556C23.9837 18.1299 23.5181 18.5955 22.9438 18.5956C22.3694 18.5956 21.9038 18.13 21.9038 17.5557C21.9037 16.9813 22.3693 16.5157 22.9436 16.5156C23.2195 16.5156 23.484 16.6252 23.6791 16.8202C23.8741 17.0152 23.9837 17.2798 23.9837 17.5556ZM15.8726 20.0919C15.8727 20.5126 15.6193 20.8919 15.2306 21.0529C14.842 21.2139 14.3946 21.125 14.0971 20.8275C13.7996 20.5301 13.7106 20.0827 13.8716 19.694C14.0326 19.3054 14.4119 19.0519 14.8325 19.0519C15.1084 19.0519 15.3729 19.1615 15.568 19.3565C15.763 19.5515 15.8726 19.8161 15.8726 20.0919ZM18.8648 22.9361C18.8649 23.3568 18.6116 23.7361 18.2229 23.8971C17.8343 24.0582 17.3869 23.9693 17.0894 23.6718C16.7919 23.3744 16.7028 22.927 16.8638 22.5383C17.0248 22.1497 17.4041 21.8962 17.8247 21.8962C18.1006 21.8962 18.3651 22.0057 18.5601 22.2007C18.7552 22.3957 18.8648 22.6602 18.8648 22.9361ZM7.47526 22.9361C7.47531 23.3568 7.22192 23.7361 6.83325 23.8971C6.44459 24.0581 5.99721 23.9691 5.69973 23.6716C5.40225 23.3742 5.31328 22.9268 5.47429 22.5381C5.63531 22.1494 6.0146 21.8961 6.4353 21.8961C7.00965 21.8961 7.47526 22.3617 7.47526 22.9361ZM4.93871 14.7909C4.93876 15.2116 4.68537 15.5909 4.29671 15.7519C3.90805 15.913 3.46066 15.824 3.16319 15.5265C2.86571 15.229 2.77673 14.7816 2.93775 14.393C3.09876 14.0043 3.47806 13.7509 3.89875 13.751C4.47311 13.751 4.93871 14.2166 4.93871 14.7909ZM2.09252 17.8133C2.09257 18.234 1.83919 18.6133 1.45054 18.7743C1.0619 18.9354 0.61452 18.8464 0.317034 18.549C0.0195486 18.2515 -0.0694582 17.8041 0.0915194 17.4155C0.252497 17.0268 0.631755 16.7734 1.05244 16.7734C1.32827 16.7734 1.59282 16.8829 1.78788 17.0779C1.98294 17.273 2.09252 17.5375 2.09252 17.8133Z" fill="#03E8B0"/>
</g>
<defs>
<clipPath id="clip0">
<rect width="24" height="24" fill="white"/>
</clipPath>
</defs>
</svg>
