<svg width="24" height="24" viewBox="0 0 24 24" fill="none" xmlns="http://www.w3.org/2000/svg">
<g clip-path="url(#clip0)">
<path d="M6.66852 2.94747C7.12532 2.42733 7.54543 1.9872 7.94554 1.61377C1.19034 1.39704 3.15755 6.28173 0.9436 11.2398C-1.59044 16.9547 1.24368 19.132 5.46486 19.8122C4.87538 19.1097 4.39436 18.323 4.03779 17.4782C1.3137 14.0339 2.41734 7.75547 6.66852 2.94747Z" fill="#EFE812"/>
<path d="M22.9231 9.03586C22.1253 11.1228 20.9712 13.0554 19.5121 14.7474C18.3424 16.169 16.9412 17.383 15.3676 18.3384C13.5401 19.4965 11.416 20.0999 9.25259 20.0756C7.9895 20.0869 6.72748 19.9989 5.47821 19.8122C6.17182 20.6407 7.03173 21.3143 8.00224 21.7894C14.1106 24.7436 14.494 19.2587 20.9558 16.4746C24.5835 14.9108 24.5969 11.8566 22.9197 9.03586" fill="#EDE70A"/>
<path d="M15.3676 3.33426C16.2519 3.48904 17.1039 3.7911 17.8883 4.22784C19.943 5.38313 21.6743 7.03648 22.923 9.03584C24.0233 5.93498 23.5098 3.50097 21.1058 3.06085C18.4584 2.57738 16.3912 2.42067 14.404 1.03362C11.9566 -0.66685 9.80937 -0.113363 7.94885 1.61712L8.3523 1.63379C10.933 1.78716 13.4004 2.30064 15.3542 3.32759" fill="#EDE70A"/>
<path d="M6.66855 2.94749C2.41737 7.75549 1.31373 14.0339 4.05116 17.4782C3.41791 15.9831 3.14156 14.361 3.24399 12.7406C3.34643 11.1201 3.82484 9.54574 4.64132 8.14226C6.9453 4.3012 11.5699 2.63407 15.3676 3.33426C13.4004 2.29397 10.9331 1.79383 8.36569 1.64046L7.96225 1.62045C7.5488 2.00056 7.12868 2.42734 6.66855 2.94749Z" fill="#DEC21C"/>
<path d="M17.8883 4.22117C17.1035 3.78675 16.2515 3.48696 15.3676 3.33426C17.955 4.69464 19.6721 7.00194 19.6721 10.6496C19.6572 12.1894 19.255 13.7007 18.5028 15.0443C17.7506 16.3879 16.6724 17.5207 15.3676 18.3384C16.942 17.3841 18.3433 16.1699 19.5121 14.7474C20.9712 13.0554 22.1253 11.1228 22.923 9.03584C21.6752 7.03404 19.9439 5.37833 17.8883 4.22117Z" fill="#E5CB22"/>
<path d="M15.3676 3.33426C11.5699 2.63407 6.94529 4.3012 4.64131 8.1256C3.82141 9.53088 3.34109 11.1083 3.23863 12.732C3.13617 14.3558 3.4144 15.981 4.05115 17.4782C4.40645 18.3237 4.88758 19.1106 5.47821 19.8122C6.72748 19.9989 7.9895 20.0869 9.25259 20.0756C11.416 20.0999 13.5401 19.4965 15.3676 18.3384C16.6727 17.521 17.751 16.3882 18.5032 15.0446C19.2555 13.7009 19.6575 12.1895 19.6722 10.6496C19.6722 7.00195 17.955 4.69464 15.3676 3.33426ZM14.9408 16.6046C13.5363 17.5068 11.8316 17.8161 10.1996 17.465C8.56758 17.1138 7.14099 16.1308 6.23176 14.7308C4.34456 11.82 5.27816 8.06224 8.10894 6.06169C11.2765 3.81106 15.3376 4.69798 16.818 7.93554C18.2618 11.0898 17.865 14.7341 14.9408 16.6046Z" fill="#CCA727"/>
</g>
<defs>
<clipPath id="clip0">
<rect width="24" height="24" fill="white"/>
</clipPath>
</defs>
</svg>
