<svg width="24" height="24" viewBox="0 0 24 24" fill="none" xmlns="http://www.w3.org/2000/svg">
<path d="M12 24C18.6274 24 24 18.6274 24 12C24 5.37258 18.6274 0 12 0C5.37258 0 0 5.37258 0 12C0 18.6274 5.37258 24 12 24Z" fill="#96B73D"/>
<path d="M8.69549 12.0788C8.75999 12.2723 8.85524 12.4538 8.97824 12.6173L7.10849 10.7288C6.91365 10.5323 6.80434 10.2667 6.80434 9.99001C6.80434 9.71329 6.91365 9.44777 7.10849 9.25126L9.46724 6.89101C9.51599 6.85501 9.56249 6.81601 9.60749 6.77551L9.67574 6.71551L11.586 4.80376C11.6821 4.70729 11.7963 4.63077 11.9221 4.57864C12.0478 4.5265 12.1827 4.49976 12.3188 4.49997C12.455 4.50018 12.5898 4.52733 12.7154 4.57985C12.841 4.63238 12.955 4.70924 13.0507 4.80601L19.308 11.1083C19.4506 11.3109 19.5174 11.5573 19.4967 11.8042C19.476 12.0511 19.3691 12.2829 19.1947 12.459C19.0226 12.6326 18.7961 12.7418 18.5531 12.7684C18.3101 12.7951 18.0654 12.7375 17.8597 12.6053L12.3322 7.02526L12.3262 7.01776L12.3082 6.99826L9.35099 9.95626L9.30599 9.99376C9.30428 9.99579 9.30252 9.9978 9.30074 9.99976L12.2227 12.945C12.3514 13.075 12.4438 13.2364 12.4909 13.4131C12.5379 13.5899 12.5379 13.7759 12.4909 13.9526C12.444 14.1294 12.3516 14.2908 12.223 14.4208C12.0943 14.5509 11.934 14.6451 11.7577 14.694C11.5816 14.7415 11.396 14.7414 11.2198 14.6939C11.0437 14.6463 10.8833 14.5529 10.755 14.4233L9.25799 12.9158C9.23624 12.8963 9.21449 12.8708 9.18749 12.8438L9.11849 12.7748C9.06832 12.7183 9.02149 12.6589 8.97824 12.597L9.01199 12.6368L8.98949 12.6075C8.86385 12.4481 8.76459 12.2696 8.69549 12.0788ZM14.805 14.0085L11.8792 11.0618C11.6844 10.8653 11.5751 10.5997 11.5751 10.323C11.5751 10.0463 11.6844 9.78077 11.8792 9.58426C11.9755 9.48768 12.0899 9.4111 12.2159 9.35893C12.3419 9.30677 12.477 9.28006 12.6134 9.28034C12.7497 9.28062 12.8847 9.30788 13.0105 9.36056C13.1363 9.41324 13.2504 9.49028 13.3462 9.58726L14.844 11.0948C14.865 11.1135 14.8867 11.1398 14.9145 11.166L14.9827 11.235C15.0217 11.2785 15.0577 11.325 15.0907 11.3723L15.1072 11.3925C15.0862 11.3624 15.0647 11.3327 15.0427 11.3033L17.0002 13.2735C17.1953 13.4702 17.3048 13.736 17.3048 14.013C17.3048 14.29 17.1953 14.5558 17.0002 14.7525L14.64 17.1135C14.5906 17.1488 14.543 17.1866 14.4975 17.2268L12.5295 19.1948C12.4335 19.2915 12.3194 19.3683 12.1936 19.4207C12.0679 19.4731 11.933 19.5001 11.7967 19.5001C11.6605 19.5001 11.5256 19.4731 11.3998 19.4207C11.2741 19.3683 11.1599 19.2915 11.064 19.1948L4.70624 12.7845C4.55133 12.5743 4.47978 12.3142 4.5054 12.0544C4.53103 11.7945 4.65201 11.5534 4.84499 11.3775C5.03735 11.2025 5.28842 11.1062 5.54845 11.1076C5.80848 11.109 6.0585 11.208 6.24899 11.385L11.787 16.9763L11.8057 16.9988L14.757 14.0483L14.8005 14.013C14.802 14.0115 14.8035 14.01 14.805 14.0085Z" fill="white"/>
</svg>
