<svg width="24" height="24" viewBox="0 0 24 24" fill="none" xmlns="http://www.w3.org/2000/svg">
<path d="M7.45116 5.44046V7.04511C7.45116 8.06372 6.62791 8.88 5.61628 8.88H2.06512C0.927907 8.87302 0 9.8079 0 10.9451V13.973C0 15.1102 0.927907 16.0381 2.06512 16.0381H5.61628C6.63488 16.0381 7.45116 16.8684 7.45116 17.873V21.4242C7.45116 22.5614 8.37907 23.4893 9.51628 23.4893H12.5442C13.6814 23.4893 14.6093 22.5614 14.6093 21.4242V17.873C14.6093 16.8544 15.4326 16.0381 16.4442 16.0381H18.0488C12.2163 16.0381 7.45116 11.273 7.45116 5.44046Z" fill="black"/>
<path d="M22.0605 13.973V10.9451C22.0605 9.8079 21.1326 8.88 19.9954 8.88H16.4442C15.4256 8.88 14.6093 8.05674 14.6093 7.04511V3.49395C14.6093 2.35674 13.6814 1.42883 12.5442 1.42883H9.51629C8.37908 1.42883 7.45117 2.35674 7.45117 3.49395V5.44046C7.45117 11.273 12.2233 16.0381 18.0488 16.0381H19.9954C21.1326 16.0381 22.0605 15.1102 22.0605 13.973Z" fill="#DB0029"/>
<path d="M16.7651 6.20791C16.7651 6.20791 16.0744 -0.999069 24 0.759071C23.8535 2.88 24.0488 8.09861 16.7651 6.20791Z" fill="#DB0029"/>
</svg>
