<svg width="24" height="24" viewBox="0 0 24 24" fill="none" xmlns="http://www.w3.org/2000/svg">
<path d="M9.60724 21.6689C4.26558 20.345 1.00835 14.9417 2.33228 9.6C3.22095 6.0139 6.02115 3.2137 9.60724 2.32504V0.241814C3.11455 1.56212 -1.07729 7.89521 0.243012 14.3879C1.20301 19.1057 4.88946 22.7934 9.60724 23.7521V21.6689ZM11.2274 2.0663C11.4861 2.04574 11.7461 2.03244 12.0085 2.03244C12.4014 2.03244 12.7943 2.05542 13.1849 2.10136V0.0592443C12.7931 0.0205542 12.4014 0.00120907 12.0085 0C11.7425 0 11.4861 0.0120907 11.2274 0.0278086V2.0663Z" fill="#231F20"/>
<path d="M14.8039 0.331299V2.43024C17.7008 3.28142 20.0573 5.39488 21.2168 8.18299H18.934C16.8278 4.35991 12.0218 2.96707 8.19752 5.07326C4.37324 7.17946 2.9816 11.9855 5.08779 15.8098C7.19399 19.6341 12 21.0257 15.8243 18.9195C17.3985 18.0526 18.6294 16.6755 19.3161 15.0154H21.5081C20.4998 18.1759 17.9886 20.6303 14.8051 21.565V23.6627C21.2458 22.1115 25.2103 15.6333 23.6603 9.19256C22.606 4.81211 19.1855 1.39286 14.8051 0.337344L14.8039 0.331299ZM13.8705 17.1337L11.5587 13.8511H7.71026V11.8344H12.2285C13.3324 11.8344 13.729 11.1428 13.729 10.3194C13.729 9.49604 13.2297 8.744 12.1101 8.744H7.71147V6.86027H12.341C13.8076 6.86027 16.1387 7.50833 16.1387 10.2457C16.1387 12.983 14.0784 13.5283 14.0784 13.5283L16.7287 17.1349H13.8789L13.8705 17.1337Z" fill="#D31F26"/>
<path d="M13.1849 21.8926C12.7944 21.9386 12.4014 21.9615 12.0085 21.9615C11.7425 21.9615 11.4862 21.9482 11.2274 21.9277V23.9637C11.4862 23.9807 11.7461 23.9915 12.0085 23.9915C12.4087 23.9915 12.798 23.971 13.1849 23.9323V21.8926Z" fill="#231F20"/>
</svg>
