<svg width="24" height="24" viewBox="0 0 24 24" fill="none" xmlns="http://www.w3.org/2000/svg">
<path d="M12 24C18.6274 24 24 18.6274 24 12C24 5.37258 18.6274 0 12 0C5.37258 0 0 5.37258 0 12C0 18.6274 5.37258 24 12 24Z" fill="#0E0E21"/>
<path d="M18.7 14.8L17.275 12.375C17.225 12.275 17.1 12.25 17.025 12.325L16.1 12.925C16.025 12.975 16 13.1 16.05 13.175L16.875 14.55C16.9 14.6 16.875 14.65 16.85 14.675L12.05 17.775C12.025 17.8 11.975 17.8 11.95 17.775L7.19998 14.675C7.14998 14.65 7.14998 14.6 7.17498 14.55L7.99998 13.175C8.04998 13.1 8.02498 12.975 7.94998 12.925L7.02498 12.325C6.92498 12.275 6.82498 12.3 6.77498 12.375L5.34998 14.8C5.24998 14.975 5.29998 15.2 5.47498 15.3L11.85 19.45C11.975 19.525 12.125 19.525 12.25 19.45L18.625 15.3C18.75 15.175 18.8 14.95 18.7 14.8Z" fill="white"/>
<path d="M7.725 11.025L8.65 11.625C8.75 11.675 8.85 11.65 8.9 11.575L11.9 6.475C11.925 6.425 12.025 6.425 12.05 6.475L15.05 11.575C15.1 11.675 15.225 11.7 15.3 11.625L16.225 11.025C16.3 10.975 16.325 10.85 16.275 10.775L12.75 4.675C12.675 4.55 12.575 4.5 12.425 4.5H11.575C11.45 4.5 11.325 4.575 11.25 4.675L7.675 10.775C7.625 10.85 7.65 10.975 7.725 11.025Z" fill="#2AE7A8"/>
</svg>
