<svg width="24" height="24" viewBox="0 0 24 24" fill="none" xmlns="http://www.w3.org/2000/svg">
<path fill-rule="evenodd" clip-rule="evenodd" d="M8.50766 10.8816C8.35668 8.46609 5.21121 8.96412 5.21121 8.96412L4.65634 10.15H6.29915C6.29915 10.15 7.21296 10.3426 7.14772 11.0747C7.06338 12.0212 6.01628 11.9342 6.01628 11.9342H3.94918L3.44873 13.1418H5.82039L6.56022 15.0784H8.19217L7.21301 12.9242C7.21301 12.9242 8.61375 12.5788 8.50766 10.8816Z" fill="black"/>
<path fill-rule="evenodd" clip-rule="evenodd" d="M19.5946 15.0784H17.9626L17.2229 13.1418H14.8512L15.3516 11.9342H17.4187C17.4187 11.9342 18.4659 12.0212 18.5502 11.0747C18.6154 10.3426 17.7016 10.15 17.7016 10.15H16.0588L16.6136 8.96411C16.6136 8.96411 19.7592 8.46608 19.9101 10.8816C20.0162 12.5788 18.6154 12.9242 18.6154 12.9242L19.5946 15.0784ZM11.4561 15.0571L8.94287 8.94287H10.379L12.1415 13.2403L13.9257 8.94287H15.3726L12.8704 15.0571H11.4561ZM8.19223 15.0784H6.56028L5.82045 13.1418H3.44879L3.94924 11.9342H6.01634C6.01634 11.9342 7.06344 12.0212 7.14777 11.0747C7.21301 10.3426 6.29921 10.15 6.29921 10.15H4.65639L5.21127 8.96411C5.21127 8.96411 8.35673 8.46608 8.50772 10.8816C8.6138 12.5788 7.21307 12.9242 7.21307 12.9242L8.19223 15.0784ZM12 0C5.37256 0 0 5.37256 0 12C0 18.6274 5.37256 24 12 24C18.6274 24 24 18.6274 24 12C24 5.37256 18.6274 0 12 0Z" fill="#EFC40F"/>
<path fill-rule="evenodd" clip-rule="evenodd" d="M13.9257 8.94287L12.1415 13.2403L10.379 8.94287H8.94287L11.4561 15.0571H12.8704L15.3726 8.94287H13.9257Z" fill="black"/>
<path fill-rule="evenodd" clip-rule="evenodd" d="M19.9101 10.8816C19.7592 8.46609 16.6137 8.96412 16.6137 8.96412L16.0588 10.15H17.7016C17.7016 10.15 18.6154 10.3426 18.5502 11.0747C18.4659 12.0212 17.4187 11.9342 17.4187 11.9342H15.3516L14.8512 13.1418H17.2229L17.9627 15.0784H19.5946L18.6155 12.9242C18.6155 12.9242 20.0162 12.5788 19.9101 10.8816Z" fill="black"/>
</svg>
