<svg width="24" height="24" viewBox="0 0 24 24" fill="none" xmlns="http://www.w3.org/2000/svg">
<path d="M12 24C18.6274 24 24 18.6274 24 12C24 5.37258 18.6274 0 12 0C5.37258 0 0 5.37258 0 12C0 18.6274 5.37258 24 12 24Z" fill="#2DC4E7"/>
<path d="M3.86625 6.77701C4.6695 6.77701 5.49975 6.72301 6.30375 6.79501C6.66075 7.19626 6.741 7.75876 7.01775 8.22301C10.6252 8.24101 14.25 8.22301 17.8575 8.22301C18.1252 8.24101 18.4552 8.25001 18.5895 8.51776C18.75 8.81251 18.6345 9.16051 18.4822 9.42826C17.7502 10.6695 17.0535 11.9288 16.3395 13.1783C16.0717 13.6253 15.8925 14.1248 15.4912 14.4735C15.1612 14.7503 14.7052 14.7675 14.286 14.7675H9.285C9.01725 14.7675 8.7315 14.7413 8.571 14.5268C8.0535 13.9463 7.776 13.2053 7.437 12.5265C6.84993 11.3512 6.27539 10.1696 5.7135 8.98201C5.59725 8.71426 5.45475 8.47351 5.3205 8.22301C4.848 8.22301 4.374 8.22301 3.9105 8.20501C3.8205 7.73251 3.8205 7.25026 3.8655 6.77701H3.86625ZM9.50025 15.732C9.86356 15.6457 10.2413 15.6395 10.6072 15.714C11.0175 15.804 11.3752 16.116 11.4735 16.527C11.58 16.9995 11.58 17.5095 11.3925 17.964C11.214 18.375 10.7677 18.5715 10.3485 18.6075C9.86625 18.6428 9.31275 18.6075 8.955 18.2498C8.57175 17.8215 8.57175 17.1968 8.652 16.6605C8.70525 16.2143 9.06225 15.8303 9.4995 15.732H9.50025ZM13.9642 15.732C14.4105 15.6345 14.8927 15.6428 15.3217 15.8033C15.732 15.9735 15.9465 16.4198 15.9817 16.839C16.0357 17.3303 15.9817 17.8928 15.6247 18.2678C15.2947 18.5805 14.8125 18.6248 14.3752 18.6158C13.9462 18.5985 13.4827 18.4373 13.2592 18.036C13.0463 17.6008 12.9893 17.1057 13.098 16.6335C13.188 16.1963 13.527 15.831 13.9642 15.732Z" fill="white"/>
</svg>
