<svg width="24" height="24" viewBox="0 0 24 24" fill="none" xmlns="http://www.w3.org/2000/svg">
<path d="M12 24C18.6274 24 24 18.6274 24 12C24 5.37258 18.6274 0 12 0C5.37258 0 0 5.37258 0 12C0 18.6274 5.37258 24 12 24Z" fill="#E53431"/>
<path d="M9.08778 3.98551C9.11996 3.96066 9.15962 3.94745 9.20028 3.94801C9.24085 3.94801 9.28032 3.96117 9.31278 3.98551L10.2555 4.69201C10.2752 4.70684 10.2918 4.72539 10.3043 4.74663C10.3169 4.76786 10.3251 4.79135 10.3285 4.81576C10.332 4.84017 10.3306 4.86502 10.3244 4.88889C10.3183 4.91276 10.3075 4.93519 10.2927 4.95489C10.2778 4.97459 10.2593 4.99117 10.238 5.0037C10.2168 5.01623 10.1933 5.02445 10.1689 5.02789C10.1445 5.03134 10.1196 5.02995 10.0958 5.02379C10.0719 5.01763 10.0495 5.00684 10.0298 4.99201L9.20028 4.37176L6.50253 6.39451L18.3525 15.285C18.376 15.3026 18.395 15.3254 18.4081 15.3517C18.4212 15.3779 18.428 15.4068 18.428 15.4361C18.428 15.4655 18.4212 15.4944 18.4081 15.5206C18.395 15.5468 18.376 15.5697 18.3525 15.5873L17.4818 16.2398C17.4418 16.2696 17.3916 16.2823 17.3422 16.2752C17.2929 16.268 17.2484 16.2415 17.2185 16.2015C17.1887 16.1615 17.176 16.1113 17.1831 16.062C17.1903 16.0126 17.2168 15.9681 17.2568 15.9383L17.9265 15.4358L6.07578 6.54676C6.05222 6.52949 6.03306 6.50691 6.01985 6.48084C6.00664 6.45478 5.99976 6.42598 5.99976 6.39676C5.99976 6.36755 6.00664 6.33874 6.01985 6.31268C6.03306 6.28662 6.05222 6.26404 6.07578 6.24676L9.08778 3.98626V3.98551ZM12.1005 3.98551C12.1327 3.9606 12.1721 3.94696 12.2128 3.94669C12.2534 3.94642 12.2931 3.95953 12.3255 3.98401L18.3518 8.50426C18.3835 8.52768 18.4068 8.56063 18.4184 8.59829C18.43 8.63594 18.4293 8.67632 18.4163 8.71351C18.4041 8.75104 18.3803 8.78373 18.3484 8.8069C18.3164 8.83008 18.278 8.84255 18.2385 8.84251H15.2258C15.1853 8.84225 15.1459 8.82912 15.1133 8.80501L11.1585 5.83951C11.1387 5.82469 11.122 5.80611 11.1094 5.78484C11.0968 5.76357 11.0885 5.74002 11.085 5.71554C11.0815 5.69107 11.0828 5.66613 11.0889 5.64217C11.0951 5.61821 11.1058 5.59569 11.1207 5.57589C11.1355 5.55609 11.1541 5.53941 11.1753 5.52679C11.1966 5.51417 11.2201 5.50587 11.2446 5.50235C11.2691 5.49884 11.294 5.50017 11.318 5.50629C11.342 5.51241 11.3645 5.52319 11.3843 5.53801L15.2895 8.46601H17.6738L12.2138 4.37101L8.43378 7.20601C8.41398 7.22084 8.39146 7.23161 8.3675 7.23773C8.34353 7.24385 8.3186 7.24519 8.29412 7.24167C8.24468 7.23457 8.20009 7.20812 8.17015 7.16814C8.14022 7.12816 8.12739 7.07792 8.13449 7.02848C8.14159 6.97904 8.16805 6.93445 8.20803 6.90451L12.1005 3.98551ZM6.90753 7.88176C6.9477 7.85749 6.99547 7.84903 7.04153 7.85804C7.0876 7.86705 7.12867 7.89287 7.15674 7.93049C7.18481 7.96811 7.19788 8.01482 7.19341 8.06155C7.18893 8.10827 7.16723 8.15166 7.13253 8.18326L6.50178 8.65576L18.3525 17.5463C18.3761 17.5637 18.3953 17.5864 18.4085 17.6126C18.4217 17.6388 18.4285 17.6677 18.4285 17.697C18.4285 17.7263 18.4217 17.7552 18.4085 17.7814C18.3953 17.8076 18.3761 17.8303 18.3525 17.8478L15.3398 20.1075C15.3072 20.1315 15.2678 20.1445 15.2273 20.1445C15.1868 20.1445 15.1474 20.1315 15.1148 20.1075L14.2425 19.4535C14.2025 19.4234 14.1762 19.3786 14.1692 19.329C14.1622 19.2794 14.1753 19.2291 14.2054 19.1891C14.2355 19.1492 14.2803 19.1228 14.3299 19.1158C14.3795 19.1089 14.4298 19.1219 14.4698 19.152L15.2273 19.7198L17.9273 17.6948L6.07353 8.80651C6.05036 8.7888 6.03158 8.76599 6.01866 8.73984C6.00574 8.7137 5.99901 8.68493 5.99901 8.65576C5.99901 8.6266 6.00574 8.59783 6.01866 8.57168C6.03158 8.54554 6.05036 8.52273 6.07353 8.50501L6.90603 7.88251L6.90753 7.88176ZM6.18828 15.246V15.2475H9.19953C9.24019 15.2469 9.27984 15.2602 9.31203 15.285L13.224 18.2183C13.2438 18.233 13.2605 18.2516 13.2732 18.2728C13.2858 18.294 13.2941 18.3175 13.2977 18.342C13.3012 18.3664 13.2999 18.3913 13.2939 18.4153C13.2878 18.4392 13.2771 18.4617 13.2623 18.4815C13.2475 18.5013 13.229 18.518 13.2078 18.5306C13.1865 18.5433 13.163 18.5516 13.1386 18.5552C13.1141 18.5587 13.0892 18.5574 13.0653 18.5513C13.0413 18.5453 13.0188 18.5345 12.999 18.5198L9.13953 15.624H6.75378L12.2145 19.719L15.987 16.89C16.0068 16.8751 16.0294 16.8643 16.0533 16.8581C16.0773 16.852 16.1023 16.8506 16.1268 16.8541C16.1513 16.8576 16.1749 16.8658 16.1962 16.8784C16.2175 16.891 16.2362 16.9077 16.251 16.9275C16.2659 16.9473 16.2767 16.9698 16.2829 16.9938C16.2891 17.0178 16.2904 17.0428 16.287 17.0673C16.2835 17.0918 16.2752 17.1154 16.2626 17.1367C16.25 17.158 16.2333 17.1766 16.2135 17.1915L12.3278 20.1045C12.2953 20.1289 12.2558 20.142 12.2153 20.142C12.1744 20.1424 12.1346 20.1292 12.102 20.1045L6.07428 15.5858C6.04461 15.5854 6.01545 15.578 5.98917 15.5643C5.9629 15.5505 5.94024 15.5307 5.92307 15.5065C5.90589 15.4823 5.89467 15.4544 5.89033 15.4251C5.88599 15.3957 5.88865 15.3658 5.89808 15.3376C5.90752 15.3095 5.92347 15.284 5.94464 15.2632C5.9658 15.2424 5.99158 15.2269 6.01987 15.218C6.04816 15.2091 6.07817 15.207 6.10743 15.2118C6.1367 15.2167 6.1644 15.2284 6.18828 15.246Z" fill="white"/>
</svg>
