<svg width="24" height="24" viewBox="0 0 24 24" fill="none" xmlns="http://www.w3.org/2000/svg">
<path d="M0 0H24V24H0V0Z" fill="#EFD96F"/>
<path d="M17.0759 8.784C14.3399 8.784 12.0839 10.98 10.0439 12.804C9.45594 12.288 8.79594 11.652 8.29194 11.052C8.24394 10.992 8.17194 10.98 8.13594 11.004C8.08794 11.04 8.07594 11.112 8.12394 11.16C8.59194 11.736 9.21594 12.432 9.80394 13.02C8.71194 14.052 7.04394 15.3 5.69994 15.3C2.98794 15.3 2.97594 11.544 5.35194 10.836C5.45994 10.812 5.45994 10.68 5.35194 10.716C2.24394 11.484 2.41194 15.864 5.75994 15.864C7.35594 15.864 8.81994 14.796 10.2959 13.536C11.8919 14.976 13.9079 16.152 16.4999 16.152C23.0759 16.152 22.8839 8.784 17.0759 8.784ZM16.4519 15.588C14.3759 15.576 12.3599 14.664 10.5959 13.284C12.5999 11.544 14.6279 9.552 17.0159 9.552C21.6719 9.552 21.7919 15.624 16.4519 15.588Z" fill="#333333"/>
<path d="M6.76798 11.292C7.29818 11.292 7.72798 10.8622 7.72798 10.332C7.72798 9.80182 7.29818 9.37201 6.76798 9.37201C6.23779 9.37201 5.80798 9.80182 5.80798 10.332C5.80798 10.8622 6.23779 11.292 6.76798 11.292Z" fill="#333333"/>
</svg>
