<svg width="24" height="24" viewBox="0 0 24 24" fill="none" xmlns="http://www.w3.org/2000/svg">
<path d="M12 24C18.6274 24 24 18.6274 24 12C24 5.37258 18.6274 0 12 0C5.37258 0 0 5.37258 0 12C0 18.6274 5.37258 24 12 24Z" fill="#5244D4"/>
<path d="M11.775 20.55C6.9285 20.55 3 16.6215 3 11.775C3 6.9285 6.9285 3 11.775 3C16.6215 3 20.55 6.9285 20.55 11.775C20.55 16.6215 16.6215 20.55 11.775 20.55ZM13.9425 14.775L11.775 11.775L9.6075 14.775L7.845 11.775L9.81 8.415H13.74L15.705 11.775L13.9425 14.775ZM14.5875 6.975H8.9625L6.1575 11.775L8.97 16.575H14.5875L17.3925 11.775L14.5875 6.975Z" fill="white"/>
</svg>
