<svg width="24" height="24" viewBox="0 0 24 24" fill="none" xmlns="http://www.w3.org/2000/svg">
<path d="M12 24C18.6274 24 24 18.6274 24 12C24 5.37258 18.6274 0 12 0C5.37258 0 0 5.37258 0 12C0 18.6274 5.37258 24 12 24Z" fill="#00843D"/>
<path d="M12.0045 4.19999C12.3 4.19999 12.5902 4.27724 12.846 4.42499L18.216 7.52549C18.4719 7.67337 18.6845 7.88603 18.8322 8.1421C18.9799 8.39817 19.0576 8.68862 19.0575 8.98424V15.3097C19.0575 15.9112 18.7372 16.467 18.216 16.7677L12.8452 19.869C12.5892 20.0168 12.2989 20.0946 12.0033 20.0946C11.7078 20.0946 11.4174 20.0168 11.1615 19.869L5.78996 16.7677C5.534 16.62 5.32143 16.4074 5.17359 16.1515C5.02576 15.8956 4.94785 15.6053 4.94771 15.3097V8.98424C4.94771 8.38274 5.26871 7.82699 5.78996 7.52549L11.16 4.42499C11.4165 4.27724 11.7075 4.19924 12.0022 4.19924H12.0037L12.0045 4.19999ZM12.003 3.02924C11.5022 3.02953 11.0102 3.16144 10.5765 3.41174L5.20496 6.51149C4.77154 6.7626 4.41162 7.12306 4.16116 7.55686C3.9107 7.99065 3.77848 8.48258 3.77771 8.98349V15.309C3.77848 15.8099 3.9107 16.3018 4.16116 16.7356C4.41162 17.1694 4.77154 17.5299 5.20496 17.781L10.575 20.8815C11.4585 21.3915 12.5467 21.3915 13.4295 20.8815L18.8002 17.781C19.2336 17.5299 19.5936 17.1694 19.844 16.7356C20.0945 16.3018 20.2267 15.8099 20.2275 15.309V8.98349C20.2267 8.48258 20.0945 7.99065 19.844 7.55686C19.5936 7.12306 19.2336 6.7626 18.8002 6.51149L13.4302 3.41024C12.996 3.15969 12.5035 3.02777 12.0022 3.02774L12.003 3.02924Z" fill="white"/>
<path d="M11.3452 13.14C11.2835 13.1401 11.2229 13.1239 11.1694 13.0931C11.116 13.0623 11.0716 13.0179 11.0407 12.9645L10.395 11.8448C10.3642 11.7914 10.348 11.7309 10.348 11.6693C10.348 11.6076 10.3642 11.5471 10.395 11.4938L11.0407 10.374C11.0716 10.3206 11.116 10.2762 11.1694 10.2454C11.2229 10.2146 11.2835 10.1984 11.3452 10.1985H12.6637C12.7253 10.1987 12.7857 10.215 12.839 10.2458C12.8923 10.2766 12.9366 10.3208 12.9675 10.374L13.614 11.4938C13.6448 11.5471 13.661 11.6076 13.661 11.6693C13.661 11.7309 13.6448 11.7914 13.614 11.8448L12.9675 12.9645C12.9367 13.0178 12.8924 13.0621 12.8391 13.0929C12.7858 13.1237 12.7253 13.14 12.6637 13.14H11.3452ZM9.58348 11.3768C9.64516 11.3767 9.70573 11.3605 9.75917 11.3297C9.8126 11.2989 9.85702 11.2546 9.88798 11.2013L10.5337 10.0815C10.5645 10.0281 10.5808 9.96762 10.5808 9.906C10.5808 9.84439 10.5645 9.78386 10.5337 9.7305L9.72823 8.33475L8.15548 9.19275C8.0991 9.22365 8.05229 9.26943 8.02015 9.32511C7.98801 9.38079 7.97178 9.44423 7.97323 9.5085C7.98598 10.137 8.05948 10.7625 8.19148 11.3768H9.58348ZM14.4247 11.3768C14.3632 11.3767 14.3027 11.3605 14.2494 11.3297C14.196 11.2989 14.1518 11.2546 14.121 11.2013L13.4745 10.0815C13.4437 10.0281 13.4275 9.96762 13.4275 9.906C13.4275 9.84439 13.4437 9.78386 13.4745 9.7305L14.28 8.33475L15.852 9.19275C15.9084 9.22349 15.9553 9.26911 15.9876 9.32465C16.0198 9.3802 16.0362 9.44353 16.035 9.50775C16.0222 10.1363 15.9494 10.7621 15.8175 11.3768H14.4247ZM12.1725 7.1835C12.1209 7.15541 12.0632 7.14069 12.0045 7.14069C11.9458 7.14069 11.888 7.15541 11.8365 7.1835L10.242 8.0535L11.0415 9.438C11.0723 9.49133 11.1165 9.53562 11.1699 9.56642C11.2232 9.59723 11.2837 9.61346 11.3452 9.6135H12.6637C12.7253 9.61354 12.7858 9.59733 12.8392 9.56652C12.8925 9.53571 12.9368 9.49138 12.9675 9.438L13.767 8.05425L12.1725 7.18425V7.1835ZM8.33698 11.9618C8.63779 13.0319 9.11839 14.043 9.75823 14.952L10.5345 13.608C10.5653 13.5546 10.5815 13.4941 10.5815 13.4325C10.5815 13.3709 10.5653 13.3104 10.5345 13.257L9.88798 12.1373C9.8572 12.0839 9.81292 12.0396 9.75961 12.0088C9.70629 11.978 9.64581 11.9618 9.58423 11.9618H8.33698ZM15.6705 11.9618C15.3699 13.0318 14.8896 14.043 14.25 14.952L13.4737 13.608C13.4429 13.5546 13.4267 13.4941 13.4267 13.4325C13.4267 13.3709 13.4429 13.3104 13.4737 13.257L14.121 12.1373C14.1518 12.0839 14.196 12.0396 14.2494 12.0088C14.3027 11.978 14.3632 11.9618 14.4247 11.9618H15.6712H15.6705ZM11.3452 13.725C11.2835 13.7249 11.2229 13.7411 11.1694 13.7719C11.116 13.8027 11.0716 13.8471 11.0407 13.9005L10.1407 15.4605C10.6254 16.0627 11.1789 16.6062 11.79 17.0798C11.8516 17.1271 11.9271 17.1528 12.0049 17.1528C12.0826 17.1528 12.1581 17.1271 12.2197 17.0798C12.8306 16.6059 13.3838 16.0622 13.8682 15.4598L12.9682 13.9005C12.9374 13.8472 12.8932 13.8029 12.8399 13.7721C12.7865 13.7413 12.7261 13.725 12.6645 13.725H11.3445H11.3452Z" fill="white"/>
</svg>
