<svg width="24" height="24" viewBox="0 0 24 24" fill="none" xmlns="http://www.w3.org/2000/svg">
<path d="M12 24C18.6274 24 24 18.6274 24 12C24 5.37258 18.6274 0 12 0C5.37258 0 0 5.37258 0 12C0 18.6274 5.37258 24 12 24Z" fill="#374851"/>
<path fill-rule="evenodd" clip-rule="evenodd" d="M13.275 11.55V17.2485C13.428 17.211 13.578 17.1683 13.725 17.1188V19.3013C12.7413 19.5327 11.7209 19.5636 10.725 19.392V11.55H8.1V9.45H15.9V11.55H13.275ZM14.325 19.1325V16.875C15.4307 16.3476 16.3242 15.4598 16.8587 14.3576C17.3933 13.2553 17.5372 12.0041 17.2668 10.8093C16.9964 9.61443 16.3278 8.54705 15.3707 7.78237C14.4137 7.01769 13.225 6.60115 12 6.60115C10.775 6.60115 9.58633 7.01769 8.62926 7.78237C7.67219 8.54705 7.00357 9.61443 6.73318 10.8093C6.46279 12.0041 6.60669 13.2553 7.14127 14.3576C7.67585 15.4598 8.56932 16.3476 9.675 16.875V19.1325C6.67125 18.1538 4.5 15.33 4.5 12C4.5 7.85775 7.85775 4.5 12 4.5C16.1423 4.5 19.5 7.85775 19.5 12C19.5 15.33 17.3288 18.1538 14.325 19.1325Z" fill="white"/>
</svg>
