<svg width="24" height="24" viewBox="0 0 24 24" fill="none" xmlns="http://www.w3.org/2000/svg">
<g clip-path="url(#clip0)">
<mask id="mask0" mask-type="alpha" maskUnits="userSpaceOnUse" x="0" y="0" width="24" height="25">
<path d="M12.4093 24.0002H20.705V20.1266H13.7291L12.4093 24.0002ZM21.2535 24.0002H23.1047V20.1266H21.2535V24.0002ZM14.2004 18.0698H20.705V14.1961H15.5031L14.2004 18.0698ZM21.2535 18.0698H23.1047V14.1961H21.2535V18.0698ZM16.0087 12.2765H20.705V8.40283H17.2599L16.0087 12.2765ZM21.2535 12.2765H23.1047V8.40283H21.2535V12.2765ZM17.9626 0.00424194L10.284 24.0002H7.67873L0 0.00424194H4.7306L8.98135 14.9503L13.232 0.00424194H17.9626Z" fill="white"/>
</mask>
<g mask="url(#mask0)">
<path fill-rule="evenodd" clip-rule="evenodd" d="M12.4093 24.0002H20.705V20.1266H13.7291L12.4093 24.0002ZM21.2535 24.0002H23.1047V20.1266H21.2535V24.0002ZM14.2004 18.0698H20.705V14.1961H15.5031L14.2004 18.0698ZM21.2535 18.0698H23.1047V14.1961H21.2535V18.0698ZM16.0087 12.2765H20.705V8.40283H17.2599L16.0087 12.2765ZM21.2535 12.2765H23.1047V8.40283H21.2535V12.2765ZM17.9626 0.00424194L10.284 24.0002H7.67873L0 0.00424194H4.7306L8.98135 14.9503L13.232 0.00424194H17.9626Z" fill="url(#paint0_linear)"/>
</g>
</g>
<defs>
<linearGradient id="paint0_linear" x1="11.5523" y1="0.00424194" x2="11.5523" y2="24.0002" gradientUnits="userSpaceOnUse">
<stop stop-color="white"/>
<stop offset="1" stop-color="#1D1D1B"/>
</linearGradient>
<clipPath id="clip0">
<rect width="24" height="24" fill="white"/>
</clipPath>
</defs>
</svg>
