<svg width="24" height="24" viewBox="0 0 24 24" fill="none" xmlns="http://www.w3.org/2000/svg">
<path fill-rule="evenodd" clip-rule="evenodd" d="M20.2189 3.44656C20.1498 3.38029 20.0801 3.31529 20.0098 3.25155L11.7235 14.8454L8.5573 10.7655H3.40346L1.95508 12.4315H4.6498L11.0835 20.8295C11.2983 21.0334 11.5116 21.1354 11.7235 21.1354C11.9354 21.1354 12.1375 21.0334 12.3299 20.8295L22.5025 6.61752C22.4436 6.49584 22.3828 6.37533 22.32 6.25599C23.2427 7.962 23.7672 9.91919 23.7672 11.9999C23.7672 18.6269 18.4467 24 11.8835 24C5.32035 24 0 18.6274 0 11.9999C0 5.37244 5.3212 0 11.8838 0C15.1309 0 18.074 1.31514 20.2189 3.44656Z" fill="#048657"/>
<path fill-rule="evenodd" clip-rule="evenodd" d="M1.95508 12.4316L3.40345 10.7656H8.55729L11.7235 14.8455L20.0098 3.25159C20.5033 3.69862 20.9636 4.20875 21.3909 4.78196C21.8194 5.35693 22.1916 5.97171 22.5025 6.61784L12.3299 20.8295C12.1376 21.0335 11.9355 21.1354 11.7235 21.1354C11.5115 21.1354 11.2982 21.0335 11.0835 20.8295L4.64979 12.4316H1.95508Z" fill="white"/>
</svg>
