<svg width="24" height="24" viewBox="0 0 24 24" fill="none" xmlns="http://www.w3.org/2000/svg">
<path d="M12 24C18.6274 24 24 18.6274 24 12C24 5.37258 18.6274 0 12 0C5.37258 0 0 5.37258 0 12C0 18.6274 5.37258 24 12 24Z" fill="#56F4F1"/>
<path d="M4.5 6.762C4.5 6.75075 4.6575 6.75 6.6885 6.7515L8.87775 6.75375L10.1227 8.8485L11.3888 10.9792L11.4097 11.0145L11.6077 10.677C11.7158 10.491 11.8043 10.3357 11.8028 10.3312C11.8013 10.3267 11.325 9.52275 10.7452 8.54625C10.1655 7.56975 9.69075 6.7665 9.69075 6.76125C9.69075 6.7515 10.02 6.75 11.9955 6.75C13.275 6.75 14.2995 6.753 14.2995 6.7575C14.2995 6.7725 9.41325 15.0803 9.402 15.0825C9.39375 15.084 8.679 13.8765 6.945 10.9297C5.60025 8.6445 4.5 6.7695 4.5 6.762ZM15.105 6.75525C15.105 6.75225 16.095 6.75 17.3032 6.75H19.5L19.497 6.7665C19.4948 6.77625 18.3998 8.64225 17.064 10.9132C15.4448 13.6635 14.6295 15.0428 14.619 15.0443C14.6093 15.0457 14.3797 14.664 13.6102 13.3688C13.0612 12.4463 12.6105 11.6888 12.6075 11.6873C12.6015 11.6835 12.2078 12.3518 12.2108 12.3608C12.2115 12.3645 12.6637 13.1257 13.2142 14.0527C13.5526 14.6156 13.8851 15.1818 14.2118 15.7515C14.205 15.7778 12.0097 19.4978 12.0007 19.5C11.9865 19.503 9.804 15.795 9.8085 15.7762C9.81225 15.768 15.024 6.88875 15.1042 6.75525H15.105Z" fill="white"/>
</svg>
