<svg width="24" height="24" viewBox="0 0 24 24" fill="none" xmlns="http://www.w3.org/2000/svg">
<path d="M12 24C18.6274 24 24 18.6274 24 12C24 5.37258 18.6274 0 12 0C5.37258 0 0 5.37258 0 12C0 18.6274 5.37258 24 12 24Z" fill="#1EB5FA"/>
<path d="M19.8038 5.36323L17.0813 6.57073C17.0018 6.61417 16.9356 6.67817 16.8894 6.75602C16.8432 6.83387 16.8188 6.92271 16.8188 7.01323V16.7482C16.8185 16.8397 16.8435 16.9295 16.8912 17.0076C16.9389 17.0858 17.0073 17.1491 17.0888 17.1907L19.8113 18.3682C19.8501 18.3894 19.8937 18.4001 19.9379 18.3992C19.9821 18.3983 20.0253 18.3859 20.0632 18.3631C20.1011 18.3404 20.1324 18.3081 20.154 18.2695C20.1756 18.231 20.1867 18.1874 20.1863 18.1432V5.58823C20.1848 5.54396 20.1722 5.50076 20.1496 5.46267C20.127 5.42458 20.0952 5.39282 20.057 5.37037C20.0188 5.34791 19.9756 5.33548 19.9313 5.33423C19.887 5.33298 19.8431 5.34296 19.8038 5.36323ZM6.76501 6.55573L4.12501 5.35573C4.08622 5.33454 4.04256 5.32386 3.99836 5.32476C3.95417 5.32565 3.91098 5.33809 3.87308 5.36083C3.83517 5.38357 3.80387 5.41583 3.78229 5.45441C3.7607 5.49298 3.74957 5.53653 3.75001 5.58073V18.1357C3.75004 18.1812 3.76222 18.2259 3.78528 18.2651C3.80834 18.3044 3.84145 18.3367 3.88119 18.3589C3.92094 18.3811 3.96588 18.3922 4.01138 18.3912C4.05687 18.3902 4.10128 18.3771 4.14001 18.3532L6.79501 16.9507C6.86834 16.9061 6.92894 16.8433 6.97097 16.7684C7.01301 16.6935 7.03506 16.6091 7.03501 16.5232V6.99823C7.03215 6.90741 7.00576 6.81889 6.95843 6.74133C6.91111 6.66377 6.84446 6.59982 6.76501 6.55573ZM15.045 9.87823L12.2025 8.25073C12.1262 8.20648 12.0395 8.18317 11.9513 8.18317C11.863 8.18317 11.7764 8.20648 11.7 8.25073L8.80501 9.86323C8.72756 9.90829 8.66327 9.97285 8.61853 10.0505C8.57379 10.1281 8.55017 10.2161 8.55001 10.3057V13.6057C8.55001 13.788 8.64751 13.9567 8.80501 14.0482L11.7 15.7132C11.8553 15.8032 12.0473 15.8032 12.2025 15.7132L15.045 14.0632C15.1225 14.0182 15.1868 13.9536 15.2315 13.876C15.2762 13.7983 15.2999 13.7103 15.3 13.6207V10.3207C15.3008 10.2309 15.2775 10.1426 15.2327 10.0648C15.1879 9.98699 15.1231 9.92258 15.045 9.87823Z" fill="white"/>
</svg>
