<svg width="24" height="24" viewBox="0 0 24 24" fill="none" xmlns="http://www.w3.org/2000/svg">
<path d="M20.6126 4.6563L17.7228 6.12863L3.76815 13.2364C3.72096 12.8765 3.69722 12.514 3.69707 12.151C3.69898 10.7027 4.07922 9.28005 4.80012 8.02394C5.52103 6.76784 6.55758 5.72186 7.80712 4.98962C9.05665 4.25739 10.4758 3.8643 11.924 3.84929C13.3722 3.83428 14.7992 4.19788 16.0636 4.90406L17.7177 4.06128L17.9645 3.93537C16.4492 2.83558 14.6594 2.17615 12.7928 2.02996C10.9262 1.88378 9.05555 2.25653 7.38756 3.10702C5.71957 3.95751 4.31921 5.25262 3.34125 6.84922C2.36329 8.44581 1.8458 10.2817 1.846 12.154C1.846 12.4126 1.85581 12.6702 1.87544 12.9267C1.90294 13.2901 1.82236 13.6534 1.64385 13.971C1.46534 14.2887 1.19687 14.5464 0.872229 14.7118L0 15.1566V17.231L2.56795 15.9222L3.39956 15.4977L4.21899 15.0804L18.9301 7.58472L20.5832 6.74295L24 5.00154V2.92809L20.6126 4.6563Z" fill="black"/>
<path d="M24 7.07703L5.05466 16.7233L3.40159 17.5671L0 19.3004V21.3728L3.37824 19.6517L6.26807 18.1794L20.2369 11.0615C20.2841 11.4237 20.3079 11.7887 20.308 12.154C20.3071 13.604 19.927 15.0285 19.2054 16.2861C18.4838 17.5437 17.4458 18.5908 16.1944 19.3232C14.9431 20.0557 13.5219 20.4481 12.0721 20.4616C10.6222 20.4751 9.19397 20.109 7.92926 19.3999L7.82772 19.4537L6.03452 20.3676C7.54942 21.4674 9.33888 22.127 11.2052 22.2736C13.0715 22.4201 14.942 22.0479 16.6099 21.198C18.2779 20.348 19.6785 19.0536 20.6569 17.4575C21.6353 15.8615 22.1534 14.0261 22.154 12.154C22.154 11.8931 22.1438 11.6321 22.1246 11.3742C22.0971 11.011 22.1776 10.6478 22.3559 10.3302C22.5342 10.0126 22.8024 9.75479 23.1268 9.58913L24 9.14438V7.07703Z" fill="black"/>
</svg>
