<svg width="24" height="24" viewBox="0 0 24 24" fill="none" xmlns="http://www.w3.org/2000/svg">
<path d="M12 24C18.6274 24 24 18.6274 24 12C24 5.37258 18.6274 0 12 0C5.37258 0 0 5.37258 0 12C0 18.6274 5.37258 24 12 24Z" fill="#4FA784"/>
<path fill-rule="evenodd" clip-rule="evenodd" d="M19.1812 9.6345L13.0987 7.8915L11.0182 11.4352L8.60174 8.6325L9.69674 8.4915L10.8255 9.8175L12.078 7.59825L6.56549 6.018C6.49143 5.99605 6.41289 5.994 6.33779 6.01207C6.26269 6.03014 6.19368 6.06768 6.13771 6.12091C6.08174 6.17415 6.04079 6.24119 6.01898 6.31529C5.99717 6.38939 5.99528 6.46793 6.01349 6.543L8.45549 16.35L11.0782 11.934L13.4947 14.7367L12.3997 14.8777L11.2717 13.5517L8.78924 17.6895L9.15674 19.167C9.17586 19.2419 9.21428 19.3105 9.26818 19.366C9.32208 19.4215 9.38958 19.4618 9.46393 19.4831C9.53829 19.5043 9.61692 19.5057 9.69198 19.4871C9.76704 19.4685 9.83592 19.4305 9.89174 19.377L19.3642 10.3695C19.4202 10.3165 19.461 10.2496 19.4826 10.1757C19.5042 10.1017 19.5058 10.0234 19.4872 9.9486C19.4686 9.87384 19.4304 9.80537 19.3767 9.75018C19.3229 9.69499 19.2555 9.65507 19.1812 9.6345Z" fill="white"/>
</svg>
