<svg width="24" height="24" viewBox="0 0 24 24" fill="none" xmlns="http://www.w3.org/2000/svg">
<path d="M12 24C18.6274 24 24 18.6274 24 12C24 5.37258 18.6274 0 12 0C5.37258 0 0 5.37258 0 12C0 18.6274 5.37258 24 12 24Z" fill="#FFD81B"/>
<path d="M18 11.6715C18 14.9888 15.4305 16.1168 13.2675 16.1168V16.9815H14.9363V18.153H13.2682V19.5H10.6583V18.153H9.063V16.9815H10.6552V16.1055C9.963 16.1055 6 15.9412 6 11.4307V6H8.59125V11.6385C8.59125 13.9927 10.6657 13.971 10.6657 13.971V6H13.2682V13.971C13.2682 13.971 15.4088 14.091 15.4088 11.6063V6H18V11.6715Z" fill="white"/>
</svg>
