<svg width="24" height="24" viewBox="0 0 24 24" fill="none" xmlns="http://www.w3.org/2000/svg">
<path fill-rule="evenodd" clip-rule="evenodd" d="M16.0004 -6.10352e-05H7.99959C3.59991 -6.10352e-05 0 3.55715 0 7.90465V16.0952C0 20.4421 3.59991 23.9999 7.99959 23.9999H16.0004C20.4007 23.9999 24 20.4427 24 16.0952V7.90465C24 3.55715 20.4007 -6.10352e-05 16.0004 -6.10352e-05Z" fill="#00569D"/>
<path fill-rule="evenodd" clip-rule="evenodd" d="M15.9449 15.1643C15.8615 15.2597 15.7751 15.3527 15.6863 15.4421C15.0239 16.1039 14.1845 16.5881 13.2449 16.8179L13.2359 16.8197L13.2437 16.8179C13.1969 16.8263 13.1477 16.8317 13.0979 16.8317C12.6749 16.8317 12.3329 16.4885 12.3329 16.0661C12.3329 15.7283 12.5513 15.4421 12.8543 15.3395L12.8417 15.3431C13.5215 15.1859 14.1293 14.8385 14.6063 14.3615C14.6741 14.2943 14.7401 14.2229 14.8019 14.1497C14.9411 14.0129 15.1307 13.9271 15.3419 13.9271C15.7649 13.9271 16.1069 14.2703 16.1069 14.6927C16.1069 14.8703 16.0463 15.0347 15.9449 15.1643Z" fill="white"/>
<path fill-rule="evenodd" clip-rule="evenodd" d="M17.1515 12.5484C17.1011 12.8826 16.7315 13.1064 16.4105 13.1064C16.0115 13.1064 15.5855 12.7038 15.6449 12.294C15.6701 12.1206 15.6839 11.943 15.6839 11.7618C15.6839 10.746 15.2723 9.82677 14.6063 9.16137C13.9415 8.49597 13.0217 8.08437 12.0065 8.08437C10.9913 8.08437 10.0715 8.49597 9.40611 9.16137C8.74071 9.82677 8.32911 10.746 8.32911 11.7618C8.32911 12.777 8.74071 13.6968 9.40611 14.3616C9.76791 14.7234 10.2047 15.0102 10.6907 15.1968C10.9067 15.2784 11.0489 15.6264 11.0489 15.8454C11.0489 16.275 10.7003 16.6242 10.2701 16.6242C10.1867 16.6242 10.1231 16.6164 10.0463 16.5846C9.39711 16.3218 8.81451 15.9294 8.32611 15.4422C7.38351 14.5002 6.80151 13.1988 6.80151 11.7624C6.80151 10.326 7.38411 9.02397 8.32611 8.08197C9.26811 7.13997 10.5689 6.55737 12.0065 6.55737C13.4435 6.55737 14.7443 7.13997 15.6863 8.08137C16.6289 9.02337 17.2109 10.3248 17.2109 11.7618C17.2109 12.0294 17.1911 12.2922 17.1515 12.5484Z" fill="white"/>
<path fill-rule="evenodd" clip-rule="evenodd" d="M19.5815 15.0773C19.4501 15.3113 19.1999 15.4697 18.9131 15.4697C18.6533 15.4697 18.4241 15.3413 18.2855 15.1439L18.2303 15.0533C18.1769 14.9489 18.1463 14.8295 18.1463 14.7041C18.1463 14.6105 18.1637 14.5211 18.1937 14.4383C18.5489 13.6181 18.7457 12.7133 18.7457 11.7623C18.7457 9.90173 17.9921 8.21633 16.7717 6.99653C15.5525 5.77673 13.8683 5.02313 12.0071 5.02313C10.1453 5.02313 8.46115 5.77673 7.24195 6.99653C6.02155 8.21633 5.26735 9.90173 5.26735 11.7623C5.26735 13.6229 6.02155 15.3083 7.24195 16.5275C8.35495 17.6417 9.85675 18.3677 11.5271 18.4847L11.5103 18.4835C11.7377 18.5075 11.9345 18.6305 12.0581 18.8093L12.1067 18.8903C12.1631 18.9959 12.1943 19.1165 12.1943 19.2443C12.1943 19.6625 11.8595 20.0015 11.4431 20.0093C9.38455 19.8713 7.53295 18.9791 6.16075 17.6075C4.66555 16.1117 3.73975 14.0447 3.73975 11.7617C3.73975 9.47873 4.66555 7.41173 6.16075 5.91653C7.65715 4.42013 9.72415 3.49493 12.0065 3.49493C14.2895 3.49493 16.3559 4.42013 17.8523 5.91653C19.3481 7.41233 20.2739 9.47933 20.2739 11.7617C20.2739 12.9407 20.0267 14.0615 19.5815 15.0773Z" fill="white"/>
</svg>
