<svg width="143" height="87" viewBox="0 0 143 87" fill="none" xmlns="http://www.w3.org/2000/svg">
  <path
    d="M40.8525 16.0177C41.2905 16.0177 41.8082 15.8209 42.3656 15.4667C43.4805 14.7583 44.0379 13.8138 44.0379 12.6725C44.0379 10.9802 43.0823 10.744 42.4851 10.744C41.9276 10.744 41.1711 10.9408 40.7331 11.9641C40.4544 12.6331 40.2155 13.3021 40.096 13.9712C39.9766 14.5222 39.8173 14.6402 39.8173 14.6402H39.2599L39.4988 15.3093C39.6182 15.5848 39.9367 16.0177 40.8525 16.0177Z"
    fill="url(#paint0_linear)" />
  <path
    d="M39.1404 41.3232C40.0164 41.3232 41.0118 40.7723 42.1665 39.5916C43.2416 38.4896 44.1972 37.2696 45.0732 35.9315C45.7899 34.8296 46.5464 33.5309 47.3029 32.1534C47.1835 32.8225 47.1039 33.4915 46.9844 34.2393L46.0686 40.0639C45.113 40.851 43.9583 42.071 42.724 43.7633C39.8969 47.502 37.9459 51.1621 36.9106 54.6254C36.5523 55.8848 36.3532 56.9474 36.3532 57.8132C36.3532 59.899 37.4283 61.001 39.4589 61.001C42.4054 61.001 44.7945 57.7345 46.8251 51.044C48.0993 46.9904 49.6124 39.3948 51.4041 28.454C52.6385 28.3359 53.8728 28.0211 55.1071 27.5488L55.346 27.4701L55.4257 25.5417L54.8284 25.8172C53.7932 26.2894 52.7579 26.5649 51.6828 26.683C52.1607 23.8101 52.519 21.5274 52.7977 19.9532L53.6737 19.7564H53.7135C56.4211 18.93 58.7703 16.7261 60.6816 13.1841C62.2344 10.2718 63.0308 7.51689 63.0308 4.95879C63.0308 0.86582 61.0797 0 59.487 0C58.2527 0 57.098 0.550976 56.0229 1.65293C55.0275 2.71553 54.1515 4.05361 53.4348 5.62783C51.6828 9.3666 49.9707 16.1751 48.4178 25.7778L47.94 26.7617H47.1039C46.9446 26.7617 46.4668 26.8404 46.4668 27.6275C46.4668 28.4146 46.9048 28.4934 47.1039 28.4934L46.7853 29.1624C45.6704 31.4057 44.3167 33.6883 42.7638 35.9709C40.8127 38.8045 39.8571 39.2374 39.4191 39.2374C39.22 39.2374 38.6626 39.2374 38.6626 37.5058C38.6626 36.1283 38.8617 34.5147 39.22 32.7437C39.4191 31.6024 39.6182 30.6973 39.7775 29.9889C39.9367 29.2411 40.1756 28.2572 40.4942 27.0766C40.7729 25.8959 41.0118 24.9907 41.1313 24.361C41.2507 23.7313 41.3304 23.1017 41.3304 22.5113C41.3304 21.921 41.2507 21.4094 41.1313 20.9765C40.7331 19.6777 39.9766 19.4022 39.4589 19.4022C39.0209 19.4022 38.4237 19.6384 38.1848 20.7403C38.0653 21.1732 37.9857 21.6061 37.8662 22.0784C37.7866 22.5113 37.6672 22.9049 37.5875 23.2197C37.5079 23.4952 37.3884 23.9281 37.269 24.5185C35.7559 29.8314 35.0392 33.767 35.0392 36.1677C35.0392 40.4181 37.269 41.3232 39.1404 41.3232ZM42.724 54.586C41.7285 57.4196 40.534 58.8758 39.1802 58.8758C39.021 58.8758 38.4635 58.8758 38.4635 57.4196C38.4635 56.239 39.3395 53.8383 41.0516 50.2963C42.4851 47.3053 43.9981 44.8652 45.5112 43.0549C44.6352 47.935 43.7194 51.8311 42.724 54.586ZM56.1424 6.02139C57.1378 3.30586 58.3323 1.92842 59.6463 1.92842C60.4427 1.92842 60.8408 2.87295 60.8408 4.76201C60.8408 6.84785 60.0843 9.32724 58.6111 12.1215C57.0184 15.1912 55.1868 17.1196 53.1561 17.7887C54.1117 12.7118 55.1071 8.73691 56.1424 6.02139Z"
    fill="url(#paint1_linear)" />
  <path
    d="M56.7795 26.7617C55.8238 28.9656 55.346 30.894 55.346 32.4289C55.346 33.9638 55.5053 35.2625 55.8238 36.2857C56.8193 39.5916 59.1685 41.2839 62.8317 41.2839C64.1457 41.2839 65.5393 40.6935 66.9727 39.5916C68.3663 38.4896 69.6006 37.2696 70.5961 35.9315C71.273 35.0264 71.9897 34.0031 72.7064 32.8618C72.4277 34.1605 72.2286 35.1838 72.0693 35.8922C71.7906 37.1516 71.6711 37.978 71.6711 38.4503C71.6711 38.9619 71.7508 39.4342 71.9499 39.8671C72.3878 40.969 73.1444 41.2052 73.662 41.2052C74.2194 41.2052 74.6574 40.7723 74.8963 39.9458C75.7325 37.2303 77.0066 33.8457 78.6392 29.8708C79.6346 27.3914 80.7097 25.3449 81.8644 23.7707C82.9394 22.2752 83.9349 21.4881 84.7312 21.4881C85.0099 21.4881 85.5674 21.4881 85.5674 22.6687C85.5674 23.692 85.0896 26.014 84.0941 29.6347C83.0987 33.2947 82.6209 36.089 82.6209 37.978C82.6209 42.0316 84.4127 42.8975 85.9257 42.8975C86.4035 42.8975 86.8415 42.74 87.2397 42.4645C87.6379 42.1497 87.837 41.8349 87.837 41.4413V41.0477H87.4388C86.9212 41.0477 86.6424 40.0245 86.6424 38.2142C86.6424 36.7974 87.0804 34.2393 87.9166 30.5792C88.7926 26.8404 89.2306 24.4397 89.2306 23.3378C89.2306 22.1571 88.912 21.2126 88.2351 20.5042C87.5582 19.7958 86.6424 19.4416 85.5275 19.4416C82.7005 19.4416 80.0328 22.0784 77.3252 27.4701C77.7632 25.0694 78.241 22.472 78.7586 19.6777C80.1522 18.9693 81.5856 17.4738 83.0987 15.0731C85.2488 11.6886 86.6026 8.38271 87.1202 5.19492C87.2397 4.52588 87.2795 3.93555 87.2795 3.38457C87.2795 0.590332 85.8461 0 84.6117 0C82.82 0 81.2273 1.49551 79.8735 4.48652C79.1966 5.94267 78.5993 7.47754 78.0817 9.05176C77.5641 10.626 77.0066 12.6331 76.4492 15.1912C75.8519 17.8674 75.3343 20.0713 74.9361 21.921C74.6972 23.1017 74.3787 24.4791 74.0602 26.0533L73.5425 27.1159C72.7064 29.005 71.1933 31.4844 69.083 34.4754C68.1274 35.7741 67.0921 36.8761 65.9374 37.7812C64.8226 38.6471 63.7873 39.1193 62.7919 39.1193C60.3232 39.1193 59.1287 37.3483 59.1287 33.7276C59.1287 31.0908 59.8454 28.3359 61.1992 25.5417C62.553 22.8262 64.0262 21.4487 65.5791 21.4487C65.9773 21.4487 66.3754 21.5668 66.3754 22.4326C66.3754 23.2984 66.1763 24.1643 65.7384 25.0694C65.3004 26.014 65.0615 26.2107 64.9818 26.2501H64.504L64.7031 26.7617C64.942 27.4701 65.4198 27.5488 65.6985 27.5488C66.4551 27.5488 67.132 27.234 67.7292 26.683C68.2867 26.132 68.6848 25.463 68.8441 24.7546C69.0034 24.0462 69.1228 23.2984 69.1228 22.5113C69.1228 21.6455 68.7645 20.8584 68.0478 20.15C67.4505 19.599 66.6143 19.2842 65.5791 19.2842C64.6235 19.2842 63.628 19.5203 62.6326 19.9532C60.1241 21.1732 58.1731 23.4559 56.7795 26.7617ZM84.7312 1.92842C85.1294 2.1252 85.3285 2.63682 85.3285 3.46328C85.3285 5.58848 84.3728 8.50078 82.5014 12.1608C81.3866 14.286 80.3115 15.8603 79.316 16.8835C81.8245 4.21103 83.7756 2.04648 84.7312 1.92842Z"
    fill="url(#paint2_linear)" />
  <path
    d="M94.7253 41.2445C97.0746 41.2445 99.822 38.4503 103.047 32.7044C102.888 33.767 102.848 34.7509 102.848 35.6167C102.848 39.4342 104.242 41.3626 106.949 41.3626C107.825 41.3626 108.821 40.8116 109.975 39.631C111.05 38.529 112.006 37.309 112.882 35.9709C113.439 35.1051 114.037 34.1212 114.634 33.0192C114.475 34.2786 114.355 35.3412 114.355 36.1677C114.355 40.4181 116.585 41.3232 118.456 41.3232C119.332 41.3232 120.328 40.7723 121.483 39.5916C122.558 38.4896 123.513 37.2696 124.389 35.9315C125.026 34.9477 125.663 33.8457 126.34 32.665C125.743 36.207 125.424 38.2142 125.424 38.6471C125.424 40.7329 126.42 41.1658 127.216 41.1658C127.654 41.1658 128.252 40.9297 128.49 39.749C128.65 39.0406 129.207 37.2696 130.242 34.4754C131.238 31.6811 132.592 28.6901 134.264 25.6204C136.255 21.9603 137.529 21.1732 138.246 21.1732C138.684 21.1732 139.082 21.3307 139.082 22.3539C139.082 23.3771 138.564 25.7385 137.569 29.4379C136.534 33.216 136.016 36.0496 136.016 37.9387C136.016 41.9923 137.808 42.8581 139.321 42.8581C139.799 42.8581 140.237 42.7007 140.635 42.4252C141.033 42.1103 141.232 41.7955 141.232 41.4019V41.0084H140.834C140.316 41.0084 140.037 39.9851 140.037 38.1748C140.037 36.758 140.475 34.1605 141.391 30.5005C142.307 26.7224 142.745 24.2823 142.745 23.141C142.745 21.921 142.426 20.9371 141.789 20.2287C141.152 19.481 140.197 19.1268 139.042 19.1268C136.374 19.1268 133.706 21.8816 130.919 27.5095L131.278 25.6598C131.397 24.9907 131.477 24.4004 131.477 23.8101C131.477 23.2197 131.397 22.6687 131.198 22.1571C130.76 20.8584 130.003 20.6223 129.486 20.6223C129.088 20.6223 128.371 20.819 128.172 21.9997C127.893 23.4559 127.654 24.8333 127.415 26.132L125.902 29.2018C124.787 31.445 123.434 33.7276 121.881 36.0103C119.93 38.8438 118.974 39.2768 118.536 39.2768C118.337 39.2768 117.78 39.2768 117.78 37.5451C117.78 36.1677 117.979 34.5541 118.337 32.7831C118.536 31.6418 118.735 30.7366 118.894 30.0282C119.054 29.2805 119.293 28.2966 119.611 27.1159C119.89 25.9353 120.129 25.0301 120.248 24.4004C120.368 23.7707 120.447 23.141 120.447 22.5507C120.447 21.9603 120.368 21.4487 120.248 21.0158C119.85 19.7171 119.094 19.4416 118.576 19.4416C118.138 19.4416 117.541 19.6777 117.302 20.7797C117.182 21.2126 117.103 21.6455 116.983 22.1178C116.904 22.59 116.784 22.9442 116.704 23.2591C116.625 23.5346 116.505 23.9675 116.386 24.5578C116.266 25.0301 116.147 25.5417 116.028 25.9746L114.395 29.2018C113.28 31.445 111.926 33.7276 110.374 36.0103C108.423 38.8438 107.467 39.2768 107.029 39.2768C106.392 39.2768 106.272 38.2142 106.272 37.309C106.272 36.9548 106.312 36.3644 106.392 35.5773C106.471 34.7509 107.069 31.6811 108.184 26.4469C108.303 25.8565 108.343 25.3449 108.343 24.8727C108.343 22.8262 107.427 22.3933 106.71 22.3933C105.834 22.3933 105.317 23.5346 105.038 24.4004C104.64 25.5417 103.326 28.1392 101.096 32.1141C100.061 34.0031 98.946 35.656 97.7515 37.0728C96.318 38.7258 95.4421 39.08 94.9642 39.08C94.2475 39.08 94.0883 37.7419 94.0883 36.6006C94.0883 33.5702 94.8846 30.3037 96.4773 26.9191C98.1098 23.3378 99.9016 21.5668 101.813 21.5668C102.33 21.5668 102.689 21.6455 102.928 21.8423C103.246 22.0784 103.246 22.2752 103.246 22.3539C103.246 22.8655 103.565 23.1804 104.082 23.2197C104.361 23.2197 104.56 23.1804 104.759 23.0229C104.879 22.9049 104.998 22.7475 104.998 22.4326C104.998 21.6849 104.68 20.9765 104.082 20.3861C103.485 19.7958 102.649 19.481 101.614 19.481C100.658 19.481 99.6627 19.6777 98.7071 20.0713C96.0393 21.2126 93.8494 23.7313 92.1372 27.4701C90.9029 30.225 90.3056 32.7831 90.3056 35.1051C90.3853 39.1193 91.8585 41.2445 94.7253 41.2445Z"
    fill="url(#paint3_linear)" />
  <path
    d="M120.208 16.0177C120.646 16.0177 121.164 15.8209 121.721 15.4667C122.836 14.7583 123.394 13.8138 123.394 12.6725C123.394 10.9802 122.438 10.744 121.841 10.744C121.283 10.744 120.527 10.9408 120.089 11.9641C119.81 12.6331 119.571 13.3021 119.452 13.9712C119.332 14.5222 119.173 14.6402 119.173 14.6402H118.656L118.894 15.3093C118.974 15.5848 119.293 16.0177 120.208 16.0177Z"
    fill="url(#paint4_linear)" />
  <path
    d="M36.3532 74.4999C31.3362 71.4302 25.0849 72.4534 19.6299 70.9185C13.6573 69.2656 8.99871 65.0152 5.01698 60.4893C4.97716 60.45 4.89753 60.4893 4.93734 60.5681C8.71999 66.0385 14.2148 70.6037 20.8643 72.0205C24.5275 72.8076 28.3499 72.6895 31.9733 73.6734C33.9642 74.185 35.955 75.0509 37.4283 76.4677C37.707 76.7432 38.3441 77.2941 38.3839 77.7664C38.4237 78.5929 37.4681 79.4193 36.7115 79.4587C36.0745 79.498 35.1985 79.1045 35.0392 78.4748C34.88 77.8057 35.8754 77.058 36.4726 77.4909C36.7912 77.727 37.1097 77.2154 36.8708 76.9399C34.9596 75.0509 32.3316 79.38 35.7957 80.3245C37.1894 80.7181 39.1006 80.0097 39.4191 78.4354C39.6978 76.7432 37.6273 75.287 36.3532 74.4999Z"
    fill="url(#paint5_linear)" />
  <path
    d="M141.033 55.3731C139.321 53.8383 136.175 53.8776 135.339 56.357C134.622 58.4429 136.772 60.6074 138.723 59.6629C139.321 59.3874 138.923 58.4429 138.285 58.679C136.812 59.23 135.857 56.908 136.971 56.0028C137.728 55.3731 138.763 55.3731 139.599 55.8454C140.913 56.5932 142.028 58.4822 141.75 60.0564C141.232 62.8507 136.454 64.3068 134.184 64.8578C128.849 66.1959 123.115 65.4088 117.819 63.8739C107.467 60.8829 97.7913 55.688 86.7619 56.908C83.9747 57.2228 80.8291 57.8525 77.8826 58.9151C76.9668 59.1119 75.9714 59.3874 74.976 59.7022C73.6222 60.1351 72.1888 60.6468 70.7553 61.2371C69.2821 61.8274 67.8089 62.4965 66.2958 63.2049C63.2697 64.5823 60.1241 66.0778 56.9387 67.4159C53.7533 68.7146 50.5281 69.8559 47.4224 70.525C45.9093 70.8398 44.4361 71.076 43.0425 71.2334C42.3258 71.194 41.6489 71.1153 40.9322 71.1153C40.3349 71.076 39.7775 71.076 39.1802 71.0366C38.145 70.6824 37.0301 70.3676 35.8754 70.0527C34.4818 69.6985 33.0484 69.3443 31.5751 69.0295C28.6286 68.3604 25.5229 67.7308 22.4968 66.9043C19.4707 66.1172 16.5242 65.1333 13.9361 63.9133C12.5424 63.2836 11.2683 62.5752 10.1136 61.8274C10.1534 61.7881 10.1932 61.7881 10.233 61.7487C12.7017 62.89 15.4491 63.5197 18.1567 63.5197C21.4615 63.5197 24.6469 62.5752 27.9119 62.1816C29.7037 61.9849 32.4909 61.5519 33.8845 62.9294C35.0392 64.0707 34.2031 65.4875 32.8095 65.881C32.2918 65.9991 31.814 66.0385 31.2566 65.9204C30.6593 65.9204 30.2213 65.6056 30.0222 64.9759C30.3806 64.661 30.7788 64.3462 31.1371 64.0313C31.6547 64.2281 32.0131 63.5591 31.5751 63.2836C30.4204 62.5752 28.987 63.3623 28.987 64.7397C28.987 66.3533 30.6593 67.1404 32.0927 67.1011C33.6456 67.0617 35.517 66.2746 35.6365 64.5036C35.7559 62.8507 34.3623 61.5913 32.8493 61.1977C30.6593 60.6074 28.111 61.0797 25.9211 61.5126C23.1737 62.0242 20.4263 62.6933 17.5992 62.6539C16.9622 62.6539 16.3649 62.5752 15.7676 62.5358C17.2011 62.4178 18.6345 62.1029 19.6299 61.3945C22.656 61.67 26.0007 61.119 27.8721 58.5216C28.0314 58.2854 27.8323 58.01 27.6332 57.9706C25.5229 57.3409 23.1737 57.6558 21.3421 58.9545C20.6652 59.4268 20.1874 60.0171 19.6299 60.5287C19.4707 60.5287 19.3114 60.5287 19.1521 60.5681C18.8336 60.5681 18.7141 60.9616 18.8336 61.1584C18.5549 61.3158 18.2761 61.4732 17.9178 61.5913C16.7233 61.9455 15.4491 62.1423 14.2148 62.2603C12.9008 61.9849 11.6665 61.5519 10.4719 61.001C10.4719 60.8829 10.4321 60.7648 10.3923 60.6861C11.8257 60.7648 13.3388 60.45 14.6926 60.0958C17.4798 59.4267 20.0281 58.0493 21.3023 55.4125C21.4217 55.2157 21.3819 54.8615 21.1032 54.7435C18.5549 53.7202 15.7676 53.4447 13.0999 54.1925C11.8656 54.5467 10.4719 55.0583 9.55615 55.9635C9.15798 56.357 8.99871 56.7506 8.71999 57.1835C8.00328 58.2461 7.08748 58.5216 6.17168 58.2854C5.49479 57.7345 4.89753 57.1835 4.26045 56.5538C3.14557 54.6254 2.54831 52.5002 2.54831 50.1782C2.54831 47.8956 2.78721 45.7704 3.2252 43.9207C5.49479 46.5182 8.71999 47.8169 12.8212 47.8169C15.8871 47.8169 18.5947 47.2659 20.9041 46.2033C23.2135 45.1014 25.0849 43.6059 26.4387 41.6774C27.7527 39.749 28.7481 37.6238 29.3852 35.3018C30.0222 32.9799 30.3408 30.5398 30.3408 28.0604C30.3408 25.6204 29.8232 20.9765 28.8277 14.2467C30.8186 12.397 32.3316 10.6653 33.3669 9.13047C34.442 7.47754 34.9994 5.82461 34.9596 4.13232C34.88 2.95166 34.5216 2.00713 33.9243 1.22002C33.2873 0.43291 32.3715 0.0393555 31.2566 0.0393555C27.1952 0 25.0849 3.81748 25.0849 11.4131C25.0849 12.4757 25.1645 13.5776 25.284 14.6796L19.1123 19.7564C17.6391 18.4971 15.688 17.8674 13.3388 17.8674C11.5868 17.8674 9.87469 18.2609 8.32181 19.0087C6.76894 19.7564 5.41515 20.819 4.34009 22.0784C3.26502 23.3378 2.26959 25.0301 1.35379 27.0766C0.43799 29.1624 0 31.5237 0 34.1605C0 36.9154 0.557442 39.3555 1.63251 41.4413C0.796346 43.9207 0.358356 46.7149 0.358356 49.6666C0.358356 52.7363 1.23434 55.5699 2.9863 58.0887C3.58356 58.9938 4.30027 59.7022 5.01698 60.2926C7.56529 63.6378 11.6266 66.3533 15.1704 68.1637C21.4217 71.3121 28.1508 71.7057 34.9198 71.9418C35.079 71.9811 35.2383 72.0205 35.3976 72.0599C36.7115 72.4534 37.9459 72.847 39.1006 73.2799C41.3702 74.1457 43.1619 75.1689 44.3565 76.0348C44.675 76.2315 44.9139 76.4677 45.1926 76.6644C45.4315 76.8612 45.6306 77.0186 45.8297 77.1761C45.989 77.3335 46.1482 77.4516 46.2677 77.5696C46.3871 77.6877 46.4668 77.7664 46.5066 77.8451C47.3826 78.7503 48.1391 79.6161 48.7364 80.2851C48.816 80.3639 48.8956 80.4426 48.9753 80.5213C49.0151 80.5606 49.0549 80.6 49.0947 80.6C49.1345 80.6 49.1345 80.6 49.1744 80.6393H49.254C49.2142 80.718 49.2142 80.8361 49.2142 80.9148C49.2142 80.9935 49.254 81.0329 49.2938 81.1116C49.3336 81.1903 49.4929 81.3084 49.7318 81.269C49.8513 81.269 49.9309 81.2297 49.9707 81.1903C50.0105 81.151 50.0503 81.151 50.13 81.1116C50.2096 81.0329 50.2892 80.9148 50.3291 80.7968C50.4087 80.5606 50.4087 80.4032 50.4087 80.2458C50.4087 80.1671 50.3689 80.0884 50.3689 80.0097C50.3689 79.9703 50.3291 79.8916 50.3291 79.8522C50.2892 79.7342 50.2892 79.6161 50.2494 79.498C50.0105 78.5141 49.2938 77.2941 48.2586 76.2315C48.1789 76.1528 48.0993 76.0741 47.9798 75.9167C47.8604 75.7986 47.6613 75.6412 47.4622 75.4444C47.2631 75.2476 47.0242 75.0509 46.7455 74.8541C46.6659 74.7754 46.5862 74.736 46.5066 74.6573C48.3382 74.8147 50.13 74.7754 51.9616 74.5786C52.8774 75.1689 53.8728 75.838 54.5497 76.6644C54.8682 76.9399 55.0673 77.2941 55.1868 77.727C54.8682 78.278 54.5497 78.8683 54.1913 79.4193C53.2755 78.829 53.0366 78.278 53.4348 77.6877C53.5144 77.5303 53.5941 77.4122 53.7135 77.2548C53.8728 77.0186 53.5941 76.7431 53.3552 76.8219C51.9616 77.2154 51.8421 79.2225 52.957 80.049C54.271 81.0329 56.0229 80.0884 56.222 78.5535C56.4609 76.7038 54.7488 75.3657 53.2357 74.4212C54.8682 75.0509 56.4211 75.838 57.8943 76.8219C59.6463 78.0025 63.2697 80.718 62.8317 83.1974C62.5928 84.5749 61.0797 85.7949 59.7259 85.9523C58.8898 86.0704 57.974 85.7556 57.536 84.9684C56.8989 83.8665 58.3722 82.2923 59.487 83.1974C59.925 83.591 60.5621 82.9613 60.1639 82.5284C58.8101 81.151 56.3017 82.2136 56.3017 84.142C56.2618 86.464 58.9296 87.4872 60.8408 86.7788C62.7122 86.0704 64.4244 83.9846 63.9068 81.9381C63.3095 79.5767 60.801 77.4515 58.9296 76.1135C57.7351 75.287 56.5007 74.5786 55.1868 73.9883C56.1424 73.7521 57.0582 73.4766 57.974 73.1225C61.8363 71.6269 65.2605 69.2263 69.2025 67.9275C71.3526 67.2191 73.7018 66.7862 75.9316 67.2191C76.3696 67.2978 77.2854 67.4159 77.6039 67.8095C78.1613 68.5572 77.803 69.8559 77.0863 70.3676C76.5288 70.8005 75.4936 70.9579 74.9361 70.4463C74.3787 69.9347 74.8565 68.6753 75.6529 68.6753C76.0909 68.6753 76.0909 68.0062 75.6927 67.9275C72.7462 67.3372 73.0249 72.9257 76.7677 71.7057C78.2808 71.2334 79.6346 69.423 78.9179 67.8095C78.1613 65.9598 75.3343 65.8811 73.662 65.9598C67.1718 66.1565 62.0353 70.8398 56.0628 72.7682C55.3062 73.0044 54.5497 73.2012 53.7533 73.3586C52.0014 72.6895 50.13 72.1779 48.2586 71.8237C51.4041 71.2727 54.6293 70.2495 57.7749 69.0688C61.0797 67.8488 64.2651 66.432 67.331 65.1333C68.645 64.5823 69.9192 64.0707 71.1137 63.5591C70.9942 63.6378 70.9146 63.7165 70.9146 63.7558C70.9544 63.7952 71.1535 63.7559 71.5119 63.5984C71.7508 63.5197 71.9897 63.441 72.1888 63.3229C72.5073 63.2049 72.8258 63.1262 73.1444 63.0081C74.538 62.5358 76.6085 61.9849 79.117 61.7487C81.6255 61.5126 84.5719 61.6307 87.7175 62.1816C90.8232 62.7326 94.1281 63.7165 97.3533 64.9365C100.578 66.1565 103.804 67.5733 106.87 68.8721C108.422 69.5411 109.896 70.1314 111.409 70.7218C112.882 71.2727 114.315 71.745 115.709 72.1386C118.456 72.8863 120.925 73.2012 122.836 73.2012C123.314 73.2012 123.752 73.1618 124.15 73.1618C124.548 73.1618 124.907 73.0831 125.186 73.0437C125.504 73.0044 125.743 72.965 125.942 72.9257C126.141 72.8863 126.3 72.847 126.42 72.8076C128.052 72.4534 129.486 71.7057 130.322 70.9579C130.441 70.8792 130.521 70.7611 130.641 70.6824C130.68 70.6431 130.72 70.6037 130.8 70.5643C130.879 70.4856 130.919 70.4463 130.999 70.3676C131.118 70.2101 131.238 70.0527 131.317 69.7772C131.357 69.6592 131.357 69.4624 131.317 69.3443C131.317 69.2656 131.278 69.2263 131.238 69.1475C131.198 69.0688 131.158 68.9901 131.039 68.9114C130.879 68.754 130.641 68.754 130.561 68.7934C130.441 68.8327 130.402 68.8721 130.362 68.9508C130.282 69.0295 130.242 69.1475 130.203 69.2656L130.123 69.1869C130.083 69.1869 130.083 69.1869 130.043 69.1869C130.003 69.1869 129.924 69.1869 129.884 69.2263C129.765 69.2656 129.645 69.2656 129.526 69.305C128.57 69.5805 127.336 69.8953 125.942 70.2101C125.862 70.2495 125.743 70.2495 125.544 70.2889C125.385 70.3282 125.146 70.3676 124.907 70.4069C124.668 70.4463 124.349 70.4856 123.991 70.525C123.633 70.5643 123.274 70.6037 122.836 70.6037C121.164 70.6431 118.894 70.4463 116.306 69.7772C114.992 69.4624 113.639 69.0295 112.205 68.5572C110.772 68.0456 109.259 67.4946 107.706 66.8649C104.6 65.6449 101.335 64.3462 97.9904 63.2049C95.5615 62.3784 93.1327 61.7094 90.7436 61.1977C90.7436 61.1584 90.7436 61.1584 90.7436 61.119C90.664 60.8829 90.5445 60.7255 90.4251 60.5681C90.3454 60.4893 90.3056 60.45 90.226 60.3713C90.1862 60.3319 90.1464 60.2926 90.0667 60.2532C89.9871 60.1745 89.8676 60.0958 89.7482 60.0171C88.8722 59.348 87.4388 58.7184 85.7664 58.4822C85.647 58.4822 85.4877 58.4429 85.2886 58.4035C85.0896 58.3641 84.8108 58.3642 84.5321 58.3248C84.333 58.3248 84.0543 58.2854 83.8154 58.2854C86.8813 57.6951 90.0269 57.4983 93.1327 57.7738C100.698 58.4035 107.666 61.7487 114.793 64.11C121.283 66.2746 128.371 67.7308 135.06 65.9204C137.529 65.2514 140.953 63.992 142.466 61.7094C143.661 59.8203 142.705 56.8686 141.033 55.3731ZM21.0633 59.9384C21.7004 59.3874 22.457 58.9545 23.2533 58.679C24.4478 58.2461 25.6822 58.2461 26.9165 58.5216C25.2043 60.3319 22.8949 60.4106 20.5457 60.4893C20.705 60.2926 20.8643 60.0958 21.0633 59.9384ZM31.3362 2.1252C31.9733 2.1252 32.8493 2.36133 32.8493 4.28975C32.8493 6.25752 31.4158 8.69756 28.5888 11.5705C28.4694 10.4686 28.4295 9.56338 28.4295 8.85498C28.4295 4.40781 29.3852 2.1252 31.3362 2.1252ZM49.4929 80.6C49.4929 80.6393 49.4929 80.6393 49.4929 80.6V80.6ZM20.2272 55.4125C19.1123 57.3409 17.1613 58.3642 15.0111 58.9545C13.1397 59.4268 10.5914 60.0564 8.7598 59.1513C11.547 57.9706 14.374 57.1441 17.2807 56.239C17.7585 56.0815 17.5594 55.4519 17.0816 55.5306C14.5333 55.9635 11.985 56.8293 9.51633 57.7738C11.5072 54.2712 16.6834 54.1138 20.2272 55.4125ZM18.8336 25.0694C18.8336 27.2733 17.9974 29.2805 16.3251 31.0515C15.2102 32.2715 13.9759 32.9012 12.6619 32.9012H12.1841L12.2637 33.3734C12.3434 33.8063 12.5026 34.1605 12.7814 34.3967C13.0203 34.6328 13.3786 34.7509 13.8166 34.7509C15.4889 34.7509 17.002 34.2393 18.316 33.2554C19.5901 32.2715 20.5059 31.1302 20.9837 29.8314C21.5013 28.5721 21.7402 27.0766 21.7402 25.463C21.7402 23.9281 21.3023 22.5507 20.4661 21.2913L25.4831 17.159C26.0405 22.9049 26.3192 26.3682 26.3192 27.5488C26.3192 32.4289 25.284 36.6793 23.2135 40.1032C22.1782 41.8349 20.7448 43.2123 18.9132 44.1962C17.0816 45.1801 14.9315 45.6917 12.5026 45.6917C8.60054 45.6917 5.81332 44.3143 3.98173 41.4807C5.17625 38.0567 7.00784 34.8296 9.51633 31.8779C11.9452 29.005 14.9713 26.014 18.515 22.9836C18.7539 23.6526 18.8336 24.361 18.8336 25.0694ZM2.86685 29.3592C4.06136 25.5811 6.01241 22.8262 8.68017 21.2519C10.1136 20.3861 11.7461 19.9532 13.5379 19.9532C15.1306 19.9532 16.4047 20.3861 17.3603 21.2126C10.0738 27.3914 5.13643 33.216 2.70758 38.6471C2.3094 37.309 2.11032 35.8922 2.11032 34.3573C2.11032 32.6257 2.34922 30.9727 2.86685 29.3592ZM11.4276 65.0152C9.95432 63.992 8.68017 62.8113 7.44583 61.5913C7.68474 61.67 7.92364 61.7094 8.16255 61.7881C9.63579 62.9687 11.4276 64.11 13.3786 65.1333C16.0066 66.5107 19.0327 67.6127 22.0588 68.5179C25.0053 69.3837 27.9517 70.1314 30.7788 70.8398C27.3545 70.6824 23.97 70.3282 20.6652 69.3837C17.4002 68.4391 14.2546 66.9436 11.4276 65.0152ZM45.1926 73.7915C44.5157 73.3586 43.7194 72.9257 42.8434 72.4928C43.3212 72.4928 43.8388 72.4534 44.3167 72.4141C44.8343 72.4534 45.3121 72.5321 45.8297 72.6108C45.8297 72.6895 45.9093 72.7289 45.989 72.7289C46.4668 72.7289 46.9446 72.7682 47.4224 72.847C47.7808 72.9257 48.1391 72.965 48.4975 73.0437C49.254 73.2405 49.9707 73.4767 50.6476 73.8308C48.816 73.9883 46.9844 73.9489 45.1926 73.7915Z"
    fill="url(#paint6_linear)" />
  <defs>
    <linearGradient id="paint0_linear" x1="71.5" y1="0" x2="71.5" y2="87" gradientUnits="userSpaceOnUse">
      <stop stop-color="#D4B553" />
      <stop offset="1" stop-color="#C1A04F" />
    </linearGradient>
    <linearGradient id="paint1_linear" x1="71.5" y1="0" x2="71.5" y2="87" gradientUnits="userSpaceOnUse">
      <stop stop-color="#D4B553" />
      <stop offset="1" stop-color="#C1A04F" />
    </linearGradient>
    <linearGradient id="paint2_linear" x1="71.5" y1="0" x2="71.5" y2="87" gradientUnits="userSpaceOnUse">
      <stop stop-color="#D4B553" />
      <stop offset="1" stop-color="#C1A04F" />
    </linearGradient>
    <linearGradient id="paint3_linear" x1="71.5" y1="0" x2="71.5" y2="87" gradientUnits="userSpaceOnUse">
      <stop stop-color="#D4B553" />
      <stop offset="1" stop-color="#C1A04F" />
    </linearGradient>
    <linearGradient id="paint4_linear" x1="71.5" y1="0" x2="71.5" y2="87" gradientUnits="userSpaceOnUse">
      <stop stop-color="#D4B553" />
      <stop offset="1" stop-color="#C1A04F" />
    </linearGradient>
    <linearGradient id="paint5_linear" x1="71.5" y1="0" x2="71.5" y2="87" gradientUnits="userSpaceOnUse">
      <stop stop-color="#D4B553" />
      <stop offset="1" stop-color="#C1A04F" />
    </linearGradient>
    <linearGradient id="paint6_linear" x1="71.5" y1="0" x2="71.5" y2="87" gradientUnits="userSpaceOnUse">
      <stop stop-color="#D4B553" />
      <stop offset="1" stop-color="#C1A04F" />
    </linearGradient>
  </defs>
</svg>