<svg width="20" height="20" viewBox="0 0 20 20" fill="none" xmlns="http://www.w3.org/2000/svg">
<path d="M9.68941 3.15119C9.72638 3.10408 9.77357 3.06599 9.82742 3.0398C9.88127 3.01361 9.94037 3 10.0002 3C10.0601 3 10.1192 3.01361 10.1731 3.0398C10.2269 3.06599 10.2741 3.10408 10.3111 3.15119L11.5024 4.66587C11.5508 4.72747 11.6163 4.77332 11.6908 4.79759C11.7652 4.82187 11.8452 4.82346 11.9206 4.80219L13.7744 4.27666C13.832 4.26026 13.8925 4.25714 13.9515 4.26756C14.0104 4.27797 14.0662 4.30164 14.1147 4.33678C14.1631 4.37192 14.203 4.41761 14.2312 4.47039C14.2594 4.52318 14.2753 4.58169 14.2776 4.6415L14.35 6.56778C14.3531 6.64603 14.3793 6.72161 14.4254 6.78493C14.4715 6.84825 14.5353 6.89644 14.6088 6.9234L16.4179 7.58854C16.474 7.60915 16.5248 7.64223 16.5663 7.6853C16.6078 7.72838 16.639 7.78031 16.6575 7.83719C16.676 7.89408 16.6814 7.95442 16.6732 8.01368C16.665 8.07293 16.6435 8.12955 16.6102 8.17927L15.5367 9.78022C15.4931 9.84529 15.4699 9.92185 15.4699 10.0002C15.4699 10.0785 15.4931 10.1551 15.5367 10.2201L16.6102 11.8211C16.6435 11.8708 16.665 11.9274 16.6732 11.9867C16.6814 12.0459 16.676 12.1063 16.6575 12.1632C16.639 12.22 16.6078 12.272 16.5663 12.3151C16.5248 12.3581 16.474 12.3912 16.4179 12.4118L14.6088 13.077C14.5354 13.104 14.4717 13.1523 14.4258 13.2156C14.3798 13.2789 14.3537 13.3544 14.3507 13.4326L14.2776 15.3589C14.2753 15.4187 14.2594 15.4772 14.2312 15.53C14.203 15.5828 14.1631 15.6284 14.1147 15.6636C14.0662 15.6987 14.0104 15.7224 13.9515 15.7328C13.8925 15.7432 13.832 15.7401 13.7744 15.7237L11.9206 15.1982C11.8452 15.1767 11.7651 15.1781 11.6905 15.2023C11.616 15.2264 11.5502 15.2722 11.5018 15.3338L10.3117 16.8492C10.2748 16.8963 10.2276 16.9344 10.1737 16.9606C10.1199 16.9867 10.0608 17.0004 10.0009 17.0004C9.94103 17.0004 9.88193 16.9867 9.82808 16.9606C9.77423 16.9344 9.72704 16.8963 9.69007 16.8492L8.49874 15.3345C8.45039 15.2729 8.38482 15.227 8.31037 15.2028C8.23591 15.1785 8.15592 15.1769 8.08055 15.1982L6.22672 15.7237C6.16915 15.7401 6.10861 15.7432 6.04967 15.7328C5.99073 15.7224 5.93492 15.6987 5.88646 15.6636C5.83801 15.6284 5.79817 15.5828 5.76995 15.53C5.74173 15.4772 5.72588 15.4187 5.72358 15.3589L5.65114 13.4326C5.64809 13.3543 5.62187 13.2787 5.57579 13.2154C5.5297 13.1521 5.46585 13.1039 5.39233 13.077L3.58327 12.4118C3.52711 12.3912 3.47636 12.3581 3.43485 12.3151C3.39333 12.272 3.36214 12.22 3.34363 12.1632C3.32511 12.1063 3.31975 12.0459 3.32795 11.9867C3.33615 11.9274 3.3577 11.8708 3.39097 11.8211L4.46442 10.2201C4.50802 10.1551 4.5313 10.0785 4.5313 10.0002C4.5313 9.92185 4.50802 9.84529 4.46442 9.78022L3.39097 8.17927C3.3577 8.12955 3.33615 8.07293 3.32795 8.01368C3.31975 7.95442 3.32511 7.89408 3.34363 7.83719C3.36214 7.78031 3.39333 7.72838 3.43485 7.6853C3.47636 7.64223 3.52711 7.60915 3.58327 7.58854L5.39233 6.9234C5.46573 6.89634 5.52944 6.8481 5.5754 6.78479C5.62136 6.72148 5.64749 6.64595 5.65048 6.56778L5.72358 4.6415C5.72588 4.58169 5.74173 4.52318 5.76995 4.47039C5.79817 4.41761 5.83801 4.37192 5.88646 4.33678C5.93492 4.30164 5.99073 4.27797 6.04967 4.26756C6.10861 4.25714 6.16915 4.26026 6.22672 4.27666L8.08055 4.80219C8.15592 4.82346 8.23591 4.82187 8.31037 4.79759C8.38482 4.77332 8.45039 4.72747 8.49874 4.66587L9.69073 3.15119H9.68941Z" stroke="currentColor" stroke-width="1.5" stroke-linejoin="round"/>
<path d="M8.02441 10.0002L9.34153 11.3173L11.9758 8.68311" stroke="currentColor" stroke-width="1.5" stroke-linecap="round" stroke-linejoin="round"/>
</svg>
