<svg width="18" height="19" viewBox="0 0 18 19" fill="none" xmlns="http://www.w3.org/2000/svg">
<path d="M8.99963 2C4.85963 2 1.49963 5.36 1.49963 9.5C1.49963 13.64 4.85963 17 8.99963 17C13.1396 17 16.4996 13.64 16.4996 9.5C16.4996 5.36 13.1396 2 8.99963 2ZM9.74963 14.75H8.24963V13.25H9.74963V14.75ZM11.3021 8.9375L10.6271 9.6275C10.0871 10.175 9.74963 10.625 9.74963 11.75H8.24963V11.375C8.24963 10.55 8.58713 9.8 9.12713 9.2525L10.0571 8.3075C10.3346 8.0375 10.4996 7.6625 10.4996 7.25C10.4996 6.425 9.82463 5.75 8.99963 5.75C8.17463 5.75 7.49963 6.425 7.49963 7.25H5.99963C5.99963 5.5925 7.34213 4.25 8.99963 4.25C10.6571 4.25 11.9996 5.5925 11.9996 7.25C11.9996 7.91 11.7296 8.51 11.3021 8.9375Z" fill="currentColor"/>
</svg>
