<svg width="16" height="16" viewBox="0 0 16 16" fill="none" xmlns="http://www.w3.org/2000/svg">
<path d="M8.18285 0.636719C3.96402 0.636719 0.540039 4.0607 0.540039 8.27953C0.540039 12.4984 3.96402 15.9223 8.18285 15.9223C12.4017 15.9223 15.8257 12.4984 15.8257 8.27953C15.8257 4.0607 12.4017 0.636719 8.18285 0.636719ZM8.94713 13.6295H7.41857V12.1009H8.94713V13.6295ZM10.5292 7.70632L9.84134 8.40946C9.29106 8.96738 8.94713 9.42595 8.94713 10.5724H7.41857V10.1902C7.41857 9.34953 7.7625 8.58524 8.31278 8.02732L9.26049 7.06432C9.54327 6.78918 9.71141 6.40704 9.71141 5.98669C9.71141 5.14598 9.02356 4.45813 8.18285 4.45813C7.34214 4.45813 6.65429 5.14598 6.65429 5.98669H5.12573C5.12573 4.29763 6.49379 2.92956 8.18285 2.92956C9.87191 2.92956 11.24 4.29763 11.24 5.98669C11.24 6.65926 10.9648 7.27068 10.5292 7.70632Z" fill="currentColor"/>
</svg>
