<svg width="20" height="20" viewBox="0 0 20 20" fill="none" xmlns="http://www.w3.org/2000/svg">
  <path
    d="M13.3333 10.0002H6.66667M13.3333 10.0002H14.5C14.6326 10.0002 14.7598 10.0528 14.8536 10.1466C14.9473 10.2404 15 10.3676 15 10.5002V16.1668C15 16.2994 14.9473 16.4266 14.8536 16.5204C14.7598 16.6142 14.6326 16.6668 14.5 16.6668H5.5C5.36739 16.6668 5.24021 16.6142 5.14645 16.5204C5.05268 16.4266 5 16.2994 5 16.1668V10.5002C5 10.3676 5.05268 10.2404 5.14645 10.1466C5.24021 10.0528 5.36739 10.0002 5.5 10.0002H6.66667H13.3333ZM13.3333 10.0002V6.66683C13.3333 5.556 12.6667 3.3335 10 3.3335C7.33333 3.3335 6.66667 5.556 6.66667 6.66683V10.0002H13.3333Z"
    stroke="currentColor" stroke-width="1.5" stroke-linecap="round" stroke-linejoin="round" />
</svg>