<svg width="17" height="18" viewBox="0 0 17 18" fill="none" xmlns="http://www.w3.org/2000/svg">
  <path
    d="M11.9996 1L11.9996 14L10.7996 12.4C10.7208 12.2949 10.6221 12.2064 10.5091 12.1395C10.3961 12.0726 10.271 12.0286 10.141 12.0101C10.011 11.9915 9.8786 11.9987 9.75139 12.0313C9.62417 12.0639 9.50462 12.1212 9.39957 12.2C9.27537 12.2931 9.17457 12.4139 9.10514 12.5528C9.03571 12.6916 8.99957 12.8448 8.99957 13C8.99957 13.2164 9.06974 13.4269 9.19957 13.6L12.1996 17.6C12.2929 17.7223 12.4132 17.8214 12.5511 17.8897C12.689 17.9579 12.8407 17.9934 12.9946 17.9934C13.1484 17.9934 13.3002 17.9579 13.4381 17.8897C13.576 17.8214 13.6962 17.7223 13.7896 17.6L16.7896 13.74C16.9527 13.5305 17.0259 13.2647 16.9931 13.0013C16.9602 12.7378 16.8241 12.4981 16.6146 12.335C16.405 12.1719 16.1393 12.0987 15.8758 12.1315C15.6123 12.1643 15.3727 12.3005 15.2096 12.51L13.9996 14.08L13.9996 1C13.9996 0.734783 13.8942 0.480429 13.7067 0.292893C13.5191 0.105357 13.2648 -1.63304e-07 12.9996 -1.74896e-07C12.7344 -1.86489e-07 12.48 0.105357 12.2925 0.292893C12.1049 0.480429 11.9996 0.734783 11.9996 1Z"
    fill="currentColor" />
  <path
    d="M4.99951 17L4.99951 3.99998L6.19951 5.59998C6.35864 5.81216 6.59554 5.95242 6.85809 5.98993C7.12064 6.02744 7.38733 5.95911 7.59951 5.79998C7.81168 5.64085 7.95195 5.40395 7.98946 5.1414C8.02696 4.87885 7.95864 4.61216 7.79951 4.39998L4.79951 0.399982C4.70618 0.277675 4.5859 0.17855 4.44801 0.110319C4.31012 0.0420881 4.15835 0.00659163 4.00451 0.00659162C3.85066 0.00659162 3.69889 0.042088 3.561 0.110319C3.42312 0.17855 3.30283 0.277675 3.20951 0.399982L0.209507 4.25998C0.0740393 4.43453 0.000195777 4.64903 -0.000492309 4.86998C-0.000125151 5.0227 0.0352156 5.17331 0.102819 5.31025C0.170423 5.44719 0.268492 5.56682 0.389507 5.65998C0.597977 5.82237 0.86225 5.89565 1.12458 5.86379C1.38691 5.83194 1.62596 5.69755 1.78951 5.48998L2.99951 3.91998L2.99951 17C2.99951 17.2652 3.10486 17.5196 3.2924 17.7071C3.47994 17.8946 3.73429 18 3.99951 18C4.26472 18 4.51908 17.8946 4.70661 17.7071C4.89415 17.5196 4.99951 17.2652 4.99951 17Z"
    fill="currentColor" />
</svg>