<svg width="20" height="20" viewBox="0 0 20 20" fill="none" xmlns="http://www.w3.org/2000/svg">
<path d="M2.95217 14.3539L8.21517 3.85693C8.95317 2.38493 11.0542 2.38493 11.7912 3.85693L17.0492 14.3539C17.202 14.6588 17.2742 14.9978 17.2591 15.3385C17.244 15.6792 17.1421 16.0104 16.9629 16.3006C16.7837 16.5908 16.5333 16.8304 16.2355 16.9965C15.9376 17.1627 15.6022 17.2499 15.2612 17.2499H4.74117C4.40003 17.2501 4.06451 17.163 3.76653 16.9969C3.46855 16.8308 3.218 16.5913 3.03872 16.301C2.85943 16.0108 2.75736 15.6795 2.74221 15.3387C2.72706 14.9979 2.79934 14.6589 2.95217 14.3539V14.3539Z" stroke="currentColor" stroke-width="1.5" stroke-linecap="round" stroke-linejoin="round"/>
<path d="M10 8V11" stroke="currentColor" stroke-width="2" stroke-linecap="round" stroke-linejoin="round"/>
<path d="M10 15C10.5523 15 11 14.5523 11 14C11 13.4477 10.5523 13 10 13C9.44772 13 9 13.4477 9 14C9 14.5523 9.44772 15 10 15Z" fill="currentColor"/>
</svg>
