<svg width="24" height="24" viewBox="0 0 24 24" fill="none" xmlns="http://www.w3.org/2000/svg">
<path d="M11.7055 1.06574C12.2286 0.793 12.8671 1.42574 12.5887 1.94836C12.4273 2.37432 11.8153 2.4876 11.5028 2.16293C11.172 1.85121 11.28 1.23527 11.7055 1.06574ZM6.07926 1.67208C6.39702 1.54123 6.79925 1.8324 6.76681 2.17877C6.8005 2.5547 6.34086 2.83157 6.01695 2.65282C5.58783 2.48664 5.63689 1.78996 6.07926 1.67217V1.67208ZM17.6024 2.66338C17.1058 2.60337 17.0273 1.8227 17.5054 1.66497C17.8762 1.48411 18.2163 1.82328 18.2706 2.17473C18.1928 2.47483 17.9415 2.74968 17.6024 2.6629V2.66338ZM7.35922 4.06632C7.89049 3.73032 8.6485 4.23068 8.5668 4.84777C8.53925 5.47081 7.71164 5.83177 7.24479 5.41052C6.79359 5.0797 6.86175 4.32063 7.35922 4.06652V4.06632ZM15.4689 4.42306C15.7061 3.81288 16.6665 3.79368 16.9363 4.38889C17.2029 4.85161 16.8749 5.42463 16.3999 5.58188C15.7706 5.69939 15.1729 5.01913 15.4692 4.42354L15.4689 4.42306ZM11.028 5.54703C11.0228 5.02201 11.5009 4.63081 12 4.59509C12.3309 4.66143 12.6916 4.80246 12.8336 5.13644C13.0982 5.59724 12.8633 6.23142 12.3852 6.44291C12.1666 6.56541 11.9081 6.51971 11.67 6.50521C11.3061 6.32656 10.9995 5.97616 11.0281 5.54713L11.028 5.54703ZM2.66099 6.31197C3.14627 6.0136 3.80099 6.55811 3.61724 7.08525C3.51606 7.54125 2.9031 7.72672 2.5527 7.43565C2.1783 7.16291 2.23792 6.50704 2.66099 6.31197ZM20.6279 6.31101C21.0397 5.99132 21.7191 6.35805 21.67 6.87741C21.6977 7.35146 21.1102 7.70887 20.7015 7.46483C20.2513 7.26256 20.2054 6.57001 20.6279 6.31053V6.31101ZM13.3809 7.25431C14.0603 7.01027 14.8674 7.30231 15.2546 7.90807C15.7655 8.64861 15.4937 9.77633 14.7009 10.2012C13.8795 10.7038 12.6801 10.278 12.3768 9.36055C12.0323 8.53937 12.5341 7.51168 13.3809 7.25431ZM9.39452 7.33562C10.1475 6.98042 11.1609 7.27802 11.5247 8.04861C11.9527 8.79838 11.6217 9.84238 10.8565 10.2295C10.0903 10.6646 9.00937 10.3351 8.6389 9.52971C8.22274 8.75134 8.59196 7.69408 9.39452 7.33562ZM5.40294 8.70026C5.46054 8.21508 5.91788 7.89943 6.37964 7.86669C6.87721 7.92669 7.27465 8.31309 7.32869 8.8171C7.29605 9.31553 6.91081 9.80283 6.38262 9.79976C5.80143 9.84977 5.29196 9.27175 5.40294 8.70065V8.70026ZM17.1927 7.97258C17.7893 7.62525 18.6178 8.13088 18.5913 8.81633C18.6322 9.54257 17.7153 10.0547 17.1212 9.6284C16.504 9.27367 16.5521 8.27479 17.1927 7.97268V7.97258ZM7.77221 10.5319C8.47004 10.3399 9.26789 10.6688 9.61013 11.3101C9.98453 11.9557 9.8318 12.8526 9.24956 13.3261C8.50277 14.0207 7.12556 13.7418 6.72812 12.7939C6.27145 11.925 6.82613 10.7605 7.77221 10.5318V10.5319ZM15.3333 10.5282C16.0116 10.3342 16.8085 10.5954 17.1732 11.2136C17.6554 11.9205 17.4252 12.9747 16.7074 13.4303C15.9554 13.9594 14.7908 13.6815 14.377 12.8543C13.8754 11.9985 14.3802 10.7892 15.3333 10.5282ZM3.28403 11.3346C3.88681 11.1066 4.55497 11.7718 4.31075 12.3694C4.16166 12.9137 3.39443 13.1153 2.99804 12.7137C2.53427 12.3368 2.70601 11.4981 3.28412 11.3346H3.28403ZM19.6223 12.2019C19.605 11.7027 19.9703 11.2601 20.4825 11.2323C20.8953 11.2976 21.2967 11.6307 21.264 12.0801C21.3019 12.6736 20.5867 13.077 20.0809 12.7981C19.8439 12.6777 19.7224 12.4346 19.6223 12.2016V12.2019ZM0.320414 11.6273C0.683005 11.469 1.13161 11.7833 1.04886 12.186C1.02966 12.642 0.356222 12.8173 0.108926 12.4363C-0.109666 12.1722 0.021086 11.7642 0.320414 11.6273ZM23.1856 11.6177C23.4409 11.4359 23.8507 11.5665 23.9517 11.8649C24.1234 12.1907 23.8087 12.6371 23.442 12.582C22.9271 12.629 22.7604 11.8444 23.1856 11.6177ZM9.74204 13.8065C10.6963 13.5584 11.722 14.3537 11.7281 15.3367C11.7904 16.3295 10.7801 17.21 9.80328 16.9807C9.04824 16.8591 8.45583 16.1318 8.48031 15.3688C8.47829 14.6392 9.02895 13.9609 9.74213 13.8065H9.74204ZM13.5212 13.8045C14.4897 13.5338 15.546 14.3437 15.5306 15.3491C15.5818 16.3236 14.603 17.1744 13.6466 16.9811C12.7466 16.8647 12.0826 15.8759 12.3338 15.0025C12.4607 14.4205 12.9469 13.9473 13.5212 13.8045ZM6.23478 14.4093C6.90495 14.295 7.53327 15.0429 7.26149 15.679C7.06325 16.3572 6.07638 16.5411 5.64006 15.9872C5.12828 15.4552 5.51036 14.4827 6.23478 14.4093ZM17.3173 14.4401C17.9149 14.1899 18.6484 14.7067 18.6024 15.3554C18.6264 16.0694 17.7208 16.5617 17.1364 16.145C16.474 15.7706 16.595 14.6698 17.3173 14.4401ZM20.415 17.5472C20.1811 17.111 20.6061 16.5328 21.0904 16.6136C21.3314 16.6095 21.5001 16.7994 21.6544 16.9592C21.6861 17.2177 21.7392 17.5256 21.5247 17.7253C21.2333 18.094 20.5733 17.9888 20.415 17.5476V17.5472ZM2.65916 16.7351C3.1118 16.4338 3.76316 16.8831 3.6614 17.4124C3.60726 17.8804 3.0182 18.1479 2.6294 17.8828C2.21267 17.6417 2.22803 16.9553 2.65916 16.7356V16.7351ZM11.6016 17.7153C12.1942 17.4538 12.949 17.9697 12.8928 18.6224C12.9368 19.3435 12.003 19.843 11.4241 19.4096C10.7809 19.0377 10.8878 17.9437 11.6019 17.715L11.6016 17.7153ZM7.45916 18.681C7.96383 18.4155 8.64121 18.8741 8.59522 19.4394C8.61058 19.9032 8.15794 20.2985 7.70021 20.23C7.32111 20.2218 7.07391 19.882 6.95237 19.5589C6.95862 19.2066 7.10357 18.8144 7.45916 18.6815V18.681ZM15.8489 18.6897C16.3679 18.3689 17.1055 18.8296 17.0565 19.4337C17.0698 20.065 16.2361 20.4694 15.7529 20.0547C15.285 19.7297 15.3421 18.9482 15.8489 18.6897ZM17.3081 22.2965C17.0777 21.9472 17.349 21.5263 17.7239 21.4467C18.0253 21.5081 18.344 21.7347 18.2807 22.0842C18.2367 22.5571 17.545 22.7022 17.3081 22.2965ZM5.72674 21.9931C5.81871 21.7163 6.04143 21.4411 6.36735 21.5131C6.84246 21.5468 6.98348 22.2629 6.56761 22.4836C6.19369 22.7357 5.75986 22.3905 5.72674 21.9931ZM11.3139 22.3108C11.4049 21.9013 11.9351 21.7021 12.2845 21.9196C12.5149 22.0188 12.5828 22.2771 12.6421 22.4967C12.6104 22.611 12.5821 22.7255 12.5543 22.8399C12.4112 23.0094 12.2279 23.179 11.9893 23.1729C11.5468 23.2247 11.1478 22.7246 11.3139 22.3108Z" fill="#3CC8C8"/>
</svg>
