<svg width="24" height="24" viewBox="0 0 24 24" fill="none" xmlns="http://www.w3.org/2000/svg">
<path d="M5.184 7H6.1704C7.7112 7.1512 9.1368 7.9264 10.1928 9.0424C12.384 11.3416 13.5888 14.5864 16.3776 16.2976C18.3936 17.536 21.2136 16.5232 22.2048 14.4328C22.7088 14.4232 23.2152 14.4232 23.7192 14.4256C23.0256 16.5496 21.0048 18.076 18.7944 18.28H17.9808C16.62 18.1672 15.2976 17.644 14.268 16.7392C12.7728 15.472 11.8128 13.7344 10.6512 12.1864C9.6528 10.8184 8.6328 9.28 6.9792 8.6584C4.9368 7.8928 2.4408 9.0904 1.6968 11.1256C1.0416 12.8008 1.5744 14.8792 3.0384 15.952C4.1352 16.8016 5.664 17.1184 6.9816 16.624C8.4456 16.096 9.5328 14.896 10.3656 13.624C10.6944 14.0944 11.0136 14.572 11.3304 15.052C10.0344 16.684 8.2368 18.0856 6.0984 18.28H5.2224C2.5272 18.0928 0.1848 15.8032 0 13.0984V12.2128C0.1752 9.5128 2.4864 7.1968 5.184 7Z" fill="#DE3F6B"/>
<path d="M17.9256 7H18.744C21.4632 7.1776 23.7768 9.5128 24 12.2176V13.6048C21.756 13.6264 19.5096 13.612 17.2656 13.6144C17.268 13.2088 17.268 12.8056 17.2656 12.4C19.0392 12.3952 20.8104 12.4072 22.5816 12.3952C22.4568 11.6776 22.2936 10.9432 21.8688 10.336C20.832 8.752 18.6408 8.104 16.8888 8.7904C15.492 9.3088 14.4408 10.444 13.6296 11.656C13.3176 11.2072 13.008 10.7536 12.708 10.2952C13.9872 8.6392 15.7728 7.2064 17.9256 7Z" fill="#DE3F6B"/>
</svg>
