<svg width="32px" height="40px" viewBox="0 0 32 40" version="1.1" xmlns="http://www.w3.org/2000/svg" xmlns:xlink="http://www.w3.org/1999/xlink" fill="#516AFF">
    <g id="Page-1" stroke="none" stroke-width="1" fill="none" fill-rule="evenodd">
        <g id="BandWebsite_Desktop_UI_Home" transform="translate(-168.000000, -37.000000)" fill="#516AFF" fill-rule="nonzero">
            <path d="M197.785521,49.6957561 C197.785521,46.8505678 196.411288,44.3321379 194.298896,42.7860132 L200,37 L196.591902,37.0159394 L192.060859,41.614465 C191.220613,41.3275553 190.325399,41.1761307 189.39092,41.1761307 L173.795337,41.1761307 L173.795337,63.5949392 L192.571288,44.5393505 C194.259632,45.615262 195.390429,47.5279936 195.390429,49.7037258 C195.390429,53.0589759 192.696933,55.7925882 189.39092,55.7925882 L188.896196,55.7925882 L168,77 L171.392393,77 L175.491534,72.8398087 L189.39092,72.8398087 C194.024049,72.8398087 197.785521,69.0143455 197.785521,64.3201833 C197.785521,61.2199641 196.144294,58.510261 193.702086,57.0199243 C196.144294,55.5136481 197.785521,52.7959753 197.785521,49.6957561 Z M176.190429,57.7132895 L176.190429,43.6068938 L189.39092,43.6068938 C189.61865,43.6068938 189.838528,43.6228332 190.058405,43.6467424 L176.190429,57.7132895 Z M195.390429,64.3042439 C195.390429,67.6594939 192.696933,70.3931062 189.39092,70.3931062 L177.886626,70.3931062 L189.838528,58.2631998 C192.932515,58.5022913 195.390429,61.1083881 195.390429,64.3042439 Z" id="Logo1"></path>
        </g>
    </g>
</svg>
