<svg width="24" height="24" viewBox="0 0 24 24" fill="none" xmlns="http://www.w3.org/2000/svg">
<path d="M12 24C18.6274 24 24 18.6274 24 12C24 5.37258 18.6274 0 12 0C5.37258 0 0 5.37258 0 12C0 18.6274 5.37258 24 12 24Z" fill="url(#paint0_linear)"/>
<path d="M17.4458 11.5714C17.3201 11.4971 17.1886 11.4286 17.0572 11.3714H17.0401L17.1315 11.2857C17.3029 11.1486 17.4743 11 17.6172 10.8286C18.2915 10.0514 18.4858 9.18286 18.2001 8.24C17.9715 7.46286 17.4458 6.88571 16.6229 6.46857C15.9943 6.15429 15.2858 6.01143 14.4343 6.01143H7.48577L7.50863 12.84H4.3772V15.5257H8.94863L7.52005 16.3943V17.9943H14.5829C15.0401 17.9943 15.5258 17.9371 16.0115 17.8629C17.6458 17.5771 18.9258 16.0229 18.9258 14.32C18.9258 13.08 18.4286 12.1486 17.4401 11.5657L17.4458 11.5714ZM15.0001 10.4971C14.8572 10.5943 14.6743 10.6457 14.4858 10.6914C14.3486 10.7314 14.2001 10.7314 14.0686 10.7314H10.2401V8.38857H14.4001C14.8972 8.4 15.3143 8.73143 15.4629 9.22286C15.6001 9.69143 15.4058 10.2171 15.0058 10.5029L15.0001 10.4971ZM11.2858 15.64H10.2401V12.8971H14.4972C15.1086 12.8971 15.5429 13.0971 15.8515 13.5257C16.1029 13.8686 16.1658 14.3257 16.0229 14.7429C15.8743 15.1429 15.5658 15.44 15.1658 15.5429C14.9201 15.6 14.6858 15.64 14.4801 15.6457H11.2801L11.2858 15.64Z" fill="white"/>
<defs>
<linearGradient id="paint0_linear" x1="3.51429" y1="3.51429" x2="20.4857" y2="20.4857" gradientUnits="userSpaceOnUse">
<stop stop-color="#30B5EC"/>
<stop offset="1" stop-color="#1E58BB"/>
</linearGradient>
</defs>
</svg>
