<svg width="24" height="24" viewBox="0 0 24 24" fill="none" xmlns="http://www.w3.org/2000/svg">
<path d="M12 24C18.6274 24 24 18.6274 24 12C24 5.37258 18.6274 0 12 0C5.37258 0 0 5.37258 0 12C0 18.6274 5.37258 24 12 24Z" fill="#0F63D8"/>
<path d="M19.413 15.5527C19.3408 15.7015 19.2614 15.8466 19.1752 15.9877C19.1175 16.0912 19.062 16.1947 19.0012 16.293C18.9735 16.3387 18.951 16.386 18.9233 16.4302H18.9142C18.332 17.3555 17.5699 18.1545 16.6733 18.78C15.7767 19.4055 14.7637 19.8447 13.6943 20.0717C12.6249 20.2987 11.5209 20.3088 10.4475 20.1015C9.37409 19.8942 8.3532 19.4736 7.44525 18.8647C7.40775 18.8392 7.3755 18.8115 7.33875 18.7867C7.19682 18.6949 7.05941 18.5963 6.927 18.4912C6.71752 18.3316 6.5172 18.1604 6.327 17.9782C6.23605 17.894 6.14727 17.8075 6.06075 17.7187C5.96775 17.6235 5.88675 17.5312 5.79225 17.424C5.69725 17.3171 5.60473 17.2081 5.51475 17.097C5.44438 17.0071 5.37611 16.9156 5.31 16.8225C5.21798 16.6962 5.12945 16.5674 5.0445 16.4362C4.98975 16.3507 4.93875 16.2637 4.887 16.1752C4.80226 16.0341 4.72247 15.89 4.64775 15.7432C4.6035 15.6562 4.56225 15.5677 4.521 15.4792C4.45182 15.33 4.38605 15.1792 4.32375 15.027C4.28625 14.9325 4.2525 14.8365 4.21875 14.7405C4.167 14.5905 4.116 14.4337 4.07175 14.2867C4.04175 14.1802 4.023 14.079 3.99 13.9695C3.95247 13.823 3.91921 13.6754 3.89025 13.527C3.87525 13.4145 3.8505 13.296 3.84 13.1895C3.81812 13.0425 3.79986 12.8949 3.78525 12.747C3.77475 12.6307 3.762 12.5145 3.762 12.3975C3.75 12.2505 3.75 12.1027 3.75 11.955C3.75 11.8425 3.759 11.73 3.759 11.6167C3.77094 11.3558 3.79496 11.0955 3.831 10.8367C3.90488 10.3092 4.02946 9.79008 4.203 9.28649C4.26675 9.10199 4.338 8.91899 4.41675 8.73674C4.434 8.69549 4.45425 8.64524 4.46475 8.61149C4.4769 8.57432 4.49742 8.54045 4.52475 8.51249C4.602 8.34599 4.6875 8.18099 4.7775 8.01749C4.82025 7.92599 4.872 7.83599 4.92525 7.74749C4.96275 7.68299 4.98825 7.62224 5.03775 7.55174C5.08575 7.48049 5.142 7.40699 5.19225 7.33349C5.25657 7.23256 5.32487 7.13423 5.397 7.03874C5.4915 6.91124 5.58975 6.78749 5.69175 6.66674C5.87039 6.45552 6.05937 6.25327 6.258 6.06074C6.3315 5.99174 6.40425 5.92199 6.47925 5.85599C6.68149 5.68249 6.88935 5.51565 7.1025 5.35574C7.2435 5.25824 7.3875 5.15924 7.533 5.06099C7.61054 5.01007 7.68931 4.96105 7.76925 4.91399C7.917 4.82849 8.064 4.74599 8.21175 4.66874C8.5453 4.49602 8.89066 4.34714 9.24525 4.22324C9.61497 4.09101 9.99402 3.98647 10.3792 3.91049C10.6315 3.86124 10.8857 3.8227 11.1412 3.79499C11.3077 3.77699 11.4758 3.76499 11.6453 3.75749C11.7368 3.74999 11.8298 3.74999 11.9228 3.74999C12.1894 3.74677 12.456 3.75728 12.7215 3.78149C13.1535 3.81882 13.5817 3.89156 14.0018 3.99899C14.109 4.02749 14.217 4.05749 14.3243 4.08899C14.4818 4.13399 14.6295 4.18274 14.7772 4.23674C14.8875 4.27649 14.9985 4.31924 15.1073 4.36499C15.1897 4.39949 15.2738 4.42574 15.3563 4.46249V4.47449C16.3585 4.91332 17.2623 5.54895 18.0143 6.34368C18.7662 7.13841 19.3509 8.07604 19.7336 9.10098C20.1164 10.1259 20.2894 11.2173 20.2424 12.3103C20.1955 13.4034 19.9295 14.4759 19.4603 15.4642C19.4453 15.4957 19.4273 15.522 19.413 15.5527ZM8.871 18.9277V18.9262C10.5551 19.6808 12.456 19.7976 14.2199 19.255C15.9837 18.7123 17.4902 17.5472 18.459 15.9765C18.513 15.8865 18.564 15.7935 18.615 15.702C18.6855 15.567 18.765 15.4365 18.8333 15.2895C19.2867 14.357 19.5437 13.3413 19.5881 12.3053C19.6326 11.2694 19.4636 10.2354 19.0917 9.26748C18.7198 8.29958 18.1529 7.41846 17.4262 6.67884C16.6994 5.93922 15.8284 5.35689 14.8673 4.96799C14.7701 4.92658 14.6718 4.88781 14.5725 4.85174C14.3364 4.76793 14.0966 4.69461 13.854 4.63199C13.4617 4.53174 13.0619 4.46376 12.6585 4.42874L12.4065 4.41074C12.2437 4.40324 12.0825 4.39949 11.9213 4.39949H11.6678C11.511 4.40624 11.3558 4.41749 11.2005 4.43324C11.1068 4.44374 11.0138 4.45574 10.9215 4.46849C10.6718 4.50228 10.4242 4.54985 10.1797 4.61099C9.93349 4.67024 9.69063 4.74285 9.45225 4.82849C9.3465 4.86449 9.2445 4.90349 9.14625 4.94324C8.92735 5.03272 8.71217 5.13105 8.50125 5.23799C8.28714 5.34886 8.07794 5.46897 7.87425 5.59799C7.7369 5.68337 7.60351 5.77497 7.4745 5.87249C7.407 5.91824 7.3395 5.96774 7.2735 6.01949C7.07673 6.17511 6.88752 6.34005 6.7065 6.51374C6.59625 6.62474 6.48825 6.73724 6.38175 6.85124C6.21413 7.03494 6.0552 7.2264 5.9055 7.42499C5.74991 7.63427 5.60425 7.85076 5.469 8.07374C5.42025 8.15474 5.376 8.23574 5.33025 8.31674C5.24025 8.46824 5.16675 8.62199 5.09325 8.78174C4.95375 9.08288 4.83399 9.39279 4.73475 9.70949C4.65201 9.95265 4.58512 10.2009 4.5345 10.4527C4.50225 10.6102 4.47525 10.77 4.4535 10.929C4.4415 11.0205 4.428 11.1135 4.41975 11.205C4.40475 11.3527 4.38825 11.4997 4.38825 11.6475C4.37925 11.748 4.37925 11.85 4.37925 11.9512C4.37925 12.0915 4.39125 12.231 4.39125 12.3712C4.40421 12.6148 4.42874 12.8575 4.46475 13.0987C4.48425 13.2 4.50075 13.296 4.5195 13.4047C4.5465 13.5435 4.57875 13.6822 4.6125 13.821C4.6365 13.9147 4.65975 14.0092 4.6875 14.1052C4.72875 14.2477 4.776 14.388 4.82625 14.5282C4.857 14.6137 4.88625 14.7007 4.92075 14.7862C4.977 14.928 5.0385 15.0652 5.09625 15.2107C5.1345 15.2917 5.17125 15.3735 5.2125 15.453C5.286 15.5872 5.35725 15.72 5.43375 15.8505C5.484 15.9322 5.53125 16.0117 5.5815 16.0912C5.658 16.212 5.742 16.3297 5.826 16.4482C5.88825 16.5337 5.93325 16.6042 6.015 16.7017C6.096 16.7992 6.1875 16.905 6.267 16.9965C6.3465 17.088 6.435 17.187 6.5145 17.2695C6.594 17.352 6.65625 17.4105 6.759 17.508C6.9332 17.6762 7.11701 17.8343 7.3095 17.9812C7.79006 18.3584 8.31434 18.6762 8.871 18.9277ZM11.985 18.309C10.7362 18.3099 9.51527 17.9404 8.47649 17.2474C7.43772 16.5543 6.6278 15.5688 6.14917 14.4154C5.67054 13.262 5.54469 11.9926 5.78755 10.7676C6.0304 9.54273 6.63105 8.41735 7.51353 7.53382C8.39601 6.65029 9.52068 6.04831 10.7453 5.804C11.9699 5.55969 13.2395 5.68402 14.3935 6.16128C15.5474 6.63855 16.5339 7.44729 17.2282 8.48524C17.9225 9.5232 18.2934 10.7437 18.294 11.9925C18.2928 13.6661 17.628 15.2709 16.4453 16.455C15.2626 17.6391 13.6586 18.3058 11.985 18.309ZM11.985 7.75049C11.1451 7.74945 10.3237 7.99761 9.62486 8.46355C8.92602 8.9295 8.38111 9.59229 8.0591 10.368C7.73709 11.1438 7.65245 11.9976 7.8159 12.8215C7.97934 13.6454 8.38352 14.4023 8.97729 14.9964C9.57105 15.5904 10.3277 15.995 11.1515 16.1589C11.9753 16.3228 12.8292 16.2386 13.6051 15.917C14.381 15.5954 15.0441 15.0508 15.5104 14.3522C15.9767 13.6536 16.2253 12.8324 16.2247 11.9925C16.2236 10.8679 15.7767 9.78967 14.982 8.99399C14.1873 8.1983 13.1096 7.75007 11.985 7.74749V7.75049Z" fill="white"/>
</svg>
