<svg width="24" height="24" viewBox="0 0 24 24" fill="none" xmlns="http://www.w3.org/2000/svg">
<path d="M12 24C18.6274 24 24 18.6274 24 12C24 5.37258 18.6274 0 12 0C5.37258 0 0 5.37258 0 12C0 18.6274 5.37258 24 12 24Z" fill="#2FD2E5"/>
<path d="M12.4275 3.00526C10.401 2.93485 8.41183 3.56321 6.7935 4.78501C6.6366 4.90294 6.50788 5.05429 6.41667 5.22809C6.32547 5.4019 6.27406 5.59381 6.26616 5.78994C6.25826 5.98606 6.29408 6.18149 6.37102 6.36206C6.44795 6.54264 6.56408 6.70384 6.711 6.83401C7.1775 7.27501 7.896 7.30951 8.403 6.91576C9.64446 5.9496 11.2029 5.48375 12.7709 5.61009C14.339 5.73643 15.8027 6.44579 16.8735 7.59826C17.316 8.05576 17.3295 8.77651 16.905 9.25051C16.7983 9.36494 16.6701 9.45723 16.5277 9.52211C16.3854 9.58698 16.2316 9.62317 16.0752 9.6286C15.9189 9.63403 15.763 9.60861 15.6165 9.55377C15.4699 9.49893 15.3356 9.41576 15.2213 9.30901L15.1635 9.25051C14.6296 8.66502 13.9311 8.25468 13.1597 8.07336C12.3883 7.89205 11.5802 7.94823 10.8413 8.23454C10.1025 8.52085 9.46745 9.0239 9.01967 9.67764C8.57189 10.3314 8.33227 11.1052 8.33227 11.8976C8.33227 12.69 8.57189 13.4639 9.01967 14.1176C9.46745 14.7714 10.1025 15.2744 10.8413 15.5607C11.5802 15.847 12.3883 15.9032 13.1597 15.7219C13.9311 15.5406 14.6296 15.1302 15.1635 14.5448C15.3345 14.3533 15.5639 14.2237 15.8161 14.1758C16.0683 14.128 16.3292 14.1646 16.5585 14.28C16.7216 14.3618 16.8636 14.4802 16.9734 14.626C17.0831 14.7718 17.1577 14.9409 17.1912 15.1203C17.2248 15.2997 17.2164 15.4844 17.1668 15.66C17.1171 15.8355 17.0275 15.9973 16.905 16.1325C15.8387 17.2998 14.373 18.0243 12.798 18.1626C11.223 18.301 9.6535 17.8431 8.4 16.8795C8.15196 16.6905 7.84517 16.5952 7.53371 16.6103C7.22224 16.6254 6.92611 16.7499 6.6975 16.962C6.55156 17.0957 6.43707 17.2601 6.36226 17.4434C6.28746 17.6267 6.25421 17.8243 6.26489 18.0219C6.27558 18.2196 6.32994 18.4124 6.42407 18.5865C6.51819 18.7607 6.64974 18.9118 6.80925 19.029C7.928 19.8587 9.22606 20.4139 10.5988 20.6497C11.9715 20.8856 13.3804 20.7957 14.7119 20.387C16.0435 19.9784 17.2604 19.2627 18.2645 18.2974C19.2686 17.3321 20.0318 16.1444 20.4926 14.83C20.9535 13.5157 21.0989 12.1114 20.9174 10.7304C20.7358 9.34949 20.2323 8.03054 19.4474 6.87994C18.6625 5.72933 17.6182 4.77927 16.3987 4.10637C15.1792 3.43346 13.8187 3.05654 12.4268 3.00601L12.4275 3.00526ZM12.2625 14.0963C11.9736 14.0952 11.6878 14.0372 11.4213 13.9257C11.1549 13.8141 10.913 13.6512 10.7095 13.4461C10.506 13.2411 10.3448 12.998 10.2353 12.7307C10.1257 12.4634 10.0699 12.1771 10.071 11.8883C10.0721 11.5994 10.1301 11.3135 10.2416 11.0471C10.3532 10.7806 10.5161 10.5387 10.7211 10.3352C10.9262 10.1317 11.1693 9.97059 11.4366 9.86105C11.7039 9.7515 11.9901 9.69567 12.279 9.69676C12.8624 9.69885 13.4211 9.93261 13.8322 10.3466C14.2432 10.7606 14.473 11.321 14.4709 11.9044C14.4688 12.4878 14.235 13.0465 13.821 13.4575C13.407 13.8686 12.8467 14.0983 12.2633 14.0963H12.2625Z" fill="white"/>
</svg>
