<svg width="24" height="24" viewBox="0 0 24 24" fill="none" xmlns="http://www.w3.org/2000/svg">
<path d="M23.6634 0H0.3366C0.150701 0 0 0.150701 0 0.3366V23.6634C0 23.8493 0.150701 24 0.3366 24H23.6634C23.8493 24 24 23.8493 24 23.6634V0.3366C24 0.150701 23.8493 0 23.6634 0Z" fill="#322A3F"/>
<path d="M11.8541 6.39246L7.2397 16.0136H14.9003C15.0089 16.0135 15.115 16.0454 15.2057 16.1051C15.2964 16.1648 15.3675 16.2498 15.4103 16.3496L15.4183 16.3682C15.4467 16.4342 15.4594 16.5059 15.4553 16.5777C15.4512 16.6495 15.4306 16.7193 15.3949 16.7817C15.3311 16.893 15.2389 16.9855 15.1279 17.0499C15.0168 17.1142 14.8908 17.1481 14.7624 17.1482H6.6211C6.49552 17.1482 6.37276 17.111 6.2683 17.0413L6.22534 17.0128C6.09768 16.9274 6.00516 16.7987 5.96479 16.6505C5.92443 16.5023 5.93892 16.3444 6.00562 16.2061L11.4503 5.0019C11.5072 4.88496 11.5882 4.78138 11.688 4.69794C11.7825 4.6191 11.9014 4.57538 12.0245 4.5742C12.1476 4.57302 12.2673 4.61445 12.3634 4.69146C12.4065 4.72542 12.4414 4.76865 12.4655 4.81794L17.988 16.0995C18.0629 16.2528 18.0785 16.4284 18.0318 16.5925C18.0062 16.6828 17.9518 16.7622 17.8768 16.8187C17.8019 16.8752 17.7105 16.9056 17.6166 16.9054H17.5534C17.4272 16.9054 17.3036 16.8695 17.1971 16.8019C17.0906 16.7343 17.0055 16.6378 16.9518 16.5236L12.189 6.39414C12.1743 6.36223 12.1508 6.33518 12.1212 6.31617C12.0916 6.29715 12.0573 6.28696 12.0221 6.28678C11.987 6.28661 11.9525 6.29645 11.9228 6.31517C11.893 6.33389 11.8693 6.3607 11.8542 6.39246H11.8541Z" fill="#F4AE95"/>
</svg>
