<svg width="24" height="24" viewBox="0 0 24 24" fill="none" xmlns="http://www.w3.org/2000/svg">
<g clip-path="url(#clip0)">
<path opacity="0.25" d="M10.2908 10.9624L7.50919 6.02093L4.681 1.03142C4.51926 0.749841 4.29499 0.511491 4.02649 0.3358H4.0031C3.7163 0.506223 3.48152 0.755451 3.3252 1.05543L1.22157 4.79753C0.91768 5.33099 0.91768 5.99125 1.22157 6.5247L3.74595 11.0103C3.93293 11.3221 4.0031 11.6819 4.0031 12.0417C4.00107 12.402 3.91276 12.7562 3.74595 13.0732L1.24496 17.5105C0.941068 18.044 0.941068 18.7042 1.24496 19.2377L3.34859 22.9798C3.51219 23.2677 3.74595 23.5315 4.02649 23.6994H4.04988C4.33042 23.5315 4.54079 23.2916 4.70439 23.0038L7.50931 18.0144L10.2908 13.0253C10.6414 12.3847 10.6414 11.6029 10.2908 10.9624Z" fill="url(#paint0_linear)"/>
<path opacity="0.25" d="M23.7076 10.8185L20.9027 5.85297L18.0277 0.743643C17.895 0.512003 17.7205 0.30847 17.5135 0.143951C17.3966 0.0480246 17.2796 0 17.1394 0C15.6668 0 14.6617 0.0480246 13.9138 0.0480246C13.7969 0.0480246 13.7268 0.191975 13.7502 0.311914L14.4747 4.48636C14.4747 4.53439 14.4747 4.58229 14.4513 4.63031C14.1708 5.15809 14.1942 5.80569 14.4981 6.33346L17.0693 10.9389C17.2562 11.2747 17.3498 11.6345 17.3498 11.9943C17.3498 12.3542 17.2562 12.714 17.0693 13.0498L14.4747 17.6552C14.1709 18.183 14.1709 18.8306 14.4279 19.3584C14.4513 19.4064 14.4513 19.4543 14.4513 19.5023L13.7268 23.6521C13.7034 23.7721 13.7735 23.916 13.8904 23.916C14.5683 23.916 13.6098 23.9879 17.2095 23.9879C17.2796 23.9879 17.3731 23.9639 17.4432 23.9399C17.7004 23.844 17.864 23.5321 18.0042 23.2683L20.8793 18.135L23.6608 13.1695C24.1049 12.4495 24.1049 11.5621 23.7076 10.8185Z" fill="url(#paint1_linear)"/>
<path d="M22.5623 10.9624L16.9758 1.03142C16.6253 0.40784 15.9707 0 15.2462 0H4.0733C3.69932 0 3.34874 0.119938 3.02142 0.311791V0.335803C3.28993 0.511494 3.51419 0.749844 3.67594 1.03142L6.48085 6.02093C6.738 5.901 7.04181 5.82908 7.32235 5.82908H11.9504C12.6749 5.82908 13.3297 6.21291 13.68 6.8605L15.994 10.9624C16.3446 11.5861 16.3446 12.3777 15.994 13.0254L13.68 17.1273C13.3294 17.751 12.6515 18.1587 11.9504 18.1587H7.34562C7.05493 18.1578 6.76788 18.0923 6.50412 17.9669L3.69932 22.9563C3.53758 23.2378 3.31332 23.4762 3.04481 23.6519V23.6759C3.34862 23.8677 3.72271 23.9877 4.09669 23.9877H15.2924C16.0169 23.9877 16.6717 23.6039 17.022 22.9563L22.6087 13.0253C22.9363 12.3777 22.9363 11.61 22.5623 10.9624Z" fill="url(#paint2_linear)"/>
<path d="M9.26237 10.9624L6.48084 6.02093L3.67592 1.03142C3.51418 0.749841 3.28992 0.511491 3.02141 0.3358H2.9985C2.7117 0.506223 2.47692 0.755451 2.3206 1.05543L0.239881 4.77352C-0.0640097 5.30697 -0.0640097 5.96723 0.239881 6.50068L2.76426 10.9863C2.95125 11.2981 3.02141 11.6579 3.02141 12.0177C3.01938 12.378 2.93107 12.7322 2.76426 13.0492L0.239881 17.5105C-0.0640097 18.044 -0.0640097 18.7042 0.239881 19.2377L2.34363 22.9802C2.50723 23.2681 2.74099 23.5318 3.02153 23.6998H3.04492C3.32546 23.5318 3.53583 23.2919 3.69943 23.0042L6.50435 18.0148L9.28576 13.0733C9.63634 12.3777 9.63634 11.61 9.26237 10.9624Z" fill="url(#paint3_linear)"/>
</g>
<defs>
<linearGradient id="paint0_linear" x1="1.01491" y1="-0.307853" x2="10.5492" y2="-0.307853" gradientUnits="userSpaceOnUse">
<stop stop-color="#00BA96"/>
<stop offset="0.52" stop-color="#00D9AF"/>
<stop offset="1" stop-color="#00D9AF"/>
</linearGradient>
<linearGradient id="paint1_linear" x1="13.739" y1="-0.30785" x2="24.0167" y2="-0.30785" gradientUnits="userSpaceOnUse">
<stop stop-color="#008D85"/>
<stop offset="1" stop-color="#00FFE0"/>
</linearGradient>
<linearGradient id="paint2_linear" x1="3.02142" y1="-0.307851" x2="22.8488" y2="-0.307851" gradientUnits="userSpaceOnUse">
<stop stop-color="#008D94"/>
<stop offset="1" stop-color="#00FFE0"/>
</linearGradient>
<linearGradient id="paint3_linear" x1="0.0119947" y1="-0.307853" x2="9.54579" y2="-0.307853" gradientUnits="userSpaceOnUse">
<stop stop-color="#00BA96"/>
<stop offset="0.52" stop-color="#00D9AF"/>
<stop offset="1" stop-color="#00FAAF"/>
</linearGradient>
<clipPath id="clip0">
<rect width="24" height="24" fill="white"/>
</clipPath>
</defs>
</svg>
