<svg width="24" height="24" viewBox="0 0 24 24" fill="none" xmlns="http://www.w3.org/2000/svg">
<path fill-rule="evenodd" clip-rule="evenodd" d="M11.6822 0C16.6346 0.04375 20.3863 3.34935 21.1127 7.74288C21.9341 12.7103 18.5632 17.4461 13.6017 18.3016C12.9319 18.4171 12.2475 18.4624 11.5675 18.5012C10.1893 18.5798 8.7954 19.5129 8.47195 21.343C8.37914 21.868 8.25507 22.3877 8.14315 22.9093C7.98049 23.667 7.33845 24.1171 6.62791 23.9734C5.89353 23.8249 5.46913 23.1676 5.62796 22.396C5.83095 21.4097 6.04852 20.4263 6.25975 19.4417C6.99808 16.0003 7.73823 12.5592 8.47319 9.117C8.64238 8.32462 9.11024 7.89178 9.81301 7.90543C10.5918 7.92057 11.1902 8.63917 11.0295 9.40199C10.6446 11.2295 10.2431 13.0535 9.84915 14.879C9.77297 15.2321 9.70283 15.5865 9.62556 15.9394C9.59441 16.0815 9.61914 16.1529 9.78865 16.1338C10.8339 16.0159 11.8816 15.9182 12.9249 15.7858C15.7025 15.4334 18.0288 13.2224 18.5311 10.476C19.2019 6.80855 16.8327 3.37668 13.1608 2.69696C9.49682 2.01861 5.89101 4.64132 5.40068 8.3359C5.26574 9.35271 5.35732 10.3447 5.67799 11.3173C5.9262 12.07 5.58434 12.8169 4.88923 13.0379C4.16287 13.2687 3.45926 12.8783 3.21616 12.1095C1.55523 6.85721 4.616 1.48244 9.99393 0.238587C10.6456 0.0879004 11.3232 0.0489549 11.6822 0Z" fill="black"/>
<path fill-rule="evenodd" clip-rule="evenodd" d="M10.801 22.4537C10.8038 21.5922 11.4619 20.9365 12.3241 20.9363C13.1957 20.936 13.8713 21.6131 13.8592 22.4746C13.8471 23.3334 13.1812 23.994 12.3271 23.9944C11.4541 23.9949 10.7982 23.3327 10.801 22.4537Z" fill="#E6027A"/>
</svg>
