<svg width="24" height="24" viewBox="0 0 24 24" fill="none" xmlns="http://www.w3.org/2000/svg">
<path fill-rule="evenodd" clip-rule="evenodd" d="M12.5698 10.8019C12.5698 10.8019 12.8761 8.7802 15.3059 8.7802C17.6548 8.7802 18.042 10.8019 18.042 10.8019H12.5698ZM15.4076 6.57463C13.5047 6.57709 9.85327 7.84038 9.85327 11.7821C9.85327 16.377 13.2523 17.4271 15.1834 17.3769C18.3691 17.296 19.9216 15.6002 19.9216 15.6002L18.2062 14.049C18.2062 14.049 17.2872 15.0292 15.3879 15.0292C12.7328 15.0292 12.5281 12.8237 12.5281 12.8237H20.473C20.473 12.8237 21.289 6.56605 15.4076 6.57463Z" fill="white"/>
<mask id="mask0" mask-type="alpha" maskUnits="userSpaceOnUse" x="12" y="8" width="7" height="3">
<path d="M15.3059 8.78019C12.8761 8.78019 12.5698 10.8019 12.5698 10.8019H18.042C18.042 10.8019 17.6548 8.78019 15.3059 8.78019Z" fill="white"/>
</mask>
<g mask="url(#mask0)">
<path fill-rule="evenodd" clip-rule="evenodd" d="M15.3059 8.78019C12.8761 8.78019 12.5698 10.8019 12.5698 10.8019H18.042C18.042 10.8019 17.6548 8.78019 15.3059 8.78019Z" fill="url(#paint0_linear)"/>
</g>
<mask id="mask1" mask-type="alpha" maskUnits="userSpaceOnUse" x="0" y="2" width="24" height="19">
<path d="M20.473 12.8237H12.5282C12.5282 12.8237 12.7328 15.0292 15.388 15.0292C17.2872 15.0292 18.2062 14.049 18.2062 14.049L19.9217 15.6002C19.9217 15.6002 18.3692 17.296 15.1834 17.3769C13.2523 17.4271 9.85331 16.377 9.85331 11.7821C9.85331 7.84038 13.5047 6.57708 15.4076 6.57463C21.2891 6.56605 20.473 12.8237 20.473 12.8237ZM15.1834 2.92937C11.4119 2.92937 8.19674 5.31134 6.9604 8.65274H0.0509033L3.27714 11.3325H6.42495C6.42 11.4526 6.41756 11.5739 6.41756 11.6952C6.41756 12.0015 6.43354 12.3042 6.46414 12.6031H3.25752L0.113406 15.2326H7.16133C8.52023 18.3118 11.6006 20.461 15.1834 20.461C20.0246 20.461 23.9492 16.5363 23.9492 11.6952C23.9492 6.85399 20.0246 2.92937 15.1834 2.92937Z" fill="white"/>
</mask>
<g mask="url(#mask1)">
<path fill-rule="evenodd" clip-rule="evenodd" d="M20.473 12.8237H12.5282C12.5282 12.8237 12.7328 15.0292 15.388 15.0292C17.2872 15.0292 18.2062 14.049 18.2062 14.049L19.9217 15.6002C19.9217 15.6002 18.3692 17.296 15.1834 17.3769C13.2523 17.4271 9.85331 16.377 9.85331 11.7821C9.85331 7.84038 13.5047 6.57708 15.4076 6.57463C21.2891 6.56605 20.473 12.8237 20.473 12.8237ZM15.1834 2.92937C11.4119 2.92937 8.19674 5.31134 6.9604 8.65274H0.0509033L3.27714 11.3325H6.42495C6.42 11.4526 6.41756 11.5739 6.41756 11.6952C6.41756 12.0015 6.43354 12.3042 6.46414 12.6031H3.25752L0.113406 15.2326H7.16133C8.52023 18.3118 11.6006 20.461 15.1834 20.461C20.0246 20.461 23.9492 16.5363 23.9492 11.6952C23.9492 6.85399 20.0246 2.92937 15.1834 2.92937Z" fill="url(#paint1_linear)"/>
</g>
<defs>
<linearGradient id="paint0_linear" x1="10.6081" y1="8.80372" x2="13.9501" y2="14.5921" gradientUnits="userSpaceOnUse">
<stop stop-color="#5AC2F6"/>
<stop offset="1" stop-color="#1170AB"/>
</linearGradient>
<linearGradient id="paint1_linear" x1="7.46207" y1="7.75517" x2="13.6611" y2="18.4922" gradientUnits="userSpaceOnUse">
<stop stop-color="#5AC2F6"/>
<stop offset="1" stop-color="#1170AB"/>
</linearGradient>
</defs>
</svg>
