<svg width="24" height="24" viewBox="0 0 24 24" fill="none" xmlns="http://www.w3.org/2000/svg">
<path d="M12 22.0123C7.87665 22.0123 4.34537 19.5278 2.81233 15.9753L4.1022 15.5313C5.45551 18.5551 8.47929 20.659 12 20.659C15.9965 20.659 19.348 17.9524 20.3524 14.2837L17.8361 15.0978C16.726 17.1806 14.5269 18.6079 12 18.6079C9.37797 18.6079 7.10485 17.0749 6.04758 14.8546L8.5533 13.9771L8.05639 16.578L23.9789 11.3868C23.6617 5.04317 18.4176 0 12 0C5.37092 0 0 5.37092 0 12C0 12.6238 0.0528634 13.2476 0.137445 13.8502L12.6767 9.8326L11.9894 12.1586L20.2678 9.44141C19.1683 5.9207 15.8802 3.35154 12 3.35154C7.58062 3.35154 3.93304 6.67137 3.41498 10.9533L2.00881 11.3974C2.32599 6.1533 6.68194 1.98767 12.0106 1.98767C16.9374 1.98767 21.0396 5.55066 21.8749 10.2449L10.4247 13.9982L10.9639 11.5031L0.370044 14.9392C1.68106 20.141 6.39648 23.9894 12 23.9894C18.2485 23.9894 23.3762 19.2106 23.9471 13.1101L21.8537 13.7868C21.0079 18.4599 16.9163 22.0123 12 22.0123ZM12 5.39207C14.3471 5.39207 16.4088 6.6185 17.5824 8.45815L14.5692 9.47313L15.1612 7.2L5.64581 10.2344C6.40705 7.44317 8.96564 5.39207 12 5.39207Z" fill="#2727A4"/>
</svg>
