<svg width="24" height="24" viewBox="0 0 24 24" fill="none" xmlns="http://www.w3.org/2000/svg">
<path d="M12 24C18.6274 24 24 18.6274 24 12C24 5.37258 18.6274 0 12 0C5.37258 0 0 5.37258 0 12C0 18.6274 5.37258 24 12 24Z" fill="black"/>
<path d="M11.9749 22.7184C17.8944 22.7184 22.6932 17.9196 22.6932 12C22.6932 6.08048 17.8944 1.28172 11.9749 1.28172C6.05529 1.28172 1.25653 6.08048 1.25653 12C1.25653 17.9196 6.05529 22.7184 11.9749 22.7184Z" fill="#FEF102"/>
<path d="M17.0513 7.97906C16.8 7.40105 16.5612 6.27016 15.9078 6.01885C15.0659 5.69215 14.5382 7.81571 14.4125 8.35602H14.2869C14.0733 7.43874 13.7843 6.13194 12.779 5.84293C12.3141 7.80314 13.2691 9.9267 14.1612 11.623C15.1162 11.1707 15.5811 9.73822 15.6691 8.73299H15.7947L16.8 11.7487C17.6042 11.5225 17.8932 10.7183 18.1822 9.98953C18.8104 8.43141 19.3382 6.5089 18.9361 4.8377C17.7298 5.17696 17.3654 6.911 17.0513 7.97906ZM4.98845 12C6.06908 11.4848 6.58427 9.85131 6.74762 8.73299H6.87327C6.99892 9.2733 7.33819 10.6681 8.01673 10.756C8.87118 10.8691 9.32353 8.95916 9.38636 8.35602H9.51201C9.78845 9.29843 10.0775 10.5298 11.0199 10.9948C11.3717 9.52461 10.957 7.96649 10.4167 6.59686C10.2785 6.24503 10.0021 5.29005 9.51201 5.29005C8.72039 5.29005 8.26803 7.38848 8.12981 7.97906H8.00416L6.99892 4.96335C5.2272 5.80524 4.27222 10.3037 4.98845 12ZM3.10364 13.5079C4.41044 19.2377 10.467 22.4796 15.9204 20.0545C17.9057 19.1749 19.4764 17.6042 20.3811 15.644C20.6199 15.1414 21.0722 14.2115 20.8083 13.5456C20.5445 12.8796 17.9434 13.9728 17.3026 14.2492C17.2146 14.2869 17.1518 14.3749 17.1267 14.4754C17.089 14.7518 17.2775 15.0157 17.5539 15.0534C17.5665 15.0534 17.579 15.0534 17.5916 15.0534L18.6848 15.1414C16.712 18.9613 11.3843 20.645 7.6272 17.5916C6.78531 16.9131 6.03139 16.1089 5.52877 15.1414C5.29002 14.6764 5.06385 14.0859 4.64919 13.7592C4.24709 13.4576 3.64395 13.3571 3.10364 13.5079Z" fill="black"/>
</svg>
