<svg width="24" height="24" viewBox="0 0 24 24" fill="none" xmlns="http://www.w3.org/2000/svg">
<g clip-path="url(#clip0)">
<path d="M5.64106 21.594L4.01606 18.7793C3.99089 18.728 3.97781 18.6716 3.97781 18.6145C3.97781 18.5573 3.99089 18.501 4.01606 18.4496L5.82043 15.3251C5.85217 15.2769 5.89471 15.2367 5.94467 15.2078C5.99464 15.1789 6.05066 15.162 6.10828 15.1585H9.71633C9.77405 15.162 9.83017 15.1789 9.88025 15.2078C9.93033 15.2367 9.973 15.2769 10.0049 15.3251L11.8093 18.4496C11.8348 18.5015 11.8481 18.5585 11.8481 18.6163C11.8481 18.674 11.8348 18.731 11.8093 18.7829L10.0049 21.9074C9.97316 21.9546 9.93117 21.994 9.88207 22.0228C9.83296 22.0515 9.778 22.0688 9.72129 22.0733H6.47767C6.31087 22.0626 6.14874 22.0139 6.00372 21.9308C5.85869 21.8477 5.73463 21.7325 5.64106 21.594ZM17.3585 15.1642L13.764 8.94068C13.7203 8.87487 13.662 8.82008 13.5936 8.78059C13.5252 8.7411 13.4486 8.718 13.3698 8.7131H6.1806C6.10178 8.718 6.02517 8.7411 5.95677 8.78059C5.88838 8.82008 5.83006 8.87487 5.7864 8.94068L2.19183 15.167C2.15651 15.2377 2.13812 15.3156 2.13812 15.3946C2.13812 15.4736 2.15651 15.5515 2.19183 15.6222L3.24539 17.4486L5.08876 14.2581C5.13871 14.1814 5.206 14.1176 5.2852 14.0718C5.3644 14.026 5.45328 13.9994 5.54464 13.9944H10.2807C10.372 13.9994 10.4609 14.026 10.5401 14.0718C10.6193 14.1176 10.6866 14.1814 10.7366 14.2581L13.1053 18.3603C13.1466 18.442 13.168 18.5322 13.168 18.6237C13.168 18.7152 13.1466 18.8054 13.1053 18.8871L11.2619 22.0775H13.3676C13.4465 22.0727 13.5232 22.0495 13.5916 22.0099C13.6601 21.9703 13.7183 21.9153 13.7618 21.8493L17.3564 15.6236C17.3927 15.5526 17.4119 15.474 17.4122 15.3942C17.4126 15.3143 17.3942 15.2356 17.3585 15.1642ZM23.8812 11.0457L18.3674 1.49133C18.274 1.34854 18.1483 1.22968 18.0005 1.14434C17.8528 1.059 17.687 1.00956 17.5166 1L6.48405 1C6.31367 1.00956 6.14792 1.059 6.00014 1.14434C5.85237 1.22968 5.7267 1.34854 5.63326 1.49133L0.117324 11.0457C0.0404279 11.1979 0.000366211 11.3661 0.000366211 11.5366C0.000366211 11.7072 0.0404279 11.8754 0.117324 12.0276L1.38145 14.217L5.04693 7.86727C5.10867 7.77274 5.19181 7.69409 5.28961 7.63767C5.38741 7.58126 5.49713 7.54867 5.60986 7.54255H13.9341C14.0468 7.54867 14.1566 7.58126 14.2544 7.63767C14.3522 7.69409 14.4353 7.77274 14.497 7.86727L18.6595 15.077C18.7105 15.1776 18.7371 15.2889 18.7371 15.4017C18.7371 15.5145 18.7105 15.6258 18.6595 15.7264L14.9948 22.0733H17.5166C17.687 22.0637 17.8528 22.0143 18.0005 21.9289C18.1483 21.8436 18.274 21.7248 18.3674 21.582L23.8834 12.0276C23.9603 11.8754 24.0003 11.7072 24.0003 11.5366C24.0003 11.3661 23.9603 11.1979 23.8834 11.0457H23.8812Z" fill="url(#paint0_linear)"/>
</g>
<defs>
<linearGradient id="paint0_linear" x1="6.00052" y1="21.9287" x2="18.0009" y2="1.14463" gradientUnits="userSpaceOnUse">
<stop stop-color="#FFDC00"/>
<stop offset="0.33" stop-color="#E58E2F"/>
<stop offset="0.67" stop-color="#DB2D72"/>
<stop offset="1" stop-color="#FF00FF"/>
</linearGradient>
<clipPath id="clip0">
<rect width="24" height="24" fill="white"/>
</clipPath>
</defs>
</svg>
