<svg width="24" height="24" viewBox="0 0 24 24" fill="none" xmlns="http://www.w3.org/2000/svg">
<g clip-path="url(#clip0)">
<path d="M17.1567 13.7011C17.1742 13.7026 17.1911 13.7083 17.2059 13.7178C17.2208 13.7272 17.2331 13.74 17.2419 13.7552C17.2506 13.7705 17.2556 13.7876 17.2564 13.8051C17.2571 13.8226 17.2536 13.8401 17.2462 13.856L12.1462 22.676C12.1367 22.6913 12.1235 22.7039 12.1079 22.7129C12.0923 22.7218 12.0747 22.7268 12.0567 22.7273H8.93892C8.9208 22.7273 8.90299 22.7226 8.88731 22.7135C8.87163 22.7044 8.85863 22.6913 8.84965 22.6756C8.84067 22.6598 8.83603 22.642 8.83619 22.6238C8.83634 22.6057 8.8413 22.588 8.85056 22.5724L13.9506 13.7524C13.9595 13.7369 13.9724 13.724 13.9879 13.715C14.0034 13.706 14.021 13.7012 14.0389 13.7011H17.1567ZM14.1251 11.1735C14.1071 11.173 14.0895 11.168 14.0739 11.1591C14.0583 11.1501 14.0452 11.1375 14.0357 11.1222L8.85056 2.15493C8.8413 2.13935 8.83634 2.12159 8.83619 2.10347C8.83603 2.08534 8.84067 2.0675 8.84965 2.05176C8.85863 2.03602 8.87163 2.02293 8.88731 2.01385C8.90299 2.00476 8.9208 1.99999 8.93892 2.00002H12.0567C12.0747 2.00053 12.0923 2.00548 12.1079 2.01442C12.1235 2.02337 12.1367 2.03604 12.1462 2.0513L17.3313 11.0186C17.3405 11.0342 17.3455 11.0519 17.3457 11.07C17.3458 11.0882 17.3412 11.106 17.3322 11.1217C17.3232 11.1375 17.3102 11.1506 17.2945 11.1597C17.2789 11.1687 17.2611 11.1735 17.2429 11.1735H14.1251Z" fill="#E31337"/>
<path d="M14.7415 2.1549C14.7319 2.13883 14.7268 2.12044 14.7269 2.10173C14.727 2.08302 14.7323 2.06469 14.7421 2.04873C14.7518 2.03277 14.7658 2.01979 14.7824 2.0112C14.799 2.00261 14.8177 1.99873 14.8364 1.99999H17.9585C17.9765 1.99995 17.9941 2.00468 18.0097 2.01369C18.0252 2.0227 18.038 2.03566 18.0469 2.05126L23.9913 12.3124C24.0004 12.3279 24.0052 12.3456 24.0052 12.3636C24.0052 12.3817 24.0004 12.3994 23.9913 12.4149L18.0469 22.676C18.038 22.6916 18.0252 22.7046 18.0097 22.7136C17.9941 22.7226 17.9765 22.7273 17.9585 22.7273H14.8364C14.8182 22.7275 14.8002 22.7229 14.7844 22.7139C14.7685 22.7049 14.7554 22.6918 14.7463 22.676C14.7372 22.6602 14.7324 22.6423 14.7325 22.6241C14.7326 22.6059 14.7376 22.588 14.7469 22.5724L20.6553 12.3636L14.7415 2.1549ZM12.204 12.3113C12.2136 12.3279 12.2186 12.3467 12.2186 12.3658C12.2186 12.385 12.2136 12.4038 12.204 12.4204L6.23237 22.676C6.22235 22.6906 6.20892 22.7026 6.19324 22.7109C6.17756 22.7191 6.1601 22.7234 6.14237 22.7234C6.12464 22.7234 6.10718 22.7191 6.0915 22.7109C6.07582 22.7026 6.06239 22.6906 6.05237 22.676L0.0141882 12.416C0.00461344 12.3994 -0.000427246 12.3806 -0.000427246 12.3614C-0.000427246 12.3423 0.00461344 12.3235 0.0141882 12.3069L5.98582 2.05126C5.99584 2.03663 6.00927 2.02467 6.02496 2.01641C6.04064 2.00814 6.0581 2.00382 6.07582 2.00382C6.09355 2.00382 6.11101 2.00814 6.12669 2.01641C6.14237 2.02467 6.15581 2.03663 6.16582 2.05126L12.204 12.3113Z" fill="#E31337"/>
</g>
<defs>
<clipPath id="clip0">
<rect width="24" height="24" fill="white"/>
</clipPath>
</defs>
</svg>
