<svg width="24" height="24" viewBox="0 0 24 24" fill="none" xmlns="http://www.w3.org/2000/svg">
<path fill-rule="evenodd" clip-rule="evenodd" d="M20.8375 7.82881L19.3462 5.17938L22.2358 5.18053C22.3128 5.18053 22.4035 5.23223 22.4449 5.30116C22.4909 5.37699 22.7252 5.76418 23.0079 6.22835C23.3457 6.78443 23.7489 7.44966 23.9799 7.82881H20.8375ZM15.4927 23.8748C15.4226 24 15.3318 24 15.302 24H14.1209C13.4958 24 12.7754 23.9989 12.3457 23.9989L16.9369 15.7564C17.0564 15.5439 16.9794 15.2739 16.7669 15.1555C16.7014 15.1188 16.6278 15.0992 16.5531 15.0992L8.72889 15.1096L7.17209 12.4153H18.5695C18.5707 12.4153 18.5718 12.4153 18.573 12.4153C18.5741 12.4153 18.5753 12.4153 18.5764 12.4153C18.5833 12.4153 18.5891 12.413 18.5948 12.413C18.6201 12.4119 18.6454 12.4084 18.6706 12.4027C18.689 12.3981 18.7086 12.3924 18.7258 12.3855C18.735 12.382 18.7453 12.3774 18.7545 12.374C18.843 12.3361 18.9165 12.2694 18.9636 12.1844L20.8421 8.71119H23.9443L15.4927 23.8748ZM11.5829 23.5611C11.4829 23.3968 11.3531 23.1831 11.2117 22.951C10.7372 22.1675 10.1294 21.1644 10.0605 21.0541C10.0375 21.0174 10.0272 20.9266 10.0754 20.8393C10.1857 20.6417 12.263 16.8985 12.7697 15.9862L15.804 15.9828L11.5829 23.5611ZM6.40919 18.4036L4.90064 15.7243L6.42068 12.8749L7.94532 15.514C7.47196 16.4067 6.73204 17.7981 6.40919 18.4036ZM4.38477 18.8206C3.61728 18.8206 2.85323 18.8206 2.74179 18.8206C2.66711 18.8206 2.57634 18.7678 2.53498 18.7L2.04438 17.8911C1.69396 17.3144 1.24702 16.5779 1 16.1712H4.14119L5.63251 18.8206C5.30736 18.8206 4.84664 18.8206 4.38477 18.8206ZM9.48604 0.126382C9.55613 0 9.64689 0 9.67562 0H12.6433L8.03953 8.24242C8.03609 8.24932 8.03379 8.25621 8.03034 8.26425C8.02345 8.27804 8.0177 8.29183 8.01196 8.30676C8.00736 8.32055 8.00277 8.33434 7.99932 8.34928C7.99587 8.36421 7.99243 8.3757 7.99013 8.38949C7.98783 8.40557 7.98553 8.42166 7.98553 8.43889C7.98553 8.44579 7.98323 8.45268 7.98323 8.46072C7.98323 8.46647 7.98438 8.47106 7.98553 8.47681C7.98553 8.49289 7.98783 8.50898 7.99013 8.52506C7.99128 8.53885 7.99357 8.55149 7.99702 8.56527C8.00047 8.57906 8.00506 8.59285 8.00966 8.60664C8.01426 8.62042 8.01885 8.63306 8.0246 8.64685C8.03034 8.66063 8.03723 8.67212 8.04413 8.68361C8.05102 8.6951 8.05791 8.70774 8.06711 8.71923C8.07515 8.73072 8.08434 8.74221 8.09468 8.75255C8.10387 8.76289 8.11306 8.77323 8.1234 8.78357C8.13374 8.79391 8.14408 8.8008 8.15557 8.81C8.16821 8.81919 8.18085 8.82838 8.19349 8.83642C8.19808 8.83987 8.20268 8.84332 8.20728 8.84676C8.21187 8.85021 8.21762 8.85021 8.22336 8.85365C8.24634 8.86514 8.27047 8.87548 8.2946 8.88238C8.30379 8.88468 8.31183 8.88812 8.32102 8.89042C8.35319 8.89846 8.38651 8.90306 8.42098 8.90306C8.42098 8.90306 8.42098 8.90306 8.42213 8.90306H8.42328H8.6186C8.61974 8.90306 8.62089 8.90306 8.62089 8.90306L16.2487 8.89272C16.4509 9.24314 16.8277 9.90378 17.1483 10.4656C17.3942 10.8976 17.5987 11.2538 17.7595 11.5341H6.40804C6.40345 11.5341 6.39885 11.5353 6.39311 11.5364C6.2334 11.5376 6.08749 11.6272 6.01166 11.7673L4.132 15.29H1.03562C2.38791 12.86 9.39528 0.287233 9.48604 0.126382ZM13.4016 0.449232L13.6774 0.903059C14.1611 1.70157 14.8447 2.82867 14.9171 2.94586C14.94 2.98262 14.9504 3.07339 14.9021 3.16071L12.209 8.01149L9.17583 8.01494L13.4016 0.449232ZM18.5684 5.59414L20.0769 8.27459L18.5385 11.1182C18.3547 10.7988 18.1272 10.399 17.9135 10.0244C17.4907 9.2845 17.1828 8.74566 17.0093 8.44464C17.339 7.84489 18.2053 6.25592 18.5684 5.59414Z" fill="black"/>
</svg>
