<svg width="24" height="24" viewBox="0 0 24 24" fill="none" xmlns="http://www.w3.org/2000/svg">
<path d="M12 24C18.6274 24 24 18.6274 24 12C24 5.37258 18.6274 0 12 0C5.37258 0 0 5.37258 0 12C0 18.6274 5.37258 24 12 24Z" fill="#292929"/>
<path fill-rule="evenodd" clip-rule="evenodd" d="M11.2552 13.9928C11.2552 13.6478 11.2567 13.3035 11.2545 12.9593C11.2537 12.8633 11.2815 12.7898 11.3708 12.7508C11.4533 12.7148 11.5395 12.7403 11.6115 12.8243C11.826 13.0748 12.039 13.3268 12.2527 13.5788C12.3277 13.6665 12.4035 13.7535 12.4763 13.8443C12.4933 13.8657 12.5033 13.8919 12.5048 13.9193C12.5063 14.283 12.507 14.6468 12.5055 15.0098C12.5075 15.1698 12.4491 15.3247 12.3419 15.4435C12.2347 15.5624 12.0866 15.6365 11.9272 15.651C11.768 15.6612 11.6108 15.6107 11.4872 15.5097C11.3636 15.4087 11.2829 15.2646 11.2613 15.1065C11.2545 15.0653 11.2552 15.0225 11.2552 14.9805V13.9928ZM11.2575 7.23525C11.2568 7.22025 11.2552 7.206 11.2552 7.191V5.142C11.256 4.827 11.472 4.5615 11.7645 4.50975C11.8547 4.49297 11.9475 4.49631 12.0363 4.51954C12.1251 4.54277 12.2076 4.58531 12.278 4.64413C12.3485 4.70295 12.405 4.7766 12.4437 4.85981C12.4824 4.94302 12.5022 5.03375 12.5018 5.1255C12.5093 5.82375 12.5047 6.52275 12.5062 7.221L12.5025 7.257C12.357 7.008 12.156 6.8835 11.8815 6.88425C11.61 6.88425 11.4075 7.00425 11.2575 7.23525ZM11.2552 16.695C11.4082 16.9275 11.6122 17.046 11.886 17.0453C12.159 17.0445 12.3577 16.92 12.5062 16.689V18.4245C12.5055 18.5948 12.5107 18.7665 12.4957 18.9345C12.4812 19.0948 12.4051 19.2432 12.2834 19.3485C12.1617 19.4538 12.004 19.5079 11.8433 19.4993C11.6847 19.4886 11.5361 19.4184 11.4273 19.3026C11.3185 19.1868 11.2575 19.0341 11.2568 18.8753C11.253 18.2055 11.2552 17.5358 11.2552 16.8653V16.695ZM12.5062 10.0755V11.3213C12.5062 11.4398 12.4687 11.5043 12.3787 11.5403C12.3322 11.5594 12.2807 11.5629 12.232 11.5502C12.1832 11.5375 12.14 11.5092 12.1088 11.4698L11.5657 10.8338C11.472 10.7243 11.3783 10.6155 11.286 10.5038C11.2683 10.4826 11.2578 10.4563 11.256 10.4288C11.2545 9.89325 11.2538 9.357 11.256 8.8215C11.255 8.66334 11.3135 8.5106 11.42 8.39361C11.5264 8.27661 11.673 8.20393 11.8305 8.19C12.1267 8.157 12.4208 8.3775 12.4897 8.688C12.501 8.73975 12.5048 8.79375 12.5048 8.847C12.5063 9.2565 12.5062 9.666 12.5062 10.0755ZM13.8045 7.54275V5.87775C13.806 5.57625 13.9777 5.33025 14.2448 5.24625C14.6497 5.118 15.0548 5.424 15.057 5.865C15.0592 6.2805 15.057 6.696 15.057 7.11075V9.207C15.057 9.51675 14.871 9.76725 14.5868 9.8445C14.217 9.94425 13.8398 9.672 13.809 9.28275C13.8063 9.24457 13.805 9.20629 13.8052 9.168V7.54275H13.8045ZM10.0215 15.57V17.4938C10.0243 17.6441 9.97357 17.7905 9.87836 17.9069C9.78314 18.0233 9.64966 18.102 9.50175 18.129C9.14175 18.198 8.7825 17.9055 8.772 17.5313C8.769 17.424 8.77125 17.3168 8.77125 17.2095V13.6448C8.77125 13.3455 8.96325 13.0928 9.24225 13.0208C9.33473 12.9974 9.43133 12.9956 9.52464 13.0153C9.61796 13.035 9.70553 13.0758 9.78065 13.1346C9.85578 13.1934 9.91647 13.2685 9.95808 13.3543C9.9997 13.4402 10.0211 13.5344 10.0208 13.6298C10.023 14.2763 10.0208 14.9235 10.0208 15.57H10.0215ZM10.0215 8.4855V11.1098C10.0243 11.2553 9.97695 11.3974 9.88735 11.5121C9.79775 11.6268 9.67139 11.7072 9.5295 11.7398C9.43861 11.7591 9.34455 11.758 9.25413 11.7365C9.16371 11.7151 9.0792 11.6738 9.0067 11.6156C8.9342 11.5575 8.87554 11.484 8.83495 11.4004C8.79435 11.3168 8.77285 11.2252 8.772 11.1323C8.76825 10.7528 8.77125 10.374 8.7705 9.9945V5.865C8.7705 5.556 8.9715 5.298 9.26025 5.23275C9.35205 5.2126 9.44721 5.21338 9.53867 5.23501C9.63013 5.25664 9.71555 5.29859 9.78859 5.35773C9.86163 5.41687 9.92043 5.49169 9.96062 5.57665C10.0008 5.66161 10.0214 5.75452 10.0208 5.8485C10.023 6.52275 10.0208 7.19625 10.0208 7.8705L10.0215 8.4855ZM13.8045 14.625V11.775C13.8045 11.4908 13.926 11.28 14.1795 11.1615C14.586 10.9733 15.042 11.274 15.057 11.7338V17.4698C15.057 17.7833 14.8777 18.0323 14.595 18.1133C14.2245 18.2198 13.8405 17.9483 13.809 17.5575C13.8062 17.5176 13.8049 17.4775 13.8052 17.4375V14.6235L13.8045 14.625ZM17.625 11.7255V16.1805C17.6287 16.329 17.5804 16.474 17.4885 16.5907C17.3966 16.7073 17.2669 16.7883 17.1217 16.8195C16.7528 16.8998 16.3853 16.605 16.3748 16.2203V7.28025C16.3748 6.9915 16.5195 6.76125 16.764 6.65925C17.1765 6.48675 17.6243 6.79725 17.6243 7.25775V11.7248L17.625 11.7255ZM7.62525 11.7188V16.1805C7.62525 16.4955 7.43025 16.7483 7.13625 16.818C6.76125 16.908 6.3855 16.6125 6.375 16.2188V7.266C6.375 6.95925 6.55875 6.71025 6.84 6.63225C6.93227 6.608 7.02886 6.60518 7.12239 6.62399C7.21591 6.64281 7.30389 6.68277 7.3796 6.74082C7.45531 6.79887 7.51674 6.87346 7.55919 6.9589C7.60163 7.04434 7.62397 7.13835 7.6245 7.23375C7.62825 7.725 7.62525 8.217 7.62525 8.709V11.718V11.7188Z" fill="white"/>
</svg>
