<svg width="24" height="24" viewBox="0 0 24 24" fill="none" xmlns="http://www.w3.org/2000/svg">
<g clip-path="url(#clip0)">
<path d="M12.0176 23.0125C18.09 23.0125 23.0126 18.0899 23.0126 12.0176C23.0126 5.94522 18.09 1.02261 12.0176 1.02261C5.94526 1.02261 1.02264 5.94522 1.02264 12.0176C1.02264 18.0899 5.94526 23.0125 12.0176 23.0125Z" fill="white"/>
<path d="M12.6265 6.20261e-06C10.2473 -0.128025 7.88389 0.454247 5.83652 1.6728C3.78916 2.89136 2.15035 4.69117 1.12843 6.84344C0.106508 8.99571 -0.252377 11.4032 0.0973967 13.76C0.44717 16.1167 1.4898 18.3163 3.09276 20.079C4.69572 21.8417 6.7866 23.0879 9.09963 23.6593C11.4126 24.2308 13.8433 24.1015 16.0827 23.288C18.3221 22.4745 20.269 21.0136 21.676 19.0908C23.083 17.1681 23.8865 14.8704 23.9844 12.4898C24.1071 9.33451 22.9853 6.25727 20.8609 3.92109C18.7364 1.5849 15.7792 0.176748 12.6265 6.20261e-06ZM11.9629 19.8667C8.0989 19.8667 5.13257 15.9636 6.10834 12.2166C6.4385 11.062 6.95248 9.96819 7.63053 8.97708C8.77519 7.24222 10.068 5.60984 11.4946 4.09823C11.8459 3.70793 12.1191 3.70793 12.4703 4.0592C14.146 5.79494 15.6131 7.7205 16.8418 9.79672C17.5443 11.0847 18.0908 12.4118 18.0517 13.8949C17.9868 15.4795 17.3214 16.98 16.1906 18.0919C15.0598 19.2039 13.5484 19.8439 11.9629 19.8823V19.8667Z" fill="#168DFF"/>
</g>
<defs>
<clipPath id="clip0">
<rect width="24" height="24" fill="white"/>
</clipPath>
</defs>
</svg>
