<svg width="24" height="24" viewBox="0 0 24 24" fill="none" xmlns="http://www.w3.org/2000/svg">
<path d="M12 24C18.6274 24 24 18.6274 24 12C24 5.37258 18.6274 0 12 0C5.37258 0 0 5.37258 0 12C0 18.6274 5.37258 24 12 24Z" fill="#4CB8D1"/>
<path fill-rule="evenodd" clip-rule="evenodd" d="M7.59222 6.21225L7.89072 5.6745C7.96095 5.5464 8.06422 5.43946 8.18979 5.36481C8.31536 5.29015 8.45864 5.25051 8.60472 5.25H15.321C15.5992 5.25 15.858 5.394 16.0087 5.631H19.0522V10.986L19.389 11.5785C19.4618 11.707 19.5001 11.8523 19.5001 12C19.5001 12.1477 19.4618 12.293 19.389 12.4215L19.0522 13.014V15.318L16.4745 17.5515L16.0305 18.3323C15.9597 18.4584 15.8568 18.5636 15.7322 18.637C15.6075 18.7104 15.4656 18.7494 15.321 18.75H8.60472C8.45864 18.7495 8.31536 18.7098 8.18979 18.6352C8.06422 18.5605 7.96095 18.4536 7.89072 18.3255L7.87197 18.2925H4.87347V12.8925L4.60722 12.4133C4.53709 12.2865 4.50031 12.1441 4.50031 11.9992C4.50031 11.8544 4.53709 11.712 4.60722 11.5852L4.87347 11.106V8.68125L7.59222 6.21225ZM8.60472 6.08925L5.32122 12L8.60472 17.9108H15.321L18.6787 12L15.321 6.08925H8.60472ZM8.90847 6.62325H15.0202L18.075 12L15.0202 17.3775H8.90847L5.92122 12L8.90847 6.62325ZM10.3207 8.91075L8.67897 11.9618L10.3215 15.0128H13.8285L15.4702 11.9618L13.8277 8.91075H10.3207Z" fill="white"/>
</svg>
