<svg width="24" height="24" viewBox="0 0 24 24" fill="none" xmlns="http://www.w3.org/2000/svg">
<path d="M2.25053 22.512L0 16.027L4.27162 11.0839L2.20666 5.20287L6.70434 0L13.4559 1.28891L15.5411 7.28132L21.7596 8.4825L24 14.9776L19.5158 20.1636L13.1961 18.9388L9.02235 23.7942L2.25053 22.512Z" fill="white"/>
<path d="M12.1467 16.8941L11.3302 17.3429C11.4466 17.5899 11.5425 17.8461 11.617 18.1088C11.698 18.3383 11.6912 18.2472 11.4078 18.5677C11.3572 18.6251 11.3504 18.6419 11.2863 18.7094L10.4361 19.6778C10.3787 19.7351 10.3787 19.779 10.3247 19.8296L10.21 19.9612C10.1633 20.0025 10.1214 20.0489 10.0852 20.0995L9.8321 20.3762C9.79443 20.4408 9.74658 20.4989 9.69039 20.5483L8.87048 21.4897C8.81312 21.5504 8.4116 22.0363 8.37111 22.043L3.47867 21.1017C3.48594 21.0789 3.49778 21.058 3.51344 21.04C3.5291 21.022 3.54827 21.0074 3.56977 20.9971C3.60013 20.9633 3.59676 20.9296 3.64737 20.8722L3.71148 20.8115C3.72239 20.7994 3.73148 20.7857 3.73847 20.771C3.77184 20.7304 3.80792 20.692 3.84644 20.6563C3.88356 20.6158 3.89368 20.5854 3.93417 20.5449C3.95698 20.5328 3.97663 20.5154 3.99153 20.4943L5.20958 19.0738C5.25011 19.0483 5.2828 19.0121 5.30406 18.9692C5.33279 18.9257 5.36941 18.8879 5.41203 18.8579C5.47951 18.7836 5.43565 18.7938 5.493 18.7364L5.88777 18.291C5.91634 18.2465 5.95162 18.2067 5.99237 18.1729L6.57947 17.4981C6.81903 17.1607 6.77854 17.4981 6.39726 16.3307C6.2623 15.9157 6.09697 15.4939 5.96875 15.0789C5.70895 14.2455 5.34792 13.3918 5.10161 12.5719L6.64357 12.8688C6.7461 12.7542 6.84186 12.6336 6.93037 12.5078C6.99882 12.4573 7.05246 12.3893 7.08569 12.3109C7.11892 12.2326 7.13054 12.1468 7.11932 12.0624L4.75745 11.5968C4.59887 11.833 3.40781 13.132 3.13113 13.4897L2.88482 13.7731L1.02907 15.919C0.993614 15.9652 0.955299 16.0092 0.914346 16.0506C0.796252 16.1822 0.84349 16.2396 0.97508 16.577L1.50144 18.0919C1.58242 18.3349 1.68364 18.5947 1.76462 18.8444C1.93333 19.3471 2.10203 19.8296 2.28086 20.3458L2.80384 21.8574L4.28845 22.1442C4.78782 22.2455 5.30068 22.3332 5.77306 22.4344L6.51536 22.5761C6.95737 22.6571 8.53982 22.9878 8.76251 22.9878C8.78639 22.9343 8.82217 22.887 8.86711 22.8494L10.9591 20.4235C11.1615 20.221 11.6001 19.6677 11.8228 19.4112C11.8768 19.3539 11.8971 19.3235 11.9443 19.2661L12.6798 18.4091C12.6637 18.3471 12.6434 18.2862 12.6191 18.2269L12.2041 17.0865C12.1761 17.0186 12.1535 16.9487 12.1366 16.8773" fill="#3AB54A"/>
<path d="M7.96965 3.52257C7.90892 3.59342 5.94519 4.69001 5.67189 4.87221C5.53018 4.95993 5.33448 4.99705 5.36484 5.15226L5.95869 7.57487C6.10715 8.20582 6.2961 8.85365 6.44456 9.48123C6.54371 9.80189 6.62148 10.1288 6.67737 10.4597C6.78911 10.7729 6.87598 11.0945 6.93718 11.4213L7.0384 11.472H7.16999L10.6993 12.1468C10.7854 12.1698 10.8735 12.1845 10.9625 12.1906C11.0536 12.0631 11.154 11.9425 11.2628 11.8296C11.3674 11.6946 11.472 11.6035 11.5664 11.4618C11.5057 11.229 11.4416 11.0131 11.3741 10.787C11.3475 10.734 11.3354 10.6748 11.3389 10.6156C11.3425 10.5563 11.3616 10.4991 11.3944 10.4496L11.9815 9.77478C12.1603 9.56559 12.3189 9.43737 12.2615 9.23493C12.2042 9.03248 11.7419 7.21046 11.6441 6.99115C11.4701 7.13045 11.3148 7.29147 11.1818 7.47027C11.1109 7.56137 11.0333 7.63223 10.9659 7.71995C10.8985 7.80699 10.8228 7.88722 10.7398 7.95951L10.065 5.34121C9.99749 5.06791 9.49137 2.94897 9.39015 2.74315L7.96965 3.52257Z" fill="white"/>
<path d="M16.3644 11.0806L16.83 10.8309C17.2723 10.5554 17.7374 10.3183 18.2201 10.1223C18.5487 11.0882 18.8235 12.0716 19.0434 13.0679C18.6473 13.3253 18.2373 13.5607 17.8152 13.7731C17.6094 13.8811 17.4137 13.9992 17.2012 14.1105L16.5972 14.4479C16.562 14.5219 16.5127 14.5884 16.4521 14.6436L16.1957 14.9034C16.1756 14.9416 16.1518 14.9777 16.1248 15.0114L14.981 16.3104C14.9468 16.3356 14.9172 16.3664 14.8933 16.4015C14.789 16.5378 14.6763 16.6673 14.5559 16.7895L14.3028 17.0662C14.2185 17.2113 14.07 17.3125 13.9654 17.461L18.895 18.4024L19.0839 18.1729C19.1413 18.0953 19.1413 18.1358 19.1919 18.0649C19.2857 17.9375 19.3871 17.8158 19.4955 17.7005L20.113 16.9886C20.1464 16.9508 20.1779 16.9114 20.2075 16.8705C20.329 16.7187 20.3526 16.7254 20.5078 16.5095C20.5584 16.4386 20.5618 16.4757 20.6191 16.3981L20.8216 16.1586C20.9329 16.0506 21.0982 15.8212 21.1286 15.8009L21.439 15.4466C21.4863 15.396 21.493 15.3724 21.5369 15.3252L22.0565 14.7347C22.0858 14.6938 22.1198 14.6565 22.1577 14.6234C22.0565 14.2488 21.5065 12.7204 21.3412 12.2615C21.2062 11.8768 21.0679 11.472 20.9194 11.0772L20.582 10.0177C20.5839 9.99075 20.5839 9.96369 20.582 9.93673L20.5314 9.8625L15.6356 8.92113L16.3644 11.0806Z" fill="#02833D"/>
<path d="M6.93714 11.4112C6.87543 11.0878 6.78856 10.7696 6.67733 10.4597C6.38328 10.4328 6.09205 10.3809 5.80681 10.3045L5.69884 10.2674L6.07337 9.85238C6.10509 9.81595 6.13124 9.77501 6.15097 9.73091C6.17973 9.70216 6.21015 9.67512 6.24207 9.64993C6.31456 9.59785 6.37262 9.52818 6.41078 9.44749C6.42148 9.44535 6.4326 9.44727 6.44195 9.45289C6.45131 9.4585 6.45824 9.4674 6.46139 9.47785C6.3163 8.85027 6.12398 8.20244 5.97552 7.57149L5.37155 5.14888C5.3939 5.0795 5.43399 5.01716 5.48785 4.96804C5.5417 4.91892 5.60746 4.88472 5.6786 4.86883C5.94853 4.7035 7.91563 3.60691 7.97636 3.51919C7.88339 3.39016 7.82212 3.24105 7.79753 3.08393C7.65245 2.64192 7.46012 2.18979 7.33191 1.73429L12.2311 2.66891L12.8688 4.48756C13.0578 5.08477 13.2872 5.70223 13.4964 6.29607C13.6077 6.60312 13.7056 6.91016 13.8136 7.21721C13.9215 7.52425 13.8574 7.41628 13.7056 7.6086C13.6835 7.63686 13.6586 7.66285 13.6314 7.68621C13.6052 7.71364 13.5825 7.74425 13.5639 7.77731L13.4289 7.92914C13.3783 7.99325 13.3344 8.02699 13.2838 8.09447C13.2332 8.16195 13.1927 8.19232 13.1387 8.2598C13.1165 8.28799 13.0917 8.31398 13.0645 8.33741C13.0227 8.39792 12.974 8.4534 12.9194 8.50274C12.8963 8.52464 12.8779 8.55106 12.8654 8.58034C12.7946 8.68831 12.8148 8.61408 12.7204 8.74905C12.6259 8.88401 12.6799 8.76929 12.5753 8.91438C12.5554 8.94475 12.5289 8.97015 12.4977 8.98861L12.3053 9.24504C12.2846 9.23717 12.2661 9.22444 12.2514 9.20793C12.2918 9.4205 12.1501 9.54534 11.9713 9.74778L11.3842 10.4226C11.3515 10.4721 11.3323 10.5294 11.3288 10.5886C11.3252 10.6478 11.3374 10.707 11.364 10.76C11.4314 10.9895 11.4956 11.2054 11.5563 11.4348C11.6133 11.3825 11.6653 11.3249 11.7115 11.2628L12.3425 10.5407C12.6799 10.1527 13.3108 9.38338 13.6145 9.06959C13.6445 9.03959 13.6716 9.00683 13.6955 8.97174L14.7077 7.78405C14.9506 7.52762 14.8562 7.58161 14.6031 6.81906L13.7225 4.28848C13.6583 4.10966 13.6145 3.95107 13.547 3.77899C13.3749 3.35048 13.2096 2.72627 13.0173 2.24715C12.8621 1.82876 12.9498 1.90974 12.717 1.8625L7.25768 0.809782C7.1575 0.787148 7.05611 0.77025 6.95401 0.759171L5.21972 2.78363L5.16236 2.85786L3.08054 5.25348C2.96919 5.38169 3.08054 5.50991 3.20201 5.87431L4.38632 9.29565C4.43018 9.43399 4.48754 9.58245 4.53478 9.72416L5.01727 11.0299C5.32195 11.1331 5.63618 11.2054 5.95527 11.2459L6.93714 11.4112Z" fill="#3AB54A"/>
<path d="M11.7318 12.0759C11.7993 12.302 11.86 12.5247 11.9207 12.7507C11.9654 12.9762 12.0415 13.1942 12.1468 13.3985C12.5281 13.2096 12.8587 13.0443 13.2164 12.8418C13.8608 12.4774 14.7044 12.0354 15.3218 11.6676C15.5344 11.5394 16.2261 11.1919 16.3644 11.0772L15.6356 8.93123L20.5382 9.87598L20.582 9.95021C20.5931 9.97649 20.6021 10.0036 20.609 10.0312L20.9667 11.067C21.105 11.4652 21.2434 11.8667 21.3783 12.2513C21.5437 12.7237 22.0936 14.2522 22.1949 14.6132C22.157 14.6463 22.123 14.6837 22.0936 14.7246L21.5943 15.315C21.5504 15.3623 21.5437 15.3859 21.4964 15.4365L21.1725 15.7908C21.1421 15.8178 20.9768 16.0405 20.8655 16.1484L20.663 16.388C20.6057 16.4656 20.6023 16.4285 20.5517 16.4993C20.3965 16.7153 20.3729 16.7085 20.2514 16.8604C20.2185 16.9015 20.1836 16.9409 20.1468 16.9785L19.526 17.7039C19.4176 17.8192 19.3162 17.9409 19.2223 18.0683C19.1717 18.1392 19.1717 18.0987 19.1143 18.1763L18.9254 18.4057L14.0059 17.4643C14.097 17.3159 14.2455 17.2147 14.3433 17.0696L14.5964 16.7929C14.7111 16.6444 14.8225 16.5432 14.9338 16.4049C14.9577 16.3698 14.9874 16.339 15.0215 16.3138L16.1586 15.0147C16.1856 14.9811 16.2093 14.9449 16.2295 14.9068L16.4791 14.6301C16.5433 14.5782 16.5933 14.5109 16.6242 14.4344L12.7744 16.5533C12.8452 16.8266 13.2839 17.9401 13.3513 18.2404L18.5508 19.2526C18.6824 19.2796 19.1953 19.3606 19.2864 19.4044C19.3471 19.31 19.4585 19.2054 19.5293 19.1143L23.2408 14.846L22.7077 13.3952C22.5492 13.0004 22.1071 11.6744 21.9654 11.256L21.213 9.11006L16.7592 8.24966C16.2666 8.14844 15.747 8.07083 15.278 7.95949C15.2515 8.00886 15.2199 8.05524 15.1835 8.09783L13.4964 10.0312C13.4289 10.1155 13.3513 10.1931 13.2771 10.2775L11.9477 11.8093L11.7149 12.0725" fill="#3AB54A"/>
<path d="M11.3303 17.3429L10.4159 17.8524C10.3214 17.9098 10.2202 17.9671 10.119 18.0211C9.91652 18.1291 9.7107 18.2505 9.51162 18.3585C9.30936 18.4841 9.09449 18.5881 8.87054 18.6689C8.6546 18.1055 7.83469 14.8191 7.7301 14.6504C7.58537 14.7876 7.45221 14.9366 7.33195 15.0958C7.25097 15.1835 7.20036 15.2375 7.12276 15.3286C7.09177 15.3712 7.05674 15.4107 7.01816 15.4467C6.98531 15.4744 6.95484 15.5049 6.92706 15.5378C6.74858 15.0957 6.61079 14.6383 6.51542 14.1712C6.4434 13.9375 6.38482 13.6998 6.33997 13.4593C6.33717 13.3976 6.34677 13.3359 6.36821 13.278C6.38966 13.22 6.4225 13.1669 6.46481 13.1219C6.53904 13.0342 6.58965 12.9701 6.66051 12.879L5.11854 12.582C5.36485 13.4121 5.72588 14.2691 5.98569 15.089C6.1139 15.504 6.27923 15.9258 6.4142 16.3408C6.79547 17.5082 6.83596 17.1843 6.5964 17.5082L4.00509 20.5179C3.98345 20.5317 3.96409 20.5488 3.94773 20.5686C3.92098 20.6076 3.89167 20.6448 3.86 20.6799C3.82147 20.7157 3.7854 20.754 3.75203 20.7946C3.74503 20.8093 3.73594 20.823 3.72504 20.8351L3.65418 20.8958C3.60357 20.9532 3.62381 20.9701 3.57657 21.0207C3.53569 21.0448 3.50373 21.0815 3.48547 21.1253L8.37792 22.0667C8.55474 21.8918 8.72146 21.7071 8.87729 21.5133L9.6972 20.5618C9.75143 20.5106 9.79904 20.4528 9.83891 20.3897L10.092 20.113C10.1283 20.0624 10.1701 20.016 10.2168 19.9747L10.3315 19.8431C10.3855 19.7925 10.3855 19.7486 10.4429 19.6913L11.2932 18.7229C11.3573 18.6554 11.364 18.6386 11.4146 18.5812C11.698 18.2438 11.7048 18.3518 11.6238 18.1223C11.5493 17.8596 11.4534 17.6034 11.337 17.3564" fill="#02833D"/>
<path d="M16.3644 11.0806C16.2261 11.1953 15.5344 11.5428 15.3218 11.671C14.7044 12.0388 13.8608 12.4808 13.2164 12.8452C12.8587 13.0477 12.5416 13.213 12.1468 13.4019C12.0415 13.1976 11.9654 12.9796 11.9207 12.7541C11.86 12.5247 11.7993 12.302 11.7318 12.0793L11.3404 12.5415L12.7339 16.5567L16.5838 14.4378L17.1877 14.1004C17.4003 13.989 17.596 13.8709 17.8018 13.763C18.2238 13.5506 18.6338 13.3152 19.03 13.0578C18.8141 12.0652 18.5438 11.0852 18.2202 10.1223C17.7415 10.3244 17.2809 10.5671 16.8436 10.8477L16.3644 11.0806Z" fill="white"/>
<path d="M6.65036 12.8823C6.5795 12.9734 6.52889 13.0375 6.45466 13.1252C6.41236 13.1703 6.37951 13.2234 6.35807 13.2813C6.33663 13.3393 6.32702 13.4009 6.32982 13.4627C6.3748 13.702 6.43338 13.9386 6.50527 14.1712C6.59965 14.644 6.73745 15.1071 6.91691 15.5546C6.94469 15.5218 6.97517 15.4913 7.00802 15.4635C7.0466 15.4276 7.08162 15.388 7.11261 15.3454C7.19022 15.2543 7.24083 15.2003 7.32181 15.1126C7.44206 14.9535 7.57523 14.8045 7.71995 14.6672C7.82455 14.8359 8.64445 18.1223 8.8604 18.6858C9.08435 18.605 9.29921 18.5009 9.50148 18.3754C9.70055 18.264 9.90637 18.1425 10.1088 18.0379C10.21 17.984 10.3113 17.9266 10.4057 17.8692L11.3302 17.3597L12.1468 16.911C12.1112 16.834 12.0829 16.7538 12.0624 16.6714L10.7128 12.7777L7.60186 12.1704C7.45128 12.132 7.29781 12.106 7.14298 12.0928C7.15419 12.1771 7.14258 12.2629 7.10935 12.3413C7.07611 12.4196 7.02248 12.4876 6.95403 12.5382C6.86551 12.664 6.76975 12.7845 6.66723 12.8992" fill="white"/>
<path d="M7.96964 3.52258L9.38001 2.73979C9.48461 2.94561 9.99073 5.06455 10.0548 5.33785L10.7297 7.95616C10.8126 7.88387 10.8884 7.80363 10.9557 7.7166C11.0232 7.62887 11.1008 7.55801 11.1717 7.46691C11.3046 7.28811 11.46 7.12709 11.6339 6.98779C11.7318 7.19023 12.2075 8.97514 12.2514 9.23157C12.2704 9.24234 12.2885 9.25476 12.3054 9.26868L12.4842 9.01225C12.5156 8.99399 12.5422 8.96855 12.5618 8.93802C12.6664 8.79293 12.636 8.87391 12.7069 8.77269C12.7777 8.67147 12.7811 8.71196 12.852 8.60398C12.8594 8.57218 12.8787 8.54443 12.906 8.52638C12.9597 8.47624 13.0083 8.42085 13.051 8.36105C13.0842 8.34484 13.1105 8.31732 13.1253 8.28344C13.1691 8.22455 13.2177 8.16927 13.2704 8.11811C13.3243 8.05063 13.3648 8.01689 13.4154 7.95278L13.5504 7.80095C13.569 7.76789 13.5917 7.73729 13.6179 7.70985C13.6451 7.68649 13.67 7.6605 13.6921 7.63224C13.844 7.43992 13.9013 7.52427 13.8001 7.24085C13.6989 6.95742 13.5943 6.62676 13.4829 6.31972C13.2737 5.72587 13.0443 5.10841 12.8553 4.5112L12.2311 2.6993L7.31506 1.74443C7.45678 2.19319 7.65247 2.64532 7.78069 3.09407C7.80414 3.25151 7.86551 3.40089 7.95952 3.52933" fill="#02833D"/>
<path d="M6.67738 10.4597C6.62178 10.1265 6.54401 9.79735 6.44457 9.47449C6.44457 9.44749 6.41082 9.44749 6.41082 9.44749C6.37653 9.53233 6.32071 9.60676 6.24887 9.66344C6.20163 9.7208 6.20163 9.68706 6.15777 9.74442C6.14371 9.79134 6.11683 9.83341 6.08016 9.86588L5.71576 10.2708L5.82373 10.3079C6.10897 10.3843 6.40019 10.4362 6.69425 10.4631" fill="#128241"/>
</svg>
