<svg width="24" height="24" viewBox="0 0 24 24" fill="none" xmlns="http://www.w3.org/2000/svg">
<path d="M9.78306 23.8983L12.8949 20.4C12.9559 20.339 12.9153 20.2576 12.8339 20.2576H9.39662C9.37628 20.2576 9.3356 20.2373 9.3356 20.2169L6.42713 16.9627C6.40679 16.922 6.38645 16.9017 6.40679 16.861L11.2881 8.50169C11.3085 8.46101 11.3085 8.44067 11.2881 8.42034L9.27459 4.94237C9.23391 4.88135 9.15255 4.88135 9.11188 4.94237L1.89154 17.3085C1.8712 17.3491 1.8712 17.3695 1.89154 17.4102L7.68815 23.9186C7.70849 23.939 7.72882 23.9593 7.74916 23.9593H9.72204C9.72204 23.939 9.76272 23.9186 9.78306 23.8983Z" fill="#003265"/>
<path d="M11.9187 0.101697L9.88476 3.57966C9.86442 3.62034 9.86442 3.64068 9.88476 3.66102L12 7.26102L17.5729 16.8407C17.5932 16.8814 17.5932 16.9017 17.5526 16.9424L14.6034 20.2373L11.4712 23.7763C11.4102 23.8373 11.4509 23.9186 11.5322 23.9186H16.2305C16.2509 23.9186 16.2915 23.8983 16.2915 23.878L22.0882 17.3695C22.1085 17.3288 22.1288 17.3085 22.1085 17.2678L12.061 0.101697C12.0407 0.0203409 11.9593 0.0203409 11.9187 0.101697Z" fill="#003265"/>
</svg>
