<svg width="24" height="24" viewBox="0 0 24 24" fill="none" xmlns="http://www.w3.org/2000/svg">
<path d="M9.31091 10.7634L12 16.6267L15.994 14.3565H16.0017V9.81337L9.31091 10.7634Z" fill="#2BBDF7"/>
<path d="M21.1603 6.40668L18.6678 5.48478L16.0017 5.27026V9.81336V19.4256L20.0009 21.6984L23.1905 15.2988L21.1679 9.14173L21.1603 6.40668Z" fill="#2891F9"/>
<path d="M20.9279 5.27026L20.0009 7.54309V21.6627L24 19.3899V5.27026H20.9279Z" fill="#2BBDF7"/>
<path d="M20.0009 3L16.0017 5.27027L20.0009 7.54309L24 5.27027L20.0009 3Z" fill="#2B6DEF"/>
<path d="M12 12.0836L8.00085 7.67077L0 5.27026V19.3899L3.99915 21.6627L5.14578 13.8483L8.00085 14.3565L12 16.6267V12.0836Z" fill="#2891F9"/>
<path d="M3.99915 3L0 5.27027L12 12.0836L13.8132 11.057L16.0017 9.81336L3.99915 3Z" fill="#2B6DEF"/>
<path d="M3.99915 12.0836V21.6627L8.00085 19.3899V14.3565L3.99915 12.0836Z" fill="#2BBDF7"/>
</svg>
