<svg width="24" height="24" viewBox="0 0 24 24" fill="none" xmlns="http://www.w3.org/2000/svg">
<path d="M10.5043 0.652697C11.2496 -0.184303 12.6855 -0.202903 13.4545 0.610457C13.9389 1.05002 14.0508 1.72646 14.0682 2.34782C13.7961 1.92686 13.6023 1.43582 13.2061 1.10846C12.4757 0.498737 11.267 0.559577 10.6224 1.26746C10.3104 1.6139 10.1516 2.05946 9.9181 2.45714C9.92926 1.81754 10.0249 1.12214 10.5043 0.652697ZM8.15542 5.24882C9.48334 6.80366 10.6957 8.45522 12.0061 10.0248C13.3092 8.45282 14.5364 6.81962 15.8481 5.25362C15.7028 5.89322 15.4928 6.52034 15.4041 7.17098C15.3507 7.49498 15.5346 7.78814 15.6725 8.0663C17.0798 10.6463 18.4445 13.251 19.8387 15.8377C20.0697 16.3221 20.6461 16.6288 21.1679 16.4351C21.6399 16.3009 21.8519 15.8179 22.0311 15.4068C23.1044 12.8735 23.2199 9.92786 22.241 7.34726C22.0063 6.72134 21.6659 6.13154 21.557 5.46458C22.1645 5.9117 22.4924 6.6083 22.8079 7.27022C23.9669 9.64622 24.3009 12.4164 23.7209 14.9969C23.1594 17.6369 21.6638 20.0598 19.5633 21.7549C18.9074 22.2976 18.1758 22.7389 17.4367 23.1557C17.2447 22.7757 17.0167 22.4019 16.9249 21.9809C16.905 21.7015 17.0479 21.4432 17.1212 21.1799C17.4516 20.2659 17.4119 19.2438 17.0915 18.3336C16.3015 16.0573 15.5276 13.7748 14.7698 11.4862C14.6444 11.1012 14.4133 10.7671 14.1997 10.4281C14.2717 11.059 13.7624 11.4961 13.4755 11.9979C12.9997 12.8398 12.5203 13.683 11.9291 14.4505C11.7986 13.9079 11.8383 13.3465 11.7961 12.7939C11.7377 13.1355 11.7121 13.4819 11.6731 13.8259C10.9067 12.7953 10.2918 11.6614 9.5701 10.5996C8.60242 13.3143 7.72546 16.0612 6.7501 18.7746C6.5191 18.6256 6.28678 18.4791 6.0541 18.3325C6.03922 18.5365 6.02674 18.7398 6.01306 18.9423C6.25778 19.2527 6.48978 19.5715 6.70906 19.8984C6.49306 19.881 6.27706 19.8624 6.06106 19.8401C6.27706 20.0115 6.5791 20.1382 6.65602 20.4275C6.83494 20.9826 6.95542 21.5675 7.27714 22.0643C7.67962 22.7833 8.44978 23.1769 8.8957 23.8625C7.82866 23.7817 6.83002 23.341 5.92438 22.7933C3.76558 21.5255 2.00914 19.5771 1.00798 17.2785C-0.0975782 14.7675 -0.307458 11.8715 0.446502 9.23138C0.803022 7.9001 1.4353 6.65954 2.2105 5.52446C2.28502 5.55926 2.43286 5.63006 2.50738 5.66474C1.97434 6.7205 1.53838 7.8281 1.28626 8.9855C1.16206 8.94446 1.03786 8.90234 0.914262 8.85878C1.17514 9.18782 1.2223 9.60518 1.15774 10.0099C0.952782 11.9695 1.28314 13.9876 2.14402 15.7633C2.34802 16.224 2.82598 16.4376 3.22594 16.6935C3.58498 16.4103 3.98866 16.1535 4.20994 15.7373C4.62994 14.9933 4.99378 14.2186 5.43598 13.4871C5.5279 13.615 5.61982 13.7441 5.71054 13.8732C5.62726 13.5217 5.55034 13.1344 5.76514 12.8115C6.59518 11.2779 7.40518 9.7325 8.23738 8.20058C8.40262 7.85414 8.68462 7.49894 8.58394 7.09286C8.46466 6.47318 8.26798 5.8709 8.15542 5.24882ZM14.2634 9.01154C14.5243 8.8265 14.8154 8.69486 15.1167 8.58926C15.0223 8.3843 14.9292 8.18126 14.8361 7.97582C14.636 8.31482 14.4423 8.65982 14.2634 9.01154ZM12.9314 9.74546C13.1264 9.99998 13.4022 10.1655 13.6941 10.2869C13.4929 10.0398 13.2122 9.88334 12.9314 9.74546ZM12.084 11.9087C11.9101 12.0775 12.2033 12.3445 12.3672 12.1782C12.5472 12.0102 12.2442 11.7411 12.084 11.9087ZM17.5184 16.722C17.7159 16.6351 17.9144 16.5495 18.1134 16.4625L17.8674 16.1985C17.7519 16.3736 17.6355 16.5483 17.5183 16.7225L17.5184 16.722ZM4.15558 20.3045C4.14934 20.5218 4.14358 20.7391 4.13818 20.9565C4.35802 21.0607 4.57414 21.1701 4.78906 21.2843C4.5536 20.9741 4.34185 20.6465 4.15558 20.3045ZM5.9779 20.3119C5.98534 20.379 6.0019 20.5159 6.01018 20.5827C6.1555 20.641 6.30214 20.7006 6.44746 20.7603C6.4003 20.6423 6.35434 20.5243 6.30838 20.4051C6.19774 20.3743 6.08722 20.3433 5.9779 20.3123" fill="#324132"/>
<path d="M15.0991 23.7156C15.6196 23.2716 16.1462 22.8276 16.5871 22.3012C16.9288 22.521 17.1461 22.8637 17.2765 23.2424C16.6579 23.5057 16.0285 23.7416 15.3934 23.964C15.3203 23.902 15.1724 23.7778 15.0991 23.7156Z" fill="#324132"/>
</svg>
