<svg width="24" height="24" viewBox="0 0 24 24" fill="none" xmlns="http://www.w3.org/2000/svg">
<path d="M17.4544 2.69526C18.187 2.69526 18.7823 2.09034 18.7823 1.34715C18.7823 0.603961 18.187 0 17.4544 0C16.7217 0.00384077 16.1264 0.607801 16.1264 1.35099C16.1264 2.09418 16.7217 2.69526 17.4544 2.69526ZM17.8461 6.19804C18.1466 6.19576 18.4339 6.0742 18.6447 5.86012C18.8556 5.64603 18.9728 5.35695 18.9705 5.05647C18.9705 4.4285 18.4674 3.9148 17.8461 3.9148C17.2249 3.9148 16.7217 4.42466 16.7217 5.05647C16.7217 5.68827 17.2239 6.19804 17.8461 6.19804ZM20.9331 6.64453C21.5515 6.64453 22.0547 6.13467 22.0547 5.50574C22.0547 4.87682 21.5515 4.36695 20.9331 4.36695C20.3148 4.36695 19.8116 4.87682 19.8116 5.50574C19.8116 6.13467 20.3157 6.64453 20.9331 6.64453ZM20.5625 9.64129C21.0925 9.64129 21.5217 9.20536 21.5217 8.66861C21.5217 8.13187 21.0925 7.69594 20.5625 7.69594C20.0325 7.69594 19.6033 8.13187 19.6033 8.66861C19.6033 9.20536 20.0325 9.64129 20.5625 9.64129ZM23.034 10.613C23.5679 10.613 24 10.1742 24 9.63361C24 9.09302 23.5679 8.65421 23.034 8.65421C22.9063 8.65509 22.78 8.68112 22.6623 8.73082C22.5447 8.78051 22.4379 8.8529 22.3482 8.94385C22.2585 9.03479 22.1876 9.14252 22.1396 9.26087C22.0915 9.37921 22.0672 9.50587 22.0681 9.63361C22.0681 10.1742 22.5011 10.613 23.034 10.613ZM17.4563 9.23609C17.5862 9.23533 17.7146 9.209 17.8343 9.1586C17.954 9.1082 18.0626 9.03472 18.1539 8.94235C18.2452 8.84997 18.3175 8.74052 18.3665 8.62024C18.4155 8.49996 18.4403 8.37121 18.4395 8.24133V8.23941C18.4395 7.68922 18.0007 7.24273 17.4563 7.24273C16.9119 7.24273 16.4731 7.68826 16.4731 8.23941C16.4731 8.78672 16.9128 9.23609 17.4563 9.23609ZM16.5652 11.6202C17.0213 11.6202 17.3891 11.2458 17.3891 10.7858C17.3909 10.5663 17.3054 10.3551 17.1514 10.1986C16.9975 10.0422 16.7877 9.95323 16.5682 9.95143H16.5652C16.1091 9.95143 15.7414 10.3259 15.7414 10.7858C15.7414 11.2458 16.1091 11.6202 16.5652 11.6202ZM19.6571 12.0418C19.7651 12.041 19.872 12.019 19.9715 11.977C20.071 11.9349 20.1613 11.8737 20.2372 11.7968C20.3131 11.7198 20.3731 11.6287 20.4137 11.5286C20.4544 11.4285 20.4749 11.3214 20.4742 11.2133V11.2113C20.4742 10.7523 20.1093 10.3807 19.6571 10.3807C19.2048 10.3807 18.8399 10.7523 18.8399 11.2113C18.8385 11.319 18.8584 11.4259 18.8983 11.5259C18.9382 11.6259 18.9974 11.717 19.0726 11.7941C19.1477 11.8713 19.2373 11.9328 19.3362 11.9753C19.4352 12.0178 19.5415 12.0404 19.6492 12.0418H19.6571ZM22.1219 13.0096C22.578 13.0096 22.9457 12.6352 22.9457 12.1724C22.9457 11.7095 22.578 11.3351 22.1219 11.3351C21.6658 11.3351 21.298 11.7095 21.298 12.1724C21.2957 12.3921 21.3808 12.6038 21.5346 12.7608C21.6883 12.9178 21.8982 13.0073 22.1179 13.0096H22.1219ZM20.9043 14.8186C21.2894 14.8186 21.6005 14.5008 21.6005 14.1129C21.6005 13.725 21.2894 13.4072 20.9043 13.4072C20.5193 13.4072 20.2082 13.725 20.2082 14.1129C20.2082 14.5008 20.5193 14.8186 20.9043 14.8186ZM18.428 13.8661C18.8198 13.8661 19.1405 13.5416 19.1405 13.1431C19.1405 12.7446 18.8226 12.4201 18.428 12.4201C18.0334 12.4201 17.7155 12.7446 17.7155 13.1431C17.7155 13.5416 18.0362 13.8661 18.428 13.8661ZM15.34 13.4244C15.528 13.4215 15.7072 13.3448 15.8392 13.2109C15.9711 13.077 16.0451 12.8966 16.0452 12.7086C16.0453 12.5206 15.9716 12.3402 15.8398 12.2061C15.7081 12.072 15.5289 11.995 15.341 11.9918H15.34C15.1521 11.9948 14.9728 12.0715 14.8409 12.2054C14.709 12.3393 14.635 12.5197 14.6349 12.7077C14.6347 12.8956 14.7085 13.0761 14.8402 13.2102C14.972 13.3443 15.1511 13.4212 15.3391 13.4244H15.34ZM17.0569 15.124C17.3977 15.124 17.6714 14.8436 17.6714 14.5027C17.6729 14.3395 17.6095 14.1824 17.4952 14.0659C17.3809 13.9494 17.225 13.883 17.0618 13.8815H17.0569C16.716 13.8815 16.4423 14.1619 16.4423 14.5027C16.4405 14.6657 16.5036 14.8227 16.6175 14.9392C16.7315 15.0557 16.8871 15.1222 17.05 15.124H17.0569ZM19.5322 16.0928C19.8731 16.0928 20.1535 15.8124 20.1535 15.4649C20.1535 15.1173 19.8769 14.8369 19.5322 14.8369C19.3657 14.8369 19.206 14.903 19.0882 15.0208C18.9704 15.1386 18.9043 15.2983 18.9043 15.4649C18.9043 15.6314 18.9704 15.7911 19.0882 15.9089C19.206 16.0267 19.3657 16.0928 19.5322 16.0928ZM18.138 16.8197C18.4078 16.8197 18.6277 16.5969 18.6277 16.3233C18.6285 16.1925 18.5774 16.0668 18.4855 15.9738C18.3937 15.8807 18.2688 15.8279 18.138 15.8268C17.8682 15.8268 17.6483 16.0496 17.6483 16.3233C17.6481 16.4538 17.6994 16.5792 17.7911 16.6722C17.8828 16.7652 18.0075 16.8182 18.138 16.8197ZM16.8168 17.2095C16.8753 17.2092 16.9331 17.1973 16.9871 17.1746C17.041 17.1518 17.0899 17.1187 17.131 17.0771C17.1721 17.0355 17.2046 16.9862 17.2266 16.932C17.2487 16.8778 17.2598 16.8198 17.2595 16.7613V16.7602C17.2595 16.5105 17.0597 16.3108 16.8168 16.3108C16.7583 16.3111 16.7005 16.323 16.6466 16.3458C16.5927 16.3685 16.5438 16.4016 16.5026 16.4432C16.4615 16.4848 16.429 16.5341 16.407 16.5883C16.3849 16.6425 16.3738 16.7005 16.3742 16.759V16.7602C16.3721 16.8773 16.4167 16.9904 16.4981 17.0746C16.5794 17.1589 16.691 17.2074 16.8081 17.2094L16.8168 17.2095ZM15.6598 15.9171C15.9507 15.9171 16.1869 15.6771 16.1869 15.3832C16.1869 15.0894 15.9507 14.8494 15.6598 14.8494C15.3688 14.8494 15.1326 15.0894 15.1326 15.3832C15.1323 15.5238 15.1876 15.6587 15.2863 15.7587C15.385 15.8587 15.5193 15.9156 15.6598 15.9171ZM13.9622 14.6929C14.3001 14.6929 14.5767 14.4163 14.5767 14.0716C14.5767 13.7269 14.303 13.4504 13.9622 13.4504C13.6242 13.4504 13.3476 13.7269 13.3476 14.0716C13.3474 14.2353 13.4118 14.3924 13.5269 14.5088C13.642 14.6252 13.7985 14.6913 13.9622 14.6929ZM18.9964 22.4762C19.7262 22.4762 20.3177 21.8751 20.3177 21.1348C20.3177 20.3945 19.7262 19.7934 18.9964 19.7934C18.2667 19.7934 17.6752 20.3945 17.6752 21.1348C17.6752 21.8751 18.2667 22.4762 18.9964 22.4762ZM15.6406 20.7786C16.2484 20.7786 16.7419 20.2783 16.7419 19.6609C16.7419 19.0435 16.2484 18.5432 15.6406 18.5432C15.0328 18.5432 14.5392 19.0435 14.5392 19.6609C14.5392 20.2783 15.0318 20.7786 15.6406 20.7786ZM13.7231 23.2357C14.3376 23.2357 14.834 22.7325 14.834 22.1075C14.834 21.4862 14.3376 20.9792 13.7231 20.9792C13.1085 20.9792 12.6121 21.4824 12.6121 22.1075C12.6098 22.4044 12.7256 22.6901 12.9339 22.9016C13.1422 23.1132 13.4261 23.2334 13.723 23.2357H13.7231ZM13.146 18.7084C13.2733 18.7075 13.3993 18.6815 13.5166 18.632C13.6339 18.5824 13.7403 18.5103 13.8298 18.4196C13.9192 18.3289 13.9899 18.2215 14.0378 18.1035C14.0857 17.9855 14.1099 17.8592 14.1091 17.7319C14.1099 17.6045 14.0857 17.4782 14.0378 17.3602C13.9899 17.2422 13.9192 17.1348 13.8298 17.0441C13.7403 16.9535 13.6339 16.8813 13.5166 16.8317C13.3993 16.7822 13.2733 16.7562 13.146 16.7554C13.0186 16.7562 12.8927 16.7822 12.7754 16.8317C12.658 16.8813 12.5516 16.9535 12.4622 17.0441C12.3728 17.1348 12.3021 17.2422 12.2542 17.3602C12.2062 17.4782 12.182 17.6045 12.1829 17.7319C12.1839 18.2696 12.616 18.7084 13.146 18.7084ZM11.2333 21.1991C11.7633 21.1991 12.1925 20.7632 12.1925 20.2264C12.1925 19.6897 11.7633 19.2538 11.2333 19.2538C10.7033 19.2538 10.2741 19.6897 10.2741 20.2264C10.2715 20.4818 10.3705 20.7278 10.5493 20.9102C10.7281 21.0926 10.972 21.1965 11.2274 21.1991H11.2333ZM9.17175 22.8891C9.70178 22.8891 10.1281 22.4531 10.1281 21.9193C10.1281 21.3825 9.6989 20.9495 9.17175 20.9495C8.64173 20.9495 8.2154 21.3854 8.2154 21.9193C8.2154 22.4531 8.64461 22.8891 9.17175 22.8891ZM7.45589 20.6893C7.67382 20.6873 7.88209 20.5991 8.0352 20.444C8.18831 20.2889 8.27381 20.0795 8.27302 19.8616C8.27302 19.4055 7.90814 19.0339 7.45589 19.0339C7.23856 19.0372 7.03125 19.1259 6.87873 19.2807C6.72621 19.4356 6.64072 19.6442 6.64072 19.8616C6.64072 20.0789 6.72621 20.2876 6.87873 20.4424C7.03125 20.5973 7.23856 20.6859 7.45589 20.6893ZM9.52126 18.9916C9.73934 18.9901 9.9479 18.9021 10.1011 18.7469C10.2543 18.5917 10.3397 18.382 10.3384 18.164C10.3384 17.705 9.97351 17.3363 9.52126 17.3363C9.30391 17.3392 9.09643 17.4275 8.94362 17.5821C8.79081 17.7367 8.70495 17.9452 8.70457 18.1625C8.70419 18.3799 8.78933 18.5887 8.9416 18.7438C9.09387 18.899 9.30104 18.988 9.51838 18.9916H9.52126ZM11.4484 16.5019C11.5564 16.5011 11.6633 16.4791 11.7628 16.4371C11.8624 16.395 11.9526 16.3338 12.0285 16.2569C12.1044 16.1799 12.1644 16.0888 12.205 15.9887C12.2457 15.8886 12.2662 15.7815 12.2655 15.6734V15.6714C12.2655 15.2124 11.9006 14.8408 11.4484 14.8408C11.3403 14.8416 11.2335 14.8636 11.1339 14.9056C11.0344 14.9477 10.9441 15.0089 10.8682 15.0858C10.7923 15.1627 10.7324 15.2539 10.6917 15.354C10.651 15.4541 10.6305 15.5612 10.6312 15.6693V15.6713C10.6312 16.1303 10.9961 16.5019 11.4484 16.5019ZM8.50058 16.8446C8.89234 16.8446 9.21016 16.5239 9.21016 16.1255C9.21016 15.727 8.89234 15.4063 8.50058 15.4063C8.10882 15.4063 7.791 15.727 7.791 16.1255C7.791 16.5239 8.10882 16.8446 8.50058 16.8446ZM6.44577 18.5355C6.53858 18.535 6.63037 18.5163 6.71592 18.4803C6.80147 18.4443 6.87909 18.3918 6.94436 18.3258C7.00963 18.2599 7.06126 18.1817 7.09631 18.0957C7.13136 18.0098 7.14914 17.9178 7.14863 17.825V17.8231C7.15042 17.6359 7.07779 17.4557 6.94672 17.3221C6.81565 17.1885 6.63687 17.1124 6.44971 17.1106H6.44577C6.35296 17.1111 6.26117 17.1299 6.17562 17.1659C6.09007 17.2019 6.01244 17.2543 5.94718 17.3203C5.88191 17.3863 5.83028 17.4645 5.79523 17.5504C5.76018 17.6364 5.7424 17.7284 5.74291 17.8212V17.8231C5.74228 17.916 5.75995 18.0082 5.79494 18.0943C5.82992 18.1804 5.88151 18.2587 5.94678 18.3249C6.01205 18.391 6.0897 18.4437 6.17532 18.4798C6.26094 18.516 6.35284 18.5349 6.44577 18.5355ZM5.97335 16.5537C6.13533 16.5524 6.2902 16.4871 6.40411 16.3719C6.51801 16.2568 6.58167 16.1012 6.58116 15.9392C6.58116 15.5983 6.3075 15.3247 5.97335 15.3247C5.63921 15.3247 5.36555 15.6012 5.36555 15.9392C5.36555 16.2801 5.63921 16.5537 5.97335 16.5537ZM5.95607 14.8148C6.02505 14.8142 6.09322 14.8 6.1567 14.773C6.22019 14.746 6.27774 14.7068 6.32606 14.6576C6.37439 14.6084 6.41255 14.5501 6.43836 14.4861C6.46417 14.4222 6.47713 14.3538 6.4765 14.2848C6.4765 13.9938 6.24317 13.7548 5.95607 13.7548C5.66897 13.7548 5.43565 13.991 5.43565 14.2848C5.43565 14.5786 5.66897 14.8148 5.95607 14.8148ZM6.24221 13.3688C6.48898 13.3688 6.68486 13.1662 6.68486 12.9194C6.68486 12.6726 6.48514 12.47 6.24221 12.47C5.99544 12.47 5.79956 12.6726 5.79956 12.9194C5.79956 13.1662 5.99544 13.3688 6.24221 13.3688ZM8.01376 13.1268C8.3047 13.1268 8.54091 12.8867 8.54091 12.5929C8.54091 12.2991 8.3047 12.0591 8.01376 12.0591C7.72282 12.0591 7.48662 12.2991 7.48662 12.5929C7.4861 12.7335 7.54126 12.8686 7.64004 12.9686C7.73882 13.0687 7.87318 13.1255 8.01376 13.1268ZM9.95815 12.3692C10.2961 12.3692 10.5727 12.0888 10.5727 11.7479C10.5742 11.5847 10.5108 11.4276 10.3965 11.3111C10.2822 11.1946 10.1263 11.1283 9.96305 11.1267H9.95815C9.62016 11.1267 9.34363 11.4071 9.34363 11.7479C9.343 11.8289 9.35831 11.9092 9.38871 11.9842C9.41911 12.0593 9.46398 12.1276 9.52078 12.1853C9.57758 12.2429 9.64518 12.2889 9.71973 12.3204C9.79428 12.352 9.87432 12.3686 9.95527 12.3692H9.95815ZM10.421 14.3414C10.6059 14.341 10.7831 14.2673 10.9136 14.1363C11.0442 14.0054 11.1174 13.8279 11.1172 13.643C11.117 13.4581 11.0434 13.2809 10.9126 13.1502C10.7818 13.0195 10.6044 12.9461 10.4195 12.9461C10.2346 12.9461 10.0573 13.0195 9.92645 13.1502C9.79563 13.2809 9.72204 13.4581 9.72185 13.643C9.72166 13.8279 9.79488 14.0054 9.92543 14.1363C10.056 14.2673 10.2332 14.341 10.4181 14.3414H10.421ZM8.03873 14.8667C8.37672 14.8667 8.64653 14.5901 8.64653 14.2483C8.64653 13.9065 8.37288 13.6299 8.03873 13.6299C7.95841 13.6304 7.87898 13.6467 7.80496 13.6779C7.73095 13.7091 7.6638 13.7546 7.60736 13.8117C7.55092 13.8689 7.50629 13.9366 7.47601 14.011C7.44574 14.0854 7.43042 14.165 7.43093 14.2453V14.2483C7.42978 14.3283 7.44442 14.4078 7.474 14.4822C7.50358 14.5566 7.54752 14.6245 7.60332 14.6819C7.65912 14.7393 7.72568 14.7851 7.7992 14.8168C7.87272 14.8485 7.95176 14.8654 8.03181 14.8666H8.03873V14.8667ZM1.31738 13.9497C2.04329 13.9497 2.63477 13.3515 2.63477 12.615C2.63477 11.8785 2.04329 11.2803 1.31738 11.2803C0.591478 11.2803 0 11.8795 0 12.616C0 13.3524 0.591478 13.9497 1.31738 13.9497ZM4.30742 11.5665C4.93251 11.5665 5.43565 11.0528 5.43565 10.421C5.43565 9.78916 4.92867 9.27545 4.30742 9.27545C4.00618 9.27748 3.71807 9.3991 3.50649 9.61354C3.29491 9.82799 3.17718 10.1177 3.1792 10.4189V10.421C3.1792 11.0566 3.68618 11.5665 4.30742 11.5665ZM3.14079 8.62829C3.76203 8.62829 4.26229 8.11842 4.26229 7.4895C4.26229 6.86057 3.75915 6.35071 3.14079 6.35071C2.99251 6.3517 2.84587 6.38189 2.70926 6.43956C2.57264 6.49723 2.44872 6.58124 2.34458 6.6868C2.24044 6.79236 2.15811 6.91741 2.10229 7.05479C2.04648 7.19217 2.01827 7.3392 2.01928 7.48748V7.4895C2.01624 7.78845 2.13206 8.07637 2.34128 8.28993C2.5505 8.50348 2.83598 8.62519 3.13493 8.62829H3.14079ZM6.02328 7.23601C6.55331 7.23601 6.98636 6.80008 6.98636 6.25949C6.98636 5.7189 6.55427 5.28298 6.02328 5.28298C5.4923 5.28298 5.06021 5.7189 5.06021 6.25949C5.06021 6.80008 5.49326 7.23601 6.02328 7.23601ZM7.20144 10.1675C7.73531 10.1675 8.16739 9.72867 8.16739 9.18808C8.16739 8.64749 7.73531 8.20868 7.20144 8.20868C6.66757 8.20868 6.23549 8.64749 6.23549 9.18808C6.23549 9.72867 6.66757 10.1675 7.20144 10.1675ZM9.82469 9.55871C10.0442 9.55691 10.254 9.46801 10.4079 9.31155C10.5619 9.15509 10.6474 8.94389 10.6456 8.7244C10.6473 8.61659 10.6277 8.50951 10.588 8.40927C10.5482 8.30904 10.4892 8.21761 10.4141 8.14021C10.339 8.06281 10.2494 8.00095 10.1505 7.95816C10.0515 7.91538 9.94508 7.89251 9.83726 7.89086C9.72945 7.88921 9.62237 7.90881 9.52214 7.94854C9.4219 7.98827 9.33047 8.04735 9.25307 8.12242C9.17567 8.19748 9.11381 8.28706 9.07103 8.38603C9.02824 8.485 9.00537 8.59143 9.00372 8.69924C9.00372 8.70769 9.00372 8.71605 9.00372 8.7244C9.00119 8.94313 9.08563 9.15392 9.23849 9.31039C9.39135 9.46687 9.6001 9.55622 9.81883 9.55881L9.82469 9.55871ZM12.0907 9.56639C12.4825 9.56639 12.8003 9.24569 12.8003 8.85009C12.8003 8.45449 12.4825 8.13379 12.0907 8.13379C11.9008 8.13379 11.7186 8.20925 11.5842 8.34359C11.4499 8.47792 11.3744 8.66011 11.3744 8.85009C11.3744 9.04006 11.4499 9.22226 11.5842 9.35659C11.7186 9.49093 11.9008 9.56639 12.0907 9.56639ZM13.9631 9.99752C14.2905 9.99752 14.5613 9.72771 14.5613 9.3926C14.5613 9.05749 14.2944 8.78768 13.9631 8.78768C13.8037 8.78892 13.6512 8.85327 13.5391 8.96663C13.427 9.08 13.3644 9.23316 13.3649 9.3926C13.3688 9.72386 13.6347 9.99752 13.9631 9.99752ZM14.207 7.791C14.3459 7.79001 14.4787 7.73394 14.5763 7.6351C14.6739 7.53626 14.7282 7.40274 14.7274 7.26385C14.7274 6.97291 14.4941 6.73671 14.207 6.73671C13.9199 6.73671 13.6866 6.97291 13.6866 7.26385C13.6858 7.40274 13.7401 7.53626 13.8377 7.6351C13.9353 7.73394 14.0681 7.79001 14.207 7.791ZM12.7667 7.06893C12.9256 7.06854 13.0779 7.00508 13.1901 6.89249C13.3023 6.7799 13.3652 6.62739 13.365 6.46846C13.3648 6.30952 13.3015 6.15717 13.189 6.04486C13.0766 5.93255 12.9242 5.86946 12.7652 5.86946C12.6063 5.86946 12.4539 5.93255 12.3414 6.04486C12.229 6.15717 12.1657 6.30952 12.1655 6.46846C12.1653 6.62739 12.2282 6.7799 12.3404 6.89249C12.4525 7.00508 12.6048 7.06854 12.7637 7.06893H12.7667ZM10.9164 6.63109C11.104 6.62956 11.2834 6.55371 11.4151 6.42015C11.5469 6.28659 11.6203 6.10623 11.6193 5.91862C11.6193 5.52302 11.3053 5.20616 10.9164 5.20616C10.5275 5.20616 10.2136 5.52687 10.2136 5.91862C10.2128 6.01143 10.2303 6.10348 10.2651 6.18951C10.3 6.27554 10.3514 6.35387 10.4165 6.42003C10.4816 6.48619 10.559 6.53888 10.6445 6.57509C10.7299 6.61131 10.8217 6.63033 10.9145 6.63109H10.9164ZM8.65421 6.63397C9.1103 6.63397 9.47806 6.25949 9.47806 5.79956C9.47806 5.33963 9.1103 4.96515 8.65421 4.96515C8.19812 4.96515 7.83037 5.33963 7.83037 5.79956C7.8296 6.01927 7.91581 6.23035 8.07018 6.3867C8.22454 6.54304 8.43451 6.63194 8.65421 6.63397ZM5.60752 4.54747C6.1241 4.54747 6.53987 4.12498 6.53987 3.60168C6.53987 3.07838 6.12122 2.65589 5.60752 2.65589C5.09094 2.65589 4.67518 3.07838 4.67518 3.60168C4.67518 4.12498 5.09382 4.54747 5.60752 4.54747ZM8.22981 3.97423C8.6859 3.97423 9.05365 3.59976 9.05365 3.13983C9.05365 2.6799 8.6859 2.30542 8.22981 2.30542C7.77372 2.30542 7.40596 2.6799 7.40596 3.13983C7.40596 3.59976 7.77372 3.97423 8.22981 3.97423ZM10.4949 3.9848C10.8867 3.9848 11.2045 3.66409 11.2045 3.26561C11.2045 2.86713 10.8867 2.54643 10.4949 2.54643C10.4012 2.54693 10.3085 2.56588 10.2222 2.6022C10.1358 2.63852 10.0574 2.69149 9.99156 2.7581C9.92566 2.8247 9.87354 2.90363 9.83815 2.99038C9.80276 3.07713 9.78481 3.17 9.78532 3.26369V3.26561C9.78452 3.45494 9.85872 3.63687 9.99169 3.77164C10.1247 3.90641 10.3056 3.98305 10.4949 3.9848ZM12.3538 4.41304C12.6851 4.41304 12.952 4.14323 12.952 3.80812C12.952 3.47301 12.6851 3.2032 12.3538 3.2032C12.1934 3.2032 12.0395 3.26693 11.9261 3.38038C11.8126 3.49382 11.7489 3.64769 11.7489 3.80812C11.7489 3.96856 11.8126 4.12242 11.9261 4.23587C12.0395 4.34931 12.1934 4.41304 12.3538 4.41304ZM13.7816 5.15431C13.9241 5.1533 14.0603 5.0958 14.1604 4.99445C14.2605 4.8931 14.3163 4.75617 14.3155 4.61372C14.3155 4.31318 14.0755 4.07313 13.7816 4.07313C13.4878 4.07313 13.2478 4.31606 13.2478 4.61372C13.2478 4.91138 13.4878 5.15431 13.7816 5.15431ZM14.8292 6.00504C14.8872 6.00466 14.9446 5.99287 14.998 5.97032C15.0515 5.94777 15.0999 5.91492 15.1407 5.87364C15.1814 5.83236 15.2137 5.78345 15.2355 5.72972C15.2573 5.67599 15.2684 5.61848 15.268 5.56047V5.55951C15.2685 5.50151 15.2576 5.44397 15.2359 5.39019C15.2141 5.33641 15.182 5.28743 15.1414 5.24606C15.1007 5.20469 15.0523 5.17173 14.9989 5.14907C14.9455 5.12641 14.8882 5.11448 14.8302 5.11398H14.8292C14.7712 5.11436 14.7138 5.12616 14.6604 5.1487C14.607 5.17125 14.5585 5.2041 14.5177 5.24538C14.477 5.28667 14.4448 5.33557 14.4229 5.3893C14.4011 5.44304 14.39 5.50055 14.3904 5.55855V5.55951C14.3895 5.61713 14.4 5.67437 14.4212 5.72794C14.4425 5.78151 14.474 5.83038 14.5142 5.87174C14.5543 5.91311 14.6022 5.94616 14.6551 5.96902C14.708 5.99187 14.7649 6.00408 14.8225 6.00494H14.8294L14.8292 6.00504Z" fill="black"/>
</svg>
