<svg width="24" height="24" viewBox="0 0 24 24" fill="none" xmlns="http://www.w3.org/2000/svg">
<path d="M7.284 17.3928L1.7784 18.012L5.0112 10.5528L1.7016 6.0408L9.7488 5.124L11.9352 0.0960007L16.7256 6.6072L22.2312 5.988L19.0128 13.4112L22.2984 17.892L14.292 18.804L12.072 23.904L7.284 17.3928ZM9.5712 16.8984C9.36 17.0016 9.1344 17.088 8.9016 17.1528L8.6904 17.2104L11.7936 21.4296L12.8952 18.8952L12.696 18.8688C11.6112 18.732 10.6248 18.1464 9.9888 17.268L9.6792 16.8408L9.5712 16.8984ZM8.4912 13.0728L10.9944 16.536C11.5032 17.2392 12.3264 17.6592 13.1952 17.6592C13.296 17.6592 13.3968 17.6544 13.4952 17.6424L20.028 16.8984L17.4264 13.3488C17.2968 13.1736 17.148 13.0152 16.9824 12.876L16.8288 12.7488L14.9664 16.956L11.7264 12.6672L8.4912 13.0728ZM8.5992 8.856C7.6296 8.9592 6.7848 9.5808 6.396 10.4784L3.7728 16.5336L8.1312 16.044C8.3472 16.02 8.5584 15.9696 8.7624 15.8952L8.9496 15.8256L6.252 12.1008L11.5704 11.4264L12.8352 8.4048L8.5992 8.856ZM12.7152 11.9112L14.6856 14.52L15.888 11.8056L16.416 10.6104C16.812 9.7152 16.6992 8.6712 16.1184 7.884L12.2136 2.5704L10.4568 6.6072C10.3704 6.8064 10.308 7.0152 10.2696 7.2312L10.236 7.428L14.7936 6.9456L12.7152 11.9112ZM17.5032 7.7736L17.58 7.9584C18.0024 8.9688 17.9928 10.1208 17.5512 11.1168L17.3376 11.5968L17.4408 11.6664C17.6376 11.7984 17.8224 11.952 17.9928 12.1224L18.1488 12.276L20.2344 7.464L17.5032 7.7736ZM3.972 7.0344L5.6328 9.3L5.7552 9.1416C6.4152 8.2848 7.4064 7.728 8.4696 7.6152L8.9904 7.56L9 7.4328C9.0168 7.1712 9.0624 6.9096 9.132 6.6552L9.192 6.4392L3.972 7.0344Z" fill="url(#paint0_linear)"/>
<path d="M10.8384 24C7.38242 23.6664 4.27682 21.8688 2.24402 19.02L3.63602 18.864C3.86642 19.1472 4.11122 19.4184 4.36322 19.6728C5.87282 21.1896 7.76162 22.212 9.83282 22.6344L10.8384 24Z" fill="url(#paint1_linear)"/>
<path d="M13.7376 22.7112C15.9792 22.3488 18.0168 21.3 19.6368 19.6728C19.7808 19.5264 19.9272 19.3704 20.0736 19.2072L21.7608 19.0152C19.7352 21.8616 16.6344 23.6616 13.1784 24L13.7376 22.7112Z" fill="url(#paint2_linear)"/>
<path d="M22.104 15.8471C22.5648 14.6207 22.8 13.3272 22.8 12C22.8 10.8288 22.6152 9.67676 22.2528 8.57757L22.9296 7.01757C23.64 8.58477 24 10.26 24 12C24 13.7376 23.64 15.4103 22.932 16.9775L22.104 15.8471Z" fill="url(#paint3_linear)"/>
<path d="M1.0752 16.9943C0.3624 15.4223 0 13.7448 0 12C0 10.2456 0.3648 8.55837 1.0872 6.98157L1.9128 8.10957C1.44 9.34796 1.2 10.656 1.2 12C1.2 13.176 1.3848 14.3303 1.7496 15.4343L1.0752 16.9943Z" fill="url(#paint4_linear)"/>
<path d="M2.29443 4.9104C4.32483 2.1072 7.40643 0.3312 10.8312 0L10.272 1.2864C8.02803 1.6464 5.98563 2.6976 4.36323 4.3272C4.24083 4.4496 4.11843 4.5816 3.99603 4.716L2.29443 4.9104Z" fill="url(#paint5_linear)"/>
<path d="M20.3664 5.136C20.136 4.8528 19.8912 4.5816 19.6368 4.3272C18.1296 2.8128 16.2432 1.7904 14.1768 1.368L13.1712 0C16.6248 0.336 19.7256 2.1336 21.756 4.98L20.3664 5.136Z" fill="url(#paint6_linear)"/>
<defs>
<linearGradient id="paint0_linear" x1="2.30634" y1="21.6601" x2="21.0259" y2="2.94054" gradientUnits="userSpaceOnUse">
<stop stop-color="#009DDE"/>
<stop offset="0.5" stop-color="#694D9F"/>
<stop offset="1" stop-color="#ED3554"/>
</linearGradient>
<linearGradient id="paint1_linear" x1="4.34876" y1="23.7025" x2="23.0683" y2="4.98294" gradientUnits="userSpaceOnUse">
<stop stop-color="#009DDE"/>
<stop offset="0.5" stop-color="#694D9F"/>
<stop offset="1" stop-color="#ED3554"/>
</linearGradient>
<linearGradient id="paint2_linear" x1="9.68945" y1="29.0432" x2="28.409" y2="10.3236" gradientUnits="userSpaceOnUse">
<stop stop-color="#009DDE"/>
<stop offset="0.5" stop-color="#694D9F"/>
<stop offset="1" stop-color="#ED3554"/>
</linearGradient>
<linearGradient id="paint3_linear" x1="7.78734" y1="27.141" x2="26.5068" y2="8.42145" gradientUnits="userSpaceOnUse">
<stop stop-color="#009DDE"/>
<stop offset="0.5" stop-color="#694D9F"/>
<stop offset="1" stop-color="#ED3554"/>
</linearGradient>
<linearGradient id="paint4_linear" x1="-3.14226" y1="16.2114" x2="15.5772" y2="-2.50811" gradientUnits="userSpaceOnUse">
<stop stop-color="#009DDE"/>
<stop offset="0.5" stop-color="#694D9F"/>
<stop offset="1" stop-color="#ED3554"/>
</linearGradient>
<linearGradient id="paint5_linear" x1="-5.04038" y1="14.3133" x2="13.6791" y2="-4.40621" gradientUnits="userSpaceOnUse">
<stop stop-color="#009DDE"/>
<stop offset="0.5" stop-color="#694D9F"/>
<stop offset="1" stop-color="#ED3554"/>
</linearGradient>
<linearGradient id="paint6_linear" x1="0.299938" y1="19.6537" x2="19.0195" y2="0.934144" gradientUnits="userSpaceOnUse">
<stop stop-color="#009DDE"/>
<stop offset="0.5" stop-color="#694D9F"/>
<stop offset="1" stop-color="#ED3554"/>
</linearGradient>
</defs>
</svg>
