<svg width="24" height="24" viewBox="0 0 24 24" fill="none" xmlns="http://www.w3.org/2000/svg">
<g clip-path="url(#clip0)">
<path d="M12.0252 0.767793C12.9397 0.66427 13.7678 0.241553 14.6564 0C14.7772 0.241553 14.9238 0.534867 15.243 0.534867C15.5622 0.586628 15.7434 0.27606 15.89 0.0431344C16.6578 0.345075 17.3652 0.767793 18.1503 1.0266C18.5558 1.16463 19.0475 1.13875 19.3581 1.48382C19.729 1.88929 19.7376 2.47592 19.6772 2.9849C19.5996 3.39037 19.3667 3.82171 18.9353 3.92523C18.5212 4.02876 18.1072 4.09777 17.7189 4.27031C17.0892 4.52049 16.5112 4.9087 15.8469 5.08986C15.7606 4.93458 15.6657 4.78792 15.5709 4.63264C15.3724 4.63264 15.1568 4.61538 14.9756 4.71891C14.8548 4.82243 14.7772 4.96909 14.6909 5.09849C13.7247 5.04673 12.862 4.47735 11.8872 4.49461C10.8778 4.51186 9.87711 4.75341 8.96266 5.17613C6.97847 5.96118 5.37387 7.57441 4.4853 9.50683C4.00219 10.5852 3.70025 11.7498 3.65712 12.9317C3.62261 14.959 4.23512 17.0208 5.47739 18.6341C6.07265 19.4968 6.87495 20.2042 7.73764 20.7908C9.56654 22.0762 11.9044 22.5507 14.1129 22.2832C16.8045 21.9641 19.3235 20.4198 20.8333 18.1682C21.8426 16.762 22.4033 15.0712 22.5327 13.3544C22.688 11.9914 22.4551 10.6111 22.0324 9.31704C21.7046 8.25593 21.1266 7.28972 20.4623 6.40978C20.1258 5.94392 19.7031 5.56434 19.3063 5.15888C20.1 5.73688 20.7556 6.47879 21.3077 7.28972C22.3085 8.70453 22.8951 10.3868 23.1108 12.1035C23.1625 13.1819 23.197 14.2775 22.9468 15.33C22.5241 17.4953 21.3854 19.5054 19.7808 21.0151C18.9957 21.8174 18.0295 22.3954 17.046 22.9216C16.0971 23.3875 15.0705 23.7239 14.018 23.8533C11.8699 24.2157 9.60967 23.931 7.62549 23.0165C7.2114 22.8095 6.81456 22.5679 6.4091 22.3523C4.81312 21.3602 3.44145 19.9799 2.50974 18.3494C1.67293 16.7793 1.0518 15.0625 1.00004 13.2854C1.00866 12.4227 0.948276 11.56 1.11219 10.706C1.55216 8.10927 2.84619 5.65061 4.81312 3.89073C5.87423 2.89001 7.14238 2.13947 8.48818 1.59597C9.60967 1.11287 10.8174 0.897196 12.0252 0.767793Z" fill="black"/>
<path d="M11.2487 9.17902C11.7577 9.11 12.2839 9.11 12.8015 9.17902C13.8971 9.42057 14.8547 10.2142 15.2861 11.2581C15.7951 12.302 15.6484 13.5701 15.0618 14.5536C14.5614 15.2955 13.8281 15.8994 12.9482 16.115C12.5686 16.1841 12.1804 16.3221 11.7836 16.2531C11.2487 16.1668 10.6966 16.0546 10.2307 15.7613C9.08334 15.1229 8.34143 13.803 8.4277 12.4831C8.4277 11.7326 8.77277 11.0252 9.21275 10.4299C9.69585 9.7829 10.455 9.36018 11.2487 9.17902Z" fill="black"/>
</g>
<defs>
<clipPath id="clip0">
<rect width="24" height="24" fill="white"/>
</clipPath>
</defs>
</svg>
