<svg width="24" height="24" viewBox="0 0 24 24" fill="none" xmlns="http://www.w3.org/2000/svg">
<path d="M12 24C18.6274 24 24 18.6274 24 12C24 5.37258 18.6274 0 12 0C5.37258 0 0 5.37258 0 12C0 18.6274 5.37258 24 12 24Z" fill="#663300"/>
<path d="M8.76599 7.54725L9.70349 5.25L16.125 5.27325C17.0625 5.34375 18.1875 5.34375 18.8205 6.141C19.5705 7.008 19.4062 8.25 19.0312 9.234C18.6698 10.293 18.0425 11.2414 17.2094 11.9884C16.3762 12.7353 15.3652 13.2558 14.2732 13.5C12.7267 13.7347 11.1562 13.6642 9.58574 13.6642C9.89849 12.9015 10.2112 12.1358 10.5232 11.367C11.8125 11.367 13.125 11.4375 14.4375 11.2267C15.633 10.9222 16.7347 9.72675 16.5472 8.41425C16.4295 7.85175 15.7972 7.59375 15.2572 7.59375C13.1017 7.5 10.9447 7.59375 8.78924 7.5465H8.76599V7.54725Z" fill="white"/>
<path d="M6 8.1795H13.617L12.6098 10.7813H4.968L6 8.20275V8.18025V8.1795ZM7.21875 11.367H9.867L7.1025 18.3983H4.5L7.242 11.367H7.21875Z" fill="white"/>
</svg>
