<svg width="24" height="24" viewBox="0 0 24 24" fill="none" xmlns="http://www.w3.org/2000/svg">
<path fill-rule="evenodd" clip-rule="evenodd" d="M24 12C24 18.6274 18.6274 24 12 24C5.37255 24 0 18.6274 0 12C0 5.37255 5.37255 0 12 0C18.6274 0 24 5.37255 24 12Z" fill="#388CBF"/>
<path fill-rule="evenodd" clip-rule="evenodd" d="M12 22.2542C6.34591 22.2542 1.74587 17.6541 1.74587 12C1.74587 6.34588 6.34591 1.74584 12 1.74584C17.6542 1.74584 22.2542 6.34588 22.2542 12C22.2542 17.6541 17.6542 22.2542 12 22.2542ZM12 1.08286C5.98034 1.08286 1.08289 5.98031 1.08289 12C1.08289 18.0197 5.98034 22.9172 12 22.9172C18.0197 22.9172 22.9172 18.0197 22.9172 12C22.9172 5.98031 18.0197 1.08286 12 1.08286Z" fill="#F5F5F3"/>
<path fill-rule="evenodd" clip-rule="evenodd" d="M18.7418 12.1958C18.6365 12.4006 18.3869 12.5824 17.993 12.741L16.8265 13.2108L16.1869 11.6228L17.3484 11.155C17.749 10.9937 18.0561 10.9473 18.2695 11.0159C18.483 11.0846 18.6516 11.2723 18.7397 11.491C18.8347 11.7267 18.8472 11.9911 18.7418 12.1958ZM19.8728 9.91824C19.4966 9.70794 19.0168 9.64589 18.4333 9.73208C18.7345 9.46993 18.9342 9.19784 19.0319 8.91588C19.1785 8.49289 19.1637 8.06262 18.9874 7.62498C18.7772 7.10315 18.4098 6.74242 17.8854 6.54279C17.4933 6.39362 17.0484 6.38063 16.5506 6.50355C16.6231 6.63468 16.6899 6.7753 16.7505 6.92573C16.9367 7.38803 17.0178 7.82931 16.9951 8.2458C17.1291 8.33411 17.2387 8.48215 17.3063 8.64995C17.3998 8.8822 17.4192 9.13208 17.329 9.31115C17.2387 9.49042 16.9711 9.66956 16.6143 9.81323L15.9845 10.0669C15.6785 10.3014 15.3037 10.509 14.86 10.6877L13.9425 11.0572L15.6964 15.4123L18.6765 14.2121C18.8447 14.1443 19.1729 13.973 19.6609 13.6982C20.0277 13.4918 20.2847 13.2944 20.4319 13.106C20.6697 12.8028 20.8161 12.4622 20.8712 12.0839C20.9263 11.7057 20.8765 11.3246 20.7219 10.9408C20.5321 10.4695 20.2491 10.1287 19.8728 9.91824Z" fill="#FFFFFE"/>
<path fill-rule="evenodd" clip-rule="evenodd" d="M4.40122 9.25656L2.95068 9.84078L3.09256 10.1932L3.64164 9.97205L7.22408 18.867L7.57652 18.7251L3.99409 9.83011L4.54317 9.609L4.40122 9.25656Z" fill="#FFFFFE"/>
<path fill-rule="evenodd" clip-rule="evenodd" d="M14.7174 8.50456C14.6006 8.72971 14.0574 9.03746 13.6164 9.21501L13.0559 9.44082L12.3908 7.78946L13.0422 7.52712C13.4698 7.35494 14.0578 7.21194 14.2778 7.31119C14.4977 7.41044 14.6545 7.57618 14.7481 7.80849C14.8444 8.04756 14.8341 8.27961 14.7174 8.50456ZM15.2563 5.57304C14.6852 5.34531 13.9856 5.39815 13.1574 5.7317L10.5395 6.78604L9.08838 7.36887L9.23026 7.72131L9.77941 7.50014L13.3618 16.3951L13.7142 16.2531L13.0075 14.4986L14.8018 13.7759L13.6599 10.9407L14.7802 10.4895C15.7026 10.118 16.3039 9.6313 16.5838 9.02944C16.8638 8.42758 16.8532 7.75293 16.5522 7.00555C16.2593 6.27833 15.8273 5.80091 15.2563 5.57304Z" fill="#FFFFFE"/>
<path fill-rule="evenodd" clip-rule="evenodd" d="M10.4482 10.6251L10.2096 10.7212L9.98485 10.1633L10.0361 10.1426C10.11 10.1128 10.1458 10.0288 10.1161 9.9549L9.36045 8.07879C9.33069 8.00487 9.24662 7.96907 9.1727 7.99884L9.04912 8.04863C8.59617 7.49895 7.8232 7.2795 7.12739 7.55974L5.92335 8.04465C5.22755 8.32489 4.8224 9.01884 4.8769 9.72896L4.75325 9.77875C4.67933 9.80852 4.64353 9.89258 4.67336 9.96651L5.42896 11.8426C5.45873 11.9165 5.54273 11.9523 5.61665 11.9226L5.6679 11.9019L5.89265 12.4599L5.65405 12.556C5.51515 12.6119 5.44792 12.7699 5.50388 12.9087L5.53789 12.9932C5.55135 13.0266 5.58934 13.0428 5.62282 13.0293L5.87429 12.9281C5.93847 12.9022 5.9925 12.8622 6.035 12.8134L7.2942 15.9399L7.24295 15.9605C7.16903 15.9903 7.13323 16.0744 7.163 16.1483L7.9186 18.0244C7.94843 18.0983 8.03243 18.1341 8.10636 18.1043L8.1576 18.0837L8.21973 18.2378C8.33237 18.5176 8.65053 18.6531 8.93031 18.5404L12.2341 17.2098C12.5139 17.0972 12.6493 16.779 12.5367 16.4992L12.4746 16.345L12.5258 16.3244C12.5997 16.2946 12.6355 16.2106 12.6058 16.1366L11.8502 14.2605C11.8204 14.1866 11.7363 14.1508 11.6624 14.1806L11.6112 14.2012L10.3519 11.0747C10.4165 11.0805 10.4832 11.0718 10.5473 11.046L10.7987 10.9447C10.8322 10.9312 10.8484 10.8932 10.8349 10.8597L10.8009 10.7753C10.745 10.6365 10.5871 10.5692 10.4482 10.6251Z" fill="#FFFFFE"/>
</svg>
