<svg width="24" height="24" viewBox="0 0 24 24" fill="none" xmlns="http://www.w3.org/2000/svg">
<g clip-path="url(#clip0)">
<path d="M20.7371 19.9372C20.7273 20.1659 20.6292 20.3818 20.4634 20.5396C20.2977 20.6975 20.0773 20.7849 19.8484 20.7836H6.81365C6.57756 20.7825 6.35151 20.6879 6.18496 20.5206C6.01842 20.3533 5.92492 20.1268 5.92492 19.8907V19.5944C5.97275 19.119 6.11673 18.6582 6.34812 18.2402C6.98293 17.0552 8.16791 16.2088 9.86073 15.6163L15.0662 13.8811C15.873 13.5804 16.6186 13.1359 17.2668 12.5692C17.961 11.9882 18.521 11.2636 18.9082 10.4453C19.2955 9.62701 19.5007 8.73452 19.5098 7.8293L19.8907 8.08323C20.1459 8.25838 20.3557 8.49173 20.5029 8.764C20.6501 9.03627 20.7304 9.33966 20.7371 9.64909V19.933V19.9372ZM16.2935 7.79121C16.3015 8.22941 16.215 8.66419 16.0397 9.06589C15.8644 9.46758 15.6045 9.82674 15.2778 10.1188C14.9212 10.428 14.5221 10.6846 14.0928 10.8806L8.88736 12.6158C5.79796 13.6315 4.27442 15.4089 3.55497 16.7209C3.42458 16.9666 3.31145 17.2212 3.2164 17.4826C3.2164 17.5249 3.17408 17.5249 3.17408 17.5673V9.69564C3.18451 9.38697 3.26637 9.08492 3.41323 8.81322C3.5601 8.54152 3.76796 8.30758 4.02049 8.12978L11.1304 3.47451C11.378 3.32036 11.6639 3.23865 11.9556 3.23865C12.2473 3.23865 12.5332 3.32036 12.7809 3.47451L16.2935 5.80215V7.79121ZM23.9535 19.7679V9.69564C23.9396 8.85871 23.7247 8.03738 23.327 7.30086C22.9293 6.56435 22.3604 5.93422 21.6682 5.46358L19.5521 4.067V0.892958C19.5522 0.656861 19.4587 0.430371 19.2921 0.263029C19.1256 0.0956869 18.8995 0.00111334 18.6634 -5.60377e-06H17.2668C17.1493 -0.00290823 17.0325 0.0180956 16.9233 0.0617311C16.8142 0.105367 16.7151 0.170724 16.6319 0.253836C16.5488 0.336948 16.4835 0.436081 16.4398 0.545219C16.3962 0.654358 16.3752 0.771224 16.3781 0.888726V1.94674L14.6006 0.761765C13.8245 0.262042 12.921 -0.00369263 11.9979 -0.00369263C11.0749 -0.00369263 10.1713 0.262042 9.39521 0.761765L2.28535 5.41703C1.58622 5.88057 1.012 6.50915 0.61343 7.24725C0.214856 7.98536 0.00418838 8.81026 3.79405e-05 9.64909V19.7214C-0.0346472 20.59 0.202017 21.448 0.677167 22.176C1.0288 22.7253 1.52727 23.1651 2.11607 23.4456C2.78042 23.7607 3.49838 23.9474 4.2321 23.9958H19.7638C20.5012 23.9716 21.224 23.7837 21.8798 23.4456C22.4807 23.1664 22.9931 22.7271 23.361 22.176C23.7747 21.4409 23.9796 20.6068 23.9535 19.7637" fill="#38A6FA"/>
</g>
<defs>
<clipPath id="clip0">
<rect width="24" height="24" fill="white"/>
</clipPath>
</defs>
</svg>
