<svg width="24" height="24" viewBox="0 0 24 24" fill="none" xmlns="http://www.w3.org/2000/svg">
<path d="M16.9688 8.96438V14.937L22.1414 11.9562V5.9726L16.9688 8.96438Z" fill="#9290B0"/>
<path d="M22.1414 17.9288L16.9688 14.937V20.9205L22.1414 23.9014V17.9288Z" fill="#A2EEE3"/>
<path d="M11.7962 5.9726V0L1.44 5.9726L6.61261 8.96438L11.7962 5.9726Z" fill="#46DDC8"/>
<path d="M11.7962 17.9288L6.61261 14.937L1.44 17.9288L6.61261 20.9205L11.7962 23.9014V17.9288Z" fill="#262261"/>
<path d="M1.44 5.9726V11.9562V17.9288L6.61261 14.937V8.96438L1.44 5.9726Z" fill="#9290B0"/>
<path d="M16.9687 14.937L11.7961 17.9288V23.9014L16.9687 20.9205V14.937Z" fill="#46DDC8"/>
<path d="M16.9687 8.96438L22.1413 5.9726L16.9687 2.99178L11.7961 0V5.9726L16.9687 8.96438Z" fill="#262261"/>
</svg>
