<svg width="24" height="24" viewBox="0 0 24 24" fill="none" xmlns="http://www.w3.org/2000/svg">
<path d="M12 24C18.6274 24 24 18.6274 24 12C24 5.37258 18.6274 0 12 0C5.37258 0 0 5.37258 0 12C0 18.6274 5.37258 24 12 24Z" fill="#5F2652"/>
<path d="M18.8231 15.108L12.5447 3.8472C12.4362 3.6461 12.2261 3.52075 11.9975 3.52075C11.769 3.52075 11.5589 3.6461 11.4503 3.8472L5.17435 15.108C5.01115 15.3984 5.10475 15.7752 5.39755 15.948L11.6831 19.7064C11.8855 19.8215 12.1336 19.8215 12.3359 19.7064L18.6119 15.9552C18.8903 15.7752 18.9935 15.3984 18.8231 15.108ZM14.0783 10.5696L13.9247 10.44L13.9151 10.4304C13.8663 10.3905 13.815 10.3536 13.7615 10.32L13.7519 10.3104C13.7015 10.2768 13.6487 10.2408 13.5887 10.2072C13.5791 10.2072 13.5791 10.1976 13.5719 10.1976C13.5215 10.164 13.4615 10.1376 13.4087 10.1112C13.3991 10.1112 13.3991 10.1016 13.3919 10.1016C13.3415 10.0752 13.2815 10.0512 13.2215 10.0248C13.2119 10.0248 13.2119 10.0152 13.2047 10.0152C13.1543 9.9984 13.1015 9.972 13.0511 9.9552C12.9124 9.90321 12.7695 9.86307 12.6239 9.8352C12.5135 10.0488 12.3575 10.2384 12.1871 10.3992C12.4535 10.416 12.7103 10.4856 12.9407 10.5792C13.077 10.6379 13.2086 10.7069 13.3343 10.7856C13.341 10.7863 13.3471 10.7898 13.3511 10.7952C13.3847 10.812 13.4111 10.8384 13.4447 10.8648C13.4608 10.8737 13.4754 10.885 13.4879 10.8984C13.519 10.9186 13.548 10.9419 13.5743 10.968C13.5911 10.9848 13.6079 10.9944 13.6247 11.0112C13.6511 11.0376 13.6751 11.0544 13.7015 11.0808L13.7519 11.1312L13.8215 11.2008L13.8719 11.2512C13.8901 11.2759 13.9102 11.2992 13.9319 11.3208C13.9487 11.34 13.9655 11.364 13.9823 11.3808L14.0327 11.4576C14.0495 11.484 14.0663 11.5008 14.0759 11.5272L14.1263 11.604C14.1431 11.6304 14.1527 11.6544 14.1695 11.6736C14.1863 11.7 14.1959 11.724 14.2127 11.7504C14.2295 11.7768 14.2391 11.8008 14.2559 11.8272C14.2655 11.8536 14.2823 11.8776 14.2895 11.904C14.3063 11.9376 14.3159 11.9736 14.3327 11.9976C14.4048 12.173 14.454 12.3569 14.4791 12.5448L14.5559 12.8448C14.5895 12.9744 14.8991 14.0688 15.6167 14.4384C16.4399 14.8656 17.5271 15.3984 17.9543 15.6024L12.3143 18.9768V16.6656C12.3143 16.2984 13.0415 15.8688 13.3751 15.7248L13.3919 15.7152C13.4615 15.6816 13.5287 15.6456 13.5983 15.6048L13.6247 15.588C13.7709 15.5014 13.9083 15.4009 14.0351 15.288C14.0447 15.2784 14.0615 15.2712 14.0687 15.2544C14.0855 15.2448 14.0951 15.228 14.1119 15.2208C14.1551 15.1872 14.1887 15.144 14.2319 15.1104L14.2487 15.0936C14.2931 15.0521 14.3333 15.0062 14.3687 14.9568C14.3783 14.94 14.3951 14.9304 14.4023 14.9136C14.4359 14.88 14.4623 14.8368 14.4959 14.7936C14.5055 14.784 14.5127 14.7672 14.5223 14.76L14.6255 14.6064C14.6255 14.5968 14.6351 14.5968 14.6351 14.5896C14.6783 14.52 14.7215 14.4432 14.7647 14.376C14.5943 14.1696 14.4647 13.9488 14.3615 13.7424C14.3178 13.8693 14.2632 13.9921 14.1983 14.1096C14.1719 14.16 14.1383 14.2128 14.1119 14.2632C14.1023 14.2728 14.1023 14.28 14.0951 14.28C14.0686 14.3216 14.0398 14.3617 14.0087 14.4C13.9991 14.4096 13.9919 14.4264 13.9823 14.4336C13.9557 14.474 13.9243 14.5111 13.8887 14.544C13.8791 14.5536 13.8791 14.5608 13.8719 14.5608C13.6655 14.7912 13.4183 14.988 13.1351 15.1248L13.0847 15.1512C12.9383 15.2112 11.6807 15.7848 11.6807 16.6488V18.96L6.02875 15.5952C6.39595 15.372 7.45915 14.7384 8.33275 14.4648C8.67595 14.3544 9.40315 14.8152 9.81355 15.1488L9.83995 15.1752C9.89284 15.2284 9.94981 15.2773 10.0103 15.3216L10.0271 15.3384C10.1567 15.4416 10.2935 15.5448 10.4471 15.6216L10.5503 15.672C10.557 15.6727 10.5631 15.6762 10.5671 15.6816C10.6607 15.732 10.7543 15.7752 10.8575 15.8184C10.8715 15.825 10.886 15.8307 10.9007 15.8352C10.9103 15.8352 10.9175 15.8448 10.9343 15.8448C11.0807 15.8952 11.2247 15.9384 11.3711 15.9744C11.4815 15.7608 11.6447 15.5712 11.8175 15.4104C11.5769 15.3941 11.3399 15.3423 11.1143 15.2568C11.1047 15.2472 11.0879 15.2472 11.0807 15.24C11.0539 15.2319 11.0281 15.2206 11.0039 15.2064C10.9943 15.1968 10.9775 15.1968 10.9703 15.1896C10.9439 15.18 10.9199 15.1632 10.9007 15.156C10.7303 15.0696 10.5743 14.976 10.4303 14.856L10.2071 14.6496C10.0009 14.4683 9.77741 14.3075 9.53995 14.1696C8.98315 13.8528 8.51275 13.7496 8.15275 13.8624C7.40875 14.1024 6.55915 14.556 6.04555 14.856L11.6879 4.7184V9.1632C11.6879 9.3168 11.4575 9.7272 10.6775 10.08L10.6271 10.1064C10.5503 10.14 10.4807 10.1832 10.4039 10.2264L10.3871 10.236C10.2395 10.3248 10.0991 10.4251 9.96715 10.536C9.88404 10.6036 9.80695 10.6783 9.73675 10.7592L9.72715 10.7688C9.65128 10.8424 9.5822 10.9228 9.52075 11.0088L9.51115 11.0184C9.47755 11.0616 9.45115 11.1048 9.41755 11.148C9.41755 11.1576 9.40795 11.1576 9.40795 11.1648C9.38155 11.208 9.35755 11.2416 9.33115 11.2848C9.33115 11.2944 9.32155 11.2944 9.32155 11.3016L9.24475 11.4312C9.23515 11.4408 9.23515 11.448 9.22795 11.4648C9.20155 11.508 9.18475 11.5512 9.16795 11.5848C9.16725 11.5915 9.16376 11.5976 9.15835 11.6016C9.14155 11.6448 9.12475 11.6784 9.10795 11.7216C9.10131 11.7356 9.0957 11.75 9.09115 11.7648L9.04075 11.8944C9.03411 11.9084 9.0285 11.9228 9.02395 11.9376C9.01597 11.9699 9.00471 12.0012 8.99035 12.0312C8.98075 12.048 8.98075 12.0648 8.97355 12.0816C8.96395 12.1248 8.94715 12.168 8.93995 12.2016C8.93035 12.2184 8.93035 12.2448 8.92315 12.2616C8.91355 12.288 8.91355 12.3216 8.90635 12.348C8.89675 12.3744 8.89675 12.3984 8.88955 12.4248C8.87995 12.4584 8.87995 12.4944 8.87275 12.528C8.87275 12.5544 8.86315 12.5712 8.86315 12.5976C8.86315 12.6312 8.85355 12.6576 8.85355 12.6912C8.85511 12.7227 8.85188 12.7543 8.84395 12.7848V12.9144C8.84293 13.0694 8.85417 13.2243 8.87755 13.3776C9.10075 13.428 9.33115 13.524 9.58075 13.644C9.51115 13.4208 9.47755 13.1904 9.47035 12.9504V12.9072C9.46876 12.8502 9.47197 12.7932 9.47995 12.7368V12.6936C9.47995 12.6432 9.48955 12.6 9.49675 12.5472V12.5304C9.50635 12.48 9.51355 12.4272 9.52315 12.3672C9.52315 12.3504 9.53275 12.3408 9.53275 12.324C9.54235 12.2808 9.55915 12.2376 9.56635 12.1944C9.56635 12.1848 9.57595 12.1776 9.57595 12.168L9.62635 12.0144C9.63595 12.0048 9.63595 11.988 9.64315 11.9808C9.65995 11.9376 9.67675 11.8944 9.69355 11.8608C9.70315 11.8512 9.70315 11.844 9.71035 11.8272C9.73675 11.7768 9.75355 11.7336 9.78715 11.6904C9.79359 11.6822 9.79921 11.6733 9.80395 11.664C9.83035 11.6208 9.84715 11.5872 9.87355 11.544C9.87999 11.5358 9.88561 11.5269 9.89035 11.5176C9.91916 11.4727 9.9504 11.4295 9.98395 11.388C9.98388 11.3854 9.98487 11.383 9.98668 11.3811C9.9885 11.3793 9.99098 11.3783 9.99355 11.3784C10.0271 11.3352 10.0535 11.3016 10.0871 11.2584C10.0936 11.2502 10.0992 11.2413 10.1039 11.232C10.2584 11.0613 10.4343 10.9113 10.6271 10.7856L10.8935 10.656C11.0399 10.596 12.2903 10.0056 12.2903 9.1392V4.7112L17.9855 14.9352C17.4791 14.688 16.5815 14.2416 15.8879 13.8816C15.4847 13.6752 15.2207 12.948 15.1439 12.6816L15.0671 12.3744C15.0671 12.2112 15.0239 12.048 14.9735 11.8872C14.7927 11.3787 14.4845 10.925 14.0783 10.5696Z" fill="white"/>
</svg>
