<svg width="24" height="24" viewBox="0 0 24 24" fill="none" xmlns="http://www.w3.org/2000/svg">
<path d="M12 24C18.6274 24 24 18.6274 24 12C24 5.37258 18.6274 0 12 0C5.37258 0 0 5.37258 0 12C0 18.6274 5.37258 24 12 24Z" fill="#FF3B81"/>
<path d="M6.34425 16.6058V16.7115H5.2365V14.7113L5.202 14.8223L4.14375 14.5028L4.7415 12.5753L4.668 12.6832L3.75 12.0735L4.8975 10.398L4.788 10.485L4.0905 9.6375L5.74125 8.3205L5.53125 8.40075L5.13375 7.38225L7.1055 6.63675L6.8745 6.65175L6.798 5.56425L8.862 5.42175L8.67525 5.37975L8.92425 4.317L10.8968 4.7655L10.7723 4.695L11.325 3.75L13.0448 4.728L12.9772 4.6575L13.7872 3.9135L15.1268 5.328L15.0983 5.271L16.0935 4.7925L16.953 6.528L16.9455 6.47925L18.0382 6.30825L18.3608 8.313L18.3832 8.1705L19.4775 8.34075L19.1505 10.3748L19.2308 10.2112L20.226 10.6898L19.305 12.5505L19.44 12.408L20.2493 13.1528L18.8175 14.6647L18.9907 14.5665L19.5443 15.5115L17.745 16.5345L17.9257 16.4932L18.1755 17.556L16.1865 18.0082L16.3403 18.0187L16.263 19.107L14.2725 18.9697L14.3738 19.008L13.9762 20.0265L12.0712 19.3065L12.192 19.4025L11.4952 20.25L9.9225 18.9952L10.0005 19.1085L9.0825 19.719L7.9575 18.0765L7.99125 18.1845L6.93225 18.504L6.34425 16.6058ZM6.34425 15.3097L7.03575 15.1012L7.57275 16.8337L8.17125 16.4363L9.19275 17.9288L9.6495 17.3738L11.0655 18.5033L11.319 17.853L13.026 18.498L13.0755 17.7938L14.9025 17.9198L14.7375 17.2185L16.5285 16.8113L16.1572 16.1782L17.7555 15.2692L17.208 14.7667L18.4703 13.4332L17.7968 13.1093L18.609 11.4698L17.8725 11.3542L18.162 9.55425L17.457 9.66375L17.1683 7.86375L16.5338 8.16825L15.7275 6.54075L15.21 7.0155L13.9635 5.69775L13.6065 6.30675L12.0278 5.409L11.8643 6.105L10.0883 5.70075L10.14 6.4275L8.31675 6.55275L8.586 7.245L6.8685 7.8945L7.33125 8.45625L5.88975 9.606L6.498 10.0103L5.46 11.5275L6.15975 11.739L5.6175 13.4872H6.345L6.34425 15.3097ZM11.7817 13.266C11.7817 12.99 11.6842 12.7793 11.49 12.633C11.295 12.4838 10.9462 12.3278 10.4407 12.1658C9.93525 12.0008 9.5355 11.838 9.24075 11.6783C8.43825 11.2432 8.03625 10.6582 8.03625 9.921C8.03625 9.53775 8.14275 9.1965 8.3565 8.898C8.574 8.59575 8.883 8.36025 9.28425 8.1915C9.68925 8.02275 10.143 7.93875 10.6447 7.93875C11.1502 7.93875 11.6003 8.031 11.9948 8.21625C12.39 8.39775 12.696 8.65575 12.9135 8.99025C13.1349 9.32876 13.2498 9.72582 13.2435 10.1302H11.7863C11.7863 9.8055 11.6843 9.5535 11.4803 9.375C11.2762 9.1935 10.9898 9.10275 10.6208 9.10275C10.2645 9.10275 9.987 9.1785 9.78975 9.3315C9.69564 9.39881 9.61943 9.48813 9.56779 9.59168C9.51615 9.69522 9.49064 9.80983 9.4935 9.9255C9.4935 10.1558 9.60825 10.3492 9.8385 10.5052C10.071 10.6605 10.413 10.8067 10.863 10.9432C11.6925 11.193 12.2962 11.5035 12.675 11.8733C13.0545 12.2438 13.2435 12.705 13.2435 13.2562C13.2435 13.8705 13.0118 14.352 12.549 14.703C12.0855 15.0503 11.4622 15.2242 10.6785 15.2242C10.1676 15.231 9.66106 15.1298 9.192 14.9272C8.74575 14.7255 8.40375 14.451 8.1675 14.1038C7.93425 13.7565 7.81725 13.3538 7.81725 12.8962H9.27975C9.27975 13.6785 9.74625 14.07 10.6785 14.07C11.025 14.07 11.2957 14.0002 11.49 13.86C11.5841 13.793 11.6601 13.7036 11.711 13.5999C11.7619 13.4962 11.7862 13.3814 11.7817 13.266ZM16.2292 8.9175L14.8245 14.0565L13.6672 13.9755L14.5425 8.6775L16.2292 8.9175ZM15.0037 14.592L14.6385 16.4078L13.0995 15.9585L13.4528 14.217L15.0037 14.592Z" fill="white"/>
</svg>
