<svg width="24" height="24" viewBox="0 0 24 24" fill="none" xmlns="http://www.w3.org/2000/svg">
<path d="M12 0C5.37252 0 0 5.37264 0 12C0 18.6274 5.37252 24 12 24C18.6275 24 24 18.6272 24 12C24 5.37276 18.6276 0 12 0ZM16.848 7.13028C16.8358 7.23476 16.8198 7.33876 16.8 7.44228C16.7782 7.55812 16.7516 7.67296 16.7202 7.7868C16.6909 7.89706 16.652 8.00455 16.6039 8.10804C16.5647 8.19535 16.5129 8.27645 16.4502 8.34876C16.3937 8.41164 16.3342 8.44272 16.2702 8.44272C16.171 8.44272 16.0475 8.4036 15.8996 8.32536C15.7518 8.24712 15.5701 8.16208 15.3545 8.07024C15.1083 7.9687 14.8558 7.8834 14.5985 7.81488C14.3087 7.73656 13.9804 7.69732 13.6136 7.69716C13.2327 7.69716 12.9099 7.74436 12.6454 7.83876C12.3808 7.93316 12.1638 8.05768 11.9942 8.21232C11.8247 8.36592 11.6993 8.53992 11.6185 8.7312C11.5396 8.91468 11.4986 9.11225 11.498 9.312C11.498 9.53872 11.5614 9.73872 11.6881 9.912C11.8148 10.0853 11.9844 10.2458 12.1967 10.3936C12.4278 10.5537 12.6701 10.6973 12.9215 10.8233C13.1986 10.9648 13.474 11.1096 13.7477 11.2576C14.0296 11.4108 14.3046 11.576 14.5727 11.753C14.8403 11.9291 15.0841 12.1388 15.2982 12.377C15.5124 12.617 15.6843 12.8916 15.8063 13.1892C15.9331 13.4943 15.9966 13.8452 15.9967 14.242C15.9967 14.834 15.8627 15.3833 15.5946 15.8899C15.3265 16.3966 14.9472 16.8374 14.4566 17.2126C13.9662 17.5868 13.3736 17.881 12.6786 18.0952C12.4804 18.1552 12.2797 18.2061 12.0766 18.2478L11.9677 19.7683C11.9592 19.9231 11.8895 20.0681 11.774 20.1714C11.6586 20.2748 11.5067 20.328 11.352 20.3194H11.3512C11.029 20.301 10.7827 20.025 10.801 19.7029L10.8938 18.4003C10.7178 18.4111 10.5418 18.4168 10.3658 18.4175C10.2257 18.4175 10.0956 18.4086 9.96204 18.4025L9.864 19.7687C9.85539 19.9233 9.78569 20.0682 9.67024 20.1715C9.55479 20.2747 9.40305 20.3279 9.2484 20.3192H9.24756C8.92537 20.3009 8.67898 20.025 8.69712 19.7028L8.8002 18.2591C8.53356 18.2052 8.28264 18.1462 8.06304 18.0769C7.76336 17.9824 7.51108 17.8834 7.3062 17.7797C7.10148 17.6759 6.94992 17.5757 6.85128 17.4823C6.75264 17.389 6.70296 17.2462 6.70296 17.0568C6.70528 16.9808 6.71237 16.9051 6.7242 16.83C6.73812 16.7293 6.75756 16.6205 6.78216 16.5047C6.80676 16.3889 6.83676 16.2682 6.87228 16.1455C6.90454 16.0302 6.94711 15.918 6.99948 15.8104C7.04114 15.7206 7.09644 15.6378 7.1634 15.565C7.2234 15.5022 7.28856 15.4702 7.35936 15.4702C7.47936 15.4702 7.62224 15.5191 7.788 15.6169C7.95376 15.7148 8.16004 15.8216 8.40684 15.9376C8.65372 16.0543 8.94664 16.1629 9.2856 16.2634C9.62456 16.3638 10.0303 16.4144 10.5028 16.415C10.9188 16.415 11.284 16.3678 11.5985 16.2734C11.913 16.179 12.1758 16.05 12.3869 15.8862C12.5986 15.7224 12.7591 15.5318 12.8683 15.3145C12.9775 15.0972 13.0324 14.8596 13.0328 14.6015C13.0328 14.3688 12.9692 14.1642 12.8419 13.9878C12.7146 13.8114 12.547 13.6488 12.339 13.5C12.114 13.3417 11.877 13.2013 11.6302 13.08C11.3576 12.9434 11.0878 12.8015 10.8206 12.6544C10.5438 12.5024 10.2738 12.3388 10.0109 12.1636C9.74835 11.9892 9.50983 11.7811 9.30144 11.5446C9.08915 11.3026 8.91921 11.0265 8.79876 10.728C8.67188 10.4198 8.6084 10.0612 8.60832 9.65196C8.60832 9.08524 8.73524 8.56248 8.98908 8.08368C9.24292 7.60488 9.59576 7.19408 10.0476 6.85128C10.4033 6.58104 10.8156 6.35928 11.2812 6.18252L11.4106 4.37364C11.4223 4.16518 11.5444 3.97882 11.7308 3.88478C11.9173 3.79074 12.1397 3.8033 12.3143 3.91772C12.489 4.03215 12.5893 4.23106 12.5776 4.43952L12.4756 5.86452C12.7862 5.81356 13.0998 5.78234 13.4144 5.77104L13.5139 4.37364C13.5357 4.05426 13.8102 3.81178 14.1299 3.82973C14.4495 3.84767 14.6952 4.11936 14.681 4.43916L14.5829 5.8134C14.6372 5.81964 14.6941 5.82312 14.7474 5.83092C15.0402 5.87314 15.3301 5.93325 15.6155 6.01092C15.8764 6.08364 16.0986 6.164 16.2822 6.252C16.4658 6.34 16.5928 6.41408 16.6633 6.47424C16.7339 6.53424 16.7851 6.59664 16.8169 6.6624C16.8487 6.72816 16.8649 6.81252 16.8649 6.91308C16.8649 6.9642 16.8592 7.03632 16.8487 7.13076L16.848 7.13028Z" fill="#01AEF0"/>
</svg>
