<svg width="24" height="24" viewBox="0 0 24 24" fill="none" xmlns="http://www.w3.org/2000/svg">
<g clip-path="url(#clip0)">
<path d="M12.002 0C5.3735 0 0 5.3735 0 12.002C0 18.6306 5.3735 24.0041 12.002 24.0041C18.6306 24.0041 24.0041 18.6306 24.0041 12.002C24.0041 5.3735 18.6306 0 12.002 0ZM9.00051 16.1489L8.88678 16.2626C8.65121 16.4982 8.39939 16.7216 8.13945 16.9288L7.83889 17.1643C7.81858 17.1806 7.79421 17.1887 7.76984 17.1887C7.74953 17.1887 7.72923 17.1846 7.71298 17.1724C7.67236 17.1481 7.65206 17.1034 7.66424 17.0547L7.78203 16.5226C7.912 15.9458 7.88357 15.3407 7.70079 14.7761L7.63581 14.5811C7.5627 14.3537 7.47334 14.1303 7.37993 13.911L5.99492 10.6414L5.84464 10.1946C5.79997 10.0565 5.76747 9.91437 5.75123 9.76815L5.72686 9.54476C5.65781 8.91521 5.87307 8.29785 6.31985 7.85107L6.43358 7.73735C6.66915 7.50178 6.92097 7.27839 7.18091 7.07125L7.48147 6.83567C7.51802 6.80724 7.56676 6.80318 7.60738 6.82755C7.64799 6.85192 7.6683 6.8966 7.65612 6.94534L7.53833 7.47741C7.40836 8.05415 7.43679 8.65933 7.61956 9.2239L7.68455 9.41885C7.75766 9.6463 7.84701 9.86969 7.94043 10.089L9.3295 13.3586L9.47978 13.8054C9.52445 13.9435 9.55695 14.0856 9.57319 14.2318L9.59756 14.4552C9.66255 15.0807 9.44728 15.7021 9.00051 16.1489ZM13.6876 17.2212L13.5414 17.3674C13.2449 17.6639 12.9281 17.9482 12.5991 18.2041L12.2092 18.5128C12.1889 18.529 12.1604 18.5371 12.1361 18.5371C12.1158 18.5371 12.0914 18.529 12.0711 18.5168C12.0264 18.4884 12.0061 18.4397 12.0183 18.3909L12.1726 17.7045C12.3351 16.9734 12.2985 16.2098 12.067 15.4991L11.9858 15.2513C11.8924 14.9629 11.7827 14.6786 11.6609 14.4024L9.91031 10.2799L9.72347 9.71941C9.66661 9.54882 9.62599 9.36605 9.60569 9.18734L9.57319 8.90303C9.48384 8.11508 9.75596 7.34337 10.3124 6.77881L10.4586 6.63259C10.7551 6.3361 11.0719 6.05178 11.4009 5.7959L11.7908 5.48722C11.8314 5.45473 11.8842 5.45067 11.9289 5.4791C11.9736 5.50753 11.9939 5.55627 11.9817 5.60501L11.8274 6.29142C11.6649 7.02251 11.7015 7.78609 11.933 8.49687L12.0142 8.74463C12.1076 9.02894 12.2173 9.31731 12.3391 9.5935L14.0897 13.7201L14.2765 14.2806C14.3334 14.4512 14.374 14.6339 14.3943 14.8127L14.4268 15.097C14.5162 15.8849 14.244 16.6607 13.6876 17.2212ZM17.6842 16.1489L17.5705 16.2626C17.3349 16.4982 17.0831 16.7216 16.8232 16.9288L16.5226 17.1643C16.5023 17.1806 16.4779 17.1887 16.4535 17.1887C16.4332 17.1887 16.4129 17.1846 16.3967 17.1724C16.3561 17.1481 16.3358 17.1034 16.3479 17.0547L16.4657 16.5226C16.5957 15.9458 16.5673 15.3407 16.3845 14.7761L16.3195 14.5811C16.2464 14.3537 16.157 14.1303 16.0636 13.911L14.6746 10.6414L14.5243 10.1946C14.4796 10.0565 14.4471 9.91437 14.4309 9.76815L14.4065 9.54476C14.3375 8.91521 14.5527 8.29785 14.9995 7.85107L15.1132 7.73735C15.3488 7.50178 15.6006 7.27839 15.8605 7.07125L16.1611 6.83567C16.1977 6.80724 16.2464 6.80318 16.287 6.82755C16.3276 6.85192 16.3479 6.8966 16.3358 6.94534L16.218 7.47741C16.088 8.05415 16.1164 8.65933 16.2992 9.2239L16.3642 9.41885C16.4373 9.6463 16.5267 9.86969 16.6201 10.089L18.0091 13.3586L18.1594 13.8054C18.2041 13.9435 18.2366 14.0856 18.2528 14.2318L18.2772 14.4552C18.3463 15.0807 18.131 15.7021 17.6842 16.1489Z" fill="#171FC9"/>
</g>
<defs>
<clipPath id="clip0">
<rect width="24" height="24" fill="white"/>
</clipPath>
</defs>
</svg>
