<svg width="24" height="24" viewBox="0 0 24 24" fill="none" xmlns="http://www.w3.org/2000/svg">
<path d="M12 24C18.6274 24 24 18.6274 24 12C24 5.37258 18.6274 0 12 0C5.37258 0 0 5.37258 0 12C0 18.6274 5.37258 24 12 24Z" fill="#FF439B"/>
<path fill-rule="evenodd" clip-rule="evenodd" d="M13.6695 10.353L17.8942 17.625H6.18375L7.587 15.2977L13.896 15.2992L12.297 12.6893L13.6695 10.353ZM9.357 12.045L13.6522 4.905L19.5 14.7502H16.692L13.602 9.38025L12.1013 12.0458L9.357 12.045ZM13.0208 14.7593L4.5 14.7188L10.3553 4.875L11.7502 7.2345L8.523 12.423H11.6483L13.0208 14.7593Z" fill="white"/>
</svg>
