<svg width="24" height="24" viewBox="0 0 24 24" fill="none" xmlns="http://www.w3.org/2000/svg">
<path d="M12 24C18.6274 24 24 18.6274 24 12C24 5.37258 18.6274 0 12 0C5.37258 0 0 5.37258 0 12C0 18.6274 5.37258 24 12 24Z" fill="#30C0F2"/>
<path d="M16.4228 5.25C16.4228 5.25 16.6568 6.4155 17.9078 6.4935C17.9078 6.4935 22.0493 16.131 11.9685 20.25C11.9685 20.25 2.66927 17.2965 5.95127 6.5715C5.95127 6.5715 7.35827 6.4935 7.59227 5.25H16.4228ZM15.9548 6.01725H8.06477L8.05427 6.18525C7.98827 6.552 7.80452 6.80775 7.53527 6.98025C7.3684 7.08546 7.18142 7.15469 6.98627 7.1835L6.84827 7.197L6.80927 7.3305C6.08252 9.813 6.05777 11.958 6.63002 13.788C7.09952 15.288 7.94927 16.518 9.06902 17.5005C9.65999 18.0187 10.3139 18.4605 11.0153 18.8152C11.2478 18.933 11.4653 19.0297 11.6595 19.1077C11.7773 19.155 11.8635 19.1857 11.9108 19.2015L11.9843 19.224L12.0555 19.194C14.835 18.006 16.5165 16.2105 17.2695 13.974C17.892 12.129 17.8365 10.1648 17.3723 8.30475C17.283 7.94793 17.1754 7.59596 17.0498 7.25025C17.0396 7.22286 17.0291 7.19561 17.0183 7.1685L16.9703 7.05L16.842 7.04175C16.4775 7.01775 16.2458 6.86925 16.1025 6.63075C16.0263 6.50251 15.9789 6.35918 15.9638 6.21075L15.9548 6.01725Z" fill="white"/>
<path d="M8.42095 6.42599C13.1962 6.42674 15.5835 6.42749 15.5835 6.42824C15.6165 6.56849 15.6697 6.70799 15.7485 6.84074C15.9405 7.15949 16.2487 7.37475 16.6807 7.43625C16.794 7.75375 16.8917 8.07664 16.9732 8.40375C17.4202 10.1947 17.4727 12.0832 16.8795 13.8442C16.1707 15.9495 14.595 17.6445 11.9662 18.7867C11.7055 18.6885 11.4504 18.5761 11.202 18.45C10.5315 18.1112 9.90632 17.6894 9.3412 17.1945C8.27545 16.2585 7.46845 15.0915 7.02295 13.6672C6.48445 11.946 6.4987 9.9225 7.16845 7.56675C7.37688 7.51914 7.57588 7.43701 7.7572 7.32375C8.07595 7.1205 8.30995 6.82349 8.42095 6.42599Z" fill="#F9B631"/>
<path d="M11.3182 8.937C11.6674 8.81895 12.0428 8.8018 12.4012 8.8875C13.635 9.1635 13.7362 10.1565 13.7137 10.6125H13.9417C14.2965 10.6125 14.5847 10.899 14.5867 11.2538V13.935C14.5847 14.2898 14.2965 14.5763 13.9417 14.5763H10.0732C9.71846 14.5763 9.43029 14.2898 9.42822 13.935V11.2538C9.43029 10.899 9.71846 10.6125 10.0732 10.6125H10.2405C10.2622 9.53775 10.8367 9.108 11.3182 8.937ZM12.5602 11.6481C12.4138 11.505 12.1955 11.4645 12.0075 11.5455C11.7675 11.5442 11.5599 11.7121 11.5107 11.9469C11.4616 12.1818 11.5846 12.4188 11.805 12.5138L11.5777 13.644H12.4372L12.21 12.5138C12.4147 12.5127 12.5985 12.3881 12.6752 12.1983C12.752 12.0085 12.7065 11.7912 12.5602 11.6481ZM13.0882 10.6125C13.11 9.30225 11.8905 9.369 11.8905 9.369C10.9657 9.4305 10.8172 10.2615 10.7962 10.6125H13.0882Z" fill="white"/>
</svg>
