<svg width="24" height="24" viewBox="0 0 24 24" fill="none" xmlns="http://www.w3.org/2000/svg">
<path d="M14.8969 14.8492V14.7812" stroke="#ABABAB" stroke-width="0.3333" stroke-miterlimit="1.3333"/>
<path d="M20.2636 8.47311L24 2C23.0683 2.11646 22.1561 2.3979 21.3118 2.8152C20.5936 4.2224 20.5742 5.6393 19.7105 6.90093C16.6729 11.3651 11.5681 12.7529 7.09422 9.82208C4.52244 8.14315 2.97938 3.79539 2.68823 2.8152C1.84391 2.3979 0.931662 2.11646 0 2C1.24222 4.15447 2.49414 6.31864 3.73635 8.47311C8.28791 10.0744 11.3158 15.5964 11.9757 19.8277C12.558 14.9462 16.0032 10.3655 20.2636 8.47311Z" fill="url(#paint0_linear)"/>
<path d="M20.2637 8.47308C14.0429 10.1617 10.3551 16.5572 12.0049 22.7877L20.2637 8.47308Z" fill="url(#paint1_linear)"/>
<path d="M3.73633 8.47308L11.9951 22.7877C13.6449 16.5572 9.95712 10.1714 3.73633 8.47308Z" fill="url(#paint2_linear)"/>
<path d="M19.9434 6.95914C20.7198 5.70722 21.1953 4.29032 21.3215 2.81519C19.2932 3.82449 17.7404 5.60047 17.0222 7.74523C15.4112 12.5685 8.59846 12.5685 6.98746 7.74523C6.2596 5.60047 4.71654 3.82449 2.68823 2.82489C3.12495 7.96844 7.64739 11.7824 12.7909 11.3457C15.7315 11.0934 18.3809 9.47269 19.9434 6.95914Z" fill="url(#paint3_linear)"/>
<defs>
<linearGradient id="paint0_linear" x1="12.0023" y1="2.00267" x2="12.0023" y2="19.8364" gradientUnits="userSpaceOnUse">
<stop stop-color="#0090FF"/>
<stop offset="1" stop-color="#0A3979"/>
</linearGradient>
<linearGradient id="paint1_linear" x1="11.61" y1="15.6311" x2="20.2626" y2="15.6311" gradientUnits="userSpaceOnUse">
<stop stop-color="#0090FF"/>
<stop offset="0.96" stop-color="#084A93"/>
<stop offset="1" stop-color="#084A93"/>
</linearGradient>
<linearGradient id="paint2_linear" x1="8.06483" y1="8.47543" x2="8.06483" y2="22.7857" gradientUnits="userSpaceOnUse">
<stop stop-color="#0090FF"/>
<stop offset="0.96" stop-color="#084A93"/>
<stop offset="1" stop-color="#084A93"/>
</linearGradient>
<linearGradient id="paint3_linear" x1="11.9994" y1="11.3763" x2="11.9994" y2="2.81713" gradientUnits="userSpaceOnUse">
<stop stop-color="#13D5D2"/>
<stop offset="0.43" stop-color="#12E0E4"/>
<stop offset="1" stop-color="#76BDFF"/>
</linearGradient>
</defs>
</svg>
