<svg width="24" height="24" viewBox="0 0 24 24" fill="none" xmlns="http://www.w3.org/2000/svg">
<path d="M12 24C18.6274 24 24 18.6274 24 12C24 5.37258 18.6274 0 12 0C5.37258 0 0 5.37258 0 12C0 18.6274 5.37258 24 12 24Z" fill="#338BE5"/>
<path d="M16.9725 12.6885C17.52 12.8355 18.06 13.0057 18.546 13.305C18.762 13.4377 18.9638 13.5937 19.146 13.7692C19.416 14.0692 19.398 14.3858 19.152 14.703C18.936 14.979 18.642 15.1552 18.3293 15.3022C17.5373 15.684 16.6973 15.9015 15.8393 16.0305C15.1425 16.1355 14.4345 16.1955 13.7318 16.2833C13.6987 16.2903 13.6674 16.3038 13.6396 16.323C13.6118 16.3421 13.5881 16.3666 13.5698 16.395C13.0778 17.1285 12.5918 17.8628 12.0998 18.597C12.0602 18.6454 12.0242 18.6965 11.9918 18.75C11.4721 17.9703 10.9579 17.187 10.449 16.4003C10.4276 16.3634 10.397 16.3327 10.3602 16.3112C10.3234 16.2896 10.2816 16.2779 10.239 16.2772C8.83426 16.1775 7.44826 15.9953 6.12151 15.5198C5.70151 15.3728 5.29951 15.1905 4.95151 14.9145C4.93276 14.8965 4.90876 14.8845 4.89151 14.8673C4.38151 14.439 4.36876 13.9807 4.86151 13.5397C5.25151 13.1872 5.73151 12.9878 6.22951 12.8348C6.72751 12.6818 7.23151 12.5708 7.73626 12.4418C7.76026 12.4358 7.78426 12.4358 7.82626 12.4238C6.73951 10.7618 5.66551 9.117 4.56676 7.449C4.63276 7.443 4.68076 7.437 4.72276 7.437C5.40151 7.431 6.07951 7.437 6.75751 7.431C6.80545 7.42812 6.85317 7.43938 6.89477 7.46338C6.93637 7.48738 6.97 7.52306 6.99151 7.566C8.63401 10.071 10.275 12.5768 11.9138 15.0848C11.9378 15.1267 11.966 15.1661 11.9978 15.2025C12.3758 14.6325 12.7418 14.0865 13.1018 13.5397C14.4218 11.5447 15.7425 9.552 17.0633 7.56075C17.1113 7.49025 17.1473 7.437 17.2553 7.437C17.9693 7.443 18.684 7.443 19.398 7.443C19.4318 7.443 19.4655 7.4445 19.5 7.449C18.3856 9.13038 17.2691 10.8104 16.1505 12.489C16.4333 12.5588 16.7033 12.618 16.9733 12.6885H16.9725ZM6.67351 14.0985C6.81301 14.2538 6.97726 14.3873 7.15951 14.4915C7.90951 14.8913 8.73826 15.0375 9.59701 15.1665C9.58501 15.126 9.58501 15.108 9.57901 15.0968C9.09226 14.3617 8.61226 13.6223 8.12626 12.888C8.10675 12.8689 8.083 12.8546 8.05693 12.8464C8.03086 12.8382 8.00321 12.8362 7.97626 12.8408C7.69126 12.9345 7.41226 13.0463 7.14151 13.176C6.96624 13.2726 6.80976 13.3998 6.67951 13.5518C6.60671 13.6236 6.56523 13.7213 6.5641 13.8235C6.56298 13.9258 6.6023 14.0243 6.67351 14.0978V14.0985ZM16.1265 14.7322C16.4536 14.6439 16.7529 14.4741 16.9965 14.2388C17.2373 13.9988 17.2373 13.728 16.9965 13.4813C16.937 13.4168 16.8685 13.3613 16.7933 13.3162C16.5353 13.1872 16.2653 13.0642 16.0005 12.9352C15.9105 12.888 15.8565 12.9232 15.8025 13.0057C15.5205 13.4407 15.2325 13.8682 14.9445 14.298C14.7645 14.568 14.5845 14.844 14.3985 15.126C14.4463 15.132 14.4947 15.132 14.5425 15.126C15.0705 14.997 15.6045 14.8792 16.1265 14.7322ZM16.1325 6.75L12.0218 13.299L7.85626 6.75H16.1325Z" fill="white"/>
</svg>
