<svg width="24" height="24" viewBox="0 0 24 24" fill="none" xmlns="http://www.w3.org/2000/svg">
<path fill-rule="evenodd" clip-rule="evenodd" d="M24 12C24 18.6274 18.6274 24 12 24C5.37255 24 0 18.6274 0 12C0 5.37255 5.37255 0 12 0C18.6274 0 24 5.37255 24 12Z" fill="#3E2D2A"/>
<path fill-rule="evenodd" clip-rule="evenodd" d="M12 22.2542C6.34585 22.2542 1.74581 17.6541 1.74581 12C1.74581 6.34588 6.34585 1.74584 12 1.74584C17.6541 1.74584 22.2541 6.34588 22.2541 12C22.2541 17.6541 17.6541 22.2542 12 22.2542ZM12 1.08286C5.98028 1.08286 1.08282 5.98031 1.08282 12C1.08282 18.0197 5.98028 22.9172 12 22.9172C18.0197 22.9172 22.9171 18.0197 22.9171 12C22.9171 5.98031 18.0197 1.08286 12 1.08286Z" fill="#FFFFFE"/>
<path fill-rule="evenodd" clip-rule="evenodd" d="M14.8247 13.6251V11.3533H16.9407C17.1786 11.3533 17.3696 11.4571 17.5137 11.6649C17.6578 11.8726 17.7298 12.1474 17.7298 12.4892C17.7298 12.831 17.6578 13.1057 17.5137 13.3135C17.3696 13.5212 17.1786 13.6251 16.9407 13.6251H14.8247ZM17.4597 14.5268C17.6208 14.4829 17.7721 14.4209 17.9108 14.3363C18.1989 14.1604 18.4226 13.915 18.5818 13.6C18.7409 13.285 18.8205 12.9148 18.8205 12.4892C18.8205 12.0636 18.7409 11.6934 18.5818 11.3784C18.4226 11.0635 18.1989 10.818 17.9108 10.6421C17.6226 10.4662 17.2858 10.3782 16.9005 10.3782H13.7993V10.3832H9.28455L10.6128 6.30875H9.49697L7.74285 12.0385L5.98873 6.30875H4.87292L7.25529 13.6167H8.23041L8.96658 11.3583H10.7619V17.6912H11.7872V11.3583H13.7993V17.6912H14.8247V14.6002H16.3512L17.9108 17.6912H19.1271L17.4597 14.5268Z" fill="#FFFFFE"/>
</svg>
