<svg width="33" height="22" viewBox="0 0 33 22" fill="none" xmlns="http://www.w3.org/2000/svg">
<path d="M2.31367 6.91321C3.982 6.03126 4.51367 5.17709 4.71533 4.48265C3.46133 4.54515 2.52633 5.76737 2.31367 6.91321Z" fill="#2B2B2B"/>
<path d="M5.54766 2.47918C5.25491 2.46931 4.96303 2.5149 4.68914 2.61328C4.41524 2.71166 4.16485 2.86085 3.95266 3.05209C3.74867 3.21578 3.56645 3.40233 3.41 3.60765C3.18379 3.91409 3.00247 4.24815 2.871 4.60071C3.46602 4.33644 4.04175 4.03485 4.59433 3.69793C4.98969 3.35162 5.31304 2.93824 5.54766 2.47918Z" fill="#2B2B2B"/>
<path d="M30.4517 11.7049C30.6631 11.0061 30.8043 10.2899 30.8733 9.56597C31.6543 9.25347 32.901 7.82986 32.5783 5.65278C31.3573 7.13194 31.5773 7.27083 30.888 9.39236C30.9458 8.65887 30.9311 7.92187 30.844 7.19097C31.284 6.90278 32.4317 5.29861 31.6543 3.12847C30.822 4.69792 31.009 4.78125 30.8293 7.07986C30.731 6.32403 30.5617 5.57802 30.3233 4.85069C30.69 4.50347 30.877 3.58681 30.9357 3.11458C30.9965 2.29903 30.7807 1.48639 30.3197 0.795139C30.1485 1.31748 30.0426 1.85706 30.0043 2.40278C30.0127 2.6109 30.0335 2.81841 30.0667 3.02431C30.0997 3.27083 30.1437 3.54167 30.1803 3.79514C30.25 4.25347 30.305 4.66319 30.3233 4.80208C30.173 4.3368 29.986 3.86111 29.8283 3.50347C29.7953 3.42708 29.766 3.36806 29.7477 3.31944C29.7231 3.08476 29.6778 2.85246 29.612 2.625C29.5209 2.29115 29.3982 1.96576 29.2453 1.65278C28.8906 0.975913 28.3465 0.404225 27.6723 0C27.874 0.72766 28.1865 1.42362 28.6 2.06597C28.7393 2.26736 28.9887 2.58333 29.2197 2.86458C29.392 3.07639 29.5497 3.26736 29.6487 3.36458L29.722 3.53472C30.3852 5.02405 30.7507 6.617 30.8 8.23264C30.8 8.54167 30.8 8.86111 30.7743 9.1875C30.7669 8.8495 30.7 8.51505 30.5763 8.19792C30.2647 7.40972 29.667 6.68403 28.743 6.5C28.9001 7.34762 29.369 8.1152 30.0667 8.66667C30.2869 8.88118 30.5195 9.08404 30.7633 9.27431C30.7072 10.008 30.5758 10.7348 30.371 11.4444C30.4069 11.1399 30.3933 10.8319 30.3307 10.5312C30.2794 10.1014 30.1117 9.69135 29.8438 9.34094C29.5759 8.99052 29.2169 8.71161 28.8017 8.53125C28.8214 9.114 28.9666 9.6868 29.2282 10.2146C29.4899 10.7424 29.8625 11.214 30.3233 11.6007C30.1086 12.3026 29.8275 12.9847 29.4837 13.6389C29.777 12.6424 29.579 11.1632 28.4313 10.4792C28.3364 11.0667 28.3733 11.6665 28.5394 12.2396C28.7056 12.8127 28.9973 13.3463 29.3957 13.8056C29.0434 14.4539 28.602 15.0552 28.083 15.5937C28.1286 15.5169 28.1678 15.4368 28.2003 15.3542C28.6513 14.3125 28.567 13.1319 27.6503 12.3056C27.159 13.6562 27.698 15.2639 27.9327 15.7431L27.9107 15.7674C27.3781 16.2868 26.7795 16.7417 26.1287 17.1215C26.7813 16.4271 27.467 15.0382 26.5613 13.8229C25.9746 14.8661 25.7561 16.0598 25.938 17.2292C25.2673 17.6052 24.5631 17.9247 23.8333 18.184C24.9003 17.3576 25.6117 16.2083 25.1497 14.9236C25.0177 15.0556 24.816 15.2708 24.5923 15.5278C23.9712 16.3181 23.6322 17.2753 23.6243 18.2604C22.891 18.5243 22.132 18.7361 21.3657 18.9549C23.199 17.6632 23.4227 16.7188 23.3493 15.7257C23.1697 15.8472 22.88 16.0312 22.561 16.2847C22.1962 16.5651 21.8827 16.9007 21.6333 17.2778C21.4984 17.5402 21.3916 17.8147 21.3143 18.0972C21.22 18.3902 21.1669 18.6938 21.1567 19C20.339 19.2188 19.6203 19.4028 18.854 19.625C19.5163 19.1165 20.122 18.5452 20.6617 17.9201C20.9734 17.4297 21.1523 16.8738 21.1823 16.3021C20.8452 16.4696 20.5183 16.6551 20.2033 16.8576C19.7015 17.1549 19.2941 17.5752 19.0243 18.0741C18.7544 18.5729 18.6322 19.1317 18.6707 19.691C17.9251 19.9042 17.1991 20.1748 16.5 20.5C15.8009 20.1748 15.0749 19.9042 14.3293 19.691C14.3654 19.133 14.2417 18.5762 13.9712 18.0794C13.7008 17.5825 13.2938 17.164 12.793 16.8681C12.478 16.6655 12.1512 16.48 11.814 16.3125C11.8441 16.8842 12.0229 17.4401 12.3347 17.9306C12.8744 18.5556 13.4801 19.1269 14.1423 19.6354C13.376 19.4132 12.6757 19.2292 11.8397 19.0104C11.8294 18.7042 11.7764 18.4007 11.682 18.1076C11.6067 17.8217 11.501 17.5436 11.3667 17.2778C11.1205 16.8975 10.8095 16.5584 10.4463 16.2743C10.1273 16.0208 9.83767 15.8368 9.658 15.7153C9.58467 16.7083 9.80467 17.6528 11.6417 18.9444C10.8753 18.7361 10.131 18.5243 9.383 18.25C9.37257 17.2668 9.03228 16.3123 8.41133 15.5243C8.18767 15.2569 7.986 15.0521 7.854 14.9201C7.392 16.2049 8.10333 17.3507 9.17033 18.1806C8.43808 17.9216 7.73135 17.6021 7.05833 17.2257C7.2402 16.0564 7.02175 14.8626 6.435 13.8194C5.52933 15.0278 6.215 16.4375 6.86767 17.1181C6.21681 16.7382 5.61824 16.2833 5.08567 15.7639L5.06367 15.7396C5.29833 15.2604 5.83733 13.6562 5.346 12.3021C4.41833 13.1285 4.345 14.3229 4.796 15.3507C4.82852 15.4333 4.86775 15.5134 4.91333 15.5903C4.39432 15.0517 3.95293 14.4504 3.60067 13.8021C3.99901 13.3428 4.29075 12.8093 4.4569 12.2361C4.62305 11.663 4.65989 11.0632 4.565 10.4757C3.41733 11.1701 3.21933 12.6389 3.51267 13.6354C3.17026 12.9822 2.89047 12.3013 2.67667 11.6007C3.13749 11.214 3.51014 10.7424 3.77178 10.2146C4.03343 9.6868 4.17858 9.114 4.19833 8.53125C3.7831 8.71161 3.42413 8.99052 3.15623 9.34094C2.88834 9.69135 2.72062 10.1014 2.66933 10.5312C2.60671 10.8319 2.59311 11.1399 2.629 11.4444C2.42418 10.7348 2.29278 10.008 2.23667 9.27431C2.48051 9.08404 2.71308 8.88118 2.93333 8.66667C3.63037 8.11377 4.09804 7.34492 4.25333 6.49653C3.34033 6.68055 2.74267 7.40625 2.42 8.19444C2.29632 8.51158 2.2294 8.84603 2.222 9.18403C2.2 8.86806 2.2 8.54861 2.2 8.23264C2.24375 6.61553 2.60431 5.02019 3.26333 3.52778L3.33667 3.35764C3.43567 3.26042 3.59333 3.06944 3.76567 2.85764C3.99667 2.57639 4.246 2.26042 4.38533 2.05903C4.8033 1.42415 5.12194 0.735284 5.33133 0.0138885C4.65716 0.418113 4.11306 0.989803 3.75833 1.66667C3.6055 1.97965 3.48278 2.30504 3.39167 2.63889C3.32591 2.86635 3.28053 3.09865 3.256 3.33333C3.23767 3.38194 3.20833 3.44097 3.17533 3.51736C3.01767 3.86458 2.83067 4.35069 2.68033 4.81597C2.69867 4.67708 2.75367 4.26736 2.82333 3.80903C2.86 3.55556 2.904 3.28472 2.937 3.03819C2.96732 2.82521 2.98446 2.61072 2.98833 2.39583C2.95004 1.85011 2.8442 1.31054 2.673 0.788194C2.21195 1.47944 1.99612 2.29209 2.057 3.10764C2.11567 3.57986 2.31367 4.49653 2.66933 4.84375C2.43099 5.57107 2.26165 6.31709 2.16333 7.07292C1.98367 4.7743 2.16333 4.69097 1.33833 3.12153C0.561 5.29167 1.705 6.89583 2.14867 7.18403C2.06047 7.92066 2.04573 8.66353 2.10467 9.40278C1.41533 7.28125 1.63533 7.14236 0.414333 5.66319C0.099 7.85417 1.34567 9.27431 2.12667 9.57292C2.20216 10.2951 2.34948 11.0089 2.56667 11.7049C1.37133 9.78819 1.573 9.59722 0 8.36458C0.161333 10.8472 2.04233 11.8194 2.618 11.9271C2.83924 12.6121 3.12517 13.2768 3.47233 13.9132C3.31467 13.75 3.10567 13.5139 2.85633 13.2569L2.706 13.0937C1.91033 12.2153 1.727 11.8819 0.161333 11.1424C0.894667 13.3472 2.67667 14.1667 3.60433 14.1528C3.96745 14.7823 4.41345 15.3657 4.93167 15.8889L4.873 15.8542C4.77033 15.7986 4.66033 15.7326 4.53567 15.6597C4.411 15.5868 4.279 15.5035 4.147 15.4167C2.893 14.6215 2.849 14.2917 0.927667 13.8542C1.804 15.3125 3.12767 16.3229 4.917 16.1528L5.049 16.1354L5.159 16.1076C5.69646 16.6035 6.29329 17.0382 6.93733 17.4028C6.809 17.375 6.413 17.2743 6.05 17.1667C4.488 16.6979 4.40367 16.4722 2.35767 16.4722C4.35967 18.4653 6.57067 18.0069 7.249 17.5868C7.89488 17.9297 8.5679 18.2246 9.262 18.4688C6.67333 18.3333 6.58167 18.1042 4.60533 18.7118C7.238 20.1007 9.32433 18.8785 9.636 18.6007C10.3217 18.8056 11 18.9965 11.7333 19.1979C10.8194 19.2172 9.90786 19.2961 9.00533 19.434C8.39751 19.6226 7.82466 19.9003 7.30767 20.2569C7.7405 20.3788 8.18519 20.459 8.635 20.4965C9.91691 20.5204 11.1637 20.0992 12.1403 19.3125C12.7637 19.4826 13.5153 19.684 14.1863 19.8889C11.495 19.9687 10.8863 20.4653 10.0063 21.3021C10.4228 21.3587 10.8434 21.3831 11.264 21.375C12.6097 21.3264 14.3037 20.3333 14.6153 20.0208C15.1657 20.1957 15.7034 20.4045 16.225 20.6458C15.7716 20.8795 15.3556 21.1729 14.9893 21.5174C14.9527 21.6765 14.9269 21.8377 14.9123 22C15.3582 21.5078 15.8965 21.0981 16.5 20.7917C17.11 21.0963 17.6547 21.5061 18.106 22C18.0914 21.8377 18.0657 21.6765 18.029 21.5174C17.6628 21.1729 17.2467 20.8795 16.7933 20.6458C17.3154 20.4104 17.8531 20.2074 18.403 20.0382C18.7147 20.3472 20.4087 21.3438 21.7543 21.3924C22.175 21.4004 22.5956 21.376 23.012 21.3194C22.1393 20.4826 21.5233 19.9861 18.832 19.9062C19.503 19.7014 20.2547 19.5 20.878 19.3299C21.8546 20.1166 23.1014 20.5377 24.3833 20.5139C24.8331 20.4764 25.2778 20.3961 25.7107 20.2743C25.1937 19.9177 24.6208 19.64 24.013 19.4514C23.1105 19.3135 22.199 19.2346 21.285 19.2153C21.989 19.0243 22.6783 18.8229 23.364 18.5903C23.6757 18.8681 25.762 20.0972 28.3947 18.7014C26.4183 18.0938 26.3267 18.3229 23.738 18.4583C24.4321 18.2141 25.1051 17.9193 25.751 17.5764C26.4293 17.9965 28.6403 18.4549 30.6423 16.4618C28.5963 16.4618 28.512 16.6979 26.95 17.1562C26.5833 17.2639 26.191 17.3646 26.0627 17.3924C26.7067 17.0277 27.3035 16.5931 27.841 16.0972L27.951 16.125L28.083 16.1424C29.8723 16.3125 31.196 15.3021 32.0723 13.8437C30.151 14.2812 30.107 14.6111 28.853 15.4062C28.721 15.4931 28.5853 15.5729 28.4643 15.6493C28.3433 15.7257 28.2297 15.7882 28.127 15.8437L28.0683 15.8785C28.5865 15.3553 29.0326 14.7719 29.3957 14.1424C30.3233 14.1424 32.1127 13.3368 32.8387 11.1319C31.273 11.8715 31.0897 12.2049 30.294 13.0833L30.1437 13.25C29.909 13.5069 29.6853 13.7431 29.5277 13.9062C29.8748 13.2698 30.1608 12.6051 30.382 11.9201C30.9577 11.8125 32.8387 10.8403 33 8.35764C31.427 9.59722 31.6287 9.78819 30.4517 11.7049Z" fill="#2B2B2B"/>
<path d="M30.6863 6.91321C30.4737 5.76737 29.5387 4.54515 28.2847 4.48265C28.4937 5.17362 29.018 6.03126 30.6863 6.91321Z" fill="#2B2B2B"/>
<path d="M29.0473 3.05209C28.8351 2.86085 28.5848 2.71166 28.3109 2.61328C28.037 2.5149 27.7451 2.46931 27.4523 2.47918C27.6869 2.93824 28.0103 3.35162 28.4057 3.69793C28.9582 4.03485 29.534 4.33644 30.129 4.60071C29.9975 4.24815 29.8162 3.91409 29.59 3.60765C29.4335 3.40233 29.2513 3.21578 29.0473 3.05209Z" fill="#2B2B2B"/>
</svg>
