<svg width="24" height="24" viewBox="0 0 24 24" fill="none" xmlns="http://www.w3.org/2000/svg">
<path d="M0.0774242 12.5892C0.0774242 12.5892 0.244205 12.5096 0.521507 12.3421C0.660242 12.2596 0.826856 12.1562 1.00949 12.0267C1.19511 11.9018 1.39399 11.7468 1.60134 11.5702C1.8067 11.3911 2.01644 11.1855 2.21281 10.9505C2.25871 10.8897 2.30521 10.828 2.35227 10.7657L2.38763 10.719L2.41911 10.6695C2.44029 10.6366 2.46157 10.6036 2.48302 10.5703C2.50447 10.5372 2.52603 10.5038 2.54771 10.4704C2.56578 10.4352 2.58396 10.3998 2.60225 10.3642C2.62048 10.3288 2.63883 10.2932 2.65729 10.2574L2.68478 10.2041L2.71149 10.1445C2.85511 9.82575 2.99805 9.49762 3.15197 9.16367C3.30418 8.82972 3.45965 8.48962 3.62399 8.15068C3.79282 7.81374 3.96731 7.47741 4.17256 7.15382C4.27299 6.99159 4.38673 6.83378 4.51166 6.68169C4.54481 6.64422 4.5779 6.60686 4.61082 6.56967L4.61703 6.56269L4.6285 6.55099L4.64047 6.53935L4.66442 6.51608L4.71214 6.46963C4.74085 6.43992 4.78397 6.4045 4.82083 6.37202C4.85897 6.33887 4.89699 6.30551 4.93607 6.27774C4.97503 6.2488 5.01378 6.21998 5.05241 6.19127C5.0937 6.16572 5.13477 6.14028 5.17562 6.11495L5.23704 6.07753L5.30161 6.04517C5.34462 6.02388 5.38741 6.00271 5.42998 5.98165C5.47404 5.9633 5.51922 5.94761 5.56356 5.93126C5.60829 5.91585 5.6513 5.89701 5.69775 5.88775C5.78954 5.86758 5.87783 5.83798 5.96967 5.83194C6.33389 5.78421 6.67837 5.84491 6.96443 5.94828C7.03482 5.97677 7.10189 6.00831 7.1679 6.03724C7.20049 6.05243 7.23275 6.06745 7.26457 6.08225C7.29439 6.10015 7.32387 6.11777 7.35297 6.13523C7.46876 6.20552 7.57967 6.2687 7.67135 6.34425C7.86346 6.48459 8.00762 6.62915 8.12707 6.74582C8.24358 6.86532 8.32395 6.96897 8.38148 7.03626C8.43851 7.1041 8.46739 7.14135 8.46739 7.14135C8.48047 7.15831 8.47742 7.18264 8.46046 7.19572C8.44677 7.20631 8.42826 7.20631 8.41479 7.19705L8.41324 7.196C8.41324 7.196 8.37472 7.16945 8.30244 7.11968C8.26686 7.09457 8.22301 7.06364 8.17141 7.02728C8.11948 6.99192 8.06532 6.94431 7.99499 6.90434C7.92587 6.86288 7.85176 6.81472 7.77111 6.76311C7.75099 6.7502 7.73049 6.73706 7.70954 6.72365C7.68759 6.71212 7.66519 6.70043 7.64241 6.68845C7.59696 6.66456 7.54935 6.64101 7.50168 6.61474C7.31196 6.50699 7.08254 6.42506 6.83811 6.35478C6.59029 6.29841 6.32069 6.27707 6.05154 6.33239C5.98309 6.33926 5.91796 6.36781 5.85023 6.38527C5.783 6.40566 5.71887 6.43992 5.6518 6.46597C5.52276 6.53398 5.39306 6.60914 5.2729 6.70896C5.24081 6.73185 5.21354 6.75702 5.18549 6.78185C5.15678 6.80801 5.13051 6.82752 5.09775 6.86183L5.05052 6.90878L5.02686 6.93233L5.015 6.94408L5.01206 6.94702C5.00984 6.94924 5.02054 6.93854 5.01488 6.94436L5.00995 6.9499L4.93014 7.03814C4.82604 7.16258 4.72422 7.29854 4.63022 7.44703C4.43894 7.74024 4.26617 8.06399 4.09718 8.39029C3.92524 8.71576 3.75946 9.04749 3.59628 9.37518C3.43493 9.70292 3.26942 10.0269 3.10791 10.3361L3.07781 10.394L3.04256 10.4546C3.01911 10.4945 2.99572 10.5343 2.97245 10.5738C2.94905 10.6132 2.92583 10.6524 2.90266 10.6914C2.87622 10.7278 2.84984 10.7641 2.82368 10.8001C2.79746 10.836 2.77141 10.8718 2.74547 10.9073L2.70651 10.9602L2.66344 11.0088C2.60624 11.0732 2.5497 11.1368 2.49394 11.1996C2.25921 11.4377 2.02098 11.641 1.78735 11.8073C1.55151 11.9701 1.33058 12.1095 1.12655 12.2175C0.923466 12.3271 0.741332 12.4112 0.59057 12.4777C0.286773 12.6053 0.105858 12.6606 0.105858 12.6606L0.105193 12.6609C0.0848514 12.6671 0.0632902 12.6556 0.0570824 12.6352C0.0514842 12.6168 0.0604634 12.5973 0.0774242 12.5892ZM0.71844 12.753C0.71068 12.7501 0.701646 12.7525 0.696436 12.7595C0.690062 12.7679 0.69178 12.78 0.70026 12.7864C0.70026 12.7864 0.703808 12.7891 0.714117 12.7945C0.72487 12.8001 0.743493 12.8083 0.761064 12.8152C0.79881 12.8308 0.854681 12.8509 0.927512 12.8711C1.00012 12.893 1.08997 12.911 1.19434 12.9286C1.29876 12.9454 1.41804 12.9538 1.54918 12.9575C1.6801 12.9571 1.82277 12.9487 1.97276 12.9257C2.12147 12.8978 2.27894 12.8624 2.43491 12.8027C2.59033 12.7429 2.74735 12.6679 2.8933 12.5701C2.96834 12.5243 3.03635 12.4676 3.10686 12.4139C3.17431 12.3567 3.24116 12.2977 3.30407 12.2354C3.42845 12.1094 3.54412 11.9744 3.63818 11.8293C3.66235 11.7936 3.6864 11.7579 3.71029 11.7225C3.73169 11.6856 3.75297 11.6489 3.77414 11.6124C3.7951 11.5759 3.81594 11.5396 3.83661 11.5036C3.85435 11.4662 3.87197 11.429 3.88949 11.3922C3.92502 11.3188 3.95866 11.2463 3.98549 11.173C4.0127 11.0999 4.04502 11.0306 4.06591 10.9595C4.08759 10.8888 4.1087 10.8201 4.1291 10.7537C4.14939 10.6873 4.16252 10.6215 4.17854 10.5594C4.21036 10.4351 4.22893 10.3191 4.24611 10.2167C4.2542 10.1656 4.26179 10.1177 4.26883 10.0734C4.27349 10.0288 4.27781 9.98782 4.28169 9.95085C4.29488 9.80308 4.30248 9.71861 4.30248 9.71861C4.30331 9.70957 4.29766 9.70098 4.28862 9.69838C4.27842 9.69544 4.26772 9.70131 4.26479 9.71157L4.26451 9.71245C4.26451 9.71245 4.24129 9.79338 4.20055 9.93505C4.19096 9.97041 4.18032 10.0095 4.16873 10.0522C4.15521 10.0942 4.14057 10.1396 4.12489 10.1882C4.09524 10.2855 4.06131 10.3949 4.01592 10.5109C3.99414 10.5692 3.97501 10.6311 3.94885 10.6926C3.92275 10.754 3.8957 10.8174 3.86793 10.8826C3.8421 10.9485 3.8069 11.0121 3.77592 11.0791C3.74549 11.1466 3.70863 11.2122 3.67022 11.2782C3.65143 11.3114 3.63253 11.3449 3.61346 11.3786C3.59273 11.4111 3.57184 11.4438 3.55083 11.4768C3.52977 11.5097 3.50859 11.5427 3.48731 11.5759C3.46381 11.6074 3.44025 11.6391 3.41653 11.6709C3.39242 11.7022 3.36986 11.7351 3.34442 11.7656L3.26593 11.8555C3.21638 11.9182 3.15735 11.972 3.10242 12.0296C3.04511 12.0847 2.98458 12.1363 2.92372 12.1866C2.86015 12.2333 2.79901 12.2829 2.73195 12.3226C2.60308 12.4102 2.46556 12.4791 2.32938 12.5382C2.19397 12.6004 2.05468 12.6413 1.9216 12.676C1.78841 12.7123 1.65849 12.7322 1.53777 12.7488C1.41677 12.765 1.30453 12.7703 1.20426 12.7748C1.10416 12.7774 1.01614 12.7762 0.943586 12.7731C0.871142 12.7696 0.813831 12.7653 0.775309 12.7609C0.754523 12.7584 0.74438 12.7575 0.735623 12.7571C0.726588 12.7561 0.720436 12.7536 0.720713 12.754L0.71844 12.753ZM3.15458 12.5221C3.14754 12.5303 3.14843 12.5426 3.15657 12.5497L3.15696 12.55C3.15763 12.5501 3.1594 12.5522 3.16982 12.5565C3.17525 12.5588 3.18224 12.5615 3.19105 12.5642C3.1977 12.5661 3.20546 12.5684 3.21422 12.5709C3.24875 12.5803 3.29969 12.5924 3.36554 12.5994C3.49679 12.616 3.68956 12.6164 3.91526 12.5626C4.02723 12.5341 4.14684 12.4925 4.26756 12.4342C4.38656 12.3732 4.50739 12.2975 4.61969 12.2033C4.72993 12.1076 4.83813 12.0005 4.92825 11.8776C4.97664 11.8182 5.01488 11.752 5.05773 11.6883C5.09725 11.6228 5.134 11.5554 5.17002 11.488C5.20167 11.4187 5.23765 11.3511 5.26519 11.2807C5.2908 11.2097 5.32101 11.1404 5.34202 11.0692C5.38824 10.9279 5.42549 10.7874 5.45464 10.6501C5.47831 10.512 5.5037 10.3795 5.51567 10.2524C5.53124 10.1257 5.53579 10.0056 5.54211 9.89509C5.54904 9.78462 5.54316 9.68297 5.54438 9.59351C5.54482 9.50394 5.53795 9.4259 5.53429 9.36177C5.52409 9.23378 5.51822 9.16068 5.51822 9.16068C5.5175 9.15186 5.51079 9.14438 5.5017 9.14311C5.49117 9.14161 5.48136 9.14898 5.47986 9.15951L5.47975 9.16029C5.47975 9.16029 5.46955 9.23251 5.45165 9.35894C5.44389 9.42202 5.43502 9.49856 5.42011 9.58569C5.4057 9.67277 5.39528 9.77148 5.37333 9.87735C5.35421 9.98355 5.33581 10.0987 5.3061 10.2181C5.28304 10.3388 5.24834 10.463 5.21453 10.5915C5.19391 10.6546 5.1739 10.7188 5.15451 10.784C5.13461 10.849 5.10833 10.9123 5.08539 10.9774C5.03506 11.1057 4.97669 11.2319 4.91428 11.3552C4.88064 11.4153 4.84661 11.4753 4.81036 11.5331C4.77123 11.5888 4.7362 11.6474 4.69313 11.6986C4.67268 11.725 4.65306 11.7521 4.63221 11.7778C4.61032 11.8025 4.58859 11.8271 4.56698 11.8516C4.52452 11.9012 4.47763 11.9453 4.43207 11.9891C4.33972 12.0756 4.24112 12.1481 4.14351 12.2114C4.04613 12.2756 3.94575 12.3232 3.85102 12.3638C3.75657 12.4063 3.66445 12.4312 3.58248 12.4549C3.50011 12.4779 3.42606 12.4897 3.36476 12.5001C3.30329 12.5093 3.25429 12.5132 3.22115 12.5151C3.213 12.5155 3.20579 12.5157 3.19959 12.516C3.19521 12.5166 3.19155 12.5171 3.18861 12.5176C3.18179 12.5185 3.17548 12.5159 3.17597 12.5165C3.16849 12.5139 3.15996 12.5159 3.15458 12.5221ZM5.01827 11.9152C5.01378 11.9248 5.01799 11.9363 5.02758 11.9407C5.0283 11.9407 5.02957 11.9423 5.0396 11.9454C5.04498 11.9469 5.05213 11.9486 5.06105 11.9499C5.06737 11.9507 5.07463 11.9516 5.08295 11.9526C5.11471 11.9562 5.16082 11.9592 5.21924 11.9557C5.33608 11.951 5.50431 11.9233 5.69293 11.8414C5.78654 11.7999 5.88576 11.7459 5.98032 11.6732C6.07415 11.6003 6.16855 11.5144 6.24842 11.4108C6.32812 11.3077 6.40134 11.193 6.45533 11.0683C6.5122 10.9447 6.55294 10.8135 6.58447 10.6813C6.59633 10.6148 6.61269 10.5486 6.62039 10.4821C6.62649 10.4155 6.63757 10.3493 6.63907 10.2837C6.64694 10.1523 6.64694 10.0239 6.63979 9.90024C6.62837 9.77714 6.61873 9.65847 6.59922 9.54772C6.58281 9.43643 6.55765 9.3335 6.53719 9.23822C6.51646 9.14299 6.48731 9.05825 6.46691 8.98226C6.4459 8.90632 6.4208 8.84202 6.40234 8.78865C6.36354 8.68234 6.33971 8.62253 6.33971 8.62253C6.3366 8.61477 6.32868 8.60962 6.31992 8.61045C6.30928 8.61145 6.30146 8.62087 6.3024 8.63151L6.30246 8.63229C6.30246 8.63229 6.30845 8.69664 6.32186 8.80766C6.32901 8.86303 6.33849 8.93004 6.34492 9.00736C6.35196 9.08446 6.36459 9.17065 6.36964 9.26532C6.37657 9.35966 6.3871 9.46137 6.38787 9.56901C6.39497 9.67637 6.39342 9.78906 6.39258 9.90518C6.38937 9.96304 6.38593 10.0216 6.38394 10.0809C6.38189 10.1402 6.37269 10.1993 6.36748 10.2591C6.35284 10.3783 6.3299 10.4969 6.30229 10.6135C6.28561 10.6707 6.26981 10.7283 6.25108 10.7843C6.22979 10.8391 6.21195 10.8953 6.18584 10.9467C6.14072 11.0534 6.08203 11.15 6.02056 11.2397C5.9597 11.3303 5.88759 11.4076 5.81597 11.4781C5.74447 11.5493 5.66687 11.6065 5.59321 11.6576C5.51983 11.7099 5.4455 11.7475 5.3791 11.7816C5.31242 11.8154 5.25112 11.8389 5.20018 11.8583C5.14907 11.8769 5.10767 11.8892 5.07973 11.8966C5.07303 11.8983 5.06715 11.8998 5.06205 11.9011C5.05917 11.9027 5.05673 11.904 5.05479 11.905C5.04942 11.9073 5.0431 11.9054 5.04376 11.9059C5.03417 11.9014 5.02276 11.9056 5.01827 11.9152ZM6.48071 11.0178C6.47667 11.0276 6.48127 11.0388 6.49108 11.0429C6.49191 11.0428 6.49235 11.0443 6.50211 11.0467C6.50737 11.0479 6.51464 11.0491 6.52345 11.0495C6.5291 11.0496 6.53559 11.0498 6.54301 11.05C6.57145 11.0503 6.61263 11.0489 6.66362 11.0393C6.71489 11.0309 6.77653 11.0155 6.84476 10.9894C6.91343 10.9641 6.98721 10.9254 7.06436 10.8756C7.14024 10.8241 7.21607 10.7575 7.28624 10.677C7.35652 10.5963 7.41566 10.4991 7.46493 10.3939C7.51487 10.2882 7.54475 10.1723 7.56831 10.0546C7.58499 9.93633 7.59741 9.81555 7.59175 9.69671L7.58904 9.60759L7.58056 9.51968C7.57524 9.46098 7.56603 9.40361 7.55534 9.34708C7.5463 9.29015 7.53505 9.23439 7.52114 9.18024C7.50822 9.12581 7.49681 9.0716 7.47885 9.02061C7.46244 8.96923 7.44631 8.91868 7.43057 8.86918C7.41245 8.8208 7.39465 8.77346 7.37742 8.7274C7.34266 8.63534 7.30043 8.55275 7.26656 8.4746C7.22965 8.39772 7.19079 8.32982 7.15909 8.26868C7.12733 8.20749 7.09335 8.15733 7.0683 8.11476C7.01581 8.03074 6.98427 7.98395 6.98427 7.98395C6.97972 7.97725 6.9713 7.97381 6.96304 7.97608C6.95268 7.97886 6.94658 7.98955 6.94935 7.99992L6.94952 8.00058C6.94952 8.00058 6.96437 8.05523 6.99292 8.14891C7.00733 8.19563 7.02651 8.25167 7.0443 8.31718C7.06314 8.38226 7.08614 8.45492 7.10776 8.53485C7.12827 8.61499 7.15621 8.70002 7.17511 8.79225C7.18636 8.83776 7.19789 8.88448 7.20964 8.93226C7.21912 8.98026 7.22876 9.02931 7.23857 9.07914C7.24921 9.12881 7.25548 9.17963 7.26457 9.23063C7.27404 9.28162 7.28081 9.33333 7.28535 9.38549C7.29161 9.43759 7.29638 9.48997 7.29738 9.54235L7.30203 9.62094L7.30159 9.6991C7.30231 9.80352 7.292 9.90567 7.27693 10.0046C7.25758 10.1019 7.23685 10.1976 7.2021 10.2839C7.16868 10.3703 7.13015 10.4521 7.08276 10.5232C7.03632 10.595 6.98438 10.6583 6.93161 10.714C6.8789 10.7701 6.82259 10.8139 6.77193 10.8535C6.72088 10.8929 6.67166 10.921 6.63114 10.9455C6.59007 10.9688 6.55621 10.9847 6.53337 10.9947C6.52788 10.9969 6.523 10.999 6.51879 11.0007C6.51735 11.0026 6.51608 11.0042 6.51513 11.0055C6.51142 11.0085 6.5051 11.0067 6.50593 11.0073C6.49607 11.0033 6.48482 11.008 6.48071 11.0178ZM7.579 10.0066C7.57241 10.0067 7.56609 10.0102 7.56265 10.0163C7.5575 10.0255 7.56077 10.037 7.56991 10.0421C7.56991 10.0421 7.57063 10.0425 7.57202 10.0433C7.57612 10.0459 7.5912 10.0447 7.59209 10.0443C7.60073 10.0435 7.61038 10.0417 7.62296 10.0384C7.64796 10.0322 7.68276 10.0207 7.72467 10.0007C7.76718 9.98166 7.81568 9.95306 7.86872 9.91548C7.92227 9.87835 7.97664 9.82841 8.03234 9.76916C8.14198 9.65004 8.24275 9.47772 8.28953 9.27491C8.3133 9.17398 8.32384 9.06684 8.32178 8.95936C8.31818 8.852 8.30588 8.74392 8.28088 8.63994C8.2571 8.53562 8.22384 8.43486 8.18477 8.33941C8.1453 8.24408 8.1013 8.1534 8.05257 8.0697C8.00413 7.98589 7.95347 7.90808 7.90348 7.83608C7.85126 7.76552 7.80099 7.70006 7.75216 7.64197C7.65344 7.52635 7.56465 7.437 7.50035 7.37686C7.4355 7.31717 7.3967 7.28507 7.3967 7.28507C7.39061 7.28008 7.38163 7.27898 7.37437 7.28313C7.36506 7.28856 7.36184 7.30048 7.36722 7.30979C7.36722 7.30979 7.39216 7.35297 7.43584 7.42852C7.47946 7.50357 7.54248 7.60971 7.61243 7.73825C7.64879 7.8016 7.68504 7.87171 7.72179 7.94599C7.75892 8.01993 7.79728 8.09786 7.83142 8.18017C7.86517 8.26259 7.89915 8.34723 7.92725 8.43458C7.95574 8.52171 7.97952 8.61084 7.99704 8.70008C8.01405 8.78942 8.02481 8.87866 8.0263 8.96596C8.02857 9.05309 8.02325 9.13823 8.01017 9.21899C7.99787 9.29996 7.97786 9.37701 7.95225 9.4484C7.92748 9.52018 7.89616 9.58608 7.86351 9.64589C7.83192 9.70663 7.79467 9.75802 7.76164 9.80463C7.72805 9.85086 7.69457 9.88849 7.6668 9.91992C7.63831 9.9504 7.61448 9.97363 7.59796 9.98804C7.59015 9.99447 7.58416 9.9994 7.58011 10.0028C7.57535 10.0044 7.58582 10.0033 7.58693 10.0066C7.58538 10.0066 7.58455 10.0066 7.58455 10.0066L7.579 10.0066ZM23.8875 12.6352C23.8813 12.6556 23.8597 12.6671 23.8394 12.6609L23.8387 12.6606C23.8387 12.6606 23.6577 12.6053 23.354 12.4777C23.2032 12.4112 23.021 12.3271 22.8179 12.2175C22.6139 12.1095 22.393 11.9701 22.1571 11.8073C21.9235 11.641 21.6853 11.4377 21.4506 11.1996C21.3948 11.1368 21.3383 11.0732 21.2811 11.0088L21.238 10.9602L21.199 10.9073C21.1731 10.8718 21.147 10.836 21.1208 10.8001C21.0947 10.7641 21.0683 10.7278 21.0418 10.6914C21.0187 10.6524 20.9954 10.6133 20.9721 10.5738C20.9488 10.5343 20.9254 10.4945 20.9019 10.4546L20.8667 10.394L20.8366 10.3361C20.6751 10.0269 20.5096 9.70298 20.3482 9.37518C20.185 9.04755 20.0192 8.71576 19.8473 8.39029C19.6783 8.06405 19.5056 7.74024 19.3143 7.44703C19.2203 7.29854 19.1184 7.16258 19.0144 7.03814L18.9346 6.9499L18.9296 6.94436C18.9239 6.93854 18.9347 6.94924 18.9324 6.94702L18.9295 6.94408L18.9176 6.93233L18.894 6.90878L18.8468 6.86183C18.814 6.82752 18.7877 6.80801 18.759 6.78185C18.731 6.75702 18.7037 6.73185 18.6716 6.70896C18.5514 6.60914 18.4217 6.53398 18.2927 6.46597C18.2256 6.43992 18.1615 6.40572 18.0943 6.38527C18.0265 6.36775 17.9614 6.33926 17.893 6.33239C17.6238 6.27713 17.3542 6.29841 17.1064 6.35478C16.862 6.42501 16.6326 6.50699 16.4428 6.61474C16.3952 6.64101 16.3475 6.66456 16.3021 6.68845C16.2793 6.70043 16.2569 6.71212 16.235 6.72365C16.214 6.73706 16.1935 6.7502 16.1734 6.76311C16.0927 6.81472 16.0187 6.86288 15.9495 6.90434C15.8792 6.94431 15.8251 6.99192 15.7731 7.02728C15.7215 7.06364 15.6776 7.09457 15.6421 7.11968C15.5698 7.16945 15.5313 7.196 15.5313 7.196L15.5298 7.19705C15.5162 7.20631 15.4977 7.20631 15.4841 7.19572C15.4672 7.18264 15.4641 7.15826 15.4772 7.14135C15.4772 7.14135 15.506 7.1041 15.5631 7.03626C15.6207 6.96897 15.701 6.86527 15.8175 6.74582C15.9369 6.62915 16.0811 6.48459 16.2732 6.34425C16.3649 6.2687 16.4758 6.20552 16.5916 6.13523C16.6207 6.11777 16.6502 6.10015 16.68 6.08225C16.7118 6.06739 16.7441 6.05243 16.7767 6.03724C16.8427 6.00825 16.9097 5.97677 16.9801 5.94828C17.2662 5.84491 17.6107 5.78421 17.9749 5.83194C18.0667 5.83798 18.155 5.86758 18.2468 5.88775C18.2932 5.89695 18.3362 5.91585 18.381 5.93126C18.4253 5.94761 18.4705 5.96324 18.5146 5.98165C18.5571 6.00271 18.5999 6.02388 18.6429 6.04517L18.7075 6.07753L18.7689 6.11495C18.8098 6.14028 18.8509 6.16572 18.8921 6.19127C18.9308 6.21998 18.9695 6.24875 19.0085 6.27774C19.0476 6.30551 19.0856 6.33882 19.1237 6.37202C19.1606 6.4045 19.2037 6.43992 19.2324 6.46963L19.2801 6.51608L19.3041 6.53935L19.3161 6.55099L19.3275 6.56269L19.3337 6.56967C19.3667 6.60686 19.3998 6.64422 19.4329 6.68169C19.5578 6.83378 19.6716 6.99159 19.772 7.15382C19.9772 7.47741 20.1517 7.81374 20.3206 8.15068C20.4849 8.48962 20.6404 8.82972 20.7926 9.16367C20.9466 9.49762 21.0895 9.82575 21.2331 10.1445L21.2598 10.2041L21.2873 10.2574C21.3057 10.2932 21.324 10.3288 21.3423 10.3642C21.3605 10.3998 21.3787 10.4352 21.3969 10.4704C21.4185 10.5038 21.4401 10.5372 21.4615 10.5703C21.4829 10.6036 21.5043 10.6366 21.5254 10.6695L21.5569 10.719L21.5923 10.7657C21.6393 10.828 21.6859 10.8897 21.7317 10.9505C21.9281 11.1855 22.1379 11.3911 22.3432 11.5702C22.5506 11.7468 22.7494 11.9018 22.9351 12.0267C23.1177 12.1562 23.2843 12.2596 23.423 12.3421C23.7004 12.5096 23.8671 12.5892 23.8671 12.5892C23.8842 12.5973 23.8932 12.6168 23.8875 12.6352ZM23.2241 12.7538C23.2243 12.7534 23.2182 12.756 23.2092 12.757C23.2004 12.7573 23.1903 12.7582 23.1695 12.7607C23.1309 12.7652 23.0736 12.7694 23.0012 12.773C22.9287 12.776 22.8406 12.7772 22.7405 12.7746C22.6403 12.7701 22.528 12.7648 22.407 12.7486C22.2863 12.7321 22.1564 12.7122 22.0232 12.6758C21.89 12.6411 21.7508 12.6002 21.6154 12.5381C21.4792 12.4789 21.3416 12.41 21.2128 12.3225C21.1458 12.2827 21.0847 12.2331 21.0211 12.1864C20.9602 12.1362 20.8997 12.0846 20.8424 12.0295C20.7874 11.9718 20.7284 11.9181 20.6788 11.8554L20.6004 11.7654C20.5749 11.7349 20.5523 11.7021 20.5283 11.6707C20.5045 11.6389 20.481 11.6072 20.4575 11.5758C20.4362 11.5426 20.415 11.5095 20.3939 11.4766C20.3729 11.4437 20.352 11.411 20.3313 11.3784C20.3123 11.3447 20.2933 11.3113 20.2746 11.2781C20.2361 11.212 20.1993 11.1464 20.1689 11.079C20.1378 11.0119 20.1027 10.9484 20.0769 10.8825C20.0491 10.8172 20.022 10.7538 19.9959 10.6925C19.9698 10.6309 19.9506 10.569 19.9289 10.5108C19.8835 10.3947 19.8495 10.2854 19.8199 10.188C19.8043 10.1395 19.7896 10.0941 19.776 10.052C19.7645 10.0094 19.7538 9.97025 19.7442 9.93488C19.7035 9.79327 19.6803 9.71229 19.6803 9.71229L19.68 9.7114C19.6771 9.70115 19.6664 9.69527 19.6562 9.69821C19.6471 9.70081 19.6415 9.70941 19.6423 9.71844C19.6423 9.71844 19.6498 9.80291 19.6631 9.95068C19.667 9.98771 19.6712 10.0287 19.6759 10.0732C19.683 10.1175 19.6906 10.1654 19.6987 10.2166C19.7158 10.3189 19.7344 10.4349 19.7662 10.5593C19.7823 10.6214 19.7954 10.6871 19.8157 10.7535C19.8361 10.8199 19.8572 10.8887 19.8789 10.9593C19.8997 11.0303 19.9321 11.0997 19.9593 11.1728C19.9861 11.2461 20.0197 11.3186 20.0553 11.392C20.0727 11.4289 20.0904 11.466 20.1082 11.5034C20.1288 11.5394 20.1497 11.5758 20.1706 11.6122C20.1918 11.6487 20.2131 11.6854 20.2345 11.7223C20.2584 11.7578 20.2825 11.7934 20.3066 11.8292C20.4007 11.9742 20.5163 12.1092 20.6407 12.2352C20.7036 12.2976 20.7704 12.3565 20.8379 12.4137C20.9084 12.4674 20.9764 12.5241 21.0515 12.57C21.1974 12.6678 21.3545 12.7428 21.5099 12.8026C21.6659 12.8623 21.8234 12.8976 21.972 12.9256C22.122 12.9486 22.2647 12.9569 22.3956 12.9573C22.5267 12.9537 22.646 12.9452 22.7504 12.9284C22.8548 12.9109 22.9447 12.8929 23.0173 12.8709C23.0901 12.8507 23.146 12.8307 23.1837 12.815C23.2013 12.8082 23.2199 12.7999 23.2307 12.7943C23.2409 12.7889 23.2441 12.7863 23.2445 12.7862C23.253 12.7799 23.2547 12.7678 23.2483 12.7593C23.2431 12.7524 23.2341 12.7499 23.2263 12.7528L23.2241 12.7538ZM20.7689 12.5165C20.7694 12.5159 20.763 12.5185 20.7562 12.5176C20.7533 12.5171 20.7496 12.5166 20.7452 12.516C20.739 12.5157 20.7318 12.5154 20.7237 12.5151C20.6905 12.5132 20.6415 12.5093 20.5801 12.5001C20.5187 12.4897 20.4447 12.4779 20.3624 12.4549C20.2804 12.4312 20.1882 12.4063 20.0938 12.3638C19.9991 12.3232 19.8987 12.2757 19.8013 12.2114C19.7037 12.148 19.6051 12.0755 19.5128 11.9891C19.4672 11.9453 19.4203 11.9012 19.3779 11.8516C19.3562 11.8271 19.3345 11.8025 19.3126 11.7778C19.2918 11.7521 19.2722 11.725 19.2517 11.6986C19.2086 11.6474 19.1736 11.5888 19.1345 11.5331C19.0983 11.4753 19.0643 11.4153 19.0306 11.3552C18.9681 11.2319 18.9098 11.1057 18.8594 10.9774C18.8365 10.9123 18.8102 10.849 18.7903 10.784C18.7709 10.7188 18.7509 10.6546 18.7303 10.5915C18.6965 10.463 18.6617 10.3388 18.6387 10.2181C18.609 10.0987 18.5906 9.98355 18.5715 9.87735C18.5496 9.77148 18.5391 9.67271 18.5247 9.58569C18.5098 9.49862 18.5009 9.42207 18.4932 9.35894C18.4753 9.23251 18.4651 9.16029 18.4651 9.16029L18.465 9.15951C18.4635 9.14898 18.4537 9.14161 18.4431 9.14311C18.434 9.14438 18.4273 9.15186 18.4266 9.16068C18.4266 9.16068 18.4208 9.23384 18.4105 9.36177C18.4069 9.4259 18.4 9.50394 18.4005 9.59351C18.4016 9.68302 18.3957 9.78462 18.4027 9.89509C18.409 10.0056 18.4136 10.1258 18.4292 10.2524C18.4411 10.3795 18.4665 10.512 18.4902 10.6501C18.5193 10.7874 18.5566 10.9279 18.6028 11.0692C18.6239 11.1404 18.654 11.2097 18.6796 11.2807C18.7072 11.3511 18.7432 11.4187 18.7748 11.488C18.8108 11.5554 18.8476 11.6228 18.8871 11.6883C18.93 11.752 18.9682 11.8182 19.0166 11.8776C19.1067 12.0005 19.2149 12.1077 19.3251 12.2033C19.4374 12.2975 19.5583 12.3731 19.6773 12.4342C19.798 12.4926 19.9176 12.5341 20.0296 12.5626C20.2553 12.6163 20.4481 12.616 20.5793 12.5994C20.6451 12.5924 20.6961 12.5803 20.7306 12.5709C20.7394 12.5684 20.7471 12.5662 20.7538 12.5642C20.7625 12.5615 20.7696 12.5588 20.775 12.5565C20.7854 12.5521 20.7873 12.55 20.7879 12.55L20.7883 12.5497C20.7964 12.5426 20.7973 12.5303 20.7903 12.5221C20.7847 12.5159 20.7762 12.5139 20.7689 12.5165ZM18.9009 11.9059C18.9015 11.9053 18.8952 11.9073 18.8898 11.905C18.8879 11.9039 18.8854 11.9026 18.8826 11.901C18.8775 11.8997 18.8716 11.8982 18.8649 11.8965C18.8369 11.8892 18.7955 11.8769 18.7444 11.8582C18.6936 11.8388 18.6322 11.8153 18.5655 11.7815C18.4991 11.7475 18.4248 11.7099 18.3514 11.6575C18.2777 11.6065 18.2001 11.5493 18.1286 11.4781C18.057 11.4076 17.9849 11.3302 17.9241 11.2396C17.8626 11.15 17.8039 11.0532 17.7588 10.9467C17.7327 10.8952 17.7148 10.839 17.6935 10.7842C17.6749 10.7283 17.659 10.6707 17.6423 10.6134C17.6147 10.4969 17.5918 10.3782 17.5771 10.2591C17.5719 10.1992 17.5627 10.1402 17.5607 10.0809C17.5587 10.0216 17.5552 9.96304 17.552 9.90512C17.5512 9.78905 17.5496 9.67632 17.5567 9.56895C17.5576 9.46131 17.568 9.3596 17.575 9.26527C17.58 9.17065 17.5927 9.08446 17.5997 9.00731C17.6061 8.92999 17.6156 8.86298 17.6228 8.8076C17.6362 8.69658 17.6422 8.63223 17.6422 8.63223L17.6422 8.63146C17.6432 8.62081 17.6354 8.61139 17.6247 8.61039C17.6159 8.60956 17.608 8.61472 17.6049 8.62248C17.6049 8.62248 17.5811 8.68228 17.5423 8.78859C17.5238 8.84197 17.4987 8.90626 17.4777 8.9822C17.4572 9.05825 17.4282 9.14299 17.4074 9.23816C17.387 9.33339 17.3618 9.43632 17.3454 9.54767C17.3259 9.65836 17.3162 9.77703 17.3048 9.90019C17.2977 10.0239 17.2977 10.1523 17.3055 10.2836C17.307 10.3493 17.3181 10.4154 17.3242 10.4821C17.3319 10.5486 17.3483 10.6147 17.3601 10.6813C17.3917 10.8134 17.4325 10.9445 17.4893 11.0683C17.5433 11.1929 17.6164 11.3077 17.6962 11.4107C17.776 11.5143 17.8705 11.6003 17.9643 11.6731C18.0589 11.7459 18.1581 11.7998 18.2517 11.8413C18.4403 11.9233 18.6085 11.951 18.7254 11.9557C18.7838 11.9591 18.83 11.9562 18.8617 11.9525C18.8699 11.9515 18.8772 11.9507 18.8836 11.9499C18.8925 11.9486 18.8996 11.9468 18.905 11.9453C18.915 11.9423 18.9163 11.9407 18.917 11.9407C18.9267 11.9362 18.9308 11.9248 18.9263 11.9151C18.9219 11.9056 18.9105 11.9014 18.9009 11.9059ZM17.4388 11.0074C17.4396 11.0068 17.4332 11.0086 17.4296 11.0055C17.4286 11.0042 17.4274 11.0026 17.4259 11.0008C17.4217 10.999 17.4168 10.997 17.4114 10.9947C17.3885 10.9847 17.3546 10.9689 17.3136 10.9455C17.2731 10.9211 17.2238 10.893 17.1728 10.8536C17.1221 10.814 17.0658 10.7701 17.0131 10.7141C16.9604 10.6584 16.9084 10.595 16.862 10.5232C16.8145 10.4521 16.776 10.3704 16.7426 10.2839C16.7079 10.1977 16.6871 10.102 16.6678 10.0047C16.6528 9.90573 16.6424 9.80358 16.6431 9.69915L16.6427 9.621L16.6473 9.5424C16.6483 9.49002 16.6531 9.43765 16.6594 9.38554C16.6639 9.33344 16.6706 9.28167 16.6802 9.23068C16.6892 9.17969 16.6955 9.12886 16.7062 9.0792C16.716 9.02931 16.7257 8.98026 16.7351 8.93232C16.7469 8.88454 16.7584 8.83781 16.7697 8.79231C16.7886 8.70008 16.8165 8.61505 16.837 8.5349C16.8586 8.45498 16.8816 8.38231 16.9005 8.31724C16.9183 8.25172 16.9375 8.19569 16.9519 8.14896C16.9805 8.05529 16.9953 8.00064 16.9953 8.00064L16.9954 7.99997C16.9983 7.98961 16.9921 7.97891 16.9817 7.97614C16.9735 7.97392 16.9651 7.97736 16.9605 7.98401C16.9605 7.98401 16.929 8.03085 16.8765 8.11482C16.8514 8.15739 16.8175 8.20755 16.7857 8.26874C16.754 8.32993 16.7151 8.39783 16.6782 8.47465C16.6444 8.5528 16.6021 8.63539 16.5674 8.72746C16.5501 8.77352 16.5323 8.82085 16.5142 8.86924C16.4984 8.91874 16.4823 8.96929 16.4659 9.02067C16.448 9.07171 16.4366 9.12592 16.4236 9.1803C16.4097 9.23445 16.3985 9.29015 16.3894 9.34713C16.3787 9.40367 16.3695 9.46104 16.3642 9.51973L16.3557 9.60764L16.353 9.69677C16.3474 9.8156 16.3598 9.93632 16.3765 10.0546C16.4 10.1723 16.4299 10.2883 16.4798 10.3939C16.5291 10.4992 16.5883 10.5964 16.6585 10.6771C16.7287 10.7576 16.8045 10.8242 16.8804 10.8757C16.9576 10.9254 17.0313 10.9641 17.1 10.9894C17.1683 11.0156 17.2299 11.031 17.2812 11.0394C17.3321 11.0489 17.3733 11.0503 17.4018 11.05C17.4091 11.0499 17.4157 11.0497 17.4213 11.0495C17.4302 11.0491 17.4374 11.0479 17.4427 11.0468C17.4524 11.0443 17.4529 11.0429 17.4537 11.0429C17.4635 11.0388 17.4682 11.0276 17.4641 11.0178C17.4599 11.008 17.4486 11.0033 17.4388 11.0074ZM16.3602 10.0066C16.3602 10.0066 16.3594 10.0066 16.3578 10.0066C16.3589 10.0034 16.3694 10.0045 16.3646 10.0028C16.3606 9.99951 16.3546 9.99458 16.3468 9.98809C16.3302 9.97368 16.3064 9.9504 16.2779 9.91997C16.2502 9.88855 16.2167 9.85091 16.1831 9.80469C16.1501 9.75802 16.1129 9.70669 16.0812 9.64594C16.0486 9.58614 16.0173 9.52023 15.9925 9.44845C15.9669 9.37706 15.9469 9.30002 15.9346 9.21904C15.9215 9.13828 15.9162 9.05315 15.9184 8.96602C15.9199 8.87872 15.9307 8.78948 15.9477 8.70013C15.9652 8.61095 15.989 8.52177 16.0175 8.43463C16.0456 8.34734 16.0795 8.26264 16.1133 8.18022C16.1474 8.09791 16.1858 8.01998 16.2229 7.94604C16.2597 7.87177 16.2959 7.80165 16.3323 7.7383C16.4022 7.60977 16.4652 7.50362 16.5089 7.42857C16.5525 7.35303 16.5775 7.30985 16.5775 7.30985C16.5829 7.30054 16.5797 7.28856 16.5704 7.28319C16.5631 7.27903 16.5542 7.28014 16.548 7.28513C16.548 7.28513 16.5092 7.31722 16.4444 7.37692C16.38 7.43711 16.2912 7.5264 16.1926 7.64202C16.1437 7.70017 16.0935 7.76557 16.0412 7.83613C15.9913 7.90813 15.9406 7.98601 15.8921 8.06976C15.8434 8.1534 15.7994 8.24413 15.76 8.33947C15.7209 8.43491 15.6876 8.53568 15.6638 8.63999C15.6388 8.74397 15.6265 8.85206 15.6229 8.95942C15.6208 9.06689 15.6314 9.17403 15.6552 9.27497C15.702 9.47783 15.8027 9.65015 15.9124 9.76921C15.9681 9.82846 16.0225 9.87835 16.076 9.91554C16.1291 9.95312 16.1776 9.98172 16.2201 10.0007C16.262 10.0207 16.2968 10.0322 16.3218 10.0385C16.3343 10.0418 16.344 10.0436 16.3526 10.0444C16.3535 10.0447 16.3686 10.046 16.3727 10.0434C16.3741 10.0426 16.3748 10.0422 16.3748 10.0422C16.384 10.037 16.3872 10.0255 16.3821 10.0164C16.3786 10.0102 16.3723 10.0067 16.3657 10.0067L16.3602 10.0066Z" fill="#F7931B"/>
<path d="M11.9723 17.8879C11.8172 17.8879 11.6703 17.8288 11.5584 17.7214L9.41183 15.661C8.56119 14.8444 7.68161 14 7.034 13.0022C6.51853 12.2081 5.94713 10.9784 6.15232 9.63032C6.34504 8.36398 7.26574 7.28603 8.4434 6.94786C8.6834 6.87897 8.93765 6.84399 9.1991 6.84399C9.79439 6.84399 10.3788 7.02225 10.8446 7.34589C11.3639 7.70655 11.7655 8.32052 11.9723 8.68279C12.179 8.32052 12.5807 7.70655 13.1 7.34589C13.5658 7.02225 14.1502 6.84399 14.7455 6.84399C15.0069 6.84399 15.2612 6.87897 15.5012 6.94786C16.6788 7.28603 17.5995 8.36398 17.7923 9.63032C17.9975 10.9784 17.4261 12.2081 16.9106 13.0022C16.2629 14 15.3833 14.8444 14.5328 15.661L12.3862 17.7214C12.2743 17.8287 12.1274 17.8879 11.9723 17.8879Z" fill="#F7931B"/>
<path d="M14.7456 7.01426C14.9859 7.01426 15.2257 7.04586 15.4543 7.11148C16.6346 7.45036 17.4525 8.52926 17.6241 9.65592C17.7956 10.7826 17.4019 11.9328 16.7678 12.9096C16.1338 13.8863 15.2705 14.7168 14.4149 15.5381L12.2684 17.5985C12.1857 17.6779 12.079 17.7176 11.9724 17.7176C11.8657 17.7176 11.759 17.6779 11.6763 17.5985L9.52986 15.5381C8.67423 14.7168 7.81089 13.8863 7.17686 12.9096C6.54283 11.9328 6.14913 10.7826 6.32068 9.65592C6.49217 8.52926 7.31005 7.45036 8.49043 7.11148C8.71907 7.04586 8.95868 7.01426 9.19912 7.01426C9.75212 7.01426 10.3095 7.18138 10.7476 7.48567C11.4733 7.98978 11.9723 9.046 11.9723 9.046C11.9723 9.046 12.4713 7.98984 13.197 7.48573C13.6352 7.18138 14.1925 7.01426 14.7456 7.01426ZM14.7456 6.67383C14.1159 6.67383 13.497 6.86284 13.0028 7.2061C12.5639 7.51095 12.207 7.98452 11.9723 8.35383C11.7376 7.98452 11.3807 7.51095 10.9418 7.2061C10.4476 6.86289 9.82872 6.67383 9.19907 6.67383C8.92177 6.67383 8.65172 6.71096 8.39643 6.78429C7.15608 7.14041 6.18654 8.27385 5.98401 9.60471C5.77073 11.0057 6.35964 12.276 6.89124 13.095C7.54983 14.1096 8.43656 14.9607 9.29402 15.7838L11.4405 17.8442C11.5842 17.9822 11.7731 18.0581 11.9723 18.0581C12.1715 18.0581 12.3604 17.9822 12.5041 17.8442L14.6506 15.7838C15.5081 14.9606 16.3949 14.1095 17.0534 13.095C17.585 12.276 18.1738 11.0057 17.9606 9.60471C17.758 8.27379 16.7886 7.14036 15.5481 6.78429C15.2929 6.71096 15.0229 6.67383 14.7456 6.67383Z" fill="white"/>
<path d="M16.9911 10.4161C16.9858 10.4628 16.9437 10.4964 16.897 10.4911C16.8503 10.4858 16.8167 10.4437 16.822 10.397C16.851 10.1402 16.8479 9.88771 16.8103 9.64069C16.7779 9.42761 16.7138 9.21757 16.6211 9.01774C16.5302 8.82169 16.4126 8.63761 16.2736 8.47286C16.1347 8.30831 15.9758 8.16492 15.8033 8.04867C15.628 7.93057 15.4405 7.84182 15.2471 7.78624C15.2103 7.77568 15.1726 7.76636 15.1342 7.75832C15.0957 7.75028 15.0568 7.7436 15.0173 7.73828C14.978 7.73293 14.9378 7.72889 14.8969 7.72618C14.8561 7.72346 14.8148 7.7221 14.7734 7.7221C14.6783 7.7221 14.5821 7.72932 14.4865 7.74356C14.3917 7.75767 14.298 7.77863 14.207 7.80606C14.1159 7.83349 14.028 7.86715 13.9449 7.90652C13.8611 7.9462 13.7826 7.99139 13.7106 8.04145C13.6091 8.1119 13.5048 8.20713 13.3992 8.32366C13.3051 8.42763 13.2117 8.5467 13.1211 8.67629C13.0942 8.71482 13.0411 8.72421 13.0026 8.69728C12.9641 8.67035 12.9547 8.61729 12.9816 8.57876C13.0761 8.44364 13.1738 8.31905 13.2731 8.20939C13.3868 8.08391 13.5004 7.98017 13.6134 7.90166C13.6933 7.84617 13.7799 7.79631 13.8721 7.75268C13.9629 7.70964 14.0587 7.67293 14.1579 7.64307C14.2568 7.61327 14.3586 7.59051 14.4614 7.5752C14.5653 7.55974 14.6699 7.55188 14.7734 7.55188C14.8186 7.55188 14.8636 7.55337 14.9082 7.55633C14.953 7.55931 14.997 7.56373 15.0402 7.5696C15.0835 7.57545 15.1265 7.58283 15.169 7.5917C15.2115 7.60059 15.2533 7.61092 15.2941 7.62264C15.505 7.68323 15.7086 7.77964 15.8984 7.90751C16.0841 8.03265 16.2547 8.18662 16.4036 8.36306C16.5525 8.53937 16.6782 8.73628 16.7755 8.94612C16.8749 9.16037 16.9437 9.38588 16.9786 9.61507C17.0185 9.87733 17.0218 10.1448 16.9911 10.4161Z" fill="white"/>
<path d="M13.4097 15.5399L13.8958 15.0733C14.023 14.9512 14.0754 14.9009 14.144 14.8347C14.2854 14.6984 14.4032 14.5838 14.5153 14.4732C14.7404 14.2512 14.9361 14.0516 15.1171 13.8577C15.3227 13.6376 15.5072 13.4271 15.6748 13.2198C15.7044 13.1833 15.758 13.1776 15.7945 13.2072C15.8311 13.2368 15.8367 13.2903 15.8072 13.3269C15.6368 13.5375 15.4497 13.7509 15.2415 13.9739C15.0587 14.1696 14.8615 14.3709 14.6348 14.5944C14.5223 14.7055 14.404 14.8205 14.2622 14.9573C14.1934 15.0236 14.141 15.0739 14.0137 15.1961L12.0693 17.0625C12.0364 17.0941 11.9844 17.0941 11.9515 17.0625L10.0073 15.1961C9.69761 14.8988 9.55789 14.7638 9.38618 14.5944C9.15949 14.3709 8.96229 14.1696 8.77946 13.9738C8.57102 13.7506 8.38401 13.5372 8.21387 13.327C8.02781 13.097 7.86233 12.8712 7.71617 12.646C7.59657 12.4618 7.48608 12.2709 7.38747 12.0744C7.27515 11.8507 7.18023 11.6237 7.10549 11.3947C7.02249 11.1405 6.9653 10.8864 6.93676 10.6339C6.90562 10.3583 6.90891 10.0864 6.9495 9.81979C6.98501 9.58674 7.05491 9.35757 7.15585 9.13995C7.25463 8.92683 7.3824 8.72673 7.53379 8.54734C7.68509 8.36804 7.85845 8.21156 8.04723 8.08435C8.24013 7.95437 8.44713 7.85639 8.66139 7.79487C8.70306 7.78294 8.7454 7.77247 8.78842 7.76346C8.83139 7.75446 8.87508 7.74696 8.9194 7.74097C8.96369 7.73498 9.00845 7.73047 9.05352 7.72747C9.09876 7.72446 9.14443 7.72296 9.19053 7.72296C9.23754 7.72296 9.27564 7.76107 9.27564 7.80807C9.27564 7.85507 9.23754 7.89318 9.19053 7.89318C9.14818 7.89318 9.10627 7.89456 9.06482 7.89731C9.0236 7.90006 8.98267 7.90418 8.9422 7.90965C8.90192 7.91509 8.86226 7.9219 8.82332 7.93006C8.7843 7.93823 8.74595 7.94771 8.7083 7.95849C8.51156 8.01498 8.32074 8.10531 8.14235 8.22551C7.96676 8.34383 7.80513 8.48972 7.66387 8.65712C7.52224 8.82495 7.40267 9.01221 7.31027 9.21155C7.21602 9.41476 7.15083 9.62848 7.11778 9.84541C7.07951 10.0968 7.0764 10.3537 7.1059 10.6148C7.1331 10.8554 7.18776 11.0982 7.2673 11.3419C7.3393 11.5625 7.43095 11.7816 7.53959 11.998C7.63528 12.1887 7.74264 12.3742 7.85895 12.5534C8.00173 12.7734 8.16373 12.9944 8.34619 13.2199C8.51365 13.4268 8.69805 13.6372 8.90387 13.8577C9.08495 14.0516 9.28057 14.2512 9.5057 14.4732C9.67669 14.6419 9.81604 14.7766 10.1252 15.0733L12.0104 16.8831L13.4097 15.5399Z" fill="white"/>
<path d="M13.4908 10.9513C13.5155 10.9513 13.5384 10.9574 13.5595 10.9698C13.5806 10.9821 13.5972 10.9985 13.6092 11.019C13.6212 11.0394 13.6272 11.06 13.6272 11.0809C13.6272 11.0952 13.6252 11.1106 13.6213 11.1271C13.6174 11.1437 13.6126 11.1599 13.6068 11.1759C13.6009 11.1918 13.5951 11.2082 13.5892 11.2251L13.2433 12.1584C13.231 12.1941 13.2186 12.2281 13.2063 12.2602C13.1939 12.2924 13.1797 12.3206 13.1634 12.345C13.1472 12.3694 13.1256 12.3894 13.0986 12.405C13.0717 12.4205 13.0387 12.4283 12.9998 12.4283C12.9608 12.4283 12.9278 12.4207 12.9008 12.4054C12.8739 12.3901 12.8521 12.37 12.8356 12.345C12.819 12.32 12.8046 12.2916 12.7922 12.2598C12.7799 12.2279 12.7676 12.1941 12.7552 12.1584L12.4152 11.2328C12.4093 11.2159 12.4033 11.1994 12.3972 11.1832C12.391 11.1669 12.3858 11.1494 12.3815 11.1305C12.3773 11.1117 12.3752 11.0958 12.3752 11.0828C12.3752 11.0497 12.3885 11.0195 12.4152 10.9922C12.4418 10.9649 12.4752 10.9513 12.5155 10.9513C12.5649 10.9513 12.5998 10.9664 12.6203 10.9965C12.6407 11.0268 12.6617 11.075 12.6831 11.1413L13.0066 12.099L13.331 11.1345C13.3479 11.0838 13.3606 11.0486 13.369 11.0288C13.3774 11.0089 13.3914 10.991 13.4109 10.9752C13.4304 10.9592 13.457 10.9513 13.4908 10.9513ZM12.0021 10.9513C12.0456 10.9513 12.0808 10.9657 12.1078 10.9946C12.1347 11.0235 12.1482 11.0675 12.1482 11.1266V12.252C12.1482 12.3111 12.1347 12.3552 12.1078 12.3845C12.0808 12.4137 12.0456 12.4283 12.0021 12.4283C11.9605 12.4283 11.9262 12.4136 11.8993 12.384C11.8723 12.3544 11.8589 12.3104 11.8589 12.252V11.1266C11.8589 11.0682 11.8722 11.0243 11.8988 10.9951C11.9254 10.9659 11.9598 10.9513 12.0021 10.9513ZM10.9527 10.9513C11.0489 10.9513 11.134 10.9641 11.208 10.9897C11.282 11.0154 11.3421 11.0477 11.3882 11.0867C11.4343 11.1257 11.4691 11.1669 11.4925 11.2104C11.5159 11.254 11.5276 11.2926 11.5276 11.3264C11.5276 11.3628 11.5141 11.3938 11.4872 11.4194C11.4602 11.4451 11.4279 11.4579 11.3902 11.4579C11.3694 11.4579 11.3494 11.453 11.3303 11.4433C11.3111 11.4335 11.295 11.4199 11.282 11.4024C11.2463 11.3465 11.2161 11.3043 11.1915 11.2757C11.1668 11.2471 11.1335 11.2231 11.0916 11.2036C11.0497 11.1841 10.9962 11.1744 10.9313 11.1744C10.8644 11.1744 10.8046 11.1859 10.752 11.209C10.6994 11.2321 10.6544 11.2655 10.6171 11.3093C10.5797 11.3532 10.5512 11.4069 10.5313 11.4706C10.5115 11.5342 10.5016 11.6047 10.5016 11.682C10.5016 11.8496 10.5401 11.9785 10.6171 12.0688C10.694 12.1591 10.8014 12.2043 10.9391 12.2043C11.006 12.2043 11.0688 12.1955 11.1276 12.1779C11.1864 12.1604 11.246 12.1354 11.3064 12.1029V11.871H11.0823C11.0284 11.871 10.9876 11.8629 10.96 11.8466C10.9324 11.8304 10.9186 11.8028 10.9186 11.7638C10.9186 11.732 10.9302 11.7057 10.9532 11.6849C10.9763 11.6641 11.0076 11.6537 11.0472 11.6537H11.3756C11.4159 11.6537 11.45 11.6573 11.4779 11.6644C11.5058 11.6716 11.5284 11.6875 11.5456 11.7122C11.5628 11.7369 11.5714 11.7739 11.5714 11.8233V12.0971C11.5714 12.1334 11.5678 12.1625 11.5607 12.1842C11.5535 12.206 11.5404 12.2257 11.5212 12.2432C11.5021 12.2607 11.4776 12.2776 11.4477 12.2939C11.3613 12.3406 11.2782 12.3747 11.1983 12.3961C11.1184 12.4176 11.0313 12.4283 10.9372 12.4283C10.8274 12.4283 10.7273 12.4114 10.6371 12.3776C10.5468 12.3439 10.4698 12.2948 10.4062 12.2305C10.3425 12.1662 10.2936 12.0883 10.2595 11.9967C10.2254 11.9051 10.2083 11.8028 10.2083 11.6898C10.2083 11.5787 10.2249 11.477 10.2581 11.3848C10.2912 11.2926 10.3399 11.2143 10.4042 11.15C10.4685 11.0857 10.5468 11.0365 10.639 11.0024C10.7312 10.9683 10.8358 10.9513 10.9527 10.9513ZM14.7856 10.9756C14.8317 10.9756 14.866 10.9859 14.8885 11.0063C14.9108 11.0268 14.922 11.0536 14.922 11.0867C14.922 11.1205 14.9108 11.1476 14.8885 11.168C14.866 11.1885 14.8317 11.1987 14.7856 11.1987H14.1338V11.5495H14.734C14.7782 11.5495 14.8111 11.5594 14.8329 11.5792C14.8547 11.599 14.8656 11.6251 14.8656 11.6576C14.8656 11.6901 14.8548 11.7166 14.8334 11.7371C14.812 11.7575 14.7789 11.7678 14.734 11.7678L14.1338 11.7677V12.174H14.8081C14.8535 12.174 14.8878 12.1846 14.9108 12.2057C14.9339 12.2268 14.9454 12.2549 14.9454 12.2899C14.9454 12.3237 14.9339 12.3512 14.9108 12.3723C14.8878 12.3934 14.8535 12.404 14.8081 12.404H14.0218C13.9588 12.404 13.9135 12.39 13.8859 12.3621C13.8583 12.3341 13.8445 12.289 13.8445 12.2266V11.153C13.8445 11.1114 13.8506 11.0775 13.863 11.0511C13.8753 11.0248 13.8947 11.0057 13.921 10.9937C13.9473 10.9817 13.9809 10.9757 14.0218 10.9757L14.7856 10.9756ZM9.52731 10.9668C9.62671 10.9668 9.71147 10.9824 9.78161 11.0136C9.82709 11.0344 9.86704 11.063 9.90144 11.0994C9.93588 11.1357 9.96267 11.1778 9.98181 11.2255C10.001 11.2733 10.0106 11.3228 10.0106 11.3741C10.0106 11.4547 9.9906 11.5279 9.95066 11.5938C9.91071 11.6598 9.86996 11.7114 9.82839 11.7488C9.78682 11.7861 9.71714 11.8447 9.61937 11.9246C9.52163 12.0045 9.45457 12.0665 9.41817 12.1107C9.40261 12.1282 9.38671 12.1494 9.37045 12.174H9.87905C9.92971 12.174 9.96836 12.1844 9.995 12.2052C10.0216 12.226 10.0349 12.2542 10.0349 12.2899C10.0349 12.3218 10.0244 12.3488 10.0033 12.3708C9.98216 12.3929 9.95018 12.404 9.90732 12.404H9.1902C9.1415 12.404 9.10351 12.3905 9.07624 12.3635C9.04893 12.3366 9.03528 12.3049 9.03528 12.2685C9.03528 12.2452 9.04405 12.2141 9.06161 12.1755C9.07912 12.1368 9.09828 12.1065 9.11908 12.0844C9.20548 11.9948 9.28343 11.918 9.35293 11.854C9.42244 11.79 9.47212 11.7479 9.50198 11.7278C9.55526 11.6901 9.5996 11.6523 9.635 11.6143C9.6704 11.5763 9.69736 11.5373 9.71587 11.4974C9.73438 11.4574 9.74364 11.4183 9.74364 11.3799C9.74364 11.3384 9.73372 11.3012 9.71387 11.2684C9.69407 11.2356 9.66711 11.2101 9.63301 11.1919C9.59894 11.1737 9.56176 11.1647 9.52149 11.1647C9.43639 11.1647 9.36949 11.202 9.32078 11.2767C9.31428 11.2864 9.3034 11.3131 9.28814 11.3566C9.27288 11.4001 9.25566 11.4335 9.23648 11.4569C9.21734 11.4803 9.18926 11.492 9.15223 11.492C9.11975 11.492 9.09279 11.4813 9.07136 11.4599C9.04993 11.4384 9.03921 11.4092 9.03921 11.3722C9.03921 11.3274 9.04926 11.2806 9.06937 11.2319C9.0895 11.1832 9.11955 11.139 9.15949 11.0994C9.19947 11.0598 9.25015 11.0278 9.31153 11.0034C9.3729 10.979 9.44483 10.9668 9.52731 10.9668Z" fill="white"/>
</svg>
