<svg width="24" height="24" viewBox="0 0 24 24" fill="none" xmlns="http://www.w3.org/2000/svg">
<g clip-path="url(#clip0)">
<path d="M16.912 13.4272C19.1108 7.14846 18.4613 1.20689 15.4613 0.15631C12.4613 -0.894266 8.24691 3.34398 6.04813 9.6227C3.84936 15.9014 4.49886 21.843 7.49883 22.8936C10.4988 23.9441 14.7132 19.7059 16.912 13.4272Z" fill="#5FBCD3"/>
<path d="M14.938 16.1255C20.251 12.1218 23.0073 6.81834 21.0944 4.27979C19.1814 1.74125 13.3236 2.92893 8.01065 6.93255C2.69766 10.9362 -0.0586348 16.2397 1.8543 18.7782C3.76724 21.3168 9.62501 20.1291 14.938 16.1255Z" fill="#2C89A0"/>
<path d="M12.568 16.9412C19.1877 16.2805 24.2981 13.1808 23.9824 10.0179C23.6667 6.85502 18.0445 4.82662 11.4248 5.48735C4.8051 6.14809 -0.305294 9.24775 0.0104044 12.4106C0.326103 15.5735 5.94835 17.6019 12.568 16.9412Z" fill="#164450"/>
<path d="M12.8478 11.7538C12.945 12.7181 13.6358 13.1982 14.9202 13.1942C15.678 13.2022 16.4265 13.0271 17.102 12.6837V14.1423C16.3362 14.4785 15.4104 14.6467 14.3246 14.6467C13.0078 14.6467 12.0354 14.2618 11.4074 13.492H11.3709C10.6822 14.2618 9.79687 14.6467 8.71508 14.6467C7.9007 14.6467 7.26459 14.4684 6.80675 14.1119C6.34891 13.7553 6.12 13.261 6.12 12.629C6.12 12.001 6.35702 11.4965 6.83106 11.1157C7.3051 10.7348 7.98173 10.516 8.86094 10.4593L10.745 10.3256C10.745 9.5031 10.2932 9.09186 9.38968 9.09186C8.53883 9.09186 7.69609 9.3228 6.86145 9.78469V8.25924C7.72263 7.90069 8.64527 7.71286 9.57808 7.70619C10.7247 7.70619 11.5188 7.99386 11.9605 8.56919H11.9908C12.6424 7.99266 13.4503 7.62251 14.3124 7.50563C15.3091 7.34154 16.5672 7.35369 17.1689 7.92498C17.508 8.2534 17.7282 8.68529 17.7948 9.15263C17.8303 9.4201 17.8108 9.69201 17.7375 9.95168C17.6642 10.2113 17.5386 10.4533 17.3685 10.6627C17.1983 10.8721 16.9872 11.0446 16.7481 11.1695C16.5089 11.2944 16.2467 11.3691 15.9777 11.3892L12.8478 11.7538ZM10.7389 11.8085V11.5168L9.59631 11.6019C8.6928 11.6667 8.24104 11.9503 8.24104 12.4527C8.24276 12.558 8.27025 12.6612 8.3211 12.7534C8.37196 12.8456 8.44463 12.9239 8.53275 12.9815C8.72318 13.1233 8.97236 13.1962 9.28029 13.2002C9.70166 13.2002 10.0501 13.0706 10.3256 12.8113C10.6011 12.552 10.7389 12.2177 10.7389 11.8085ZM13.0544 10.3924L13.0362 10.6842L14.1909 10.6477C15.0944 10.6234 15.5603 10.36 15.5887 9.85762C15.5945 9.75185 15.5736 9.64634 15.5279 9.55076C15.4822 9.45519 15.4133 9.37262 15.3274 9.31065C15.1451 9.16479 14.902 9.08375 14.5981 9.06755C14.1767 9.05134 13.8202 9.16681 13.5284 9.41396C13.2367 9.66112 13.0787 9.98728 13.0544 10.3924Z" fill="white"/>
</g>
<defs>
<clipPath id="clip0">
<rect width="24" height="24" fill="white"/>
</clipPath>
</defs>
</svg>
