<svg width="24" height="24" viewBox="0 0 24 24" fill="none" xmlns="http://www.w3.org/2000/svg">
<path d="M12 24C18.6274 24 24 18.6274 24 12C24 5.37258 18.6274 0 12 0C5.37258 0 0 5.37258 0 12C0 18.6274 5.37258 24 12 24Z" fill="#6916FF"/>
<path d="M12.858 4.81801C12.8163 4.78794 12.7871 4.74361 12.7759 4.69343C12.7647 4.64326 12.7723 4.59071 12.7972 4.54576C12.8321 4.52338 12.8727 4.51147 12.9142 4.51147C12.9557 4.51147 12.9963 4.52338 13.0312 4.54576C13.5598 4.76518 14.0382 5.08975 14.4375 5.49976C14.6647 5.71051 14.8552 5.95652 15 6.22727C15.153 6.50327 15.2782 6.79201 15.375 7.09126C15.4672 7.40101 15.5152 7.72276 15.516 8.04526C15.4687 8.36401 15.4222 9.90901 14.5312 10.6365C14.4178 10.7047 14.2832 10.7285 14.1533 10.7033C14.0234 10.6781 13.9074 10.6057 13.8277 10.5C13.7641 10.4253 13.7253 10.3326 13.717 10.2348C13.7087 10.1371 13.7311 10.0391 13.7812 9.95476C14.16 9.36833 14.3693 8.68856 14.3858 7.99061C14.4024 7.29267 14.2256 6.60374 13.875 6.00001C13.575 5.57551 13.2345 5.18026 12.858 4.81801ZM11.475 18.7545C11.5687 18.8453 11.5687 18.936 11.5222 18.9818C11.4757 19.0275 11.3812 19.0725 11.3347 19.0268C10.8062 18.8073 10.3277 18.4828 9.92848 18.0728C9.70191 17.8632 9.51182 17.6173 9.36598 17.3453C9.21327 17.0704 9.08768 16.7812 8.99098 16.482C8.8983 16.1722 8.85081 15.8506 8.84998 15.5273C8.89723 15.2093 8.94373 13.6635 9.83473 12.936C9.94806 12.868 10.0825 12.8444 10.2123 12.8696C10.342 12.8948 10.4578 12.9671 10.5375 13.0725C10.6057 13.1471 10.6436 13.2445 10.6436 13.3455C10.6436 13.4466 10.6057 13.544 10.5375 13.6185C10.1588 14.2049 9.94965 14.8845 9.93311 15.5823C9.91656 16.2801 10.0933 16.9689 10.4437 17.5725C10.7475 17.9978 11.0932 18.3938 11.475 18.7545Z" fill="white" fill-opacity="0.5"/>
<path d="M15.5205 15.0045C15.4526 14.1319 15.1075 13.3039 14.5357 12.6412C13.9569 12.0594 13.2931 11.5689 12.567 11.1862C11.9336 10.8362 11.3369 10.4236 10.7857 9.95474C10.3324 9.52869 10.0215 8.97319 9.89548 8.36399C9.78354 7.73501 9.86351 7.0869 10.125 6.50399C10.4383 5.85549 10.8874 5.28201 11.442 4.82249C11.4732 4.79468 11.4946 4.75758 11.5031 4.71666C11.5116 4.67575 11.5067 4.63319 11.4892 4.59524C11.4758 4.57133 11.4572 4.55075 11.4348 4.53505C11.4123 4.51936 11.3866 4.50896 11.3595 4.50463C11.3324 4.5003 11.3047 4.50215 11.2785 4.51005C11.2523 4.51795 11.2282 4.53169 11.208 4.55024C10.461 4.87611 9.82545 5.41311 9.37948 6.09524C8.88072 6.81187 8.64709 7.67983 8.71873 8.54999C8.75614 8.98965 8.86719 9.4199 9.04723 9.82274C9.24205 10.2215 9.49479 10.5892 9.79723 10.914C10.3932 11.4835 11.0729 11.9585 11.8125 12.3225C12.4485 12.6525 13.0462 13.0492 13.5937 13.5045C14.0754 13.9271 14.3911 14.5071 14.4847 15.141C14.6167 15.8002 14.5342 16.4835 14.25 17.0955C13.9309 17.7398 13.4652 18.3003 12.8902 18.732C12.8712 18.7429 12.8547 18.7577 12.8419 18.7755C12.829 18.7933 12.82 18.8135 12.8156 18.835C12.8111 18.8565 12.8112 18.8786 12.816 18.9001C12.8207 18.9215 12.8299 18.9416 12.843 18.9592C12.8692 19.0072 12.918 19.0417 12.9727 19.05C13.0275 19.0582 13.0845 19.0425 13.125 19.005C13.8219 18.6026 14.4282 18.0608 14.9062 17.4135C15.3712 16.695 15.5857 15.8505 15.5205 15.0045Z" fill="white"/>
</svg>
