<svg width="24" height="24" viewBox="0 0 24 24" fill="none" xmlns="http://www.w3.org/2000/svg">
<path d="M11.6471 24C12.2055 24 12.7514 23.8344 13.2157 23.5241C13.6801 23.2139 14.042 22.7729 14.2557 22.257C14.4694 21.7411 14.5253 21.1733 14.4164 20.6256C14.3074 20.0779 14.0385 19.5748 13.6436 19.1799C13.2487 18.7851 12.7456 18.5161 12.1979 18.4072C11.6502 18.2982 11.0825 18.3542 10.5666 18.5679C10.0506 18.7816 9.60965 19.1435 9.2994 19.6078C8.98914 20.0721 8.82355 20.618 8.82355 21.1765C8.82355 21.9253 9.12103 22.6435 9.65054 23.173C10.1801 23.7025 10.8982 24 11.6471 24Z" fill="#1C1C1C"/>
<path d="M14.7106 0H8.56941L0 23.6471H5.18823L11.6471 5.84118L18.0918 23.6471H23.2941L14.7106 0Z" fill="#1C1C1C"/>
</svg>
