<svg width="24" height="24" viewBox="0 0 24 24" fill="none" xmlns="http://www.w3.org/2000/svg">
<path d="M11.8387 24C11.2544 24 10.6701 23.8393 10.1589 23.5472L2.69446 19.238C1.64273 18.6245 1 17.5143 1 16.3019V7.68351C1 6.4857 1.64273 5.36093 2.67985 4.76203L10.1589 0.45284C11.196 -0.146064 12.4814 -0.146064 13.5332 0.45284L20.9976 4.76203C22.0347 5.36093 22.6774 6.4857 22.6774 7.68351V16.3165C22.6774 17.5143 22.0347 18.6391 20.9976 19.238L13.5332 23.5472C13.0073 23.8393 12.4376 24 11.8387 24ZM11.8387 1.1686C11.4589 1.1686 11.0791 1.27086 10.7432 1.46075L3.26415 5.78455C2.5776 6.17895 2.16859 6.90932 2.16859 7.68351V16.3165C2.16859 17.1053 2.59221 17.8211 3.26415 18.2155L10.7285 22.5393C11.4151 22.9337 12.2477 22.9337 12.9343 22.5393L20.3987 18.2301C21.0706 17.8357 21.4942 17.1199 21.4942 16.3311V7.68351C21.4942 6.89471 21.0706 6.16434 20.3987 5.78455L12.9489 1.46075C12.6129 1.27086 12.2331 1.1686 11.8387 1.1686ZM11.8387 20.0852C11.5173 20.0852 11.2106 19.9976 10.933 19.8369L5.49909 16.7109C4.944 16.3895 4.59343 15.7906 4.59343 15.1333V8.86671C4.59343 8.22399 4.9294 7.62508 5.49909 7.28911L10.933 4.16312C11.5027 3.84176 12.1893 3.84176 12.7444 4.16312L18.1637 7.28911C18.7188 7.61047 19.0694 8.20938 19.0694 8.86671V15.1333C19.0694 15.776 18.7188 16.3895 18.1637 16.7109L12.7298 19.8369C12.4668 19.9976 12.1601 20.0852 11.8387 20.0852ZM11.8387 4.79124C11.678 4.79124 11.5173 4.83506 11.3713 4.92271L5.93731 8.0487C5.64516 8.22398 5.46987 8.53074 5.46987 8.86671V15.1333C5.46987 15.4693 5.64516 15.776 5.93731 15.9513L11.3713 19.0773C11.6634 19.2526 12.014 19.2526 12.3061 19.0773L17.7255 15.9513C18.0177 15.776 18.1929 15.4693 18.1929 15.1333V8.86671C18.1929 8.53074 18.0177 8.22398 17.7255 8.0487L12.3061 4.92271C12.1747 4.83506 12.014 4.79124 11.8387 4.79124ZM11.8387 16.112C11.678 16.112 11.5173 16.0682 11.3713 15.9951L8.62508 14.3883C8.33293 14.2276 8.15764 13.9063 8.15764 13.5849V10.4005C8.15764 10.0645 8.33293 9.75776 8.62508 9.59708L11.3713 8.00487C11.6634 7.84419 12.014 7.84419 12.3061 8.00487L15.0523 9.59708C15.3445 9.75776 15.5198 10.0645 15.5198 10.4005V13.5849C15.5198 13.9209 15.3445 14.2276 15.0523 14.3883L12.3061 15.9805C12.1601 16.0682 11.9994 16.112 11.8387 16.112ZM11.8387 8.47231C11.7803 8.47231 11.7219 8.48692 11.6634 8.51613L8.91722 10.1083C8.81497 10.1668 8.74194 10.2836 8.74194 10.4005V13.5849C8.74194 13.7018 8.81497 13.8186 8.91722 13.8917L11.6634 15.4839C11.7657 15.5423 11.8971 15.5423 12.014 15.4839L14.7602 13.8917C14.8624 13.8332 14.9355 13.7018 14.9355 13.5849V10.4005C14.9355 10.2836 14.8624 10.1668 14.7602 10.1083L12.014 8.51613C11.9556 8.48692 11.8971 8.47231 11.8387 8.47231Z" fill="url(#paint0_linear)"/>
<defs>
<linearGradient id="paint0_linear" x1="1" y1="11.9968" x2="22.6833" y2="11.9968" gradientUnits="userSpaceOnUse">
<stop stop-color="#E168FD"/>
<stop offset="1" stop-color="#7B00FC"/>
</linearGradient>
</defs>
</svg>
