<svg width="24" height="24" viewBox="0 0 24 24" fill="none" xmlns="http://www.w3.org/2000/svg">
<path d="M21.9353 6.62716H21.9334C19.4308 6.62608 17.4022 4.59957 17.401 2.09739V2.09499C17.401 0.960474 16.4812 0.0400543 15.3466 0.0400543C14.2119 0.0400543 13.292 0.960954 13.292 2.09535V2.09894C13.2907 4.56971 11.2997 6.58962 8.82914 6.62788C8.80311 6.62692 8.77709 6.62548 8.75082 6.62548C7.61619 6.62548 6.69661 7.54674 6.69661 8.68113C6.69661 9.81553 7.61631 10.7361 8.75106 10.7361H8.7549C11.206 10.7381 13.2016 12.6847 13.2826 15.1162C13.2786 15.1686 13.2766 15.2216 13.2765 15.2751V15.2789C13.2751 16.9581 12.3602 18.4243 11.0019 19.2066C10.3169 19.5989 9.54102 19.8047 8.75166 19.8035V19.8028C8.70728 19.8028 8.66327 19.8044 8.61973 19.8071C6.17223 19.742 4.20821 17.738 4.20809 15.2753H4.20474L4.19886 15.2766V15.2757C4.19886 14.1412 3.28372 13.2216 2.14908 13.2216C1.01445 13.2216 0.0960693 14.1409 0.0960693 15.2759C0.0960693 16.4109 1.01745 17.33 2.15208 17.33H2.1546C4.65727 17.3311 6.68581 19.355 6.68713 21.8571V21.8531V21.8597C6.68713 22.9942 7.60695 23.9159 8.74159 23.9159C9.87881 23.9157 10.8016 22.9957 10.8054 21.8585V21.8567C10.8036 20.656 11.2794 19.504 12.1279 18.6545C12.9763 17.805 14.1278 17.3279 15.3285 17.3282V17.3292C16.4659 17.3285 17.3887 16.4081 17.3923 15.2706C17.3923 14.1361 16.4687 13.2165 15.3343 13.2165H15.3285C12.8817 13.2153 10.8849 11.2556 10.8038 8.82806C10.8073 8.78008 10.8106 8.73067 10.8106 8.68137C10.8106 8.68017 10.8112 8.67885 10.8112 8.67766C10.8132 6.17547 12.8427 4.14776 15.3457 4.14776C17.8488 4.14776 19.8802 6.17751 19.8803 8.68149H19.8757L19.8737 8.68029V8.68125C19.8737 9.81577 20.7972 10.7353 21.9315 10.7353C23.0658 10.7353 23.9881 9.81577 23.9881 8.68137C23.9881 7.54698 23.07 6.62716 21.9353 6.62716Z" fill="#2FADE2"/>
<path d="M6.59083 2.05625V2.05817C6.58975 4.56048 4.55784 6.58867 2.05493 6.58999H2.05254C0.917903 6.58999 0.00012207 7.50969 0.00012207 8.6442C0.00012207 9.77871 0.916944 10.6987 2.0511 10.6987C4.55784 10.7 6.59275 12.7376 6.59275 15.2204H6.59179C6.59179 16.3598 7.51113 17.2804 8.64576 17.2804C9.78039 17.2804 10.7 16.3637 10.7 15.2294C10.7 14.0951 9.78003 13.1767 8.6454 13.1767C8.6442 13.1767 8.64288 13.1775 8.64156 13.1775C6.13901 13.1754 4.11095 11.1465 4.11095 8.64372C4.11095 6.14093 6.14093 4.10998 8.64468 4.10998V4.10711L8.64336 4.10171H8.64432C9.77895 4.10171 10.6988 3.18621 10.6988 2.05181C10.6988 0.917421 9.77991 0 8.64528 0C7.51065 0 6.59083 0.921739 6.59083 2.05625Z" fill="#707374"/>
</svg>
