<svg width="24" height="24" viewBox="0 0 24 24" fill="none" xmlns="http://www.w3.org/2000/svg">
<path d="M12 24C18.6274 24 24 18.6274 24 12C24 5.37258 18.6274 0 12 0C5.37258 0 0 5.37258 0 12C0 18.6274 5.37258 24 12 24Z" fill="url(#paint0_linear)" fill-opacity="0.05"/>
<path d="M21.375 11.205C21.4575 9.47626 20.25 8.32876 18.885 7.54126L18 12.75C18.1827 12.7246 18.3688 12.739 18.5454 12.792C18.7221 12.8451 18.8853 12.9356 19.0237 13.0575C19.1824 13.2132 19.2773 13.4225 19.2898 13.6444C19.3023 13.8664 19.2315 14.085 19.0912 14.2575C19.9462 14.115 21.2775 13.2938 21.375 11.205Z" fill="url(#paint1_linear)"/>
<path fill-rule="evenodd" clip-rule="evenodd" d="M9.75005 5.14873L8.70005 4.08748C10.2901 3.89248 14.4863 4.13998 18.5476 6.68623C18.5847 6.91347 18.5847 7.14524 18.5476 7.37248L18.8888 7.54498C19.1616 7.99749 19.3413 8.49994 19.4173 9.02283C19.4933 9.54573 19.464 10.0785 19.3313 10.59C18.9788 12 18.3751 12.6225 18.1051 12.75C17.5613 12.75 16.6351 13.065 16.3351 14.46C16.0351 15.855 15.4576 16.1587 15.2101 16.1362L9.21005 16.2075L5.25005 13.875L4.68005 9.04873L5.80505 7.54873L7.81505 5.90623L9.24755 5.32123L9.75005 5.14873ZM16.8413 7.12498C16.6719 7.30457 16.4743 7.4553 16.2563 7.57123C14.7151 7.24123 14.1563 6.44623 14.1563 6.44623C15.4669 6.40708 16.7634 6.72602 17.9063 7.36873C17.5583 7.25952 17.2022 7.17801 16.8413 7.12498Z" fill="url(#paint2_linear)"/>
<path fill-rule="evenodd" clip-rule="evenodd" d="M16.2825 14.46C15.141 15.009 13.8891 15.2899 12.6225 15.2812C8.83871 15.2812 5.77496 12.9037 5.77496 9.97498C5.77496 7.80748 7.44746 5.94748 9.84371 5.12248C5.28371 5.38498 1.61621 9.04873 1.61621 13.5712C1.61621 18.7912 6.26996 23.1037 12 23.1037C13.9913 23.0873 15.9422 22.5404 17.652 21.5194C19.3617 20.4984 20.7685 19.0403 21.7275 17.295C19.1587 17.8725 16.125 16.7737 16.2825 14.46Z" fill="url(#paint3_linear)"/>
<defs>
<linearGradient id="paint0_linear" x1="12" y1="8.39625" x2="12" y2="24.315" gradientUnits="userSpaceOnUse">
<stop stop-color="#01E8F8"/>
<stop offset="1" stop-color="#01E8F8" stop-opacity="0"/>
</linearGradient>
<linearGradient id="paint1_linear" x1="19.4625" y1="9.06376" x2="19.995" y2="15.4275" gradientUnits="userSpaceOnUse">
<stop stop-color="#01E8F7"/>
<stop offset="1" stop-color="#00C2FF"/>
</linearGradient>
<linearGradient id="paint2_linear" x1="8.9813" y1="5.64373" x2="15.1613" y2="15.4537" gradientUnits="userSpaceOnUse">
<stop stop-color="#01E8F7"/>
<stop offset="1" stop-color="#00B3EC"/>
</linearGradient>
<linearGradient id="paint3_linear" x1="617.624" y1="702.076" x2="641.262" y2="-57.2771" gradientUnits="userSpaceOnUse">
<stop stop-color="#01E8F7"/>
<stop offset="1" stop-color="#00C2FF"/>
</linearGradient>
</defs>
</svg>
