<svg width="24" height="24" viewBox="0 0 24 24" fill="none" xmlns="http://www.w3.org/2000/svg">
<g clip-path="url(#clip0)">
<path d="M11.9988 23.9975C18.6255 23.9975 23.9975 18.6255 23.9975 11.9988C23.9975 5.37203 18.6255 0 11.9988 0C5.37203 0 0 5.37203 0 11.9988C0 18.6255 5.37203 23.9975 11.9988 23.9975Z" fill="url(#paint0_linear)"/>
<path d="M11.9988 22.793C17.9603 22.793 22.793 17.9603 22.793 11.9988C22.793 6.03734 17.9603 1.20461 11.9988 1.20461C6.03732 1.20461 1.20459 6.03734 1.20459 11.9988C1.20459 17.9603 6.03732 22.793 11.9988 22.793Z" stroke="white" stroke-width="76.9783" stroke-miterlimit="10"/>
<path d="M10.4394 13.2821L12.0357 8.42445L13.6615 13.2821H10.4394ZM17.2061 16.3538L15.8858 12.7278H16.6741C16.825 12.7265 16.9694 12.6658 17.0759 12.5589C17.1824 12.4519 17.2425 12.3073 17.2431 12.1564C17.2431 12.0852 17.2291 12.0147 17.2018 11.949C17.1746 11.8832 17.1347 11.8235 17.0844 11.7732C17.034 11.7228 16.9743 11.6829 16.9086 11.6557C16.8428 11.6284 16.7723 11.6144 16.7012 11.6144H15.4695L15.2725 11.0503H16.6741C16.8218 11.0504 16.9637 10.9927 17.0696 10.8896C17.1754 10.7866 17.2368 10.6462 17.2406 10.4986C17.241 10.4237 17.2265 10.3496 17.198 10.2804C17.1695 10.2112 17.1276 10.1484 17.0747 10.0955C17.0218 10.0426 16.9589 10.0007 16.8898 9.97218C16.8206 9.9437 16.7464 9.9292 16.6716 9.92953H14.8512L13.8659 7.21989C13.7187 6.83275 13.4754 6.48944 13.1589 6.22225C12.8463 5.96512 12.45 5.83186 12.0455 5.84783C11.64 5.83494 11.2432 5.96777 10.9272 6.22225C10.6105 6.4898 10.3665 6.83294 10.2177 7.21989L9.18562 9.95416H7.37509C7.23048 9.95416 7.09176 10.0114 6.98928 10.1135C6.88679 10.2155 6.82889 10.3539 6.82824 10.4986C6.82824 10.6488 6.88793 10.7929 6.99418 10.8992C7.10043 11.0054 7.24454 11.0651 7.3948 11.0651H8.76932L8.55748 11.6144H7.32582C7.18079 11.6144 7.0417 11.672 6.93914 11.7746C6.83659 11.8772 6.77897 12.0162 6.77897 12.1613C6.77897 12.3098 6.8378 12.4523 6.9426 12.5576C7.04739 12.6628 7.18961 12.7223 7.33814 12.7229H8.12886L6.78636 16.3538C6.70385 16.5585 6.65799 16.7762 6.65088 16.9968C6.66487 17.3062 6.79924 17.5979 7.0253 17.8096C7.27406 18.0251 7.59286 18.1425 7.92195 18.1397C8.19837 18.1549 8.4716 18.0745 8.69584 17.9122C8.92008 17.7498 9.0817 17.5154 9.1536 17.248L9.67336 15.6986H14.4546L14.9744 17.285C15.0558 17.5433 15.2212 17.7671 15.4444 17.9206C15.6675 18.0742 15.9357 18.1487 16.206 18.1323C16.4131 18.1365 16.6173 18.0846 16.7972 17.9821C16.9533 17.8662 17.0918 17.7285 17.2086 17.5732C17.3104 17.3983 17.3623 17.199 17.3589 16.9968C17.3263 16.7817 17.2752 16.5699 17.2061 16.3637V16.3538Z" fill="#FEFEFE"/>
</g>
<defs>
<linearGradient id="paint0_linear" x1="4.99805" y1="4.41671" x2="21.278" y2="22.0491" gradientUnits="userSpaceOnUse">
<stop stop-color="#FC8F55"/>
<stop offset="0.44" stop-color="#FE7A6A"/>
<stop offset="1" stop-color="#FE687C"/>
</linearGradient>
<clipPath id="clip0">
<rect width="24" height="24" fill="white"/>
</clipPath>
</defs>
</svg>
