<svg width="24" height="24" viewBox="0 0 24 24" fill="none" xmlns="http://www.w3.org/2000/svg">
<path fill-rule="evenodd" clip-rule="evenodd" d="M12 0C18.6264 0 24 5.3736 24 12C24 18.6264 18.6264 24 12 24C5.3736 24 0 18.6264 0 12C0 5.3736 5.3736 0 12 0Z" fill="#263145"/>
<path fill-rule="evenodd" clip-rule="evenodd" d="M12.7369 4.248H11.0593L4.12805 16.32H16.4473H16.4833L15.6001 14.88H6.62405L12.7369 4.248Z" fill="#CCD9E2"/>
<path fill-rule="evenodd" clip-rule="evenodd" d="M18.8472 17.736L19.704 16.284L12.7128 4.248L6.59998 14.88H8.27998L12.7368 7.116L18.8472 17.736Z" fill="#AAAAAA"/>
<path fill-rule="evenodd" clip-rule="evenodd" d="M4.12805 16.3201L4.98485 17.7361H18.8473L12.7369 7.08243L11.8921 8.57043L16.4257 16.3201H4.12805Z" fill="#5A5967"/>
</svg>
