<svg width="24" height="24" viewBox="0 0 24 24" fill="none" xmlns="http://www.w3.org/2000/svg">
<path d="M12 0C5.3712 0 0 5.3712 0 12C0 18.6288 5.3712 24 12 24C18.6288 24 24 18.6288 24 12C24 5.3712 18.6288 0 12 0ZM6.5832 8.898C6.5832 7.4148 7.7856 6.2208 9.2784 6.2208H15.4272C16.1304 6.2208 16.806 6.4968 17.3076 6.99L14.1612 8.5728H9.8292C9.3408 8.5728 8.952 8.9256 8.952 9.3504V11.2764L6.5916 12.5064V8.898H6.5832ZM18.0948 12.9048C18.0948 14.388 16.8924 15.582 15.4176 15.582H8.9436V17.8704C8.9436 18.2592 8.6544 18.576 8.31 18.6576L7.5048 18.6756H6.582V14.6964L9.666 13.0872H14.8476C15.336 13.0872 15.7428 12.7344 15.7428 12.3V9.9468L18.0936 8.7624L18.0948 12.9048Z" fill="url(#paint0_linear)"/>
<defs>
<linearGradient id="paint0_linear" x1="0" y1="12" x2="24" y2="12" gradientUnits="userSpaceOnUse">
<stop stop-color="#B38C30"/>
<stop offset="1" stop-color="#F2DE98"/>
</linearGradient>
</defs>
</svg>
