<svg width="24" height="24" viewBox="0 0 24 24" fill="none" xmlns="http://www.w3.org/2000/svg">
<g clip-path="url(#clip0)">
<path d="M17.9796 17.9523L11.952 23.9799L8.96201 20.9899C12.1863 20.7993 15.2994 19.751 17.9796 17.9523ZM23.6935 11.7619L22.955 11.0273L11.952 0.0203094L0.945042 11.0273L0 11.9723L0.341486 12.2661C0.72665 12.5878 1.12373 12.8935 1.53272 13.1794C5.88467 16.2449 11.2809 17.17 16.2642 15.951C18.2973 15.4586 20.2271 14.6129 21.9702 13.4534C22.403 13.1675 22.824 12.8578 23.2369 12.5322C23.4632 12.3495 23.6856 12.1629 23.904 11.9723L23.6935 11.7619ZM14.8546 14.5295C11.5708 12.5123 7.79064 11.4521 3.939 11.468C8.95804 9.28013 15.1167 8.98232 20.7631 12.2304C18.9644 13.374 16.9552 14.1562 14.8546 14.5295Z" fill="#2B71FF"/>
</g>
<defs>
<clipPath id="clip0">
<rect width="24" height="24" fill="white"/>
</clipPath>
</defs>
</svg>
