<svg width="24" height="24" viewBox="0 0 24 24" fill="none" xmlns="http://www.w3.org/2000/svg">
<path d="M23.6143 14.9027C23.0387 17.2012 21.7946 19.2775 20.0394 20.8692C18.2841 22.4609 16.0965 23.4966 13.7528 23.8454C11.4091 24.1942 9.01465 23.8405 6.87195 22.8289C4.72925 21.8173 2.93448 20.1933 1.71444 18.1621C0.494393 16.1308 -0.0961701 13.7835 0.0173727 11.4168C0.130916 9.05 0.943468 6.77001 2.35235 4.86489C3.76124 2.95977 5.70323 1.51502 7.93292 0.713208C10.1626 -0.0886033 12.58 -0.211493 14.8795 0.360067C16.4113 0.735423 17.8536 1.41041 19.1233 2.34607C20.3929 3.28173 21.4646 4.45955 22.2767 5.81156C23.0888 7.16358 23.6251 8.66302 23.8547 10.2234C24.0843 11.7837 24.0026 13.3741 23.6143 14.9027Z" fill="#3578C6"/>
<path d="M4.1026 7.09707L11.511 3.19658L19.7139 7.09707L11.9082 10.907L4.1026 7.09707Z" fill="white"/>
<path d="M12.1614 11.2786L19.9671 7.32936V17.0167L12.1614 20.8963V11.2786Z" fill="white"/>
</svg>
