<svg width="24" height="24" viewBox="0 0 24 24" fill="none" xmlns="http://www.w3.org/2000/svg">
<path d="M11.9992 23.9985C18.6263 23.9985 23.9985 18.6263 23.9985 11.9992C23.9985 5.37225 18.6263 0 11.9992 0C5.37225 0 0 5.37225 0 11.9992C0 18.6263 5.37225 23.9985 11.9992 23.9985Z" fill="#F04086"/>
<path d="M17.5778 12.5655C17.1053 12.0435 16.4258 11.7195 15.5378 11.5935V11.5747C16.3155 11.4487 16.9268 11.13 17.3423 10.62C17.7639 10.1142 17.993 9.47548 17.9888 8.81699C17.9888 7.72124 17.6363 6.97649 16.9058 6.39074C16.1753 5.80574 15.0788 5.61299 13.593 5.61299H7.98225V10.8352H4.76025V12.8355H13.5555C14.2478 12.8355 14.7675 12.8842 15.111 13.161C15.4545 13.4377 15.63 13.7955 15.63 14.3242C15.63 14.853 15.4568 15.3045 15.111 15.588C14.766 15.8707 14.2455 16.0575 13.5555 16.0575H10.5375V14.502H7.98225V18.0577H13.7775C15.2513 18.0577 16.3778 17.673 17.1593 17.0752C17.94 16.4775 18.3068 15.5947 18.3068 14.511C18.3165 13.794 18.0562 13.0996 17.5778 12.5655ZM13.233 10.83H10.5375V7.60799H13.233C14.619 7.60799 15.3105 8.14874 15.3105 9.21899C15.3105 10.2892 14.619 10.83 13.233 10.83Z" fill="white"/>
</svg>
