<svg width="24" height="24" viewBox="0 0 24 24" fill="none" xmlns="http://www.w3.org/2000/svg">
<path d="M12 24C18.6274 24 24 18.6274 24 12C24 5.37258 18.6274 0 12 0C5.37258 0 0 5.37258 0 12C0 18.6274 5.37258 24 12 24Z" fill="#13A0F6"/>
<path fill-rule="evenodd" clip-rule="evenodd" d="M6.22276 8.67601C5.92919 8.52203 5.68336 8.29066 5.51189 8.00695C5.34042 7.72324 5.24986 7.39801 5.25001 7.06651C5.12183 6.82345 5.0506 6.55442 5.04172 6.27978C5.03284 6.00513 5.08654 5.73206 5.19876 5.48123C5.31098 5.2304 5.47878 5.00837 5.68947 4.83196C5.90015 4.65554 6.1482 4.52935 6.41484 4.46294C6.68149 4.39653 6.95974 4.39163 7.22856 4.44862C7.49738 4.50561 7.74971 4.62299 7.96647 4.79188C8.18323 4.96078 8.35874 5.17676 8.47972 5.42349C8.6007 5.67021 8.66397 5.94122 8.66476 6.21601C9.68885 5.61714 10.8542 5.30231 12.0405 5.30401C15.7455 5.30401 18.75 8.31451 18.75 12.027C18.75 15.7395 15.7463 18.75 12.0405 18.75C8.33477 18.75 5.33101 15.7403 5.33101 12.027C5.32929 10.8511 5.63682 9.6955 6.22276 8.67601ZM12.0405 15.3345C13.863 15.3345 15.3405 13.854 15.3405 12.027C15.3405 10.2 13.863 8.71951 12.0405 8.71951C10.218 8.71951 8.74051 10.2008 8.74051 12.027C8.74051 13.8533 10.218 15.3345 12.0405 15.3345Z" fill="white"/>
</svg>
