<svg width="24" height="24" viewBox="0 0 24 24" fill="none" xmlns="http://www.w3.org/2000/svg">
<path d="M24 0H0V24H24V0Z" fill="#265FAC"/>
<path d="M19.8501 7.97255C19.6195 10.4888 17.1262 10.1729 17.1262 10.1729V7.97255H14.6264V10.1729H9.23015V7.97255H6.78233V10.1663C4.32374 10.3163 4.16156 8.01942 4.16156 8.01942H1.70343V8.12067C1.70336 9.28485 2.15752 10.4031 2.9693 11.2376C3.78108 12.072 4.88641 12.5568 6.05015 12.5888L6.75937 12.608V15.7421C6.75937 17.0139 7.26457 18.2337 8.16385 19.133C9.06314 20.0324 10.2828 20.5377 11.5547 20.5379H12.3351C13.606 20.534 14.8237 20.0275 15.7224 19.1288C16.621 18.2302 17.1276 17.0125 17.1314 15.7416V12.5902H17.8706C19.0446 12.5902 20.1704 12.1239 21.0006 11.2937C21.8307 10.4636 22.297 9.33776 22.297 8.1638V7.97255H19.8501ZM14.6381 15.4725C14.6472 15.8282 14.5857 16.1822 14.4572 16.514C14.3287 16.8458 14.1358 17.1489 13.8894 17.4056C13.6431 17.6624 13.3484 17.8678 13.0222 18.01C12.696 18.1522 12.3449 18.2284 11.9892 18.2341C11.6334 18.2398 11.28 18.1749 10.9495 18.0432C10.6189 17.9116 10.3177 17.7157 10.0633 17.4669C9.80891 17.2182 9.60632 16.9215 9.46725 16.5939C9.32819 16.2664 9.25541 15.9146 9.25312 15.5588C9.25312 15.53 9.25312 15.5013 9.25312 15.4725V12.5382H14.6381V15.4725Z" fill="white"/>
</svg>
