<svg width="24" height="24" viewBox="0 0 24 24" fill="none" xmlns="http://www.w3.org/2000/svg">
<path fill-rule="evenodd" clip-rule="evenodd" d="M24 12C24 18.6274 18.6274 24 12 24C5.37255 24 0 18.6274 0 12C0 5.37255 5.37255 0 12 0C18.6274 0 24 5.37255 24 12Z" fill="#5493C2"/>
<path fill-rule="evenodd" clip-rule="evenodd" d="M19.0238 19.4635C17.8811 20.5395 16.4922 21.3565 14.9518 21.8204L14.9519 21.2084C14.0395 20.8424 13.0433 20.6411 12 20.6411C10.9568 20.6411 9.9606 20.8424 9.0482 21.2084L9.04826 21.8204C7.50776 21.3566 6.11894 20.5396 4.97629 19.4635L5.50124 19.1606C5.36194 18.1874 5.03828 17.224 4.51664 16.3205C3.99501 15.4171 3.32254 14.655 2.54944 14.0478L2.01898 14.3542C1.84064 13.598 1.74583 12.8099 1.74583 12C1.74583 11.1901 1.84064 10.4021 2.01898 9.64588L2.54937 9.95224C3.32254 9.34502 3.99501 8.58298 4.51664 7.67947C5.03821 6.77602 5.36194 5.81264 5.50124 4.83951L4.97622 4.53646C6.11887 3.46051 7.50769 2.64351 9.0482 2.17956L9.04813 2.79162C9.96053 3.15759 10.9567 3.35894 12 3.35894C13.0432 3.35894 14.0394 3.15759 14.9518 2.79162L14.9517 2.17956C16.4922 2.64345 17.8811 3.46044 19.0237 4.5364L18.4988 4.83938C18.6381 5.81257 18.9617 6.77602 19.4834 7.67947C20.005 8.58292 20.6775 9.34495 21.4506 9.95218L21.981 9.64581C22.1594 10.402 22.2542 11.1901 22.2542 12C22.2542 12.8098 22.1594 13.5979 21.981 14.3541L21.4506 14.0478C20.6775 14.655 20.005 15.417 19.4834 16.3205C18.9618 17.224 18.6381 18.1874 18.4988 19.1605L19.0238 19.4635ZM12 0C5.37255 0 0 5.37255 0 12C0 18.6274 5.37255 24 12 24C18.6274 24 24 18.6274 24 12C24 5.37255 18.6274 0 12 0Z" fill="#0C121A"/>
<path fill-rule="evenodd" clip-rule="evenodd" d="M19.7819 12C19.7819 16.2979 16.2979 19.7819 12 19.7819C7.70218 19.7819 4.21814 16.2979 4.21814 12C4.21814 7.70215 7.70218 4.21811 12 4.21811C16.2979 4.21811 19.7819 7.70215 19.7819 12Z" fill="#0C121A"/>
<path fill-rule="evenodd" clip-rule="evenodd" d="M9.05408 12.9258C9.05408 12.4886 8.81925 12.27 8.34952 12.27H7.42174V13.6083H8.37684C8.61167 13.6083 8.78325 13.5514 8.89164 13.4376C8.99991 13.3239 9.05408 13.1533 9.05408 12.9258ZM8.85067 10.9714C8.85067 10.7617 8.80062 10.6126 8.70057 10.5243C8.60053 10.4359 8.45209 10.3917 8.25531 10.3917H7.42174V11.5478H8.26028C8.46694 11.5478 8.6171 11.4998 8.71052 11.4038C8.80393 11.3076 8.85067 11.1636 8.85067 10.9714ZM9.78846 13.002C9.78846 13.4261 9.66932 13.754 9.43118 13.9859C9.19304 14.2177 8.86221 14.3337 8.43889 14.3337H6.68994V9.66629H8.29005C8.71675 9.66629 9.03962 9.76514 9.25874 9.96278C9.47792 10.1604 9.58744 10.4525 9.58744 10.839C9.58744 11.104 9.53248 11.3275 9.42249 11.5097C9.31251 11.6919 9.14504 11.8151 8.92015 11.8791C9.20298 11.9233 9.41838 12.042 9.56636 12.2352C9.71441 12.4285 9.78846 12.6841 9.78846 13.002Z" fill="#FFFFFE"/>
<path fill-rule="evenodd" clip-rule="evenodd" d="M12.6736 11.0973C12.6736 10.649 12.4586 10.4249 12.0285 10.4249H11.0909V11.8029H12.0484C12.2535 11.8029 12.4089 11.7411 12.5148 11.6174C12.6206 11.4937 12.6736 11.3204 12.6736 11.0973ZM12.7604 14.3337L11.9492 12.5615H11.0909V14.3337H10.359V9.66629H12.1054C12.5222 9.66629 12.8439 9.78609 13.0705 10.0257C13.2971 10.2654 13.4104 10.6093 13.4104 11.0576C13.4104 11.3844 13.3409 11.6666 13.2019 11.9039C13.0631 12.1413 12.8754 12.2976 12.6388 12.3727L13.584 14.3337H12.7604Z" fill="#FFFFFE"/>
<path fill-rule="evenodd" clip-rule="evenodd" d="M16.4468 14.3337L15.1915 12.1905L14.7598 12.631V14.3337H14.028V9.66629H14.7598V11.783L16.3351 9.66629H17.1885L15.6951 11.6406L17.3101 14.3337H16.4468Z" fill="#FFFFFE"/>
</svg>
