<svg width="24" height="24" viewBox="0 0 24 24" fill="none" xmlns="http://www.w3.org/2000/svg">
<path fill-rule="evenodd" clip-rule="evenodd" d="M12 24C15.1826 24 18.2348 22.7357 20.4853 20.4853C22.7357 18.2348 24 15.1826 24 12C24 8.8174 22.7357 5.76516 20.4853 3.51472C18.2348 1.26428 15.1826 0 12 0V1.46C14.7954 1.46 17.4763 2.57046 19.4529 4.54709C21.4295 6.52373 22.54 9.20462 22.54 12C22.54 14.7954 21.4295 17.4763 19.4529 19.4529C17.4763 21.4295 14.7954 22.54 12 22.54V24Z" fill="#FFBC00"/>
<g opacity="0.3">
<g opacity="0.3">
<path opacity="0.3" fill-rule="evenodd" clip-rule="evenodd" d="M1.46 12H0C0 15.1826 1.26428 18.2348 3.51472 20.4853C5.76516 22.7357 8.8174 24 12 24V22.54C9.20516 22.5382 6.5253 21.4272 4.54905 19.451C2.57279 17.4747 1.46177 14.7948 1.46 12Z" fill="#FFBC00"/>
</g>
</g>
<path fill-rule="evenodd" clip-rule="evenodd" d="M4.27995 12C4.27995 14.0475 5.0933 16.0111 6.54108 17.4589C7.98886 18.9066 9.95248 19.72 11.9999 19.72C14.0474 19.72 16.011 18.9066 17.4588 17.4589C18.9066 16.0111 19.7199 14.0475 19.7199 12H21.1799C21.1799 14.4347 20.2128 16.7697 18.4912 18.4912C16.7696 20.2128 14.4346 21.18 11.9999 21.18C9.56526 21.18 7.23029 20.2128 5.50871 18.4912C3.78712 16.7697 2.81995 14.4347 2.81995 12H4.27995Z" fill="#FFBC00"/>
<path opacity="0.3" fill-rule="evenodd" clip-rule="evenodd" d="M11.9999 4.28001V2.82001C9.56634 2.82353 7.23342 3.79184 5.5126 5.51266C3.79178 7.23348 2.82347 9.5664 2.81995 12H4.27995C4.28171 9.95308 5.09563 7.99049 6.54303 6.54309C7.99043 5.09569 9.95302 4.28177 11.9999 4.28001Z" fill="#FFBC00"/>
<path fill-rule="evenodd" clip-rule="evenodd" d="M12 7.09335C10.6986 7.09335 9.45061 7.6103 8.53043 8.53048C7.61025 9.45065 7.0933 10.6987 7.0933 12C7.0933 13.3013 7.61025 14.5494 8.53043 15.4695C9.45061 16.3897 10.6986 16.9067 12 16.9067V18.3667C10.3114 18.3667 8.69204 17.6959 7.49805 16.5019C6.30407 15.3079 5.6333 13.6886 5.6333 12C5.6333 10.3115 6.30407 8.69208 7.49805 7.4981C8.69204 6.30412 10.3114 5.63335 12 5.63335" fill="#FFBC00"/>
<path opacity="0.3" fill-rule="evenodd" clip-rule="evenodd" d="M12 5.63335V7.09335C13.3008 7.09511 14.5478 7.61263 15.4676 8.53242C16.3874 9.45222 16.9049 10.6992 16.9067 12H18.3667C18.3631 10.3126 17.6912 8.69521 16.498 7.50199C15.3048 6.30877 13.6875 5.63687 12 5.63335Z" fill="#FFBC00"/>
<path fill-rule="evenodd" clip-rule="evenodd" d="M12 8.45331C12.9406 8.45331 13.8427 8.82697 14.5079 9.4921C15.173 10.1572 15.5467 11.0593 15.5467 12C15.5467 12.9406 15.173 13.8427 14.5079 14.5078C13.8427 15.173 12.9406 15.5466 12 15.5466V14.0866C12.5534 14.0866 13.0842 13.8668 13.4755 13.4755C13.8668 13.0841 14.0867 12.5534 14.0867 12C14.0867 11.4466 13.8668 10.9158 13.4755 10.5245C13.0842 10.1332 12.5534 9.91331 12 9.91331" fill="#FFBC00"/>
<path opacity="0.3" fill-rule="evenodd" clip-rule="evenodd" d="M12 8.45331C11.0599 8.45507 10.1589 8.8293 9.49411 9.49405C8.82936 10.1588 8.45513 11.0599 8.45337 12H9.91337C9.91337 11.726 9.96734 11.4546 10.0722 11.2014C10.1771 10.9483 10.3308 10.7182 10.5245 10.5245C10.7183 10.3307 10.9483 10.177 11.2015 10.0721C11.4547 9.96728 11.726 9.91331 12 9.91331V8.45331Z" fill="#FFBC00"/>
<path fill-rule="evenodd" clip-rule="evenodd" d="M16.4733 16.5133L15.44 15.48C15.023 15.8925 14.5353 16.2268 14 16.4667L14.6133 17.8C15.2962 17.4832 15.9188 17.0501 16.4533 16.52" fill="#FFBC00"/>
<path fill-rule="evenodd" clip-rule="evenodd" d="M6.94669 1.11331C5.6587 1.70503 4.48692 2.52234 3.48669 3.52665L4.48669 4.59331C5.37161 3.69455 6.41312 2.96482 7.56003 2.43998L6.94669 1.11331Z" fill="#FFBC00"/>
<path fill-rule="evenodd" clip-rule="evenodd" d="M20.3066 8.16667C19.8571 7.17357 19.2315 6.27009 18.4599 5.5L17.4066 6.53333C18.0656 7.17835 18.5991 7.94016 18.9799 8.78L20.3066 8.16667Z" fill="#FFBC00"/>
</svg>
