<svg width="24" height="25" viewBox="0 0 24 25" fill="none" xmlns="http://www.w3.org/2000/svg">
<g clip-path="url(#clip0)">
<path d="M11.3645 0H12.615C13.9195 0.0864043 15.2167 0.346817 16.4288 0.836442C19.4289 2.0161 21.9047 4.46302 23.1131 7.45357C24.7764 11.4354 24.0624 16.292 21.2854 19.6054C19.4061 21.9119 16.6424 23.4828 13.6926 23.8824C10.9241 24.2772 8.01876 23.6808 5.64984 22.1843C3.82335 21.0467 2.31127 19.4098 1.33202 17.4921C0.07556 15.0836 -0.306059 12.237 0.245968 9.58008C0.836398 6.63513 2.59449 3.9482 5.04621 2.21651C6.8823 0.888044 9.10841 0.140407 11.3645 0ZM10.6205 0.543627C6.9699 0.962448 3.61454 3.26176 1.87445 6.49472C0.697191 8.64403 0.226767 11.1786 0.581985 13.6063C0.984005 16.5296 2.57408 19.2646 4.9022 21.0743C6.67469 22.4723 8.8672 23.3304 11.1185 23.4984C13.6686 23.7012 16.28 23.0208 18.3969 21.5843C20.9926 19.8658 22.8347 17.0553 23.3639 13.9867C23.6687 12.1782 23.5655 10.2941 23.0063 8.54563C22.2083 6.0027 20.4982 3.75499 18.2541 2.31492C16.0232 0.850842 13.269 0.216011 10.6205 0.543627Z" fill="black"/>
<path d="M10.9097 5.2695C12.9967 4.92028 15.2348 5.60431 16.736 7.10199C18.0681 8.35965 18.8457 10.1873 18.8073 12.0198C18.8337 13.8427 18.0525 15.656 16.7264 16.9029C15.2828 18.3381 13.1599 19.0234 11.1474 18.7582C9.25127 18.5302 7.47638 17.4525 6.39872 15.8744C5.20586 14.1847 4.87705 11.9358 5.49628 9.96653C6.22111 7.54241 8.41002 5.64752 10.9097 5.2695ZM11.3262 5.68472C11.3274 6.28115 11.3286 6.87758 11.3274 7.47401C11.625 7.47401 11.9226 7.47401 12.2202 7.47521C12.2214 6.86318 12.2226 6.25115 12.2202 5.64031C11.9226 5.64992 11.6238 5.66432 11.3262 5.68472ZM13.4731 7.50281C14.2567 7.60841 15.0992 7.72842 15.7244 8.25765C16.6784 9.11449 16.5548 10.9134 15.3872 11.535C16.0868 11.6982 16.7792 12.165 16.9521 12.8995C17.1765 13.8631 16.9977 15.02 16.2236 15.6992C15.4568 16.3304 14.4187 16.4133 13.4707 16.5033C13.4755 17.0613 13.4731 17.6193 13.4719 18.1785C15.4676 17.6901 17.1897 16.2044 17.9217 14.2819C18.6165 12.5083 18.4521 10.4214 17.4717 8.78807C16.6052 7.3144 15.1316 6.23194 13.4767 5.81672C13.4719 6.37835 13.4719 6.93998 13.4731 7.50281ZM7.51718 7.47881C8.38122 7.52081 9.24647 7.51121 10.1117 7.51001C10.1117 6.98318 10.1129 6.45756 10.1093 5.93073C9.14086 6.24515 8.27802 6.80917 7.51718 7.47881ZM7.41397 7.54841C7.18476 7.83042 6.75994 8.36325 6.50793 8.83487C5.49148 10.5666 5.37627 12.7891 6.22471 14.6108C6.95675 16.244 8.40882 17.5149 10.1093 18.0621C10.1117 17.5365 10.1105 17.0109 10.1105 16.4865C9.24287 16.4781 8.37282 16.5093 7.50638 16.4625C7.51598 15.9788 7.62998 15.506 7.79439 15.05C8.21921 15.0416 8.66204 15.116 9.07246 14.9768C9.31247 14.7752 9.24407 14.4416 9.25727 14.1655C9.24407 12.5875 9.26327 11.0094 9.24887 9.4325C9.26447 9.17809 9.10486 8.90328 8.84085 8.85288C8.40522 8.76527 7.9564 8.80007 7.51598 8.79647C7.46438 8.44125 7.45838 8.08244 7.45358 7.72362C7.45358 7.72362 7.45958 7.61081 7.42117 7.53761L7.41397 7.54841ZM11.3634 8.90448V11.2302C12.1398 11.2158 13.0015 11.3022 13.6807 10.851C14.2447 10.4814 14.2087 9.54651 13.6267 9.21409C12.9463 8.81207 12.117 8.92608 11.3634 8.90448ZM11.3634 12.4819V15.062C12.3222 14.9852 13.3975 15.146 14.2315 14.5676C14.8279 14.1715 14.7559 13.1911 14.1415 12.8479C13.3063 12.3486 12.291 12.5071 11.3634 12.4819ZM11.3286 16.5213C11.3286 17.1177 11.3274 17.7153 11.3262 18.3117C11.637 18.3321 11.9466 18.3441 12.2574 18.3538C12.2598 17.7429 12.2586 17.1321 12.2586 16.5213H11.3286Z" fill="black"/>
<path d="M10.6901 1.16646C12.7926 0.940846 14.9695 1.26126 16.8584 2.23091C19.2885 3.42257 21.2314 5.56468 22.1891 8.0956C23.1659 10.6301 23.1443 13.5295 22.1327 16.052C20.5942 20.0278 16.532 22.8863 12.255 22.8923C9.74323 22.9835 7.2159 22.1387 5.24901 20.5762C3.1513 18.9453 1.70043 16.508 1.25281 13.8883C0.795583 11.2938 1.30801 8.53723 2.69528 6.29431C4.39096 3.48137 7.42831 1.53728 10.6901 1.16646ZM10.3241 4.68743C8.61517 5.07265 7.0527 6.0819 6.00504 7.48717C4.84819 9.00885 4.31776 10.9877 4.55417 12.8826C4.77618 14.9107 5.88384 16.8236 7.53152 18.0249C9.0736 19.1842 11.0777 19.693 12.9858 19.4314C15.3439 19.1434 17.5124 17.6421 18.6129 15.536C19.4373 14.0335 19.6629 12.2478 19.3605 10.5713C18.9753 8.53843 17.7056 6.69153 15.9391 5.61388C14.2855 4.58423 12.2214 4.25421 10.3241 4.68743Z" fill="black"/>
</g>
<defs>
<clipPath id="clip0">
<rect width="24" height="24.0012" fill="white"/>
</clipPath>
</defs>
</svg>
