<svg width="24" height="24" viewBox="0 0 24 24" fill="none" xmlns="http://www.w3.org/2000/svg">
<g clip-path="url(#clip0)">
<g opacity="0.8">
<path opacity="0.8" d="M8.31096 3.69864L14.8416 10.2293L9.30192 0L4.67028 4.67304L8.31096 3.69864ZM15.689 20.3014L9.1584 13.7707L14.6981 24L19.327 19.327L15.689 20.3014ZM3.69864 15.689L7.88592 6.81216L1.47672 13.2241L0 14.6981L4.67304 19.327L3.69864 15.689ZM20.3041 8.3082L13.7707 14.8416L24 9.30192L19.327 4.67028L20.3041 8.3082Z" fill="#040000"/>
</g>
<g opacity="0.8">
<path opacity="0.8" d="M17.1851 7.88316L10.7759 1.47672L9.30192 0L14.8416 10.2293L17.1851 7.88316ZM6.81491 16.1141L14.6981 24L9.1584 13.7707L6.81491 16.1141ZM10.2293 9.1584L7.88591 6.81216L3.69861 15.689L10.2293 9.1584ZM16.1141 17.1851L24.0001 9.30192L13.7708 14.8416L16.1141 17.1851Z" fill="#323333"/>
</g>
<g opacity="0.8">
<path opacity="0.8" d="M1.968 1.96524L0 9.30192L4.00788 7.149L1.968 1.96524ZM22.0348 22.0348L24 14.6981L19.9922 16.8484L22.0348 22.0348ZM1.968 22.032L9.30192 24L7.15176 19.9895L1.968 22.032ZM22.0348 1.96524L14.6981 0L16.8484 4.00788L22.0348 1.96524Z" fill="#555555"/>
</g>
<g opacity="0.8">
<path opacity="0.8" d="M4.67028 4.67304L9.30192 0L1.968 1.96524L4.00788 7.149L4.67028 4.67304ZM19.327 19.327L14.6981 24L22.0348 22.0348L19.9922 16.8484L19.327 19.327ZM4.67304 19.327L0 14.6981L1.968 22.032L7.15176 19.9895L4.67304 19.327ZM19.327 4.67028L24 9.30192L22.0348 1.96524L16.8484 4.00788L19.327 4.67028Z" fill="#323333"/>
</g>
<g opacity="0.8">
<path opacity="0.8" d="M4.00788 7.149L0 9.30192L0.93024 10.2293L4.00788 7.149ZM19.9922 16.8484L24 14.6981L23.0698 13.7707L19.9922 16.8484ZM9.30192 24L10.2293 23.0698L7.15176 19.9895L9.30192 24ZM14.6981 0L13.7707 0.93024L16.8484 4.00788L14.6981 0Z" fill="#040000"/>
</g>
</g>
<defs>
<clipPath id="clip0">
<rect width="24" height="24" fill="white"/>
</clipPath>
</defs>
</svg>
