<svg width="24" height="24" viewBox="0 0 24 24" fill="none" xmlns="http://www.w3.org/2000/svg">
<path d="M1 18.0912L11.5775 24V13.7143L1 7.80547V18.0912Z" fill="#CCCCCC"/>
<path d="M1 7.80548L11.5775 13.7143L22.155 7.80548L11.5775 1.89667L1 7.80548Z" fill="#F2F2F2"/>
<path d="M11.5775 13.7143V24L22.155 18.0912V7.80547L11.5775 13.7143Z" fill="#E6E6E6"/>
<path d="M13.693 12.5471L11.5775 13.7143L9.46204 12.5471H13.693Z" fill="#686868"/>
<path d="M11.5775 15.8298L13.693 12.5471L11.5775 13.7143V15.8298Z" fill="#383838"/>
<path d="M11.5775 15.8298L9.46204 12.5471L11.5775 13.7143V15.8298Z" fill="black"/>
<path d="M1 0V7.80547L9.38906 8.68085L1 0Z" fill="#F2F2F2"/>
<path d="M22.155 0L14.8602 7.51368L22.155 7.80547V0Z" fill="#F2F2F2"/>
<path d="M20.5502 3.86627L18.6535 5.83588L20.5502 6.9301V3.86627Z" fill="#383838"/>
<path d="M2.60486 4.01216L4.42857 5.90882L2.60486 6.93009V4.01216Z" fill="#383838"/>
</svg>
