<svg width="24" height="24" viewBox="0 0 24 24" fill="none" xmlns="http://www.w3.org/2000/svg">
<mask id="mask0" mask-type="alpha" maskUnits="userSpaceOnUse" x="0" y="0" width="24" height="24">
<path d="M24 12C24 18.6274 18.6274 24 12 24C5.37255 24 0 18.6274 0 12C0 5.37255 5.37255 0 12 0C18.6274 0 24 5.37255 24 12Z" fill="white"/>
</mask>
<g mask="url(#mask0)">
<path fill-rule="evenodd" clip-rule="evenodd" d="M24 12C24 18.6274 18.6274 24 12 24C5.37255 24 0 18.6274 0 12C0 5.37255 5.37255 0 12 0C18.6274 0 24 5.37255 24 12Z" fill="url(#paint0_linear)"/>
</g>
<path fill-rule="evenodd" clip-rule="evenodd" d="M12 22.9171C5.98031 22.9171 1.08285 18.0197 1.08285 12C1.08285 5.98024 5.98031 1.08285 12 1.08285C18.0197 1.08285 22.9171 5.98024 22.9171 12C22.9171 18.0197 18.0197 22.9171 12 22.9171ZM12 0C5.37255 0 0 5.37255 0 12C0 18.6274 5.37255 24 12 24C18.6274 24 24 18.6274 24 12C24 5.37255 18.6274 0 12 0Z" fill="#1B1A19"/>
<path fill-rule="evenodd" clip-rule="evenodd" d="M20.3895 7.20464L20.8224 6.77185C21.3249 7.62007 21.6941 8.52577 21.9312 9.45859H21.3231C20.9203 9.45859 20.5938 9.78504 20.5938 10.1879V13.8121C20.5938 14.2149 20.9203 14.5414 21.3231 14.5414H21.9312C21.6941 15.4742 21.3249 16.3799 20.8224 17.2282L20.3895 16.7954C20.1047 16.5105 19.643 16.5105 19.3582 16.7954L16.7954 19.3581C16.5106 19.6429 16.5106 20.1046 16.7954 20.3895L17.2282 20.8223C16.38 21.3249 15.4743 21.6941 14.5414 21.9312V21.3231C14.5414 20.9203 14.2149 20.5938 13.8122 20.5938H10.1879C9.78514 20.5938 9.45862 20.9203 9.45862 21.3231V21.9312C8.52587 21.6941 7.6201 21.3249 6.77188 20.8223L7.20468 20.3895C7.48949 20.1046 7.48949 19.6429 7.20468 19.3581L4.64191 16.7954C4.3571 16.5105 3.89539 16.5105 3.61058 16.7954L3.17771 17.2282C2.67517 16.3799 2.30589 15.4742 2.06887 14.5414H2.67696C3.07973 14.5414 3.40624 14.2149 3.40624 13.8121V10.1879C3.40624 9.78504 3.07973 9.45859 2.67696 9.45859H2.06887C2.30589 8.52577 2.67517 7.62007 3.17771 6.77185L3.61058 7.20464C3.89539 7.48946 4.3571 7.48946 4.64191 7.20464L7.20468 4.64188C7.48949 4.35706 7.48949 3.89536 7.20468 3.61055L6.77188 3.17768C7.6201 2.67514 8.52587 2.30586 9.45862 2.06884V2.67693C9.45862 3.07969 9.78514 3.40621 10.1879 3.40621H13.8122C14.2149 3.40621 14.5414 3.07969 14.5414 2.67693V2.06884C15.4743 2.30586 16.38 2.67514 17.2282 3.17768L16.7954 3.61055C16.5106 3.89536 16.5106 4.35706 16.7954 4.64188L19.3582 7.20464C19.643 7.48946 20.1047 7.48946 20.3895 7.20464ZM12 1.08286C5.98034 1.08286 1.08289 5.98025 1.08289 12C1.08289 18.0197 5.98034 22.9171 12 22.9171C18.0197 22.9171 22.9172 18.0197 22.9172 12C22.9172 5.98025 18.0197 1.08286 12 1.08286Z" fill="#FFFFFE"/>
<path fill-rule="evenodd" clip-rule="evenodd" d="M18.4751 12C18.4751 15.5761 15.5761 18.4752 11.9999 18.4752C8.42381 18.4752 5.52478 15.5761 5.52478 12C5.52478 8.42387 8.42381 5.52484 11.9999 5.52484C15.5761 5.52484 18.4751 8.42387 18.4751 12Z" fill="#FFFFFE"/>
<path fill-rule="evenodd" clip-rule="evenodd" d="M17.9147 12C17.9147 15.2665 15.2666 17.9146 12.0001 17.9146C8.73354 17.9146 6.08545 15.2665 6.08545 12C6.08545 8.73348 8.73354 6.08539 12.0001 6.08539C15.2666 6.08539 17.9147 8.73348 17.9147 12Z" fill="#1B1A19"/>
<path fill-rule="evenodd" clip-rule="evenodd" d="M11.5442 13.699H9.41434C8.93374 13.699 8.54417 13.3095 8.54417 12.8289V12.4311C8.54417 11.9505 8.93374 11.5609 9.41434 11.5609H10.2182C10.6759 11.5609 11.0469 11.1899 11.0469 10.7322V10.5001H9.41434C8.34793 10.5001 7.4834 11.3647 7.4834 12.4311V12.8289C7.4834 13.8953 8.34793 14.7598 9.41434 14.7598H11.5442V13.699ZM13.616 13.699H14.5856C15.0654 13.699 15.4558 13.3087 15.4558 12.8289V12.4311C15.4558 11.9513 15.0654 11.5609 14.5856 11.5609H13.616V13.699ZM14.5856 14.7598H12.5552V11.5609H12.5055C12.0478 11.5609 11.6768 11.1899 11.6768 10.7322V10.5001H12.5552V9.29019H11.8757C11.4179 9.29019 11.0469 8.91918 11.0469 8.46146V8.22942H13.616V10.5001H14.5856C15.652 10.5001 16.5165 11.3647 16.5165 12.4311V12.8289C16.5165 13.8953 15.652 14.7598 14.5856 14.7598Z" fill="#FFFFFE"/>
<defs>
<linearGradient id="paint0_linear" x1="12" y1="0" x2="12" y2="23.2056" gradientUnits="userSpaceOnUse">
<stop stop-color="#996630"/>
<stop offset="0.328283" stop-color="#D2A342"/>
<stop offset="0.603843" stop-color="#A8772D"/>
<stop offset="1" stop-color="#C59734"/>
</linearGradient>
</defs>
</svg>
