<svg width="24" height="24" viewBox="0 0 24 24" fill="none" xmlns="http://www.w3.org/2000/svg">
<path d="M0 0H23.958V23.958H0V0Z" fill="#0099E5"/>
<path d="M11.6122 12.4163L13.8861 14.7281C14.4822 15.3395 15.2999 15.6843 16.1538 15.6843C17.0078 15.6843 17.8255 15.3395 18.4216 14.7281C19.6745 13.4415 19.6745 11.3911 18.4216 10.1044C17.8255 9.49304 17.0078 9.14827 16.1538 9.14827C15.2999 9.14827 14.4822 9.49304 13.8861 10.1044L11.6122 12.4163ZM16.1545 16.8285C14.9981 16.83 13.8902 16.3634 13.0833 15.5349L10.0176 12.4163L13.0833 9.29763C13.8909 8.4706 14.9979 8.0043 16.1538 8.0043C17.3098 8.0043 18.4168 8.4706 19.2244 9.29763C20.9122 11.0342 20.9122 13.7984 19.2244 15.5349C18.4179 16.3632 17.3105 16.8298 16.1545 16.8285Z" fill="white"/>
<path d="M7.80334 16.8285C6.64728 16.8299 5.53989 16.3633 4.73351 15.5349C3.0457 13.7984 3.0457 11.0342 4.73351 9.29763C5.54106 8.4706 6.6481 8.0043 7.80401 8.0043C8.95993 8.0043 10.067 8.4706 10.8745 9.29763L11.0196 9.44543L10.2169 10.2509L10.0718 10.1044C9.47525 9.49331 8.65735 9.14874 7.80334 9.14874C6.94932 9.14874 6.13143 9.49331 5.53486 10.1044C4.28204 11.3911 4.28204 13.4415 5.53486 14.7281C6.13143 15.3392 6.94932 15.6838 7.80334 15.6838C8.65735 15.6838 9.47525 15.3392 10.0718 14.7281L10.2169 14.5803L11.0196 15.3939L10.8745 15.5417C10.0676 16.3702 8.9598 16.8368 7.80334 16.8353" fill="white"/>
</svg>
