<svg width="24" height="24" viewBox="0 0 24 24" fill="none" xmlns="http://www.w3.org/2000/svg">
<g clip-path="url(#clip0)">
<path d="M0 2V6.02655V10.0531V14.0885H4.02655V10.0531V6.02655V2H0Z" fill="#424242"/>
<path d="M19.9734 10.0531V14.0885V18.115V22.1416H24V18.115V14.0885V10.0531H19.9734Z" fill="#424242"/>
<path d="M11.9115 2V6.02655V9.88495L15.938 13.9115V10.0531V6.02655L11.9115 2Z" fill="#424242"/>
<path d="M8.06201 10.2301V14.0885V18.1151L12.0886 22.1416V18.1151V14.2567L8.06201 10.2301Z" fill="#424242"/>
<path d="M11.9115 2H15.938L24 10.0531H19.9734L11.9115 2Z" fill="black"/>
<path d="M0 14.0885H4.02655L12.0885 22.1416H8.06195L0 14.0885Z" fill="black"/>
<path d="M15.9381 6.02655V10.0531V13.8584L4.02661 2V6.02655V6.27434V10.0531V14.0885L8.06201 18.115V14.0885V10.2832L19.9735 22.1416V18.115V17.8673V14.0885V10.0531L15.9381 6.02655Z" fill="#3CC68A"/>
</g>
<defs>
<clipPath id="clip0">
<rect width="24" height="24" fill="white"/>
</clipPath>
</defs>
</svg>
