<svg width="24" height="24" viewBox="0 0 24 24" fill="none" xmlns="http://www.w3.org/2000/svg">
<path d="M13.7233 10.7704C14.1394 6.93664 14.1727 3.1336 14.1727 2.0602V1.95076C14.3861 1.85872 14.8074 1.7734 15.5315 1.9708C16.3609 2.19748 16.9984 3.0376 17.2955 3.49768V3.79108C17.2808 5.42056 16.7701 9.44896 15.8846 12.4707C15.1112 15.1096 13.4218 18.622 13.0843 19.3221C12.9155 19.2845 12.7445 19.2573 12.5723 19.2407C12.7069 18.35 13.3297 14.3842 13.7231 10.7705L13.7233 10.7704ZM13.4299 19.4153C13.6043 19.4708 13.7745 19.5385 13.9393 19.618C14.3767 19.046 16.3862 16.375 17.6424 13.9601C19.1239 11.1118 20.5027 7.33276 20.6894 6.59932L20.7654 6.29932C20.6014 5.78992 20.208 4.8418 19.444 4.3444C18.9171 3.97946 18.2929 3.7811 17.652 3.775V3.78964C17.6374 5.43916 17.1186 9.51424 16.2265 12.5666C15.4651 15.1629 13.837 18.5765 13.4288 19.4153H13.4302H13.4299ZM14.2579 19.7927C14.4667 19.9198 14.6627 20.0667 14.8433 20.2314C15.3767 19.698 17.6249 17.4714 19.1171 15.5909C20.84 13.42 22.5536 10.372 22.8336 9.712L22.9789 9.36796C22.939 8.93056 22.8175 8.23588 22.4455 7.72108C22.0814 7.25398 21.5915 6.90053 21.0334 6.70228C20.7988 7.60864 19.372 11.416 17.9664 14.128C16.7209 16.5082 14.7624 19.1285 14.2567 19.792H14.258L14.2579 19.7927ZM7.89204 12.1758C8.8908 15.4468 10.376 18.7098 10.7096 19.43C10.8843 19.3738 11.0625 19.3292 11.243 19.2966C11.1097 18.5178 10.431 14.4214 10.0096 10.569C9.54948 6.35932 9.36156 2.79088 9.34284 2.0668V1.9948C9.01476 1.90816 8.31744 1.78948 7.41468 2.20552C6.76421 2.5299 6.25009 3.07477 5.964 3.74296C5.97732 3.8416 5.99064 3.95236 6.00672 4.07632C6.1398 5.14444 6.77856 8.53012 7.89204 12.1758ZM10.363 10.529C10.7857 14.388 11.4684 18.4952 11.5951 19.2446C11.7665 19.2267 11.9388 19.2178 12.1111 19.2179H12.204C12.3373 18.4085 12.968 14.3867 13.3655 10.729C13.7802 6.91396 13.8122 3.1282 13.8122 2.0614V1.888C13.4749 1.588 12.6935 1 11.7362 1C10.779 1 10.015 1.588 9.6816 1.888V2.0548C9.71628 2.77624 9.903 6.33124 10.363 10.5304V10.5291V10.529ZM12.1111 19.5753C10.1575 19.5753 9.26544 20.7407 9.00144 21.1755C10.6537 22.3876 11.7044 22.924 12.1258 22.924C12.5471 22.924 13.7446 22.2746 15.2154 21.2278C14.9447 20.7718 14.0514 19.577 12.1111 19.577V19.5756V19.5753ZM23.1497 9.8716C22.8403 10.581 21.1201 13.6373 19.3937 15.8135C17.8908 17.707 15.64 19.9473 15.0919 20.4807C15.2436 20.6459 15.3801 20.8245 15.4999 21.0141C16.673 20.1557 17.7918 19.2254 18.8496 18.2284C21.6708 15.5615 23.916 12.928 23.9938 11.5984C24.0213 11.2613 23.9574 10.923 23.8089 10.6191C23.6603 10.3152 23.4326 10.057 23.1497 9.8716ZM4.6344 15.364C6.06136 17.1131 7.63072 18.7411 9.3264 20.2312C9.44715 20.1212 9.57499 20.0191 9.70908 19.9258C8.1833 18.0676 6.8622 16.0504 5.76864 13.9091C3.924 10.317 3.22224 7.83136 2.92212 6.76996L2.88084 6.61132V6.604C2.46744 6.71464 1.42596 7.06 1.014 7.816C0.830769 8.16468 0.735565 8.55287 0.736676 8.94676C0.814717 9.1707 0.897415 9.39299 0.984716 9.61348C1.62732 11.2424 2.856 13.1826 4.6344 15.364ZM4.35708 15.5907C2.62356 13.4571 1.39944 11.5529 0.724676 9.92476C0.471356 10.1475 -0.0541242 10.7408 0.00467578 11.7916C0.0806358 13.1704 2.06088 15.3507 5.68128 18.487C6.84408 19.495 7.85748 20.3139 8.72028 20.959C8.82679 20.7914 8.94721 20.633 9.08028 20.4856C7.3738 18.9865 5.79369 17.3494 4.356 15.5909H4.35732L4.35708 15.5907ZM3.2676 6.67264C3.56364 7.72336 4.25832 10.185 6.0876 13.7406C7.17509 15.8732 8.49191 17.8809 10.0147 19.7279C10.1311 19.663 10.2508 19.6042 10.3734 19.5519C10.0134 18.7745 8.54256 15.5288 7.54908 12.2764C6.42924 8.608 5.78652 5.19376 5.65044 4.11496V4.07368C5.05571 4.04381 4.46902 4.22098 3.99024 4.57504C3.43152 4.98712 3.20484 5.65504 3.11148 6.10048C3.13944 6.21244 3.17544 6.34588 3.2208 6.50848L3.2676 6.67264Z" fill="url(#paint0_linear)"/>
<defs>
<linearGradient id="paint0_linear" x1="5.25816" y1="3.72688" x2="18.7548" y2="18.312" gradientUnits="userSpaceOnUse">
<stop stop-color="white"/>
<stop offset="0.16" stop-color="#D5AC51"/>
<stop offset="0.18" stop-color="#D2A644"/>
<stop offset="0.26" stop-color="#CC9B2E"/>
<stop offset="0.29" stop-color="#E6DE5F"/>
<stop offset="0.45" stop-color="#9D9A62"/>
<stop offset="0.63" stop-color="#787864"/>
<stop offset="0.7" stop-color="#517E69" stop-opacity="0.96"/>
<stop offset="0.89" stop-color="#4F99CA"/>
</linearGradient>
</defs>
</svg>
