<svg width="24" height="24" viewBox="0 0 24 24" fill="none" xmlns="http://www.w3.org/2000/svg">
<path fill-rule="evenodd" clip-rule="evenodd" d="M23.9861 12.002C23.9861 18.6162 18.6244 23.9779 12.0103 23.9779C5.39617 23.9779 0.0344238 18.6162 0.0344238 12.002C0.0344238 5.38779 5.39617 0.0260773 12.0103 0.0260773C18.6244 0.0260773 23.9861 5.38779 23.9861 12.002Z" fill="#222C46"/>
<path fill-rule="evenodd" clip-rule="evenodd" d="M22.1928 12.002C22.1928 6.37828 17.634 1.81939 12.0103 1.81939C6.38654 1.81939 1.82764 6.37821 1.82764 12.002C1.82764 17.6258 6.38646 22.1846 12.0103 22.1846C17.6341 22.1846 22.1928 17.6258 22.1928 12.002ZM22.7878 12.002C22.7878 17.9542 17.9625 22.7796 12.0103 22.7796C6.05803 22.7796 1.23267 17.9543 1.23267 12.002C1.23267 6.04978 6.05811 1.22441 12.0103 1.22441C17.9624 1.22441 22.7878 6.04985 22.7878 12.002Z" fill="#DF4F2A"/>
<path fill-rule="evenodd" clip-rule="evenodd" d="M22.2159 12.002C22.2159 17.6387 17.6467 22.2078 12.0104 22.2078C6.37375 22.2078 1.80444 17.6387 1.80444 12.002C1.80444 6.36536 6.37375 1.79605 12.0104 1.79605C17.6467 1.79605 22.2159 6.36536 22.2159 12.002Z" fill="#E3E4E2"/>
<path fill-rule="evenodd" clip-rule="evenodd" d="M9.12602 19.7091C9.09722 19.4808 9.04951 19.3018 8.98361 19.1711C8.91759 19.0404 8.82653 18.9452 8.71034 18.8849C8.55031 18.8019 8.39631 18.8063 8.2485 18.8986C8.10044 18.9914 7.95685 19.1717 7.81746 19.4401C7.7325 19.6036 7.71172 19.7563 7.7561 19.8975C7.80044 20.0388 7.90302 20.1513 8.06448 20.2351C8.19449 20.3026 8.33383 20.3425 8.48267 20.3544C8.63088 20.3659 8.78404 20.3482 8.94052 20.3013C8.7833 20.5781 8.58207 20.7503 8.33542 20.8158C8.08948 20.8817 7.81695 20.8373 7.51673 20.6815C7.17921 20.5062 6.9689 20.2717 6.88575 19.9786C6.80189 19.6851 6.85392 19.358 7.04138 18.997C7.24641 18.6021 7.50635 18.3429 7.82101 18.2197C8.13574 18.0965 8.46532 18.124 8.80881 18.3024C8.90555 18.3526 9.0127 18.4202 9.12967 18.5049C9.24657 18.5896 9.31968 18.6395 9.34844 18.6544C9.39179 18.6769 9.43765 18.693 9.48576 18.7032C9.53483 18.7131 9.58638 18.7181 9.64062 18.7181L9.12602 19.7091ZM10.7032 20.3428C10.6784 20.6649 10.6936 20.8892 10.748 21.0143C10.8025 21.1395 10.9094 21.2084 11.0691 21.2207C11.2287 21.233 11.3451 21.1812 11.4187 21.0658C11.4924 20.9506 11.5417 20.7312 11.5664 20.4092C11.5913 20.0865 11.5761 19.8622 11.5209 19.7357C11.4659 19.6093 11.3589 19.5397 11.1992 19.5274C11.0411 19.5153 10.9248 19.5678 10.851 19.6842C10.7772 19.8008 10.728 20.02 10.7032 20.3428ZM12.493 20.4791C12.4573 20.942 12.321 21.2737 12.083 21.476C11.8452 21.6778 11.4942 21.761 11.0303 21.7253C10.5657 21.6897 10.2323 21.5537 10.0288 21.3181C9.82542 21.0819 9.74127 20.7332 9.7769 20.2703C9.81234 19.8093 9.94866 19.4783 10.1858 19.2758C10.4229 19.0742 10.7731 18.9907 11.2377 19.0265C11.7031 19.0623 12.0373 19.1976 12.2408 19.4333C12.4445 19.6683 12.5284 20.0168 12.493 20.4791ZM14.2287 18.7694C14.1706 18.8382 14.1324 18.9126 14.114 18.9926C14.0956 19.0726 14.0971 19.1582 14.1181 19.2483L14.5075 20.9174C14.5287 21.0087 14.5656 21.0874 14.6178 21.1521C14.6699 21.217 14.7373 21.2673 14.8198 21.3033L13.5724 21.5942C13.6305 21.5255 13.6686 21.4506 13.6867 21.3694C13.7047 21.2882 13.703 21.2013 13.6818 21.1101L13.2924 19.4409C13.2714 19.3508 13.2348 19.2734 13.1829 19.2098C13.1311 19.1461 13.0639 19.0964 12.9813 19.0604L14.2287 18.7694ZM15.5717 18.0943C15.5735 18.1148 15.5753 18.1301 15.5778 18.1396C15.5804 18.149 15.5846 18.1583 15.5903 18.1672C15.5951 18.1746 15.5985 18.1798 15.6015 18.183C15.6045 18.1862 15.6091 18.1892 15.6151 18.1929L16.5688 18.7522C16.6415 18.7937 16.7189 18.8441 16.8024 18.9023C16.8849 18.9605 16.9733 19.0261 17.066 19.0999C17.0229 19.0489 16.9793 18.9939 16.9343 18.9329C16.8896 18.8725 16.8445 18.8071 16.7986 18.7364L16.3819 18.0944C16.3321 18.0179 16.2717 17.958 16.2008 17.9162C16.1303 17.874 16.0487 17.8503 15.9563 17.8447L16.8452 17.2676C16.8141 17.3534 16.8031 17.4373 16.8117 17.5196C16.821 17.6015 16.8505 17.6814 16.9001 17.7579L17.9769 19.4167C18.0007 19.4534 18.0242 19.4814 18.0465 19.5005C18.0693 19.5191 18.095 19.5323 18.1226 19.5404L17.3131 20.066C17.3109 20.0487 17.3078 20.0344 17.3045 20.0224C17.3016 20.0108 17.2964 20.0001 17.2905 19.9912C17.2865 19.9848 17.2795 19.9782 17.2699 19.9718C17.2673 19.9705 17.2656 19.9693 17.265 19.9683L16.1871 19.3584C16.1279 19.3253 16.0568 19.2791 15.9728 19.2203C15.8893 19.1606 15.7947 19.0908 15.6888 19.0091C15.7324 19.0598 15.7766 19.1153 15.8218 19.1754C15.8671 19.2353 15.9121 19.3007 15.958 19.3715L16.4337 20.1042C16.4841 20.1817 16.5458 20.2422 16.6175 20.2851C16.6893 20.3279 16.7706 20.3526 16.8623 20.3585L15.9734 20.9357C16.0046 20.8512 16.015 20.7678 16.0045 20.6853C15.9939 20.6028 15.9628 20.5217 15.9117 20.4431L14.9785 19.0055C14.9281 18.9279 14.8673 18.8675 14.7969 18.8253C14.7265 18.783 14.6465 18.7591 14.5566 18.7533L15.5717 18.0943Z" fill="#222C46"/>
<path fill-rule="evenodd" clip-rule="evenodd" d="M17.8107 5.42413C17.8266 5.4417 17.8443 5.4602 17.8633 5.47977C17.8815 5.49882 17.9073 5.52522 17.9418 5.55926C18.0986 5.7146 18.2313 5.81178 18.3393 5.85144C18.4473 5.89113 18.5374 5.87514 18.6083 5.80347C18.6714 5.73967 18.6913 5.66084 18.668 5.56683C18.6447 5.4729 18.5808 5.37365 18.4757 5.26968C18.3839 5.17881 18.3052 5.12579 18.2403 5.11131C18.1753 5.09573 18.1142 5.11741 18.0576 5.17464L17.8107 5.42413ZM17.4598 5.77881L17.1724 6.06925C17.1056 6.13667 17.0807 6.20793 17.0969 6.28285C17.1135 6.35736 17.1746 6.44719 17.2801 6.55165C17.3982 6.66862 17.512 6.73992 17.6216 6.76436C17.7303 6.78814 17.8217 6.76333 17.8945 6.68985C17.9773 6.60603 17.9954 6.50143 17.9482 6.37541C17.9008 6.24951 17.7869 6.09705 17.6075 5.91945C17.5695 5.88175 17.54 5.85266 17.5189 5.83272C17.4978 5.81282 17.4775 5.79454 17.4598 5.77881ZM15.7931 5.76005C15.8927 5.7794 15.9851 5.77597 16.0704 5.74986C16.1557 5.72372 16.2328 5.67576 16.3024 5.60546L17.5658 4.32877C17.634 4.25983 17.6807 4.18266 17.7051 4.09807C17.7293 4.01333 17.7313 3.92136 17.7109 3.82196L17.7222 3.83307C17.8498 3.96677 17.9473 4.06695 18.013 4.13182C18.1425 4.25994 18.3155 4.42384 18.5323 4.62367C18.749 4.82342 18.8971 4.96266 18.9766 5.0412C19.2891 5.35058 19.4808 5.62314 19.5522 5.85867C19.6231 6.09458 19.5747 6.29728 19.4065 6.4672C19.2997 6.57513 19.1738 6.62479 19.028 6.61582C18.8826 6.60648 18.7098 6.53861 18.5096 6.41223C18.6667 6.6259 18.7527 6.82155 18.7668 6.9986C18.7815 7.17517 18.7241 7.32939 18.5943 7.46062C18.4179 7.63888 18.2035 7.69667 17.9496 7.63434C17.6962 7.57154 17.4186 7.39072 17.1173 7.09257C17.0536 7.02947 16.9263 6.89806 16.7342 6.69698C16.5428 6.49652 16.3806 6.33044 16.2474 6.19862C16.2168 6.16831 16.1484 6.1024 16.0427 6.00053C15.9368 5.89855 15.854 5.8185 15.7931 5.76005Z" fill="#222C46"/>
<path fill-rule="evenodd" clip-rule="evenodd" d="M14.017 2.5497C13.9211 2.58925 13.8448 2.64275 13.7873 2.70999C13.7298 2.77719 13.6911 2.85827 13.6723 2.95202L13.4133 4.23916C13.3762 4.42392 13.3836 4.55636 13.4358 4.6363C13.4886 4.71709 13.5949 4.77321 13.7568 4.80578C13.919 4.83842 14.0386 4.82771 14.1186 4.77365C14.1976 4.72012 14.2556 4.60085 14.2928 4.41602L14.5517 3.12884C14.5706 3.03517 14.5671 2.94556 14.5401 2.86137C14.513 2.77711 14.4625 2.69813 14.3894 2.62462L15.7086 2.89002C15.6139 2.92842 15.5385 2.98137 15.482 3.04883C15.426 3.11706 15.3882 3.19829 15.3691 3.2933L15.0889 4.68633C15.0552 4.85385 15.0147 4.97924 14.9676 5.06195C14.9203 5.1454 14.8543 5.21023 14.7712 5.2576C14.6486 5.3278 14.49 5.36668 14.2957 5.37365C14.1014 5.38071 13.8615 5.35586 13.577 5.29863C13.2925 5.2414 13.0616 5.17157 12.8852 5.08997C12.7088 5.00841 12.5784 4.91134 12.4942 4.79961C12.4373 4.72536 12.4019 4.64276 12.3897 4.55149C12.3774 4.46084 12.3892 4.32688 12.4247 4.15047L12.7049 2.7574C12.7237 2.66365 12.7202 2.57407 12.6932 2.48989C12.6671 2.40578 12.6165 2.32684 12.5426 2.25317L14.017 2.5497Z" fill="#222C46"/>
<path fill-rule="evenodd" clip-rule="evenodd" d="M9.4302 2.69569C9.37396 2.78021 9.34128 2.86628 9.33205 2.9539C9.32316 3.042 9.33722 3.13054 9.37452 3.21996L9.93065 4.55167C9.97152 4.64955 10.0285 4.7131 10.1006 4.7419C10.1735 4.7704 10.2601 4.76328 10.3615 4.72089C10.4995 4.66329 10.6082 4.55832 10.6875 4.40597C10.7661 4.25392 10.8369 3.99446 10.9 3.62752L11.4359 4.91093C11.3811 4.90044 11.3276 4.89793 11.2741 4.90469C11.2204 4.91078 11.1641 4.92648 11.1041 4.95155L9.09789 5.78926C9.15401 5.70474 9.18658 5.61808 9.19522 5.52936C9.20386 5.44059 9.18905 5.35032 9.1512 5.25963L8.45904 3.60227C8.42172 3.5128 8.36877 3.44051 8.29979 3.38483C8.23097 3.32988 8.14686 3.29263 8.04724 3.27317L9.4302 2.69569Z" fill="#222C46"/>
<path fill-rule="evenodd" clip-rule="evenodd" d="M6.77828 5.12847C6.52779 5.12951 6.32519 5.15838 6.16949 5.21432C6.01386 5.2703 5.88983 5.35921 5.79694 5.48079C5.66863 5.6485 5.63558 5.8213 5.69735 5.99912C5.75972 6.17746 5.9166 6.36255 6.16831 6.55503C6.32183 6.67234 6.47931 6.7165 6.64103 6.68607C6.80261 6.65583 6.94772 6.55644 7.0771 6.38729C7.18126 6.25105 7.25824 6.10077 7.30761 5.93591C7.35646 5.77171 7.37543 5.59806 7.36402 5.41673C7.62027 5.63026 7.75423 5.87883 7.76316 6.16354C7.7728 6.44766 7.65819 6.74626 7.41786 7.06073C7.14758 7.41431 6.84559 7.61739 6.51243 7.67044C6.17879 7.72428 5.84276 7.62137 5.50417 7.36254C5.13376 7.07934 4.92141 6.75327 4.86788 6.3846C4.81423 6.01588 4.92485 5.65119 5.19996 5.29131C5.27735 5.18999 5.37594 5.07937 5.49516 4.96007C5.61431 4.84081 5.68565 4.76589 5.70858 4.73576C5.74332 4.69035 5.77175 4.64135 5.7945 4.58892C5.81721 4.53549 5.8353 4.47841 5.8487 4.41782L6.77828 5.12847Z" fill="#222C46"/>
<path fill-rule="evenodd" clip-rule="evenodd" d="M12.0646 5.49683C15.6634 5.49683 18.5808 8.41423 18.5808 12.0131C18.5808 15.612 15.6634 18.5295 12.0646 18.5295C8.46566 18.5295 5.54822 15.612 5.54822 12.0131C5.54822 8.41423 8.46566 5.49683 12.0646 5.49683ZM12.0646 5.92857C15.4249 5.92857 18.1491 8.65271 18.1491 12.0131C18.1491 15.3735 15.4249 18.0977 12.0646 18.0977C8.70414 18.0977 5.97996 15.3735 5.97996 12.0131C5.97996 8.65271 8.70414 5.92857 12.0646 5.92857Z" fill="#222C46"/>
<path fill-rule="evenodd" clip-rule="evenodd" d="M16.7508 10.5831L15.3263 11.4056C15.0523 11.0877 14.8559 10.8951 14.7362 10.8259C14.5099 10.6918 14.2513 10.7094 13.96 10.8776C13.7685 10.9882 13.6635 11.1658 13.6447 11.4095C13.6268 11.6273 13.6754 11.8361 13.79 12.0346L14.4794 13.2287C14.5808 13.4042 14.7349 13.5121 14.941 13.5514C15.1479 13.5915 15.341 13.5598 15.5205 13.4562C15.8159 13.2856 15.9485 13.0548 15.9187 12.7635C15.905 12.6384 15.8123 12.3672 15.6407 11.9503L17.0533 11.1347C17.4547 11.9405 17.5428 12.6185 17.3178 13.1687C17.1086 13.6726 16.5791 14.1699 15.7291 14.6605C15.0428 15.0568 14.3304 15.1914 13.5926 15.0654C12.8901 14.9407 12.3476 14.6028 11.9644 14.0506C12.2145 13.8174 12.4386 13.5443 12.5663 13.2348C12.8611 12.52 12.625 11.7243 12.297 11.0657L12.2365 10.9442C12.5247 10.5829 12.887 10.2761 13.3236 10.0241C13.4912 9.92737 13.7501 9.84825 14.1005 9.78699C14.4509 9.7257 14.6759 9.66625 14.7756 9.60861C14.8115 9.58797 14.8454 9.52447 14.8772 9.41835C14.909 9.3122 14.9234 9.2334 14.9203 9.18193L15.6864 8.73959L16.7508 10.5831Z" fill="#222C46"/>
<path fill-rule="evenodd" clip-rule="evenodd" d="M11.8483 10.5868L10.4237 11.4093C10.1497 11.0913 9.95342 10.8988 9.83364 10.8296C9.60723 10.6956 9.34873 10.7132 9.05749 10.8813C8.86589 10.9919 8.76099 11.1696 8.74201 11.4133C8.72414 11.6311 8.77281 11.8398 8.88742 12.0383L9.57684 13.2325C9.67816 13.408 9.83232 13.516 10.0385 13.5552C10.2453 13.5953 10.4384 13.5637 10.6181 13.4599C10.9133 13.2895 11.0461 13.0586 11.0161 12.7672C11.0024 12.6421 10.9098 12.3711 10.7382 11.9541L12.1509 11.1385C12.5522 11.9443 12.6404 12.6223 12.4154 13.1725C12.2762 13.5056 11.9966 13.8381 11.5757 14.1668L12.0059 14.912L11.2578 15.3439L10.8557 14.6475L10.8266 14.6644C10.7088 14.7325 10.5902 14.7926 10.471 14.8453L10.8837 15.5599L10.1355 15.9919L9.61417 15.089C9.31081 15.1292 9.00265 15.1227 8.69003 15.0692C7.90755 14.9304 7.32339 14.5268 6.93695 13.8575C6.54587 13.18 6.52859 12.4545 6.8846 11.6796C6.9912 11.4469 7.11987 11.2303 7.27048 11.0295L6.71568 10.0686L7.46388 9.63671L7.89614 10.3854C8.00713 10.2962 8.12473 10.2119 8.24894 10.1324L7.83799 9.42071L8.58616 8.98874L9.06376 9.81593C9.10685 9.80718 9.1516 9.7988 9.1979 9.79071C9.54827 9.72942 9.77331 9.66994 9.87308 9.61234C9.90897 9.59159 9.94286 9.52819 9.97469 9.422C10.0065 9.31588 10.0208 9.23709 10.0178 9.18565L10.7839 8.74332L11.8483 10.5868Z" fill="#DF4F2A"/>
</svg>
