<svg width="24" height="24" viewBox="0 0 24 24" fill="none" xmlns="http://www.w3.org/2000/svg">
<g clip-path="url(#clip0)">
<path fill-rule="evenodd" clip-rule="evenodd" d="M12.2722 -0.00012207L11.3439 0.127878L10.4479 0.415878L9.61618 0.847878L8.84818 1.43988L8.12818 2.1922L7.50418 3.1362L6.94386 4.2402L6.47986 5.5362L7.63218 6.3202L9.35986 4.8162L9.37618 4.79988L9.34418 4.62388L9.32786 4.43188V4.2402L9.53618 3.16788L10.1279 2.3042L10.9922 1.72788L12.0482 1.5042H17.4722L17.3599 1.4242L16.3039 0.896198L15.2799 0.464198L14.2562 0.176198L13.2479 0.0158779L12.2722 -0.00012207ZM17.4722 1.5042H12.0482L12.8322 1.6162L13.5199 1.9362L14.0962 2.4162L14.5119 3.0562L14.5282 3.03988L19.4399 2.8642L18.3999 2.09588L17.4722 1.5042ZM11.2482 2.3362L10.5919 2.78388L10.1599 3.4402L9.99986 4.2402L10.1599 5.03988L10.5919 5.69588L11.2482 6.1442L12.0482 6.30388L12.8479 6.1442L13.5039 5.69588L13.9522 5.03988L14.1122 4.2402L13.9522 3.4402L13.5039 2.78388L12.8479 2.3362L12.0482 2.17588L11.2482 2.3362Z" fill="#B72D23"/>
<path fill-rule="evenodd" clip-rule="evenodd" d="M16.3998 3.64798L15.0561 3.8563L14.8961 5.24798L17.0561 6.04798H17.0721L17.2161 5.93598L17.3761 5.82398L17.5361 5.72798L18.5761 5.40798H21.9681L21.4561 4.8963L20.6721 4.36798L19.7761 3.96798L18.7681 3.71198L17.6481 3.59998L16.3998 3.64798ZM18.5761 5.40798L19.6161 5.5043L20.5438 5.99998L21.2481 6.83198L21.5198 7.56798L21.5678 8.31998L21.4081 9.05598L21.0561 9.72798H21.0721L23.5841 13.968L23.7598 12.688L23.8401 11.456L23.8238 10.272L23.6961 9.15198L23.4561 8.12798L23.1201 7.16798L22.6721 6.30398L22.1121 5.55198L21.9681 5.40798H18.5761ZM17.8561 6.31998L17.2321 6.84798L16.8641 7.53598L16.7998 8.33598L17.0401 9.1043L17.5521 9.74398L18.2561 10.096L19.0398 10.176L19.8238 9.9363L20.4478 9.40798L20.8161 8.71997L20.8961 7.91998L20.6561 7.15198L20.1278 6.5123L19.4241 6.15998L18.6398 6.07998L17.8561 6.31998Z" fill="#97B63D"/>
<path fill-rule="evenodd" clip-rule="evenodd" d="M20.544 10.24L19.264 10.816L19.6963 13.088L19.68 13.104L19.872 13.152L20.032 13.232L20.208 13.328L21.008 14.064L21.4563 15.008L21.52 16.048L21.168 17.072L20.672 17.696L20.048 18.128L19.344 18.368L18.592 18.416H18.5763L16.224 22.752L17.424 22.24L18.528 21.68L19.52 21.056L20.4163 20.384L21.184 19.648L21.84 18.864L22.352 18.032L22.704 17.168L22.928 16.256L22.9763 15.328L22.864 14.352L22.5763 13.36L22.0963 12.336L21.424 11.296L20.544 10.24ZM19.088 13.648L18.304 13.696L17.584 14.032L17.04 14.64L16.768 15.408L16.8163 16.192L17.152 16.912L17.76 17.456L18.544 17.728L19.328 17.68L20.032 17.344L20.592 16.736L20.864 15.968L20.8163 15.168L20.48 14.464L19.872 13.92L19.088 13.648Z" fill="#00743C"/>
<path fill-rule="evenodd" clip-rule="evenodd" d="M14.8962 18.992H14.8802L14.9282 19.168L14.9438 19.36V19.568L14.7198 20.624L14.1282 21.4877L13.2478 22.064L12.1922 22.272H15.4882L16.1122 21.616L16.7522 20.688L17.3122 19.584L17.7918 18.2877L16.6402 17.488L14.8962 18.992ZM11.4242 17.632L10.7678 18.08L10.3198 18.72L10.1438 19.52L10.3042 20.336L10.7362 20.992L11.3922 21.44L12.1922 21.6L12.9922 21.44L13.6478 21.008L14.0962 20.352L14.2722 19.552L14.1122 18.752L13.6798 18.096L13.0238 17.648L12.2242 17.488L11.4242 17.632ZM9.72816 20.72L4.81616 20.864L5.83984 21.632L6.87984 22.304L7.91984 22.864L8.95984 23.28L9.98416 23.584L10.9762 23.744L11.9522 23.776L12.8798 23.6477L13.7762 23.376L14.6242 22.96L15.3922 22.368L15.4882 22.272H12.1922L11.4078 22.16L10.7198 21.84L10.1598 21.344L9.74384 20.704L9.72816 20.72Z" fill="#05A7E0"/>
<path fill-rule="evenodd" clip-rule="evenodd" d="M0.560103 11.1201L0.480103 12.3518L0.512103 13.5361L0.640103 14.6401L0.864103 15.6801L1.21578 16.6398L1.6641 17.4881L2.22378 18.2561L2.8961 18.8961L3.6801 19.4241L4.57642 19.8241L5.5841 20.0801L6.7041 20.1921L7.9361 20.1441L9.29642 19.9201L9.4401 18.5281L9.02378 18.3841H5.75978L4.7201 18.2721L3.7921 17.7918L3.0881 16.9761L2.8161 16.2241L2.76778 15.4721L2.9121 14.7358L3.26378 14.0641H3.2481L0.736102 9.84013L0.560103 11.1201ZM4.49578 13.8561L3.8721 14.3841L3.5041 15.0721L3.4401 15.8721L3.6801 16.6398L4.20778 17.2798L4.9121 17.6321L5.69642 17.7118L6.47978 17.4721L7.1041 16.9441L7.4721 16.2398L7.5361 15.4558L7.2961 14.6721L6.7681 14.0478L6.0641 13.6798L5.27978 13.6001L4.49578 13.8561ZM7.11978 17.8561L6.9761 17.9678L6.79978 18.0481L5.75978 18.3841H9.02378L7.2801 17.7441L7.26378 17.7281L7.11978 17.8561Z" fill="#004C77"/>
<path fill-rule="evenodd" clip-rule="evenodd" d="M8.14399 1.00798L6.94399 1.50398L5.83999 2.06398L4.83199 2.68798L3.95199 3.35998L3.16799 4.09598L2.52799 4.86398L2.01599 5.69598L1.64799 6.55998L1.42399 7.47198L1.35999 8.39998L1.48799 9.37598L1.77599 10.368L2.23999 11.392L2.91199 12.448L3.79199 13.504L5.05631 12.912L4.65631 10.656V10.64L4.47999 10.576L4.30399 10.496L4.12799 10.4L3.32799 9.67998L2.87999 8.71998L2.83199 7.67998L3.18399 6.65598L3.67999 6.04798L4.30399 5.61598L5.02399 5.37598L5.77631 5.32798L8.14399 1.00798ZM5.80799 6.01598L5.02399 6.06398L4.31999 6.39998L3.75999 6.99198L3.48799 7.77598L3.53599 8.55998L3.87199 9.27998L4.47999 9.82398L5.24799 10.096L6.03199 10.048L6.75199 9.71198L7.29631 9.10398L7.56799 8.33598L7.53631 7.55198L7.19999 6.83198L6.59199 6.28798L5.80799 6.01598Z" fill="#F47D20"/>
</g>
<defs>
<clipPath id="clip0">
<rect width="24" height="24" fill="white"/>
</clipPath>
</defs>
</svg>
