<svg width="24" height="24" viewBox="0 0 24 24" fill="none" xmlns="http://www.w3.org/2000/svg">
<path d="M12 24C18.6274 24 24 18.6274 24 12C24 5.37258 18.6274 0 12 0C5.37258 0 0 5.37258 0 12C0 18.6274 5.37258 24 12 24Z" fill="black"/>
<path fill-rule="evenodd" clip-rule="evenodd" d="M13.0405 16.8196V19.6248C13.0405 20.0082 12.7298 20.3188 12.3464 20.3188C12.2155 20.3188 12.0892 20.2848 11.9776 20.2169L6.14885 16.6496C5.73626 16.3973 5.48389 15.9459 5.48389 15.4606V12.7572C5.48389 12.437 5.74597 12.1749 6.06614 12.1749C6.16804 12.1749 6.27017 12.204 6.3574 12.2574L12.4629 15.8149C12.8222 16.0235 13.0405 16.407 13.0405 16.8196Z" fill="#01D494"/>
<path fill-rule="evenodd" clip-rule="evenodd" d="M15.8263 12.5194V18.2076C15.8263 18.3774 15.739 18.5328 15.5935 18.6104L14.2539 19.3627C14.2395 19.3724 14.22 19.3821 14.2006 19.387V16.2275C14.2006 15.8197 13.987 15.4412 13.6328 15.2276L8.27466 12.0195V8.45725C8.27466 8.13687 8.53675 7.87488 8.85691 7.87488C8.95882 7.87488 9.06094 7.90389 9.14817 7.95249L15.249 11.5149C15.608 11.7236 15.8263 12.107 15.8263 12.5194Z" fill="#01D494"/>
<path fill-rule="evenodd" clip-rule="evenodd" d="M18.5005 16.6302C18.5005 16.8001 18.4083 16.9554 18.2579 17.0379L16.9912 17.7222V11.937C16.9912 11.5244 16.7777 11.1509 16.4281 10.9372L10.944 7.65149V4.26872C10.944 4.16682 10.9729 4.06491 11.0214 3.9776C11.1866 3.70091 11.5409 3.60386 11.8175 3.76408L17.923 7.31178C18.2823 7.52043 18.5005 7.90388 18.5005 8.31645V16.6302Z" fill="#01D494"/>
</svg>
