<svg width="24" height="24" viewBox="0 0 24 24" fill="none" xmlns="http://www.w3.org/2000/svg">
<path fill-rule="evenodd" clip-rule="evenodd" d="M24 12C24 18.6274 18.6274 24 12 24C5.37255 24 0 18.6274 0 12C0 5.37255 5.37255 0 12 0C18.6274 0 24 5.37255 24 12Z" fill="#1D373C"/>
<path fill-rule="evenodd" clip-rule="evenodd" d="M12 22.2542C6.34591 22.2542 1.74587 17.6541 1.74587 12C1.74587 6.34588 6.34591 1.74584 12 1.74584C17.6542 1.74584 22.2542 6.34588 22.2542 12C22.2542 17.6541 17.6542 22.2542 12 22.2542ZM12 1.08286C5.98034 1.08286 1.08289 5.98031 1.08289 12C1.08289 18.0197 5.98034 22.9172 12 22.9172C18.0197 22.9172 22.9172 18.0197 22.9172 12C22.9172 5.98031 18.0197 1.08286 12 1.08286Z" fill="#FFFFFE"/>
<path fill-rule="evenodd" clip-rule="evenodd" d="M12 18.0684C10.3785 18.0684 8.85407 17.4369 7.70751 16.2904C6.56101 15.1439 5.92965 13.6195 5.92965 11.9981C5.92965 10.3768 6.56114 8.85248 7.70831 7.70559C8.85188 6.56161 10.3759 5.93158 11.9996 5.93158C13.2457 5.93158 14.4333 6.30271 15.4355 6.99248L14.6346 7.79337C13.8529 7.30196 12.9469 7.03902 12 7.03902C10.6745 7.03902 9.42895 7.55436 8.49222 8.49056C7.55529 9.42755 7.03929 10.6732 7.03929 11.9981C7.03929 13.3232 7.55529 14.5689 8.49222 15.5059C9.42915 16.4428 10.6749 16.9588 12 16.9588C12.9461 16.9588 13.8514 16.6959 14.6328 16.2047L15.4339 17.0059C14.4309 17.6967 13.244 18.0684 12 18.0684ZM13.938 13.9369C13.4206 14.4546 12.732 14.7396 12 14.7396C11.268 14.7396 10.5794 14.4546 10.0614 13.9366C9.54351 13.4187 9.25849 12.7303 9.25849 11.9981C9.25849 11.2661 9.54351 10.5778 10.0614 10.0598C10.5962 9.52534 11.2978 9.25823 12 9.25823C12.7022 9.25823 13.4038 9.52534 13.9386 10.0598L14.7225 10.8439L18.6455 6.92088L17.8612 6.13664C16.575 4.85045 14.967 4.0849 13.2945 3.82223V2.22159H10.7979V3.80884C9.09215 4.05699 7.44842 4.82658 6.13882 6.13664C4.57299 7.70214 3.71045 9.78404 3.71045 11.9981C3.71045 14.2124 4.57299 16.2943 6.13829 17.8596C7.41646 19.1377 9.0407 19.9374 10.7979 20.1916V21.7784H13.2945V20.178C15.0162 19.9091 16.606 19.1153 17.8617 17.8596L18.6438 17.0774L14.7206 13.1542L13.938 13.9369Z" fill="#FFFFFE"/>
</svg>
