<svg width="24" height="24" viewBox="0 0 24 24" fill="none" xmlns="http://www.w3.org/2000/svg">
<path d="M12 24C18.6274 24 24 18.6274 24 12C24 5.37258 18.6274 0 12 0C5.37258 0 0 5.37258 0 12C0 18.6274 5.37258 24 12 24Z" fill="black"/>
<path d="M11.9228 3.29851C11.8133 3.05101 12.2093 2.87551 12.3188 3.11101C14.8928 7.54501 17.4668 11.9813 20.0408 16.422C19.9035 16.422 19.7715 16.377 19.6395 16.356L12.7695 14.9865C12.5445 14.9753 12.495 14.6115 12.7148 14.5575L15.4103 13.815C15.4424 13.8069 15.4723 13.7917 15.4979 13.7707C15.5235 13.7496 15.5441 13.7232 15.5583 13.6932C15.5725 13.6633 15.5799 13.6306 15.58 13.5974C15.5801 13.5643 15.5728 13.5315 15.5588 13.5015L11.9228 3.29251V3.29776V3.29851Z" fill="white"/>
<path d="M11.5275 3.321C11.5522 3.357 11.574 3.396 11.5927 3.4365C12.4072 5.7465 13.2428 8.0565 14.0513 10.3665C14.1233 10.5585 13.8533 10.7182 13.7213 10.575C13.0282 9.849 12.3682 9.10125 11.6865 8.37525C11.5762 8.27625 11.4165 8.34225 11.3453 8.4465L4.2615 16.7685C4.179 16.8562 4.10775 16.9882 3.96975 17.0047C3.87075 17.0047 3.80475 16.9275 3.75 16.851V16.7235C6.34575 12.258 8.9385 7.791 11.5275 3.321Z" fill="white"/>
<path d="M9.36003 11.2463C9.49203 11.208 9.66753 11.301 9.62403 11.4608C9.34878 12.4178 9.05778 13.3695 8.77128 14.3205C8.72778 14.442 8.83728 14.5515 8.95278 14.5575C12.66 15.3 16.3673 16.0695 20.0738 16.812C20.1458 16.8233 20.1953 16.878 20.25 16.9223V17.076L20.145 17.1863H4.41003C6.06003 15.2063 7.70478 13.215 9.36003 11.2463Z" fill="white"/>
</svg>
