<svg width="24" height="24" viewBox="0 0 24 24" fill="none" xmlns="http://www.w3.org/2000/svg">
<g clip-path="url(#clip0)">
<path d="M18.864 10.56C18.864 7.584 16.44 5.16 13.464 5.16C11.208 5.16 9.28796 6.528 8.47196 8.496C6.55196 9.312 5.18396 11.232 5.18396 13.464C5.18396 16.44 7.60796 18.864 10.584 18.864C12.84 18.864 14.76 17.496 15.576 15.528C17.472 14.712 18.864 12.792 18.864 10.56ZM10.584 17.52C8.35196 17.52 6.52796 15.696 6.52796 13.464C6.52796 12.192 7.12796 11.04 8.06396 10.296C8.06396 10.392 8.06396 10.488 8.06396 10.56C8.06396 13.536 10.488 15.96 13.464 15.96C13.584 15.96 13.68 15.96 13.8 15.96C13.032 16.92 11.88 17.52 10.584 17.52ZM14.52 14.472C14.184 14.568 13.824 14.616 13.464 14.616C11.232 14.616 9.40796 12.792 9.40796 10.56C9.40796 10.2 9.45596 9.864 9.55196 9.552C9.88796 9.456 10.248 9.408 10.608 9.408C12.84 9.408 14.664 11.232 14.664 13.464C14.64 13.824 14.592 14.16 14.52 14.472ZM15.984 13.728C15.984 13.632 15.984 13.536 15.984 13.464C15.984 10.488 13.56 8.064 10.584 8.064C10.464 8.064 10.368 8.064 10.248 8.064C10.992 7.104 12.144 6.504 13.44 6.504C15.672 6.504 17.496 8.328 17.496 10.56C17.496 11.856 16.896 12.984 15.984 13.728Z" fill="white"/>
<path d="M12 24.0001C18.6275 24.0001 24.0001 18.6275 24.0001 12C24.0001 5.3726 18.6275 0 12 0C5.3726 0 0 5.3726 0 12C0 18.6275 5.3726 24.0001 12 24.0001Z" fill="#47CC85"/>
<path d="M11.6577 18.6993C14.0789 18.6993 16.1295 17.1428 16.8953 14.9934H15.3883C14.7212 16.377 13.2883 17.3158 11.6577 17.3158C9.36005 17.3158 7.48241 15.4381 7.48241 13.1405C7.48241 11.5099 8.42123 10.077 9.80476 9.40989V7.90282C7.65535 8.66871 6.09888 10.7193 6.09888 13.1405C6.09888 16.204 8.59417 18.6993 11.6577 18.6993ZM13.9306 13.6099H15.2154V13.3134L15.1165 12.6711C16.5001 12.5228 17.3648 11.757 17.3648 10.6452C17.3648 8.02635 12.9177 9.08871 12.9177 7.75459C12.9177 7.28518 13.4612 6.98871 14.4001 6.98871C15.1412 6.98871 15.9318 7.18635 16.673 7.50753V6.22283C16.1542 6.07459 15.5859 5.97577 14.993 5.95106L15.0918 5.30871V5.01224H13.8071V5.30871L13.9059 5.95106C12.4483 6.0993 11.5836 6.79106 11.5836 7.804C11.5836 10.5217 16.0306 9.28636 16.0306 10.744C16.0306 11.2381 15.4377 11.5593 14.573 11.5593C13.6836 11.5593 12.7695 11.2875 11.6577 10.7687V12.1028C12.3989 12.4487 13.1895 12.6217 14.0295 12.6711L13.9306 13.3134V13.6099Z" fill="white"/>
</g>
<defs>
<clipPath id="clip0">
<rect width="24" height="24" fill="white"/>
</clipPath>
</defs>
</svg>
