<svg width="24" height="24" viewBox="0 0 24 24" fill="none" xmlns="http://www.w3.org/2000/svg">
<path d="M12 0C18.6264 0 24 5.3736 24 12C24 18.6264 18.6264 24 12 24C5.3736 24 0 18.6264 0 12C0 5.3736 5.3736 0 12 0Z" fill="#1E0B49"/>
<path d="M7.79048 9.59996C8.32088 8.69756 9.17048 8.16237 9.91688 8.17677L10.2193 7.66557C10.7401 6.77997 10.5601 5.69997 9.81608 5.26318C9.07208 4.82638 8.04248 5.19598 7.51928 6.07677L7.21928 6.58797C7.59368 7.23357 7.53608 8.23196 7.00568 9.13916C6.47528 10.0464 5.62568 10.5768 4.87928 10.5624L4.57688 11.0736C4.05608 11.9592 4.23608 13.0391 4.98008 13.4759C5.72168 13.9127 6.75368 13.5455 7.27688 12.6623L7.57688 12.1512C7.20248 11.5056 7.26008 10.5024 7.79048 9.59996Z" fill="#1E90FF"/>
<path d="M7.008 14.7816C6.4776 13.8792 5.628 13.344 4.8816 13.3584L4.5792 12.8472C4.0584 11.9616 4.2384 10.8816 4.9824 10.4448C5.7264 10.008 6.756 10.3728 7.2792 11.2584L7.5792 11.7696C7.2048 12.4152 7.2624 13.4136 7.7928 14.3208C8.3256 15.228 9.1728 15.7584 9.9192 15.744L10.2216 16.2552C10.7424 17.1408 10.5624 18.2208 9.8184 18.6576C9.0768 19.0944 8.0448 18.7296 7.5216 17.844L7.2216 17.3328C7.5936 16.6872 7.536 15.684 7.008 14.7816Z" fill="url(#paint0_linear)"/>
<path d="M13.0489 14.7816C12.5185 13.8792 11.6689 13.344 10.9225 13.3584L10.6201 12.8472C10.0993 11.9616 10.2793 10.8816 11.0233 10.4448C11.7673 10.008 12.7969 10.3728 13.3177 11.2584L13.6201 11.7696C13.2457 12.4152 13.3033 13.4136 13.8337 14.3208C14.3665 15.228 15.2137 15.7584 15.9601 15.744L16.2625 16.2552C16.7833 17.1408 16.6033 18.2208 15.8593 18.6576C15.1177 19.0944 14.0857 18.7296 13.5625 17.844L13.2625 17.3328C13.6393 16.6872 13.5841 15.684 13.0489 14.7816Z" fill="url(#paint1_linear)"/>
<path d="M16.8265 14.8704C17.3569 13.9704 18.2065 13.4328 18.9529 13.4472L19.2553 12.936C19.7761 12.0504 19.5961 10.9704 18.8521 10.5336C18.1081 10.0968 17.0785 10.464 16.5553 11.3472L16.2553 11.8584C16.6297 12.504 16.5721 13.5024 16.0417 14.4096C15.5089 15.3168 14.6617 15.8472 13.9153 15.8328L13.6129 16.344C13.0921 17.2296 13.2721 18.3096 14.0161 18.7464C14.7601 19.1832 15.7897 18.816 16.3129 17.9328L16.6129 17.4216C16.2337 16.7736 16.2961 15.7704 16.8265 14.8704Z" fill="url(#paint2_linear)"/>
<path d="M8.9256 4.92C7.92 4.92 7.1064 5.748 7.1304 6.7584C7.152 7.7112 7.9296 8.4864 8.8824 8.5104C9.8928 8.5344 10.7208 7.7208 10.7208 6.7152C10.7208 5.724 9.9168 4.92 8.9256 4.92Z" fill="#1E90FF"/>
<path d="M8.92564 15.456C7.92004 15.456 7.10884 16.284 7.13284 17.2968C7.15684 18.2688 7.96324 19.0512 8.93524 19.0464C9.92164 19.0416 10.7208 18.2424 10.7232 17.2536C10.7232 16.2624 9.91924 15.456 8.92564 15.456Z" fill="#4B0082"/>
<path d="M14.9425 4.92C13.9369 4.92 13.1232 5.748 13.1472 6.7584C13.1688 7.7112 13.9465 8.4864 14.8993 8.5104C15.9097 8.5344 16.7377 7.7208 16.7377 6.7152C16.7377 5.724 15.9337 4.92 14.9425 4.92Z" fill="#1E90FF"/>
<path d="M14.9425 15.456C13.9369 15.456 13.1232 16.284 13.1472 17.2944C13.1688 18.2664 13.9777 19.0512 14.9497 19.0464C15.9361 19.0416 16.7353 18.2424 16.7377 17.2536C16.7377 16.2624 15.9361 15.4584 14.9425 15.456Z" fill="#4B0082"/>
<path d="M11.892 10.188C10.8864 10.188 10.0728 11.016 10.0968 12.0264C10.1184 12.9792 10.896 13.7544 11.8488 13.7784C12.8592 13.8024 13.6872 12.9888 13.6872 11.9832C13.6872 10.992 12.8832 10.188 11.892 10.188Z" fill="#8B008B"/>
<path d="M17.976 10.188C16.9704 10.188 16.1568 11.0136 16.1808 12.0264C16.2024 12.9792 16.98 13.7568 17.9304 13.7784C18.9408 13.8024 19.7688 12.9912 19.7688 11.9856C19.7688 10.992 18.9672 10.1904 17.976 10.188Z" fill="#8B008B"/>
<path d="M5.80805 10.188C4.80245 10.188 3.98885 11.016 4.01285 12.0264C4.03445 12.9792 4.81205 13.7544 5.76485 13.7784C6.77526 13.8024 7.60326 12.9888 7.60326 11.9832C7.60326 10.992 6.79926 10.188 5.80805 10.188Z" fill="#1E90FF"/>
<defs>
<linearGradient id="paint0_linear" x1="6.74984" y1="13.438" x2="8.08469" y2="15.7221" gradientUnits="userSpaceOnUse">
<stop offset="0.21" stop-color="#1E90FF"/>
<stop offset="1" stop-color="#4B0082"/>
</linearGradient>
<linearGradient id="paint1_linear" x1="12.7922" y1="13.4367" x2="14.0482" y2="15.5794" gradientUnits="userSpaceOnUse">
<stop stop-color="#8B008B"/>
<stop offset="1" stop-color="#4B0082"/>
</linearGradient>
<linearGradient id="paint2_linear" x1="17.1332" y1="13.6368" x2="15.6491" y2="15.6037" gradientUnits="userSpaceOnUse">
<stop stop-color="#8B008B"/>
<stop offset="1" stop-color="#4B0082"/>
</linearGradient>
</defs>
</svg>
