<svg width="24" height="24" viewBox="0 0 24 24" fill="none" xmlns="http://www.w3.org/2000/svg">
<g clip-path="url(#clip0)">
<path d="M15.7188 2H6.98171L6.25712 6.04831L14.1434 6.05765C18.0281 6.05765 19.1734 7.46942 19.1407 9.80678C19.122 11.0035 18.6031 13.0323 18.3787 13.6915C17.7803 15.4445 16.5509 17.4406 11.9416 17.4359L4.27504 17.4312L3.5528 21.4842H12.2712C15.3471 21.4842 16.6514 21.1243 18.0398 20.4885C21.1111 19.0627 22.9389 16.0335 23.6728 12.0787C24.7597 6.18855 23.404 2 15.7188 2Z" fill="#008DE4"/>
<path d="M3.21153 9.70858C0.920919 9.70858 0.593689 11.1998 0.378652 12.102C0.0934944 13.2801 0 13.7616 0 13.7616H8.94741C11.238 13.7616 11.5653 12.2703 11.7803 11.3681C12.0654 10.1901 12.1589 9.70858 12.1589 9.70858H3.21153Z" fill="#008DE4"/>
</g>
<defs>
<clipPath id="clip0">
<rect width="24" height="24" fill="white"/>
</clipPath>
</defs>
</svg>
