<svg width="24" height="24" viewBox="0 0 24 24" fill="none" xmlns="http://www.w3.org/2000/svg">
<g clip-path="url(#clip0)">
<path d="M15.0056 1.10917V0.417288C15.0057 0.306853 14.962 0.200877 14.8841 0.122635C14.8061 0.0443942 14.7003 0.000286379 14.5899 0L14.5731 0C12.3254 0.108417 10.1996 1.05414 8.61407 2.65108C7.02854 4.24802 6.09807 6.38053 6.00577 8.62901C6.01604 8.92143 6.25225 8.99765 6.39117 8.99765H7.09385C7.20083 8.99737 7.30363 8.95607 7.38106 8.88225C7.45849 8.80844 7.50466 8.70774 7.51006 8.6009C7.60818 6.74816 8.38893 4.9974 9.70169 3.68633C11.0145 2.37526 12.7662 1.59678 14.6191 1.50105C14.912 1.46375 15.0056 1.30376 15.0056 1.10917ZM8.68138 9.00089H9.3511C9.45613 9.00017 9.557 8.95978 9.63349 8.8878C9.70998 8.81582 9.75643 8.71758 9.76352 8.61279C9.85712 7.35059 10.4031 6.16457 11.301 5.27264C12.199 4.38072 13.3887 3.84281 14.6515 3.75776C14.7508 3.75122 14.8434 3.70586 14.9095 3.63151C14.9755 3.55716 15.0097 3.45979 15.0045 3.36047V2.67292C15.0042 2.56205 14.9599 2.45583 14.8814 2.37759C14.8028 2.29935 14.6964 2.25548 14.5856 2.25563C14.5764 2.25509 14.5672 2.25509 14.558 2.25563C12.9239 2.36395 11.3848 3.06209 10.2268 4.22021C9.06893 5.37833 8.37105 6.91759 8.26301 8.55171C8.2556 8.66237 8.29243 8.77145 8.3654 8.85497C8.43838 8.93849 8.54154 8.98962 8.6522 8.99711H8.67976L8.68138 9.00089ZM15.0039 4.93125V5.6215C15.0039 5.90258 14.7596 6.0042 14.6407 6.01825C13.9761 6.09946 13.3577 6.40035 12.8836 6.87314C12.4096 7.34594 12.107 7.96355 12.024 8.62792C12.012 8.7298 11.9632 8.82378 11.8867 8.89217C11.8103 8.96057 11.7115 8.99865 11.6089 8.99927H10.9392C10.8289 8.9997 10.7229 8.95634 10.6446 8.8787C10.5662 8.80107 10.5219 8.69551 10.5213 8.58522C10.5205 8.5719 10.5205 8.55854 10.5213 8.54522C10.626 7.51252 11.084 6.54761 11.8179 5.81359C12.5518 5.07957 13.5167 4.62145 14.5494 4.51666C14.6037 4.5116 14.6584 4.51729 14.7105 4.53341C14.7626 4.54952 14.8111 4.57575 14.853 4.61059C14.895 4.64542 14.9297 4.68819 14.9551 4.73644C14.9805 4.78469 14.9962 4.83748 15.0012 4.89179C15.002 4.90529 15.002 4.91883 15.0012 4.93233L15.0039 4.93125ZM22.8892 14.9851C22.6946 14.9851 22.5346 14.891 22.4967 14.5986C22.4012 12.7455 21.6228 10.9934 20.3118 9.68024C19.0007 8.3671 17.2499 7.58593 15.3969 7.48741C15.2901 7.48214 15.1893 7.43599 15.1156 7.35851C15.0418 7.28103 15.0007 7.17817 15.0007 7.0712V6.36851C15.0007 6.2296 15.0769 5.99339 15.3688 5.98312C17.6173 6.07525 19.7499 7.00547 21.3471 8.59077C22.9443 10.1761 23.8905 12.3017 23.9994 14.5494C24.0036 14.6598 23.9639 14.7673 23.8889 14.8484C23.8139 14.9295 23.7098 14.9775 23.5994 14.9818H23.5827L22.8892 14.9851ZM14.9975 8.6609C14.9975 8.60601 15.0083 8.55165 15.0293 8.50096C15.0504 8.45026 15.0812 8.40421 15.1201 8.36545C15.1589 8.32668 15.205 8.29597 15.2558 8.27506C15.3066 8.25415 15.3609 8.24347 15.4158 8.24361C15.4252 8.24308 15.4346 8.24308 15.4439 8.24361C17.0788 8.35106 18.6189 9.04889 19.7776 10.2072C20.9363 11.3655 21.6347 12.9054 21.7427 14.5402C21.75 14.6508 21.7132 14.7597 21.6403 14.8432C21.5675 14.9266 21.4646 14.9779 21.3541 14.9856H21.3265H20.6416C20.5423 14.9908 20.445 14.9567 20.3706 14.8906C20.2963 14.8246 20.2509 14.7319 20.2444 14.6327C20.1592 13.3698 19.621 12.1801 18.7289 11.2822C17.8368 10.3843 16.6506 9.83853 15.3883 9.7452C15.2834 9.73835 15.1851 9.69196 15.1132 9.6154C15.0412 9.53884 15.001 9.43783 15.0007 9.33277L14.9975 8.6609ZM19.0638 14.9851H18.3779C18.0963 14.9851 17.9952 14.7408 17.9806 14.6213C17.8993 13.9568 17.5984 13.3385 17.1256 12.8646C16.6528 12.3906 16.0352 12.0881 15.371 12.0051C15.269 11.9935 15.1749 11.9449 15.1065 11.8684C15.038 11.792 15 11.6931 14.9996 11.5906V10.9187C14.9993 10.8641 15.0098 10.81 15.0304 10.7595C15.0511 10.7089 15.0814 10.6629 15.1198 10.6241C15.1582 10.5853 15.2039 10.5545 15.2542 10.5333C15.3045 10.5122 15.3585 10.5011 15.4131 10.5009C15.4264 10.5001 15.4398 10.5001 15.4531 10.5009C16.4857 10.6055 17.4504 11.0634 18.1844 11.7973C18.9183 12.5311 19.3763 13.4958 19.4811 14.5283C19.4912 14.6379 19.4573 14.747 19.387 14.8317C19.3167 14.9163 19.2156 14.9695 19.106 14.9797C19.0929 14.9805 19.0797 14.9805 19.0665 14.9797L19.0638 14.9851ZM1.10967 8.99656C1.30426 8.99656 1.46425 9.09008 1.50209 9.3825C1.59783 11.2357 2.3765 12.9879 3.68788 14.3008C4.99927 15.6138 6.75043 16.3946 8.60355 16.4926C8.71029 16.4982 8.81086 16.5444 8.88456 16.6218C8.95826 16.6992 8.99948 16.8019 8.99975 16.9088V17.6115C8.99975 17.751 8.92354 17.9872 8.63166 17.9969C6.38302 17.9052 4.25013 16.9752 2.6527 15.39C1.05526 13.8047 0.108943 11.679 -3.74101e-05 9.43115C-0.00220987 9.37653 0.00639967 9.32201 0.0252995 9.27071C0.0441993 9.21942 0.0730191 9.17235 0.110113 9.13219C0.147207 9.09204 0.191848 9.05958 0.241486 9.03668C0.291125 9.01378 0.344789 9.00088 0.399413 8.99873H0.41671L1.10967 8.99656ZM9.00138 15.3208C9.00123 15.3756 8.99029 15.4299 8.96916 15.4806C8.94803 15.5312 8.91713 15.5772 8.87823 15.6159C8.83933 15.6546 8.79319 15.6852 8.74245 15.7061C8.6917 15.727 8.63734 15.7376 8.58247 15.7375H8.5549C6.92068 15.6297 5.38123 14.932 4.2229 13.7742C3.06457 12.6164 2.36622 11.0772 2.25775 9.44304C2.25385 9.38834 2.26077 9.33341 2.27811 9.28139C2.29546 9.22937 2.32289 9.18127 2.35883 9.13986C2.39477 9.09844 2.43853 9.06452 2.48759 9.04002C2.53665 9.01553 2.59006 9.00094 2.64477 8.99711H3.3588C3.4583 8.99193 3.55582 9.0262 3.63021 9.09248C3.70459 9.15877 3.74982 9.25172 3.75609 9.35115C3.84141 10.614 4.37956 11.8036 5.27167 12.7015C6.16378 13.5994 7.34994 14.1452 8.6122 14.2386C8.71703 14.2455 8.81535 14.2919 8.88729 14.3684C8.95924 14.445 8.99943 14.546 8.99975 14.651L9.00138 15.3208ZM4.93498 8.99656H5.62145C5.90307 8.99656 6.00415 9.24088 6.01874 9.3598C6.10013 10.0243 6.40108 10.6426 6.87384 11.1167C7.3466 11.5907 7.96411 11.8933 8.62841 11.9765C8.73029 11.988 8.82439 12.0366 8.89285 12.1129C8.9613 12.1892 8.99934 12.288 8.99975 12.3905V13.0624C8.9999 13.1726 8.95643 13.2783 8.87884 13.3565C8.80125 13.4347 8.69586 13.479 8.58571 13.4797C8.5722 13.4797 8.55922 13.4797 8.54625 13.4797C7.51358 13.375 6.54873 12.9169 5.81473 12.183C5.08073 11.4491 4.62258 10.4843 4.5177 9.45169C4.51265 9.39713 4.51845 9.34212 4.53477 9.28982C4.55109 9.23751 4.5776 9.18896 4.61277 9.14695C4.64795 9.10494 4.69109 9.07031 4.73971 9.04506C4.78833 9.01981 4.84147 9.00443 4.89607 8.99981C4.90904 8.99981 4.92201 8.99981 4.93552 8.99981L4.93498 8.99656ZM9.00354 22.8882C9.00354 22.6936 9.09705 22.5336 9.38948 22.4963C11.242 22.4004 12.9935 21.622 14.3063 20.3114C15.6191 19.0007 16.4002 17.2505 16.499 15.398C16.5043 15.2912 16.5504 15.1904 16.6279 15.1165C16.7054 15.0427 16.8082 15.0014 16.9152 15.0013H17.6179C17.7568 15.0013 17.9931 15.0775 18.0033 15.3699C17.911 17.6184 16.9807 19.7509 15.3953 21.3479C13.8099 22.9449 11.6842 23.8908 9.4365 23.9995C9.32617 24.0036 9.21871 23.9638 9.13766 23.8888C9.05661 23.8138 9.00858 23.7098 9.00408 23.5995V22.8882H9.00354ZM15.3277 14.9964C15.3826 14.9964 15.4369 15.0073 15.4876 15.0283C15.5382 15.0494 15.5843 15.0802 15.623 15.1191C15.6617 15.1579 15.6924 15.2041 15.7132 15.2548C15.7341 15.3056 15.7447 15.3599 15.7445 15.4148C15.7445 15.424 15.7445 15.4332 15.7445 15.4429C15.6373 17.0779 14.9396 18.6182 13.7814 19.7771C12.6232 20.936 11.0833 21.6346 9.44839 21.7428C9.33776 21.7502 9.2287 21.7135 9.14511 21.6406C9.06152 21.5678 9.01022 21.4647 9.00246 21.3541C9.00246 21.3449 9.00246 21.3358 9.00246 21.3266V20.6417C8.99727 20.5424 9.03139 20.445 9.09745 20.3707C9.16351 20.2963 9.25618 20.251 9.35542 20.2444C10.6182 20.1593 11.8078 19.6213 12.7058 18.7294C13.6037 17.8375 14.1497 16.6516 14.2434 15.3894C14.2501 15.2845 14.2965 15.186 14.373 15.114C14.4496 15.0419 14.5507 15.0016 14.6558 15.0013L15.3277 14.9964ZM9.00354 19.0623V18.378C9.00354 18.0969 9.2484 17.9953 9.36731 17.9812C10.0318 17.8998 10.6501 17.5988 11.1241 17.126C11.5981 16.6533 11.9007 16.0358 11.984 15.3716C11.9958 15.2697 12.0444 15.1756 12.1208 15.1072C12.1972 15.0388 12.296 15.0007 12.3986 15.0002H13.0705C13.1806 14.9998 13.2864 15.0431 13.3647 15.1206C13.4429 15.1982 13.4872 15.3036 13.4878 15.4137C13.4878 15.4274 13.4878 15.4409 13.4878 15.4543C13.3827 16.4868 12.9244 17.4514 12.1905 18.1852C11.4565 18.9189 10.4918 19.3769 9.4592 19.4817C9.40466 19.4867 9.34967 19.4809 9.2974 19.4645C9.24513 19.4482 9.1966 19.4217 9.15461 19.3865C9.11262 19.3513 9.07799 19.3082 9.05271 19.2596C9.02744 19.211 9.01201 19.1579 9.00732 19.1034C9.00652 19.0902 9.00652 19.0771 9.00732 19.0639L9.00354 19.0623Z" fill="#FF5C00"/>
</g>
<defs>
<clipPath id="clip0">
<rect width="24" height="23.9995" fill="white"/>
</clipPath>
</defs>
</svg>
