<svg width="24" height="24" viewBox="0 0 24 24" fill="none" xmlns="http://www.w3.org/2000/svg">
<path d="M12 24C18.6274 24 24 18.6274 24 12C24 5.37258 18.6274 0 12 0C5.37258 0 0 5.37258 0 12C0 18.6274 5.37258 24 12 24Z" fill="#5BC1D4"/>
<path fill-rule="evenodd" clip-rule="evenodd" d="M10.3387 12.696L9.10125 13.989C8.8785 14.2215 8.66025 14.4563 8.43675 14.6873C8.39925 14.7263 8.346 14.7495 8.30025 14.7803C8.20275 14.7645 8.12775 14.7038 8.115 14.6153C8.09429 14.4806 8.07579 14.3455 8.0595 14.2103C8.037 14.0318 7.98225 13.9823 7.8015 13.9598C7.42875 13.9148 7.05675 13.866 6.684 13.8173L5.8335 13.707C5.664 13.6845 5.6025 13.563 5.691 13.4183C5.895 13.0898 6.1005 12.7628 6.30525 12.4358L7.55775 10.4348C7.60725 10.3538 7.66275 10.2983 7.76925 10.3013C7.83675 10.3028 7.90725 10.2863 7.974 10.269C8.0535 10.2495 8.11575 10.2735 8.17125 10.326C8.2695 10.4183 8.36925 10.5098 8.46675 10.6028L9.59775 11.676C9.8415 11.907 10.0875 12.1365 10.3312 12.3675C10.4572 12.486 10.4573 12.5715 10.3387 12.696ZM18.6562 14.4353C18.7268 14.4938 18.8032 14.5493 18.8182 14.649C18.837 14.7765 18.786 14.8688 18.678 14.9385C18.0405 15.351 17.403 15.7658 16.7655 16.179L15.5333 16.9778C15.4944 17.0024 15.4573 17.0297 15.4222 17.0595C15.3912 17.085 15.3665 17.1174 15.3503 17.1541C15.334 17.1908 15.3265 17.2309 15.3285 17.271C15.3345 17.4248 15.3435 17.5785 15.3458 17.7315C15.348 17.9078 15.2183 18.018 15.0413 17.9978C14.9775 17.9893 14.9196 17.9562 14.88 17.9055C14.7318 17.7345 14.5838 17.5632 14.436 17.3918C14.2507 17.1773 14.0662 16.9613 13.8802 16.7475C13.8419 16.7092 13.8129 16.6627 13.7954 16.6115C13.7778 16.5603 13.7722 16.5057 13.779 16.452L13.8045 15.5558C13.8075 15.4508 13.8698 15.3833 13.9537 15.3293L14.9722 14.6783C15.5422 14.3145 16.1138 13.9523 16.6823 13.5848C16.8022 13.5075 16.914 13.4843 17.046 13.5518C17.1435 13.6013 17.2537 13.6103 17.3595 13.5773C17.5177 13.527 17.6392 13.5713 17.7615 13.6793C18.054 13.9373 18.3577 14.1833 18.657 14.4353H18.6562ZM13.1827 15.1793C13.229 15.2245 13.262 15.2816 13.278 15.3443C13.3057 15.4845 13.2502 15.5798 13.1182 15.6435C12.6795 15.855 12.2415 16.0688 11.799 16.2735C11.7195 16.3095 11.6198 16.314 11.529 16.3185C11.1623 16.335 10.7955 16.3448 10.4288 16.3598C10.212 16.368 9.996 16.3815 9.7965 16.392H9.6495C9.61625 16.3928 9.58317 16.387 9.55224 16.3747C9.52132 16.3625 9.49318 16.3441 9.4695 16.3208C9.423 16.278 9.375 16.2368 9.32925 16.1933C9.07125 15.948 8.81775 15.6983 8.5545 15.4583C8.4075 15.3248 8.40525 15.1455 8.5455 15.0023C8.86125 14.6768 9.17325 14.3483 9.48675 14.0198C9.825 13.6658 10.1633 13.3103 10.5008 12.9548C10.5264 12.9246 10.5579 12.9001 10.5933 12.8826C10.6288 12.8651 10.6675 12.855 10.707 12.8531C10.7465 12.8511 10.7859 12.8572 10.823 12.8711C10.86 12.885 10.8938 12.9063 10.9222 12.9338L12.2723 14.2755C12.5753 14.577 12.8812 14.8755 13.1827 15.1793ZM15.0413 9.1425C14.8965 8.919 15.06 8.61 15.3007 8.57025C15.9442 8.463 16.5855 8.34 17.2283 8.22825C17.37 8.2035 17.4825 8.26875 17.5605 8.38575C17.6955 8.58825 17.8282 8.7915 17.9618 8.99475C18.2437 9.42225 18.5265 9.84975 18.8055 10.2788C18.843 10.3365 18.8618 10.4063 18.8895 10.47L18.873 10.4775C18.8684 10.587 18.8278 10.6919 18.7575 10.776C18.3645 11.304 17.967 11.8298 17.5748 12.3585C17.5377 12.4054 17.4898 12.4426 17.4352 12.4668C17.3806 12.4911 17.3209 12.5016 17.2612 12.4975C17.2016 12.4935 17.1439 12.4749 17.0931 12.4435C17.0422 12.4121 16.9998 12.3688 16.9695 12.3173C16.3958 11.3648 15.816 10.4153 15.2385 9.465C15.1733 9.357 15.1095 9.2475 15.0413 9.1425ZM13.9125 11.7915L13.8 12.7928C13.7685 13.0703 13.7347 13.3463 13.7032 13.6238L13.5922 14.5988C13.5847 14.667 13.584 14.7368 13.5697 14.8028C13.5623 14.835 13.5382 14.8763 13.5112 14.8868C13.4842 14.8973 13.4362 14.8823 13.4122 14.862C13.3057 14.7698 13.2045 14.6723 13.1025 14.5755C12.735 14.2275 12.3698 13.8788 12.0023 13.5323C11.6828 13.23 11.3625 12.93 11.0415 12.63C10.935 12.531 10.9342 12.4995 11.037 12.3923L12.5055 10.8548L13.5082 9.80175L14.0002 9.28425C14.0145 9.26925 14.0265 9.249 14.0438 9.243C14.079 9.23025 14.1225 9.213 14.1532 9.22275C14.1788 9.23175 14.1908 9.2775 14.1982 9.29025L14.1232 9.95025L14.0265 10.7985L13.9125 11.7915ZM16.767 12.5565C16.815 12.6338 16.8225 12.7073 16.77 12.7875C16.7128 12.8775 16.6884 12.9846 16.701 13.0905C16.71 13.185 16.671 13.2428 16.5907 13.293C15.963 13.6913 15.3383 14.0925 14.7128 14.493C14.5163 14.619 14.3197 14.7443 14.1225 14.8688C14.0445 14.9183 13.9643 14.9145 13.9215 14.8515C13.8975 14.817 13.8945 14.769 13.8878 14.745L13.9703 14.139L14.154 12.8025L14.3565 11.34L14.5538 9.90975L14.6287 9.37725C14.6302 9.363 14.631 9.3465 14.6385 9.336C14.658 9.31125 14.6798 9.2745 14.7045 9.27C14.7315 9.2655 14.7735 9.2865 14.7908 9.30975C14.8365 9.37125 14.8733 9.4395 14.9137 9.5055L16.38 11.9175C16.509 12.1305 16.6365 12.3443 16.767 12.5558V12.5565ZM13.7272 8.8785C13.7505 8.8935 13.7955 8.90925 13.8195 8.9415C13.8563 8.991 13.824 9.0375 13.7858 9.07725L13.2758 9.6135L11.7892 11.169C11.4787 11.4953 11.1698 11.823 10.8593 12.1485C10.7467 12.2655 10.6568 12.2655 10.5398 12.1545C10.1775 11.811 9.81525 11.466 9.45225 11.1233C9.09975 10.7903 8.74575 10.458 8.39175 10.1258C8.3445 10.0808 8.307 10.032 8.31225 9.963C8.31975 9.86925 8.37375 9.816 8.481 9.798C8.67675 9.76275 8.87325 9.72825 9.06975 9.6945L10.956 9.3645L13.1835 8.97375L13.7272 8.8785ZM8.673 9.3525C9.0225 9.11325 9.372 8.8755 9.72225 8.63775L13.1047 6.33375C13.2172 6.25725 13.2885 6.273 13.3447 6.3945C13.578 6.894 13.8097 7.39425 14.0422 7.8945C14.0722 7.959 14.1007 8.02425 14.1315 8.0895C14.1562 8.142 14.1398 8.18475 14.1083 8.232C14.0673 8.28992 14.0326 8.35201 14.0048 8.41725C13.98 8.4795 13.9425 8.51325 13.875 8.52525C13.377 8.61375 12.8798 8.70525 12.3825 8.79375L10.617 9.111L8.6895 9.4575C8.6625 9.462 8.63475 9.4575 8.607 9.4575L8.5905 9.42675C8.61825 9.402 8.643 9.3735 8.673 9.3525ZM5.1555 10.497C4.935 10.4925 4.80375 10.278 4.9095 10.0808C4.99875 9.91425 5.09775 9.75375 5.19375 9.591C5.46975 9.11925 5.74725 8.649 6.02175 8.17725C6.06654 8.10022 6.13133 8.03673 6.20925 7.9935C6.94125 7.57275 7.67175 7.14975 8.40375 6.72825C8.45022 6.69982 8.5012 6.67953 8.5545 6.66825C8.60447 6.65839 8.65623 6.66336 8.7034 6.68255C8.75058 6.70174 8.79111 6.73431 8.82 6.77625C8.85195 6.81724 8.87136 6.86659 8.87589 6.91836C8.88041 6.97013 8.86986 7.0221 8.8455 7.068C8.73525 7.3035 8.6205 7.53675 8.508 7.77075C8.298 8.19975 8.088 8.628 7.88025 9.05775C7.86057 9.10525 7.82993 9.14741 7.79082 9.18079C7.75171 9.21416 7.70525 9.23779 7.65525 9.24975C7.56221 9.27194 7.47712 9.3194 7.40935 9.3869C7.34159 9.45439 7.2938 9.53931 7.27125 9.63225C7.25986 9.67815 7.23661 9.72025 7.20384 9.75434C7.17107 9.78843 7.12991 9.81332 7.0845 9.8265C6.483 10.038 5.88225 10.254 5.2815 10.4678C5.241 10.4828 5.19825 10.4873 5.15625 10.4978L5.1555 10.497ZM8.27025 9.1275C8.27323 9.09621 8.28187 9.06571 8.29575 9.0375L9.08175 7.31475C9.24525 6.95625 9.411 6.5985 9.57225 6.23925C9.60975 6.15675 9.6645 6.1155 9.7575 6.11175C10.0028 6.10425 10.248 6.0915 10.4932 6.08175L11.9407 6.027C12.1102 6.0195 12.2805 6.00825 12.4507 6C12.5722 5.99475 12.6555 6.06825 12.6562 6.1875C12.6615 6.26025 12.615 6.3075 12.555 6.34875L12.0915 6.6645L9.321 8.54925L8.436 9.15225C8.41536 9.16786 8.39326 9.18142 8.37 9.19275C8.3175 9.21525 8.26725 9.18375 8.27025 9.1275ZM7.248 10.365C7.12575 10.5623 7.002 10.758 6.879 10.9545C6.41925 11.6895 5.9595 12.4253 5.499 13.1595C5.48001 13.1947 5.45456 13.226 5.424 13.2518C5.3445 13.3088 5.23875 13.269 5.20125 13.1693C5.14125 13.0088 5.08425 12.8468 5.0265 12.6855L4.52475 11.274C4.51275 11.2388 4.5045 11.2028 4.5 11.1855C4.50075 11.0903 4.53225 11.0498 4.6215 11.0205C4.8885 10.9343 5.1555 10.8495 5.4225 10.7648L6.93375 10.2848L7.1325 10.2233C7.17975 10.2083 7.227 10.188 7.266 10.2405C7.30125 10.2878 7.272 10.3268 7.248 10.365ZM19.3365 12.3218L19.488 13.1888C19.4925 13.2165 19.4955 13.245 19.5 13.2818C19.4925 13.3193 19.4842 13.3643 19.4722 13.4078L19.2735 14.1248C19.2165 14.331 19.053 14.3798 18.888 14.2403C18.5498 13.9553 18.21 13.6703 17.8702 13.3868C17.793 13.3223 17.7607 13.248 17.7787 13.146C17.8008 13.0444 17.7886 12.9385 17.7443 12.8445C17.6978 12.7523 17.7128 12.6705 17.7735 12.5895C18.051 12.2175 18.3263 11.844 18.603 11.472L18.7717 11.244C18.828 11.1668 18.9023 11.1293 18.9967 11.1503C19.0958 11.1728 19.1468 11.2403 19.1632 11.337L19.3358 12.3218H19.3365ZM13.6635 6.36375L13.6485 6.33225C13.6283 6.28725 13.62 6.23475 13.6658 6.20925C13.7059 6.19125 13.7513 6.18859 13.7933 6.20175C13.8593 6.222 13.9185 6.2595 13.9808 6.29025L16.5023 7.5495L16.95 7.7745C17.0002 7.79925 17.04 7.8285 17.0295 7.8915C17.019 7.95375 16.9718 7.96725 16.917 7.977C16.311 8.085 15.7058 8.1945 15.1005 8.30325L15.0413 8.31525C15.024 8.304 14.991 8.29125 14.97 8.26725C14.9161 8.19943 14.8482 8.14402 14.7709 8.10481C14.6936 8.06559 14.6088 8.04349 14.5223 8.04C14.4548 8.037 14.4203 7.99725 14.3948 7.941C14.2883 7.71 14.1795 7.4805 14.0723 7.25025L13.6635 6.36375Z" fill="white"/>
</svg>
