<svg width="24" height="24" viewBox="0 0 24 24" fill="none" xmlns="http://www.w3.org/2000/svg">
<path d="M11.9914 0.068573C5.40854 0.068573 0.0685425 5.41714 0.0685425 12C0.0685425 18.5829 5.41711 23.9314 12 23.9314C18.5828 23.9314 23.9314 18.5914 23.9314 12C23.9314 5.40857 18.5828 0.068573 11.9914 0.068573Z" fill="#0066CC"/>
<path d="M11.9914 21.6943C17.3454 21.6943 21.6857 17.354 21.6857 12C21.6857 6.64599 17.3454 2.30571 11.9914 2.30571C6.6374 2.30571 2.29712 6.64599 2.29712 12C2.29712 17.354 6.6374 21.6943 11.9914 21.6943Z" fill="#002352"/>
<path d="M14.9828 7.14L15.3257 6.24857C15.36 6.15428 15.2914 6.06 15.1971 6.06H13.92L13.5086 7.11428H12.9428L13.2686 6.24857C13.3028 6.15428 13.2343 6.06 13.14 6.06H11.8628L11.4686 7.11428H7.4657C7.2857 7.11428 7.11427 7.21714 7.01998 7.37143L6.0257 9.12857H13.4914C13.74 9.12857 13.98 9.17143 14.2114 9.26571C14.6571 9.44571 15.18 9.85714 15.0428 10.7829C14.8286 12.3343 13.2428 15.0771 9.81427 15.12L11.5886 10.5086C11.6571 10.32 11.52 10.1229 11.3143 10.1229H8.93998L6.06855 17.1686C6.06855 17.1686 6.64284 17.2371 7.55141 17.2371L7.25998 17.9743H8.57141C8.67427 17.9743 8.76855 17.9143 8.80284 17.8114L9.05141 17.1771C9.24855 17.16 9.43712 17.1343 9.64284 17.1171L9.31713 17.9743H10.6286C10.7314 17.9743 10.8257 17.9143 10.86 17.8114L11.2371 16.8429C13.3886 16.3543 15.6857 15.2829 17.0657 13.0371C19.8343 8.51143 16.9628 7.34571 14.9828 7.14Z" fill="white"/>
</svg>
