<svg width="24" height="24" viewBox="0 0 24 24" fill="none" xmlns="http://www.w3.org/2000/svg">
<path d="M12 24C18.6274 24 24 18.6274 24 12C24 5.37258 18.6274 0 12 0C5.37258 0 0 5.37258 0 12C0 18.6274 5.37258 24 12 24Z" fill="#F4D029"/>
<path fill-rule="evenodd" clip-rule="evenodd" d="M9.375 8.25V10.5H4.125V8.25H9.375ZM10.125 8.25H11.625V15.75H4.125V11.25H10.125V8.25ZM5.625 12.75V14.25H10.125V12.75H5.625ZM19.875 9.75H13.875V14.25H18.375V12.75H15.375V11.25H19.875V15.75H12.375V8.25H19.875V9.75Z" fill="white"/>
</svg>
