<svg width="24" height="24" viewBox="0 0 24 24" fill="none" xmlns="http://www.w3.org/2000/svg">
<path fill-rule="evenodd" clip-rule="evenodd" d="M11.9698 0C18.6196 0 23.9395 5.38035 23.9395 11.9698C23.9395 18.6196 18.5592 23.9395 11.9698 23.9395C5.38035 24 0 18.6196 0 11.9698C0 5.38035 5.38035 0 11.9698 0Z" fill="url(#paint0_linear)"/>
<path fill-rule="evenodd" clip-rule="evenodd" d="M5.4408 5.68262H12.5743C15.4761 5.68262 18.4383 7.73803 18.4383 11.9093C18.4383 16.0806 15.4761 18.136 12.5743 18.136H7.31485V11.4257H10.398V15.1133H12.4534C13.7834 15.1133 15.3552 13.602 15.3552 11.9093C15.3552 10.2166 13.8438 8.70529 12.4534 8.70529H9.068C7.55667 8.70529 6.3476 7.67758 5.4408 5.68262Z" fill="white"/>
<defs>
<linearGradient id="paint0_linear" x1="23.9728" y1="23.9728" x2="-1.05071e-06" y2="1.05071e-06" gradientUnits="userSpaceOnUse">
<stop stop-color="#4B81EB"/>
<stop offset="1" stop-color="#6752F4"/>
</linearGradient>
</defs>
</svg>
