<svg width="24" height="24" viewBox="0 0 24 24" fill="none" xmlns="http://www.w3.org/2000/svg">
<path d="M4.6176 9.042L0.1836 9.8988C0.0612 10.5924 0 11.2956 0 12C0 12.75 0.0696 13.4844 0.2004 14.196L4.6176 14.9676V9.042ZM12 11.01L14.7732 5.5104H9.2268L12 11.01ZM5.5092 9.2268V14.7744L11.01 12L5.5092 9.2268ZM18.1848 8.382L15.618 5.8152L13.0068 10.9932L18.1848 8.382ZM7.7088 5.2272L3.5712 3.5724L5.22 7.716L7.7088 5.2272ZM20.4276 3.5712L16.284 5.22L18.7728 7.7088L20.4276 3.5712ZM18.4896 14.7744V9.2268L12.99 12L18.4896 14.7744ZM20.4288 20.4276L18.78 16.284L16.2912 18.7728L20.4288 20.4276ZM15.8316 4.44L19.7844 2.868C18.432 1.7148 16.8204 0.8556 15.0492 0.3912L15.8316 4.44ZM24 12C24 11.25 23.9304 10.5156 23.7996 9.804L19.3824 9.0324V14.9568L23.8164 14.1C23.9388 13.4076 24 12.7044 24 12ZM19.554 8.1576L23.5848 8.862C23.1156 7.1244 22.266 5.544 21.1308 4.2144L19.554 8.1576ZM7.7148 18.78L5.226 16.2912L3.5724 20.4276L7.7148 18.78ZM19.56 15.8316L21.132 19.7844C22.2852 18.432 23.1444 16.8204 23.6088 15.0492L19.56 15.8316ZM19.7856 21.1308L15.8424 19.554L15.138 23.5848C16.8756 23.1156 18.456 22.266 19.7856 21.1308ZM18.1848 15.618L13.0068 13.008L15.618 18.186L18.1848 15.618ZM9.0324 4.6176H14.9568L14.1 0.1836C13.4076 0.0612 12.7044 0 12 0C11.25 0 10.5156 0.0696 9.804 0.2016L9.0324 4.6176ZM14.9676 19.3824H9.042L9.8988 23.8164C10.5924 23.9388 11.2956 24 12 24C12.75 24 13.4832 23.9304 14.196 23.7996L14.9676 19.3824ZM12 12.99L9.2268 18.4896H14.7744L12 12.99ZM4.2144 2.8692L8.1576 4.446L8.862 0.4152C7.1244 0.8856 5.544 1.734 4.2144 2.8692ZM5.8152 8.382L10.992 10.9932L8.382 5.8152L5.8152 8.382ZM4.44 8.1684L2.868 4.2156C1.7136 5.568 0.8556 7.1796 0.3912 8.9508L4.44 8.1684ZM5.8152 15.6192L8.382 18.186L10.992 13.008L5.8152 15.6192ZM8.1684 19.56L4.2156 21.132C5.568 22.2852 7.1796 23.1444 8.9508 23.6088L8.1684 19.56ZM4.446 15.8424L0.4152 15.138C0.8844 16.8744 1.734 18.456 2.8692 19.7856L4.446 15.8424Z" fill="#3E6492"/>
</svg>
