<svg width="24" height="24" viewBox="0 0 24 24" fill="none" xmlns="http://www.w3.org/2000/svg">
<path d="M12 24C18.6274 24 24 18.6274 24 12C24 5.37258 18.6274 0 12 0C5.37258 0 0 5.37258 0 12C0 18.6274 5.37258 24 12 24Z" fill="#242D3D"/>
<path d="M17.3505 13.1002C16.9372 11.28 15.6525 9.27299 15.6525 9.27299C17.133 13.3132 16.563 16.3605 16.1707 18.0892C16.1707 18.0892 15.6532 20.0227 16.767 18.4117C18.156 16.3957 17.3505 13.1002 17.3505 13.1002Z" fill="white"/>
<path d="M13.6935 5.93324C14.4637 8.67674 14.8125 11.0055 14.9212 12.9472C15.1125 16.2562 14.6077 18.4335 14.2942 19.5832C14.1937 19.9575 14.6122 20.2357 14.856 19.953L14.8605 19.9485C15.4695 19.2517 15.7575 17.6197 15.8925 16.1872L15.9315 15.717C16.0575 13.992 15.984 12.2512 15.579 10.5832C14.8342 7.50524 13.6935 5.93324 13.6935 5.93324ZM12.3135 10.7662C12.126 6.26024 11.7862 2.25899 11.7862 2.25899C11.7862 2.25899 11.4427 6.05999 11.2552 10.4655C11.2252 11.1802 11.1982 11.907 11.1765 12.6382C11.1465 13.701 11.133 14.7682 11.133 15.7995C11.1375 17.6325 11.208 19.3522 11.373 20.724C11.4382 21.2677 12.1432 21.2677 12.2085 20.724C12.3217 19.788 12.387 18.6382 12.4132 17.3752C12.4376 16.0098 12.4319 14.6439 12.396 13.2787C12.3735 12.4425 12.348 11.598 12.3135 10.7662ZM7.04999 16.1955C6.94723 15.3463 6.92363 14.4893 6.97949 13.6357C7.02299 12.9652 7.11899 12.2467 7.28474 11.4802C7.43699 10.779 7.64549 10.0432 7.92899 9.26849C7.92899 9.26849 7.02299 10.6837 6.49199 12.2115C6.38699 12.504 6.30074 12.804 6.23474 13.0957C6.23474 13.0957 6.06524 13.8622 6.03974 14.8852C6.02174 15.5947 6.07799 16.4347 6.30449 17.2275C6.41897 17.6425 6.59061 18.0395 6.81449 18.4072C6.81449 18.4072 7.92899 20.0662 7.41074 18.0847C7.24951 17.4635 7.12876 16.8324 7.04924 16.1955H7.04999Z" fill="white"/>
<path d="M8.63849 15.3075C8.60214 14.4104 8.61666 13.512 8.68199 12.6165C8.72725 11.9554 8.79704 11.2962 8.89124 10.6402C9.08624 9.22949 9.40499 7.66649 9.88874 5.93324C9.88874 5.93324 8.74274 7.50524 7.99874 10.5832C7.95899 10.7482 7.92374 10.914 7.88924 11.0752C7.75424 11.7457 7.66724 12.4252 7.62374 13.113C7.57124 13.9755 7.58474 14.8455 7.64624 15.7125L7.68524 16.1872C7.82024 17.6197 8.10299 19.2517 8.71649 19.9485L8.72099 19.953C8.96474 20.232 9.38699 19.953 9.28349 19.5832C9.05624 18.7342 8.72099 17.3235 8.63849 15.3075Z" fill="white"/>
<path d="M10.5413 15.477C10.5167 14.4787 10.5122 13.48 10.5278 12.4815C10.5368 11.8245 10.554 11.1315 10.5848 10.4047C10.659 8.52824 11.0115 5.81549 11.2553 3.51674C11.2553 3.51674 10.0538 6.00299 9.50478 10.488C9.43128 11.1015 9.36153 11.763 9.30903 12.4777L9.27003 13.0087C9.27003 13.0087 9.20478 13.9575 9.23028 15.2377C9.26553 16.8832 9.44778 19.0777 10.1273 20.5147C10.1498 20.5582 10.1753 20.5972 10.2098 20.6272L10.2143 20.6325C10.4715 20.8762 10.8675 20.6452 10.833 20.2665C10.6733 18.6744 10.5757 17.0767 10.5405 15.477H10.5413ZM13.0313 15.477C13.0538 14.58 13.062 13.5795 13.0448 12.4815C13.0358 11.8245 13.0185 11.1315 12.9878 10.4047C12.9143 8.52824 12.5618 5.81549 12.3173 3.51674C12.3173 3.51674 13.5195 6.00299 14.0678 10.488C14.142 11.1015 14.2118 11.763 14.2635 12.4777L14.3033 13.0087C14.3033 13.0087 14.3685 13.9575 14.3423 15.2377C14.307 16.8832 14.1248 19.0777 13.4453 20.5147C13.4253 20.5572 13.3973 20.5954 13.3628 20.6272L13.3583 20.6325C13.101 20.8762 12.7058 20.6452 12.7403 20.2665C12.8273 19.4437 12.975 17.811 13.0313 15.477Z" fill="white"/>
</svg>
