<svg width="24" height="24" viewBox="0 0 24 24" fill="none" xmlns="http://www.w3.org/2000/svg">
<path fill-rule="evenodd" clip-rule="evenodd" d="M24 12C24 18.6274 18.6274 24 12 24C5.37255 24 0 18.6274 0 12C0 5.37255 5.37255 0 12 0C18.6274 0 24 5.37255 24 12Z" fill="#EB8B2D"/>
<path fill-rule="evenodd" clip-rule="evenodd" d="M12 22.2542C6.34591 22.2542 1.74587 17.6541 1.74587 12C1.74587 6.34588 6.34591 1.74584 12 1.74584C17.6542 1.74584 22.2542 6.34588 22.2542 12C22.2542 17.6541 17.6542 22.2542 12 22.2542ZM12 1.08286C5.98034 1.08286 1.08289 5.98031 1.08289 12C1.08289 18.0197 5.98034 22.9171 12 22.9171C18.0197 22.9171 22.9172 18.0197 22.9172 12C22.9172 5.98031 18.0197 1.08286 12 1.08286Z" fill="#FFFFFE"/>
<path fill-rule="evenodd" clip-rule="evenodd" d="M17.6717 6.86089C17.8931 5.72142 17.1261 4.85457 15.8505 4.8732C13.8215 4.98922 12.4669 6.98917 11.435 9.72372L9.3799 9.26168L9.25679 9.80937L11.241 10.2555C11.0876 10.6923 10.9412 11.1446 10.8008 11.6088C10.6477 12.132 10.5431 12.6389 10.3937 13.4735C9.6514 17.0954 8.66879 18.9735 7.383 18.6507C6.91845 18.5219 7.00198 18.2459 7.3175 18.2282C7.31823 18.2261 7.31763 18.2238 7.31823 18.2218C7.64806 18.1779 7.94077 17.9537 8.05089 17.6163C8.20384 17.1475 7.94773 16.6435 7.47893 16.4906C7.01014 16.3376 6.50614 16.5937 6.35319 17.0625C6.34371 17.0916 6.34046 17.121 6.33403 17.1503C6.3325 17.1467 6.32945 17.1426 6.32819 17.1391C6.10676 18.2786 6.87376 19.1454 8.14941 19.1268C10.6217 18.9855 12.199 16.0129 13.1991 12.3912C13.3361 11.923 13.4345 11.4658 13.5607 10.7771L15.5957 11.2346L15.7189 10.687L13.6693 10.2261C14.4039 6.80135 15.3672 5.03556 16.6169 5.34935C17.0814 5.4781 16.9979 5.7541 16.6824 5.7718C16.6817 5.77386 16.6823 5.77618 16.6817 5.77824C16.3518 5.82206 16.0591 6.04621 15.949 6.38367C15.7961 6.85247 16.0522 7.35653 16.521 7.50942C16.9898 7.66237 17.4938 7.40632 17.6467 6.93753C17.6562 6.90842 17.6594 6.87899 17.6659 6.84975C17.6674 6.85333 17.6704 6.85744 17.6717 6.86089Z" fill="#FFFFFE"/>
</svg>
