<svg width="24" height="24" viewBox="0 0 24 24" fill="none" xmlns="http://www.w3.org/2000/svg">
<g clip-path="url(#clip0)">
<path d="M0 12.1675H10.5222L3.90148 5.60596L0 12.1675Z" fill="url(#paint0_linear)"/>
<path d="M12.0591 2V7.97044L6.08868 2H12.0591Z" fill="url(#paint1_linear)"/>
<path d="M10.5222 12.1675L3.96059 18.7882L0 12.1675H10.5222Z" fill="url(#paint2_linear)"/>
<path d="M12.0591 7.97044L18.0059 2H12.0591V7.97044Z" fill="url(#paint3_linear)"/>
<path d="M24 12.1675L20.0394 5.60596L13.4778 12.1675H24Z" fill="url(#paint4_linear)"/>
<path d="M20.1576 18.7882L13.4778 12.1675H24L20.1576 18.7882Z" fill="url(#paint5_linear)"/>
<path d="M12.0591 16.3645V22.4532H6.08868L12.0591 16.3645Z" fill="url(#paint6_linear)"/>
<path d="M18.0059 22.4532H12.0591V16.3645L18.0059 22.4532Z" fill="url(#paint7_linear)"/>
</g>
<defs>
<linearGradient id="paint0_linear" x1="5.27714" y1="11.0756" x2="5.35596" y2="5.71601" gradientUnits="userSpaceOnUse">
<stop stop-color="#43C465"/>
<stop offset="1" stop-color="#14A53C"/>
</linearGradient>
<linearGradient id="paint1_linear" x1="11.7392" y1="4.97151" x2="6.222" y2="4.73505" gradientUnits="userSpaceOnUse">
<stop stop-color="#33C2F7"/>
<stop offset="1" stop-color="#0F95B2"/>
</linearGradient>
<linearGradient id="paint2_linear" x1="5.34272" y1="18.7796" x2="5.2639" y2="12.3954" gradientUnits="userSpaceOnUse">
<stop stop-color="#43C465"/>
<stop offset="1" stop-color="#14A53C"/>
</linearGradient>
<linearGradient id="paint3_linear" x1="12.7965" y1="4.97313" x2="17.6044" y2="4.89432" gradientUnits="userSpaceOnUse">
<stop stop-color="#03B7F9"/>
<stop offset="1" stop-color="#0F95B2"/>
</linearGradient>
<linearGradient id="paint4_linear" x1="18.7133" y1="11.2824" x2="18.5556" y2="5.84401" gradientUnits="userSpaceOnUse">
<stop stop-color="#43C465"/>
<stop offset="1" stop-color="#14A53C"/>
</linearGradient>
<linearGradient id="paint5_linear" x1="18.8218" y1="19.1299" x2="18.743" y2="12.5092" gradientUnits="userSpaceOnUse">
<stop stop-color="#43C465"/>
<stop offset="1" stop-color="#14A53C"/>
</linearGradient>
<linearGradient id="paint6_linear" x1="11.8677" y1="19.4139" x2="5.9564" y2="19.5716" gradientUnits="userSpaceOnUse">
<stop stop-color="#FFF58E"/>
<stop offset="1" stop-color="#FFCA20"/>
</linearGradient>
<linearGradient id="paint7_linear" x1="12.5436" y1="19.4343" x2="17.0362" y2="19.6708" gradientUnits="userSpaceOnUse">
<stop stop-color="#FEDA5A"/>
<stop offset="1" stop-color="#FFCA20"/>
</linearGradient>
<clipPath id="clip0">
<rect width="24" height="24" fill="white"/>
</clipPath>
</defs>
</svg>
