<svg width="24" height="24" viewBox="0 0 24 24" fill="none" xmlns="http://www.w3.org/2000/svg">
<path d="M11.9798 23.2742C18.294 23.2742 23.4127 18.1555 23.4127 11.8413C23.4127 5.52708 18.294 0.408401 11.9798 0.408401C5.66561 0.408401 0.546936 5.52708 0.546936 11.8413C0.546936 18.1555 5.66561 23.2742 11.9798 23.2742Z" fill="url(#paint0_radial)"/>
<path d="M12.4132 21.1878C17.0406 21.1878 20.7919 17.6736 20.7919 13.3385C20.7919 9.00335 17.0406 5.48906 12.4132 5.48906C7.78575 5.48906 4.03448 9.00335 4.03448 13.3385C4.03448 17.6736 7.78575 21.1878 12.4132 21.1878Z" fill="url(#paint1_linear)"/>
<path d="M12.0591 23.4297C17.0551 23.4297 21.1051 19.6356 21.1051 14.9553C21.1051 10.275 17.0551 6.48084 12.0591 6.48084C7.06319 6.48084 3.01318 10.275 3.01318 14.9553C3.01318 19.6356 7.06319 23.4297 12.0591 23.4297Z" fill="url(#paint2_radial)"/>
<path d="M9.52428 19.679C9.48295 19.6745 8.5062 19.5672 7.99841 19.277C7.91196 19.2276 5.87158 18.0502 5.05611 16.5824C4.3686 15.3448 3.20417 13.1093 3.13059 12.0415C3.06363 11.0709 3.11628 8.99263 3.45944 8.30637C3.48334 8.25861 3.51286 8.19323 3.55025 8.11039C3.77408 7.6145 4.23987 6.58269 5.16468 5.67141C6.31097 4.54192 7.78116 3.96784 9.53441 3.96515C9.54598 3.96501 10.8105 3.94941 12.2332 3.94941C13.0689 3.94941 13.7951 3.95469 14.3914 3.9652C16.2848 3.99842 17.7974 4.15855 18.5173 4.2856L18.6414 4.30725C19.1461 4.39466 19.3349 4.42739 19.3757 4.79483C19.4107 5.10957 19.6917 7.39317 19.6946 7.41621L19.7021 7.47779L17.9577 8.53687H19.8321L20.0169 12.0464L17.9799 13.5338H19.8191L19.1902 17.2701L15.6939 19.2525L9.53273 19.6799L9.52428 19.679Z" fill="url(#paint3_linear)"/>
<path d="M12.2332 4.04541C12.9526 4.04541 13.7163 4.04934 14.3897 4.06115C16.4098 4.09658 17.8982 4.27379 18.5007 4.38011C19.1031 4.48643 19.2449 4.48643 19.2804 4.80539C19.3158 5.12435 19.5993 7.42787 19.5993 7.42787L17.6147 8.63282H19.7411L19.9183 11.9995L17.6856 13.6297H19.7056L19.1032 17.2091L15.6656 19.1582L9.53463 19.5835C9.53463 19.5835 8.54233 19.4772 8.0462 19.1937C7.55007 18.9101 5.84895 17.8116 5.14018 16.5357C4.43141 15.2599 3.29737 13.0627 3.22647 12.035C3.15557 11.0072 3.22647 8.9872 3.54543 8.34928C3.86439 7.71136 5.14013 4.06787 9.53463 4.06115C9.53453 4.06115 10.7947 4.04541 12.2332 4.04541ZM12.2332 3.85341C10.81 3.85341 9.54476 3.86901 9.53218 3.86915C7.75498 3.87184 6.26218 4.45523 5.09732 5.60301C4.15973 6.52687 3.689 7.56971 3.46277 8.07088C3.4273 8.1495 3.39663 8.21738 3.37364 8.26341C3.02271 8.96531 2.96727 11.0681 3.03485 12.0482C3.10978 13.1344 4.28089 15.3844 4.97228 16.6289C5.80057 18.1199 7.86346 19.3104 7.95087 19.3603C8.47585 19.6603 9.47199 19.7699 9.51413 19.7744L9.53098 19.7762L9.54788 19.7751L15.6788 19.3498L15.7223 19.3468L15.7602 19.3252L19.1978 17.3761L19.2773 17.331L19.2925 17.2409L19.895 13.6616L19.9326 13.4377H19.7056H18.2741L20.0314 12.1546L20.1154 12.0933L20.1099 11.9895L19.9327 8.62274L19.9232 8.44082H19.741H18.3009L19.6989 7.59199L19.805 7.52757L19.7898 7.4044C19.787 7.38136 19.5061 5.09834 19.4712 4.78418C19.4224 4.34507 19.1669 4.30082 18.6578 4.21264C18.6189 4.20587 18.5777 4.19877 18.5341 4.19104C17.8107 4.06341 16.2922 3.90251 14.3931 3.8692C13.7963 3.85874 13.0695 3.85341 12.2332 3.85341Z" fill="#692CC2"/>
<path d="M3.33185 12.0429C3.33185 12.0429 3.42785 13.2909 3.93986 14.443C4.45188 15.595 5.70223 17.4169 6.14796 17.8991C6.81132 18.6166 8.10022 19.4575 8.90023 19.5535C9.70025 19.6495 11.8868 19.4971 12.3818 19.4902C12.7034 19.4857 15.3135 19.2222 15.6655 19.1582C16.0176 19.0942 19.0191 17.3757 19.1032 17.2091C19.1719 17.0728 19.2101 16.5741 19.2101 16.5741L16.7648 17.137L9.39862 17.4851C9.15746 17.4948 8.79857 17.4551 8.51498 17.4305C8.15806 17.3996 7.81678 17.3323 7.40225 17.2014C6.95791 17.0611 6.40198 16.7738 5.94804 16.4294C5.30945 15.945 4.54375 15.1843 4.09999 14.091C3.81814 13.3968 3.33185 12.0429 3.33185 12.0429Z" fill="white"/>
<path d="M6.87665 8.66826L7.76263 7.46331C7.76263 7.46331 7.72721 7.14435 9.39281 7.10893C11.0584 7.0735 19.2094 7.35699 19.2094 7.35699L17.5438 8.66826H6.87665Z" fill="url(#paint4_linear)"/>
<path d="M19.493 12.035L17.4021 13.6297L8.15249 13.9133C8.15249 13.9133 7.3374 13.2399 7.19561 12.9742C7.05386 12.7084 6.87665 12.354 6.87665 12.354C6.87665 12.354 16.5161 12.2831 17.4375 12.2476C18.359 12.2122 19.493 12.035 19.493 12.035Z" fill="url(#paint5_linear)"/>
<path d="M18.4298 17.3154C18.4298 17.3154 15.7364 18.9102 15.5238 18.9811C15.3111 19.052 10.1805 19.4062 9.6763 19.4064C9.0259 19.4065 8.22329 19.1937 7.69169 18.8039C7.16009 18.4141 6.34501 17.6344 6.16779 17.3155C5.99057 16.9965 5.49445 16.4295 5.49445 16.4295C5.49445 16.4295 6.69939 17.2092 7.5499 17.4572C8.40046 17.7053 10.1928 17.6491 11.008 17.6137C11.8231 17.5783 18.4298 17.3154 18.4298 17.3154Z" fill="url(#paint6_linear)"/>
<path d="M17.4295 3.25119C17.4295 3.25119 15.539 2.68407 14.3238 2.7111C13.1085 2.73812 11.5422 2.84612 10.732 3.11617C9.92179 3.38622 9.59775 3.54827 9.59775 3.54827C9.59775 3.54827 10.1109 4.16938 10.0569 4.76353C10.0029 5.35767 9.40872 6.05981 8.70658 6.24884C8.00443 6.43786 7.30229 6.54591 6.76215 6.43786C6.222 6.32986 4.97976 5.62767 4.97976 5.62767L4.03455 4.9525C4.03455 4.9525 4.97976 3.65622 6.5461 2.90007C8.11243 2.14393 9.70579 1.49579 11.7042 1.49579C13.7027 1.49579 15.134 1.95491 15.9712 2.35998C16.8083 2.7651 17.4295 3.25119 17.4295 3.25119Z" fill="white"/>
<path d="M4.03448 4.95257C4.03448 4.95257 3.31549 5.86255 3.13314 6.26364C2.95078 6.66478 2.3491 7.83166 2.23971 8.98034C2.13032 10.129 2.11208 11.0192 2.23971 11.6226C2.36734 12.2258 2.58613 13.0646 2.58613 13.0646C2.58613 13.0646 3.33368 9.98321 3.44307 9.23566C3.55246 8.4881 4.08123 6.90185 4.53704 6.35484C4.99285 5.80783 5.41222 5.15148 5.41222 5.15148L4.03448 4.95257Z" fill="url(#paint7_linear)"/>
<path d="M5.41221 5.15137C5.41221 5.15137 4.61498 6.1921 4.44305 6.48073C4.27111 6.76935 3.55971 7.90993 3.51598 8.48799C3.47225 9.06606 3.35187 10.293 3.35187 10.293C3.35187 10.293 4.62818 7.9957 4.9746 7.59457C5.32101 7.19343 6.32383 5.86244 6.32383 5.86244L5.41221 5.15137Z" fill="url(#paint8_linear)"/>
<defs>
<radialGradient id="paint0_radial" cx="0" cy="0" r="1" gradientUnits="userSpaceOnUse" gradientTransform="translate(6.52303 4.78942) scale(12.3418)">
<stop stop-color="#21FFE3"/>
<stop offset="1" stop-color="#8549DF"/>
</radialGradient>
<linearGradient id="paint1_linear" x1="12.7831" y1="21.2003" x2="12.1115" y2="6.92867" gradientUnits="userSpaceOnUse">
<stop stop-color="#21FFE3"/>
<stop offset="1" stop-color="#8549DF"/>
</linearGradient>
<radialGradient id="paint2_radial" cx="0" cy="0" r="1" gradientUnits="userSpaceOnUse" gradientTransform="translate(12.0591 14.9553) scale(10.6974)">
<stop stop-color="#21FFE3"/>
<stop offset="0.1916" stop-color="#23FCE3" stop-opacity="0.8084"/>
<stop offset="0.3419" stop-color="#28F2E3" stop-opacity="0.6581"/>
<stop offset="0.478" stop-color="#31E1E2" stop-opacity="0.522"/>
<stop offset="0.6059" stop-color="#3ECAE2" stop-opacity="0.3941"/>
<stop offset="0.728" stop-color="#4FACE1" stop-opacity="0.272"/>
<stop offset="0.8458" stop-color="#6386E0" stop-opacity="0.1542"/>
<stop offset="0.958" stop-color="#7B5BDF" stop-opacity="0.042"/>
<stop offset="1" stop-color="#8549DF" stop-opacity="0"/>
</radialGradient>
<linearGradient id="paint3_linear" x1="4.26324" y1="6.37928" x2="18.898" y2="14.9812" gradientUnits="userSpaceOnUse">
<stop stop-color="#21FFE3"/>
<stop offset="1" stop-color="#F8FFFB"/>
</linearGradient>
<linearGradient id="paint4_linear" x1="6.87663" y1="7.88707" x2="19.2094" y2="7.88707" gradientUnits="userSpaceOnUse">
<stop stop-color="#692CC2"/>
<stop offset="0.5189" stop-color="#3E5BDE"/>
<stop offset="1" stop-color="#229EE7"/>
</linearGradient>
<linearGradient id="paint5_linear" x1="6.87668" y1="12.9741" x2="19.493" y2="12.9741" gradientUnits="userSpaceOnUse">
<stop stop-color="#692CC2"/>
<stop offset="0.5189" stop-color="#3E5BDE"/>
<stop offset="1" stop-color="#229EE7"/>
</linearGradient>
<linearGradient id="paint6_linear" x1="5.49451" y1="17.9179" x2="18.4298" y2="17.9179" gradientUnits="userSpaceOnUse">
<stop stop-color="#677CF4"/>
<stop offset="0.2764" stop-color="#374CD7"/>
<stop offset="0.3631" stop-color="#3752D8"/>
<stop offset="0.4747" stop-color="#3562DB"/>
<stop offset="0.5999" stop-color="#337CE1"/>
<stop offset="0.7351" stop-color="#30A1E9"/>
<stop offset="0.8766" stop-color="#2DD0F2"/>
<stop offset="1" stop-color="#29FFFC"/>
</linearGradient>
<linearGradient id="paint7_linear" x1="3.90255" y1="6.94476" x2="1.70886" y2="12.5287" gradientUnits="userSpaceOnUse">
<stop stop-color="#F8FFFB"/>
<stop offset="1" stop-color="#F8FFFB" stop-opacity="0"/>
</linearGradient>
<linearGradient id="paint8_linear" x1="4.89842" y1="7.2477" x2="4.53258" y2="12.265" gradientUnits="userSpaceOnUse">
<stop stop-color="#F8FFFB"/>
<stop offset="1" stop-color="#F8FFFB" stop-opacity="0"/>
</linearGradient>
</defs>
</svg>
