<svg width="24" height="24" viewBox="0 0 24 24" fill="none" xmlns="http://www.w3.org/2000/svg">
<path d="M16.5133 9.51842L18.4717 11.0006L19.7101 11.9364L18.3268 12.6397L15.5484 14.058L16.5017 14.7148L17.8327 15.639L16.3912 16.383L7.55627 20.94C9.02532 21.7483 10.6749 22.1722 12.3516 22.1722C17.8445 22.1722 22.2972 17.7199 22.2972 12.2267C22.3024 9.89774 21.4852 7.64169 19.9897 5.85625L16.5133 9.51842Z" fill="#091B26"/>
<path d="M7.78373 15.1775L5.82536 13.6896L4.58697 12.7538L5.97032 12.0505L8.74862 10.632L7.79535 9.9696L6.46433 9.04523L7.90584 8.30124L17.2116 3.50015C15.6355 2.51131 13.8115 1.98933 11.9509 1.99469C6.45809 1.99469 2.00537 6.44702 2.00537 11.9402C2.00537 14.4918 2.97026 16.8227 4.55126 18.5839L7.78373 15.1775Z" fill="#091B26"/>
<path d="M3.79551 19.0824C2.04017 17.1585 0.970644 14.6009 0.970644 11.7993C0.970644 5.82991 5.82991 0.970644 11.7993 0.970644C14.0022 0.970644 16.147 1.63908 17.9548 2.90022L18.9196 2.40036C16.9438 0.895093 14.4731 0 11.7993 0C5.2952 0 0 5.2952 0 11.7993C0 14.8798 1.18578 17.6815 3.12131 19.7854L3.79551 19.0821V19.0824Z" fill="#091B26"/>
<path d="M20.4428 5.11092C22.0529 6.99998 23.0294 9.45285 23.0294 12.1208C23.0294 18.0902 18.1701 22.9494 12.2007 22.9494C10.178 22.9494 8.1959 22.3856 6.48702 21.3161L5.49304 21.8276C7.46352 23.1935 9.8059 23.9204 12.2007 23.9204C18.7048 23.9204 24 18.6252 24 12.121C24 9.17388 22.9131 6.47132 21.1171 4.40206L20.4429 5.1112L20.4428 5.11092Z" fill="#091B26"/>
<path d="M6.47923 12.9655L9.3041 15.1044L2.922 21.8295L15.6106 15.2847L13.3205 13.698L17.5462 11.5357L14.7213 9.39663L21.1034 2.67747L8.41486 9.22229L10.7049 10.8094L6.47923 12.9655Z" fill="#23BEE2"/>
</svg>
