<svg viewBox="0 0 44 44" width='44' height='44' xmlns="http://www.w3.org/2000/svg">
<path d="M12 0C5.37049 0 0 5.37049 0 12C0 18.6295 5.37049 24 12 24C18.6295 24 24 18.6295 24 12C24 5.37049 18.6295 0 12 0Z" fill="#0B223D"/>
<path d="M12.5311 17.1148C11.8033 17.1148 11.1344 16.9771 10.4852 16.7213C9.83607 16.4656 9.26557 16.0525 8.79344 15.5016C8.30164 14.9508 7.96721 14.3016 7.77049 13.5344H6.55082L6.57049 12.7672H7.61311C7.59344 12.5115 7.57377 12.2754 7.57377 12C7.57377 11.7836 7.59344 11.5672 7.59344 11.3312H6.51147L6.53115 10.5246H7.71148C7.82951 10.0328 8.00656 9.6 8.22295 9.20656C8.45902 8.81312 8.71475 8.43935 9.02951 8.16394C9.32459 7.86886 9.65902 7.63279 10.0328 7.43607C10.4066 7.23935 10.7803 7.08197 11.1738 7.00328C11.5672 6.92459 11.9607 6.86558 12.3738 6.86558C13.6721 6.86558 14.7738 7.21968 15.6787 7.92787L15.0098 9.12787C14.2426 8.59673 13.4164 8.34099 12.5115 8.34099C11.8623 8.34099 11.2721 8.53771 10.741 8.91148C10.2098 9.30492 9.83607 9.83607 9.6 10.5246H12.7869L12.7475 11.3312H9.44262C9.42295 11.5475 9.40328 11.7443 9.40328 11.9607C9.40328 12.2361 9.42295 12.4918 9.4623 12.7279H12.5508L12.5115 13.4951H9.65902C9.91475 14.1443 10.2885 14.6557 10.8393 15.0295C11.3902 15.4033 11.9803 15.5803 12.6689 15.5803C13.6525 15.5803 14.5771 15.2459 15.4033 14.5771L15.9738 15.9344C15.0098 16.741 13.8689 17.1148 12.5311 17.1148Z" fill="white"/>
</svg>
