<svg width="24" height="24" viewBox="0 0 24 24" fill="none" xmlns="http://www.w3.org/2000/svg">
<path fill-rule="evenodd" clip-rule="evenodd" d="M22.3761 17.8876L22.246 5.8876L11.9192 12L22.3761 17.8876Z" fill="#BBC3C6"/>
<path fill-rule="evenodd" clip-rule="evenodd" d="M11.9192 12L12.0485 24L22.3761 17.8876L11.9192 12Z" fill="#9DA5A7"/>
<path fill-rule="evenodd" clip-rule="evenodd" d="M22.2461 5.88761L11.7892 0L11.9193 12L22.2461 5.88761Z" fill="#7E878C"/>
<path fill-rule="evenodd" clip-rule="evenodd" d="M1.59167 18.1124L12.0486 24L11.9193 12L1.59167 18.1124Z" fill="#424647"/>
<path fill-rule="evenodd" clip-rule="evenodd" d="M1.46155 6.1124L1.59163 18.1124L11.9192 12L1.46155 6.1124Z" fill="#7F8382"/>
<path fill-rule="evenodd" clip-rule="evenodd" d="M11.7892 0L1.46155 6.11239L11.9192 12L11.7892 0Z" fill="#C3C9C9"/>
<mask id="mask0" mask-type="alpha" maskUnits="userSpaceOnUse" x="10" y="8" width="7" height="8">
<path d="M16.5708 12C16.5708 13.1528 16.1517 14.2077 15.4567 15.0203C15.3933 15.0336 13.604 15.386 12.2486 14.7997C11.2547 14.3691 10.7689 13.3941 10.6058 12.9931C10.9063 13.3908 11.3823 13.6469 11.9192 13.6469C12.293 13.6469 12.6381 13.5217 12.9147 13.3117C13.3199 13.1463 14.2899 12.6604 14.7189 11.6698C15.3052 10.3144 14.9519 8.52507 14.9396 8.46333C15.9376 9.31561 16.5708 10.5837 16.5708 12Z" fill="white"/>
</mask>
<g mask="url(#mask0)">
<path fill-rule="evenodd" clip-rule="evenodd" d="M16.5708 12C16.5708 13.1528 16.1517 14.2077 15.4567 15.0203C15.3933 15.0336 13.604 15.386 12.2486 14.7997C11.2547 14.3691 10.7689 13.3941 10.6058 12.9931C10.9063 13.3908 11.3823 13.6469 11.9192 13.6469C12.293 13.6469 12.6381 13.5217 12.9147 13.3117C13.3199 13.1463 14.2899 12.6604 14.7189 11.6698C15.3052 10.3144 14.9519 8.52507 14.9396 8.46333C15.9376 9.31561 16.5708 10.5837 16.5708 12Z" fill="url(#paint0_linear)"/>
</g>
<mask id="mask1" mask-type="alpha" maskUnits="userSpaceOnUse" x="8" y="10" width="8" height="7">
<path d="M15.4552 15.0212C14.6029 16.0192 13.3348 16.6516 11.9193 16.6516C10.7665 16.6516 9.71083 16.2325 8.8981 15.5367C8.88576 15.4749 8.53331 13.6856 9.11962 12.3302C9.54863 11.3371 10.5219 10.8521 10.9237 10.6883C10.5277 10.9888 10.2724 11.4639 10.2724 12C10.2724 12.373 10.3967 12.7172 10.6059 12.9931C10.769 13.3941 11.2548 14.3691 12.2487 14.7997C13.6041 15.386 15.3934 15.0336 15.4552 15.0212Z" fill="white"/>
</mask>
<g mask="url(#mask1)">
<path fill-rule="evenodd" clip-rule="evenodd" d="M15.4552 15.0212C14.6029 16.0192 13.3348 16.6516 11.9193 16.6516C10.7665 16.6516 9.71083 16.2325 8.8981 15.5367C8.88576 15.4749 8.53331 13.6856 9.11962 12.3302C9.54863 11.3371 10.5219 10.8521 10.9237 10.6883C10.5277 10.9888 10.2724 11.4639 10.2724 12C10.2724 12.373 10.3967 12.7172 10.6059 12.9931C10.769 13.3941 11.2548 14.3691 12.2487 14.7997C13.6041 15.386 15.3934 15.0336 15.4552 15.0212Z" fill="url(#paint1_linear)"/>
</g>
<mask id="mask2" mask-type="alpha" maskUnits="userSpaceOnUse" x="8" y="7" width="8" height="7">
<path d="M14.9396 8.46333C14.952 8.52507 15.3052 10.3144 14.719 11.6698C14.2899 12.6604 13.3199 13.1463 12.9164 13.3109C13.3108 13.0095 13.5661 12.5352 13.5661 12C13.5661 11.6261 13.441 11.2811 13.231 11.0045C13.0655 10.5985 12.5796 9.6293 11.589 9.20028C10.2337 8.61403 8.44437 8.96642 8.38257 8.97882C9.2357 7.98079 10.5038 7.3484 11.9192 7.3484C13.0721 7.3484 14.1261 7.76755 14.9388 8.46169C14.9388 8.46169 14.9388 8.46248 14.9396 8.46333Z" fill="white"/>
</mask>
<g mask="url(#mask2)">
<path fill-rule="evenodd" clip-rule="evenodd" d="M14.9396 8.46333C14.952 8.52507 15.3052 10.3144 14.719 11.6698C14.2899 12.6604 13.3199 13.1463 12.9164 13.3109C13.3108 13.0095 13.5661 12.5352 13.5661 12C13.5661 11.6261 13.441 11.2811 13.231 11.0045C13.0655 10.5985 12.5796 9.6293 11.589 9.20028C10.2337 8.61403 8.44437 8.96642 8.38257 8.97882C9.2357 7.98079 10.5038 7.3484 11.9192 7.3484C13.0721 7.3484 14.1261 7.76755 14.9388 8.46169C14.9388 8.46169 14.9388 8.46248 14.9396 8.46333Z" fill="url(#paint2_linear)"/>
</g>
<path fill-rule="evenodd" clip-rule="evenodd" d="M13.231 11.0045C13.441 11.2811 13.5661 11.6261 13.5661 12C13.5661 12.5352 13.3108 13.0095 12.9164 13.3109C12.6381 13.5217 12.2931 13.6469 11.9192 13.6469C11.3824 13.6469 10.9064 13.3908 10.6059 12.9931C10.3967 12.7172 10.2723 12.373 10.2723 12C10.2723 11.4639 10.5276 10.9888 10.9237 10.6883C11.1995 10.4783 11.5446 10.3531 11.9192 10.3531C12.4536 10.3531 12.9288 10.6075 13.2301 11.0028C13.2301 11.0036 13.2301 11.0036 13.231 11.0045Z" fill="white"/>
<mask id="mask3" mask-type="alpha" maskUnits="userSpaceOnUse" x="7" y="8" width="7" height="8">
<path d="M13.2302 11.0028C12.9289 10.6075 12.4537 10.3531 11.9193 10.3531C11.5446 10.3531 11.1996 10.4783 10.9237 10.6883C10.5219 10.8521 9.54865 11.3371 9.11963 12.3302C8.53332 13.6856 8.88578 15.4749 8.89811 15.5367C7.90014 14.6844 7.26685 13.4163 7.26685 12C7.26685 10.8464 7.68685 9.79155 8.38262 8.97881C8.44442 8.96642 10.2337 8.61403 11.5891 9.20028C12.5797 9.62929 13.0655 10.5985 13.2302 11.0028Z" fill="white"/>
</mask>
<g mask="url(#mask3)">
<path fill-rule="evenodd" clip-rule="evenodd" d="M13.2302 11.0028C12.9289 10.6075 12.4537 10.3531 11.9193 10.3531C11.5446 10.3531 11.1996 10.4783 10.9237 10.6883C10.5219 10.8521 9.54865 11.3371 9.11963 12.3302C8.53332 13.6856 8.88578 15.4749 8.89811 15.5367C7.90014 14.6844 7.26685 13.4163 7.26685 12C7.26685 10.8464 7.68685 9.79155 8.38262 8.97881C8.44442 8.96642 10.2337 8.61403 11.5891 9.20028C12.5797 9.62929 13.0655 10.5985 13.2302 11.0028Z" fill="url(#paint3_linear)"/>
</g>
<defs>
<linearGradient id="paint0_linear" x1="13.5883" y1="8.46332" x2="13.5883" y2="15.1373" gradientUnits="userSpaceOnUse">
<stop stop-color="#F0CE7B"/>
<stop offset="1" stop-color="#FDFDF4"/>
</linearGradient>
<linearGradient id="paint1_linear" x1="12.1185" y1="16.6516" x2="12.1185" y2="10.6882" gradientUnits="userSpaceOnUse">
<stop stop-color="#CE4A28"/>
<stop offset="1" stop-color="#FDFDF4"/>
</linearGradient>
<linearGradient id="paint2_linear" x1="11.7195" y1="7.34839" x2="11.7195" y2="13.3109" gradientUnits="userSpaceOnUse">
<stop stop-color="#F0CE7B"/>
<stop offset="1" stop-color="#FDFDF4"/>
</linearGradient>
<linearGradient id="paint3_linear" x1="8.36846" y1="14.9567" x2="11.6206" y2="9.32377" gradientUnits="userSpaceOnUse">
<stop stop-color="#F0CE7B"/>
<stop offset="1" stop-color="#FDFDF4"/>
</linearGradient>
</defs>
</svg>
