<svg width="24" height="24" viewBox="0 0 24 24" fill="none" xmlns="http://www.w3.org/2000/svg">
<path d="M22.85 2H12.35C11.65 2 11.1 2.55 11.1 3.25V14.05H7.3C6.6 14.05 6 14.55 6 15.2C6 15.85 6.6 16.35 7.3 16.35H12.4C13.1 16.35 13.65 15.8 13.65 15.1V9.55H19.85C20.5 9.55 21 9.05 21 8.4C21 7.75 20.5 7.25 19.85 7.25H13.6V4.3H22.85C23.5 4.3 24 3.8 24 3.15C24 2.5 23.5 2 22.85 2ZM12.45 20.2H7.1C6.45 20.2 5.95 20.7 5.95 21.35C5.95 22 6.45 22.5 7.1 22.5H12.45C13.1 22.5 13.6 22 13.6 21.35C13.6 20.7 13.1 20.2 12.45 20.2ZM6.5 7.25H1.15C0.5 7.25 0 7.75 0 8.4C0 9.05 0.5 9.55 1.15 9.55H6.5C7.15 9.55 7.65 9.05 7.65 8.4C7.65 7.8 7.15 7.25 6.5 7.25Z" fill="#06142E"/>
</svg>
