<svg width="24" height="24" viewBox="0 0 24 24" fill="none" xmlns="http://www.w3.org/2000/svg">
<path d="M20.4627 3.75546C21.0821 4.03188 21.5268 4.86675 21.4667 5.48728C21.3885 6.29337 20.982 6.94281 20.5194 7.56334C19.2609 9.25134 17.6294 10.5354 15.9233 11.7291C14.2001 12.9349 12.3683 13.9616 10.4499 14.8177C9.38959 15.2906 8.29061 15.6867 7.18613 16.0469C6.30788 16.3325 5.41136 16.5584 4.50267 16.7232C3.69359 16.8707 2.85992 16.9371 2.04034 16.7537C1.55652 16.6455 1.07437 16.4857 0.784817 16.0433C0.638787 15.8204 0.554966 15.5532 0.465414 15.2982C0.403086 15.121 0.378966 14.9304 0.32428 14.6857C0.61419 14.955 0.800459 15.2082 1.05061 15.3402C1.37216 15.5099 1.74315 15.671 2.09598 15.6783C2.8875 15.6944 3.70028 15.707 4.46947 15.5497C5.62326 15.3142 6.77395 15.0049 7.87831 14.5975C10.9565 13.4616 13.815 11.8996 16.4328 9.91642C17.6122 9.02281 18.7172 8.04155 19.6357 6.86913C20.0586 6.32931 20.4386 5.75188 20.6011 5.08776C20.6817 4.75797 20.5628 4.37863 20.5294 4.02209C20.5223 3.94699 20.493 3.87379 20.4625 3.75546" fill="#3C7CA8"/>
<path d="M18.5177 2.14316C19.3264 2.4283 20.0634 3.19474 19.8209 4.07737C19.4985 5.2511 18.7612 6.13504 17.9503 6.96991C16.3697 8.59761 14.5221 9.87964 12.5767 11.0298C11.2056 11.8404 9.78195 12.5487 8.30721 13.1434C7.45467 13.4873 6.56153 13.7299 5.68906 14.0246C4.75449 14.3401 3.78685 14.4876 2.81001 14.5565C2.1675 14.6018 1.52822 14.5408 0.922011 14.2688C0.343504 14.0092 0.0668471 13.5635 0.0344889 12.949C0.0220243 12.7199 0.0340325 12.49 0.0703098 12.2634C0.274847 12.7581 0.630071 13.0836 1.10541 13.2567C1.81109 13.5138 2.54016 13.6308 3.29347 13.5077C3.70326 13.4406 4.11771 13.3962 4.52273 13.3078C5.00117 13.2033 5.48177 13.0912 5.94303 12.9301C6.62482 12.6918 7.29443 12.4164 7.96261 12.1405C9.69514 11.4251 11.3189 10.5042 12.8854 9.48143C14.4427 8.46447 15.9258 7.35092 17.219 6.00513C17.8439 5.35462 18.4431 4.67797 18.7615 3.8111C18.9568 3.27928 19.0228 2.75367 18.5811 2.29289C18.5545 2.26495 18.5326 2.23212 18.5107 2.20012C18.5066 2.19415 18.5126 2.18125 18.5177 2.14316Z" fill="#D87E3A"/>
<path d="M1.30185 17.2394C1.38029 17.2764 1.43844 17.2893 1.47677 17.3241C1.87438 17.6833 2.35558 17.7856 2.872 17.8756C3.54901 17.9937 4.20704 17.8768 4.8677 17.8336C5.3711 17.8005 5.86901 17.6437 6.36274 17.5165C6.94901 17.3659 7.53623 17.2117 8.10853 17.0162C8.90209 16.7452 9.6954 16.4654 10.4651 16.1346C12.3035 15.3448 14.0824 14.4307 15.7368 13.3035C16.8521 12.544 17.9124 11.7027 18.9885 10.8868C19.3282 10.6293 19.5704 10.5798 19.7701 10.7888C20.0228 11.053 20.0343 11.4638 19.7466 11.723C19.2839 12.1399 18.8061 12.5428 18.3112 12.9208C16.1897 14.5411 13.893 15.871 11.4658 16.9734C10.0727 17.6061 8.64346 18.1606 7.15486 18.5181C6.23188 18.7397 5.28346 18.8756 4.33874 18.9798C3.66531 19.0542 2.99068 18.9424 2.35486 18.6718C1.7994 18.4353 1.53934 17.9485 1.30471 17.4407C1.28298 17.3939 1.30185 17.3281 1.30185 17.2394Z" fill="#EAB600"/>
<path d="M1.08892 7.31988C1.09572 7.41946 1.12856 7.52573 1.10468 7.61719C0.986349 8.07128 1.2002 8.50436 1.64462 8.63594C2.28486 8.82519 2.93524 8.82603 3.58444 8.6831C4.13119 8.56275 4.68701 8.46615 5.21739 8.29301C6.01739 8.03224 6.81907 7.75857 7.58384 7.41063C9.1805 6.68466 10.6888 5.79916 12.0669 4.70579C12.9952 3.96955 13.8757 3.18866 14.4637 2.13194C14.6618 1.7754 14.7208 1.40155 14.6508 1.01504C14.6258 0.877372 14.4968 0.749133 14.3923 0.638088C14.3096 0.550088 14.1917 0.495163 14.0155 0.375163C14.1693 0.34173 14.2557 0.293014 14.32 0.31367C14.6739 0.426745 15.0435 0.516894 15.3671 0.690626C15.8018 0.923461 15.9363 1.46901 15.7825 1.9434C15.432 3.02519 14.6693 3.80394 13.8708 4.54698C12.4558 5.86364 10.8558 6.92537 9.13393 7.79021C8.0993 8.30961 7.03268 8.77289 5.95411 9.19415C5.33083 9.43749 4.66074 9.57289 4.00187 9.70985C3.4519 9.824 2.88832 9.92 2.32951 9.92776C1.94742 9.93301 1.54611 9.81624 1.18432 9.67486C0.700259 9.48561 0.461812 8.95892 0.593035 8.38436C0.677812 8.01337 0.859065 7.66436 0.996976 7.30531L1.08892 7.31988Z" fill="#3C7CA8"/>
<path d="M16.4463 0.937073C16.8157 1.13457 17.2303 1.27797 17.5441 1.54161C18.0518 1.96812 18.0647 2.45982 17.8122 3.11928C17.3852 4.23462 16.5861 5.08525 15.7298 5.87821C14.0653 7.41946 12.1935 8.67056 10.1796 9.70304C9.1897 10.2105 8.17 10.6633 7.14791 11.1038C6.57573 11.3504 5.97179 11.5239 5.3792 11.7219C5.31173 11.7446 5.2149 11.7343 5.15054 11.7017C4.90863 11.5796 4.83412 11.3648 4.84355 11.104C4.85275 10.8441 4.97645 10.6455 5.21132 10.5765C6.82314 10.1022 8.35388 9.43761 9.83305 8.6474C11.7258 7.63606 13.505 6.46197 15.0596 4.97134C15.733 4.32537 16.344 3.63092 16.7255 2.75821C17.0387 2.04143 17.0044 1.75307 16.4637 1.17648C16.425 1.13528 16.4064 1.07522 16.3788 1.024L16.4463 0.937073Z" fill="#EAB600"/>
<path d="M6.40451 22.5472C6.50553 22.5415 6.59102 22.52 6.66959 22.5349C7.01634 22.6011 7.3595 22.6872 7.70732 22.746C7.86231 22.7723 8.02744 22.7684 8.18445 22.7489C8.75401 22.6784 9.32834 22.6266 9.88834 22.5089C10.4323 22.3945 10.9665 22.2235 11.4955 22.0486C12.2083 21.8129 12.9372 21.6032 13.6138 21.286C14.8705 20.6961 16.1222 20.0853 17.3253 19.3951C19.1858 18.3276 20.9148 17.0721 22.3636 15.4684C22.8838 14.8928 23.3145 14.255 23.6129 13.5349C23.6785 13.3767 23.7221 13.2094 23.8111 13.0579C23.8978 14.209 23.4339 15.1501 22.7197 15.9921C21.3406 17.6183 19.6565 18.8817 17.8319 19.9453C16.5626 20.6853 15.2381 21.3409 13.899 21.9475C13.0453 22.3341 12.122 22.5691 11.2258 22.8591C10.3546 23.1413 9.45263 23.2746 8.54183 23.2958C7.78672 23.3133 7.10207 23.0223 6.45037 22.6611C6.4315 22.6506 6.42911 22.6109 6.40451 22.5472ZM23.2848 8.16573C23.437 8.74842 23.7158 9.29922 23.5194 9.94961C23.1193 11.2734 22.2254 12.2494 21.275 13.1783C19.3884 15.0216 17.2061 16.4577 14.9003 17.7158C14.7126 17.8185 14.5116 17.913 14.3053 17.961C14.0507 18.0199 13.8055 17.9339 13.7212 17.6697C13.6352 17.4012 13.7251 17.1606 13.9942 17.0152C14.2865 16.8572 14.5791 16.6999 14.8672 16.5347C17.2408 15.1747 19.5 13.6595 21.3897 11.6552C22.0345 10.9713 22.6328 10.2438 22.9596 9.34352C23.0587 9.07081 23.0939 8.77445 23.1514 8.48728C23.1717 8.38543 23.1705 8.27952 23.1792 8.1754L23.2849 8.16585L23.2848 8.16573ZM9.75078 2.12C9.80869 2.00299 9.85944 1.90579 9.90517 1.80645C10.0038 1.59272 10.1347 1.38579 10.1879 1.16143C10.2505 0.897552 10.1084 0.77003 9.82469 0.732657C8.94207 0.616119 8.13036 0.883582 7.36666 1.24513C6.5798 1.61767 5.82398 2.06257 5.08965 2.52836C4.54159 2.87606 4.03962 3.29481 3.75019 3.9034C3.55413 4.31582 3.69968 4.57087 4.17072 4.60502C5.03042 4.66746 5.80869 4.37839 6.57634 4.06448C6.97717 3.90054 7.35675 3.68693 7.74386 3.49194C7.98625 3.37015 8.13347 3.4511 8.35019 3.74484C8.5361 3.99678 8.32404 4.08776 8.18505 4.15343C7.43845 4.50586 6.68582 4.84538 5.9275 5.17182C5.27759 5.45194 4.58481 5.58591 3.88057 5.62794C3.64941 5.64179 3.3958 5.57134 3.17896 5.47952C2.80678 5.32179 2.70708 4.90197 2.90338 4.48525C3.19234 3.87152 3.68237 3.42078 4.19257 2.99236C5.26242 2.09349 6.43568 1.36084 7.78004 0.910328C8.21944 0.763224 8.6438 0.551522 9.09419 0.463522C9.62648 0.359642 10.1933 0.262686 10.7205 0.334925C11.4217 0.430925 11.5886 0.908537 11.2116 1.64024C11.1394 1.78018 11.0358 1.90651 10.9349 2.03009C10.7157 2.29839 10.4818 2.35272 10.1504 2.23188C10.0471 2.19451 9.93813 2.17194 9.7509 2.12" fill="#3C7CA8"/>
<path d="M23.3154 15.7247C23.2683 15.8997 23.2385 16.0814 23.1713 16.2484C22.7184 17.3733 21.9257 18.2406 21.0309 19.0245C19.2102 20.6197 17.1455 21.8173 14.9097 22.7231C14.1651 23.0248 13.4088 23.3137 12.6347 23.5222C11.9712 23.7009 11.2771 23.8155 10.5915 23.8478C10.0434 23.8736 9.4875 23.7331 8.9349 23.6663C8.93442 23.6288 8.93371 23.5915 8.93335 23.554C8.98816 23.5323 9.04201 23.4952 9.09789 23.4917C9.25715 23.4812 9.41686 23.4792 9.57633 23.4857C10.4064 23.5235 11.2026 23.3577 12.0018 23.1467C14.3889 22.5167 16.5626 21.4253 18.6321 20.1131C19.9191 19.2968 21.1312 18.3722 22.1513 17.2314C22.5416 16.7947 22.8336 16.2702 23.171 15.7861C23.1919 15.7563 23.2174 15.7298 23.2407 15.7017C23.2656 15.7094 23.2906 15.7173 23.3154 15.7247Z" fill="#EAB600"/>
<path d="M11.2688 0.0853729C11.8074 0.12394 12.3756 0.0678207 12.8775 0.224358C13.5709 0.440836 13.777 0.95391 13.3728 1.75475C12.919 2.65385 12.1827 3.30878 11.4325 3.9434C11.049 4.26794 10.6338 4.55797 10.2136 4.83415C10.0858 4.91833 9.85922 4.9754 9.73886 4.91773C9.57456 4.83893 9.42722 4.65504 9.35797 4.48215C9.32943 4.41122 9.50686 4.23104 9.61982 4.13469C10.2759 3.5754 10.9679 3.05469 11.5907 2.46113C11.8954 2.17087 12.1137 1.76967 12.3053 1.38591C12.5407 0.914268 12.3809 0.419104 11.826 0.361074C11.6362 0.341134 11.4544 0.243343 11.2689 0.181254V0.0853729H11.2688ZM4.35785 21.1974C4.73194 21.2899 5.08334 21.3666 5.42865 21.4646C5.9797 21.6211 6.52632 21.587 7.08059 21.481C7.45791 21.4088 7.84525 21.3887 8.22328 21.3188C8.608 21.2478 8.99259 21.1636 9.36716 21.0507C9.93635 20.8795 10.4975 20.6812 11.0607 20.4896C11.3473 20.3929 11.6316 20.2897 11.9134 20.1799C12.1839 20.0739 12.5327 20.1644 12.6786 20.4048C12.8218 20.6414 12.6645 20.8049 12.4867 20.8916C12.1691 21.0468 11.8343 21.1722 11.4968 21.2794C10.747 21.5182 9.99809 21.7666 9.2357 21.9582C8.22961 22.2113 7.19892 22.3159 6.16334 22.2223C5.50089 22.1626 4.96597 21.7879 4.46531 21.3754C4.41576 21.3346 4.39426 21.2596 4.35785 21.1975V21.1974ZM23.769 10.6486C23.8099 10.8055 23.8692 10.9602 23.8888 11.1196C24.0006 12.0275 23.6663 12.802 23.1525 13.52C22.1626 14.9034 20.8799 15.9823 19.5355 16.9967C19.3748 17.1179 19.2035 17.1903 19.0332 17.0024C18.8833 16.8368 18.8775 16.4722 19.0669 16.294C19.3386 16.0384 19.6405 15.8146 19.9312 15.5792C21.1658 14.5799 22.3503 13.5318 23.1858 12.1544C23.4309 11.7502 23.6592 11.3353 23.6419 10.8359C23.64 10.776 23.6782 10.7147 23.6978 10.6541L23.769 10.6486ZM2.51331 4.87284C2.39462 5.18448 2.26483 5.47606 2.17301 5.7791C2.07618 6.09994 2.26209 6.38746 2.57683 6.49934C3.24943 6.73887 3.912 6.57887 4.57206 6.45373C4.88 6.39546 5.17313 6.25719 5.48143 6.20346C5.57241 6.18758 5.75868 6.31749 5.78698 6.41397C5.90877 6.82949 5.68871 7.18054 5.24453 7.30842C4.41707 7.54675 3.57755 7.72645 2.71032 7.66925C2.47224 7.65349 2.22197 7.59045 2.00824 7.48609C1.53456 7.25516 1.32883 6.77206 1.56453 6.26519C1.78949 5.78125 2.13409 5.35295 2.42877 4.90185C2.43976 4.88513 2.47618 4.8849 2.51331 4.87284Z" fill="#D87E3A"/>
<path d="M2.57907 19.3206C2.81155 19.4436 3.03041 19.5899 3.27077 19.6784C3.53334 19.7754 3.81322 19.8613 4.08964 19.8767C4.63614 19.9069 5.18552 19.8882 5.73358 19.8826C5.84032 19.8814 5.95304 19.8644 6.05226 19.8266C6.54575 19.6393 6.93143 19.8945 7.18265 20.2861C7.28677 20.4482 7.15758 20.6641 6.92677 20.6798C6.17405 20.7309 5.41835 20.8139 4.66719 20.7879C3.76116 20.7567 3.10946 20.2285 2.60892 19.5023C2.58709 19.4693 2.5702 19.4332 2.55877 19.3952C2.55399 19.3802 2.56784 19.3592 2.57907 19.3205V19.3206ZM11.7361 23.9132C11.9868 23.8512 12.2346 23.7715 12.4887 23.7303C14.9766 23.3257 17.1302 22.1565 19.2015 20.8011C19.5311 20.5854 19.8338 20.3291 20.1551 20.1004C20.2327 20.0451 20.3354 20.0248 20.4687 19.9715C20.4449 20.3226 20.2598 20.5102 20.0539 20.6459C19.113 21.2657 18.1915 21.9254 17.2021 22.4574C16.3257 22.9288 15.3838 23.2928 14.4434 23.627C13.5792 23.9342 12.6703 24.0672 11.7361 23.9132Z" fill="#3C7CA8"/>
<path d="M0.36872 9.60812C0.382929 9.74304 0.41266 9.87845 0.408123 10.0128C0.397974 10.3196 0.534451 10.5362 0.778034 10.707C1.15057 10.968 1.24645 11.4747 0.978989 11.8473C0.941377 11.8998 0.761437 11.9126 0.692302 11.8702C0.140302 11.5322 -0.0577873 10.9106 0.13875 10.1981C0.193556 9.99952 0.247049 9.80048 0.301138 9.60167L0.36872 9.60812ZM22.6907 7.37779C22.1817 6.94555 22.087 6.39618 22.0436 5.8148C22.3998 5.97719 22.8014 6.89098 22.6907 7.37779Z" fill="#EAB600"/>
</svg>
