<svg width="24" height="24" viewBox="0 0 24 24" fill="none" xmlns="http://www.w3.org/2000/svg">
<path d="M0 0V24H24V0H0ZM8.256 2.784H10.464V5.088H8.256V2.784ZM2.688 2.784H4.992V5.088H2.688V2.784ZM4.896 8.352V10.656H2.592V8.352H4.896ZM4.32 21.024H3.36V20.16H4.224V21.024H4.32ZM4.992 16.416H2.688V14.208H4.992V16.416ZM9.888 21.024H9.024V20.16H9.888V21.024ZM9.888 15.648H9.024V14.784H9.888V15.648ZM10.56 10.752H8.256V8.448H10.56V10.752ZM15.456 21.024H14.592V20.16H15.456V21.024ZM15.456 15.648H14.592V14.784H15.456V15.648ZM15.456 9.984H14.592V9.12H15.456V9.984ZM16.224 5.088H13.92V2.784H16.224V5.088ZM21.12 21.024H20.256V20.16H21.12V21.024ZM21.12 15.648H20.256V14.784H21.12V15.648ZM21.12 9.984H20.256V9.12H21.12V9.984ZM21.12 4.416H20.256V3.552H21.12V4.416Z" fill="#202944"/>
</svg>
