<svg width="24" height="24" viewBox="0 0 24 24" fill="none" xmlns="http://www.w3.org/2000/svg">
<path fill-rule="evenodd" clip-rule="evenodd" d="M12 13.8011C12 13.8011 10.2 11.574 10.2 8.892C10.2 6.46473 12 4.692 12 4.692C12 4.692 13.8 6.46473 13.8 8.892C13.8 11.574 12 13.8011 12 13.8011ZM12.6966 17.5975C12.7217 17.7862 12.7364 17.9929 12.7364 18.2193C12.7364 18.8002 12.3884 19.4847 12.1707 19.8556C12.0944 19.9865 11.9057 19.9865 11.8293 19.8556C11.6117 19.4847 11.2637 18.8002 11.2637 18.2193C11.2637 17.9427 11.2855 17.6951 11.3215 17.4747C11.4949 16.4133 12 15.9829 12 15.9829C12 15.9829 12.5438 16.446 12.6966 17.5975ZM20.7518 10.764C19.9931 10.7815 18.0011 10.7405 17.0455 10.9375C15.282 11.3013 13.6637 13.092 13.6637 13.092C13.6637 13.092 15.0104 10.8835 14.4546 7.392C14.1366 5.39182 12 2.70109 12 2.70109C12 2.70109 9.86348 5.39182 9.54548 7.392C8.9902 10.8835 10.3364 13.092 10.3364 13.092C10.3364 13.092 8.71802 11.3013 6.95457 10.9375C5.99893 10.7405 4.00748 10.7815 3.24875 10.764C2.10002 10.7373 3.99766 13.0145 4.5273 13.6647C5.45675 14.8053 6.39984 15.3393 6.98075 15.5798C7.09857 15.6289 7.19293 15.4739 7.09475 15.3916C6.12384 14.5806 4.2273 12.4282 4.5273 11.8647C4.75966 11.4284 7.28184 11.61 9.0273 13.0647C9.62893 13.566 11.4 15.1102 11.4 15.1102C11.4 15.1102 11.3913 15.1096 11.3744 15.1091C11.1927 15.1047 10.0675 15.1075 8.64548 15.7647C7.16457 16.4488 6.38184 18.1102 6.38184 18.1102C6.5362 18.2929 8.10384 18.4145 8.67275 18.3284C8.98475 18.2809 9.64257 17.983 10.0778 17.7742C10.1013 17.7627 10.1117 17.742 10.1117 17.7218C10.1117 17.6875 10.0833 17.6536 10.0402 17.6624C9.55311 17.7605 8.80911 17.8931 8.48184 17.8647C8.26693 17.8462 7.7073 17.8031 7.66366 17.592C7.56002 17.0907 8.7453 16.4798 9.19093 16.2284C9.65511 15.9665 11.1409 15.6082 11.37 15.5536C11.3897 15.5488 11.4 15.5465 11.4 15.5465C11.4 15.5465 10.932 16.3205 10.7564 17.4011C10.7362 17.5244 10.7204 17.6509 10.7089 17.7813C10.6975 17.9149 10.6909 18.0524 10.6909 18.192C10.6909 20.083 11.8909 21.3011 11.8909 21.3011H12.1091C12.1091 21.3011 13.3091 20.083 13.3091 18.192C13.3091 18.054 13.3031 17.9187 13.2917 17.7862C13.284 17.6984 13.2742 17.6122 13.2627 17.5276C13.1051 16.3816 12.6 15.5465 12.6 15.5465C12.6 15.5465 14.3062 15.9442 14.8091 16.2284C15.2547 16.4798 16.44 17.0907 16.3364 17.592C16.2928 17.8031 15.7331 17.8462 15.5182 17.8647C15.1909 17.8931 14.4469 17.7605 13.9598 17.6624C13.914 17.6531 13.8846 17.6929 13.8889 17.7289C13.8911 17.7469 13.9015 17.7644 13.9227 17.7742C14.3575 17.983 15.0153 18.2809 15.3273 18.3284C15.8962 18.4145 17.4638 18.2929 17.6182 18.1102C17.6182 18.1102 16.8355 16.4488 15.3546 15.7647C13.8 15.0464 12.6 15.1102 12.6 15.1102C12.6 15.1102 14.3711 13.566 14.9727 13.0647C16.7182 11.61 19.2409 11.4284 19.4727 11.8647C19.7727 12.4282 17.8762 14.5806 16.9053 15.3916C16.8071 15.4739 16.9015 15.6289 17.0193 15.5798C17.6002 15.3393 18.5433 14.8053 19.4727 13.6647C20.0024 13.0145 21.9 10.7373 20.7518 10.764Z" fill="#FDFFFF"/>
<path fill-rule="evenodd" clip-rule="evenodd" d="M19.4727 13.6647C18.5433 14.8053 17.6002 15.3393 17.0193 15.5798C16.9015 15.6289 16.8071 15.4739 16.9053 15.3916C17.8762 14.5806 19.7727 12.4282 19.4727 11.8647C19.2409 11.4284 16.7182 11.61 14.9727 13.0647C14.3711 13.566 12.6 15.1102 12.6 15.1102C12.6 15.1102 13.8 15.0464 15.3545 15.7647C16.8355 16.4488 17.6182 18.1102 17.6182 18.1102C17.4638 18.2929 15.8962 18.4145 15.3273 18.3284C15.0153 18.2809 14.3575 17.983 13.9227 17.7742C13.9015 17.7644 13.8911 17.7469 13.8889 17.7289C13.8845 17.6929 13.914 17.6531 13.9598 17.6624C14.4469 17.7605 15.1909 17.8931 15.5182 17.8647C15.7331 17.8462 16.2927 17.8031 16.3364 17.592C16.44 17.0907 15.2547 16.4798 14.8091 16.2284C14.3062 15.9442 12.6 15.5465 12.6 15.5465C12.6 15.5465 13.1051 16.3816 13.2627 17.5276C13.2742 17.6122 13.284 17.6984 13.2916 17.7862C13.3031 17.9187 13.3091 18.054 13.3091 18.192C13.3091 20.083 12.1091 21.3011 12.1091 21.3011H11.8909C11.8909 21.3011 10.6909 20.083 10.6909 18.192C10.6909 18.0524 10.6975 17.9149 10.7089 17.7813C10.7204 17.6509 10.7362 17.5244 10.7564 17.4011C10.932 16.3205 11.4 15.5465 11.4 15.5465C11.4 15.5465 11.3896 15.5488 11.37 15.5536C11.1409 15.6082 9.65509 15.9665 9.19091 16.2284C8.74527 16.4798 7.56 17.0907 7.66364 17.592C7.70727 17.8031 8.26691 17.8462 8.48182 17.8647C8.80909 17.8931 9.55309 17.7605 10.0402 17.6624C10.0833 17.6536 10.1116 17.6875 10.1116 17.7218C10.1116 17.742 10.1013 17.7627 10.0778 17.7742C9.64255 17.983 8.98473 18.2809 8.67273 18.3284C8.10382 18.4145 6.53618 18.2929 6.38182 18.1102C6.38182 18.1102 7.16455 16.4488 8.64545 15.7647C10.0675 15.1075 11.1927 15.1047 11.3744 15.1091C11.3913 15.1096 11.4 15.1102 11.4 15.1102C11.4 15.1102 9.62891 13.566 9.02727 13.0647C7.28182 11.61 4.75964 11.4284 4.52727 11.8647C4.22727 12.4282 6.12382 14.5806 7.09473 15.3916C7.19291 15.4739 7.09855 15.6289 6.98073 15.5798C6.39982 15.3393 5.45673 14.8053 4.52727 13.6647C3.99764 13.0145 2.1 10.7373 3.24873 10.764C4.00745 10.7815 5.99891 10.7405 6.95455 10.9375C8.718 11.3013 10.3364 13.092 10.3364 13.092C10.3364 13.092 8.99018 10.8835 9.54545 7.392C9.86345 5.39182 12 2.70109 12 2.70109C12 2.70109 14.1365 5.39182 14.4545 7.392C15.0104 10.8835 13.6636 13.092 13.6636 13.092C13.6636 13.092 15.282 11.3013 17.0455 10.9375C18.0011 10.7405 19.9931 10.7815 20.7518 10.764C21.9 10.7373 20.0024 13.0145 19.4727 13.6647ZM12 0C5.37273 0 0 5.37273 0 12C0 18.6273 5.37273 24 12 24C18.6273 24 24 18.6273 24 12C24 5.37273 18.6273 0 12 0Z" fill="#2182A5"/>
<path fill-rule="evenodd" clip-rule="evenodd" d="M12 4.692C12 4.692 10.2 6.46473 10.2 8.892C10.2 11.574 12 13.8011 12 13.8011C12 13.8011 13.8 11.574 13.8 8.892C13.8 6.46473 12 4.692 12 4.692Z" fill="#2182A5"/>
<path fill-rule="evenodd" clip-rule="evenodd" d="M12 15.9829C12 15.9829 11.4949 16.4133 11.3214 17.4747C11.2854 17.6951 11.2636 17.9427 11.2636 18.2193C11.2636 18.8002 11.6116 19.4847 11.8292 19.8556C11.9056 19.9865 12.0943 19.9865 12.1707 19.8556C12.3883 19.4847 12.7363 18.8002 12.7363 18.2193C12.7363 17.9929 12.7216 17.7862 12.6965 17.5975C12.5438 16.446 12 15.9829 12 15.9829Z" fill="#2182A5"/>
</svg>
