<svg width="24" height="24" viewBox="0 0 24 24" fill="none" xmlns="http://www.w3.org/2000/svg">
<path d="M12 24C18.6274 24 24 18.6274 24 12C24 5.37258 18.6274 0 12 0C5.37258 0 0 5.37258 0 12C0 18.6274 5.37258 24 12 24Z" fill="#4096D0"/>
<path d="M19.149 7.5H14.2778L12.8333 11.1225H8.27775V9.25725H12.8333L13.5 7.5H6.6015C6.5161 7.4996 6.43402 7.53309 6.37328 7.59313C6.31254 7.65317 6.27809 7.73485 6.2775 7.82025V11.1218H5.1675L4.5 12.8783H6.2775V16.176C6.2775 16.3545 6.4245 16.5 6.606 16.5H9.94425L10.611 14.7443H8.27775V12.8775H12.0555L10.611 16.5H12.8333L14.3888 12.8775H19.1737C19.3538 12.8775 19.5 12.7335 19.5 12.5557V7.84575C19.4992 7.75339 19.4618 7.66511 19.396 7.60029C19.3302 7.53547 19.2414 7.4994 19.149 7.5ZM17.6115 10.845C17.6115 10.998 17.4862 11.1225 17.331 11.1225H15.0555L15.8333 9.258H17.3295C17.4036 9.2572 17.4749 9.28581 17.5279 9.33755C17.5809 9.38929 17.6113 9.45993 17.6122 9.534L17.6115 10.845Z" fill="white"/>
</svg>
