<svg width="24" height="24" viewBox="0 0 24 24" fill="none" xmlns="http://www.w3.org/2000/svg">
<path d="M12 24C18.6274 24 24 18.6274 24 12C24 5.37258 18.6274 0 12 0C5.37258 0 0 5.37258 0 12C0 18.6274 5.37258 24 12 24Z" fill="url(#paint0_linear)"/>
<path fill-rule="evenodd" clip-rule="evenodd" d="M10.4999 8.01429V10.6286C10.4999 10.8 10.6585 10.9286 10.7999 10.9286H14.9142C15.0557 10.9286 15.2142 11.0571 15.2142 11.2286V12.3429C15.2142 12.4843 15.0857 12.6429 14.9142 12.6429H10.7999C10.6585 12.6429 10.4999 12.8014 10.4999 12.9429V19.0286C10.4999 19.26 10.3714 19.3843 10.1999 19.2857L8.99995 18.4286C8.85852 18.3429 8.78566 18.2571 8.78566 18.0857V12.9429C8.78566 12.8014 8.6228 12.6429 8.48566 12.6429H6.51423C6.3428 12.6429 6.21423 12.4843 6.21423 12.3429V11.2286C6.21423 11.0614 6.3428 10.9286 6.51423 10.9286H8.48566C8.6228 10.9286 8.78566 10.8 8.78566 10.6286V6.3C8.78566 6.12857 8.9228 6 9.06423 6H16.6285C16.7699 6 16.9285 6.15857 16.9285 6.3V7.41429C16.9285 7.55571 16.7999 7.71429 16.6285 7.71429H10.7999C10.6585 7.71429 10.4999 7.87286 10.4999 8.01429Z" fill="white"/>
<defs>
<linearGradient id="paint0_linear" x1="-0.000685215" y1="0.000685215" x2="23.9993" y2="24.0007" gradientUnits="userSpaceOnUse">
<stop stop-color="#AA00FF"/>
<stop offset="1" stop-color="#5500FF"/>
</linearGradient>
</defs>
</svg>
