<svg width="24" height="24" viewBox="0 0 24 24" fill="none" xmlns="http://www.w3.org/2000/svg">
<path fill-rule="evenodd" clip-rule="evenodd" d="M23.8915 11.9457C23.8915 5.34827 18.5432 0 11.9457 0C5.34827 0 0 5.34827 0 11.9457C0 18.5432 5.34827 23.8915 11.9457 23.8915C18.5432 23.8915 23.8915 18.5432 23.8915 11.9457Z" fill="#273E4B"/>
<path fill-rule="evenodd" clip-rule="evenodd" d="M18.1152 12.6292V17.1548H18.1148C17.4961 17.8866 16.7492 18.5073 15.9135 18.9792C14.7087 19.6603 13.3368 20.0203 11.9457 20.0203C9.78887 20.0203 7.76124 19.1803 6.23627 17.6552C4.71115 16.1302 3.87115 14.1025 3.87115 11.9457C3.87115 9.78887 4.71115 7.76124 6.23627 6.23612C7.76124 4.71115 9.78887 3.87115 11.9457 3.87115C13.0809 3.87115 14.1791 4.10236 15.2099 4.55866C16.2049 4.99856 17.0884 5.62599 17.8354 6.42216L16.1065 8.04432C15.0162 6.88219 13.5385 6.24209 11.9457 6.24209C8.80084 6.24209 6.24209 8.80084 6.24209 11.9457C6.24209 15.0906 8.80084 17.6494 11.9457 17.6494C13.4291 17.6494 14.8181 17.0852 15.8636 16.094V14.6129H9.33257V12.6292H18.1152Z" fill="#FFFFFE"/>
<path fill-rule="evenodd" clip-rule="evenodd" d="M9.3324 11.2888H18.1151V9.30529H9.3324V11.2888Z" fill="#FFFFFE"/>
</svg>
