<svg width="24" height="24" viewBox="0 0 24 24" fill="none" xmlns="http://www.w3.org/2000/svg">
<path d="M10.8192 9.2039C12.5947 8.4546 13.7448 6.71055 13.7344 4.7835C13.7508 2.14762 11.6279 0 9.03471 0C6.42634 0 4.30692 2.14762 4.30692 4.7835C4.30521 6.15925 4.89423 7.46952 5.92434 8.38143L3.4425 10.0401C3.4425 10.0401 8.42061 10.4734 10.8192 9.2039Z" fill="url(#paint0_linear)"/>
<path d="M20.9027 14.4337C18.5323 13.583 15.2266 15.2287 15.2266 15.2287C15.2266 15.2287 17.7786 11.8116 17.7229 6.76332C17.6954 3.06774 16.3846 1.86842 15.3799 0.976503C15.4641 1.48334 15.5061 1.99626 15.5058 2.51003C15.5058 7.86498 12.1871 11.4629 6.84585 11.4629C4.62809 11.4629 2.59256 11.4492 0.960693 10.2079C0.988888 10.2918 1.22545 11.3082 2.17376 12.3693C2.66784 12.9168 3.25299 13.3747 3.90327 13.7226C6.3019 15.0189 8.14281 15.173 8.32367 15.1867C8.33811 15.2005 8.33811 15.2287 8.35187 15.2424C8.35187 17.9058 6.48276 21.7128 3.83313 21.7128C3.4396 21.7096 3.0476 21.6634 2.66407 21.5752C2.05718 21.4577 1.48445 21.2053 0.988201 20.8367C0.988201 20.8367 1.35061 23.6115 4.33513 23.8907C7.61193 24.1974 9.11794 23.4863 12.3672 21.5058C15.84 19.3864 18.4752 17.1411 20.4977 17.6988C22.0319 18.1169 22.2856 20.5575 22.2856 20.5575C22.2856 20.5575 22.7457 19.5947 22.8853 18.7448C23.0214 17.8501 23.2724 15.2844 20.9027 14.4337Z" fill="url(#paint1_linear)"/>
<path d="M8.92265 1.54797C9.87731 1.54901 10.784 1.96667 11.4052 2.69158L11.7813 2.37043C10.5217 0.908518 8.36229 0.632064 6.77502 1.72951L7.05422 2.13181C7.60355 1.75251 8.25509 1.54892 8.92265 1.54797Z" fill="white"/>
<defs>
<linearGradient id="paint0_linear" x1="3.4425" y1="5.05582" x2="13.7344" y2="5.05582" gradientUnits="userSpaceOnUse">
<stop stop-color="#FF3F3F"/>
<stop offset="1" stop-color="#EB0000"/>
</linearGradient>
<linearGradient id="paint1_linear" x1="0.960006" y1="12.4662" x2="22.9657" y2="12.4662" gradientUnits="userSpaceOnUse">
<stop stop-color="#2482C5"/>
<stop offset="1" stop-color="#285FAC"/>
</linearGradient>
</defs>
</svg>
