<svg width="24" height="24" viewBox="0 0 24 24" fill="none" xmlns="http://www.w3.org/2000/svg">
<path d="M12 0C5.37049 0 0 5.37049 0 12C0 18.6295 5.37049 24 12 24C18.6295 24 24 18.6295 24 12C24 5.37049 18.6295 0 12 0ZM15.6197 16.8393H8.34098V15.5213C8.36065 15.5016 8.43934 15.423 8.57705 15.3049C8.71475 15.1869 8.79344 15.1082 8.83279 15.0492C8.87213 14.9902 8.97049 14.9115 9.06885 14.7541C9.18688 14.6164 9.2459 14.4787 9.30492 14.3607C9.36393 14.223 9.40328 14.0656 9.48197 13.8885C9.56066 13.7115 9.6 13.4951 9.61967 13.2393C9.63934 13.0033 9.65902 12.7279 9.65902 12.4328V12.2557H8.36066V10.8984H9.63934V10.5443C9.63934 10.0525 9.65902 9.61967 9.71803 9.22623C9.77705 8.83279 9.87541 8.45902 10.0131 8.10492C10.1705 7.73115 10.3475 7.43607 10.623 7.18033C10.859 6.94426 11.2131 6.72787 11.6066 6.59016C12.0197 6.45246 12.5115 6.3541 13.0426 6.3541C14.0066 6.3541 14.7934 6.53115 15.423 6.86557L14.9902 8.22295C14.341 7.92787 13.7115 7.77049 13.141 7.77049C12.5311 7.77049 12.0787 7.94754 11.8033 8.32131C11.5082 8.67541 11.3705 9.28525 11.3705 10.1311V10.8984H13.7508V12.2557H11.3902V12.4721C11.3902 13.2 11.3508 13.8098 11.2721 14.2623C11.1934 14.7344 11.0557 15.1082 10.859 15.3836H15.6197V16.8393Z" fill="#0B223D"/>
</svg>
