<svg width="24" height="24" viewBox="0 0 24 24" fill="none" xmlns="http://www.w3.org/2000/svg">
<path d="M12 24C18.6274 24 24 18.6274 24 12C24 5.37258 18.6274 0 12 0C5.37258 0 0 5.37258 0 12C0 18.6274 5.37258 24 12 24Z" fill="#7C5D00"/>
<path d="M12 23.04C18.0972 23.04 23.04 18.0972 23.04 12C23.04 5.90278 18.0972 0.959999 12 0.959999C5.90274 0.959999 0.959961 5.90278 0.959961 12C0.959961 18.0972 5.90274 23.04 12 23.04Z" fill="#EED554"/>
<path d="M12 22.08C17.5671 22.08 22.08 17.567 22.08 12C22.08 6.43297 17.5671 1.92 12 1.92C6.43301 1.92 1.92004 6.43297 1.92004 12C1.92004 17.567 6.43301 22.08 12 22.08Z" fill="#F1C700"/>
<path fill-rule="evenodd" clip-rule="evenodd" d="M18.7103 11.3343H14.2054C13.9349 11.3343 13.7156 11.5536 13.7156 11.8241V13.0233C13.7156 13.2938 13.9349 13.513 14.2054 13.513H16.6784C16.0181 15.0682 14.4756 16.1617 12.6824 16.1617C11.1407 16.1617 9.78522 15.3528 9.01542 14.1378H9.91813C10.1886 14.1378 10.4079 13.9185 10.4079 13.6481V13.2178C10.4079 12.9473 10.1886 12.728 9.91813 12.728H8.43914C8.37685 12.4359 8.34347 12.1332 8.34347 11.8228C8.34347 11.5743 8.36557 11.3311 8.40588 11.094H9.91813C10.1886 11.094 10.4079 10.8747 10.4079 10.6042V10.174C10.4079 9.90349 10.1886 9.68421 9.91813 9.68421H8.90943C9.65635 8.37164 11.0672 7.48386 12.6824 7.48386C14.023 7.48386 15.2231 8.09513 16.0193 9.05359C16.2029 9.27447 16.5393 9.28332 16.7408 9.07864C17.1638 8.64892 17.5752 8.2354 17.8988 7.91942C16.7088 6.33322 14.8135 5.30511 12.6824 5.30511C9.83732 5.30511 7.41256 7.13763 6.52549 9.68421H5.28982C5.01933 9.68421 4.80005 9.90349 4.80005 10.174V10.6042C4.80005 10.8747 5.01933 11.094 5.28982 11.094H6.20566C6.17888 11.3333 6.16472 11.5764 6.16472 11.8228C6.16472 12.13 6.18657 12.4321 6.22784 12.728H5.28982C5.01933 12.728 4.80005 12.9473 4.80005 13.2178V13.6481C4.80005 13.9185 5.01933 14.1378 5.28982 14.1378H6.58989C7.52567 16.5921 9.90345 18.3404 12.6824 18.3404C16.2762 18.3404 19.2 15.4166 19.2 11.8228V11.8178C19.1999 11.5498 18.9783 11.3343 18.7103 11.3343Z" fill="white"/>
</svg>
