<svg width="24" height="24" viewBox="0 0 24 24" fill="none" xmlns="http://www.w3.org/2000/svg">
<g clip-path="url(#clip0)">
<path d="M12 24C18.6274 24 24 18.6274 24 12C24 5.37258 18.6274 0 12 0C5.37258 0 0 5.37258 0 12C0 18.6274 5.37258 24 12 24Z" fill="#377E96"/>
<path fill-rule="evenodd" clip-rule="evenodd" d="M17.7187 22.5525L17.7817 22.506C17.6077 22.1872 17.3257 22.02 17.0085 21.9442C16.5555 21.8362 16.095 21.7365 15.633 21.7042C14.6062 21.63 13.5765 21.6127 12.549 21.5505C11.4045 21.4807 10.2615 21.384 9.11621 21.309C9.01646 21.3015 8.87321 21.339 8.81621 21.4102C8.51621 21.7777 8.22596 22.1557 7.95596 22.5457C7.82396 22.737 7.74221 22.962 7.63946 23.1682L7.71821 23.2132C7.26677 23.0409 6.82621 22.8413 6.39896 22.6155C6.47696 22.6305 6.57896 22.6185 6.61721 22.5802C7.08671 22.11 7.54121 21.6247 7.99796 21.1447C7.65671 20.8717 7.32296 20.6295 7.01921 20.355C6.73571 20.0985 6.61721 19.7587 6.64196 19.3695C6.67946 18.7717 6.94121 18.2625 7.32596 17.835C7.78121 17.3302 8.29196 16.875 8.77946 16.3995C8.83946 16.3417 8.90171 16.2885 8.95721 16.2375C8.93846 16.2045 8.93621 16.1947 8.93096 16.191L8.78846 16.1085C7.22246 15.2055 6.44171 13.8337 6.42146 12.0435C6.40346 10.5105 7.05596 9.26925 8.21021 8.289C9.33521 7.33425 10.6605 6.999 12.1147 7.032C13.191 7.05675 14.1967 7.2945 15.1335 7.82925C15.186 7.85925 15.318 7.824 15.366 7.77375C15.8092 7.3095 16.2585 6.84975 16.674 6.36C17.19 5.7525 17.6265 5.0925 17.8072 4.296C17.9482 3.675 17.8882 3.0915 17.4382 2.607C16.7775 1.89525 15.6405 1.99125 15.0607 2.802C14.9467 2.961 14.8807 3.1545 14.769 3.31725C14.7277 3.37725 14.6227 3.3945 14.5462 3.432C14.5282 3.3645 14.4862 3.29475 14.496 3.2325C14.5215 3.0615 14.5545 2.8875 14.6107 2.7255C14.8957 1.908 15.4252 1.35 16.3132 1.2255C16.602 1.185 16.902 1.21875 17.2035 1.21875C17.1885 1.1985 17.1825 1.18125 17.1705 1.176C17.1146 1.14593 17.0579 1.11766 17.0002 1.09125C16.4342 0.832667 15.8496 0.617058 15.2512 0.446247C16.375 0.761752 17.4464 1.24034 18.4312 1.86675C18.4372 1.932 18.4335 1.94925 18.441 1.95825C19.1032 2.775 19.0185 3.64125 18.6015 4.52325C18.2475 5.2695 17.7315 5.901 17.1742 6.5025C16.6642 7.053 16.1512 7.60125 15.6375 8.1525C15.6585 8.166 15.6705 8.181 15.6825 8.181C16.4677 8.18175 17.253 8.193 18.0375 8.1765C18.447 8.169 18.8107 8.03325 19.0635 7.671C19.1115 7.60125 19.242 7.5885 19.335 7.5495L19.3875 7.62225C19.17 8.24925 18.9555 8.877 18.726 9.49875C18.7065 9.55125 18.591 9.594 18.5175 9.597C18.24 9.609 17.9625 9.60225 17.685 9.60225H16.6875L16.8007 9.82725C17.3407 10.8847 17.484 12.006 17.211 13.1497C16.8082 14.8372 15.7042 15.9277 14.0985 16.4947C12.7875 16.9582 11.442 16.9417 10.0957 16.62C9.97646 16.5915 9.79196 16.5675 9.72821 16.6312C9.43871 16.9207 9.13271 17.2125 8.92421 17.559C8.49446 18.273 8.74421 18.7695 9.56321 18.942L9.58646 18.945C10.3905 19.0072 11.1937 19.0837 11.9985 19.128C13.137 19.1902 14.277 19.215 15.4147 19.2832C16.104 19.3245 16.7842 19.446 17.4052 19.7752C18.2047 20.1975 18.771 20.82 19.0192 21.7297C19.0777 21.6885 19.1362 21.6472 19.1947 21.6045C18.7275 21.9547 18.2347 22.272 17.7172 22.5525H17.7187ZM14.0812 23.82C13.3533 23.9473 12.6152 24.0076 11.8762 24C12.6146 23.9927 13.3515 23.9326 14.0812 23.82ZM24 12.0375V12C24 10.965 23.8687 9.96075 23.6227 9.003C23.8677 9.99632 23.9944 11.0152 24 12.0382V12.0375ZM21.21 4.30875C20.5145 3.47658 19.71 2.74196 18.8182 2.12475C19.731 2.78475 20.5305 3.51225 21.2107 4.30875H21.21ZM6.22946 22.5225C5.6375 22.1972 5.074 21.8227 4.54496 21.4027C5.07971 21.8085 5.66321 22.1565 6.22946 22.5225ZM-3.65997e-05 12.0232C0.00143477 11.384 0.0508231 10.7457 0.147713 10.1137C0.0480832 10.7451 -0.00132169 11.3833 -3.65997e-05 12.0225V12.0232ZM2.18696 5.091C2.65767 4.43619 3.18739 3.82589 3.76946 3.26775C3.18237 3.82082 2.65222 4.43138 2.18696 5.09025V5.091ZM8.34971 0.565497C9.53255 0.200748 10.7622 0.0102479 12 -2.54688e-06C10.7613 -0.00114291 9.52996 0.189619 8.34971 0.565497ZM14.6745 12.492L14.6295 12.4807C14.6032 12.1177 14.589 11.7532 14.55 11.3917C14.4615 10.5547 14.2237 9.76425 13.7625 9.05175C13.08 7.99575 11.94 7.56975 10.8465 7.99275C9.94871 8.33925 9.47246 9.05175 9.25796 9.96C9.05396 10.8195 9.07046 11.6902 9.17396 12.5572C9.27371 13.3822 9.50921 14.1675 9.98396 14.8657C10.5945 15.762 11.4457 16.1535 12.504 15.9765C13.509 15.81 14.1405 15.1597 14.3977 14.193C14.5455 13.641 14.586 13.0605 14.6752 12.492H14.6745Z" fill="white"/>
</g>
<defs>
<clipPath id="clip0">
<rect width="24" height="24" fill="white"/>
</clipPath>
</defs>
</svg>
