<svg width="24" height="24" viewBox="0 0 24 24" fill="none" xmlns="http://www.w3.org/2000/svg">
<path d="M12 24C18.6274 24 24 18.6274 24 12C24 5.37258 18.6274 0 12 0C5.37258 0 0 5.37258 0 12C0 18.6274 5.37258 24 12 24Z" fill="#16B9AD"/>
<path d="M19.5 9.89475C19.5 13.9507 16.1348 17.25 12 17.25C7.86525 17.25 4.5 13.95 4.5 9.89625C4.5 9.59775 4.518 9.2985 4.5555 9.0015H5.9025C5.8575 9.29775 5.835 9.597 5.835 9.89625C5.835 13.23 8.601 15.9427 12.0007 15.9427C15.2452 15.9427 17.9123 13.4738 18.1508 10.3515H8.61C8.8125 11.8095 9.96225 12.9675 11.4427 13.2067C12.924 13.4452 14.3903 12.7088 15.0592 11.3918H16.503C15.8468 13.2833 14.0355 14.5553 11.9985 14.5568C9.3765 14.5568 7.24275 12.465 7.24275 9.89475C7.24275 9.59475 7.27275 9.29475 7.3305 9H19.4445C19.482 9.297 19.5 9.5955 19.5 9.89475Z" fill="white"/>
</svg>
