<svg width="24" height="24" viewBox="0 0 24 24" fill="none" xmlns="http://www.w3.org/2000/svg">
<path d="M6.27204 3H11.0221C10.4509 3.9 10.1003 4.89384 10.1221 5.97084C11.5356 5.98524 12.9527 5.98524 14.3662 5.97084C14.3843 4.90104 14.0951 3.87828 13.4768 3H18.2594C17.9305 3.68664 17.3701 4.32276 17.4244 5.12868C17.4026 8.73192 17.4316 12.3389 17.4208 15.9421C17.8907 15.9421 18.3643 15.9421 18.8378 15.9457C19.1849 15.2627 19.4922 14.5657 19.7378 13.8424C21.1585 13.8784 22.5865 13.8026 23.9999 13.9906C22.6009 15.1906 21.8706 16.8964 20.9597 18.4504C17.3447 18.4576 13.7297 18.4396 10.1111 18.4612C9.94116 19.7731 10.7545 20.6766 11.6981 21.432H5.592C6.12336 20.7344 7.1934 20.2864 7.08144 19.2635C7.11744 15.7795 7.08144 12.2915 7.09224 8.80428H10.1906V10.9511H14.3009V8.48988C11.4414 8.48988 8.58076 8.48988 5.71884 8.48988C5.00684 9.73316 4.29588 10.9752 3.58596 12.216C4.29452 13.4593 5.00652 14.7013 5.72196 15.9421H6.77796V18.4501H3.54996C2.37144 16.3686 1.1496 14.3122 0 12.216V12.2124C1.1532 10.1198 2.37864 8.0634 3.54996 5.98164C4.7538 5.98164 5.95752 5.98164 7.16136 5.97084C7.16856 4.90464 6.87576 3.88548 6.27204 3ZM10.1908 13.4809V15.9421H14.301V13.4809H10.1908Z" fill="#56428E"/>
<path d="M17.7352 5.98167H20.952C21.8341 7.3912 22.4414 9.01769 23.7139 10.1457C23.7392 10.2289 23.7859 10.3987 23.8115 10.4817C22.4522 10.6588 21.0755 10.5214 19.7048 10.5897C19.5313 9.83801 19.1879 9.14765 18.8083 8.48633C18.5372 8.48633 18.0022 8.48993 17.7347 8.48993L17.7352 5.98167Z" fill="#56428E"/>
<path d="M14.413 18.7649C15.3637 18.7685 16.3181 18.7649 17.269 18.7613C17.2473 19.9683 18.097 20.7165 18.9319 21.432H12.7827C13.5707 20.688 14.4925 19.9828 14.413 18.7649Z" fill="#56428E"/>
</svg>
