<svg width="24" height="24" viewBox="0 0 24 24" fill="none" xmlns="http://www.w3.org/2000/svg">
<path d="M12 24C18.6274 24 24 18.6274 24 12C24 5.37258 18.6274 0 12 0C5.37258 0 0 5.37258 0 12C0 18.6274 5.37258 24 12 24Z" fill="#CFA967"/>
<path d="M12.015 12.7087V18.7035L16.4752 17.502L17.523 5.9595H12.015V10.8585L12.243 10.1483H12.84L12.015 12.7087ZM6.477 18.3517L5.25 4.875H18.75L17.523 18.3517L11.985 19.875L6.477 18.3517ZM10.3492 13.257V12.7012L8.4975 11.9633L10.35 11.2208V10.6642L7.70475 11.739V12.183L10.3492 13.257ZM16.299 12.183L13.6537 13.257V12.7012L15.5062 11.961L13.6537 11.2208V10.6642L16.299 11.739V12.183ZM12.015 12.708V10.8585L11.0273 13.9387H11.6182L12.015 12.708Z" fill="white"/>
</svg>
