<svg width="24" height="24" viewBox="0 0 24 24" fill="none" xmlns="http://www.w3.org/2000/svg">
<path d="M21.931 4.13793C23.0737 4.13793 24 3.21162 24 2.06897C24 0.926307 23.0737 0 21.931 0C20.7884 0 19.8621 0.926307 19.8621 2.06897C19.8621 3.21162 20.7884 4.13793 21.931 4.13793Z" fill="#18A0B1"/>
<path d="M6.02481 15.5503C5.24559 14.2276 4.92789 12.6834 5.12162 11.1605C5.31535 9.6375 6.00952 8.22206 7.09509 7.13649C8.18066 6.05092 9.5961 5.35675 11.1191 5.16302C12.642 4.9693 14.1862 5.287 15.5089 6.06621L17.1641 4.41104L17.0814 4.34483C15.3011 3.17136 13.1691 2.65125 11.0484 2.87308C8.92776 3.0949 6.94954 4.04493 5.45063 5.56141C3.95172 7.07788 3.0248 9.06703 2.8277 11.1901C2.63059 13.3132 3.1755 15.439 4.36964 17.2055L6.02481 15.5503Z" fill="#18A0B1"/>
<path d="M17.9752 8.54069C18.7544 9.86346 19.0721 11.4076 18.8784 12.9306C18.6847 14.4535 17.9905 15.869 16.9049 16.9545C15.8193 18.0401 14.4039 18.7343 12.8809 18.928C11.358 19.1217 9.81383 18.804 8.49105 18.0248L6.83588 19.68C8.60863 20.8835 10.7455 21.4314 12.8786 21.2292C15.0118 21.0271 17.0077 20.0876 18.5228 18.5725C20.0379 17.0574 20.9774 15.0614 21.1796 12.9283C21.3817 10.7951 20.8339 8.65826 19.6304 6.88551L17.9752 8.54069Z" fill="#18A0B1"/>
<path d="M2.06897 24C3.21162 24 4.13793 23.0737 4.13793 21.931C4.13793 20.7884 3.21162 19.8621 2.06897 19.8621C0.926307 19.8621 0 20.7884 0 21.931C0 23.0737 0.926307 24 2.06897 24Z" fill="#18A0B1"/>
</svg>
