<svg width="24" height="24" viewBox="0 0 24 24" fill="none" xmlns="http://www.w3.org/2000/svg">
<g clip-path="url(#clip0)">
<path d="M12 23.6723C18.4464 23.6723 23.6723 18.4464 23.6723 12C23.6723 5.55356 18.4464 0.32769 12 0.32769C5.55357 0.32769 0.327698 5.55356 0.327698 12C0.327698 18.4464 5.55357 23.6723 12 23.6723Z" fill="white"/>
<path d="M12 -0.000219333C14.3734 -0.000219333 16.6935 0.703569 18.6668 2.02215C20.6402 3.34072 22.1783 5.21487 23.0866 7.40758C23.9948 9.6003 24.2324 12.0131 23.7694 14.3409C23.3064 16.6686 22.1635 18.8068 20.4853 20.4851C18.8071 22.1633 16.6689 23.3062 14.3411 23.7692C12.0133 24.2322 9.60051 23.9946 7.4078 23.0863C5.21509 22.1781 3.34094 20.64 2.02236 18.6666C0.703788 16.6932 0 14.3732 0 11.9998L0 11.8721C0.0646154 5.32901 5.41231 -0.0171424 12 -0.000219333ZM12.2554 0.87055C5.88308 0.872089 0.904615 5.84594 0.878462 11.9306C0.850769 18.0752 5.84615 23.1306 12 23.109C15.0477 23.0983 17.68 22.0198 19.8338 19.8706C22.2846 17.4259 23.3585 14.4275 23.0785 10.9936C22.8824 8.39915 21.7436 5.96612 19.8769 4.15363C17.7062 1.99978 15.0662 0.91055 12.2523 0.87055H12.2554Z" fill="#333333"/>
<path d="M22.7816 10.8215C22.5519 8.37392 21.4617 6.08709 19.7046 4.36767C17.58 2.23537 14.9908 1.15229 11.9723 1.14767C9.13982 1.20504 6.44211 2.36811 4.45583 4.38828C2.46955 6.40845 1.35228 9.12544 1.34283 11.9585C1.33339 14.7916 2.43252 17.516 4.40529 19.5493C6.37806 21.5827 9.06796 22.7637 11.9 22.84C14.9062 22.8615 17.5139 21.8092 19.6369 19.6831C22.0754 17.2431 23.1277 14.2631 22.7816 10.8215ZM16.6846 3.55844C16.75 3.55967 16.8136 3.58027 16.8673 3.61762C16.921 3.65498 16.9624 3.70741 16.9863 3.76831C17.0102 3.8292 17.0155 3.89581 17.0016 3.95972C16.9876 4.02363 16.955 4.08197 16.9079 4.12735C16.8608 4.17274 16.8013 4.20314 16.7369 4.21471C16.6725 4.22628 16.6062 4.2185 16.5462 4.19235C16.4863 4.1662 16.4354 4.12286 16.4001 4.06781C16.3647 4.01276 16.3465 3.94846 16.3477 3.88306C16.3497 3.79546 16.3863 3.71221 16.4494 3.65141C16.5125 3.59062 16.597 3.5572 16.6846 3.55844ZM15.2 2.86767C15.2899 2.86808 15.376 2.90408 15.4394 2.9678C15.5029 3.03152 15.5385 3.11777 15.5385 3.20767C15.5373 3.25092 15.5276 3.2935 15.5099 3.33298C15.4923 3.37247 15.467 3.40809 15.4356 3.43781C15.4041 3.46753 15.3672 3.49076 15.3267 3.50618C15.2863 3.5216 15.2433 3.5289 15.2 3.52767C15.158 3.52829 15.1163 3.52061 15.0772 3.50509C15.0382 3.48957 15.0025 3.46651 14.9724 3.43722C14.9422 3.40794 14.9182 3.373 14.9015 3.3344C14.8849 3.29581 14.876 3.25431 14.8754 3.21229V3.19691C14.8762 3.11062 14.9105 3.02802 14.9711 2.96658C15.0317 2.90514 15.1138 2.86967 15.2 2.86767ZM13.6369 2.44306C13.7218 2.4511 13.8014 2.48778 13.8626 2.54705C13.9238 2.60633 13.9631 2.68468 13.9739 2.76921C13.9679 2.86089 13.9269 2.94676 13.8593 3.00894C13.7916 3.07112 13.7026 3.10483 13.6108 3.10306C13.5245 3.09986 13.4429 3.06324 13.3832 3.00093C13.3235 2.93862 13.2903 2.85552 13.2908 2.76921C13.2948 2.68052 13.3332 2.59687 13.3978 2.53598C13.4624 2.4751 13.5482 2.44177 13.6369 2.44306ZM12 2.30767C12.0651 2.30737 12.1288 2.32635 12.183 2.36221C12.2373 2.39806 12.2797 2.44919 12.305 2.50915C12.3302 2.5691 12.3371 2.63518 12.3249 2.69906C12.3126 2.76294 12.2816 2.82175 12.236 2.86807C12.1903 2.91439 12.1319 2.94614 12.0682 2.95931C12.0045 2.97248 11.9383 2.96649 11.878 2.94209C11.8177 2.91769 11.766 2.87597 11.7294 2.8222C11.6928 2.76844 11.6729 2.70503 11.6723 2.63998C11.6723 2.55264 11.7067 2.46881 11.768 2.40662C11.8293 2.34443 11.9127 2.30889 12 2.30767ZM10.3831 2.4446C10.4678 2.44904 10.5478 2.48467 10.6077 2.54461C10.6676 2.60455 10.7033 2.68456 10.7077 2.76921C10.7077 2.81258 10.6992 2.85552 10.6825 2.89556C10.6659 2.93561 10.6415 2.97197 10.6107 3.00256C10.58 3.03315 10.5435 3.05737 10.5034 3.07383C10.4633 3.09028 10.4203 3.09865 10.3769 3.09844H10.3646C10.3218 3.09804 10.2795 3.08921 10.2401 3.07244C10.2006 3.05568 10.1649 3.03132 10.1349 3.00074C10.1049 2.97017 10.0812 2.93399 10.0652 2.89426C10.0492 2.85454 10.0412 2.81204 10.0416 2.76921C10.0455 2.68238 10.0823 2.6003 10.1446 2.5397C10.207 2.4791 10.29 2.44454 10.3769 2.44306L10.3831 2.4446ZM8.80156 2.86767C8.88875 2.86889 8.97194 2.90449 9.03302 2.96672C9.0941 3.02895 9.12813 3.11278 9.12772 3.19998C9.1298 3.28408 9.09868 3.36562 9.0411 3.42695C8.98351 3.48828 8.90409 3.52446 8.82002 3.52767H8.80464C8.76094 3.52932 8.71736 3.52228 8.6764 3.50697C8.63544 3.49166 8.59792 3.46838 8.56602 3.43848C8.53411 3.40858 8.50846 3.37265 8.49053 3.33277C8.4726 3.29289 8.46275 3.24985 8.46156 3.20614C8.46082 3.20155 8.46082 3.19688 8.46156 3.19229C8.4659 3.10494 8.50357 3.02258 8.56683 2.96218C8.63009 2.90179 8.7141 2.86796 8.80156 2.86767ZM7.31541 3.55844C7.35875 3.55541 7.40225 3.56095 7.44345 3.57473C7.48465 3.58852 7.52273 3.61028 7.55551 3.63878C7.5883 3.66728 7.61515 3.70196 7.63454 3.74084C7.65392 3.77972 7.66546 3.82203 7.66849 3.86537C7.67152 3.9087 7.66598 3.95221 7.6522 3.99341C7.63841 4.03461 7.61665 4.07268 7.58815 4.10547C7.55965 4.13826 7.52497 4.16511 7.48609 4.18449C7.44721 4.20388 7.4049 4.21541 7.36156 4.21844H7.31541C7.23178 4.21273 7.15344 4.17548 7.09623 4.11422C7.03901 4.05296 7.00718 3.97227 7.00718 3.88844C7.00718 3.80462 7.03901 3.72392 7.09623 3.66267C7.15344 3.60141 7.23178 3.56416 7.31541 3.55844ZM5.98772 4.49229C6.07494 4.49427 6.158 4.53002 6.2194 4.592C6.28081 4.65398 6.31577 4.73736 6.31695 4.8246C6.31654 4.91179 6.28173 4.9953 6.22007 5.05695C6.15842 5.11861 6.07491 5.15342 5.98772 5.15383C5.94576 5.15547 5.9039 5.14881 5.86453 5.13421C5.82516 5.11962 5.78907 5.09738 5.75833 5.06878C5.72759 5.04019 5.7028 5.0058 5.68541 4.96758C5.66801 4.92937 5.65833 4.8881 5.65695 4.84614C5.6561 4.84053 5.6561 4.83482 5.65695 4.82921C5.65403 4.7424 5.68554 4.65795 5.74462 4.59426C5.80369 4.53058 5.88554 4.49282 5.97233 4.48921L5.98772 4.49229ZM4.84002 5.6446C4.92735 5.64781 5.0099 5.68529 5.0698 5.74893C5.12969 5.81257 5.16211 5.89723 5.16002 5.9846C5.15841 6.07165 5.12237 6.15452 5.0598 6.21506C4.99724 6.27561 4.91324 6.30891 4.82618 6.30767C4.73905 6.30496 4.65626 6.26903 4.59476 6.20725C4.53327 6.14546 4.49772 6.06251 4.49541 5.97537C4.49898 5.88666 4.53664 5.80274 4.60056 5.74112C4.66447 5.6795 4.7497 5.64492 4.83849 5.6446H4.84002ZM3.89695 6.98614C3.98079 6.98446 4.06193 7.01576 4.12293 7.07331C4.18392 7.13085 4.21989 7.21003 4.2231 7.29383C4.22463 7.29832 4.22463 7.30318 4.2231 7.30767C4.22434 7.39514 4.19088 7.47953 4.13004 7.54239C4.0692 7.60524 3.98595 7.64144 3.89849 7.64306C3.80895 7.64147 3.72355 7.60509 3.66038 7.54162C3.5972 7.47816 3.56121 7.3926 3.56002 7.30306C3.56321 7.21626 3.59995 7.13408 3.6625 7.07382C3.72506 7.01356 3.80855 6.97992 3.89541 6.97998L3.89695 6.98614ZM3.20772 8.46152C3.29613 8.46274 3.38049 8.49882 3.44243 8.56192C3.50438 8.62501 3.5389 8.71002 3.53849 8.79844V8.80614C3.53077 8.89081 3.49103 8.96934 3.42739 9.02572C3.36374 9.0821 3.28099 9.11207 3.196 9.10952C3.11101 9.10697 3.03021 9.07209 2.97006 9.01199C2.90991 8.9519 2.87496 8.87112 2.87233 8.78614C2.87588 8.69932 2.91269 8.6172 2.97512 8.55677C3.03755 8.49634 3.12083 8.46224 3.20772 8.46152ZM2.77695 10.0354C2.86647 10.0358 2.95226 10.0713 3.01584 10.1343C3.07943 10.1973 3.11574 10.2828 3.11695 10.3723C3.11453 10.4593 3.07804 10.542 3.01531 10.6024C2.95259 10.6628 2.86865 10.6962 2.78156 10.6954C2.73974 10.6956 2.69829 10.6875 2.65957 10.6717C2.62086 10.6559 2.58564 10.6326 2.55592 10.6032C2.52621 10.5738 2.50258 10.5388 2.48639 10.5002C2.4702 10.4616 2.46176 10.4203 2.46156 10.3784C2.46069 10.2925 2.49327 10.2097 2.55242 10.1473C2.61157 10.085 2.69265 10.0482 2.77849 10.0446L2.77695 10.0354ZM2.30772 12C2.30997 11.9128 2.34519 11.8297 2.40629 11.7675C2.46739 11.7052 2.54982 11.6685 2.63695 11.6646C2.68018 11.6642 2.72308 11.6723 2.76317 11.6885C2.80327 11.7046 2.8398 11.7286 2.87065 11.7588C2.90151 11.7891 2.9261 11.8252 2.94302 11.865C2.95994 11.9048 2.96885 11.9475 2.96925 11.9908C2.97344 12.0766 2.9434 12.1606 2.88571 12.2244C2.82803 12.2881 2.74742 12.3264 2.66156 12.3308H2.62772C2.54275 12.3254 2.46283 12.2885 2.40364 12.2274C2.34444 12.1662 2.31023 12.0851 2.30772 12ZM2.46156 13.6231C2.46155 13.536 2.49571 13.4524 2.55671 13.3902C2.6177 13.3281 2.70065 13.2924 2.78772 13.2908C2.87711 13.2924 2.96234 13.3288 3.02527 13.3923C3.0882 13.4558 3.12385 13.5414 3.12464 13.6308C3.12344 13.674 3.11374 13.7166 3.09608 13.7561C3.07842 13.7955 3.05315 13.8312 3.02172 13.8609C2.99029 13.8906 2.95331 13.9138 2.91289 13.9293C2.87248 13.9447 2.82942 13.952 2.78618 13.9508C2.70238 13.9528 2.62117 13.9216 2.56033 13.8639C2.49949 13.8063 2.46398 13.7268 2.46156 13.6431V13.6246V13.6231ZM3.21541 15.5277C3.12805 15.5293 3.04355 15.4965 2.98021 15.4363C2.91686 15.3762 2.87976 15.2935 2.87695 15.2061C2.87772 15.1166 2.91333 15.0309 2.97622 14.9671C3.03911 14.9034 3.12434 14.8666 3.21387 14.8646C3.29978 14.8685 3.38103 14.9047 3.44126 14.9661C3.5015 15.0275 3.53624 15.1094 3.53849 15.1954C3.53808 15.2826 3.50326 15.3661 3.44161 15.4277C3.37995 15.4894 3.29645 15.5242 3.20925 15.5246L3.21541 15.5277ZM3.9031 17.0092C3.81608 17.0081 3.73279 16.9737 3.6704 16.913C3.608 16.8523 3.57125 16.77 3.56772 16.6831C3.56771 16.595 3.60246 16.5106 3.66441 16.4481C3.72635 16.3856 3.81048 16.35 3.89849 16.3492H3.90618C3.99002 16.3475 4.07116 16.3788 4.13216 16.4364C4.19315 16.4939 4.22912 16.5731 4.23233 16.6569C4.23309 16.6625 4.23309 16.6682 4.23233 16.6738C4.23253 16.7168 4.22425 16.7594 4.20795 16.7991C4.19165 16.8389 4.16766 16.875 4.13735 16.9054C4.10704 16.9359 4.07102 16.9601 4.03135 16.9765C3.99168 16.993 3.94914 17.0015 3.90618 17.0015H3.89695L3.9031 17.0092ZM3.9031 14.4246L3.92002 14.3646H7.42772C8.33849 14.3646 8.33849 14.3646 8.33849 13.4415C8.33849 12.6723 8.33849 11.9031 8.33849 11.1338C8.33849 10.8831 8.37233 10.7661 8.67233 10.7784C9.33233 10.8061 9.99541 10.7969 10.6554 10.7784C10.8862 10.7784 10.9631 10.8492 10.9631 11.0754C10.9569 12.3656 10.9569 13.6574 10.9631 14.9508C10.9631 15.1969 10.8862 15.3215 10.6262 15.2969C10.5505 15.2892 10.4742 15.2892 10.3985 15.2969C10.1016 15.3292 10 15.2138 10 14.9231C10.0139 13.9892 10 13.0569 10 12.1231C10 11.8661 9.92002 11.7477 9.64464 11.7477C9.36926 11.7477 9.27849 11.8338 9.2831 12.1077C9.29541 13.0415 9.2831 13.9754 9.29387 14.9077C9.29387 15.2154 9.20002 15.3015 8.9031 15.2969C7.95849 15.2815 7.01079 15.34 6.07233 15.2708C5.62926 15.2384 5.20002 14.9892 4.77079 14.82C4.48002 14.7061 4.19079 14.5569 3.89695 14.4215L3.9031 14.4246ZM4.87387 18.3507C4.82961 18.3559 4.78477 18.3522 4.74193 18.34C4.69908 18.3278 4.65907 18.3072 4.6242 18.2795C4.58932 18.2517 4.56026 18.2174 4.53869 18.1784C4.51712 18.1394 4.50345 18.0966 4.49849 18.0523C4.497 18.0349 4.497 18.0174 4.49849 18C4.50383 17.9105 4.5425 17.8263 4.60686 17.764C4.67121 17.7016 4.7566 17.6656 4.84618 17.6631C4.93596 17.6749 5.01874 17.7178 5.08005 17.7845C5.14135 17.8511 5.17728 17.9372 5.18156 18.0277C5.16908 18.1062 5.13294 18.1791 5.07796 18.2365C5.02298 18.294 4.95178 18.3333 4.87387 18.3492V18.3507ZM5.98156 19.4938C5.8971 19.4938 5.8161 19.4603 5.75638 19.4006C5.69665 19.3408 5.6631 19.2598 5.6631 19.1754V19.16C5.6637 19.1163 5.6729 19.0732 5.69015 19.0332C5.70741 18.9931 5.7324 18.9568 5.76369 18.9263C5.79497 18.8959 5.83195 18.8719 5.8725 18.8558C5.91305 18.8397 5.95638 18.8317 6.00002 18.8323C6.08726 18.835 6.1701 18.8712 6.23139 18.9334C6.29268 18.9955 6.32772 19.0789 6.32926 19.1661C6.32905 19.2092 6.32038 19.2517 6.30372 19.2914C6.28707 19.3311 6.26276 19.3671 6.23219 19.3974C6.20162 19.4277 6.16538 19.4517 6.12554 19.4679C6.08571 19.4842 6.04306 19.4925 6.00002 19.4923H5.98772L5.98156 19.4938ZM7.33233 20.4308C7.2903 20.4324 7.24836 20.4257 7.2089 20.4112C7.16945 20.3966 7.13325 20.3744 7.10239 20.3458C7.07152 20.3172 7.0466 20.2828 7.02903 20.2446C7.01147 20.2064 7.00161 20.1651 7.00002 20.1231C6.99927 20.119 6.99927 20.1148 7.00002 20.1108C6.99753 20.0227 7.02992 19.9373 7.09015 19.873C7.15037 19.8087 7.23355 19.7709 7.32156 19.7677H7.33079C7.41802 19.7697 7.50107 19.8054 7.56248 19.8674C7.62388 19.9294 7.65885 20.0127 7.66002 20.1C7.66063 20.1431 7.6527 20.1859 7.63668 20.2259C7.62066 20.2659 7.59687 20.3023 7.56668 20.333C7.5365 20.3638 7.50052 20.3883 7.46082 20.405C7.42113 20.4218 7.3785 20.4306 7.33541 20.4308H7.33233ZM8.81233 21.1184C8.72532 21.1235 8.63983 21.094 8.57444 21.0364C8.50905 20.9788 8.46903 20.8977 8.4631 20.8108C8.4631 20.8108 8.4631 20.7984 8.4631 20.7923C8.46692 20.7053 8.50341 20.6229 8.56529 20.5616C8.62717 20.5003 8.70989 20.4645 8.79695 20.4615C8.88428 20.4619 8.96795 20.4967 9.02985 20.5583C9.09175 20.6199 9.12691 20.7034 9.12772 20.7908C9.12979 20.8747 9.09863 20.9561 9.041 21.0172C8.98337 21.0782 8.90395 21.1141 8.82002 21.1169L8.81233 21.1184ZM7.56002 16.12C7.26772 16.0031 6.98772 15.8554 6.70156 15.7215L6.73695 15.6277H11.2308C11.9262 15.6277 11.8369 15.6892 11.8462 15.0123C11.8462 13.0123 11.8462 10.9954 11.8462 8.98767C11.8462 8.6569 11.9369 8.55691 12.2677 8.56921C12.9077 8.59383 13.5477 8.5846 14.1893 8.56921C14.42 8.56921 14.5231 8.62921 14.5231 8.8769C14.5231 11.3631 14.5231 13.8487 14.5231 16.3338C14.5231 16.6015 14.4093 16.6846 14.1631 16.6415C14.0796 16.6194 13.994 16.6065 13.9077 16.6031C13.5 16.6169 13.4985 16.62 13.4985 16.1923V10.0384C13.4985 9.86921 13.5631 9.65075 13.2816 9.60614C12.9523 9.55383 12.8539 9.63075 12.8539 9.97537V16.2277C12.8539 16.6523 12.8539 16.6538 12.4169 16.6538C11.3308 16.6538 10.2462 16.6384 9.16002 16.6538C8.54464 16.6784 8.0831 16.3261 7.5631 16.12H7.56002ZM10.3831 21.5384C10.296 21.5414 10.2114 21.5096 10.1476 21.4502C10.0839 21.3908 10.0463 21.3086 10.0431 21.2215C10.0423 21.2175 10.0423 21.2133 10.0431 21.2092C10.0422 21.1433 10.0609 21.0785 10.0967 21.0232C10.1326 20.9678 10.184 20.9243 10.2446 20.8982C10.3051 20.872 10.3721 20.8644 10.437 20.8763C10.5019 20.8881 10.5618 20.9189 10.6092 20.9648C10.6565 21.0107 10.6893 21.0696 10.7032 21.1341C10.7172 21.1985 10.7117 21.2657 10.6875 21.3271C10.6633 21.3884 10.6215 21.4412 10.5673 21.4789C10.5132 21.5165 10.449 21.5372 10.3831 21.5384ZM12 21.6923C11.9105 21.6907 11.8253 21.6537 11.763 21.5894C11.7008 21.5251 11.6665 21.4387 11.6677 21.3492C11.6695 21.2835 11.6907 21.2199 11.7285 21.1662C11.7664 21.1125 11.8192 21.0711 11.8804 21.0473C11.9417 21.0235 12.0086 21.0183 12.0727 21.0323C12.1369 21.0463 12.1955 21.079 12.2412 21.1262C12.2869 21.1734 12.3177 21.233 12.3297 21.2976C12.3417 21.3622 12.3343 21.4289 12.3086 21.4893C12.2828 21.5497 12.2398 21.6012 12.1849 21.6373C12.13 21.6735 12.0657 21.6926 12 21.6923ZM13.6 21.5384C13.5153 21.5325 13.4361 21.4943 13.3788 21.4315C13.3215 21.3688 13.2905 21.2864 13.2923 21.2015C13.2939 21.1577 13.3042 21.1146 13.3225 21.0747C13.3407 21.0348 13.3667 20.9989 13.3988 20.9691C13.431 20.9392 13.4687 20.916 13.5098 20.9007C13.5509 20.8854 13.5946 20.8784 13.6385 20.88C13.6823 20.8816 13.7254 20.8918 13.7653 20.9101C13.8052 20.9284 13.8411 20.9543 13.8709 20.9865C13.9008 21.0186 13.924 21.0563 13.9393 21.0974C13.9546 21.1386 13.9616 21.1823 13.96 21.2261C13.9545 21.3121 13.9154 21.3925 13.8513 21.45C13.7872 21.5075 13.703 21.5376 13.6169 21.5338L13.6 21.5384ZM15.1985 21.1169C15.1148 21.1182 15.0338 21.0867 14.9729 21.0293C14.912 20.9718 14.8759 20.8929 14.8723 20.8092V20.7938C14.8727 20.7069 14.907 20.6235 14.9679 20.5614C15.0288 20.4994 15.1115 20.4635 15.1985 20.4615C15.2879 20.4631 15.3731 20.4995 15.436 20.5631C15.499 20.6266 15.5346 20.7121 15.5354 20.8015C15.5314 20.8876 15.494 20.9688 15.431 21.0277C15.3681 21.0866 15.2847 21.1186 15.1985 21.1169ZM16.6831 20.4277C16.6403 20.4287 16.5977 20.4213 16.5577 20.4058C16.5177 20.3904 16.4812 20.3672 16.4502 20.3376C16.4192 20.308 16.3943 20.2726 16.377 20.2335C16.3597 20.1943 16.3503 20.152 16.3493 20.1092C16.3488 20.0197 16.3839 19.9337 16.4468 19.87C16.5096 19.8063 16.5951 19.77 16.6846 19.7692C16.7721 19.7708 16.8554 19.807 16.9162 19.8699C16.977 19.9327 17.0105 20.0171 17.0093 20.1046C17.0113 20.1888 16.9803 20.2706 16.9227 20.3321C16.8652 20.3937 16.7858 20.4302 16.7016 20.4338H16.6877L16.6831 20.4277ZM16.9616 17.2538C17.0108 16.7646 16.94 9.88921 16.9416 7.8046C16.9416 7.60306 16.9631 7.41537 16.6539 7.41998C16.4046 7.41998 16.3462 7.51075 16.3462 7.74614C16.3554 8.82306 16.3293 16.9277 16.3293 16.9277V17.9461C16.2139 17.9584 16.12 17.9754 16.0216 17.9769C14.6123 17.9769 13.2016 18.0046 11.7939 17.9615C11.44 17.9508 11.0877 17.7261 10.7431 17.5815C10.343 17.4216 9.95961 17.2227 9.59849 16.9877C9.69079 16.9877 9.7831 16.9707 9.87541 16.9707L14.5954 16.9908C15.3185 16.9908 15.3077 16.9908 15.3077 16.2954V6.78614C15.3077 6.51998 15.3677 6.3969 15.6693 6.40614C16.3523 6.42767 17.0369 6.41998 17.72 6.40614C17.9493 6.40614 18.0277 6.4846 18.0277 6.71383V17.5384C18.0277 17.9769 18.0277 17.9769 17.5754 17.9784C16.8769 17.9784 16.8877 17.9661 16.96 17.2569L16.9616 17.2538ZM18.0154 19.4908C17.9285 19.4912 17.8449 19.4573 17.7827 19.3966C17.7205 19.3358 17.6847 19.2531 17.6831 19.1661C17.6847 19.0767 17.7211 18.9915 17.7846 18.9286C17.8481 18.8657 17.9337 18.83 18.0231 18.8292C18.0663 18.8302 18.109 18.8397 18.1485 18.8572C18.1881 18.8747 18.2238 18.8998 18.2537 18.9311C18.2835 18.9623 18.3069 18.9992 18.3225 19.0395C18.3382 19.0799 18.3457 19.1229 18.3446 19.1661C18.3472 19.2081 18.3411 19.2501 18.3267 19.2896C18.3124 19.3291 18.2901 19.3652 18.2613 19.3957C18.2325 19.4263 18.1977 19.4506 18.1591 19.4672C18.1205 19.4838 18.079 19.4924 18.0369 19.4923H18.0139L18.0154 19.4908ZM18.0262 5.15229C17.94 5.15315 17.8569 5.12035 17.7946 5.06088C17.7322 5.0014 17.6955 4.91994 17.6923 4.83383C17.6916 4.83028 17.6916 4.82661 17.6923 4.82306C17.6943 4.73606 17.7295 4.65311 17.7907 4.59129C17.852 4.52947 17.9346 4.49349 18.0216 4.49075C18.0647 4.49035 18.1075 4.49847 18.1476 4.51466C18.1876 4.53085 18.224 4.55479 18.2547 4.58509C18.2855 4.6154 18.3099 4.65148 18.3267 4.69126C18.3434 4.73104 18.3521 4.77374 18.3523 4.8169C18.3574 4.90115 18.3288 4.98395 18.2728 5.04713C18.2169 5.1103 18.1381 5.14868 18.0539 5.15383H18.0354L18.0262 5.15229ZM19.1646 18.34C19.081 18.3343 19.0027 18.297 18.9455 18.2358C18.8882 18.1745 18.8564 18.0938 18.8564 18.01C18.8564 17.9262 18.8882 17.8455 18.9455 17.7842C19.0027 17.7229 19.081 17.6857 19.1646 17.68C19.2099 17.6769 19.2553 17.6831 19.298 17.6983C19.3407 17.7135 19.3798 17.7373 19.413 17.7683C19.4461 17.7992 19.4725 17.8366 19.4906 17.8782C19.5086 17.9198 19.518 17.9646 19.518 18.01C19.518 18.0553 19.5086 18.1002 19.4906 18.1418C19.4725 18.1833 19.4461 18.2208 19.413 18.2517C19.3798 18.2827 19.3407 18.3065 19.298 18.3216C19.2553 18.3368 19.2099 18.3431 19.1646 18.34ZM19.1646 6.31229C19.0986 6.31229 19.0341 6.29271 18.9792 6.25603C18.9243 6.21934 18.8815 6.1672 18.8562 6.1062C18.8309 6.0452 18.8243 5.97807 18.8372 5.91331C18.8501 5.84855 18.8819 5.78907 18.9286 5.74238C18.9753 5.69569 19.0347 5.66389 19.0995 5.65101C19.1643 5.63813 19.2314 5.64474 19.2924 5.67001C19.3534 5.69528 19.4055 5.73807 19.4422 5.79297C19.4789 5.84787 19.4985 5.91242 19.4985 5.97844C19.4973 6.06618 19.4616 6.14992 19.3991 6.21153C19.3366 6.27314 19.2524 6.30768 19.1646 6.30767V6.31229ZM21.5385 10.3738C21.5406 10.4576 21.5093 10.5388 21.4517 10.5997C21.394 10.6605 21.3146 10.696 21.2308 10.6984H21.2123C21.125 10.6989 21.041 10.6649 20.9785 10.6038C20.916 10.5428 20.8801 10.4596 20.8785 10.3723C20.8795 10.327 20.8894 10.2824 20.9076 10.241C20.9259 10.1996 20.9521 10.1621 20.9848 10.1308C21.0176 10.0995 21.0561 10.075 21.0983 10.0586C21.1405 10.0423 21.1855 10.0343 21.2308 10.0354C21.3158 10.0413 21.3953 10.0798 21.4526 10.1428C21.5099 10.2059 21.5407 10.2886 21.5385 10.3738ZM20.1016 6.98921C20.1888 6.9896 20.2724 7.0241 20.3345 7.08535C20.3966 7.14659 20.4323 7.2297 20.4339 7.31691C20.4319 7.40629 20.3951 7.49136 20.3313 7.554C20.2675 7.61665 20.1817 7.65191 20.0923 7.65229C20.0053 7.64908 19.923 7.61181 19.8631 7.54851C19.8033 7.4852 19.7707 7.40093 19.7723 7.31383C19.7706 7.22984 19.8019 7.14852 19.8594 7.08728C19.9169 7.02604 19.9961 6.98974 20.08 6.98614H20.1031L20.1016 6.98921ZM20.1016 17.0092C20.0147 17.0092 19.9313 16.9747 19.8699 16.9132C19.8084 16.8518 19.7739 16.7684 19.7739 16.6815C19.771 16.5969 19.8017 16.5146 19.8594 16.4526C19.9171 16.3906 19.9969 16.354 20.0816 16.3508H20.0985C20.1422 16.3495 20.1857 16.357 20.2265 16.3727C20.2673 16.3883 20.3046 16.412 20.3362 16.4422C20.3678 16.4723 20.3931 16.5085 20.4107 16.5485C20.4282 16.5885 20.4377 16.6317 20.4385 16.6754V16.6831C20.4353 16.7695 20.3991 16.8514 20.3372 16.9118C20.2754 16.9722 20.1926 17.0065 20.1062 17.0077L20.1016 17.0092ZM20.7908 8.46152C20.8561 8.46153 20.9199 8.48096 20.9742 8.51734C21.0284 8.55373 21.0706 8.60542 21.0954 8.66585C21.1202 8.72628 21.1264 8.79271 21.1133 8.8567C21.1002 8.92068 21.0684 8.97934 21.0219 9.02519C20.9754 9.07104 20.9163 9.10203 20.8521 9.11421C20.788 9.12639 20.7216 9.1192 20.6616 9.09358C20.6015 9.06795 20.5504 9.02503 20.5148 8.97029C20.4792 8.91554 20.4606 8.85144 20.4616 8.78614C20.4647 8.70024 20.5005 8.61879 20.5617 8.55844C20.6229 8.4981 20.7049 8.46343 20.7908 8.46152ZM20.8016 15.5246C20.7145 15.5267 20.63 15.4945 20.5664 15.4349C20.5028 15.3754 20.4652 15.2932 20.4616 15.2061C20.454 15.1178 20.4819 15.0301 20.539 14.9623C20.5961 14.8945 20.6778 14.8521 20.7662 14.8446C20.8545 14.837 20.9422 14.8649 21.01 14.922C21.0778 14.9792 21.1202 15.0609 21.1277 15.1492C21.1293 15.1635 21.1293 15.178 21.1277 15.1923C21.1277 15.2794 21.0936 15.363 21.0326 15.4251C20.9716 15.4873 20.8886 15.523 20.8016 15.5246ZM21.2093 13.9477C21.1224 13.9457 21.0398 13.9101 20.9787 13.8484C20.9175 13.7867 20.8827 13.7037 20.8816 13.6169C20.8852 13.5273 20.9237 13.4426 20.989 13.3811C21.0543 13.3195 21.1411 13.286 21.2308 13.2877C21.3164 13.2936 21.3963 13.3325 21.4537 13.3963C21.5111 13.46 21.5415 13.5435 21.5385 13.6292C21.5387 13.671 21.5306 13.7123 21.5148 13.751C21.499 13.7896 21.4757 13.8247 21.4462 13.8543C21.4168 13.8839 21.3818 13.9074 21.3432 13.9234C21.3046 13.9394 21.2633 13.9477 21.2216 13.9477H21.2093ZM21.3631 12.3231C21.3211 12.3247 21.2793 12.318 21.2399 12.3034C21.2005 12.2888 21.1645 12.2666 21.1337 12.238C21.103 12.2094 21.0782 12.175 21.0608 12.1368C21.0434 12.0986 21.0337 12.0573 21.0323 12.0154C21.0316 12.0092 21.0316 12.003 21.0323 11.9969C21.0283 11.9567 21.0322 11.9161 21.0439 11.8774C21.0555 11.8387 21.0747 11.8027 21.1002 11.7714C21.1258 11.7401 21.1573 11.7142 21.1929 11.6951C21.2285 11.6759 21.2675 11.664 21.3077 11.66H21.3293C21.3754 11.6566 21.4218 11.6624 21.4657 11.677C21.5097 11.6916 21.5503 11.7147 21.5853 11.745C21.6203 11.7752 21.649 11.8121 21.6697 11.8535C21.6905 11.8949 21.7029 11.94 21.7062 11.9861V12C21.7066 12.0424 21.6986 12.0845 21.6826 12.1237C21.6666 12.163 21.6429 12.1987 21.613 12.2288C21.5831 12.2589 21.5475 12.2827 21.5083 12.2989C21.4691 12.315 21.4271 12.3233 21.3846 12.3231H21.3646H21.3631Z" fill="#004B6A"/>
</g>
<defs>
<clipPath id="clip0">
<rect width="24" height="24" fill="white"/>
</clipPath>
</defs>
</svg>
