<svg width="24" height="24" viewBox="0 0 24 24" fill="none" xmlns="http://www.w3.org/2000/svg">
<path d="M13.2363 14.6226C14.8203 14.6226 16.1044 13.3384 16.1044 11.7544C16.1044 10.1704 14.8203 8.8863 13.2363 8.8863C11.6523 8.8863 10.3682 10.1704 10.3682 11.7544C10.3682 13.3384 11.6523 14.6226 13.2363 14.6226Z" fill="#57BEEA"/>
<path d="M13.2363 22.0998C7.52267 22.0998 2.89087 17.468 2.89087 11.7544C2.89087 6.04081 7.52267 1.40901 13.2363 1.40901C18.9499 1.40901 23.5817 6.04081 23.5817 11.7544C23.5817 17.468 18.9499 22.0998 13.2363 22.0998ZM13.2363 21.5786C18.662 21.5786 23.0604 17.1801 23.0604 11.7544C23.0604 6.3287 18.662 1.93028 13.2363 1.93028C7.81055 1.93028 3.41214 6.3287 3.41214 11.7544C3.41214 17.1801 7.81055 21.5786 13.2363 21.5786Z" fill="#292929"/>
<path d="M18.2937 6.2093C19.8758 6.2093 21.1584 4.92675 21.1584 3.34465C21.1584 1.76255 19.8758 0.48 18.2937 0.48C16.7116 0.48 15.4291 1.76255 15.4291 3.34465C15.4291 4.92675 16.7116 6.2093 18.2937 6.2093Z" fill="#292929"/>
<path d="M18.1918 23.6648C19.7739 23.6648 21.0564 22.3822 21.0564 20.8001C21.0564 19.218 19.7739 17.9355 18.1918 17.9355C16.6097 17.9355 15.3271 19.218 15.3271 20.8001C15.3271 22.3822 16.6097 23.6648 18.1918 23.6648Z" fill="#292929"/>
<path d="M3.15268 15.2631C4.73478 15.2631 6.01733 13.9806 6.01733 12.3985C6.01733 10.8164 4.73478 9.53383 3.15268 9.53383C1.57057 9.53383 0.288025 10.8164 0.288025 12.3985C0.288025 13.9806 1.57057 15.2631 3.15268 15.2631Z" fill="#292929"/>
</svg>
