<svg width="24" height="24" viewBox="0 0 24 24" fill="none" xmlns="http://www.w3.org/2000/svg">
<path d="M12 24C18.6274 24 24 18.6274 24 12C24 5.37258 18.6274 0 12 0C5.37258 0 0 5.37258 0 12C0 18.6274 5.37258 24 12 24Z" fill="#00D4D5"/>
<path d="M12.3892 3.75V7.84275L15.9427 5.799L12.3892 3.75Z" fill="white"/>
<path opacity="0.9" d="M15.9427 5.799V9.89175L19.4955 7.84275L15.9427 5.799Z" fill="white"/>
<path opacity="0.8" d="M12.3892 7.84276V11.9355L15.9427 9.89176L12.3892 7.84276ZM15.9427 9.89251V13.9845L19.4955 11.9355L15.9427 9.89251Z" fill="white"/>
<path opacity="0.8" d="M12.3892 11.9355V16.0283L15.9427 13.9845L12.3892 11.9355Z" fill="white"/>
<path d="M15.9427 13.9845V18.0773L19.4955 16.0283L15.9427 13.9845Z" fill="white"/>
<path opacity="0.4" d="M3.20477 7.70475V11.7975L6.75827 9.7485L3.20477 7.70475Z" fill="white"/>
<path opacity="0.2" d="M7.6875 9.2265V13.3193L11.235 11.2755L7.6875 9.2265Z" fill="white"/>
<path opacity="0.3" d="M5.05353 11.8148V15.9075L8.60628 13.8585L5.05353 11.8148Z" fill="white"/>
<path opacity="0.9" d="M7.39502 14.9033V18.996L10.9425 16.947L7.39502 14.9033Z" fill="white"/>
<path opacity="0.7" d="M12.36 16.665V20.7585L15.9075 18.7088L12.36 16.665Z" fill="white"/>
<path opacity="0.9" d="M8.27924 7.20525V11.2988L11.8267 9.255L8.27924 7.20525Z" fill="white"/>
<path opacity="0.8" d="M12.3893 3.75V7.84275L8.83575 5.799L12.3893 3.75Z" fill="white"/>
<path opacity="0.6" d="M8.27923 5.49V9.582L4.72498 7.533L8.27923 5.49Z" fill="white"/>
<path opacity="0.6" d="M11.8327 7.515V11.6085L8.27924 9.55874L11.8327 7.515Z" fill="white"/>
<path opacity="0.95" d="M7.67099 9.2265V13.3193L4.11749 11.2755L7.67099 9.2265Z" fill="white"/>
<path opacity="0.6" d="M12.3892 11.9355V16.0283L8.84174 13.9845L12.3892 11.9355Z" fill="white"/>
<path opacity="0.55" d="M5.0535 12.8887V16.9815L1.5 14.9317L5.0535 12.8887Z" fill="white"/>
<path d="M19.4955 7.84276V11.9355L15.9427 9.89176L19.4955 7.84276Z" fill="white"/>
<path opacity="0.95" d="M15.9427 9.8925V13.9845L12.3892 11.9355L15.9427 9.8925Z" fill="white"/>
<path opacity="0.9" d="M19.4955 11.9355V16.0283L15.9427 13.9845L19.4955 11.9355Z" fill="white"/>
<path opacity="0.7" d="M15.9427 13.9845V18.0773L12.3892 16.0283L15.9427 13.9845Z" fill="white"/>
<path opacity="0.4" d="M11.6025 15.69V19.7828L8.04974 17.739L11.6025 15.69Z" fill="white"/>
<path d="M15.9427 5.799V9.89175L12.3892 7.84275L15.9427 5.799Z" fill="white"/>
</svg>
