<svg width="749" height="740" viewBox="0 0 749 740" fill="none" xmlns="http://www.w3.org/2000/svg">
    <g clip-path="url(#clip0_3620:24843)">
        <path d="M374.549 740.242C581.504 740.242 749.275 574.503 749.275 370.052C749.275 165.602 581.504 -0.138184 374.549 -0.138184C167.593 -0.138184 -0.177246 165.602 -0.177246 370.052C-0.177246 574.503 167.593 740.242 374.549 740.242Z" fill="#F0827D" />
        <path d="M375.712 680.23C551.443 680.23 693.9 541.242 693.9 369.791C693.9 198.34 551.443 59.351 375.712 59.351C199.982 59.351 57.5244 198.34 57.5244 369.791C57.5244 541.242 199.982 680.23 375.712 680.23Z" fill="white" />
        <path d="M376.529 665.462C542.331 665.462 676.74 533.883 676.74 371.572C676.74 209.261 542.331 77.6816 376.529 77.6816C210.728 77.6816 76.3188 209.261 76.3188 371.572C76.3188 533.883 210.728 665.462 376.529 665.462Z" fill="#F0827D" />
        <path fill-rule="evenodd" clip-rule="evenodd" d="M393.068 260.662C393.068 254.84 388.867 250.12 383.684 250.12C383.684 250.12 383.679 250.12 383.673 250.12C378.496 250.12 374.294 254.84 374.294 260.662C374.294 303.141 374.294 461.566 374.294 504.052C374.294 509.874 378.496 514.594 383.673 514.594C383.679 514.594 383.684 514.594 383.684 514.594C388.867 514.594 393.068 509.874 393.068 504.052C393.068 461.566 393.068 303.141 393.068 260.662V260.662Z" fill="white" />
        <path fill-rule="evenodd" clip-rule="evenodd" d="M355.16 461.247C349.98 461.242 345.775 465.958 345.771 471.78C345.771 471.78 345.771 471.786 345.771 471.793C345.767 477.609 349.964 482.332 355.145 482.337C369.557 482.351 396.985 482.376 411.397 482.39C416.58 482.395 420.784 477.679 420.789 471.863C420.789 471.856 420.789 471.85 420.789 471.85C420.793 466.028 416.595 461.304 411.413 461.3C397.001 461.286 369.572 461.26 355.16 461.247V461.247Z" fill="white" />
        <path fill-rule="evenodd" clip-rule="evenodd" d="M308.782 323.363C303.597 323.358 299.396 328.073 299.392 333.896C299.392 333.896 299.392 333.902 299.392 333.908C299.387 339.725 303.582 344.448 308.766 344.453C338.221 344.48 428.628 344.565 458.083 344.592C463.263 344.597 467.469 339.881 467.473 334.065C467.473 334.059 467.473 334.053 467.473 334.053C467.477 328.23 463.278 323.507 458.098 323.502C428.644 323.475 338.236 323.39 308.782 323.363V323.363Z" fill="white" />
        <path fill-rule="evenodd" clip-rule="evenodd" d="M339.719 270.079C336.051 265.967 330.11 265.975 326.449 270.096C326.449 270.096 326.445 270.1 326.441 270.105C322.784 274.222 322.79 280.896 326.458 285.008C346.663 307.657 407.239 375.561 427.443 398.21C431.112 402.322 437.053 402.314 440.71 398.197C440.714 398.193 440.718 398.188 440.718 398.188C444.378 394.067 444.372 387.393 440.704 383.281C420.5 360.632 359.923 292.727 339.719 270.079V270.079Z" fill="white" />
        <path fill-rule="evenodd" clip-rule="evenodd" d="M326.58 383.461C322.923 387.585 322.933 394.259 326.604 398.369C326.604 398.369 326.608 398.373 326.612 398.378C330.28 402.483 336.221 402.472 339.879 398.348C360.026 375.636 420.432 307.539 440.579 284.827C444.237 280.703 444.226 274.029 440.559 269.924C440.555 269.919 440.551 269.915 440.551 269.915C436.88 265.805 430.939 265.816 427.281 269.94C407.134 292.652 346.728 360.749 326.58 383.461V383.461Z" fill="white" />
    </g>
    <defs>
        <clipPath id="clip0_3620:24843">
            <rect width="749" height="740" fill="white" />
        </clipPath>
    </defs>
</svg>
    