<svg width="24" height="24" viewBox="0 0 24 24" fill="none" xmlns="http://www.w3.org/2000/svg">
<g clip-path="url(#clip0)">
<path d="M12.3037 3.06025C12.3037 3.06025 14.7667 4.04542 16.9012 8.91658C17.1612 9.77158 17.3264 10.6526 17.3938 11.5437C17.3938 11.5437 17.5033 14.7729 15.1498 15.7581C14.85 15.8445 14.5912 16.0357 14.4204 16.2969C14.2496 16.558 14.1783 16.8718 14.2194 17.1811C14.3288 18.3305 14.5478 20.1366 14.5478 20.5198C14.5144 20.832 14.368 21.1212 14.1361 21.3329C13.9042 21.5447 13.6029 21.6642 13.2889 21.6691C12.4721 21.7858 11.6428 21.7858 10.826 21.6691C10.005 21.4502 9.89553 21.0124 9.89553 21.0124C9.89553 21.0124 9.5124 20.465 9.78606 18.0568C9.78606 18.0568 10.3334 16.3601 8.74615 15.7033C7.15892 15.0466 6.6116 12.1458 6.6116 12.1458C6.6116 12.1458 6.11902 9.2997 9.18401 5.30426C9.18401 5.30426 11.0996 2.89605 12.249 3.00551" fill="url(#paint0_linear)"/>
<path d="M9.45765 4.64199L9.29346 4.80619L9.45765 4.64199Z" fill="url(#paint1_linear)"/>
<path d="M8.1441 6.34416C7.30337 5.74878 6.35558 5.32134 5.35277 5.08533C4.34511 4.87079 3.31801 4.76075 2.28778 4.75693H1.57626C1.33885 4.74814 1.10249 4.79275 0.884615 4.88747C0.666741 4.9822 0.472912 5.12463 0.317422 5.30425C0.179456 5.4688 0.0826715 5.66384 0.0350823 5.87324C-0.0125069 6.08263 -0.00953161 6.30034 0.0437618 6.50836C0.372908 8.7697 1.36307 10.8833 2.88983 12.5836C3.65684 13.3976 4.52075 14.1145 5.46223 14.7182C6.43362 15.2784 7.48604 15.6846 8.58196 15.9223C6.94 15.2108 6.39268 12.2552 6.39268 12.2552C4.80545 11.27 3.76554 9.79228 2.99929 7.603H3.05402C4.44455 7.63378 5.79555 8.07143 6.94 8.86184C7.20482 7.96388 7.6113 7.11396 8.1441 6.34416Z" fill="url(#paint2_linear)"/>
<path d="M17.0654 8.86183C18.2065 8.06462 19.5596 7.62628 20.9514 7.60299H21.0061C20.2399 9.79228 19.1453 11.27 17.558 12.2552V11.9268C17.5033 12.8025 17.1749 15.156 15.2593 15.977C16.4127 15.7305 17.5206 15.3058 18.5432 14.7182C19.5292 14.1776 20.4025 13.453 21.1156 12.5836C22.6006 10.856 23.5848 8.7551 23.9617 6.50835C24.015 6.30034 24.0179 6.08262 23.9704 5.87323C23.9228 5.66384 23.826 5.46879 23.688 5.30425C23.5247 5.13443 23.3294 4.99863 23.1133 4.90469C22.8973 4.81075 22.6647 4.76053 22.4292 4.75693H21.7177C20.6871 4.75509 19.6594 4.8652 18.6527 5.08532C17.6223 5.31871 16.6527 5.76626 15.8066 6.39889C16.3073 7.17585 16.729 8.00094 17.0654 8.86183Z" fill="url(#paint3_linear)"/>
</g>
<defs>
<linearGradient id="paint0_linear" x1="6.55687" y1="12.3811" x2="17.3665" y2="12.3811" gradientUnits="userSpaceOnUse">
<stop stop-color="#29DCE8"/>
<stop offset="1" stop-color="#29DC93"/>
</linearGradient>
<linearGradient id="paint1_linear" x1="12.0831" y1="10.2411" x2="12.1258" y2="10.2411" gradientUnits="userSpaceOnUse">
<stop stop-color="#29DCE8"/>
<stop offset="1" stop-color="#29DC93"/>
</linearGradient>
<linearGradient id="paint2_linear" x1="1.20273" y1="271.075" x2="134.801" y2="271.075" gradientUnits="userSpaceOnUse">
<stop stop-color="#29DCE8"/>
<stop offset="1" stop-color="#29DC93"/>
</linearGradient>
<linearGradient id="paint3_linear" x1="259.324" y1="271.795" x2="398.102" y2="271.795" gradientUnits="userSpaceOnUse">
<stop stop-color="#29DCE8"/>
<stop offset="1" stop-color="#29DC93"/>
</linearGradient>
<clipPath id="clip0">
<rect width="24" height="24" fill="white"/>
</clipPath>
</defs>
</svg>
