<svg width="24" height="24" viewBox="0 0 24 24" fill="none" xmlns="http://www.w3.org/2000/svg">
<path d="M23.5586 11.531L20.3034 11.6138H20.2759H20.2483H20.1931H20.1655L20.1103 11.6414H20.0828C20.0552 11.6414 20.0552 11.669 20.0276 11.669L16.9655 14.2069L12.3862 11.5862V9.10345L16.9379 9.51724H16.9931C17.0207 9.51724 17.0207 9.51724 17.0483 9.51724H17.0759C17.1034 9.51724 17.131 9.51724 17.1586 9.48966H17.1862L17.2138 9.46207L19.3931 8.1931L22.9793 9.76552C23.2 9.84828 23.4483 9.76552 23.5586 9.54483C23.669 9.32414 23.5586 9.07586 23.3379 8.96552L20.331 7.66897L22.1793 6.62069C22.4 6.51034 22.4552 6.23448 22.3448 6.01379C22.2345 5.7931 21.9586 5.73793 21.7379 5.84828L17.2966 8.38621L16.7172 5.18621L20.3034 4.46897C20.469 4.44138 20.6069 4.33103 20.6345 4.1931C20.6897 4.02759 20.6621 3.86207 20.5517 3.75172C20.4414 3.64138 20.2759 3.58621 20.1379 3.61379L17.0759 4.24828L18.2621 2.2069C18.3448 2.06897 18.3448 1.90345 18.2621 1.76552C18.1793 1.62759 18.0414 1.54483 17.8759 1.54483C17.7103 1.54483 17.5724 1.62759 17.4897 1.76552L15.8897 4.46897C15.8621 4.49655 15.8621 4.52414 15.8621 4.55172C15.7793 4.66207 15.7241 4.77241 15.7517 4.91034L16.4138 8.57931L12.3586 8.22069V3.53103L15.2552 1.15862C15.4483 0.993103 15.4759 0.717241 15.3379 0.551724C15.2 0.386207 14.9241 0.331034 14.7586 0.468966L12.4138 2.4V0.413793C12.4138 0.193103 12.2207 0 11.9724 0C11.7241 0 11.5586 0.193103 11.531 0.413793V5.35172L8.55172 4.38621L9.51724 0.910345C9.57241 0.689655 9.46207 0.441379 9.21379 0.358621C8.96552 0.275862 8.74483 0.413793 8.66207 0.662069L7.83448 3.64138L6.53793 1.71034C6.4 1.51724 6.12414 1.46207 5.93103 1.6C5.73793 1.73793 5.68276 2.01379 5.82069 2.2069L7.64138 4.91034L7.66897 4.93793L7.69655 4.96552L7.72414 4.9931L7.75172 5.02069C7.77931 5.02069 7.77931 5.04828 7.8069 5.04828H7.83448C7.86207 5.04828 7.86207 5.07586 7.88966 5.07586L11.5586 6.26207V11.5862L9.32414 12.8828L7.36552 8.82759C7.33793 8.8 7.33793 8.77241 7.31034 8.74483C7.31034 8.74483 7.31034 8.74483 7.28276 8.71724C7.25517 8.68966 7.22759 8.66207 7.2 8.66207L5.02069 7.3931L4.52414 3.47586C4.49655 3.31034 4.41379 3.2 4.24828 3.11724C4.11034 3.06207 3.94483 3.08966 3.8069 3.17241C3.66897 3.25517 3.61379 3.42069 3.64138 3.58621L4.05517 6.84138L2.2069 5.76552C1.98621 5.65517 1.73793 5.73793 1.62759 5.93103C1.51724 6.12414 1.57241 6.4 1.76552 6.51034L6.23448 9.10345L3.77931 11.2276L1.32414 8.46897C1.15862 8.27586 0.882759 8.27586 0.717241 8.44138C0.551724 8.6069 0.524138 8.88276 0.689655 9.04828L2.78621 11.3655H0.441379C0.193103 11.3931 0 11.5862 0 11.8345C0 12.0828 0.193103 12.2759 0.441379 12.2759H3.58621C3.61379 12.2759 3.64138 12.2759 3.66897 12.2759C3.8069 12.3034 3.94483 12.2759 4.02759 12.1655L6.84138 9.71035L8.52414 13.3241L4.33103 15.7517L1.18621 14.2621C0.965517 14.1793 0.717241 14.2621 0.634483 14.4828C0.551724 14.7034 0.606897 14.9517 0.827586 15.0621L3.42069 16.3034L1.7931 17.2414C1.57241 17.3517 1.51724 17.6276 1.62759 17.8483C1.73793 18.069 2.01379 18.1241 2.23448 18.0138L4.57931 16.6621L6.62069 15.4759L7.06207 18.6759L3.53103 19.2828C3.31034 19.3379 3.14483 19.5586 3.2 19.7793C3.22759 20 3.44828 20.1655 3.66897 20.1379L6.67586 19.5862L5.48966 21.6C5.37931 21.8207 5.43448 22.069 5.65517 22.2069C5.87586 22.3172 6.12414 22.2621 6.26207 22.0414L7.91724 19.2276V19.2L7.94483 19.1724C7.94483 19.1448 7.94483 19.1448 7.97241 19.1172V19.0897C7.97241 19.0621 7.97241 19.0621 7.97241 19.0345V19.0069C7.97241 18.9793 7.97241 18.9517 7.97241 18.9241L7.44828 14.9517L12 12.331L13.8759 13.4345L11.3931 17.2966C11.3931 17.2966 11.3931 17.2966 11.3931 17.3241V17.3517C11.3931 17.3793 11.3655 17.3793 11.3655 17.4069C11.3655 17.4345 11.3655 17.4621 11.3379 17.4897C11.3379 17.4897 11.3379 17.4897 11.3379 17.5172C11.3379 17.5448 11.3379 17.5448 11.3379 17.5724L11.3931 20.1103L8.33103 22.5655C8.13793 22.7034 8.11034 22.9793 8.27586 23.1724C8.41379 23.3655 8.68966 23.3931 8.88276 23.2276L11.4207 21.1862L11.4759 23.3379C11.5034 23.5586 11.6966 23.7517 11.9172 23.7517C12.1379 23.7517 12.331 23.5586 12.331 23.3103L12.1655 18.1517L15.2552 19.1448L14.2069 22.6759C14.1517 22.8414 14.1793 23.0069 14.2897 23.1172C14.4 23.2276 14.5655 23.2828 14.7034 23.2552C14.8414 23.2276 14.9793 23.0897 15.0069 22.9241L15.8897 19.9172L17.1034 21.9034C17.1862 22.0414 17.3241 22.1241 17.4897 22.1241C17.6552 22.1241 17.7931 22.0414 17.8483 21.9034C17.931 21.7655 17.9034 21.6 17.8483 21.4621L16.2759 18.7586C16.2483 18.731 16.2483 18.7034 16.2207 18.6759C16.1655 18.5379 16.0828 18.4552 15.9448 18.4L12.4138 17.269L14.6207 13.8483L19.1448 16.4966L19.4207 20.1655C19.4483 20.3862 19.6414 20.5517 19.8897 20.5517C20.1379 20.5517 20.3034 20.331 20.3034 20.1103L20.0828 17.0483L21.7103 17.9862C21.8483 18.069 22.0138 18.069 22.1517 17.9862C22.2897 17.9034 22.3724 17.7655 22.3724 17.6C22.3724 17.4345 22.2897 17.2966 22.1517 17.2138L19.8069 15.8621L17.8207 14.7034L20.3034 12.6345L22.6759 15.3379C22.8414 15.531 23.1172 15.531 23.2828 15.3655C23.4759 15.2 23.4759 14.9241 23.3103 14.7586L21.2414 12.469L23.5586 12.4138C23.8069 12.4138 24 12.1931 24 11.9724C24 11.6966 23.7793 11.5034 23.5586 11.531Z" fill="#1AEEC2"/>
</svg>
