<svg width="24" height="24" viewBox="0 0 24 24" fill="none" xmlns="http://www.w3.org/2000/svg">
<g clip-path="url(#clip0)">
<path d="M11.1588 11.9982L20.1074 17.124C20.1793 17.1672 20.2614 17.1905 20.3453 17.1914C20.4292 17.1924 20.5118 17.171 20.5847 17.1295C20.6576 17.0879 20.7182 17.0277 20.7601 16.955C20.802 16.8823 20.8238 16.7998 20.8232 16.7159V7.2734C20.8243 7.18935 20.8027 7.10657 20.7608 7.0337C20.7189 6.96084 20.6582 6.90059 20.585 6.85924C20.5119 6.81789 20.4289 6.79698 20.3449 6.79868C20.2608 6.80038 20.1788 6.82465 20.1074 6.86892L11.1588 11.9982Z" fill="#31CB9E"/>
<path d="M19.9177 4.59957L13.8005 0.100239C13.7371 0.0516132 13.6628 0.0193151 13.584 0.00619181C13.5053 -0.00693145 13.4245 -0.000476783 13.3488 0.0249869C13.2731 0.0504505 13.2048 0.0941411 13.15 0.152208C13.0952 0.210274 13.0555 0.280934 13.0345 0.357958L10.8009 10.3803L19.864 5.36914C19.933 5.33367 19.9916 5.28101 20.0343 5.21626C20.0769 5.1515 20.1022 5.07684 20.1076 4.99948C20.113 4.92212 20.0984 4.84467 20.0651 4.77462C20.0318 4.70457 19.981 4.64428 19.9177 4.59957Z" fill="#31CB9E"/>
<path d="M13.7933 23.8926L19.9177 19.3933C19.9819 19.3482 20.0334 19.2873 20.0674 19.2165C20.1013 19.1457 20.1165 19.0674 20.1115 18.9891C20.1064 18.9108 20.0814 18.835 20.0386 18.7692C19.9959 18.7033 19.937 18.6495 19.8676 18.613L10.8009 13.6018L13.0345 23.6242C13.053 23.702 13.0906 23.7741 13.1438 23.8338C13.1971 23.8936 13.2644 23.9392 13.3396 23.9665C13.4148 23.9938 13.4957 24.002 13.5749 23.9904C13.6541 23.9788 13.7291 23.9476 13.7933 23.8998" fill="#31CB9E"/>
<path d="M8.83223 11.8121L11.1589 0.930659C11.1766 0.840488 11.1671 0.747065 11.1314 0.662349C11.0958 0.577633 11.0357 0.505479 10.9588 0.455121C10.8819 0.404764 10.7918 0.378495 10.6999 0.379677C10.608 0.380859 10.5185 0.409438 10.443 0.461755L4.48324 5.03267C4.33233 5.14845 4.2102 5.29752 4.12638 5.46827C4.04256 5.63901 3.99932 5.82681 4.00002 6.01701V17.6143C3.99709 17.8069 4.03927 17.9976 4.12317 18.171C4.20708 18.3444 4.33039 18.4958 4.48324 18.613L10.4143 23.1696C10.4899 23.2219 10.5794 23.2505 10.6713 23.2517C10.7631 23.2528 10.8533 23.2266 10.9302 23.1762C11.0071 23.1259 11.0672 23.0537 11.1028 22.969C11.1384 22.8843 11.148 22.7909 11.1302 22.7007L8.83223 11.8121Z" fill="#31CB9E"/>
</g>
<defs>
<clipPath id="clip0">
<rect width="24" height="24" fill="white"/>
</clipPath>
</defs>
</svg>
