<svg width="24" height="24" viewBox="0 0 24 24" fill="none" xmlns="http://www.w3.org/2000/svg">
<g clip-path="url(#clip0)">
<path d="M23.9728 0.0272141H0.0272217V23.9728H23.9728V0.0272141Z" fill="black" stroke="black" stroke-miterlimit="10"/>
<path d="M20.332 6.93334C20.049 6.71021 19.7115 6.40544 19.0966 6.32925C18.5197 6.25306 17.932 6.63946 17.5347 6.89524C17.1374 7.15102 16.3864 7.90205 16.0762 8.13062C15.766 8.35919 14.9714 8.57143 13.6925 9.33878C12.4136 10.1061 7.3959 13.3279 7.3959 13.3279L8.70202 13.3442L2.87889 16.3429H3.4612L2.62311 16.9796C2.62311 16.9796 3.36324 17.1755 3.98365 16.7837V16.9633C3.98365 16.9633 10.917 14.2313 12.2558 14.9388L11.4394 15.1782C11.5102 15.1782 12.8272 15.2653 12.8272 15.2653C12.8592 15.538 12.9508 15.8004 13.0957 16.0336C13.2405 16.2669 13.435 16.4654 13.6653 16.615C14.4598 17.1374 14.4762 17.4259 14.4762 17.4259C14.4762 17.4259 14.0626 17.5946 14.0626 17.8068C14.0626 17.8068 14.6721 17.6218 15.2381 17.6381C15.5973 17.6517 15.9536 17.7084 16.2993 17.8068C16.2993 17.8068 16.2558 17.5783 15.7061 17.4259C15.1564 17.2735 14.6122 16.6749 14.3456 16.3483C14.1822 16.1405 14.0758 15.8937 14.0366 15.6323C13.9975 15.3708 14.0271 15.1037 14.1224 14.8572C14.3129 14.3619 14.9768 14.0898 16.3483 13.3823C17.9646 12.5442 18.3347 11.9238 18.5632 11.4395C18.7918 10.9551 19.1292 9.99185 19.3197 9.54014C19.5592 8.95783 19.853 8.64763 20.0979 8.46259C20.3428 8.27756 21.4313 7.86939 21.4313 7.86939C21.4313 7.86939 20.5986 7.14558 20.332 6.93334Z" fill="white"/>
</g>
<defs>
<clipPath id="clip0">
<rect width="24" height="24" fill="white"/>
</clipPath>
</defs>
</svg>
