<svg width="24" height="24" viewBox="0 0 24 24" fill="none" xmlns="http://www.w3.org/2000/svg">
<g clip-path="url(#clip0)">
<path d="M13.2926 13.0988H15.7271L14.5206 9.71635L13.2926 13.0988Z" fill="#161F37"/>
<path d="M12 0C9.62663 0 7.30655 0.703788 5.33316 2.02236C3.35977 3.34094 1.8217 5.21509 0.913451 7.4078C0.00519946 9.60051 -0.232441 12.0133 0.230582 14.3411C0.693605 16.6689 1.83649 18.8071 3.51472 20.4853C5.19295 22.1635 7.33115 23.3064 9.65892 23.7694C11.9867 24.2324 14.3995 23.9948 16.5922 23.0866C18.7849 22.1783 20.6591 20.6402 21.9776 18.6668C23.2962 16.6935 24 14.3734 24 12C23.9954 8.8188 22.7297 5.7692 20.4803 3.51975C18.2308 1.27031 15.1812 0.00455923 12 0V0ZM17.3645 17.6876L16.5458 15.3824H12.474L11.6553 17.6876H4.33035L8.40216 6.33393H10.8366L7.58349 15.3824H10.018L13.2711 6.33393H15.7271L19.8205 17.6876H17.3645Z" fill="#161F37"/>
</g>
<defs>
<clipPath id="clip0">
<rect width="24" height="24" fill="white"/>
</clipPath>
</defs>
</svg>
