<svg width="24" height="24" viewBox="0 0 24 24" fill="none" xmlns="http://www.w3.org/2000/svg">
<path fill-rule="evenodd" clip-rule="evenodd" d="M11.0725 3.20554C10.438 2.82349 8.79467 3.53243 8.56454 4.27791C8.22665 5.37239 11.0576 7.96693 11.5424 7.70837C11.8018 7.57005 12.0875 3.81665 11.0725 3.20554Z" fill="#F5A51E"/>
<path fill-rule="evenodd" clip-rule="evenodd" d="M10.7951 8.24483C10.8807 7.96351 8.42864 5.10745 7.27883 5.39303C6.55995 5.57155 5.8993 7.23488 6.26368 7.92473C6.79877 8.93758 10.635 8.77041 10.7951 8.24483Z" fill="#F5A51E"/>
<path fill-rule="evenodd" clip-rule="evenodd" d="M10.6458 9.15251C10.5075 8.89307 6.75418 8.60737 6.143 9.62241C5.76096 10.2569 6.4699 11.9002 7.21538 12.1303C8.30986 12.4682 10.9044 9.6373 10.6458 9.15251Z" fill="#F5A51E"/>
<path fill-rule="evenodd" clip-rule="evenodd" d="M11.1823 9.89982C10.901 9.81416 8.04501 12.2662 8.33059 13.4161C8.50911 14.1349 10.1724 14.7956 10.8622 14.4311C11.8751 13.8961 11.7079 10.0598 11.1823 9.89982Z" fill="#F5A51E"/>
<path fill-rule="evenodd" clip-rule="evenodd" d="M12.09 10.049C11.8306 10.1873 11.5449 13.9406 12.5599 14.5518C13.1944 14.9338 14.8377 14.2249 15.0678 13.4794C15.4057 12.3849 12.5748 9.7904 12.09 10.049Z" fill="#F5A51E"/>
<path fill-rule="evenodd" clip-rule="evenodd" d="M12.8374 9.51251C12.7518 9.79383 15.2038 12.6498 16.3536 12.3643C17.0724 12.1858 17.7332 10.5225 17.3688 9.83261C16.8337 8.81976 12.9973 8.98688 12.8374 9.51251Z" fill="#F5A51E"/>
<path fill-rule="evenodd" clip-rule="evenodd" d="M16.417 5.627C15.3224 5.28911 12.7279 8.12004 12.9865 8.60477C13.1249 8.86422 16.8782 9.14991 17.4893 8.13494C17.8714 7.50042 17.1624 5.85713 16.417 5.627Z" fill="#F5A51E"/>
<path fill-rule="evenodd" clip-rule="evenodd" d="M12.4501 7.85746C12.7313 7.94312 15.5873 5.4911 15.3018 4.34123C15.1232 3.62241 13.46 2.96176 12.7702 3.32613C11.7573 3.86117 11.9244 7.6975 12.4501 7.85746Z" fill="#F5A51E"/>
<path fill-rule="evenodd" clip-rule="evenodd" d="M17.6865 12.6555C17.3436 13.1057 16.9548 13.616 16.5618 14.2641C14.8814 17.0357 12.7698 20.0184 11.747 21.4335C10.7242 20.0184 8.61258 17.0357 6.93217 14.2641C6.53924 13.616 6.15051 13.1057 5.80748 12.6555C4.96801 11.5536 4.41341 10.8257 4.41341 8.90696C4.41341 6.08908 5.5715 4.00333 7.85534 2.70768C9.77439 1.61888 11.7291 1.52205 11.7451 1.52205C11.7633 1.52234 13.7255 1.63507 15.6329 2.71903C17.9206 4.01911 19.0806 6.10097 19.0806 8.90696C19.0806 10.8257 18.526 11.5537 17.6865 12.6555ZM16.3492 1.37551C14.3197 0.233438 12.2028 0 11.747 0C11.2834 0 9.13922 0.233557 7.11772 1.37622C5.18968 2.46597 2.89136 4.65712 2.89136 8.90696C2.89136 11.3395 3.6817 12.3767 4.59678 13.5779C4.93248 14.0185 5.27959 14.4741 5.63067 15.0532C7.96357 18.9011 11.1047 23.1359 11.1362 23.1782L11.747 24L12.3578 23.1782C12.3893 23.1359 15.5305 18.9011 17.8633 15.0532C18.2144 14.4741 18.5615 14.0185 18.8972 13.5779C19.8123 12.3768 20.6026 11.3395 20.6026 8.90696C20.6026 4.66049 18.2895 2.46745 16.3492 1.37551Z" fill="#F5A51E"/>
</svg>
