<svg width="24" height="24" viewBox="0 0 24 24" fill="none" xmlns="http://www.w3.org/2000/svg">
<g clip-path="url(#clip0)">
<path d="M12.0395 24H13.6638L22.079 15.1208L20.1658 14.9456L12.0395 24Z" fill="#005F60"/>
<path d="M12.3378 6.47833H13.9621L22.079 15.1208H19.9764L12.3378 6.47833Z" fill="#005F60"/>
<path d="M5.63696 9.4144L8.11842 8.94084L14.2321 2.41992H12.4989L5.63696 9.4144Z" fill="#005F60"/>
<path d="M12.1152 15.2439H13.9858L8.07579 8.89819L6.03949 8.65668L12.1152 15.2439Z" fill="#005F60"/>
<path d="M10.0931 17.5169H11.7127L13.9858 15.2438L12.1768 14.9124L10.0931 17.5169Z" fill="#005F60"/>
<path d="M10.363 0H12.0394L14.232 2.41989L12.6077 2.55722L10.363 0Z" fill="#005F60"/>
<path d="M10.3631 0L2 8.94081L10.0931 17.517L12.3378 15.2439L6.49408 8.94081L12.6077 2.41989L10.3631 0Z" fill="url(#paint0_linear)"/>
<path d="M10.0931 8.89822L12.3378 6.47833L20.4546 15.1208L12.0395 24L9.7569 21.6417L15.9463 15.1208L10.0931 8.89822Z" fill="url(#paint1_linear)"/>
</g>
<defs>
<linearGradient id="paint0_linear" x1="7.30387" y1="0" x2="7.30387" y2="17.517" gradientUnits="userSpaceOnUse">
<stop stop-color="#00615F"/>
<stop offset="0.5" stop-color="#187320"/>
<stop offset="1" stop-color="#74BC20"/>
</linearGradient>
<linearGradient id="paint1_linear" x1="15.1058" y1="6.47833" x2="15.1058" y2="24" gradientUnits="userSpaceOnUse">
<stop stop-color="#00615F"/>
<stop offset="0.5" stop-color="#187320"/>
<stop offset="1" stop-color="#74BC20"/>
</linearGradient>
<clipPath id="clip0">
<rect width="24" height="24" fill="white"/>
</clipPath>
</defs>
</svg>
