<svg width="24" height="24" viewBox="0 0 24 24" fill="none" xmlns="http://www.w3.org/2000/svg">
<path d="M12.0516 0C15.7177 5.01312 19.35 10.0541 23.016 15.0692C19.36 18.0402 15.7091 21.0171 12.0634 24C8.3576 21.027 4.66796 18.0382 0.959961 15.0692C4.66972 10.056 8.36692 5.03296 12.0516 0ZM5.54156 14.484C7.15808 15.772 8.7548 17.0819 10.3754 18.364C10.3794 14.8789 10.3912 11.392 10.3694 7.905C8.77868 10.1117 7.14224 12.2848 5.54156 14.484ZM13.7317 7.96056C13.7237 11.4238 13.7237 14.8882 13.7317 18.354C15.2966 17.046 16.8933 15.778 18.4642 14.478C16.8834 12.3066 15.2985 10.14 13.7317 7.96032V7.96056Z" fill="#3D82F3"/>
</svg>
