<svg width="24" height="24" viewBox="0 0 24 24" fill="none" xmlns="http://www.w3.org/2000/svg">
<path d="M12 24C18.6274 24 24 18.6274 24 12C24 5.37258 18.6274 0 12 0C5.37258 0 0 5.37258 0 12C0 18.6274 5.37258 24 12 24Z" fill="black"/>
<path d="M6.50476 16.5052L11.7218 19.7872H12.3533L17.4863 16.5052L16.6868 15.8745L12.0165 18.8617L7.17826 15.8745L6.50476 16.5052ZM9.02926 8.89049L11.9745 4.43024L15.0038 8.93249L15.7193 8.30099L12.3533 3.25274C12.3533 3.25274 12.0585 2.87399 11.5958 3.25274L8.14576 8.42774L9.02926 8.89049Z" fill="white" fill-opacity="0.703"/>
<path d="M12.0585 17.8942C12.2265 17.3047 12.4373 16.758 12.606 16.1692C13.3635 13.8127 14.1203 11.4142 14.8778 9.05849C14.9198 8.93249 14.9618 8.76374 15.0038 8.63849C15.0878 8.38499 15.2138 8.25899 15.4665 8.25899C15.5763 8.2561 15.6834 8.29277 15.7683 8.3623C15.8533 8.43183 15.9104 8.52959 15.9293 8.63774C16.1393 9.47924 16.308 10.3627 16.518 11.2042C16.8968 12.8032 17.2335 14.4442 17.6123 16.0425C17.6963 16.4212 17.5703 16.674 17.2755 16.758C16.9808 16.842 16.7708 16.632 16.6868 16.2532C16.266 14.4442 15.8453 12.6345 15.4665 10.7835C15.4665 10.6995 15.4245 10.6575 15.3825 10.5307C15.3476 10.6459 15.3053 10.7586 15.2558 10.8682C14.457 13.308 13.6995 15.7485 12.9 18.1882C12.774 18.651 12.6053 19.0717 12.4793 19.5345C12.3953 19.8292 12.2265 19.9552 11.9745 19.9552C11.7218 19.9552 11.5538 19.8292 11.4698 19.5352C10.5443 16.632 9.61801 13.7287 8.73451 10.8255C8.69251 10.7415 8.69251 10.6995 8.65051 10.5307C8.57546 10.9114 8.49144 11.2903 8.39851 11.667C8.06101 13.182 7.72501 14.7382 7.38826 16.2532C7.30426 16.6732 6.96826 16.884 6.63076 16.6732C6.42076 16.5472 6.37876 16.3372 6.42076 16.0845C6.88351 13.9807 7.38826 11.877 7.85101 9.77399C7.93501 9.43649 8.01976 9.10049 8.06101 8.76374C8.14576 8.42774 8.31376 8.25899 8.56651 8.25899C8.81926 8.25899 8.98651 8.42774 9.07126 8.76374C10.0388 11.7937 11.0063 14.865 11.9325 17.8942H12.0585Z" fill="white"/>
</svg>
