<svg width="24" height="24" viewBox="0 0 24 24" fill="none" xmlns="http://www.w3.org/2000/svg">
<path d="M3.79188 6.54224V9.24964C3.79193 9.32086 3.77794 9.3914 3.7507 9.45721C3.72347 9.52302 3.68353 9.58282 3.63317 9.63318C3.58281 9.68354 3.52301 9.72348 3.4572 9.75071C3.39139 9.77794 3.32086 9.79194 3.24963 9.79189H0.542243C0.47102 9.79194 0.400486 9.77794 0.334676 9.75071C0.268865 9.72348 0.209069 9.68354 0.158707 9.63318C0.108346 9.58282 0.0684066 9.52302 0.0411741 9.45721C0.0139417 9.3914 -5.0075e-05 9.32086 1.34655e-07 9.24964V6.54224C-5.0075e-05 6.47102 0.0139417 6.40049 0.0411741 6.33468C0.0684066 6.26886 0.108346 6.20907 0.158707 6.15871C0.209069 6.10834 0.268865 6.06841 0.334676 6.04117C0.400486 6.01394 0.47102 5.99995 0.542243 6H3.24963C3.32086 5.99995 3.39139 6.01394 3.4572 6.04117C3.52301 6.06841 3.58281 6.10834 3.63317 6.15871C3.68353 6.20907 3.72347 6.26886 3.7507 6.33468C3.77794 6.40049 3.79193 6.47102 3.79188 6.54224ZM7.55702 10.1737H4.84963C4.77841 10.1737 4.70787 10.1877 4.64206 10.2149C4.57625 10.2422 4.51646 10.2821 4.46609 10.3325C4.41573 10.3828 4.37579 10.4426 4.34856 10.5084C4.32133 10.5742 4.30734 10.6448 4.30739 10.716V17.2305C4.30734 17.3018 4.32133 17.3723 4.34856 17.4381C4.37579 17.5039 4.41573 17.5637 4.46609 17.6141C4.51646 17.6644 4.57625 17.7044 4.64206 17.7316C4.70787 17.7589 4.77841 17.7728 4.84963 17.7728H7.55702C7.62824 17.7728 7.69878 17.7589 7.76459 17.7316C7.8304 17.7044 7.8902 17.6644 7.94056 17.6141C7.99092 17.5637 8.03086 17.5039 8.05809 17.4381C8.08532 17.3723 8.09931 17.3018 8.09926 17.2305V10.716C8.09931 10.6448 8.08532 10.5742 8.05809 10.5084C8.03086 10.4426 7.99092 10.3828 7.94056 10.3325C7.8902 10.2821 7.8304 10.2422 7.76459 10.2149C7.69878 10.1877 7.62824 10.1737 7.55702 10.1737ZM15.6219 10.1737H13.579C13.3879 10.1738 13.1987 10.1362 13.0221 10.0631C12.8456 9.99 12.6852 9.88284 12.5501 9.74773C12.415 9.61262 12.3078 9.45222 12.2347 9.27568C12.1616 9.09914 12.124 8.90993 12.1241 8.71885V6.54224C12.1241 6.47102 12.1101 6.40049 12.0829 6.33468C12.0557 6.26886 12.0157 6.20907 11.9654 6.15871C11.915 6.10834 11.8552 6.06841 11.7894 6.04117C11.7236 6.01394 11.6531 5.99995 11.5818 6H8.87444C8.80322 5.99995 8.73268 6.01394 8.66687 6.04117C8.60106 6.06841 8.54127 6.10834 8.49091 6.15871C8.44055 6.20907 8.4006 6.26886 8.37337 6.33468C8.34614 6.40049 8.33215 6.47102 8.3322 6.54224V9.24964C8.33215 9.32086 8.34614 9.3914 8.37337 9.45721C8.4006 9.52302 8.44055 9.58282 8.49091 9.63318C8.54127 9.68354 8.60106 9.72348 8.66687 9.75071C8.73268 9.77794 8.80322 9.79194 8.87444 9.79189H9.86728C9.92168 9.78427 9.97655 9.78044 10.0315 9.78043H10.9174C11.1085 9.78038 11.2977 9.81798 11.4742 9.89107C11.6508 9.96417 11.8112 10.0713 11.9463 10.2064C12.0814 10.3416 12.1885 10.502 12.2616 10.6785C12.3347 10.855 12.3723 11.0442 12.3723 11.2353V17.2267C12.3722 17.298 12.3862 17.3685 12.4135 17.4343C12.4407 17.5001 12.4806 17.5599 12.531 17.6103C12.5814 17.6606 12.6412 17.7006 12.707 17.7278C12.7728 17.755 12.8433 17.769 12.9145 17.769H15.6219C15.6931 17.769 15.7637 17.755 15.8295 17.7278C15.8953 17.7006 15.9551 17.6606 16.0055 17.6103C16.0558 17.5599 16.0958 17.5001 16.123 17.4343C16.1502 17.3685 16.1642 17.298 16.1642 17.2267V10.716C16.1642 10.6448 16.1502 10.5742 16.123 10.5084C16.0958 10.4426 16.0558 10.3828 16.0055 10.3325C15.9551 10.2821 15.8953 10.2422 15.8295 10.2149C15.7637 10.1877 15.6931 10.1737 15.6219 10.1737ZM23.4615 10.1737H21.4186C21.2275 10.1738 21.0383 10.1362 20.8617 10.0631C20.6852 9.99 20.5248 9.88284 20.3897 9.74773C20.2546 9.61262 20.1474 9.45222 20.0743 9.27568C20.0012 9.09914 19.9636 8.90993 19.9637 8.71885V6.54224C19.9637 6.47102 19.9497 6.40049 19.9225 6.33468C19.8953 6.26886 19.8553 6.20907 19.805 6.15871C19.7546 6.10834 19.6948 6.06841 19.629 6.04117C19.5632 6.01394 19.4927 5.99995 19.4214 6H16.7102C16.639 5.99995 16.5685 6.01394 16.5027 6.04117C16.4368 6.06841 16.377 6.10834 16.3267 6.15871C16.2763 6.20907 16.2364 6.26886 16.2092 6.33468C16.1819 6.40049 16.1679 6.47102 16.168 6.54224V9.24964C16.1679 9.32086 16.1819 9.3914 16.2092 9.45721C16.2364 9.52302 16.2763 9.58282 16.3267 9.63318C16.377 9.68354 16.4368 9.72348 16.5027 9.75071C16.5685 9.77794 16.639 9.79194 16.7102 9.79189H17.7031C17.7575 9.78427 17.8123 9.78044 17.8673 9.78043H18.7532C18.9442 9.78038 19.1335 9.81798 19.31 9.89107C19.4865 9.96417 19.6469 10.0713 19.7821 10.2064C19.9172 10.3416 20.0243 10.502 20.0974 10.6785C20.1705 10.855 20.2081 11.0442 20.2081 11.2353V17.2267C20.208 17.298 20.222 17.3685 20.2492 17.4343C20.2765 17.5001 20.3164 17.5599 20.3668 17.6103C20.4171 17.6606 20.4769 17.7006 20.5427 17.7278C20.6086 17.755 20.6791 17.769 20.7503 17.769H23.4577C23.5289 17.769 23.5995 17.755 23.6653 17.7278C23.7311 17.7006 23.7909 17.6606 23.8412 17.6103C23.8916 17.5599 23.9315 17.5001 23.9588 17.4343C23.986 17.3685 24 17.298 23.9999 17.2267V10.716C24.001 10.6448 23.9878 10.5742 23.9611 10.5082C23.9345 10.4422 23.8949 10.3822 23.8447 10.3317C23.7946 10.2811 23.7349 10.2412 23.6691 10.214C23.6033 10.1869 23.5327 10.1732 23.4615 10.1737Z" fill="#231F20"/>
</svg>
