<svg width="24" height="24" viewBox="0 0 24 24" fill="none" xmlns="http://www.w3.org/2000/svg">
<path d="M12 24C18.6274 24 24 18.6274 24 12C24 5.37258 18.6274 0 12 0C5.37258 0 0 5.37258 0 12C0 18.6274 5.37258 24 12 24Z" fill="#00316D"/>
<path d="M13.617 14.9152C13.6072 14.8972 13.6057 14.8897 13.602 14.8875C13.137 14.6677 12.672 14.4472 12.2055 14.2305C12.1807 14.2185 12.1305 14.2215 12.1147 14.2387C11.9122 14.4562 11.7142 14.679 11.5132 14.9017C11.6587 15.009 13.4955 15.0097 13.617 14.9152ZM9.36149 9.543L9.31499 9.4455C9.27599 9.47325 9.22499 9.4935 9.19949 9.531C8.76984 10.1702 8.34284 10.8112 7.91849 11.454C7.89224 11.4945 7.89374 11.5537 7.88099 11.604C7.93349 11.5935 7.99199 11.5957 8.03474 11.5695C8.39907 11.3504 8.76011 11.1259 9.11774 10.896C9.1806 10.8517 9.22387 10.7848 9.23849 10.7092C9.28649 10.3342 9.31949 9.957 9.36149 9.543ZM18.3592 14.9805H18.9787C19.098 14.9805 19.1437 14.9355 19.068 14.8207C18.6742 14.2192 18.282 13.617 17.8867 13.0177C17.8657 12.9847 17.8177 12.9705 17.7817 12.948C17.763 12.9855 17.7307 13.023 17.727 13.0627C17.6812 13.6492 17.64 14.2357 17.595 14.8222C17.5867 14.934 17.6257 14.9842 17.7397 14.982C17.946 14.9775 18.1522 14.9805 18.3592 14.9805ZM5.05874 14.9355C5.15324 14.958 5.19974 14.979 5.24549 14.9797C5.91524 14.9812 6.58499 14.9797 7.25399 14.9812C7.38374 14.9812 7.41674 14.9355 7.36199 14.8102C7.15188 14.3337 6.94637 13.8552 6.74549 13.3747C6.68699 13.2345 6.63299 13.2412 6.54074 13.3402C6.18374 13.7257 5.82374 14.1075 5.46524 14.4907C5.33999 14.6257 5.21774 14.7607 5.05874 14.9355ZM14.955 11.4757C14.9985 11.5605 15.0127 11.5972 15.0345 11.6287L15.9405 12.9442C16.3147 13.488 16.6882 14.0317 17.0655 14.5732C17.091 14.6107 17.1405 14.631 17.178 14.6587C17.1975 14.6137 17.229 14.571 17.235 14.5245C17.25 14.397 17.253 14.2695 17.2612 14.142C17.3017 13.5607 17.3467 12.9802 17.3812 12.3997C17.3962 12.1522 17.289 12.0247 17.0542 11.9662C16.428 11.8095 15.8017 11.652 15.1747 11.4967C15.1185 11.4832 15.0592 11.4855 14.955 11.4757ZM14.796 7.6245L14.739 7.63425C14.7315 7.749 14.7202 7.8645 14.7165 7.98075L14.6332 10.809C14.6295 10.9125 14.6602 10.9665 14.7675 10.992C15.417 11.1495 16.065 11.3152 16.7145 11.475C16.7707 11.4885 16.833 11.4757 16.8922 11.475C16.8772 11.4172 16.8742 11.352 16.8465 11.301C16.1992 10.1235 15.5505 8.946 14.9002 7.77C14.8717 7.71825 14.8312 7.6725 14.796 7.6245ZM11.8822 13.4047C11.9002 13.305 11.9175 13.245 11.9197 13.185C11.9295 12.8707 11.9302 12.5565 11.9445 12.2422C11.9579 12.0028 11.8868 11.7663 11.7435 11.574C11.148 10.7477 10.5543 9.92024 9.96224 9.0915C9.93524 9.054 9.92399 9.00525 9.90524 8.96175L9.83474 9.00375C9.81749 9.06675 9.79049 9.129 9.78374 9.19275C9.73124 9.70275 9.68624 10.2127 9.62999 10.7212C9.62143 10.7748 9.62559 10.8295 9.64214 10.8811C9.65868 10.9327 9.68716 10.9797 9.72524 11.0182C10.3965 11.766 11.0632 12.5182 11.733 13.2682C11.769 13.3087 11.8125 13.3417 11.8822 13.4047ZM12.315 13.248L12.36 13.278C12.4012 13.2457 12.45 13.2202 12.483 13.1805C13.0532 12.4881 13.6215 11.7941 14.1877 11.0985C14.2225 11.0544 14.2429 11.0008 14.2462 10.9447C14.2732 10.0185 14.2965 9.09225 14.3175 8.166C14.319 8.115 14.2897 8.06325 14.274 8.01225C14.2327 8.052 14.175 8.08425 14.1517 8.13225C13.6267 9.24375 13.125 10.3665 12.5745 11.4637C12.2835 12.0442 12.33 12.6435 12.315 13.2487V13.248ZM9.68774 14.9812C10.0485 14.9812 10.41 14.9865 10.7707 14.9767C10.8531 14.9728 10.9313 14.9396 10.9912 14.883C11.2425 14.6197 11.478 14.3407 11.7285 14.0767C11.8222 13.9792 11.8012 13.9192 11.7217 13.8322C11.2985 13.3732 10.879 12.9107 10.4632 12.4447C10.3627 12.3322 10.305 12.333 10.215 12.456C9.64424 13.2367 9.06749 14.0122 8.49374 14.7915C8.46524 14.8305 8.45474 14.8822 8.43524 14.928C8.48549 14.946 8.53574 14.9782 8.58674 14.9782C8.95424 14.9827 9.32024 14.9812 9.68774 14.9812ZM10.0612 12.0067C9.86174 11.775 9.66599 11.5567 9.48074 11.328C9.40274 11.2327 9.34274 11.223 9.23774 11.2882C8.61074 11.6827 7.97699 12.0667 7.35149 12.4635C7.23824 12.5355 7.14899 12.6472 7.05299 12.7455C6.96374 12.837 6.97574 12.9375 7.02449 13.05C7.26824 13.6072 7.50599 14.1667 7.74674 14.7255C7.83824 14.9355 7.87274 14.9392 8.01299 14.7517C8.38424 14.2567 8.75399 13.7595 9.12374 13.2637L10.0612 12.0067ZM14.4075 11.4157C14.3587 11.4945 14.3355 11.5425 14.3025 11.5815C13.7085 12.306 13.1137 13.0305 12.5152 13.752C12.4177 13.8697 12.468 13.9162 12.5782 13.9665C13.266 14.2815 13.9507 14.6017 14.64 14.9152C14.7283 14.955 14.8237 14.9764 14.9205 14.9782C15.4875 14.9835 16.0552 14.982 16.623 14.979C16.6755 14.979 16.7287 14.955 16.782 14.9415C16.7632 14.886 16.755 14.8222 16.722 14.775C16.1988 14.0109 15.674 13.2479 15.1477 12.486C14.9152 12.1485 14.6812 11.811 14.4075 11.4157ZM11.9947 15.7485C9.41324 15.7485 6.83174 15.7477 4.25024 15.75C4.04924 15.75 3.86774 15.7275 3.78074 15.5115C3.69824 15.3067 3.79424 15.1552 3.92849 15.012C4.69949 14.1885 5.48099 13.374 6.23099 12.5325C6.51749 12.2115 6.73874 11.8297 6.98099 11.469C7.75724 10.308 8.52749 9.1425 9.30749 7.9845C9.38399 7.87125 9.50099 7.7565 9.62399 7.7115C9.79349 7.6485 9.93824 7.746 10.0462 7.9005C10.674 8.7975 11.3062 9.6915 11.937 10.587C12.0667 10.77 12.1132 10.764 12.2092 10.5555L14.1547 6.318C14.2312 6.1515 14.3325 6.00975 14.5297 6.00075C14.736 5.991 14.8612 6.11625 14.958 6.29325C15.9345 8.06475 16.8885 9.85125 17.9032 11.6002C18.5167 12.6577 19.227 13.656 19.8937 14.6812C19.9762 14.8072 20.0595 14.9325 20.1405 15.06C20.238 15.2137 20.2957 15.3825 20.2042 15.5527C20.1142 15.7177 19.9477 15.7492 19.773 15.7492C17.1802 15.7477 14.5875 15.7485 11.9947 15.7485Z" fill="white"/>
</svg>
