<svg width="24" height="24" viewBox="0 0 24 24" fill="none" xmlns="http://www.w3.org/2000/svg">
<path d="M12 24C18.6274 24 24 18.6274 24 12C24 5.37258 18.6274 0 12 0C5.37258 0 0 5.37258 0 12C0 18.6274 5.37258 24 12 24Z" fill="#0B1529"/>
<path fill-rule="evenodd" clip-rule="evenodd" d="M6.47025 15.093L10.4243 17.412V18.7087L5.25 15.6637V7.72125L12 3.75L18.75 7.72125V15.6637L13.5758 18.7087V17.4113L17.529 15.093L16.509 14.5035L16.6425 14.2717L17.6498 14.8538V8.96475L12.5347 11.9963V20.6663L12 21L11.4645 20.6663V11.9963L6.35025 8.96475V14.853L7.35675 14.2717L7.49025 14.5043L6.47025 15.093ZM11.8515 5.1105L6.885 8.02425L12 11.0565L17.115 8.02425L12.1193 5.09325V6.29625H11.8515V5.1105ZM11.8515 7.0545H12.1193V8.29725H11.8515V7.0545ZM11.8515 9.0555H12.1193V10.2983L11.985 10.359L11.8515 10.299V9.0555ZM16.0215 13.893L15.888 14.1255L14.811 13.503L14.9452 13.2712L16.0215 13.8937V13.893ZM14.3228 12.8925L14.1885 13.125L13.1122 12.5025L13.1273 12.357L13.2457 12.2715L14.3228 12.8925ZM7.97775 13.893L9.054 13.2712L9.18825 13.5037L8.112 14.1248L7.97775 13.893ZM9.67725 12.8925L10.7535 12.2715L10.8735 12.357L10.887 12.5033L9.81075 13.1243L9.67725 12.8925Z" fill="white"/>
</svg>
