<svg width="24" height="24" viewBox="0 0 24 24" fill="none" xmlns="http://www.w3.org/2000/svg">
<g clip-path="url(#clip0)">
<path d="M23.6375 14.9031C22.0343 21.3313 15.525 25.2438 9.09371 23.6406C2.66559 22.0375 -1.24379 15.525 0.359336 9.09689C1.95934 2.66876 8.47184 -1.24374 14.8968 0.359386C21.3281 1.96251 25.2406 8.47501 23.6375 14.9031Z" fill="#0007BC"/>
<path d="M19.203 12.7312L19.053 12.4906L16.6405 8.66874C16.4499 8.37187 16.1999 8.11875 15.9062 7.925C15.3593 7.57812 14.6905 7.46874 14.0624 7.62499C13.4405 7.77499 12.9093 8.17187 12.5874 8.725C12.4249 8.99375 12.2218 9.32812 12.0155 9.65624L11.3593 8.64375L11.3343 8.60937V8.6C11.1124 8.30312 10.8343 8.05312 10.5155 7.86562C10.0374 7.60624 9.48429 7.51875 8.94367 7.6125C8.42492 7.71562 7.94992 7.97812 7.5843 8.36562C7.48117 8.48125 7.39055 8.60625 7.31555 8.74062L5.5343 11.5656L4.78743 12.7437C4.4468 13.2875 4.32805 13.9437 4.4593 14.5719C4.58118 15.2 4.9593 15.75 5.49993 16.0937C5.86868 16.325 6.29368 16.4469 6.72805 16.4437C7.58117 16.4406 8.3718 16.0062 8.82492 15.2844L9.39367 14.3844L9.94367 15.2406C10.0905 15.4531 10.2655 15.65 10.4562 15.8219C10.5093 15.8687 10.5624 15.9156 10.6187 15.9562H10.6249C10.6624 15.9844 10.6999 16.0094 10.7437 16.0375C11.1124 16.275 11.5437 16.4031 11.9843 16.4031C12.4499 16.4 12.9062 16.2656 13.2937 16.0094L13.3405 15.9781L13.3843 15.95C13.5968 15.8 13.7874 15.6156 13.9437 15.4062L14.5905 14.4L15.1437 15.275C15.603 15.9937 16.3937 16.4281 17.2468 16.4281C17.678 16.4312 18.103 16.3094 18.4718 16.0812C19.5811 15.3875 19.9124 13.8562 19.203 12.7312ZM7.66242 8.94687C7.72805 8.83437 7.80305 8.73124 7.88742 8.63437C8.18742 8.31249 8.5843 8.09062 9.01554 7.99687C9.46554 7.91562 9.92492 7.99062 10.3249 8.20625C10.5968 8.36875 10.8343 8.58437 11.0218 8.83749L11.0374 8.85937L11.7937 10.0219C11.4405 10.55 11.1437 10.9844 11.1437 10.9937C10.8655 11.4187 10.4405 11.7281 9.94992 11.8562H9.92492C9.41242 12.0062 8.86555 11.9469 8.39367 11.6937L8.31867 11.65L8.25305 11.6062L8.19055 11.5625L8.13742 11.5187L8.08742 11.4781L8.0468 11.4437L8.01867 11.4187L8.00305 11.4031L7.9593 11.3531L7.90617 11.3062L7.89055 11.2906L7.86555 11.2656L7.84992 11.25L7.8343 11.2344L7.76242 11.175L7.7468 11.1625L7.72492 11.1469L7.68742 11.1187L7.66867 11.1062H7.6593L7.60617 11.0719L7.58742 11.0625H7.5718L7.5218 11.0344L7.4968 11.0187L7.43117 10.9875L7.39992 10.9656L7.36555 10.95L7.30305 10.925H7.29992L7.2218 10.9L7.19055 10.8937L7.12805 10.8781H7.0968L7.03742 10.8562H7.00305H6.97805H6.9468H6.90305H6.80617H6.77492H6.66555H6.64993L6.54368 10.8719H6.5343L6.4218 10.8969L7.66242 8.94687ZM8.5093 15.075C8.21867 15.5312 7.76555 15.8562 7.24367 15.9875C6.72805 16.1219 6.17805 16.0406 5.72805 15.7562C4.81243 15.1812 4.54055 13.8969 5.1343 12.9469L5.87805 11.7687C5.93118 11.6875 5.99055 11.6156 6.0593 11.5469C6.26243 11.3531 6.5343 11.2437 6.81555 11.2437H6.89055H6.91555H6.96555H6.99055H7.0343H7.05305L7.08742 11.25H7.09992H7.11867L7.1593 11.2656H7.17805L7.24367 11.2906L7.26242 11.2969L7.29055 11.3125H7.30617L7.33117 11.325L7.35617 11.3406H7.36867L7.39367 11.3562L7.43117 11.3812H7.44367H7.45305L7.47492 11.3969L7.49992 11.4125H7.5093L7.56555 11.4625H7.5718L7.60617 11.4969L7.61555 11.5062L7.62805 11.5219L7.6468 11.5437L9.19055 14.025L8.5093 15.075ZM13.6405 15.1687C13.5062 15.35 13.3499 15.5094 13.1624 15.6406L13.128 15.6656L13.0843 15.6937C12.4468 16.1219 11.6155 16.1312 10.9655 15.7219L10.8655 15.6531H10.853C10.8093 15.6187 10.7624 15.5844 10.7187 15.5437C10.553 15.3937 10.403 15.225 10.2749 15.0406L9.56554 13.9219L8.4718 12.1812L8.5093 12.1969L8.61242 12.2312L8.6718 12.25L8.77492 12.275L8.84367 12.2937L8.95305 12.3125L9.01242 12.3219L9.15617 12.3375H9.17492H9.33742H9.40304H9.52492H9.58742L9.70617 12.3219H9.75929C9.81554 12.3125 9.87179 12.3031 9.92179 12.2875C10.1155 12.2375 10.303 12.1656 10.4812 12.0719H10.4999C10.5499 12.0469 10.5937 12.0219 10.6437 11.9969C10.9749 11.8062 11.2562 11.5406 11.4624 11.2187C11.4624 11.2187 11.7999 10.7094 12.1687 10.1344C12.4312 9.72499 12.7124 9.27812 12.9124 8.93437C13.178 8.47499 13.6249 8.14062 14.1405 8.01875C14.6687 7.89062 15.2218 7.97812 15.6812 8.26875C15.9249 8.43125 16.1343 8.64687 16.2968 8.89375L18.153 11.8375C18.0999 11.8125 18.0468 11.7937 17.9905 11.775L17.9624 11.7656C17.9093 11.7469 17.853 11.7312 17.7999 11.7156H17.7843C17.7312 11.7 17.6749 11.6906 17.6218 11.6812H17.5968C17.5437 11.6719 17.4843 11.6656 17.4343 11.6594H17.403C17.3468 11.6594 17.2905 11.6594 17.2405 11.6531H17.2343C17.1812 11.6531 17.1218 11.6531 17.0718 11.6531H17.0374C16.9843 11.6531 16.928 11.6594 16.8749 11.6719H16.8405C16.7843 11.6812 16.728 11.6906 16.6687 11.7062C16.5905 11.725 16.5155 11.7469 16.4374 11.7719C15.9187 11.95 15.4749 12.3031 15.1905 12.7719L14.5155 13.8312L13.6405 15.1687ZM18.278 15.7437C17.3624 16.3187 16.0874 16.0062 15.4937 15.0594L14.8374 14.0281L15.5124 12.9687L15.5655 12.8844C16.0593 12.1687 16.9624 11.8562 17.7905 12.1094L17.8655 12.1344H17.8874L17.9405 12.1562L17.9812 12.1719L18.0155 12.1875L18.0718 12.2125H18.0874C18.1405 12.2375 18.1968 12.2656 18.2499 12.3C18.303 12.3344 18.3249 12.35 18.3624 12.375L18.3874 12.3906C18.4655 12.4469 18.5405 12.5094 18.6062 12.575L18.6218 12.5906C18.6499 12.6187 18.678 12.6531 18.7062 12.6844L18.7218 12.7L18.8624 12.925C19.4624 13.8844 19.1937 15.1687 18.278 15.7437Z" fill="white"/>
</g>
<defs>
<clipPath id="clip0">
<rect width="23.9969" height="24" fill="white"/>
</clipPath>
</defs>
</svg>
