<svg width="24" height="24" viewBox="0 0 24 24" fill="none" xmlns="http://www.w3.org/2000/svg">
<g clip-path="url(#clip0)">
<path d="M11.8306 24C17.8121 24 22.6611 19.151 22.6611 13.1694C22.6611 7.18788 17.8121 2.33887 11.8306 2.33887C5.84901 2.33887 1 7.18788 1 13.1694C1 19.151 5.84901 24 11.8306 24Z" fill="#09006E"/>
<path d="M18.4156 0.878904L11.2192 13.3434C10.7341 14.1836 11.0219 15.2579 11.8619 15.743C12.702 16.228 13.7763 15.9401 14.2614 15.0998L21.4578 2.63535C21.9429 1.79513 21.6551 0.720793 20.815 0.235764C19.9749 -0.249266 18.9007 0.0386781 18.4156 0.878904Z" fill="url(#paint0_linear)"/>
<path d="M15.3034 19.0147L15.2687 13.5306L12.6558 17.9316H10.8677L8.25482 13.7196V19.0147H4.55835V6.98083H7.89362L11.8132 13.3931L15.6299 6.98083H18.9652L18.9993 19.0147H15.3034Z" fill="#00FFD9"/>
<path d="M11.6248 12.6403L16.7195 3.81667C16.8347 3.61685 16.9882 3.44169 17.1711 3.3012C17.354 3.16071 17.5629 3.05765 17.7857 2.9979C18.0085 2.93816 18.2408 2.9229 18.4695 2.953C18.6982 2.9831 18.9187 3.05797 19.1185 3.17333C19.3182 3.2886 19.4933 3.44209 19.6338 3.62504C19.7742 3.80798 19.8773 4.0168 19.937 4.23957C19.9967 4.46234 20.012 4.69469 19.982 4.92336C19.9519 5.15203 19.8771 5.37255 19.7618 5.5723L14.6671 14.3965C14.4342 14.8 14.0505 15.0945 13.6006 15.2151C13.1506 15.3357 12.6711 15.2727 12.2676 15.0398C11.8643 14.8068 11.57 14.4231 11.4495 13.9731C11.329 13.5232 11.392 13.0438 11.6248 12.6403Z" fill="url(#paint1_linear)"/>
</g>
<defs>
<linearGradient id="paint0_linear" x1="17.5544" y1="6.12201" x2="20.7694" y2="0.553434" gradientUnits="userSpaceOnUse">
<stop stop-color="#00FFD9"/>
<stop offset="0.85" stop-color="#09006E"/>
</linearGradient>
<linearGradient id="paint1_linear" x1="12.369" y1="15.1563" x2="19.1664" y2="3.38209" gradientUnits="userSpaceOnUse">
<stop offset="0.08" stop-color="#00FFD9"/>
<stop offset="0.68" stop-color="#064E8F"/>
<stop offset="1" stop-color="#09006E"/>
</linearGradient>
<clipPath id="clip0">
<rect width="24" height="24" fill="white"/>
</clipPath>
</defs>
</svg>
