<svg width="24" height="24" viewBox="0 0 24 24" fill="none" xmlns="http://www.w3.org/2000/svg">
<path d="M1.72717 17.4039C2.68106 17.4039 3.45434 16.6306 3.45434 15.6768C3.45434 14.7229 2.68106 13.9496 1.72717 13.9496C0.773279 13.9496 0 14.7229 0 15.6768C0 16.6306 0.773279 17.4039 1.72717 17.4039Z" fill="black"/>
<path d="M22.3089 7.11304C21.3739 7.11304 20.5817 7.86911 20.5817 8.8402C20.5817 10.2081 20.3653 10.5674 18.8546 10.5674H18.7103C17.8474 10.6395 17.1635 11.3595 17.1635 12.2585V12.2945C17.1635 13.6263 16.911 13.9496 15.4363 13.9496C15.3642 13.9496 15.292 13.9496 15.2559 13.9856C14.3931 14.0938 13.7091 14.8138 13.7091 15.6767C13.7091 16.6118 14.4652 17.4039 15.4363 17.4039C16.3352 17.4039 17.0913 16.6839 17.1274 15.821V15.6767C17.1274 14.4532 17.5228 13.9856 18.8185 13.9496H18.8546C19.7535 13.9496 20.5096 13.2296 20.5456 12.3306V12.2224C20.5456 10.9627 20.941 10.4952 22.2728 10.4952C23.2078 10.4952 24 9.73916 24 8.76807C24 7.86911 23.2439 7.11304 22.3089 7.11304ZM12.1623 10.5674H12.018C10.5073 10.5674 10.2909 10.2081 10.2909 8.8402C10.2909 7.90518 9.5348 7.11304 8.5637 7.11304C7.62867 7.11304 6.83653 7.86911 6.83653 8.8402C6.83653 10.2081 6.62012 10.5313 5.10937 10.5313H4.96509C4.1022 10.6034 3.41827 11.3234 3.41827 12.2224C3.41827 13.1574 4.17434 13.9496 5.14544 13.9496C6.0444 13.9496 6.80047 13.2296 6.83653 12.3667V12.2585C6.83653 10.9988 7.23191 10.5313 8.5637 10.5313C9.89549 10.5313 10.2909 10.9988 10.2909 12.2224C10.2909 13.1574 11.0469 13.9496 12.018 13.9496C12.9891 13.9496 13.7452 13.1935 13.7452 12.2224C13.7091 11.3595 13.0252 10.6395 12.1623 10.5674Z" fill="black"/>
</svg>
