<svg width="24" height="24" viewBox="0 0 24 24" fill="none" xmlns="http://www.w3.org/2000/svg">
<path d="M12 24C18.6274 24 24 18.6274 24 12C24 5.37258 18.6274 0 12 0C5.37258 0 0 5.37258 0 12C0 18.6274 5.37258 24 12 24Z" fill="#36A9CF"/>
<path fill-rule="evenodd" clip-rule="evenodd" d="M19.7325 13.8563C19.8645 13.914 19.9133 14.0933 19.842 14.2568C19.8208 14.3109 19.7857 14.3586 19.7403 14.3951C19.6949 14.4315 19.6408 14.4555 19.5833 14.4645L17.9145 17.5418C17.9293 17.6105 17.9258 17.6818 17.9045 17.7488C17.8832 17.8157 17.8448 17.876 17.793 17.9235C17.7518 17.9666 17.7016 18.0001 17.646 18.0218C17.5904 18.0434 17.5308 18.0526 17.4713 18.0488L14.217 19.9973C14.1917 20.0614 14.15 20.1178 14.096 20.1607C14.042 20.2036 13.9777 20.2316 13.9095 20.2418C13.749 20.2725 13.596 20.214 13.5225 20.1053L9.69903 19.8375C9.65148 19.8738 9.59643 19.8989 9.5379 19.9111C9.47936 19.9233 9.41884 19.9223 9.36078 19.908C9.17178 19.8668 9.04128 19.716 9.04878 19.5608L6.09453 17.4293C6.03282 17.4403 5.96936 17.4366 5.90938 17.4183C5.8494 17.4001 5.79462 17.3678 5.74953 17.3243C5.62053 17.2073 5.57403 17.037 5.62353 16.908L4.40853 14.0903C4.27578 14.064 4.16103 13.9335 4.13103 13.761C4.10628 13.6058 4.15728 13.4595 4.25253 13.3815L4.43178 9.11626C4.39143 9.06126 4.36549 8.99703 4.35632 8.92944C4.34715 8.86184 4.35504 8.79302 4.37928 8.72926C4.43928 8.55451 4.58403 8.44426 4.72653 8.45176L7.91553 5.11051C7.88778 4.95301 8.00778 4.78576 8.19603 4.72651C8.25444 4.70659 8.31667 4.70049 8.37783 4.70869C8.439 4.71689 8.49743 4.73916 8.54853 4.77376L13.137 3.93976C13.1963 3.80476 13.3643 3.72526 13.5458 3.75751C13.7108 3.78601 13.8345 3.89926 13.8638 4.02976L15.9833 5.23876C16.042 5.21998 16.1042 5.21415 16.1654 5.22166C16.2267 5.22917 16.2855 5.24984 16.338 5.28226C16.3959 5.31591 16.4452 5.36232 16.4824 5.41795C16.5196 5.47358 16.5436 5.53696 16.5525 5.60326L17.4645 6.21676C17.5234 6.2008 17.5851 6.19859 17.6449 6.2103C17.7047 6.222 17.761 6.24731 17.8095 6.28426C17.9805 6.40726 18.042 6.62176 17.9445 6.76426L17.9385 6.77176L19.2758 9.38176C19.4033 9.36451 19.5338 9.46351 19.5803 9.62026C19.6313 9.79201 19.5608 9.96676 19.4243 10.0103C19.287 10.0553 19.1348 9.95176 19.0845 9.78076L19.0755 9.74326L16.3238 8.26951C16.28 8.33113 16.2204 8.37983 16.1513 8.41051V15.756C16.2411 15.7957 16.3145 15.8652 16.3588 15.9529C16.4031 16.0406 16.4156 16.1409 16.3943 16.2368L17.5118 17.3753C17.569 17.351 17.6316 17.3422 17.6933 17.3498L19.3808 14.3678C19.3517 14.3198 19.335 14.2653 19.3322 14.2093C19.3295 14.1532 19.3408 14.0974 19.365 14.0468C19.4363 13.8833 19.6013 13.7985 19.7325 13.8563ZM19.7355 14.2125C19.764 14.1465 19.7438 14.0753 19.6913 14.052C19.6388 14.0295 19.5728 14.0633 19.5443 14.1285C19.5158 14.1938 19.5353 14.265 19.5885 14.289C19.641 14.3115 19.7063 14.2778 19.7355 14.2125ZM17.7368 17.8065C17.7968 17.7465 17.8073 17.658 17.76 17.6085C17.7128 17.559 17.6258 17.5673 17.565 17.6265C17.505 17.6865 17.4945 17.7758 17.5418 17.8253C17.589 17.8748 17.6768 17.8665 17.7368 17.8065ZM17.265 17.619L17.2733 17.601L16.2015 16.5105C16.1374 16.5506 16.0634 16.5719 15.9878 16.572C15.909 16.5718 15.8319 16.5491 15.7656 16.5066C15.6993 16.4641 15.6465 16.4035 15.6135 16.332H14.175C14.1378 16.4101 14.0776 16.475 14.0025 16.518L14.1428 18.5483C14.1983 18.5723 14.2478 18.6068 14.2853 18.6495L17.265 17.619ZM14.139 19.7085L16.7393 18.1515L14.3693 18.9705C14.3536 19.0297 14.3241 19.0845 14.2834 19.1302C14.2426 19.1759 14.1916 19.2114 14.1345 19.2338L14.0625 19.6568C14.0903 19.6703 14.1161 19.6878 14.139 19.7085ZM13.8953 20.112C13.9778 20.097 14.034 20.0295 14.022 19.9605C14.01 19.893 13.932 19.8495 13.8495 19.866C13.7678 19.881 13.7108 19.9485 13.7228 20.0168C13.7355 20.085 13.8128 20.1278 13.8953 20.112ZM13.5173 19.8135C13.5671 19.7315 13.6448 19.6702 13.7363 19.641L13.8045 19.2398C13.7437 19.2171 13.689 19.1807 13.6448 19.1333L10.6613 19.6148L13.5173 19.8135ZM10.7265 16.5615L9.75603 19.4243L13.518 18.8168L10.8563 16.5068C10.8165 16.5323 10.7726 16.5508 10.7265 16.5615ZM9.47778 19.2278L10.4033 16.4985C10.3423 16.4562 10.2936 16.3985 10.2623 16.3313H8.57028C8.55987 16.352 8.5481 16.3721 8.53503 16.3913L9.47778 19.2278ZM9.36303 19.779C9.44553 19.797 9.52353 19.7565 9.53703 19.689C9.55203 19.6215 9.49728 19.5518 9.41478 19.533C9.33228 19.5158 9.25428 19.5555 9.24003 19.623C9.22578 19.692 9.28053 19.761 9.36303 19.779ZM6.29778 17.22L9.15153 19.2795L8.25003 16.5675C8.18502 16.576 8.11893 16.5688 8.05724 16.5467C7.99554 16.5245 7.94002 16.4879 7.89528 16.44L6.30303 17.1338C6.30531 17.1626 6.3038 17.1916 6.29853 17.22H6.29778ZM6.03078 16.7715C6.07135 16.7894 6.10921 16.8129 6.14328 16.8413L7.78053 16.1288C7.78377 16.0477 7.80976 15.9692 7.85553 15.9023L5.32353 13.2855L6.03078 16.7715ZM6.01353 17.2283C6.05853 17.1773 6.04353 17.0888 5.98128 17.0318C5.91828 16.9755 5.83128 16.971 5.78628 17.0228C5.74128 17.0753 5.75478 17.1638 5.81778 17.22C5.88078 17.2763 5.96853 17.28 6.01278 17.2283H6.01353ZM4.67103 13.9785L5.54253 15.9983L4.95828 13.1198L4.72803 13.6103C4.74672 13.672 4.7513 13.7371 4.74143 13.8009C4.73157 13.8646 4.70751 13.9253 4.67103 13.9785ZM4.65003 10.7235L4.54503 13.2375L4.75353 12.795C4.7191 12.7297 4.70256 12.6565 4.70559 12.5827C4.70862 12.5089 4.73111 12.4373 4.77078 12.375L4.65003 10.7235ZM4.50003 8.73526C4.47153 8.81626 4.50228 8.90026 4.56603 8.92351C4.63053 8.94601 4.70403 8.89951 4.73178 8.81851C4.75953 8.73751 4.73028 8.65351 4.66578 8.63026C4.60128 8.60776 4.52778 8.65426 4.49928 8.73526H4.50003ZM5.13303 12.6C5.13303 12.5145 5.07078 12.4455 4.99578 12.4455C4.92003 12.4455 4.85778 12.5145 4.85778 12.6C4.85778 12.6863 4.92003 12.7553 4.99578 12.7553C5.07078 12.7553 5.13303 12.6863 5.13303 12.6ZM4.96053 8.93551C4.9394 8.99921 4.90429 9.05738 4.85778 9.10576L5.07528 12.0983L6.41028 7.87651L4.98153 8.84626C4.97733 8.8766 4.9703 8.90648 4.96053 8.93551ZM7.23003 6.24676L5.40453 8.15926L6.33978 7.52476C6.35234 7.43935 6.38932 7.35939 6.44628 7.29451C6.50491 7.22483 6.58427 7.17569 6.67278 7.15426L7.23003 6.24676ZM8.17053 5.34151L6.98028 7.27801C7.00903 7.33151 7.02154 7.39225 7.01628 7.45276L7.89753 7.72351C7.94355 7.67417 8.00106 7.63697 8.06493 7.61521C8.1288 7.59345 8.19706 7.58781 8.26364 7.5988C8.33021 7.60978 8.39304 7.63705 8.44654 7.67817C8.50003 7.71929 8.54254 7.773 8.57028 7.83451H10.0455C10.0729 7.77571 10.1136 7.72409 10.1643 7.68373C10.2151 7.64338 10.2746 7.6154 10.338 7.60201L11.1398 5.89651C11.0966 5.83962 11.0682 5.77286 11.0573 5.70226L8.60628 5.15926C8.55073 5.24 8.46921 5.29929 8.37528 5.32726C8.30918 5.34841 8.239 5.35355 8.17053 5.34226V5.34151ZM8.21403 4.85176C8.13378 4.87651 8.08503 4.95076 8.10453 5.01676C8.12478 5.08351 8.20578 5.11651 8.28528 5.09176C8.36553 5.06701 8.41503 4.99276 8.39478 4.92676C8.37528 4.86001 8.29503 4.82626 8.21403 4.85176ZM12.9 4.27876L9.20103 4.95226L11.136 5.38051C11.1882 5.30919 11.262 5.2566 11.3464 5.23053C11.4309 5.20445 11.5215 5.20629 11.6048 5.23576L12.9 4.27876ZM13.3538 4.35151L11.9745 5.37151L15.7583 5.47651L15.7665 5.44801L13.761 4.30501C13.7154 4.33846 13.6633 4.36207 13.608 4.37434C13.5528 4.3866 13.4955 4.38726 13.44 4.37626C13.4105 4.37095 13.3816 4.36266 13.3538 4.35151ZM13.5323 3.88726C13.4498 3.87226 13.3725 3.91576 13.3613 3.98476C13.35 4.05226 13.4063 4.11976 13.4895 4.13476C13.572 4.14976 13.6485 4.10626 13.6605 4.03726C13.6725 3.96976 13.6148 3.90226 13.5323 3.88726ZM15.957 5.93101C15.9058 5.89938 15.8613 5.85812 15.8258 5.80951L11.8785 5.70001C11.8755 5.72346 11.8702 5.74657 11.8628 5.76901L13.4558 7.60576C13.5478 7.58576 13.6439 7.59757 13.7284 7.63926C13.8128 7.68094 13.8807 7.75004 13.9208 7.83526H15.6135C15.6549 7.74726 15.7253 7.67625 15.813 7.63426L15.957 5.93101ZM15.987 7.84951C15.8963 7.84951 15.822 7.92601 15.822 8.01976C15.822 8.11351 15.8963 8.18926 15.987 8.18926C16.0793 8.18926 16.1543 8.11351 16.1543 8.01976C16.1543 7.92601 16.0793 7.84951 15.9878 7.84951H15.987ZM16.0613 5.44951C16.02 5.52151 16.0508 5.61901 16.1303 5.66551C16.209 5.71351 16.3073 5.69326 16.3478 5.62051C16.3898 5.54851 16.359 5.45176 16.2795 5.40451C16.2 5.35726 16.1025 5.37751 16.0613 5.44951ZM18.9975 9.43801L16.2773 5.99776L16.14 7.62451C16.2128 7.6543 16.276 7.70373 16.3223 7.7673C16.3687 7.83087 16.3964 7.90607 16.4025 7.98451L18.9975 9.43801ZM17.2778 6.44026L16.6673 6.03076L18.6375 8.59576L17.679 6.88051C17.5989 6.87429 17.5221 6.846 17.457 6.79876C17.3295 6.70801 17.262 6.56626 17.277 6.44026H17.2778ZM17.5628 6.39751C17.5238 6.45451 17.5478 6.54001 17.6168 6.58951C17.685 6.63826 17.7728 6.63226 17.8118 6.57451C17.8508 6.51826 17.8268 6.43201 17.7585 6.38326C17.6888 6.33451 17.6018 6.34051 17.5635 6.39826L17.5628 6.39751ZM13.3853 8.01976C13.3853 8.11126 13.4565 8.18551 13.5473 8.18551C13.5908 8.18492 13.6323 8.16717 13.6628 8.13613C13.6932 8.10509 13.7102 8.06326 13.71 8.01976C13.7104 7.97613 13.6935 7.93411 13.663 7.90291C13.6325 7.87171 13.5909 7.85385 13.5473 7.85326C13.5036 7.85385 13.462 7.87171 13.4315 7.90291C13.401 7.93411 13.3841 7.97613 13.3845 8.01976H13.3853ZM13.4745 11.5995C13.4525 11.5997 13.4307 11.6042 13.4103 11.6129C13.39 11.6215 13.3716 11.634 13.3562 11.6498C13.3407 11.6655 13.3285 11.6841 13.3202 11.7046C13.312 11.7251 13.3078 11.7469 13.308 11.769C13.308 11.8628 13.383 11.9393 13.4745 11.9393C13.4966 11.939 13.5184 11.9343 13.5386 11.9256C13.5589 11.9169 13.5773 11.9043 13.5927 11.8885C13.6081 11.8727 13.6202 11.854 13.6284 11.8335C13.6365 11.813 13.6406 11.7911 13.6403 11.769C13.6406 11.747 13.6365 11.7251 13.6283 11.7047C13.6202 11.6842 13.608 11.6656 13.5926 11.6498C13.5772 11.6341 13.5589 11.6215 13.5386 11.6129C13.5183 11.6043 13.4966 11.5997 13.4745 11.5995ZM11.3018 5.58151C11.3018 5.67526 11.376 5.75101 11.4675 5.75101C11.4896 5.75081 11.5114 5.74627 11.5317 5.73765C11.552 5.72903 11.5704 5.71648 11.5859 5.70075C11.6013 5.68501 11.6136 5.66637 11.6218 5.64592C11.6301 5.62546 11.6342 5.60357 11.634 5.58151C11.634 5.48776 11.559 5.41126 11.4675 5.41126C11.4455 5.41155 11.4237 5.41619 11.4034 5.42491C11.3831 5.43362 11.3648 5.44624 11.3494 5.46205C11.334 5.47786 11.3219 5.49655 11.3137 5.51705C11.3055 5.53754 11.3015 5.55945 11.3018 5.58151ZM11.4233 6.05926L10.6628 7.67551C10.7478 7.738 10.8066 7.82982 10.8278 7.93318C10.849 8.03655 10.8311 8.1441 10.7775 8.23501L13.3125 11.3775C13.3358 11.3679 13.3599 11.3603 13.3845 11.355V8.41051C13.3289 8.38629 13.2791 8.35042 13.2385 8.30533C13.1979 8.26024 13.1675 8.20698 13.1492 8.14912C13.131 8.09127 13.1253 8.03017 13.1326 7.96995C13.14 7.90973 13.1601 7.85178 13.1918 7.80001L11.6468 6.01951C11.5774 6.05329 11.5 6.06705 11.4233 6.05926ZM10.2533 8.01976C10.2533 8.11351 10.3283 8.18926 10.4198 8.18926C10.5105 8.18926 10.5855 8.11351 10.5855 8.01976C10.5855 7.92601 10.5105 7.84951 10.4198 7.84951C10.3752 7.8501 10.3326 7.86835 10.3014 7.90026C10.2702 7.93216 10.2529 7.97513 10.2533 8.01976ZM8.03328 8.01976C8.03328 8.11126 8.10528 8.18551 8.19528 8.18551C8.28528 8.18551 8.35803 8.11126 8.35803 8.01976C8.35803 7.92751 8.28528 7.85326 8.19528 7.85326C8.10528 7.85326 8.03328 7.92826 8.03328 8.01976ZM8.19528 15.9773C8.17331 15.9776 8.15162 15.9822 8.13144 15.9908C8.11126 15.9995 8.09299 16.0121 8.07767 16.0278C8.06235 16.0436 8.05027 16.0622 8.04214 16.0826C8.03401 16.103 8.02998 16.1248 8.03028 16.1468C8.03028 16.2405 8.10378 16.3163 8.19528 16.3163C8.21734 16.3161 8.23915 16.3115 8.25945 16.3029C8.27976 16.2943 8.29817 16.2817 8.31363 16.266C8.32909 16.2503 8.3413 16.2316 8.34956 16.2112C8.35783 16.1907 8.36197 16.1688 8.36178 16.1468C8.36207 16.1247 8.35799 16.1027 8.34977 16.0822C8.34154 16.0617 8.32934 16.0431 8.31386 16.0273C8.29838 16.0115 8.27993 15.999 8.25957 15.9904C8.23922 15.9818 8.21737 15.9774 8.19528 15.9773ZM6.54828 7.38226C6.49353 7.44676 6.48903 7.53601 6.54078 7.58176C6.59103 7.62676 6.67728 7.61326 6.73278 7.54801C6.78828 7.48426 6.79203 7.39501 6.74103 7.34926C6.69003 7.30276 6.60453 7.31776 6.54828 7.38226ZM5.32953 12.3765C5.37157 12.4434 5.39368 12.521 5.39328 12.6C5.39328 12.6825 5.37078 12.759 5.33178 12.8213L8.03328 15.6128V8.41051C7.95992 8.3782 7.89724 8.32574 7.8525 8.25923C7.80776 8.19272 7.7828 8.11488 7.78053 8.03476L6.86403 7.75351C6.83555 7.77935 6.80378 7.80129 6.76953 7.81876L5.32953 12.3765ZM13.8 15.7215C13.9793 15.7215 14.1315 15.8378 14.19 15.999H15.5985C15.6178 15.9452 15.6478 15.8959 15.6867 15.8542C15.7257 15.8124 15.7727 15.779 15.825 15.756V8.41051C15.7727 8.38757 15.7256 8.35419 15.6867 8.3124C15.6477 8.27061 15.6177 8.22131 15.5985 8.16751H13.9365C13.9171 8.22118 13.887 8.27037 13.8481 8.31213C13.8092 8.35389 13.7622 8.38735 13.71 8.41051V11.418C13.766 11.4578 13.8116 11.5104 13.8429 11.5715C13.8743 11.6326 13.8904 11.7003 13.89 11.769C13.8912 11.8805 13.8481 11.9879 13.7702 12.0676C13.6923 12.1473 13.586 12.1929 13.4745 12.1943C13.4193 12.1937 13.3647 12.1822 13.314 12.1605C13.2632 12.1388 13.2172 12.1073 13.1786 12.0678C13.14 12.0283 13.1096 11.9816 13.0891 11.9303C13.0685 11.879 13.0583 11.8242 13.059 11.769C13.059 11.7165 13.068 11.6663 13.086 11.619L10.515 8.43301C10.4157 8.45586 10.3114 8.44146 10.2219 8.39252C10.1325 8.34358 10.0641 8.26351 10.0298 8.16751H8.58528C8.56575 8.22125 8.53555 8.27048 8.4965 8.31225C8.45744 8.35401 8.41034 8.38743 8.35803 8.41051V15.756C8.46303 15.801 8.54478 15.8895 8.58528 15.999H10.2465C10.2661 15.9453 10.2963 15.896 10.3353 15.8543C10.3744 15.8125 10.4215 15.7791 10.4738 15.756V12.7035C10.4126 12.6651 10.3622 12.6118 10.3273 12.5485C10.2924 12.4853 10.2742 12.4142 10.2743 12.342C10.2736 12.2867 10.2838 12.2319 10.3044 12.1805C10.3249 12.1292 10.3554 12.0825 10.3941 12.043C10.4328 12.0034 10.4789 11.972 10.5297 11.9503C10.5806 11.9286 10.6352 11.9172 10.6905 11.9168C10.7587 11.917 10.8258 11.9338 10.886 11.9658C10.9462 11.9977 10.9978 12.0439 11.0362 12.1002C11.0746 12.1566 11.0987 12.2214 11.1064 12.2891C11.1141 12.3569 11.1052 12.4255 11.0805 12.489L13.6928 15.7365C13.7278 15.7271 13.7638 15.7221 13.8 15.7215ZM13.98 18.7568C13.89 18.7568 13.815 18.8243 13.815 18.9083C13.815 18.9923 13.89 19.059 13.98 19.059C14.0723 19.059 14.1473 18.9915 14.1473 18.909C14.1473 18.8265 14.0723 18.7568 13.9808 18.7568H13.98ZM13.6343 16.1468C13.6343 16.2405 13.7085 16.3163 13.7993 16.3163C13.8214 16.3162 13.8433 16.3117 13.8637 16.3031C13.8841 16.2945 13.9026 16.282 13.9181 16.2663C13.9337 16.2505 13.9459 16.2318 13.9542 16.2113C13.9626 16.1908 13.9667 16.1689 13.9665 16.1468C13.9667 16.1247 13.9626 16.1028 13.9543 16.0824C13.9461 16.0619 13.9338 16.0433 13.9184 16.0275C13.9029 16.0118 13.8845 15.9992 13.8642 15.9906C13.8439 15.982 13.8221 15.9775 13.8 15.9773C13.7556 15.9779 13.7132 15.996 13.6822 16.0278C13.6511 16.0596 13.6339 16.1023 13.6343 16.1468ZM10.524 12.342C10.524 12.4358 10.599 12.5115 10.6905 12.5115C10.782 12.5115 10.8563 12.4358 10.8563 12.342C10.8563 12.2475 10.782 12.1725 10.6905 12.1725C10.599 12.1725 10.524 12.2475 10.524 12.342ZM10.6365 15.9773C10.6145 15.9775 10.5927 15.982 10.5723 15.9906C10.552 15.9992 10.5336 16.0118 10.5182 16.0275C10.5027 16.0433 10.4905 16.0619 10.4822 16.0824C10.474 16.1028 10.4698 16.1247 10.47 16.1468C10.47 16.2405 10.545 16.3163 10.6365 16.3163C10.728 16.3163 10.8023 16.2405 10.8023 16.1468C10.8026 16.1247 10.7985 16.1029 10.7903 16.0824C10.7822 16.062 10.77 16.0433 10.7546 16.0276C10.7392 16.0118 10.7209 15.9993 10.7006 15.9906C10.6803 15.982 10.6586 15.9775 10.6365 15.9773ZM10.7985 15.756C10.8881 15.7953 10.9613 15.8643 11.0059 15.9513C11.0504 16.0384 11.0635 16.1382 11.043 16.2338L13.7378 18.5715C13.7623 18.5572 13.7882 18.5454 13.815 18.5363L13.677 16.5533C13.5915 16.5252 13.5172 16.4707 13.4646 16.3976C13.412 16.3246 13.384 16.2367 13.3845 16.1468C13.3845 16.0718 13.4033 16.002 13.437 15.942L10.8548 12.732C10.8366 12.74 10.8178 12.7465 10.7985 12.7515V15.756ZM16.1535 16.146C16.1537 16.124 16.1496 16.1023 16.1414 16.0819C16.1331 16.0615 16.121 16.043 16.1056 16.0273C16.0902 16.0116 16.0719 15.9992 16.0517 15.9906C16.0315 15.982 16.0097 15.9775 15.9878 15.9773C15.9657 15.9775 15.9439 15.982 15.9236 15.9906C15.9033 15.9992 15.8849 16.0118 15.8694 16.0275C15.854 16.0433 15.8417 16.0619 15.8335 16.0824C15.8252 16.1028 15.8211 16.1247 15.8213 16.1468C15.8213 16.2405 15.8963 16.3163 15.9878 16.3163C16.0793 16.3163 16.1543 16.2405 16.1543 16.1468L16.1535 16.146ZM4.37103 13.8803C4.43853 13.869 4.48128 13.791 4.46703 13.707C4.45203 13.6223 4.38678 13.563 4.32003 13.575C4.25253 13.5863 4.21053 13.665 4.22478 13.749C4.23828 13.8338 4.30428 13.893 4.37103 13.8803ZM19.35 9.59476C19.296 9.61201 19.2675 9.68251 19.2878 9.75076C19.308 9.81901 19.3688 9.86026 19.4228 9.84301C19.4783 9.82576 19.5053 9.75526 19.4858 9.68701C19.4663 9.61801 19.4048 9.57751 19.3508 9.59476H19.35Z" fill="white"/>
</svg>
