<svg width="24" height="24" viewBox="0 0 24 24" fill="none" xmlns="http://www.w3.org/2000/svg">
<path fill-rule="evenodd" clip-rule="evenodd" d="M12 0C18.6264 0 24 5.3736 24 12C24 18.6264 18.6264 24 12 24C5.3736 24 0 18.6264 0 12C0 5.3736 5.3736 0 12 0Z" fill="black"/>
<path d="M17.148 10.3752C17.6952 7.77839 16.488 6.45599 14.2104 6.45599C12.8424 6.45599 11.7048 6.95759 10.6776 7.89119L10.9056 6.84239C10.9056 6.84239 10.5408 6.68399 9.81122 6.68399C9.01441 6.68399 8.62561 6.84239 8.62561 6.84239L6.43201 17.1456C6.43201 17.1456 6.75121 17.304 7.54801 17.304C8.27761 17.304 8.70961 17.1456 8.70961 17.1456L10.2888 9.76079C11.0856 8.84879 12.18 8.30159 13.1832 8.30159C14.6424 8.30159 15.1416 9.03119 14.8704 10.308L13.404 17.1456C13.404 17.1456 13.7448 17.304 14.52 17.304C15.2712 17.304 15.6816 17.1456 15.6816 17.1456L17.148 10.3752Z" fill="white"/>
</svg>
