<svg width="24" height="24" viewBox="0 0 24 24" fill="none" xmlns="http://www.w3.org/2000/svg">
<g clip-path="url(#clip0)">
<path d="M23.275 12.7256C23.6184 12.9545 23.504 13.1453 22.9316 13.2979C22.7027 13.3742 22.7027 13.4124 22.7027 13.5269C22.7027 13.8321 22.6645 13.9466 22.0159 14.0611C21.9363 14.0545 21.8567 14.0731 21.7883 14.1141C21.7198 14.1552 21.666 14.2167 21.6343 14.29C21.6725 14.5571 21.3673 14.7097 20.6804 14.786C20.4976 14.7881 20.3216 14.8558 20.1844 14.9768C20.07 15.2439 19.6884 15.3583 18.9634 15.3583C18.7612 15.3458 18.5603 15.3994 18.3911 15.511C18.1622 15.7399 17.6661 15.8544 16.9412 15.8162C16.719 15.8026 16.4967 15.8418 16.2925 15.9307C15.8052 16.1611 15.2565 16.228 14.7281 16.1215C14.486 16.0938 14.241 16.1067 14.0032 16.1596C13.4745 16.3399 12.9056 16.3664 12.3625 16.2359C12.1223 16.1978 11.8777 16.1978 11.6375 16.2359C11.0979 16.3776 10.5293 16.3644 9.99682 16.1978C9.76194 16.1259 9.51299 16.1128 9.27186 16.1596C8.74455 16.2884 8.18839 16.2205 7.70747 15.9688C7.50216 15.8839 7.28079 15.8449 7.05882 15.8544C6.33386 15.8925 5.87599 15.8162 5.6089 15.5491C5.42398 15.4908 5.23032 15.4649 5.03657 15.4728C4.31161 15.4728 3.89189 15.3202 3.81558 15.0913C3.67844 14.9703 3.50241 14.9026 3.31955 14.9005C2.63275 14.8242 2.28935 14.6715 2.3275 14.4426C2.3275 14.3281 2.21304 14.2518 1.94595 14.2137C1.2973 14.0992 1.06836 13.9084 1.25914 13.6795C1.33545 13.6032 1.25914 13.4887 1.03021 13.4506C0.457869 13.2979 0.343401 13.1072 0.686804 12.8782C0.801271 12.8019 0.763115 12.6874 0.610492 12.6111C0.152622 12.4204 0.152622 12.2296 0.610492 12.0388C0.763115 11.9625 0.801271 11.848 0.686804 11.7717C0.343401 11.5428 0.457869 11.352 1.03021 11.1994C1.25914 11.1231 1.33545 11.0467 1.25914 10.9704C1.06836 10.7415 1.2973 10.5507 1.94595 10.4363C2.0255 10.4428 2.1051 10.4242 2.17355 10.3832C2.242 10.3421 2.29584 10.2806 2.3275 10.2073C2.28935 9.94023 2.59459 9.7876 3.2814 9.71129C3.46426 9.70919 3.64028 9.64148 3.77742 9.52051C3.89189 9.25342 4.27345 9.13895 4.99841 9.1008C5.20069 9.11331 5.40156 9.05974 5.57075 8.94817C5.79968 8.71924 6.29571 8.60477 7.02067 8.64293C7.24289 8.6566 7.46519 8.61737 7.66932 8.52846C8.15663 8.29808 8.7053 8.23117 9.2337 8.33768C9.4758 8.36531 9.72081 8.35241 9.95866 8.29953C10.4873 8.11925 11.0563 8.09279 11.5994 8.22321C11.8395 8.2614 12.0842 8.2614 12.3243 8.22321C12.8639 8.0815 13.4326 8.09472 13.965 8.26137C14.1999 8.33328 14.4489 8.34638 14.69 8.29953C15.2173 8.17079 15.7735 8.23862 16.2544 8.49031C16.4597 8.57522 16.6811 8.61428 16.903 8.60477C17.628 8.56662 18.0859 8.64293 18.3529 8.91002C18.5221 9.02159 18.723 9.07515 18.9253 9.06264C19.6502 9.06264 20.07 9.21527 20.1463 9.4442C20.2116 9.50808 20.2893 9.55794 20.3746 9.59075C20.4599 9.62355 20.551 9.6386 20.6423 9.63498C21.1765 9.67314 21.4817 9.82576 21.6343 10.0928C21.666 10.1661 21.7198 10.2276 21.7883 10.2687C21.8567 10.3098 21.9363 10.3283 22.0159 10.3218C22.5119 10.3218 22.8935 10.627 22.7027 10.856C22.6264 10.9323 22.7027 11.0849 22.9316 11.0849C23.3895 11.0849 23.6184 11.4283 23.275 11.6572C23.1606 11.7335 23.1606 11.848 23.3514 11.9243C23.8092 12.1151 23.8092 12.3059 23.3514 12.4967C23.2178 12.5348 23.1797 12.6493 23.275 12.7256Z" stroke="black" stroke-width="1.5"/>
<path d="M11.1987 3.75897C11.4328 3.67666 11.6338 3.52052 11.7714 3.31406C11.9091 3.10761 11.9759 2.86202 11.9618 2.61429C11.9237 2.04196 11.3513 1.85118 10.6264 2.11827C9.17647 2.61429 8.79491 4.25499 8.56597 5.89569C8.48966 6.35356 8.45151 6.84959 8.41335 7.2693C7.95375 10.7345 7.7497 14.2288 7.80286 17.724C7.84101 18.3345 8.03179 19.0213 7.53577 19.6699C6.69634 19.7463 6.92527 19.2502 6.16216 19.5173C4.96025 19.9332 5.24642 21.5396 6.10492 21.4594C6.39281 21.4531 6.67207 21.36 6.9062 21.1924C8.39427 20.4292 8.58505 18.4451 8.85214 16.461C9.30846 12.8801 9.52516 9.27273 9.50079 5.66294V5.6286C9.50079 4.97995 9.38632 3.91159 9.80604 3.68266C10.2258 3.45372 10.531 4.02606 11.1796 3.75897" fill="black"/>
<path d="M16.7885 2.20601C15.3386 2.70204 14.9571 4.34274 14.7281 5.98343C14.6518 6.4413 14.6137 6.93733 14.5755 7.35704C14.1159 10.8223 13.9119 14.3166 13.965 17.8117C14.0032 18.4222 14.1939 19.109 13.6979 19.7577C12.8585 19.8721 13.0874 19.338 12.3243 19.6051C11.1415 20.0248 11.4086 21.6273 12.2862 21.551C12.574 21.5446 12.8533 21.4515 13.0874 21.2839C14.5755 20.5208 14.7663 18.5367 15.0334 16.5526C15.4897 12.9717 15.7064 9.36429 15.682 5.7545V5.71634C15.682 5.0677 15.5676 3.99933 15.9873 3.7704C16.407 3.54146 16.7122 4.07565 17.3609 3.80855C17.595 3.72624 17.7959 3.5701 17.9336 3.36365C18.0712 3.1572 18.138 2.91161 18.124 2.66388C18.0858 2.1297 17.5135 1.93892 16.7885 2.20601Z" fill="black"/>
</g>
<defs>
<clipPath id="clip0">
<rect width="24" height="24" fill="white"/>
</clipPath>
</defs>
</svg>
