<svg width="24" height="24" viewBox="0 0 24 24" fill="none" xmlns="http://www.w3.org/2000/svg">
<path d="M6.22797 2.13585L17.9951 8.92647V15.8529L0 5.46325L5.76718 2.13585C5.83796 2.09764 5.91714 2.07764 5.99757 2.07764C6.07801 2.07764 6.15719 2.09764 6.22797 2.13585Z" fill="#3CA9E5"/>
<path d="M17.9951 2L11.9951 5.46322L17.9951 8.92643V2Z" fill="#2853C3"/>
<path d="M17.9951 2L23.7671 5.3274C23.8366 5.36964 23.8943 5.42863 23.935 5.49898C23.9756 5.56932 23.998 5.64876 24 5.72999V19.3112L17.9951 15.8529V2Z" fill="#1A4199"/>
<path d="M23.9951 19.3161L18.228 22.6435C18.1542 22.6861 18.0706 22.7085 17.9854 22.7085C17.9003 22.7085 17.8167 22.6861 17.7429 22.6435L5.98059 15.8529V8.91675L23.9951 19.3161Z" fill="#2853C3"/>
<path d="M8.22662e-06 5.4632V19.0444C-0.000479262 19.1282 0.0207065 19.2106 0.0615048 19.2837C0.102303 19.3568 0.161325 19.418 0.23283 19.4616L6.00001 22.789V8.91671L8.22662e-06 5.4632Z" fill="#60BEFF"/>
<path d="M6 22.7793L11.9951 19.3161L6 15.8528V22.7793Z" fill="#3CA9E5"/>
</svg>
