<svg width="24" height="24" viewBox="0 0 24 24" fill="none" xmlns="http://www.w3.org/2000/svg">
<path d="M22.5096 16.048C22.5104 13.3484 22.5104 10.649 22.5096 7.94951C22.5205 7.67351 22.3819 7.39883 22.1604 7.23611C18.9436 4.88571 15.7268 2.53495 12.5099 0.183833C12.313 0.0299185 12.0593 -0.0313403 11.8139 0.0158331C11.664 0.0452331 11.5289 0.119993 11.4085 0.210473C8.2146 2.54503 5.02052 4.87939 1.82628 7.21355C1.58394 7.38207 1.44006 7.65903 1.44144 7.95419C1.4396 10.6531 1.4396 13.3518 1.44144 16.0502C1.43724 16.3426 1.58904 16.6262 1.82928 16.7909C5.0232 19.1242 8.21648 21.458 11.4091 23.7923C11.7148 24.0536 12.1939 24.0743 12.5093 23.8195C15.7158 21.4782 18.9212 19.1358 22.1255 16.7921C22.3668 16.6295 22.5229 16.3408 22.5096 16.048Z" fill="#050708"/>
<path d="M10.8629 1.94795C10.9476 1.85195 11.0335 1.70231 11.1824 1.72223C11.6889 1.72523 12.1967 1.71431 12.7031 1.72763C12.7908 1.78211 12.858 1.86383 12.933 1.93403C12.9311 2.45683 12.9311 2.97967 12.933 3.50255C12.7823 3.50435 12.6311 3.51107 12.4803 3.50075C12.4712 3.46379 12.4531 3.39119 12.4443 3.35435C12.4443 2.96399 12.4782 2.57315 12.4455 2.18339C12.0734 2.18403 11.7014 2.18403 11.3295 2.18339C11.3277 2.31467 11.3271 2.44667 11.3259 2.57795C11.1692 2.57795 11.0119 2.57795 10.8546 2.57675C10.8557 2.36783 10.8326 2.15543 10.8629 1.94795ZM9.59997 2.58575C9.77121 2.57915 9.94245 2.57915 10.1143 2.58335C10.1167 3.30647 10.1197 4.02899 10.1125 4.75151C9.94905 4.75511 9.78573 4.75511 9.62289 4.75391C9.56853 4.03379 9.61197 3.30827 9.59997 2.58575ZM13.956 3.36275C14.412 3.35675 14.8673 3.35855 15.323 3.36155C15.3254 3.52859 15.3254 3.69503 15.3236 3.86195C14.8676 3.86675 14.4116 3.86855 13.9556 3.86075C13.9539 3.69491 13.9539 3.52799 13.956 3.36275ZM11.1909 3.60899C11.3749 3.60479 11.5589 3.60539 11.7429 3.60539C11.919 3.94787 12.1399 4.26743 12.2829 4.62623C12.1141 4.63415 11.9447 4.63415 11.7758 4.63475C11.5752 4.29599 11.3815 3.95327 11.1909 3.60899ZM13.0692 4.21115C13.2283 4.20755 13.3874 4.20815 13.5473 4.21055C13.9806 4.88255 14.4017 5.56247 14.838 6.23291C14.8374 6.43691 14.8386 6.64091 14.8344 6.84491C14.7872 6.83639 14.694 6.82007 14.6474 6.81227C14.2771 6.26027 13.9364 5.68859 13.5703 5.13419C13.5643 5.75819 13.5721 6.38219 13.5661 7.00619C13.4003 7.00923 13.2341 7.00923 13.0675 7.00619C13.0656 6.07487 13.0626 5.14295 13.0692 4.21115ZM15.0468 4.58927C15.2162 4.58567 15.3863 4.58567 15.5557 4.59047C15.5569 4.75019 15.5569 4.91063 15.5557 5.07047C15.3863 5.07467 15.2162 5.07467 15.0474 5.07167C15.0462 4.91127 15.046 4.75047 15.0468 4.58927ZM6.66993 4.74719C6.80361 4.74479 6.93741 4.74539 7.07109 4.74659C7.42809 4.72259 7.78449 4.72967 8.14161 4.75019C8.14281 4.90511 8.14221 5.06063 8.14041 5.21555C7.61241 5.53259 7.10505 5.88419 6.56949 6.18755C6.41157 6.12755 6.29109 6.00119 6.16221 5.89583C6.51261 5.68223 6.85569 5.45711 7.20969 5.24951C7.03053 5.24039 6.85089 5.24159 6.67173 5.23979C6.66869 5.07523 6.66809 4.91103 6.66993 4.74719ZM10.8938 4.93115C11.0579 4.92635 11.2224 4.92695 11.3858 4.93115C11.39 5.09579 11.39 5.25971 11.3864 5.42435C11.2224 5.42923 11.0584 5.42943 10.8944 5.42495C10.8906 5.26039 10.8904 5.09579 10.8938 4.93115ZM8.48649 5.41283C8.74917 5.81099 9.00393 6.21467 9.27009 6.61043C9.53577 6.20987 9.79233 5.80319 10.0604 5.40443C10.0604 5.66843 10.0779 5.93519 10.055 6.19895C9.81177 6.61583 9.53037 7.00979 9.26829 7.41527C9.01053 7.01651 8.73753 6.62615 8.49309 6.21959C8.46537 5.95199 8.48529 5.68151 8.48649 5.41283ZM15.7584 5.48003C16.5469 5.47643 17.3353 5.47663 18.1238 5.48063C18.1244 5.64035 18.1244 5.80079 18.1232 5.96063C17.3353 5.96247 16.547 5.96267 15.7584 5.96123C15.7578 5.80079 15.7572 5.63999 15.7584 5.48003ZM11.5848 6.10451C11.7433 6.10151 11.9024 6.10151 12.0617 6.10331C12.0696 6.80279 12.0611 7.50299 12.0659 8.20331C11.9921 8.27351 11.9189 8.34491 11.8469 8.41631C11.3004 8.42231 10.754 8.41691 10.2081 8.41931C10.1361 8.35031 10.0623 8.28431 9.99753 8.20991C9.96969 7.99571 9.99021 7.77719 9.98961 7.56191C10.1421 7.56071 10.2946 7.56071 10.4471 7.56191C10.4513 7.68539 10.4507 7.80875 10.4489 7.93223C10.8247 7.97459 11.2034 7.94423 11.5811 7.95335C11.583 7.33715 11.577 6.71999 11.5848 6.10451ZM19.2077 8.17199C19.2028 7.64399 19.2028 7.11571 19.2077 6.58715C19.3729 6.58355 19.538 6.58295 19.7039 6.58715C19.7093 7.11515 19.7091 7.64363 19.7033 8.17259C19.538 8.17535 19.3729 8.17475 19.2077 8.17199ZM16.8531 6.98627C17.1651 6.98327 17.4788 6.93479 17.7891 6.98507C17.9924 7.64771 18.1668 8.32055 18.3689 8.98439C18.2091 8.98559 18.0487 8.98559 17.8889 8.98559C17.7363 8.47067 17.6063 7.94963 17.4489 7.43579C17.3612 7.43699 17.2735 7.43819 17.1857 7.43879C17.055 7.95743 16.8977 8.46815 16.7627 8.98487C16.6017 8.98551 16.4407 8.98531 16.2798 8.98427C16.4779 8.32055 16.6637 7.65251 16.8531 6.98627ZM3.51417 7.23923C4.23309 7.23503 4.95261 7.23323 5.67141 7.23983C5.67561 7.40507 5.67561 7.56959 5.67201 7.73483C4.95201 7.74143 4.23297 7.73963 3.51345 7.73543C3.51117 7.57019 3.51117 7.40399 3.51417 7.23923ZM6.01041 7.23983C6.17385 7.23863 6.33717 7.23803 6.50121 7.23923C6.50481 7.40507 6.50481 7.57139 6.50121 7.73723C6.33717 7.73903 6.17385 7.73843 6.01041 7.73663C6.00849 7.57079 6.00849 7.40555 6.01041 7.23983ZM7.81725 7.25999C7.97757 7.25879 8.13861 7.25939 8.29893 7.26119C8.30373 7.64519 8.30133 8.03027 8.30133 8.41463C8.13849 8.41583 7.97577 8.41643 7.81365 8.41523C7.81197 8.03063 7.80693 7.64519 7.81725 7.25999ZM20.384 7.60523C20.5686 7.60163 20.7537 7.60223 20.9383 7.60163C21.1211 7.94051 21.3432 8.26163 21.4793 8.62367C21.3113 8.62967 21.1422 8.63027 20.9739 8.63099C20.775 8.29031 20.5855 7.94399 20.384 7.60523ZM13.1079 8.01599C13.2679 8.01479 13.4279 8.01499 13.5879 8.01659C13.5915 8.54303 13.5891 9.06947 13.5891 9.59603C13.4282 9.59723 13.2678 9.59783 13.1069 9.59783C13.1073 9.07091 13.1061 8.54327 13.1079 8.01599ZM14.796 8.65643C14.7941 8.49187 14.7943 8.32687 14.7966 8.16143C14.9581 8.15903 15.1206 8.15903 15.2825 8.16323C15.2831 8.32787 15.2837 8.49239 15.2813 8.65703C15.12 8.65763 14.9579 8.65703 14.796 8.65643ZM5.66301 9.38615C6.05085 9.10295 6.46485 8.85671 6.86301 8.58923C7.12629 8.59223 7.38885 8.58863 7.65213 8.59283C7.26117 8.87243 6.84549 9.11387 6.45213 9.38975C6.85641 9.64391 7.25277 9.91019 7.65453 10.1668C7.38405 10.1716 7.11357 10.1686 6.84309 10.1692C6.45273 9.90419 6.04725 9.65999 5.66301 9.38615ZM19.2083 8.92691C19.3741 8.92331 19.5398 8.92271 19.7063 8.92631C19.7105 9.09215 19.7099 9.25727 19.7051 9.42311C19.5398 9.42671 19.3741 9.42611 19.2089 9.42251C19.2053 9.25731 19.2051 9.09211 19.2083 8.92691ZM2.18469 8.99471C3.01269 8.98991 3.84213 8.98811 4.67121 8.99591C4.67301 9.15263 4.67301 9.30995 4.67361 9.46727C4.30329 9.70991 3.93297 9.95375 3.55233 10.1789C3.39141 10.1202 3.26973 9.98687 3.13233 9.88907C3.33741 9.75959 3.54561 9.63431 3.74433 9.49571C3.22449 9.49331 2.70477 9.49871 2.18433 9.49271C2.18193 9.32687 2.18205 9.16087 2.18469 8.99471ZM9.27441 9.47519C9.99153 9.47819 10.7085 9.47159 11.4251 9.47819C11.4425 9.64127 11.4403 9.80585 11.4185 9.96839C10.7037 9.97139 9.98973 9.96899 9.27573 9.96959C9.27445 9.80431 9.27401 9.63951 9.27441 9.47519ZM11.8934 9.47819C12.0659 9.47459 12.2377 9.47459 12.4103 9.48059C12.4109 9.64155 12.4107 9.80211 12.4097 9.96227C12.2378 9.96707 12.0654 9.96707 11.8937 9.96407C11.892 9.80195 11.892 9.64031 11.8934 9.47819ZM14.1488 10.1717C14.1264 10.0016 14.3007 9.91451 14.3903 9.79775C14.6009 9.79835 14.8115 9.79655 15.0221 9.80075C15.0269 9.95927 15.0269 10.1178 15.0245 10.277C14.8914 10.2794 14.7576 10.2794 14.6245 10.2812V11.4104C15.2436 11.4146 15.8625 11.408 16.4816 11.414C16.4834 11.5744 16.4834 11.7348 16.4792 11.894C15.7821 11.8988 15.0843 11.8946 14.3873 11.8964C14.2983 11.7803 14.1277 11.6924 14.1494 11.5237C14.1464 11.0732 14.1462 10.6226 14.1488 10.1717ZM16.496 10.0216C16.6667 10.0156 16.8385 10.0156 17.0097 10.0222C17.0116 10.1855 17.0114 10.3489 17.0091 10.5124C16.8379 10.5184 16.6673 10.5184 16.496 10.513C16.4942 10.3489 16.4942 10.1856 16.496 10.0216ZM18.1269 10.0216C18.8483 10.0118 19.569 10.0186 20.2903 10.018C20.2915 10.1844 20.2915 10.3514 20.2897 10.5178C19.569 10.5178 18.8483 10.5238 18.1275 10.5148C18.1251 10.3502 18.1249 10.1858 18.1269 10.0216ZM8.13501 10.5971C8.53929 10.5965 8.94285 10.5971 9.34701 10.5965C9.35061 10.7645 9.35061 10.9325 9.34641 11.1005C8.94281 11.1011 8.53937 11.1011 8.13609 11.1005C8.12905 10.9322 8.12869 10.7644 8.13501 10.5971ZM10.8006 10.5971C11.4348 10.5965 12.069 10.5977 12.7031 10.5959C12.9336 10.5599 13.1642 10.7992 13.1351 11.0267C13.1339 11.4926 13.1337 11.959 13.1345 12.4258C13.0533 12.5135 12.9717 12.6 12.89 12.6871C12.68 12.6871 12.4706 12.6877 12.2607 12.6847C12.2589 12.5247 12.2587 12.365 12.2601 12.2054C12.3914 12.2036 12.5228 12.2024 12.6541 12.2006C12.6547 11.8339 12.6535 11.4666 12.6553 11.0999C12.0392 11.0448 11.4185 11.0908 10.8006 11.0744C10.799 10.9148 10.799 10.7556 10.8006 10.5971ZM6.33105 10.7447C6.64089 10.7429 6.95013 10.7411 7.25997 10.7459C7.44753 11.4157 7.64901 12.082 7.82637 12.7549C7.67037 12.7549 7.51437 12.7549 7.35921 12.7561C7.20009 12.2393 7.07721 11.7128 6.91317 11.1985C6.82485 11.2039 6.73653 11.2105 6.64809 11.2172C6.53073 11.7353 6.36309 12.2399 6.23481 12.7555C6.07449 12.7549 5.91405 12.7549 5.75481 12.7537C5.94561 12.084 6.13557 11.4133 6.33105 10.7447ZM19.848 11.3498C20.388 11.3444 20.9287 11.3389 21.468 11.3516C21.6042 11.4356 21.7578 11.572 21.7281 11.751C21.7281 12.135 21.7257 12.5201 21.7281 12.9044C21.7233 13.089 21.7317 13.2736 21.7263 13.4581C21.7349 13.6088 21.6937 13.757 21.7023 13.9084C21.5486 13.9078 21.3949 13.9084 21.2412 13.9066C21.243 13.2131 21.2412 12.519 21.2424 11.8255C20.8653 11.8152 20.4884 11.8231 20.1114 11.8201C20.1108 11.949 20.1108 12.0779 20.1084 12.2074C19.9498 12.2098 19.7913 12.2106 19.6327 12.2098C19.6297 11.9974 19.6303 11.7844 19.6309 11.572C19.704 11.4988 19.776 11.4248 19.848 11.3498ZM4.48113 11.3692H4.98273C4.98393 11.8962 4.98273 12.4226 4.98333 12.9492H4.47933C4.48173 12.4228 4.47993 11.8957 4.48113 11.3692ZM2.90721 11.8098C3.07185 11.8074 3.23637 11.8122 3.40041 11.8231C3.40225 11.9793 3.40225 12.1356 3.40041 12.2921C3.23457 12.2939 3.06885 12.2945 2.90301 12.2915C2.90121 12.1304 2.90181 11.9701 2.90721 11.8098ZM8.80125 14.6981C8.79701 13.7662 8.79681 12.8342 8.80065 11.9021C8.96409 11.8997 9.12741 11.8997 9.29085 11.9033C9.67485 12.5224 10.0709 13.1347 10.463 13.7495C10.6325 13.9679 10.5308 14.2608 10.5581 14.515C10.5012 14.5156 10.4443 14.5162 10.388 14.5174C10.0352 13.957 9.66669 13.4063 9.32901 12.8374C9.26793 13.4558 9.31809 14.0797 9.29817 14.7006C9.13197 14.7023 8.96637 14.7023 8.80125 14.6981ZM10.98 12.2605C11.1464 12.2569 11.3128 12.2565 11.4792 12.2593C11.4816 12.6666 11.481 13.0739 11.4798 13.481C11.3127 13.484 11.1463 13.484 10.9794 13.4798C10.9766 13.0733 10.976 12.6666 10.98 12.2605ZM13.9969 12.8052C14.1597 12.804 14.3231 12.8034 14.4865 12.8052C14.4895 12.971 14.4895 13.1368 14.4865 13.3026C14.3231 13.3032 14.1599 13.303 13.9969 13.302C13.9951 13.1368 13.9951 12.9712 13.9969 12.8052ZM15.5841 12.8269C16.0913 12.8203 16.5984 12.8239 17.1061 12.8251C17.1266 12.9733 17.1393 13.124 17.1248 13.2742C17.0768 13.3716 16.962 13.3328 16.8761 13.342C16.4441 13.3292 16.0107 13.3668 15.5817 13.318C15.5787 13.1537 15.5787 12.9904 15.5841 12.8269ZM17.6301 12.8971C17.7936 12.8947 17.9587 12.8838 18.1215 12.9091C18.1373 13.4815 18.1281 14.0558 18.1251 14.629C17.9599 14.632 17.7949 14.6318 17.6301 14.6284C17.6247 14.0513 17.6247 13.4742 17.6301 12.8971ZM13.1079 13.236C13.2677 13.2354 13.4281 13.2348 13.5879 13.2366C13.5897 13.4012 13.5903 13.5664 13.5879 13.7322C13.4279 13.7346 13.2679 13.7346 13.1079 13.7322C13.1067 13.5671 13.1067 13.4012 13.1079 13.236ZM5.41425 13.5882C5.98425 13.5265 6.55977 13.5755 7.13217 13.5574C7.27967 13.5555 7.42716 13.5622 7.57389 13.5773C7.57629 13.7437 7.57569 13.9108 7.57449 14.0771C6.85449 14.0759 6.13605 14.0807 5.41725 14.0747C5.41305 13.9126 5.41305 13.7504 5.41425 13.5882ZM2.18529 13.956C2.26341 13.8798 2.34201 13.8029 2.42073 13.7267C2.62893 13.7255 2.83701 13.7249 3.04473 13.7291C3.04713 13.8864 3.04713 14.0443 3.04593 14.2016C2.91645 14.2046 2.78757 14.2052 2.65809 14.2064C2.66109 14.5817 2.65629 14.9568 2.66109 15.332C3.27405 15.3338 3.88713 15.3278 4.50009 15.335C4.50309 15.49 4.50309 15.6443 4.50189 15.7992C4.34997 15.7998 4.19745 15.8004 4.04589 15.8004C3.50193 15.795 2.95725 15.8095 2.41329 15.7938C2.32257 15.7423 2.23113 15.6576 2.18997 15.5615C2.17569 15.0266 2.18829 14.4911 2.18529 13.956ZM14.9022 14.268C14.9839 14.1912 15.0662 14.1143 15.1503 14.0393C15.6804 14.0435 16.2105 14.0399 16.7406 14.0411C16.8205 14.1173 16.9003 14.1942 16.9806 14.2698C16.9812 14.7944 16.9814 15.3189 16.9812 15.8431C16.8197 15.8443 16.658 15.8437 16.4971 15.8389C16.4965 15.3978 16.4935 14.9573 16.4989 14.5162C16.1269 14.5156 15.7565 14.5162 15.3854 14.5156C15.386 14.6498 15.3854 14.7842 15.3824 14.9185C15.2233 14.9209 15.0642 14.9209 14.9055 14.9203C14.9004 14.7029 14.9016 14.4857 14.9022 14.268ZM18.3054 15.1943C18.8934 14.8112 19.4873 14.4383 20.0802 14.0639C20.2218 14.1583 20.361 14.2576 20.499 14.3568C20.0723 14.6288 19.6459 14.9001 19.2198 15.1708C19.8461 15.1774 20.4725 15.1702 21.0993 15.1744C21.1005 15.3408 21.1005 15.5078 21.0987 15.6742C20.168 15.6772 19.2373 15.6774 18.3067 15.6748C18.3042 15.5143 18.3042 15.354 18.3054 15.1943ZM11.6508 15.2892C12.2408 14.8964 12.8496 14.5321 13.4395 14.1395C13.5799 14.2363 13.7185 14.335 13.8613 14.4281C13.4533 14.7149 13.0202 14.9648 12.6044 15.2413C13.2271 15.2522 13.8498 15.2401 14.4725 15.2479C14.4767 15.4192 14.4767 15.591 14.4719 15.7622C13.5399 15.7676 12.608 15.764 11.6759 15.764C11.652 15.607 11.652 15.4478 11.6508 15.2892ZM5.52561 14.8656C5.78457 15.2616 6.04425 15.6576 6.30021 16.0547C6.57489 15.6625 6.82065 15.2507 7.09293 14.8565C7.09833 15.1234 7.09413 15.3908 7.09653 15.6577C6.82545 16.0547 6.57729 16.4674 6.29901 16.8589C6.04125 16.4656 5.79129 16.0669 5.52261 15.6808C5.51997 15.4091 5.51721 15.1368 5.52561 14.8656ZM8.36397 15.8816C8.35797 15.7122 8.35737 15.5428 8.36697 15.3739C8.52981 15.3721 8.69373 15.3727 8.85657 15.3859C8.86017 15.5511 8.85997 15.7163 8.85597 15.8815C8.69229 15.8828 8.52825 15.8834 8.36397 15.8816ZM10.6711 16.1262C10.8363 16.1244 11.0021 16.1238 11.1673 16.1256C11.1715 16.741 11.1673 17.3564 11.1697 17.9718C11.0523 17.9766 10.9349 17.9821 10.8175 17.9929C10.7799 17.9856 10.7049 17.9724 10.6674 17.9657C10.6711 17.3527 10.6644 16.7392 10.6711 16.1262ZM14.0894 16.512C14.4014 16.506 14.7127 16.5102 15.0243 16.5084C15.2155 17.1783 15.407 17.8482 15.5987 18.518C15.4377 18.5186 15.2767 18.5186 15.1164 18.5144C14.9796 18.0025 14.8314 17.4936 14.6922 16.9823C14.6051 16.9769 14.5179 16.9732 14.4308 16.969C14.2868 17.4858 14.1432 18.0024 14 18.5188C13.8391 18.5182 13.6787 18.5182 13.5183 18.5164C13.7143 17.8495 13.9092 17.1827 14.0894 16.512ZM7.02453 17.622C7.61817 17.2408 8.21061 16.8571 8.81253 16.4886C8.95113 16.586 9.09093 16.6806 9.22821 16.7803C8.79741 17.0484 8.37501 17.3304 7.93989 17.5912C8.57049 17.6032 9.20157 17.5894 9.83277 17.5985C9.83577 17.7643 9.83637 17.93 9.83157 18.0959C8.89665 18.0989 7.96173 18.1032 7.02681 18.0941C7.02213 17.9366 7.02273 17.7793 7.02453 17.622ZM11.928 16.6103C12.1018 16.6122 12.2755 16.6017 12.4478 16.5788C12.6518 16.9148 12.8925 17.2481 12.9973 17.6305C12.8346 17.6317 12.6717 17.6317 12.5096 17.6329C12.3181 17.2904 12.1242 16.9496 11.928 16.6103ZM18.8004 16.8154C18.9704 16.81 19.1411 16.81 19.3117 16.8136C19.3123 16.9764 19.3123 17.1394 19.3117 17.3026C19.1411 17.3068 18.971 17.3068 18.801 17.2996C18.798 17.1379 18.798 16.977 18.8004 16.8154ZM17.5472 18.1176C17.753 17.7866 17.9732 17.4653 18.1802 17.1349C18.1862 17.38 18.1899 17.6257 18.1838 17.8714C18.1898 17.9634 18.1227 18.0348 18.0798 18.1092C17.8518 18.4463 17.6331 18.79 17.4093 19.1292C17.1401 18.7274 16.8793 18.3214 16.613 17.9172C16.6118 17.6485 16.6094 17.3798 16.616 17.1118C16.8774 17.5033 17.1243 17.9051 17.3918 18.2929C17.4673 18.261 17.5013 18.18 17.5472 18.1176ZM4.88301 17.6414C5.31933 17.6269 5.75625 17.6341 6.19317 17.6372C6.19557 17.7988 6.20589 17.9612 6.18525 18.1225C5.75193 18.1436 5.31693 18.1334 4.88361 18.1255C4.88181 17.964 4.88181 17.803 4.88301 17.6414ZM10.2021 18.696C10.9016 18.6857 11.6006 18.6954 12.3001 18.6906C12.3801 18.7706 12.4601 18.8511 12.5401 18.932C12.5371 19.4664 12.5383 20.0014 12.5389 20.5368C12.4687 20.61 12.3993 20.684 12.3307 20.7589C12.1068 20.7637 11.8829 20.7643 11.6587 20.7577C11.6617 20.6064 11.6424 20.4521 11.6786 20.3039C11.8051 20.2906 11.9322 20.2954 12.0599 20.2942C12.0611 19.9196 12.0599 19.5456 12.0605 19.1717C11.4408 19.1681 10.8205 19.1796 10.2015 19.1657C10.1997 19.009 10.1999 18.8524 10.2021 18.696ZM6.84177 18.8741C7.00513 18.8717 7.16873 18.8721 7.33257 18.8753C7.33497 19.0386 7.33517 19.2024 7.33317 19.3667C7.16861 19.3691 7.00461 19.3693 6.84117 19.3673C6.83893 19.2026 6.83913 19.0382 6.84177 18.8741ZM15.4964 19.1384C15.6816 18.9824 15.8498 19.2425 16.0083 19.3184C16.0083 19.333 16.0089 19.3626 16.0089 19.3771C15.5951 19.644 15.1715 19.8964 14.7666 20.1772L15.0014 20.1754C15.1261 20.1754 15.2511 20.1768 15.3767 20.1796C15.3779 20.343 15.3779 20.5069 15.3755 20.6704C14.8659 20.6777 14.3564 20.6758 13.8469 20.6716C13.8366 20.5172 13.8349 20.3623 13.8336 20.2086C14.3775 19.836 14.9451 19.5 15.4964 19.1384ZM7.76097 19.5923C8.42241 19.5899 9.08445 19.5863 9.74577 19.5941C9.74697 19.7569 9.74697 19.9199 9.74577 20.0831C9.08373 20.0928 8.42229 20.0885 7.76037 20.0855C7.75737 19.921 7.75797 19.7563 7.76097 19.5923ZM9.52377 20.8486C9.71013 20.8468 9.89649 20.8462 10.083 20.8498C10.2554 21.1928 10.4847 21.5088 10.6173 21.8712C10.4503 21.8803 10.2839 21.8803 10.1169 21.8815C9.91281 21.5408 9.72225 21.192 9.52377 20.8486ZM12.8271 21.3702C12.99 21.369 13.1527 21.3714 13.3148 21.3822C13.3178 21.545 13.3166 21.7084 13.2961 21.8706C13.1406 21.8712 12.9855 21.8712 12.8307 21.8706C12.8247 21.7031 12.8247 21.5366 12.8271 21.3702ZM11.6925 22.9896C11.6931 22.6096 11.684 22.2289 11.6985 21.8489C11.8626 21.8495 12.0271 21.858 12.1905 21.8729C12.1924 22.245 12.1924 22.6174 12.1905 22.99C12.0245 22.9925 11.8585 22.9924 11.6925 22.9896Z" fill="white"/>
</svg>
