<svg width="24" height="24" viewBox="0 0 24 24" fill="none" xmlns="http://www.w3.org/2000/svg">
<g clip-path="url(#clip0)">
<path d="M3.03453 11.5516C3.03465 11.804 2.95992 12.0508 2.81977 12.2607C2.67962 12.4707 2.48036 12.6343 2.24719 12.731C2.01402 12.8277 1.75741 12.8531 1.50982 12.8039C1.26223 12.7547 1.03479 12.6332 0.856252 12.4548C0.677717 12.2764 0.556113 12.049 0.50682 11.8014C0.457528 11.5538 0.482762 11.2972 0.579331 11.064C0.6759 10.8308 0.839465 10.6314 1.04934 10.4912C1.25921 10.3509 1.50597 10.2761 1.75839 10.2761C2.09673 10.2761 2.42122 10.4104 2.66053 10.6496C2.89983 10.8888 3.03436 11.2132 3.03453 11.5516ZM23.3104 11.5516C23.3105 11.804 23.2358 12.0508 23.0956 12.2608C22.9554 12.4707 22.7561 12.6344 22.5229 12.7311C22.2897 12.8277 22.0331 12.8531 21.7855 12.8039C21.5379 12.7546 21.3104 12.6331 21.1319 12.4546C20.9534 12.2761 20.8319 12.0486 20.7826 11.801C20.7334 11.5534 20.7587 11.2968 20.8554 11.0636C20.9521 10.8303 21.1157 10.631 21.3257 10.4909C21.5357 10.3507 21.7825 10.2759 22.0349 10.2761C22.3727 10.2769 22.6964 10.4117 22.935 10.6507C23.1736 10.8898 23.3077 11.2138 23.3078 11.5516H23.3104ZM13.1728 16.5859C13.1729 16.8384 13.0982 17.0852 12.958 17.2952C12.8178 17.5051 12.6185 17.6688 12.3853 17.7655C12.1521 17.8621 11.8955 17.8874 11.6479 17.8382C11.4002 17.789 11.1728 17.6675 10.9943 17.4889C10.8158 17.3104 10.6942 17.083 10.645 16.8354C10.5958 16.5878 10.6211 16.3311 10.7178 16.0979C10.8145 15.8647 10.9781 15.6654 11.1881 15.5252C11.398 15.3851 11.6449 15.3103 11.8973 15.3104C12.2355 15.3106 12.5599 15.445 12.799 15.6842C13.0382 15.9234 13.1726 16.2477 13.1728 16.5859ZM8.06889 14.1006C8.06889 14.353 7.99405 14.5997 7.85382 14.8096C7.7136 15.0195 7.5143 15.183 7.28111 15.2796C7.04793 15.3762 6.79134 15.4015 6.54379 15.3522C6.29625 15.303 6.06886 15.1815 5.89039 15.003C5.71192 14.8245 5.59038 14.5971 5.54114 14.3496C5.4919 14.102 5.51717 13.8454 5.61376 13.6123C5.71035 13.3791 5.87391 13.1798 6.08377 13.0396C6.29363 12.8993 6.54036 12.8245 6.79276 12.8245C7.13121 12.8245 7.4558 12.9589 7.69512 13.1983C7.93444 13.4376 8.06889 13.7622 8.06889 14.1006ZM18.2072 14.1006C18.2078 14.3533 18.1334 14.6004 17.9935 14.8107C17.8535 15.0211 17.6543 15.1852 17.421 15.2822C17.1877 15.3792 16.9309 15.4047 16.6831 15.3557C16.4353 15.3066 16.2076 15.185 16.0289 15.0064C15.8502 14.8278 15.7285 14.6002 15.6793 14.3524C15.6301 14.1046 15.6556 13.8478 15.7525 13.6144C15.8493 13.3811 16.0133 13.1818 16.2236 13.0417C16.4338 12.9017 16.681 12.8272 16.9336 12.8277C17.271 12.8284 17.5945 12.9627 17.8332 13.2012C18.0718 13.4398 18.2063 13.7632 18.2072 14.1006ZM2.62052 15.4141C2.62039 15.5846 2.56971 15.7513 2.47487 15.893C2.38003 16.0347 2.2453 16.1451 2.08772 16.2102C1.93014 16.2753 1.75678 16.2923 1.58956 16.2589C1.42235 16.2255 1.2688 16.1433 1.14831 16.0226C1.02783 15.902 0.945838 15.7483 0.912697 15.581C0.879556 15.4138 0.896759 15.2404 0.962129 15.0829C1.0275 14.9255 1.1381 14.7909 1.27995 14.6963C1.4218 14.6016 1.58852 14.5512 1.75903 14.5513C1.87225 14.5514 1.98434 14.5738 2.08891 14.6172C2.19347 14.6606 2.28847 14.7242 2.36846 14.8043C2.44846 14.8844 2.51189 14.9795 2.55514 15.0841C2.59839 15.1888 2.62061 15.3009 2.62052 15.4141ZM22.8964 15.4141C22.8963 15.5846 22.8456 15.7513 22.7508 15.893C22.6559 16.0347 22.5212 16.1451 22.3636 16.2102C22.206 16.2753 22.0327 16.2923 21.8655 16.2589C21.6982 16.2255 21.5447 16.1433 21.4242 16.0226C21.3037 15.902 21.2217 15.7483 21.1886 15.581C21.1554 15.4138 21.1727 15.2404 21.238 15.0829C21.3034 14.9255 21.414 14.7909 21.5558 14.6963C21.6977 14.6016 21.8644 14.5512 22.0349 14.5513C22.2635 14.5515 22.4827 14.6424 22.6444 14.804C22.806 14.9657 22.8969 15.1849 22.8971 15.4135L22.8964 15.4141ZM12.7588 20.5167C12.7589 20.6873 12.7084 20.8541 12.6138 20.9959C12.5191 21.1378 12.3844 21.2484 12.2269 21.3138C12.0693 21.3791 11.8959 21.3962 11.7286 21.363C11.5613 21.3297 11.4076 21.2476 11.287 21.127C11.1664 21.0064 11.0843 20.8527 11.0511 20.6854C11.0178 20.5181 11.0349 20.3447 11.1003 20.1871C11.1656 20.0296 11.2762 19.8949 11.4181 19.8003C11.56 19.7056 11.7267 19.6551 11.8973 19.6552C12.1257 19.6556 12.3446 19.7465 12.5061 19.9079C12.6676 20.0694 12.7585 20.2883 12.7588 20.5167ZM7.65553 17.9638C7.65553 18.1343 7.60495 18.3011 7.51019 18.4428C7.41543 18.5846 7.28075 18.6951 7.12317 18.7604C6.9656 18.8256 6.79222 18.8426 6.62497 18.8093C6.45771 18.776 6.3041 18.6938 6.18355 18.5732C6.06301 18.4526 5.98095 18.2989 5.94775 18.1316C5.91456 17.9643 5.93173 17.791 5.99708 17.6334C6.06243 17.4759 6.17303 17.3413 6.31489 17.2467C6.45675 17.152 6.6235 17.1015 6.79404 17.1017C6.90723 17.1017 7.01931 17.124 7.12387 17.1673C7.22843 17.2106 7.32343 17.2742 7.40344 17.3542C7.48344 17.4343 7.54688 17.5293 7.59014 17.6339C7.6334 17.7385 7.65562 17.8506 7.65553 17.9638ZM17.7938 17.9638C17.7942 18.1345 17.7439 18.3014 17.6493 18.4435C17.5547 18.5856 17.4201 18.6964 17.2625 18.7619C17.1049 18.8274 16.9314 18.8446 16.7639 18.8114C16.5965 18.7782 16.4427 18.696 16.3221 18.5754C16.2014 18.4547 16.1192 18.3009 16.086 18.1335C16.0528 17.966 16.07 17.7925 16.1355 17.6349C16.201 17.4773 16.3118 17.3427 16.4539 17.2481C16.596 17.1535 16.7629 17.1032 16.9336 17.1036C17.1615 17.1043 17.3798 17.1952 17.5409 17.3563C17.7019 17.5175 17.7926 17.7359 17.7932 17.9638H17.7938ZM2.20716 18.448C2.20716 18.5371 2.18073 18.6243 2.1312 18.6984C2.08168 18.7725 2.01129 18.8303 1.92893 18.8644C1.84658 18.8985 1.75596 18.9074 1.66853 18.89C1.5811 18.8726 1.50079 18.8297 1.43776 18.7667C1.37473 18.7037 1.3318 18.6233 1.31441 18.5359C1.29702 18.4485 1.30595 18.3579 1.34006 18.2755C1.37417 18.1932 1.43194 18.1228 1.50606 18.0732C1.58018 18.0237 1.66732 17.9973 1.75646 17.9973C1.87599 17.9973 1.99063 18.0448 2.07515 18.1293C2.15968 18.2138 2.20716 18.3285 2.20716 18.448ZM22.4831 18.448C22.4831 18.5371 22.4566 18.6243 22.4071 18.6984C22.3576 18.7725 22.2872 18.8303 22.2048 18.8644C22.1225 18.8985 22.0319 18.9074 21.9444 18.89C21.857 18.8726 21.7767 18.8297 21.7137 18.7667C21.6506 18.7037 21.6077 18.6233 21.5903 18.5359C21.5729 18.4485 21.5818 18.3579 21.616 18.2755C21.6501 18.1932 21.7078 18.1228 21.782 18.0732C21.8561 18.0237 21.9432 17.9973 22.0324 17.9973C22.1519 17.9973 22.2665 18.0448 22.351 18.1293C22.4356 18.2138 22.4831 18.3285 22.4831 18.448ZM12.3448 23.5519C12.3448 23.641 12.3184 23.7282 12.2688 23.8023C12.2193 23.8764 12.1489 23.9342 12.0666 23.9683C11.9842 24.0024 11.8936 24.0113 11.8062 23.9939C11.7187 23.9766 11.6384 23.9336 11.5754 23.8706C11.5124 23.8076 11.4694 23.7273 11.452 23.6398C11.4346 23.5524 11.4436 23.4618 11.4777 23.3794C11.5118 23.2971 11.5696 23.2267 11.6437 23.1772C11.7178 23.1276 11.8049 23.1012 11.8941 23.1012C12.0136 23.1012 12.1283 23.1487 12.2128 23.2332C12.2973 23.3177 12.3448 23.4324 12.3448 23.5519ZM7.24153 21.0003C7.24153 21.0894 7.2151 21.1765 7.16557 21.2507C7.11605 21.3248 7.04566 21.3826 6.9633 21.4167C6.88095 21.4508 6.79032 21.4597 6.7029 21.4423C6.61547 21.4249 6.53516 21.382 6.47213 21.319C6.4091 21.2559 6.36617 21.1756 6.34878 21.0882C6.33139 21.0008 6.34031 20.9101 6.37443 20.8278C6.40854 20.7454 6.46631 20.675 6.54043 20.6255C6.61454 20.576 6.70168 20.5496 6.79082 20.5496C6.91036 20.5496 7.025 20.597 7.10952 20.6816C7.19404 20.7661 7.24153 20.8807 7.24153 21.0003ZM17.3798 21.0003C17.3798 21.0894 17.3534 21.1765 17.3038 21.2507C17.2543 21.3248 17.1839 21.3826 17.1016 21.4167C17.0192 21.4508 16.9286 21.4597 16.8412 21.4423C16.7537 21.4249 16.6734 21.382 16.6104 21.319C16.5474 21.2559 16.5044 21.1756 16.487 21.0882C16.4697 21.0008 16.4786 20.9101 16.5127 20.8278C16.5468 20.7454 16.6046 20.675 16.6787 20.6255C16.7528 20.576 16.84 20.5496 16.9291 20.5496C17.0486 20.5496 17.1633 20.597 17.2478 20.6816C17.3323 20.7661 17.3798 20.8807 17.3798 21.0003ZM13.5855 1.72427C13.5855 2.06535 13.4844 2.39877 13.2948 2.68235C13.1053 2.96594 12.8359 3.18694 12.5208 3.31741C12.2057 3.44787 11.8589 3.48195 11.5244 3.41531C11.1899 3.34867 10.8826 3.18433 10.6416 2.94305C10.4005 2.70178 10.2363 2.39443 10.17 2.05987C10.1036 1.72531 10.1379 1.37857 10.2686 1.06353C10.3993 0.748481 10.6205 0.479276 10.9042 0.289966C11.188 0.100656 11.5215 -0.000254248 11.8625 4.81076e-07C12.3196 0.000341841 12.7579 0.182156 13.0809 0.505482C13.404 0.828808 13.5855 1.26719 13.5855 1.72427ZM13.5855 6.82496C13.5855 7.16601 13.4844 7.49941 13.2949 7.78298C13.1054 8.06655 12.8361 8.28755 12.5209 8.41804C12.2058 8.54852 11.8591 8.58263 11.5246 8.51605C11.1901 8.44946 10.8829 8.28518 10.6418 8.04397C10.4007 7.80276 10.2365 7.49547 10.17 7.16095C10.1036 6.82643 10.1378 6.47972 10.2684 6.16466C10.399 5.84961 10.6201 5.58036 10.9038 5.39097C11.1874 5.20158 11.5208 5.10056 11.8619 5.10069C12.3191 5.10086 12.7575 5.2826 13.0807 5.60594C13.4039 5.92929 13.5855 6.36777 13.5855 6.82496ZM13.5855 11.86C13.5855 12.201 13.4844 12.5344 13.2949 12.818C13.1054 13.1016 12.8361 13.3226 12.5209 13.4531C12.2058 13.5835 11.8591 13.6176 11.5246 13.5511C11.1901 13.4845 10.8829 13.3202 10.6418 13.079C10.4007 12.8378 10.2365 12.5305 10.17 12.196C10.1036 11.8614 10.1378 11.5147 10.2684 11.1997C10.399 10.8846 10.6201 10.6154 10.9038 10.426C11.1874 10.2366 11.5208 10.1356 11.8619 10.1357C12.0885 10.1358 12.3128 10.1805 12.5221 10.2674C12.7314 10.3542 12.9215 10.4815 13.0816 10.6419C13.2417 10.8022 13.3686 10.9926 13.4551 11.2021C13.5415 11.4115 13.5858 11.636 13.5855 11.8625V11.86ZM23.7244 6.82496C23.7244 7.16599 23.6233 7.49936 23.4338 7.78291C23.2444 8.06647 22.9751 8.28747 22.66 8.41797C22.3449 8.54848 21.9982 8.58263 21.6638 8.51609C21.3293 8.44956 21.0221 8.28534 20.7809 8.0442C20.5398 7.80306 20.3756 7.49582 20.309 7.16135C20.2425 6.82687 20.2766 6.48018 20.4071 6.16511C20.5377 5.85004 20.7587 5.58075 21.0422 5.39128C21.3258 5.20182 21.6591 5.10069 22.0002 5.10069C22.4575 5.10069 22.896 5.28235 23.2194 5.60572C23.5428 5.92908 23.7244 6.36765 23.7244 6.82496ZM3.44853 6.82496C3.44904 7.1661 3.34835 7.49972 3.15919 7.78361C2.97004 8.0675 2.70092 8.28891 2.3859 8.41981C2.07088 8.55071 1.7241 8.58522 1.38946 8.51898C1.05481 8.45274 0.747339 8.28873 0.505938 8.04769C0.264537 7.80665 0.100061 7.49942 0.033321 7.16487C-0.0334192 6.83033 0.000576273 6.4835 0.131006 6.16828C0.261435 5.85306 0.482437 5.58362 0.766047 5.39404C1.04966 5.20446 1.38313 5.10327 1.72426 5.10327C2.18112 5.10327 2.61931 5.28458 2.94259 5.60738C3.26588 5.93019 3.44785 6.3681 3.44853 6.82496ZM8.55179 4.27333C8.5523 4.61435 8.45167 4.94787 8.26263 5.23171C8.07359 5.51555 7.80462 5.73695 7.48975 5.86793C7.17488 5.9989 6.82824 6.03357 6.49366 5.96754C6.15909 5.9015 5.85161 5.73774 5.61011 5.49696C5.36861 5.25618 5.20393 4.94919 5.1369 4.61481C5.06987 4.28044 5.10349 3.93369 5.23353 3.61843C5.36356 3.30317 5.58416 3.03354 5.86743 2.84366C6.1507 2.65377 6.48392 2.55214 6.82495 2.55163C7.28225 2.55163 7.72083 2.7333 8.04419 3.05666C8.36755 3.38002 8.54921 3.8186 8.54921 4.2759L8.55179 4.27333ZM8.54921 9.31027C8.54921 9.6513 8.44809 9.98467 8.25862 10.2682C8.06916 10.5518 7.79986 10.7728 7.4848 10.9033C7.16973 11.0338 6.82304 11.0679 6.48856 11.0014C6.15409 10.9349 5.84685 10.7707 5.60571 10.5295C5.36457 10.2884 5.20035 9.98114 5.13381 9.64666C5.06728 9.31219 5.10143 8.96549 5.23194 8.65042C5.36244 8.33535 5.58344 8.06606 5.867 7.8766C6.15055 7.68713 6.48392 7.58601 6.82495 7.58601C7.28225 7.58601 7.72083 7.76767 8.04419 8.09103C8.36755 8.4144 8.54921 8.85297 8.54921 9.31027ZM18.6901 4.2759C18.6901 4.61693 18.5889 4.9503 18.3995 5.23385C18.21 5.51741 17.9407 5.73841 17.6256 5.86892C17.3106 5.99942 16.9639 6.03357 16.6294 5.96704C16.2949 5.90051 15.9877 5.73629 15.7466 5.49514C15.5054 5.254 15.3412 4.94676 15.2747 4.61229C15.2081 4.27781 15.2423 3.93112 15.3728 3.61605C15.5033 3.30098 15.7243 3.03169 16.0078 2.84222C16.2914 2.65276 16.6248 2.55163 16.9658 2.55163C17.4231 2.55163 17.8617 2.7333 18.185 3.05666C18.5084 3.38002 18.6901 3.8186 18.6901 4.2759ZM18.6901 9.31027C18.6901 9.6513 18.5889 9.98467 18.3995 10.2682C18.21 10.5518 17.9407 10.7728 17.6256 10.9033C17.3106 11.0338 16.9639 11.0679 16.6294 11.0014C16.2949 10.9349 15.9877 10.7707 15.7466 10.5295C15.5054 10.2884 15.3412 9.98114 15.2747 9.64666C15.2081 9.31219 15.2423 8.96549 15.3728 8.65042C15.5033 8.33535 15.7243 8.06606 16.0078 7.8766C16.2914 7.68713 16.6248 7.58601 16.9658 7.58601C17.4231 7.58601 17.8617 7.76767 18.185 8.09103C18.5084 8.4144 18.6901 8.85297 18.6901 9.31027Z" fill="#141414"/>
</g>
<defs>
<clipPath id="clip0">
<rect width="24" height="24" fill="white"/>
</clipPath>
</defs>
</svg>
