<svg width="24" height="24" viewBox="0 0 24 24" fill="none" xmlns="http://www.w3.org/2000/svg">
<path fill-rule="evenodd" clip-rule="evenodd" d="M10.5212 17.5871C8.0269 16.94 6.17956 14.6697 6.17956 11.9758C6.17956 9.2819 8.0269 7.01157 10.5212 6.36451V4.29382C6.90297 4.97746 4.15759 8.16182 4.15759 11.9758C4.15759 15.7898 6.90297 18.9741 10.5212 19.6578V17.5871Z" fill="black"/>
<path fill-rule="evenodd" clip-rule="evenodd" d="M11.9758 23.2243C5.77338 23.2243 0.727273 18.1782 0.727273 11.9758C0.727273 5.77338 5.77338 0.727273 11.9758 0.727273C18.1782 0.727273 23.2243 5.77338 23.2243 11.9758C23.2243 18.1782 18.1782 23.2243 11.9758 23.2243ZM11.9758 0C5.37236 0 0 5.37236 0 11.9758C0 18.5792 5.37236 23.9516 11.9758 23.9516C18.5792 23.9516 23.9516 18.5792 23.9516 11.9758C23.9516 5.37236 18.5792 0 11.9758 0Z" fill="black"/>
<path fill-rule="evenodd" clip-rule="evenodd" d="M13.4303 4.29382V6.36451C15.9246 7.01157 17.772 9.2819 17.772 11.9758C17.772 14.6697 15.9246 16.9401 13.4303 17.5871V19.6578C17.0486 18.9741 19.7939 15.7898 19.7939 11.9758C19.7939 8.16182 17.0486 4.97746 13.4303 4.29382Z" fill="black"/>
</svg>
