<svg width="24" height="24" viewBox="0 0 24 24" fill="none" xmlns="http://www.w3.org/2000/svg">
<path d="M12 0.0628204C5.40318 0.0628204 0.0628662 5.40313 0.0628662 12C0.0628662 18.5968 5.40318 23.9372 12 23.9372C18.5969 23.9372 23.9372 18.5968 23.9372 12C23.9372 5.40313 18.5969 0.0628204 12 0.0628204Z" fill="#1A53F0"/>
<path d="M15.7697 5.47853C13.9979 5.47853 12.5655 6.91099 12.5655 8.68272C12.5655 10.4544 13.9979 11.8869 15.7697 11.8869C17.5414 11.8869 18.9739 10.4544 18.9739 8.68272C18.9739 6.91099 17.5414 5.47853 15.7697 5.47853ZM15.7697 10.9194C14.5383 10.9194 13.533 9.91413 13.533 8.68272C13.533 7.45131 14.5383 6.44607 15.7697 6.44607C17.0011 6.44607 18.0063 7.45131 18.0063 8.68272C18.0063 9.91413 17.0011 10.9194 15.7697 10.9194ZM8.93407 12.3141C7.16234 12.3141 5.72988 13.7466 5.72988 15.5183C5.72988 17.2901 7.16234 18.7225 8.93407 18.7225C10.7058 18.7225 12.1383 17.2901 12.1383 15.5183C12.1383 13.7466 10.7058 12.3141 8.93407 12.3141ZM8.93407 17.755C7.70266 17.755 6.69742 16.7497 6.69742 15.5183C6.69742 14.2869 7.70266 13.2817 8.93407 13.2817C10.1655 13.2817 11.1707 14.2869 11.1707 15.5183C11.1707 16.7497 10.1655 17.755 8.93407 17.755ZM12.1383 6.44607V5.47853H8.93407C7.40109 5.46597 6.09428 6.5466 5.79271 8.04188C5.49114 9.53717 6.28276 11.045 7.69009 11.6356C9.09742 12.2262 10.7309 11.7487 11.5854 10.4921C12.4398 9.2356 12.3016 7.53927 11.2335 6.44607H12.1383ZM8.93407 10.9194C7.70266 10.9194 6.69742 9.91413 6.69742 8.68272C6.69742 7.45131 7.70266 6.44607 8.93407 6.44607C10.1655 6.44607 11.1707 7.45131 11.1707 8.68272C11.1707 9.91413 10.1655 10.9194 8.93407 10.9194Z" fill="white"/>
</svg>
