<svg width="24" height="24" viewBox="0 0 24 24" fill="none" xmlns="http://www.w3.org/2000/svg">
<g clip-path="url(#clip0)">
<path d="M18.8227 -1.36973e-05C17.4519 -0.00107787 16.1367 0.54181 15.1657 1.50948C14.1948 2.47715 13.6475 3.79053 13.644 5.16132V10.884C13.1107 10.92 12.5653 10.9427 12 10.9427C11.4347 10.9427 10.892 10.9653 10.356 10.9973V5.16132C10.3342 3.80242 9.77907 2.50655 8.81037 1.55328C7.84168 0.60001 6.53708 0.0657461 5.178 0.0657461C3.81892 0.0657461 2.51432 0.60001 1.54563 1.55328C0.576935 2.50655 0.0218067 3.80242 0 5.16132V18.8387C0.0218067 20.1976 0.576935 21.4934 1.54563 22.4467C2.51432 23.4 3.81892 23.9342 5.178 23.9342C6.53708 23.9342 7.84168 23.4 8.81037 22.4467C9.77907 21.4934 10.3342 20.1976 10.356 18.8387V13.116C10.8893 13.08 11.4347 13.0573 12 13.0573C12.5653 13.0573 13.108 13.0347 13.644 13.0027V18.8387C13.6658 20.1976 14.2209 21.4934 15.1896 22.4467C16.1583 23.4 17.4629 23.9342 18.822 23.9342C20.1811 23.9342 21.4857 23.4 22.4544 22.4467C23.4231 21.4934 23.9782 20.1976 24 18.8387V5.16132C23.9965 3.79076 23.4494 2.47758 22.4787 1.50995C21.5081 0.54232 20.1932 -0.00072454 18.8227 -1.36973e-05ZM5.17733 2.11465C5.98633 2.1143 6.76243 2.43487 7.33535 3.00604C7.90827 3.57721 8.23122 4.35233 8.23333 5.16132V11.2213C6.71838 11.4408 5.23897 11.8591 3.83333 12.4653C3.22431 12.7326 2.651 13.0748 2.12667 13.484V5.16132C2.12878 4.35325 2.451 3.57894 3.02277 3.00792C3.59453 2.43691 4.36926 2.11571 5.17733 2.11465ZM8.23333 18.8387C8.23333 19.6492 7.91136 20.4265 7.33825 20.9996C6.76514 21.5727 5.98784 21.8947 5.17733 21.8947C4.36683 21.8947 3.58953 21.5727 3.01642 20.9996C2.4433 20.4265 2.12133 19.6492 2.12133 18.8387V17.4667C2.12133 16.2547 3.08133 15.1067 4.69067 14.392C5.82463 13.9028 7.01445 13.5548 8.23333 13.356V18.8387ZM18.8227 21.8853C18.0137 21.8857 17.2376 21.5651 16.6647 20.9939C16.0917 20.4228 15.7688 19.6476 15.7667 18.8387V12.7787C17.2816 12.5591 18.761 12.1409 20.1667 11.5347C20.7757 11.2674 21.349 10.9252 21.8733 10.516V18.8387C21.8712 19.6467 21.549 20.421 20.9772 20.992C20.4055 21.5631 19.6307 21.8843 18.8227 21.8853ZM19.3093 9.59999C18.1754 10.0892 16.9856 10.4372 15.7667 10.636V5.16132C15.7667 4.35082 16.0886 3.57351 16.6618 3.0004C17.2349 2.42729 18.0122 2.10532 18.8227 2.10532C19.6332 2.10532 20.4105 2.42729 20.9836 3.0004C21.5567 3.57351 21.8787 4.35082 21.8787 5.16132V6.53332C21.8787 7.73999 20.9187 8.88799 19.3093 9.59999Z" fill="url(#paint0_linear)"/>
</g>
<defs>
<linearGradient id="paint0_linear" x1="1.52" y1="22.1511" x2="22.3431" y2="1.27113" gradientUnits="userSpaceOnUse">
<stop stop-color="#00AEE9"/>
<stop offset="1" stop-color="#69FABD"/>
</linearGradient>
<clipPath id="clip0">
<rect width="24" height="24" fill="white"/>
</clipPath>
</defs>
</svg>
