<svg width="24" height="24" viewBox="0 0 24 24" fill="none" xmlns="http://www.w3.org/2000/svg">
<path d="M12 24C18.6274 24 24 18.6274 24 12C24 5.37258 18.6274 0 12 0C5.37258 0 0 5.37258 0 12C0 18.6274 5.37258 24 12 24Z" fill="#25AAE1"/>
<path fill-rule="evenodd" clip-rule="evenodd" d="M12.2596 18.7447C11.0296 18.7582 9.9968 18.5362 9.0233 18.0525C8.9633 18.0225 8.9183 18.021 8.8583 18.0547C8.26701 18.3889 7.61786 18.6083 6.94505 18.7012C6.65705 18.7387 6.36605 18.7792 6.07655 18.72C5.89829 18.685 5.73253 18.6032 5.59627 18.4831C5.46002 18.3629 5.35816 18.2087 5.30115 18.0362C5.24414 17.8637 5.23401 17.6792 5.27182 17.5015C5.30963 17.3238 5.39401 17.1593 5.5163 17.025C5.85999 16.6346 6.11803 16.1765 6.2738 15.6802C6.28296 15.6555 6.2859 15.6289 6.28237 15.6027C6.27884 15.5766 6.26895 15.5517 6.25355 15.5302C5.72262 14.6875 5.39475 13.7329 5.2958 12.7417C5.0753 10.5502 5.75705 8.673 7.3283 7.134C8.31716 6.1545 9.59685 5.52189 10.9756 5.331C12.8783 5.05275 14.6123 5.49225 16.1356 6.672C17.4946 7.725 18.3406 9.11175 18.6353 10.8052C19.0088 12.9487 18.4681 14.8582 17.0303 16.4902C15.9676 17.6962 14.6176 18.4125 13.0291 18.6667C12.7276 18.7155 12.4216 18.729 12.2596 18.7447ZM7.43705 16.9537C7.4858 16.9402 7.5143 16.9327 7.54205 16.9237C7.96863 16.7797 8.3715 16.5732 8.73755 16.311C9.00155 16.125 9.2618 16.116 9.54005 16.275C10.1371 16.617 10.7768 16.83 11.4631 16.9027C12.5783 17.022 13.6306 16.8097 14.5718 16.2052C16.1993 15.1612 17.0093 13.6582 16.9216 11.712C16.8653 10.4655 16.3771 9.38925 15.4928 8.5125C14.4271 7.4565 13.1303 6.975 11.6281 7.0785C10.6156 7.149 9.70055 7.497 8.9213 8.14725C7.41155 9.40725 6.8288 11.0227 7.1633 12.96C7.2728 13.5975 7.52705 14.1825 7.88555 14.7225C7.95397 14.819 8.00083 14.9291 8.02295 15.0453C8.04508 15.1615 8.04196 15.2811 8.0138 15.396C7.92807 15.769 7.80754 16.133 7.6538 16.4835C7.58705 16.6357 7.51505 16.785 7.4378 16.9537H7.43705ZM12.0053 9.14475L12.4328 10.0125C12.5828 10.32 12.7373 10.6275 12.8828 10.938C12.9203 11.019 12.9706 11.0475 13.0546 11.0587C13.6846 11.1465 14.3138 11.2387 14.9431 11.3295C14.9648 11.3332 14.9866 11.3392 15.0136 11.3445C14.8973 11.4645 14.7893 11.5815 14.6761 11.6917C14.3206 12.039 13.9643 12.3847 13.6058 12.7282C13.5436 12.7882 13.5188 12.8445 13.5353 12.9367C13.6478 13.569 13.7528 14.2027 13.8593 14.8365C13.8616 14.8522 13.8616 14.8687 13.8638 14.8995C13.8293 14.886 13.8031 14.8777 13.7791 14.865C13.2226 14.5717 12.6653 14.2792 12.1111 13.9815C12.0361 13.941 11.9776 13.9372 11.8996 13.9792C11.3416 14.277 10.7813 14.5702 10.2211 14.8642C10.1986 14.877 10.1746 14.8867 10.1311 14.9077C10.1588 14.7375 10.1828 14.5852 10.2091 14.4337C10.2976 13.9222 10.3853 13.41 10.4791 12.8992C10.4926 12.8242 10.4506 12.789 10.4086 12.7477C9.96198 12.3088 9.51448 11.8708 9.06605 11.4337C9.04055 11.4082 9.00455 11.394 8.97305 11.3745L8.9963 11.3385L9.6833 11.2395C10.1153 11.178 10.5466 11.115 10.9793 11.0557C11.0483 11.046 11.0798 11.0092 11.1083 10.9507C11.3911 10.374 11.6768 9.79875 11.9611 9.22275C11.9716 9.2025 11.9836 9.18375 12.0061 9.14475H12.0053Z" fill="white"/>
</svg>
