<svg width="24" height="24" viewBox="0 0 24 24" fill="none" xmlns="http://www.w3.org/2000/svg">
<path d="M12 24C18.6274 24 24 18.6274 24 12C24 5.37258 18.6274 0 12 0C5.37258 0 0 5.37258 0 12C0 18.6274 5.37258 24 12 24Z" fill="#34445B"/>
<path d="M11.9528 7.66649L13.4602 5.31449C13.8471 5.37723 14.2431 5.28842 14.5661 5.06653C14.8891 4.84464 15.1141 4.50677 15.1943 4.1232C15.2745 3.73964 15.2037 3.33993 14.9967 3.00723C14.7896 2.67453 14.4623 2.43447 14.0828 2.33699C13.7804 2.27438 13.4662 2.30517 13.1818 2.42527C12.8974 2.54536 12.6562 2.74909 12.4902 3.00943C12.3242 3.26977 12.2413 3.57441 12.2525 3.88295C12.2637 4.19149 12.3684 4.48934 12.5527 4.73699L10.6823 7.65524C9.90164 7.73202 9.14381 7.96188 8.45208 8.33167C7.76034 8.70146 7.14826 9.20395 6.65081 9.8104C6.15336 10.4169 5.78029 11.1154 5.55293 11.8661C5.32557 12.6168 5.24837 13.4049 5.32575 14.1855C5.48178 15.7615 6.25723 17.211 7.48163 18.2154C8.70603 19.2199 10.2792 19.697 11.8552 19.542C13.4314 19.3861 14.8811 18.6108 15.8857 17.3864C16.8903 16.1619 17.3675 14.5887 17.2125 13.0125C17.0779 11.6548 16.4826 10.3841 15.5258 9.41155C14.5689 8.43901 13.3081 7.8232 11.9528 7.66649ZM11.2665 16.758C10.8504 16.7584 10.4384 16.6767 10.0539 16.5177C9.66938 16.3587 9.32002 16.1254 9.02577 15.8312C8.73153 15.5371 8.49817 15.1878 8.33906 14.8033C8.17995 14.4189 8.0982 14.0068 8.0985 13.5907C8.09811 13.1746 8.17978 12.7625 8.33885 12.3779C8.49791 11.9934 8.73125 11.644 9.02551 11.3497C9.31976 11.0555 9.66915 10.8222 10.0537 10.6631C10.4382 10.504 10.8504 10.4223 11.2665 10.4227C11.9101 10.4226 12.5384 10.6186 13.0677 10.9847C13.597 11.3508 14.0021 11.8695 14.229 12.4717C13.9313 12.0884 13.4937 11.8389 13.0122 11.778C12.5307 11.7171 12.0447 11.8498 11.661 12.147C11.2775 12.4445 11.0279 12.8822 10.967 13.3638C10.9061 13.8453 11.0389 14.3313 11.3362 14.715C11.5071 14.9347 11.7257 15.1126 11.9756 15.2352C12.2255 15.3577 12.5 15.4217 12.7783 15.4222C13.0567 15.4227 13.3314 15.3597 13.5818 15.2381C13.8321 15.1165 14.0514 14.9394 14.223 14.7202C13.9952 15.3198 13.5903 15.8358 13.0622 16.1998C12.5342 16.5637 11.9079 16.7584 11.2665 16.758Z" fill="white"/>
<path d="M11.9528 7.66649L13.4602 5.31449C13.8471 5.37723 14.2431 5.28842 14.5661 5.06653C14.8891 4.84464 15.1141 4.50677 15.1943 4.1232C15.2745 3.73964 15.2037 3.33993 14.9967 3.00723C14.7896 2.67453 14.4623 2.43447 14.0828 2.33699C13.7804 2.27438 13.4662 2.30517 13.1818 2.42527C12.8974 2.54536 12.6562 2.74909 12.4902 3.00943C12.3242 3.26977 12.2413 3.57441 12.2525 3.88295C12.2637 4.19149 12.3684 4.48934 12.5527 4.73699L10.6823 7.65524C9.90164 7.73202 9.14381 7.96188 8.45208 8.33167C7.76034 8.70146 7.14826 9.20395 6.65081 9.8104C6.15336 10.4169 5.78029 11.1154 5.55293 11.8661C5.32557 12.6168 5.24837 13.4049 5.32575 14.1855C5.48178 15.7615 6.25723 17.211 7.48163 18.2154C8.70603 19.2199 10.2792 19.697 11.8552 19.542C13.4314 19.3861 14.8811 18.6108 15.8857 17.3864C16.8903 16.1619 17.3675 14.5887 17.2125 13.0125C17.0779 11.6548 16.4826 10.3841 15.5258 9.41155C14.5689 8.43901 13.3081 7.8232 11.9528 7.66649ZM11.2665 16.758C10.8504 16.7584 10.4384 16.6767 10.0539 16.5177C9.66938 16.3587 9.32002 16.1254 9.02577 15.8312C8.73153 15.5371 8.49817 15.1878 8.33906 14.8033C8.17995 14.4189 8.0982 14.0068 8.0985 13.5907C8.09811 13.1746 8.17978 12.7625 8.33885 12.3779C8.49791 11.9934 8.73125 11.644 9.02551 11.3497C9.31976 11.0555 9.66915 10.8222 10.0537 10.6631C10.4382 10.504 10.8504 10.4223 11.2665 10.4227C11.9101 10.4226 12.5384 10.6186 13.0677 10.9847C13.597 11.3508 14.0021 11.8695 14.229 12.4717C13.9313 12.0884 13.4937 11.8389 13.0122 11.778C12.5307 11.7171 12.0447 11.8498 11.661 12.147C11.2775 12.4445 11.0279 12.8822 10.967 13.3638C10.9061 13.8453 11.0389 14.3313 11.3362 14.715C11.5071 14.9347 11.7257 15.1126 11.9756 15.2352C12.2255 15.3577 12.5 15.4217 12.7783 15.4222C13.0567 15.4227 13.3314 15.3597 13.5818 15.2381C13.8321 15.1165 14.0514 14.9394 14.223 14.7202C13.9952 15.3198 13.5903 15.8358 13.0622 16.1998C12.5342 16.5637 11.9079 16.7584 11.2665 16.758Z" fill="white"/>
</svg>
