<svg width="24" height="24" viewBox="0 0 24 24" fill="none" xmlns="http://www.w3.org/2000/svg">
<g clip-path="url(#clip0)">
<path d="M6.41644 4.05086C6.03364 4.69526 5.20084 4.90766 4.55644 4.52486C3.91204 4.14206 3.69964 3.30926 4.08244 2.66486C4.46524 2.02046 5.29804 1.80806 5.94244 2.19086C6.58684 2.57366 6.79924 3.40646 6.41644 4.05086Z" fill="#5F45BA"/>
<path d="M1.78333 3.44843C1.51333 3.90323 0.924126 4.05323 0.469326 3.78323C0.0145262 3.51323 -0.135474 2.92523 0.134526 2.46923C0.404526 2.01323 0.993726 1.86443 1.44853 2.13443C1.90453 2.40563 2.05453 2.99363 1.78333 3.44843Z" fill="#5F45BA"/>
<path d="M14.681 23.0925C19.6538 22.5081 23.6534 18.4425 23.9798 13.2681C24.347 7.44567 19.9238 2.42847 14.1014 2.06247C13.4186 2.01927 12.7334 2.04327 12.0554 2.13207C10.6562 2.24607 9.47422 2.78007 9.47422 2.78007C8.51662 3.24807 7.89862 4.03047 7.89862 5.07687C7.89862 6.43767 9.00142 7.54167 10.3622 7.54167C10.5902 7.54167 11.3774 7.29207 11.5646 7.22727C12.2798 6.97767 13.0382 6.87447 13.7942 6.92367C15.8054 7.05087 17.5058 8.20767 18.4166 9.84807C18.9446 10.7985 19.1882 11.8797 19.1186 12.9645C18.9206 16.1025 16.217 18.4869 13.0778 18.2889C11.2238 18.1713 9.63382 17.1789 8.68222 15.7401V15.7413V15.7401C7.54462 14.2521 7.80742 11.8725 7.80622 11.8425C7.75942 10.5189 6.67582 9.46047 5.34142 9.46047C4.20142 9.46047 3.24502 10.2345 2.96062 11.2845C2.90542 11.4909 2.87662 12.0957 2.88502 12.1761C2.64982 17.8977 7.02862 22.7853 12.7718 23.1465C13.409 23.1861 14.0474 23.1681 14.681 23.0925Z" fill="#5F45BA"/>
<path d="M5.00291 7.81885C4.50611 8.65525 3.42611 8.93005 2.59091 8.43325C1.75571 7.93645 1.47971 6.85645 1.97651 6.02126C2.47331 5.18606 3.55331 4.91006 4.38851 5.40686C5.22371 5.90366 5.49851 6.98365 5.00291 7.81885Z" fill="#5F45BA"/>
</g>
<defs>
<clipPath id="clip0">
<rect width="24" height="24" fill="white"/>
</clipPath>
</defs>
</svg>
