<svg width="24" height="24" viewBox="0 0 24 24" fill="none" xmlns="http://www.w3.org/2000/svg">
<g clip-path="url(#clip0)">
<path d="M23.9999 12C23.9999 14.3734 23.2962 16.6935 21.9776 18.6668C20.659 20.6402 18.7849 22.1783 16.5921 23.0866C14.3994 23.9948 11.9866 24.2324 9.65886 23.7694C7.33109 23.3064 5.19289 22.1635 3.51466 20.4853C1.83643 18.8071 0.693544 16.6689 0.230521 14.3411C-0.232502 12.0133 0.00513834 9.60051 0.91339 7.4078C1.82164 5.21509 3.35971 3.34094 5.3331 2.02236C7.30649 0.703788 9.62657 0 11.9999 0C15.1825 0 18.2348 1.26428 20.4852 3.51472C22.7357 5.76516 23.9999 8.8174 23.9999 12ZM16.8871 5.8125L17.0624 4.96875C17.0752 4.92394 17.0772 4.87674 17.0682 4.83101C17.0592 4.78529 17.0395 4.74235 17.0107 4.70574C16.9818 4.66913 16.9447 4.63989 16.9024 4.62042C16.86 4.60095 16.8137 4.59181 16.7671 4.59375H16.2046C16.0983 4.59821 15.9964 4.63726 15.9144 4.70494C15.8323 4.77263 15.7746 4.86526 15.7499 4.96875L15.5709 5.8125H14.2584L14.4374 4.96875C14.4502 4.92394 14.4522 4.87674 14.4432 4.83101C14.4342 4.78529 14.4145 4.74235 14.3857 4.70574C14.3568 4.66913 14.3197 4.63989 14.2774 4.62042C14.235 4.60095 14.1887 4.59181 14.1421 4.59375H13.5796C13.4733 4.59821 13.3714 4.63726 13.2894 4.70494C13.2073 4.77263 13.1496 4.86526 13.1249 4.96875L12.9459 5.8125H5.62494L3.74994 8.0625H16.1249C16.4233 8.0625 16.7095 8.18103 16.9204 8.392C17.1314 8.60298 17.2499 8.88913 17.2499 9.1875V10.3125C17.2499 10.6109 17.1314 10.897 16.9204 11.108C16.7095 11.319 16.4233 11.4375 16.1249 11.4375H10.3481L10.8262 9.1875H7.82619L5.63432 19.5H8.63432L9.86994 13.6875H11.2762L11.0971 14.5312C11.0843 14.5761 11.0823 14.6233 11.0913 14.669C11.1003 14.7147 11.1201 14.7576 11.1489 14.7943C11.1777 14.8309 11.2148 14.8601 11.2572 14.8796C11.2995 14.8991 11.3459 14.9082 11.3924 14.9062H11.9549C12.0612 14.9018 12.1632 14.8627 12.2452 14.7951C12.3273 14.7274 12.385 14.6347 12.4096 14.5312L12.5887 13.6875H13.9012L13.7221 14.5312C13.7093 14.5761 13.7073 14.6233 13.7163 14.669C13.7253 14.7147 13.7451 14.7576 13.7739 14.7943C13.8027 14.8309 13.8398 14.8601 13.8822 14.8796C13.9245 14.8991 13.9709 14.9082 14.0174 14.9062H14.5799C14.6862 14.9018 14.7882 14.8627 14.8702 14.7951C14.9523 14.7274 15.01 14.6347 15.0346 14.5312L15.2137 13.6875H17.9999C18.5967 13.6875 19.169 13.4504 19.5909 13.0285C20.0129 12.6065 20.2499 12.0342 20.2499 11.4375V8.0625C20.2499 7.46576 20.0129 6.89347 19.5909 6.47151C19.169 6.04955 18.5967 5.8125 17.9999 5.8125H16.8871Z" fill="#F7931E"/>
</g>
<defs>
<clipPath id="clip0">
<rect width="24" height="24" fill="white"/>
</clipPath>
</defs>
</svg>
