<svg width="24" height="24" viewBox="0 0 24 24" fill="none" xmlns="http://www.w3.org/2000/svg">
<path d="M12 10.968C11.76 11.04 11.52 11.184 11.328 11.352C11.16 11.52 11.04 11.76 10.968 12C11.04 12.24 11.184 12.48 11.352 12.672C11.544 12.84 11.76 12.984 12 13.056C12.24 12.984 12.48 12.84 12.672 12.672C12.84 12.504 12.984 12.264 13.056 12.024C12.984 11.784 12.84 11.544 12.672 11.352C12.48 11.16 12.264 11.04 12 10.968Z" fill="#172026"/>
<path d="M12 0C5.376 0 0 5.376 0 12C0 18.624 5.376 24 12 24C18.624 24 24 18.624 24 12C24 5.376 18.624 0 12 0ZM17.76 15.384C17.712 16.008 17.448 16.56 17.016 16.992C16.08 17.928 14.616 18.024 13.776 17.16L13.368 16.776L14.136 16.008L14.52 16.392C14.712 16.56 14.952 16.68 15.216 16.656C15.984 16.632 16.608 16.032 16.68 15.264C16.704 14.976 16.608 14.688 16.416 14.472L14.664 12.72L13.824 13.56C13.776 13.608 13.728 13.632 13.68 13.68C13.632 13.728 13.608 13.752 13.56 13.8L12.72 14.64L13.752 15.672L12.984 16.44L12 15.408L10.248 17.16C9.816 17.592 9.24 17.808 8.616 17.736C7.992 17.688 7.44 17.424 7.008 16.992C6.072 16.056 5.976 14.592 6.84 13.752L7.224 13.368L7.992 14.136L7.608 14.52C7.44 14.712 7.32 14.952 7.344 15.216C7.368 15.984 7.968 16.608 8.736 16.68C9.024 16.704 9.312 16.608 9.528 16.416L11.28 14.664L10.44 13.824C10.392 13.776 10.368 13.728 10.32 13.68C10.272 13.632 10.248 13.608 10.2 13.56L9.36 12.72L8.328 13.752L7.56 12.984L8.592 11.952L6.84 10.2C6.408 9.768 6.192 9.192 6.264 8.568C6.312 7.944 6.576 7.392 7.008 6.96C7.944 6.024 9.408 5.928 10.248 6.792L10.632 7.176L9.864 7.944L9.48 7.56C9.288 7.392 9.048 7.272 8.784 7.296C8.016 7.32 7.392 7.92 7.32 8.688C7.296 8.976 7.392 9.264 7.584 9.48L9.336 11.232L10.176 10.392C10.224 10.344 10.272 10.32 10.32 10.272C10.368 10.224 10.392 10.2 10.44 10.152L11.28 9.312L10.248 8.28L11.016 7.512L12.048 8.544L13.8 6.792C14.232 6.36 14.808 6.144 15.432 6.216C16.056 6.264 16.608 6.528 17.04 6.96C17.976 7.896 18.072 9.36 17.208 10.2L16.824 10.608L16.056 9.84L16.44 9.456C16.608 9.264 16.728 9.024 16.704 8.76C16.68 7.992 16.08 7.368 15.312 7.296C15.024 7.272 14.736 7.368 14.52 7.56L12.768 9.312L13.608 10.152C13.656 10.2 13.68 10.248 13.728 10.296C13.776 10.344 13.8 10.368 13.848 10.416L14.688 11.256L15.72 10.224L16.488 10.992L15.408 12L17.16 13.752C17.592 14.184 17.808 14.784 17.76 15.384Z" fill="#172026"/>
</svg>
