<svg width="24" height="24" viewBox="0 0 24 24" fill="none" xmlns="http://www.w3.org/2000/svg">
<path d="M12 9.89062C10.8375 9.89062 9.89062 10.8375 9.89062 12C9.89062 12.3891 10.2047 12.7031 10.5938 12.7031C10.9828 12.7031 11.2969 12.3891 11.2969 12C11.2969 11.6109 11.6109 11.2969 12 11.2969C12.3891 11.2969 12.7031 10.9828 12.7031 10.5938C12.7031 10.2047 12.3891 9.89062 12 9.89062Z" fill="black"/>
<path d="M22.3031 13.2469C23.3484 12.4641 24 11.2312 24 9.89062C24 8.08125 22.8188 6.4875 21.1172 5.90625C20.8828 3.38438 18.7734 1.40625 16.2188 1.40625C15.9797 1.40625 15.7359 1.425 15.4828 1.47187C14.5547 0.529687 13.3078 0 12 0C10.6922 0 9.44531 0.529687 8.51719 1.47187C8.25937 1.42969 8.01562 1.40625 7.78125 1.40625C5.20312 1.40625 3.07031 3.41719 2.83594 5.90625C1.1625 6.4875 0 8.08125 0 9.89062C0 11.2406 0.646875 12.4781 1.67812 13.2562C0.5625 13.9031 0 14.6625 0 15.5156C0 15.5344 0 15.5531 0 15.5766C0.046875 20.2266 5.40937 24 12 24C18.5906 24 23.9531 20.2266 24 15.5719C24 15.5531 24 15.5344 24 15.5109C24 14.6578 23.4281 13.8938 22.3031 13.2469ZM22.5938 9.89062C22.5938 11.0672 21.825 12.1266 20.7047 12.5344C19.6406 12.1594 18.3516 11.8547 16.9125 11.6437C16.875 11.1234 16.7531 10.6266 16.5656 10.1625L20.5219 7.19531C21.7359 7.5375 22.5938 8.63906 22.5938 9.89062ZM15.4922 2.89687C15.7547 2.84063 15.9937 2.8125 16.2188 2.8125C18.0469 2.8125 19.5469 4.22813 19.7156 6.0375L15.8484 8.93906C15.3422 8.30625 14.6859 7.8 13.9313 7.47656L15.4922 2.89687ZM15.5156 12C15.5156 13.9406 13.9406 15.5156 12 15.5156C10.0594 15.5156 8.48438 13.9406 8.48438 12C8.48438 10.0594 10.0594 8.48438 12 8.48438C13.9406 8.48438 15.5156 10.0594 15.5156 12ZM12 1.40625C12.8203 1.40625 13.6078 1.70156 14.2359 2.23125L12.5672 7.11094C12.3797 7.0875 12.1922 7.07812 12 7.07812C11.8078 7.07812 11.6203 7.0875 11.4328 7.11094L9.76406 2.23125C10.3922 1.70156 11.1797 1.40625 12 1.40625ZM7.78125 2.8125C8.00625 2.8125 8.24063 2.84063 8.50781 2.89687L10.0688 7.47187C9.31406 7.79531 8.65312 8.30156 8.14688 8.93906L4.2375 6.03281C4.41563 4.25625 5.96719 2.8125 7.78125 2.8125ZM1.40625 9.89062C1.40625 8.63437 2.24531 7.53281 3.43594 7.19062L7.43438 10.1625C7.24688 10.6266 7.12969 11.1234 7.09219 11.6437C5.63906 11.8594 4.34531 12.1641 3.27656 12.5438C2.16563 12.1453 1.40625 11.0813 1.40625 9.89062ZM12 22.5938C7.47656 22.5938 3.60469 20.6484 2.09062 18C4.75312 19.3312 8.98125 19.7344 12 19.7344C15.0188 19.7344 19.2469 19.3266 21.9094 18C20.3578 20.7141 16.4297 22.5938 12 22.5938ZM12 18.3281C5.42813 18.3281 1.40625 16.6031 1.40625 15.5156C1.40625 15.2109 1.82344 14.6953 2.98594 14.1656C4.03594 13.6922 5.50781 13.3031 7.19062 13.0453C7.24219 13.2891 7.3125 13.5234 7.40156 13.7531C6.46875 14.3578 5.87813 15.0141 5.85 15.0469C5.59219 15.3375 5.61562 15.7781 5.90625 16.0406C6.19688 16.3031 6.64219 16.275 6.9 15.9844C6.90469 15.9797 7.36406 15.4734 8.09063 14.9859C8.99063 16.1625 10.4062 16.9219 12 16.9219C13.5938 16.9219 15.0094 16.1625 15.9094 14.9859C16.6313 15.4734 17.0953 15.9797 17.1 15.9844C17.3578 16.275 17.8031 16.2984 18.0938 16.0406C18.3844 15.7828 18.4078 15.3375 18.15 15.0469C18.1219 15.0141 17.5312 14.3625 16.5984 13.7531C16.6875 13.5234 16.7578 13.2891 16.8094 13.0453C20.7469 13.6453 22.5938 14.8172 22.5938 15.5109C22.5938 16.5891 18.6281 18.3281 12 18.3281Z" fill="black"/>
<path d="M22.5937 9.89062C22.5937 11.0672 21.825 12.1266 20.7047 12.5344C19.6406 12.1594 18.3516 11.8547 16.9125 11.6437C16.875 11.1234 16.7531 10.6266 16.5656 10.1625L20.5219 7.19531C21.7359 7.5375 22.5937 8.63906 22.5937 9.89062Z" fill="#8A67AC"/>
<path d="M15.4922 2.89687C15.7547 2.84062 15.9938 2.8125 16.2188 2.8125C18.0469 2.8125 19.5469 4.22813 19.7156 6.0375L15.8485 8.93906C15.3422 8.30625 14.686 7.8 13.9313 7.47656L15.4922 2.89687Z" fill="#8A67AC"/>
<path d="M12 15.5156C13.9416 15.5156 15.5156 13.9416 15.5156 12C15.5156 10.0584 13.9416 8.48438 12 8.48438C10.0584 8.48438 8.48438 10.0584 8.48438 12C8.48438 13.9416 10.0584 15.5156 12 15.5156Z" fill="black"/>
<path d="M12 1.40625C12.8203 1.40625 13.6078 1.70156 14.236 2.23125L12.5672 7.11094C12.3797 7.0875 12.1922 7.07812 12 7.07812C11.8078 7.07812 11.6203 7.0875 11.4328 7.11094L9.7641 2.23125C10.3922 1.70156 11.1797 1.40625 12 1.40625Z" fill="#8A67AC"/>
<path d="M7.78124 2.8125C8.00624 2.8125 8.24062 2.84062 8.50781 2.89687L10.0687 7.47187C9.31406 7.79531 8.65312 8.30156 8.14687 8.93906L4.23749 6.03281C4.41561 4.25625 5.96718 2.8125 7.78124 2.8125Z" fill="#8A67AC"/>
<path d="M1.40625 9.89058C1.40625 8.63433 2.24531 7.53277 3.43594 7.19058L7.43438 10.1625C7.24688 10.6265 7.12969 11.1234 7.09219 11.6437C5.63906 11.8593 4.34531 12.164 3.27656 12.5437C2.16563 12.1453 1.40625 11.0812 1.40625 9.89058Z" fill="#8A67AC"/>
<path d="M12 22.5938C7.47657 22.5938 3.6047 20.6484 2.09064 18C4.75314 19.3312 8.98126 19.7344 12 19.7344C15.0188 19.7344 19.2469 19.3266 21.9094 18C20.3578 20.7141 16.4297 22.5938 12 22.5938Z" fill="#8C69AF"/>
<path d="M12 18.3281C5.42813 18.3281 1.40625 16.6031 1.40625 15.5156C1.40625 15.2109 1.82344 14.6953 2.98594 14.1656C4.03594 13.6922 5.50781 13.3031 7.19062 13.0453C7.24219 13.2891 7.3125 13.5234 7.40156 13.7531C6.46875 14.3578 5.87813 15.0141 5.85 15.0469C5.59219 15.3375 5.61562 15.7781 5.90625 16.0406C6.19688 16.3031 6.64219 16.275 6.9 15.9844C6.90469 15.9797 7.36406 15.4734 8.09063 14.9859C8.99063 16.1625 10.4062 16.9219 12 16.9219C13.5938 16.9219 15.0094 16.1625 15.9094 14.9859C16.6312 15.4734 17.0953 15.9797 17.1 15.9844C17.3578 16.275 17.8031 16.2984 18.0938 16.0406C18.3844 15.7828 18.4078 15.3375 18.15 15.0469C18.1219 15.0141 17.5312 14.3625 16.5984 13.7531C16.6875 13.5234 16.7578 13.2891 16.8094 13.0453C20.7469 13.6453 22.5938 14.8172 22.5938 15.5109C22.5938 16.5891 18.6281 18.3281 12 18.3281Z" fill="#B49AC9"/>
<path d="M11.9953 15.5204C13.9369 15.5204 15.5109 13.9464 15.5109 12.0047C15.5109 10.0631 13.9369 8.48911 11.9953 8.48911C10.0537 8.48911 8.47968 10.0631 8.47968 12.0047C8.47968 13.9464 10.0537 15.5204 11.9953 15.5204Z" fill="#E5E5E5"/>
<path d="M11.1094 12.825C12.0543 12.825 12.8203 12.059 12.8203 11.1141C12.8203 10.1692 12.0543 9.40317 11.1094 9.40317C10.1645 9.40317 9.39844 10.1692 9.39844 11.1141C9.39844 12.059 10.1645 12.825 11.1094 12.825Z" fill="url(#paint0_linear)"/>
<defs>
<linearGradient id="paint0_linear" x1="9.39703" y1="11.1136" x2="12.8189" y2="11.1136" gradientUnits="userSpaceOnUse">
<stop offset="0.00558659" stop-color="#F2F2F2"/>
<stop offset="1" stop-color="white"/>
</linearGradient>
</defs>
</svg>
