<svg width="24" height="24" viewBox="0 0 24 24" fill="none" xmlns="http://www.w3.org/2000/svg">
<g clip-path="url(#clip0)">
<path fill-rule="evenodd" clip-rule="evenodd" d="M11.3829 0.583344V1.09939C11.5633 1.02645 11.7331 0.929607 11.8878 0.811452C11.7157 0.811452 11.5437 0.583344 11.3717 0.583344H11.3829Z" fill="black"/>
<path fill-rule="evenodd" clip-rule="evenodd" d="M11.9925 0.620722C11.8092 0.620722 11.6185 0.590806 11.4428 0.587067H11.3867C9.00772 0.715106 6.72826 1.58345 4.86706 3.07065C3.00586 4.55786 1.65599 6.58957 1.00623 8.88165C0.356472 11.1737 0.439307 13.6116 1.24315 15.8543C2.047 18.097 3.53166 20.0324 5.48952 21.3898C5.12413 21.0589 4.83244 20.6549 4.63337 20.2039C4.4343 19.7529 4.33231 19.2651 4.33402 18.7722C4.3399 17.8358 4.71449 16.9394 5.37664 16.2772C6.03879 15.6151 6.93516 15.2405 7.87157 15.2346L8.57833 15.2122V15.0589C8.57789 14.3182 8.81166 13.5964 9.24621 12.9966C9.68077 12.3968 10.2938 11.9498 10.9978 11.7195C11.351 11.6019 11.7211 11.5425 12.0934 11.5438C12.771 11.5431 13.4343 11.7383 14.0036 12.1058C14.5728 12.4734 15.0237 12.9976 15.3019 13.6154C16.5078 12.7882 17.4307 11.6108 17.9459 10.2423C18.4612 8.87371 18.5439 7.37999 18.183 5.9629C17.8221 4.54581 17.035 3.27365 15.9279 2.31827C14.8208 1.3629 13.4471 0.770367 11.9925 0.620722Z" fill="#B4E1FF"/>
<path fill-rule="evenodd" clip-rule="evenodd" d="M12.3664 0.583344C18.5441 1.33124 20.4549 5.86723 20.4587 9.96197C20.4587 14.1502 16.9398 17.2053 13.8622 18.0131C12.7147 18.295 11.5507 18.5048 10.377 18.6413L9.90959 18.6974C9.79822 18.7125 9.68819 18.7362 9.58052 18.7684C9.25027 18.8654 8.94606 19.0354 8.69038 19.2659C8.4347 19.4963 8.2341 19.7813 8.10342 20.0997C7.98908 20.3759 7.93061 20.6721 7.9314 20.971C7.93104 21.4482 8.07915 21.9138 8.35521 22.3031C8.63126 22.6923 9.02158 22.9861 9.47207 23.1436C9.63287 23.181 9.79741 23.211 9.96568 23.2446C10.636 23.3633 11.3154 23.4234 11.9962 23.4241C14.9872 23.4142 17.855 22.2318 19.9837 20.1308C22.1124 18.0297 23.3322 15.1776 23.3812 12.1871C23.4301 9.1965 22.3043 6.30601 20.2455 4.1364C18.1867 1.96678 15.3592 0.691103 12.3702 0.583344H12.3664Z" fill="#90D595"/>
<path fill-rule="evenodd" clip-rule="evenodd" d="M12.3664 0.583344C12.243 0.583344 12.1234 0.583344 11.9925 0.583344C11.8092 0.583344 11.6185 0.583344 11.4428 0.583344C11.6298 0.583344 11.8167 0.602041 11.9925 0.620738C13.4503 0.766625 14.8279 1.35753 15.9384 2.31326C17.0489 3.26898 17.8384 4.54324 18.1997 5.96307C18.5611 7.3829 18.4769 8.87955 17.9585 10.2499C17.4401 11.6202 16.5126 12.7978 15.3019 13.6229C14.9756 12.8832 14.4043 12.2786 13.6842 11.911C12.9641 11.5434 12.1393 11.4353 11.3488 11.6048C10.5583 11.7743 9.85043 12.2111 9.34441 12.8417C8.8384 13.4722 8.5652 14.2579 8.57086 15.0664V15.2159L7.86035 15.2421C7.14784 15.2436 6.45241 15.4604 5.86531 15.8641C5.27821 16.2678 4.82686 16.8396 4.57048 17.5044C4.31411 18.1692 4.26469 18.896 4.42869 19.5893C4.5927 20.2827 4.96249 20.9103 5.48952 21.3898C5.71389 21.5469 5.942 21.689 6.17759 21.8311C7.19902 22.4401 8.3112 22.8819 9.47207 23.1399C9.02188 22.9831 8.63167 22.69 8.3556 22.3013C8.07952 21.9127 7.93126 21.4477 7.9314 20.971C7.93022 20.6708 7.98869 20.3734 8.10342 20.096C8.23525 19.7783 8.43622 19.4939 8.69173 19.2636C8.94724 19.0334 9.25086 18.8629 9.58052 18.7647C9.68872 18.7355 9.79862 18.7131 9.90959 18.6974L10.377 18.645C11.5505 18.5052 12.7144 18.2941 13.8622 18.0131C16.9398 17.2016 20.4624 14.1502 20.4587 9.96197C20.4587 5.84853 18.5441 1.31628 12.3664 0.583344Z" fill="white"/>
<path fill-rule="evenodd" clip-rule="evenodd" d="M15.7058 14.0343L15.2944 13.6229L15.7058 14.0343Z" fill="black"/>
<path fill-rule="evenodd" clip-rule="evenodd" d="M11.9963 -1.97183e-05C11.8018 -1.97183e-05 11.6223 -1.97183e-05 11.4166 -1.97183e-05H11.3942C8.89413 0.125714 6.49602 1.03037 4.53582 2.58723C2.57563 4.14408 1.15155 6.27512 0.463102 8.68182C-0.22535 11.0885 -0.143688 13.6503 0.696647 16.0082C1.53698 18.3662 3.09389 20.4022 5.14926 21.8311C5.36901 22.0271 5.60835 22.2001 5.8635 22.3471C5.92762 22.3807 5.99732 22.4022 6.06917 22.4107C7.08639 22.9916 8.18397 23.4188 9.32626 23.6784C9.51154 23.7431 9.70343 23.7869 9.8984 23.8093C10.5922 23.9323 11.2954 23.9949 12 23.9962C13.5934 24.0241 15.1765 23.7343 16.6567 23.1438C18.1369 22.5532 19.4847 21.6737 20.6213 20.5566C21.758 19.4395 22.6607 18.1072 23.2768 16.6374C23.893 15.1677 24.2102 13.5899 24.2099 11.9962C24.2097 10.4025 23.892 8.82484 23.2754 7.35527C22.6588 5.8857 21.7556 4.55366 20.6187 3.43692C19.4817 2.32018 18.1336 1.44111 16.6532 0.851006C15.1728 0.260905 13.5897 -0.028399 11.9963 -1.97183e-05ZM7.50887 21.8722C6.91061 21.6027 6.33852 21.2785 5.79993 20.9037C5.37579 20.492 5.08438 19.9629 4.96309 19.3844C4.84181 18.8058 4.89618 18.2043 5.11924 17.6569C5.3423 17.1095 5.72386 16.6412 6.21495 16.3122C6.70604 15.9833 7.28424 15.8085 7.87534 15.8105C8.10719 15.8105 8.37269 15.8105 8.59332 15.7881C8.74083 15.7814 8.88012 15.7183 8.98243 15.6118C9.08473 15.5053 9.14222 15.3636 9.14303 15.2159V15.0664C9.14257 14.3918 9.37359 13.7374 9.79751 13.2127C10.2214 12.6879 10.8126 12.3245 11.4722 12.1831C12.1318 12.0417 12.82 12.1309 13.4217 12.4359C14.0235 12.7408 14.5024 13.243 14.7784 13.8585C14.8398 13.9956 14.9529 14.1028 15.093 14.1567C15.2331 14.2107 15.3889 14.207 15.5263 14.1464C15.5552 14.1299 15.5827 14.1112 15.6086 14.0904C17.1707 13.0284 18.2873 11.4286 18.7452 9.59605C19.2032 7.76351 18.9705 5.8265 18.0916 4.15455C19.6173 6.13273 19.8716 8.57461 19.8716 9.95448C19.8716 13.7688 16.693 16.6631 13.7015 17.4334C12.4208 17.74 11.1218 17.9635 9.81239 18.1028C9.12776 18.2007 8.50122 18.5418 8.04736 19.0636C7.59349 19.5855 7.34261 20.2532 7.3406 20.9448C7.34644 21.2515 7.39941 21.5555 7.49765 21.846L7.50887 21.8722ZM1.15175 12C1.14951 9.19744 2.23232 6.50286 4.17316 4.48114C6.11401 2.45942 8.76218 1.26758 11.5625 1.15548C12.8854 1.21189 14.1604 1.66742 15.2195 2.46214C16.2787 3.25686 17.0726 4.35355 17.4966 5.60798C17.9207 6.86241 17.9552 8.21583 17.5955 9.49022C17.2358 10.7646 16.4988 11.9003 15.4815 12.7479C15.0098 12.053 14.3355 11.5203 13.5504 11.2223C12.7653 10.9242 11.9074 10.8752 11.0934 11.082C10.2795 11.2887 9.54897 11.7412 9.00127 12.3778C8.45357 13.0145 8.11528 13.8043 8.0324 14.6401H7.85291C6.76196 14.6401 5.71569 15.0734 4.94427 15.8449C4.17285 16.6163 3.73947 17.6625 3.73947 18.7535C3.73947 18.8545 3.73947 18.9517 3.76191 19.0526C2.07202 17.0916 1.14304 14.5887 1.14427 12H1.15175ZM11.9963 22.8445C11.1934 22.8418 10.3932 22.7503 9.61046 22.5715C9.25385 22.4364 8.9521 22.1868 8.75246 21.8619C8.55282 21.537 8.46655 21.155 8.50717 20.7758C8.54778 20.3967 8.71298 20.0416 8.9769 19.7664C9.24082 19.4911 9.58857 19.3111 9.96571 19.2546C11.3269 19.1078 12.6772 18.873 14.0081 18.5516C17.411 17.6578 21.0308 14.3372 21.0271 9.95074C21.0779 7.91216 20.546 5.9014 19.4939 4.15455C21.0634 5.64928 22.149 7.58001 22.6106 9.69764C23.0722 11.8153 22.8888 14.0227 22.0838 16.035C21.2789 18.0474 19.8894 19.7723 18.0947 20.9874C16.3 22.2025 14.1823 22.852 12.015 22.852L11.9963 22.8445Z" fill="#41474E"/>
</g>
<defs>
<clipPath id="clip0">
<rect width="24" height="24" fill="white"/>
</clipPath>
</defs>
</svg>
