<svg width="24" height="24" viewBox="0 0 24 24" fill="none" xmlns="http://www.w3.org/2000/svg">
<path d="M12 24C18.6274 24 24 18.6274 24 12C24 5.37258 18.6274 0 12 0C5.37258 0 0 5.37258 0 12C0 18.6274 5.37258 24 12 24Z" fill="#ED79AA"/>
<path opacity="0.5" d="M17.589 6.69675L16.1865 8.109C15.1658 7.07671 13.7742 6.49623 12.3225 6.49725C9.38628 6.49725 6.99003 8.82975 6.86403 11.7548H6.85803V17.0963C5.5794 15.7075 4.87132 13.8877 4.87501 12C4.87501 7.85775 8.20953 4.5 12.3225 4.5C14.3011 4.4986 16.1979 5.28976 17.589 6.69675ZM17.589 17.3033C16.2276 18.6806 14.3804 19.4693 12.444 19.5V17.502C13.8533 17.4715 15.1954 16.894 16.1865 15.8918L17.589 17.3033Z" fill="white"/>
<path d="M8.7608 18.588V11.7555H8.76605C8.87105 9.80175 10.4776 8.25 12.4441 8.25C14.4781 8.25 16.1273 9.9105 16.1273 11.9595C16.1273 14.0078 14.4781 15.6683 12.4448 15.6683C11.7897 15.6693 11.1464 15.494 10.5826 15.1605V19.2938C9.9467 19.1407 9.33406 18.9036 8.7608 18.5888V18.588ZM12.4441 13.8345C12.9397 13.8329 13.4144 13.6345 13.7636 13.2828C14.1129 12.9311 14.3081 12.4551 14.3063 11.9595C14.3063 10.9237 13.4723 10.0845 12.4441 10.0845C11.9486 10.0863 11.4741 10.2848 11.125 10.6365C10.7759 10.9881 10.5808 11.464 10.5825 11.9595C10.5825 12.9945 11.4158 13.8345 12.4441 13.8345Z" fill="white"/>
</svg>
