<svg width="24" height="24" viewBox="0 0 24 24" fill="none" xmlns="http://www.w3.org/2000/svg">
<path d="M12 24C18.6274 24 24 18.6274 24 12C24 5.37258 18.6274 0 12 0C5.37258 0 0 5.37258 0 12C0 18.6274 5.37258 24 12 24Z" fill="#2C3E50"/>
<path d="M19.227 17.01V16.26C19.227 16.1115 19.1273 16.0125 18.9757 16.0125H18.477V15.2595C18.477 15.1103 18.3773 15.009 18.2288 15.009H17.7292V9.50025H18.2257C18.375 9.50025 18.477 9.40125 18.477 9.24975V8.49975H18.9757C19.0345 8.50222 19.0921 8.48316 19.1379 8.44616C19.1836 8.40915 19.2142 8.35674 19.224 8.29875C19.2495 8.17425 19.1992 8.07525 19.1002 8.02275L12.1118 4.51875C12.0393 4.49395 11.9607 4.49395 11.8882 4.51875L4.64925 8.02275C4.60172 8.04863 4.56389 8.08924 4.54143 8.13847C4.51898 8.18771 4.51313 8.2429 4.52475 8.29575C4.52475 8.42325 4.6245 8.49975 4.74825 8.49975H5.49825V9.24975C5.49825 9.39825 5.598 9.49725 5.7465 9.49725H6.246V15.009H5.7495C5.5995 15.009 5.49825 15.108 5.49825 15.2565V16.0095H4.9995C4.8495 16.0095 4.7505 16.1085 4.7505 16.2578V17.01C4.602 17.01 4.5 17.1098 4.5 17.2613C4.5 17.4128 4.599 17.5118 4.74825 17.5118H19.227C19.3755 17.5118 19.4775 17.4128 19.4775 17.2643C19.4775 17.1143 19.3785 17.01 19.23 17.01H19.227ZM5.99475 8.9985V8.49975H17.9752V8.9985H5.99475ZM16.227 9.501V15.009H15.231V9.50025H16.227V9.501ZM13.731 9.501V15.009H12.7327V9.50025H13.7302L13.731 9.501ZM11.235 9.501V15.009H10.239V9.50025H11.235V9.501ZM8.739 9.501V15.009H7.74375V9.50025H8.739V9.501ZM17.9752 16.0095H5.99775V15.5078H17.9775V16.0095H17.9752Z" fill="white"/>
</svg>
