<svg width="24" height="24" viewBox="0 0 24 24" fill="none" xmlns="http://www.w3.org/2000/svg">
<path fill-rule="evenodd" clip-rule="evenodd" d="M24 12C24 18.6274 18.6274 24 12 24C5.37255 24 0 18.6274 0 12C0 5.37255 5.37255 0 12 0C18.6274 0 24 5.37255 24 12Z" fill="url(#paint0_linear)"/>
<path fill-rule="evenodd" clip-rule="evenodd" d="M12 22.2542C6.34591 22.2542 1.74587 17.6541 1.74587 12C1.74587 6.34588 6.34591 1.74584 12 1.74584C17.6542 1.74584 22.2542 6.34588 22.2542 12C22.2542 17.6541 17.6542 22.2542 12 22.2542ZM12 1.08286C5.98034 1.08286 1.08289 5.98031 1.08289 12C1.08289 18.0197 5.98034 22.9171 12 22.9171C18.0197 22.9171 22.9172 18.0197 22.9172 12C22.9172 5.98031 18.0197 1.08286 12 1.08286Z" fill="#FFFFFE"/>
<path fill-rule="evenodd" clip-rule="evenodd" d="M12 22.9171C5.98031 22.9171 1.08285 18.0197 1.08285 12C1.08285 5.98024 5.98031 1.08285 12 1.08285C18.0197 1.08285 22.9171 5.98024 22.9171 12C22.9171 18.0197 18.0197 22.9171 12 22.9171ZM12 0C5.37255 0 0 5.37255 0 12C0 18.6274 5.37255 24 12 24C18.6274 24 24 18.6274 24 12C24 5.37255 18.6274 0 12 0Z" fill="#D6552B"/>
<path fill-rule="evenodd" clip-rule="evenodd" d="M7.41921 16.8611L6.72679 17.4565H12.3183L11.7151 17.0259C11.2206 16.6728 10.9271 16.1025 10.9271 15.4948V3.59821H8.89389L8.74465 4.20643C8.61563 4.7325 8.3222 5.20369 7.90704 5.55155L6.56628 6.67485H8.06449V15.4551C8.06449 15.9954 7.82887 16.5088 7.41921 16.8611Z" fill="#FFFFFE"/>
<path fill-rule="evenodd" clip-rule="evenodd" d="M14.8602 7.42469C15.35 7.44789 15.6824 7.58785 15.6824 7.9141C15.6824 8.26628 15.2882 8.43123 14.8439 8.44237C14.7305 8.44522 14.6308 8.44085 14.5449 8.4378C14.5449 8.07342 14.526 7.74717 14.4882 7.45903C14.7597 7.43616 14.6165 7.41315 14.8602 7.42469ZM14.6067 9.98599C14.5689 9.51647 14.55 9.13837 14.55 8.8517C14.6188 8.85475 14.7339 8.85627 14.8954 8.85627C15.7823 8.85627 15.8887 8.76942 16.4987 8.59559C17.1089 8.42182 17.4139 8.15271 17.4139 7.78834C17.4139 7.52155 17.1888 7.32259 16.7385 7.19145C16.2882 7.06031 15.7366 6.99481 15.0835 6.99481C14.8188 6.99481 14.506 6.99707 14.1451 7.00164C13.7842 7.00622 13.5402 7.00854 13.413 7.00854H12.5159C12.5606 7.40646 12.5829 7.87983 12.5829 8.42865C12.5829 9.02626 12.5606 9.54538 12.5159 9.98599H14.6067Z" fill="#FFFFFE"/>
<path fill-rule="evenodd" clip-rule="evenodd" d="M17.0515 11.205L17.0823 10.7147H12.5682L12.533 11.2073C13.2552 11.183 13.422 11.1708 13.836 11.1708C13.8477 11.4643 13.8536 11.7843 13.8536 12.1311C13.8536 12.683 13.8345 13.2007 13.7964 13.6843H15.8321C15.7998 13.1962 15.7836 12.6784 15.7836 12.1311C15.7836 11.7783 15.7865 11.4582 15.7924 11.1708C16.3121 11.1708 16.4643 11.1822 17.0515 11.205Z" fill="#FFFFFE"/>
<path fill-rule="evenodd" clip-rule="evenodd" d="M16.5328 17.008C15.8091 17.008 15.4072 16.9018 15.0061 16.6894C14.605 16.477 14.4044 16.226 14.4044 15.9367C14.4044 15.6534 14.5734 15.4129 14.9114 15.2151C15.2493 15.0173 15.6043 14.9184 16.2973 14.9184C16.6659 14.9184 16.5701 14.9476 16.973 15.0061L17.1522 14.4727C16.78 14.4296 16.3858 14.4081 15.9693 14.4081C14.836 14.4081 13.9441 14.5682 13.2938 14.8883C12.6435 15.2086 12.3184 15.5849 12.3184 16.0175C12.3184 16.4346 12.6247 16.7891 13.2375 17.0808C13.8502 17.3725 14.7421 17.5183 15.913 17.5183C16.3841 17.5183 16.862 17.4921 17.3468 17.4398L17.4338 16.9088C16.9354 16.975 16.9561 17.008 16.5328 17.008Z" fill="#FFFFFE"/>
<path fill-rule="evenodd" clip-rule="evenodd" d="M12.3917 19.1334L11.9772 17.8577L11.5627 19.1334H10.2214L11.3065 19.9217L10.8921 21.1974L11.9772 20.409L13.0623 21.1974L12.6478 19.9217L13.7329 19.1334H12.3917Z" fill="#FFFFFE"/>
<defs>
<linearGradient id="paint0_linear" x1="12" y1="0" x2="12" y2="24" gradientUnits="userSpaceOnUse">
<stop stop-color="#EBA019"/>
<stop offset="1" stop-color="#EB7912"/>
</linearGradient>
</defs>
</svg>
