<svg width="24" height="24" viewBox="0 0 24 24" fill="none" xmlns="http://www.w3.org/2000/svg">
<path d="M12 24C18.6274 24 24 18.6274 24 12C24 5.37258 18.6274 0 12 0C5.37258 0 0 5.37258 0 12C0 18.6274 5.37258 24 12 24Z" fill="#610089"/>
<path fill-rule="evenodd" clip-rule="evenodd" d="M12.3675 3.75225C16.215 3.95925 19.329 6.62925 20.0933 10.4032C20.1938 10.9012 20.2208 11.4165 20.2485 11.9257C20.2733 12.3757 19.98 12.6795 19.5743 12.6787C19.1768 12.6787 18.9165 12.3907 18.9068 11.9437C18.834 8.6535 16.6118 5.94 13.4033 5.25375C12.9233 5.15175 12.4223 5.15025 11.9318 5.09475C11.5583 5.05275 11.3108 4.7655 11.3213 4.401C11.3318 4.04025 11.6018 3.77175 11.9783 3.753C12.108 3.747 12.2378 3.75225 12.3675 3.75225ZM11.649 20.25C7.95677 20.139 4.63577 17.34 3.93527 13.716C3.82877 13.161 3.78827 12.5917 3.75152 12.027C3.72902 11.682 3.94877 11.4345 4.26902 11.352C4.53452 11.283 4.84352 11.3962 4.97852 11.649C5.04602 11.7772 5.07827 11.9392 5.08127 12.087C5.13602 15.24 7.26827 17.9535 10.3283 18.708C10.8803 18.8445 11.4623 18.8662 12.0323 18.927C12.3578 18.9607 12.6188 19.182 12.6623 19.4992C12.7035 19.7992 12.5145 20.1345 12.2273 20.2057C12.042 20.2515 11.8418 20.2372 11.649 20.25ZM11.988 8.99775C13.6208 8.9925 14.9918 10.3312 15.003 11.9415C15.0068 12.4965 14.4983 12.846 14.028 12.6067C13.773 12.4777 13.6635 12.2617 13.653 11.9745C13.6452 11.5858 13.5004 11.2123 13.2443 10.9198C12.9882 10.6273 12.637 10.4346 12.2528 10.3755C11.3888 10.2285 10.5488 10.815 10.3808 11.6827C10.209 12.5692 10.764 13.4325 11.628 13.6192C11.7465 13.6447 11.868 13.659 11.988 13.6657C12.39 13.6867 12.672 13.9635 12.669 14.3407C12.666 14.7232 12.3638 15.0067 11.9543 15.0105C10.6673 15.0217 9.45377 14.0827 9.10277 12.8047C8.57852 10.896 10.0125 9.00375 11.988 8.99775ZM17.6543 11.8155C17.6393 11.943 17.6445 12.1027 17.598 12.2452C17.5005 12.5482 17.178 12.7237 16.863 12.6727C16.5353 12.6187 16.302 12.3502 16.2983 11.9827C16.293 11.4232 16.2023 10.8802 15.9728 10.3725C15.213 8.69625 13.9133 7.797 12.0698 7.71C11.619 7.6875 11.3198 7.4235 11.3228 7.02C11.3265 6.6165 11.628 6.35325 12.0855 6.35475C14.838 6.36 17.2433 8.49 17.592 11.2327C17.616 11.418 17.6318 11.6032 17.6543 11.8155ZM6.35852 12.1612C6.32027 11.856 6.39827 11.5552 6.74702 11.3947C7.20602 11.1825 7.68677 11.511 7.69577 12.0502C7.70477 12.567 7.79327 13.0642 7.97927 13.5457C8.28188 14.3423 8.81516 15.0305 9.51094 15.5225C10.2067 16.0144 11.0334 16.2876 11.8853 16.3072C12.4673 16.3222 12.8055 16.7437 12.6203 17.2222C12.5168 17.4922 12.2888 17.649 11.9768 17.646C10.3253 17.631 8.93252 17.0122 7.81877 15.7995C6.90138 14.8078 6.38152 13.5128 6.35852 12.162V12.1612ZM15.009 14.2762C14.9813 14.6115 14.8665 14.8237 14.6145 14.9415C14.364 15.0585 14.1098 15.0405 13.9095 14.8552C13.5467 14.5189 13.1962 14.1694 12.8588 13.8075C12.6263 13.5585 12.6488 13.1662 12.8768 12.921C13.1093 12.6712 13.5248 12.6195 13.779 12.8527C14.1555 13.1962 14.5118 13.5637 14.859 13.938C14.9505 14.037 14.976 14.1967 15.009 14.2755V14.2762Z" fill="white"/>
</svg>
