<svg width="24" height="24" viewBox="0 0 24 24" fill="none" xmlns="http://www.w3.org/2000/svg">
<mask id="mask0" mask-type="alpha" maskUnits="userSpaceOnUse" x="0" y="3" width="24" height="19">
<path d="M23.4859 19.0862C23.2416 19.0862 23.0433 19.2849 23.0433 19.5297V20.8603H17.3025L17.2913 20.0194C19.7606 18.2843 21.2314 15.4618 21.2314 12.4334C21.2314 7.32101 17.0794 3.16077 11.9773 3.16077C6.87512 3.16077 2.72315 7.32101 2.72315 12.4334C2.72315 15.4475 4.19212 18.282 6.65203 20.017C6.65614 20.0194 6.65851 20.0194 6.66323 20.0217L6.65203 20.8603H0.91127L0.91127 19.5297C0.91127 19.2849 0.712979 19.0862 0.46865 19.0862C0.224293 19.0862 0.026001 19.2849 0.026001 19.5297L0.026001 21.7473H7.52548L7.55086 19.823C7.55317 19.6338 7.4358 19.4741 7.2717 19.4073C7.2422 19.3636 7.20737 19.3216 7.16134 19.2896C4.93634 17.7207 3.60842 15.159 3.60842 12.431C3.60842 7.80653 7.36202 4.04546 11.9773 4.04546C16.5925 4.04546 20.3461 7.80653 20.3461 12.431C20.3461 15.2217 18.9698 17.8177 16.6622 19.3795C16.6179 19.4073 16.586 19.4463 16.5559 19.486C16.4615 19.5688 16.3989 19.6864 16.4013 19.8207L16.4267 21.745L23.9285 21.7473V19.5297C23.9285 19.2849 23.7302 19.0862 23.4859 19.0862V19.0862Z" fill="white"/>
</mask>
<g mask="url(#mask0)">
<mask id="mask1" mask-type="alpha" maskUnits="userSpaceOnUse" x="-99" y="-126" width="244" height="172">
<path d="M-98.2124 45.4548L144.359 45.4548L144.359 -125.958L-98.2124 -125.958L-98.2124 45.4548Z" fill="white"/>
</mask>
<g mask="url(#mask1)">
<path d="M-1.41443 23.1878L25.369 23.1878L25.369 1.72035L-1.41443 1.72035L-1.41443 23.1878Z" fill="#1D2951"/>
</g>
</g>
<mask id="mask2" mask-type="alpha" maskUnits="userSpaceOnUse" x="5" y="4" width="14" height="16">
<path d="M17.5722 13.0749C17.3941 12.8533 17.196 12.6317 16.9822 12.411C17.196 12.1903 17.3932 11.9678 17.5722 11.7471C18.5581 10.5243 18.8639 9.44129 18.434 8.69667C18.1073 8.13089 17.3992 7.83185 16.3873 7.83185C15.8233 7.83185 15.1797 7.92574 14.4907 8.09951C13.9452 6.20152 13.0427 4.98121 12.0028 4.98121C10.962 4.98121 10.0601 6.20152 9.51462 8.09951C8.82497 7.92574 8.18204 7.83185 7.61735 7.83185C6.60434 7.83185 5.89734 8.13089 5.57065 8.69667C5.14053 9.44129 5.4472 10.525 6.43244 11.7471C6.61146 11.9687 6.80941 12.1912 7.024 12.4137C5.65405 13.8344 5.05025 15.2249 5.56976 16.1262C5.89645 16.692 6.60345 16.991 7.61646 16.991C8.18025 16.991 8.82407 16.8971 9.51373 16.7234C10.0586 18.6214 10.9611 19.8415 12.001 19.8415C13.0418 19.8415 13.9434 18.6214 14.4889 16.7234C15.1788 16.8971 15.8227 16.991 16.3864 16.991C17.3983 16.991 18.1065 16.692 18.4331 16.1262C18.8639 15.3816 18.5581 14.2976 17.5722 13.0749ZM16.3873 8.38452C16.9476 8.38452 17.6748 8.48619 17.9552 8.97297C18.2586 9.49781 17.9615 10.3826 17.1421 11.3994C16.9745 11.6072 16.7894 11.8147 16.5888 12.0234C16.1084 11.5707 15.5602 11.1266 14.9616 10.7023C14.893 9.96189 14.7801 9.26665 14.6297 8.63326C15.27 8.47149 15.8669 8.38452 16.3873 8.38452ZM13.2442 14.5629C12.8314 14.8009 12.4153 15.0192 12.0028 15.2163C11.5891 15.0183 11.1739 14.8009 10.7605 14.562C10.3468 14.323 9.94897 14.0718 9.57112 13.8128C9.53729 13.3652 9.51906 12.8978 9.51906 12.4101C9.51906 11.9218 9.53819 11.4532 9.57112 11.0058C9.94206 10.7528 10.3382 10.5026 10.7605 10.2583C11.1739 10.0193 11.5891 9.80195 12.0028 9.60484C12.4162 9.80195 12.8314 10.0202 13.2451 10.2583C13.6585 10.4972 14.0564 10.7484 14.4351 11.0073C14.4692 11.455 14.4874 11.9227 14.4874 12.4101C14.4874 12.8978 14.4692 13.3652 14.4351 13.8128C14.0555 14.0736 13.6576 14.3239 13.2442 14.5629ZM14.3658 14.5237C14.3006 15.0694 14.2119 15.5778 14.1033 16.0437C13.6352 15.9013 13.1486 15.724 12.6535 15.512C12.9435 15.364 13.2329 15.2085 13.5204 15.0416C13.8097 14.8748 14.092 14.7019 14.3658 14.5237ZM11.3521 15.5126C10.8568 15.724 10.3704 15.902 9.90204 16.0446C9.79349 15.5787 9.70499 15.0703 9.63983 14.5246C9.91337 14.7019 10.1949 14.8757 10.4843 15.0425C10.7718 15.2085 11.0618 15.3649 11.3521 15.5126ZM8.99177 13.3975C8.56254 13.0749 8.16466 12.7429 7.80683 12.4065C8.15599 12.0799 8.55119 11.7487 8.99177 11.4194C8.97443 11.7427 8.96486 12.0728 8.96486 12.4101C8.96544 12.7465 8.97509 13.0749 8.99177 13.3975ZM9.63893 10.2983C9.7041 9.75254 9.79263 9.24418 9.90138 8.77831C10.3695 8.92002 10.8559 9.098 11.3512 9.30937C11.0609 9.45711 10.7718 9.61351 10.4834 9.77948C10.1923 9.94812 9.91072 10.1219 9.63893 10.2983ZM12.6535 9.30937C13.1486 9.098 13.6352 8.92002 14.1033 8.77742C14.211 9.24329 14.3006 9.75168 14.3658 10.2974C14.092 10.1201 13.8106 9.94634 13.5213 9.77948C13.2329 9.61351 12.9426 9.45711 12.6535 9.30937ZM15.0138 11.4245C15.4413 11.7462 15.8373 12.0764 16.1943 12.411C15.8373 12.7456 15.4413 13.0767 15.0138 13.3975C15.0303 13.0749 15.0398 12.7465 15.0398 12.411C15.0398 12.0755 15.0303 11.7471 15.0138 11.4245ZM12.0028 5.53494C12.7265 5.53494 13.4813 6.54213 13.9661 8.24457C13.3345 8.43502 12.6724 8.68796 12.0028 8.99544C11.3329 8.68796 10.6709 8.43502 10.0395 8.24457C10.5241 6.54213 11.2782 5.53494 12.0028 5.53494ZM6.04925 8.97297C6.32991 8.48708 7.05693 8.38452 7.61735 8.38452C8.13776 8.38452 8.73445 8.47149 9.37473 8.63326C9.2246 9.26576 9.11254 9.96103 9.0429 10.7023C8.43579 11.1326 7.89023 11.5776 7.41676 12.0243C7.21504 11.8156 7.03003 11.6072 6.86233 11.3994C6.04323 10.3826 5.74702 9.49781 6.04925 8.97297ZM7.61735 16.4375C7.05693 16.4375 6.32991 16.3358 6.04925 15.8499C5.68785 15.2225 6.18224 14.0665 7.41232 12.7952C7.89447 13.2488 8.44356 13.6954 9.0438 14.1206C9.11254 14.861 9.22529 15.5562 9.37562 16.1896C8.73445 16.3496 8.13776 16.4375 7.61735 16.4375ZM12.0028 19.287C11.2791 19.287 10.5241 18.2799 10.0395 16.5781C10.6709 16.3879 11.3329 16.1349 12.0028 15.8272C12.6724 16.1349 13.3345 16.3879 13.9661 16.5774C13.4804 18.2799 12.7265 19.287 12.0028 19.287ZM17.9552 15.849C17.6748 16.3349 16.9476 16.4375 16.3873 16.4375C15.8669 16.4375 15.27 16.3505 14.6297 16.1887C14.7801 15.5553 14.8922 14.8601 14.9616 14.1197C15.5602 13.6954 16.1084 13.2504 16.5888 12.7986C16.7894 13.0064 16.9745 13.2148 17.1421 13.4226C17.9624 14.4394 18.2586 15.3242 17.9552 15.849Z" fill="white"/>
</mask>
<g mask="url(#mask2)">
<mask id="mask3" mask-type="alpha" maskUnits="userSpaceOnUse" x="-99" y="-126" width="244" height="172">
<path d="M-98.2124 45.4548L144.359 45.4548L144.359 -125.958L-98.2124 -125.958L-98.2124 45.4548Z" fill="white"/>
</mask>
<g mask="url(#mask3)">
<path d="M3.94043 21.2819L20.0643 21.2819L20.0643 3.54076L3.94043 3.54076L3.94043 21.2819Z" fill="#1D2951"/>
</g>
</g>
<mask id="mask4" mask-type="alpha" maskUnits="userSpaceOnUse" x="9" y="10" width="6" height="5">
<path d="M12.0028 10.3087C10.8439 10.3087 9.90137 11.2516 9.90137 12.411C9.90137 13.5703 10.8439 14.5141 12.0028 14.5141C13.1617 14.5141 14.1042 13.5712 14.1042 12.411C14.1042 11.2516 13.1617 10.3087 12.0028 10.3087ZM12.0028 13.9606C11.1488 13.9606 10.4538 13.2653 10.4538 12.411C10.4538 11.5567 11.1488 10.8614 12.0028 10.8614C12.8568 10.8614 13.5518 11.5567 13.5518 12.411C13.5509 13.2653 12.8568 13.9606 12.0028 13.9606Z" fill="white"/>
</mask>
<g mask="url(#mask4)">
<mask id="mask5" mask-type="alpha" maskUnits="userSpaceOnUse" x="-99" y="-126" width="244" height="172">
<path d="M-98.2125 45.4548L144.359 45.4548L144.359 -125.958L-98.2125 -125.958L-98.2125 45.4548Z" fill="white"/>
</mask>
<g mask="url(#mask5)">
<path d="M8.46088 15.9546H15.5446V8.86831H8.46088V15.9546Z" fill="#1D2951"/>
</g>
</g>
</svg>
