<svg width="24" height="24" viewBox="0 0 24 24" fill="none" xmlns="http://www.w3.org/2000/svg">
<g clip-path="url(#clip0)">
<path d="M20.5669 4.64433L14.3397 0.754635C13.4519 0.245346 12.4432 -0.0150746 11.4199 0.000807402C10.3966 0.0166894 9.39645 0.308287 8.52493 0.844878L2.0199 4.90882C0.843082 5.63336 0.818121 7.10625 1.98966 7.83885L7.45928 11.1414C7.93316 11.4378 8.31986 12.3155 8.59213 12.8034L10.946 16.8096C11.0031 16.9118 11.0864 16.997 11.1873 17.0563C11.2882 17.1157 11.403 17.1472 11.5201 17.1475C11.6372 17.1478 11.7522 17.1169 11.8534 17.0581C11.9547 16.9993 12.0384 16.9146 12.0961 16.8127L14.8629 12.1235C15.094 11.7155 15.3909 11.334 15.7903 11.0867L20.8631 8.02011C22.2036 7.18785 21.9361 5.42954 20.5674 4.64433H20.5669ZM18.7668 7.12967L14.5155 9.7692C14.223 9.95113 13.9808 10.2036 13.8113 10.5034L11.9425 13.9183C11.9003 13.9934 11.8388 14.0558 11.7645 14.0992C11.6901 14.1426 11.6055 14.1653 11.5194 14.1651C11.4333 14.1649 11.3488 14.1417 11.2747 14.0979C11.2005 14.0541 11.1394 13.9914 11.0976 13.9161L9.38877 10.7429C9.18861 10.3847 8.90134 10.0828 8.55353 9.86511L4.19026 7.13524C3.33025 6.59762 3.33467 5.34285 4.1987 4.81099L9.34864 1.64008C9.98848 1.24616 10.7227 1.03211 11.474 1.02047C12.2253 1.00883 12.9658 1.20003 13.6175 1.57393L18.716 4.71988C19.7207 5.29629 19.751 6.51871 18.7668 7.12967Z" fill="#000300"/>
<path d="M0.999939 9.63047V17.8155C0.999846 17.888 1.01879 17.9592 1.05488 18.0221C1.09097 18.0849 1.14294 18.1372 1.20558 18.1736L10.976 23.8731C11.2539 24.0344 11.5977 24.0364 11.8765 23.9135L21.7573 18.2116C21.8856 18.0999 21.9646 17.963 21.9646 17.8151V9.68683C21.9645 9.49146 21.8868 9.30412 21.7486 9.16602C21.6104 9.02793 21.423 8.95039 21.2277 8.95047C21.0323 8.95055 20.845 9.02823 20.7069 9.16643C20.5688 9.30463 20.4912 9.49203 20.4913 9.6874V16.9855C20.4914 17.0578 20.4724 17.1289 20.4364 17.1917C20.4004 17.2544 20.3485 17.3066 20.2861 17.3431L11.9529 22.2473C11.8157 22.3273 11.6597 22.3695 11.5008 22.3695C11.342 22.3695 11.186 22.3273 11.0488 22.2473L2.56557 17.268C2.50295 17.2316 2.45099 17.1794 2.41488 17.1165C2.37876 17.0537 2.35975 16.9826 2.35974 16.9101V9.63047C2.35974 9.45015 2.28811 9.27721 2.1606 9.14971C2.03309 9.0222 1.86016 8.95057 1.67984 8.95057C1.49952 8.95057 1.32658 9.0222 1.19908 9.14971C1.07157 9.27721 0.999939 9.45015 0.999939 9.63047Z" fill="#000300"/>
</g>
<defs>
<clipPath id="clip0">
<rect width="24" height="24" fill="white"/>
</clipPath>
</defs>
</svg>
