<svg width="24" height="24" viewBox="0 0 24 24" fill="none" xmlns="http://www.w3.org/2000/svg">
<path d="M9.96826 21.0285L8.44445 17.8793L5.72699 22.1587C5.96826 22.3111 6.20953 22.4508 6.4508 22.5777C6.75556 22.7428 7.08572 22.8952 7.40318 23.0222C8.44445 23.4539 9.53651 23.7333 10.654 23.8603C10.8825 23.8857 11.1238 23.9111 11.3524 23.9238L9.96826 21.0285Z" fill="#7CC245"/>
<path d="M23.5048 8.8127C23.4286 8.54603 23.3397 8.27936 23.2508 8.0127L14.8572 15.4286L13.7016 16.4571L13.8032 17.3968L14.4381 23.6952C14.8572 23.6063 15.2635 23.5048 15.6699 23.3778C20.4699 21.8286 23.9492 17.3333 23.9492 12.0127C23.9365 10.8952 23.7841 9.82857 23.5048 8.8127Z" fill="#FCCB32"/>
<path d="M6.99683 18.3619L8.85079 22.2095L15.2762 16.5333L14.1079 4.99045L6.99683 18.3619Z" fill="#EE3F26"/>
<path d="M7.8095 17.9428L13.9428 6.42537L13.9809 6.85711L14.6412 5.62537L3.09839 9.24441L7.66982 18.7428L7.94918 18.2222L7.8095 17.9428Z" fill="#CF3627"/>
<path d="M9.40948 21.2571L10.6666 23.8603C11.1111 23.9111 11.5555 23.9365 12 23.9365C13.2698 23.9365 14.5015 23.7333 15.6571 23.365L14.946 16.3682L9.40948 21.2571Z" fill="#F05048"/>
<path d="M14.946 16.3682L15.6572 23.3651C20.4572 21.8159 23.9365 17.3206 23.9365 12C23.9365 10.8952 23.7841 9.82856 23.5048 8.81268L14.946 16.3682Z" fill="#FCCB32"/>
<path d="M13.3079 0.139667C12.8762 0.0888734 12.4317 0.0634766 12 0.0634766C7.746 0.0634766 4.01267 2.2984 1.89203 5.65078C1.3587 6.50157 0.926954 7.42856 0.622192 8.38094L3.7968 9.59998L13.9428 6.41268L15.0349 0.444429C14.4635 0.304746 13.892 0.203159 13.3079 0.139667Z" fill="#2591D4"/>
<path d="M21.0286 4.20315C19.873 2.85712 18.4254 1.79045 16.8 1.07934C16.2286 0.825374 15.6445 0.622199 15.0476 0.469818L13.9556 6.43807L14.9587 16.3809L23.5175 8.82537C23.0349 7.11109 22.1841 5.53648 21.0286 4.20315Z" fill="#F47F22"/>
<path d="M7.80951 17.9429L3.79681 9.6L0.622207 8.38095C0.253953 9.5492 0.0634766 10.7683 0.0634766 12C0.0634766 16.2413 2.273 19.9619 5.61268 22.0825C5.89205 22.2603 6.17141 22.4254 6.46348 22.5778L8.49522 19.3651L7.80951 17.9429Z" fill="#4CAA4C"/>
<path d="M9.40953 21.2571L8.49525 19.3651L6.4635 22.5778C6.76826 22.7428 7.09842 22.8952 7.41588 23.0222C8.45715 23.4539 9.54921 23.7333 10.6667 23.8603L9.40953 21.2571Z" fill="#7CC245"/>
<path d="M21.0286 4.20315C19.873 2.85712 18.4254 1.79046 16.8 1.07935L13.9429 6.41268L21.0286 4.20315ZM13.9429 6.42538L14.946 16.3682L23.5048 8.81268C23.0349 7.11109 22.1841 5.53649 21.0286 4.20315L13.9429 6.42538Z" fill="#F47F22"/>
<path d="M7.80951 17.9428L9.40951 21.2571L14.946 16.3682L13.9428 6.42538L7.80951 17.9428Z" fill="#EE3F26"/>
<path d="M13.9428 6.42538L13.3079 0.139667C12.8762 0.0888734 12.4317 0.0634766 12 0.0634766C7.746 0.0634766 4.01266 2.2984 1.89203 5.65078L3.79679 9.59998L13.9428 6.42538Z" fill="#1E85CA"/>
<path d="M13.9428 6.42538L3.79681 9.59999L7.80951 17.9428L13.9428 6.42538Z" fill="#CF3627"/>
<path d="M13.9428 6.41269L16.7873 1.06666C15.6825 0.584123 14.5016 0.266663 13.2952 0.139679L13.9428 6.41269Z" fill="#35A9E1"/>
<path d="M9.40948 21.2571L10.6666 23.8603C11.1111 23.9111 11.5555 23.9365 12 23.9365C13.2698 23.9365 14.5015 23.7333 15.6571 23.365L14.946 16.3682L9.40948 21.2571Z" fill="#F05048"/>
<path d="M14.946 16.3682L15.6572 23.3651C20.4572 21.8159 23.9365 17.3206 23.9365 12C23.9365 10.8952 23.7841 9.82856 23.5048 8.81268L14.946 16.3682Z" fill="#FCCB32"/>
<path d="M7.41583 23.0222C8.4571 23.454 9.54917 23.7333 10.6666 23.8603L9.40948 21.2571L7.41583 23.0222Z" fill="#7CC245"/>
<path d="M1.89203 5.65079C0.926953 7.1873 0.317429 8.93968 0.126953 10.7556L3.79679 9.59999L1.89203 5.65079Z" fill="#0161AD"/>
<path d="M3.79681 9.59998L0.126969 10.7555C0.0888734 11.1619 0.0634766 11.5809 0.0634766 12C0.0634766 16.2412 2.273 19.9619 5.61268 22.0825L7.80951 17.9428L3.79681 9.59998Z" fill="#4CAA4C"/>
<path d="M7.8095 17.9428L5.61267 22.0825C6.1841 22.4508 6.78092 22.7555 7.41585 23.0222L9.4095 21.2571L7.8095 17.9428Z" fill="#51B34B"/>
<path d="M14.1968 2.69205L13.9174 3.53014C16.4063 4.87617 18.819 7.27617 20.1269 9.35871L20.9777 9.10475C19.5682 6.81903 16.9269 4.16506 14.1968 2.69205Z" fill="#444344"/>
<path d="M18.3365 0.749176C16.7365 0.749176 15.3397 1.62537 14.6032 2.9206C14.5016 3.08568 14.4254 3.26346 14.3492 3.45394C14.3365 3.50473 14.3111 3.54283 14.2984 3.59362C14.2857 3.63172 14.2603 3.68251 14.2476 3.7206C16.4825 5.02854 18.6159 7.12378 19.8984 9.04124C19.9238 9.02854 19.9365 9.02854 19.9619 9.01584C20.1016 8.95235 20.2413 8.88886 20.381 8.81267C20.4825 8.76187 20.5841 8.69838 20.6857 8.63489C21.8667 7.87299 22.6413 6.53965 22.6413 5.04124C22.6413 2.67933 20.7111 0.749176 18.3365 0.749176Z" fill="#EE3F26"/>
<path d="M14.2984 3.59363C14.2857 3.63172 14.2603 3.68252 14.2476 3.72061C16.4825 5.02855 18.6159 7.12379 19.8984 9.04125C19.9238 9.02855 19.9365 9.02855 19.9619 9.01585C20.1016 8.95236 20.2413 8.88886 20.381 8.81267C19.0222 6.92061 16.6984 4.82537 14.2984 3.59363Z" fill="#C03225"/>
</svg>
