<svg width="24" height="24" viewBox="0 0 24 24" fill="none" xmlns="http://www.w3.org/2000/svg">
<path d="M12 24C18.6274 24 24 18.6274 24 12C24 5.37258 18.6274 0 12 0C5.37258 0 0 5.37258 0 12C0 18.6274 5.37258 24 12 24Z" fill="#2A2A2A"/>
<path d="M7.5 4.50449H13.5832C13.6567 4.48199 13.6942 4.54949 13.7422 4.58699C14.3157 5.12858 14.83 5.72944 15.2767 6.37949C15.9115 7.28856 16.4098 8.28562 16.7557 9.33899C17.1172 10.452 17.2882 11.6295 17.2432 12.7995H14.142C14.1572 12.644 14.1628 12.4877 14.1585 12.3315C14.1262 11.2282 13.7857 10.146 13.2495 9.18749C12.6757 8.16074 11.8748 7.27499 10.9643 6.53924C9.97275 5.73749 8.85675 5.10449 7.69425 4.59299C7.62975 4.56299 7.56225 4.53899 7.5 4.50449ZM9.7515 9.99974C10.792 11.882 11.8307 13.7653 12.8677 15.6495C13.1175 16.104 13.3702 16.557 13.6177 17.0122C12.327 17.8387 11.04 18.6727 9.75 19.5V9.99974H9.7515Z" fill="white"/>
</svg>
