<svg width="24" height="24" viewBox="0 0 24 24" fill="none" xmlns="http://www.w3.org/2000/svg">
<g clip-path="url(#clip0)">
<path d="M15.9023 13.4842L21.9244 7.48084C22.1481 7.25795 22.3255 6.99295 22.4463 6.70113C22.5672 6.40932 22.629 6.09648 22.6283 5.78065L22.6385 0.928279C22.6379 0.67935 22.5417 0.44015 22.3698 0.260101L10.817 11.7874C10.5925 12.01 10.4142 12.2748 10.2926 12.5667C10.171 12.8585 10.1083 13.1715 10.1083 13.4876C10.1083 13.8038 10.171 14.1168 10.2926 14.4086C10.4142 14.7004 10.5925 14.9653 10.817 15.1878L18.9626 23.308C19.1859 23.5301 19.4508 23.7062 19.742 23.826C20.0333 23.9458 20.3454 24.007 20.6603 24.0062C20.9753 24.0054 21.287 23.9426 21.5777 23.8214C21.8684 23.7001 22.1324 23.5228 22.3545 23.2995C22.5767 23.0762 22.7527 22.8114 22.8725 22.5201C22.9923 22.2288 23.0536 21.9167 23.0528 21.6018C23.052 21.2868 22.9892 20.9751 22.8679 20.6844C22.7466 20.3937 22.5693 20.1298 22.346 19.9076L15.9023 13.4842Z" fill="#008C62"/>
<path d="M21.6965 -1.4986e-05H3.55031C2.08304 -1.4986e-05 1.00001 1.10851 1.00001 2.62169V21.5534C0.995898 21.8751 1.05625 22.1943 1.17751 22.4923C1.29877 22.7903 1.47848 23.061 1.70604 23.2884C1.9336 23.5158 2.2044 23.6953 2.50247 23.8163C2.80053 23.9374 3.11982 23.9975 3.4415 23.9932C3.76342 23.9987 4.08315 23.9394 4.38166 23.8187C4.68016 23.6981 4.95133 23.5186 5.17899 23.2909C5.40666 23.0632 5.58616 22.7921 5.70682 22.4936C5.82747 22.1951 5.88681 21.8753 5.88128 21.5534V4.67043H17.9527L22.3732 0.272017C22.2847 0.183258 22.1791 0.113385 22.0628 0.0666271C21.9464 0.0198688 21.8219 -0.00280266 21.6965 -1.4986e-05Z" fill="#00E6A0"/>
</g>
<defs>
<clipPath id="clip0">
<rect width="24" height="24" fill="white"/>
</clipPath>
</defs>
</svg>
