<svg width="24" height="24" viewBox="0 0 24 24" fill="none" xmlns="http://www.w3.org/2000/svg">
<path d="M8.31513 4.12123C9.28581 4.12123 10.0727 3.33434 10.0727 2.36365C10.0727 1.39297 9.28581 0.606079 8.31513 0.606079C7.34445 0.606079 6.55756 1.39297 6.55756 2.36365C6.55756 3.33434 7.34445 4.12123 8.31513 4.12123Z" fill="#8352A1"/>
<path d="M16.1939 23.2728C17.1646 23.2728 17.9515 22.4859 17.9515 21.5152C17.9515 20.5445 17.1646 19.7576 16.1939 19.7576C15.2232 19.7576 14.4363 20.5445 14.4363 21.5152C14.4363 22.4859 15.2232 23.2728 16.1939 23.2728Z" fill="#3E99D3"/>
<path d="M15.413 1.02979L7.26946 7.32154C6.55642 7.87244 6.42499 8.89706 6.97588 9.6101C7.52678 10.3231 8.5514 10.4546 9.26444 9.90368L17.4079 3.61193C18.121 3.06103 18.2524 2.03641 17.7015 1.32337C17.1506 0.610333 16.126 0.478894 15.413 1.02979Z" fill="#E53C54"/>
<path d="M15.4121 7.45408L7.26861 13.7458C6.55557 14.2967 6.42413 15.3213 6.97503 16.0344C7.52593 16.7474 8.55055 16.8789 9.26359 16.328L17.4071 10.0362C18.1201 9.48531 18.2516 8.46069 17.7007 7.74766C17.1498 7.03462 16.1252 6.90318 15.4121 7.45408Z" fill="#F49352"/>
<path d="M7.14812 20.4131L15.2916 14.1213C16.0047 13.5704 17.0293 13.7019 17.5802 14.4149C18.1311 15.128 17.9996 16.1526 17.2866 16.7035L9.1431 22.9952C8.43007 23.5461 7.40544 23.4147 6.85455 22.7017C6.30365 21.9886 6.43509 20.964 7.14812 20.4131Z" fill="#3EBB90"/>
</svg>
