<svg width="24" height="24" viewBox="0 0 24 24" fill="none" xmlns="http://www.w3.org/2000/svg">
<path d="M11.3046 19.4734L5 24L9.00236 5.58201L11.3046 19.4734ZM11.4321 19.4309L15.2715 19.4805L9.15112 5.65285L11.4321 19.4309ZM15.6328 19.1263L18.5726 8.23136L17.4604 6.87127L15.6328 19.1263ZM14.2161 2.04718L9.3778 5.30574L16.4475 3.01766L14.2161 2.04718ZM13.6068 2.04718L10.6033 2.14635L10.1641 3.40019L13.6068 2.04718Z" fill="#384182"/>
<path d="M17.2479 6.45336L9.50531 5.39078L16.4829 3.1948L17.2479 6.45336ZM15.4132 2.35891L15.8382 1.20425L13.6068 0.233765L15.4132 2.35891ZM16.0578 1.09091L16.5608 2.90436L19.536 2.11806L16.0578 1.09091Z" fill="#F79534"/>
<path d="M15.4416 19.4097L9.23615 5.52538L17.3259 6.6588L15.4416 19.4097ZM13.9823 2.04723L10.157 3.54191L9.23615 5.24203L13.9823 2.04723ZM11.6092 0.913813L10.6529 1.9693L13.8265 1.89138L11.6092 0.913813ZM13.281 0.0920897L11.7651 0.793388L15.222 2.31641L13.281 0.0920897ZM15.0095 0H13.3802L15.902 0.977568L15.0095 0ZM15.9516 1.29634L15.562 2.45809L16.3412 2.83353L15.9516 1.29634Z" fill="#F0513A"/>
</svg>
