<svg width="24" height="24" viewBox="0 0 24 24" fill="none" xmlns="http://www.w3.org/2000/svg">
<path d="M12 24C18.6274 24 24 18.6274 24 12C24 5.37258 18.6274 0 12 0C5.37258 0 0 5.37258 0 12C0 18.6274 5.37258 24 12 24Z" fill="#3D58B0"/>
<path d="M11.9895 3C7.032 3 3 7.032 3 11.9895C3 16.947 7.032 20.9775 11.9895 20.9775C16.947 20.9775 20.9775 16.9462 20.9775 11.9895C20.9782 7.032 16.9462 3 11.9895 3ZM11.9895 4.224C13.0096 4.22272 14.0199 4.42271 14.9626 4.81251C15.9053 5.20232 16.7618 5.77429 17.4831 6.49565C18.2044 7.217 18.7763 8.07358 19.166 9.01631C19.5557 9.95904 19.7556 10.9694 19.7542 11.9895C19.7555 13.0095 19.5556 14.0198 19.1658 14.9625C18.776 15.9051 18.2041 16.7616 17.4829 17.4829C16.7616 18.2041 15.9051 18.776 14.9625 19.1658C14.0198 19.5556 13.0095 19.7555 11.9895 19.7542C10.9694 19.7556 9.95904 19.5557 9.01631 19.166C8.07358 18.7763 7.217 18.2044 6.49565 17.4831C5.77429 16.7618 5.20232 15.9053 4.81251 14.9626C4.42271 14.0199 4.22272 13.0096 4.224 11.9895C4.22272 10.9694 4.4227 9.95899 4.8125 9.01625C5.2023 8.07352 5.77425 7.21695 6.4956 6.4956C7.21695 5.77425 8.07352 5.2023 9.01625 4.8125C9.95899 4.4227 10.9694 4.22272 11.9895 4.224Z" fill="white"/>
<path d="M8.64978 8.67001V15.3075H15.3285V8.67001H8.64978ZM9.73728 9.75751H14.2403V14.22H9.73803V9.75751H9.73728Z" fill="white"/>
</svg>
