<svg width="24" height="24" viewBox="0 0 24 24" fill="none" xmlns="http://www.w3.org/2000/svg">
<path d="M11.5349 0C11.4605 0.613954 11.4233 1.13488 11.3488 1.63721C11.107 3.36744 11.2744 5.02326 12.0558 6.62326C13.1163 8.76279 14.1209 10.9209 15.1256 13.0791C15.7395 14.4 16.2977 15.7581 16.5954 17.1907C16.7256 17.8791 16.6698 18.5116 16.3349 19.1256C15.3302 20.8744 14.0279 22.3442 12.4651 23.6093C12.3163 23.7209 12.1116 23.7581 11.9442 23.8326C11.9442 23.6465 11.9256 23.4419 11.9628 23.2744C12.1675 22.4558 12.4279 21.6372 12.614 20.8C12.8558 19.7395 12.7442 18.6791 12.2977 17.6744C11.4791 15.8698 10.6233 14.0651 9.78606 12.2605C8.98606 10.5488 8.16745 8.85581 7.66513 7.03256C7.40466 6.08372 7.21862 5.11628 7.66513 4.18605C8.46513 2.53023 9.69303 1.24651 11.1814 0.186047C11.2372 0.111628 11.3302 0.0930233 11.5349 0Z" fill="#5C9DD5"/>
<path d="M3.99999 2.56744C3.99999 2.75349 4.0186 2.88372 3.99999 2.99535C3.85116 4.05582 3.72092 5.11628 3.92557 6.17675C4.0186 6.62326 4.16743 7.06977 4.35348 7.49768C5.19069 9.30233 6.06511 11.0698 6.86511 12.8744C7.31162 13.8977 7.6465 14.9767 7.99999 16.0558C8.16743 16.5581 8.07441 17.0791 7.81395 17.5628C7.03255 18.9395 5.99069 20.093 4.76278 21.0977C4.65116 21.1907 4.50232 21.2465 4.37209 21.3209C4.33488 21.3023 4.31627 21.2837 4.27906 21.2651C4.29767 21.0977 4.31627 20.9302 4.35348 20.7814C4.52092 20.1302 4.70697 19.4791 4.85581 18.8279C5.02325 18.0093 4.94883 17.2093 4.61395 16.4465C3.85116 14.7907 3.08836 13.1535 2.32557 11.5163C1.73023 10.2326 1.15348 8.96744 0.837202 7.6093C0.651155 6.8093 0.781388 6.08372 1.19069 5.39535C1.82325 4.35349 2.64185 3.49768 3.60929 2.77209C3.70232 2.71628 3.83255 2.66047 3.99999 2.56744ZM19.2372 2.64186C19.2 2.95814 19.1628 3.29303 19.1256 3.6093C18.9953 4.53954 18.9209 5.50698 19.1814 6.41861C19.386 7.12558 19.7023 7.81396 20 8.48372C20.8744 10.4186 21.8046 12.3349 22.6419 14.2698C22.9209 14.9209 23.0884 15.6279 23.2186 16.3349C23.2744 16.6698 23.2186 17.0791 23.0512 17.3954C22.307 18.8837 21.1907 20.0744 19.8884 21.1163C19.7953 21.1907 19.6651 21.2279 19.4605 21.3395C19.4977 21.0977 19.4977 20.9488 19.5349 20.8C19.7209 20.0186 19.9256 19.2558 20.093 18.4744C20.2419 17.7488 20.093 17.0419 19.7767 16.3721C19.0139 14.7163 18.2326 13.0605 17.4698 11.4047C16.893 10.1581 16.3163 8.89302 16.0186 7.53489C15.8512 6.73489 15.9814 6.02791 16.4093 5.33954C17.0232 4.31628 17.8419 3.47907 18.7907 2.77209C18.9023 2.69768 19.0139 2.64186 19.1256 2.58605C19.1814 2.62326 19.2 2.64186 19.2372 2.64186Z" fill="#195199"/>
</svg>
