<svg width="24" height="24" viewBox="0 0 24 24" fill="none" xmlns="http://www.w3.org/2000/svg">
<path d="M15.6018 11.9991V15.5989H11.9991C11.2871 15.5989 10.5912 15.3877 9.9992 14.9922C9.40722 14.5967 8.94583 14.0345 8.67338 13.3767C8.40092 12.7189 8.32964 11.9951 8.46853 11.2969C8.60743 10.5986 8.95027 9.95716 9.4537 9.45373C9.95714 8.95029 10.5985 8.60745 11.2968 8.46856C11.9951 8.32966 12.7189 8.40095 13.3767 8.6734C14.0344 8.94586 14.5966 9.40725 14.9922 9.99922C15.3877 10.5912 15.5988 11.2872 15.5988 11.9991H15.6018ZM12.0466 5.99956C11.2588 5.97616 10.474 6.10817 9.73713 6.38806C9.00027 6.66794 8.32576 7.09022 7.7521 7.63078C7.17844 8.17135 6.71687 8.81961 6.39374 9.53855C6.07062 10.2575 5.89226 11.033 5.86886 11.8209C5.84545 12.6088 5.97747 13.3936 6.25735 14.1304C6.53724 14.8673 6.95952 15.5418 7.50008 16.1154C8.04064 16.6891 8.6889 17.1507 9.40785 17.4738C10.1268 17.7969 10.9023 17.9753 11.6902 17.9987H17.9987V12.0704C17.9987 8.76174 15.3553 6.02332 12.0466 5.99956Z" fill="#20EE82"/>
<path d="M20.4846 3.51481C18.5291 1.55923 15.9582 0.33915 13.2067 0.0609688C10.4552 -0.217212 7.69203 0.463585 5.38472 1.98819C5.51973 2.13747 5.63548 2.30311 5.72924 2.48122C7.92191 1.04199 10.5433 0.401596 13.1525 0.667718C15.7618 0.933839 18.1999 2.09024 20.0569 3.9425C24.5001 8.3798 24.5001 15.609 20.0569 20.0522C15.6137 24.4954 8.38449 24.4954 3.94126 20.0522C2.08992 18.1945 0.934619 15.756 0.669582 13.1468C0.404545 10.5375 1.04593 7.91656 2.48592 5.72455C2.30768 5.631 2.14201 5.51523 1.99289 5.38002C-1.66328 10.9044 -0.145567 18.3515 5.37878 22.0077C10.9031 25.6639 18.3503 24.1461 22.0065 18.6218C23.5335 16.3144 24.2162 13.55 23.9388 10.797C23.6615 8.04393 22.4412 5.47132 20.4846 3.51481Z" fill="#7F8C8D"/>
<path d="M2.75925 2.75447C2.92666 2.58627 3.14018 2.4715 3.37282 2.42465C3.60546 2.3778 3.84676 2.40098 4.06622 2.49127C4.28569 2.58156 4.47345 2.7349 4.60577 2.93189C4.73809 3.12889 4.80902 3.3607 4.8096 3.59801C4.81019 3.83531 4.74039 4.06747 4.60903 4.26511C4.47768 4.46275 4.29067 4.617 4.07166 4.70837C3.85264 4.79973 3.61145 4.8241 3.37858 4.77839C3.14572 4.73268 2.93164 4.61895 2.7634 4.45158L2.75925 4.44742C2.53544 4.22255 2.40979 3.91821 2.40979 3.60094C2.40979 3.28368 2.53544 2.97933 2.75925 2.75447Z" fill="#20EE82"/>
</svg>
