<svg width="24" height="24" viewBox="0 0 24 24" fill="none" xmlns="http://www.w3.org/2000/svg">
<g clip-path="url(#clip0)">
<path d="M12.0021 14.2902C13.4427 14.2902 14.6106 13.1224 14.6106 11.6817C14.6106 10.2411 13.4427 9.07327 12.0021 9.07327C10.5615 9.07327 9.39362 10.2411 9.39362 11.6817C9.39362 13.1224 10.5615 14.2902 12.0021 14.2902Z" fill="black"/>
<path d="M2.88702 15.7812C3.17051 15.5913 3.38693 15.3169 3.5055 14.997C3.62408 14.6771 3.63877 14.3279 3.54748 13.9991C2.93887 11.7734 3.23151 9.39755 4.36204 7.38608C5.49257 5.3746 7.36997 3.88943 9.58765 3.25222C9.98905 3.12391 10.3245 2.84399 10.5226 2.47205C10.7207 2.10012 10.7658 1.66555 10.6483 1.26086C10.5308 0.856169 10.26 0.513319 9.89355 0.305298C9.52707 0.0972777 9.09387 0.0405171 8.68617 0.1471C5.65279 1.02239 3.08589 3.05657 1.54062 5.80969C-0.00463659 8.56281 -0.40404 11.8136 0.428799 14.8589C0.496233 15.1062 0.62146 15.334 0.794165 15.5234C0.96687 15.7129 1.18211 15.8586 1.42216 15.9485C1.66221 16.0385 1.9202 16.0702 2.17488 16.0409C2.42956 16.0116 2.67364 15.9223 2.88702 15.7802V15.7812Z" fill="black"/>
<path d="M12.938 1.61827C12.9371 1.97687 13.0558 2.32554 13.2754 2.60903C13.495 2.89252 13.803 3.09463 14.1504 3.18335C16.37 3.74522 18.2817 5.15338 19.4764 7.1066C20.6711 9.05983 21.054 11.403 20.5433 13.635C20.4628 13.9977 20.5099 14.3771 20.6764 14.7093C20.843 15.0415 21.1189 15.3061 21.4578 15.4586C21.7966 15.6111 22.1777 15.6422 22.5368 15.5467C22.8958 15.4511 23.211 15.2347 23.4293 14.934C23.5576 14.7568 23.6492 14.5556 23.6985 14.3424C24.3884 11.2929 23.8627 8.09463 22.2329 5.42649C20.6031 2.75835 17.9976 0.830472 14.9695 0.0521473C14.763 -0.00190109 14.5479 -0.0147004 14.3364 0.0144818C14.125 0.043664 13.9214 0.114255 13.7372 0.222215C13.5531 0.330175 13.392 0.473385 13.2633 0.64365C13.1346 0.813914 13.0407 1.00789 12.987 1.21448C12.9541 1.34655 12.9377 1.48217 12.938 1.61827Z" fill="black"/>
<path d="M20.4661 17.4841C20.1523 17.2593 19.7674 17.1565 19.3833 17.1949C18.9993 17.2333 18.6423 17.4103 18.3793 17.6927C17.5893 18.5298 16.6421 19.2031 15.5918 19.6741C14.5416 20.1452 13.4089 20.4047 12.2583 20.4379C11.1077 20.4712 9.96191 20.2774 8.88623 19.8678C7.81055 19.4582 6.82609 18.8407 5.98906 18.0506C5.94524 18.0089 5.90141 17.9671 5.85864 17.9244C5.60097 17.6735 5.26476 17.519 4.90656 17.4869C4.54836 17.4548 4.19003 17.547 3.89185 17.748L3.82299 17.7939C3.65053 17.908 3.50225 18.0549 3.38661 18.2263C3.27098 18.3978 3.19026 18.5903 3.14908 18.7929C3.1079 18.9955 3.10705 19.2043 3.1466 19.4072C3.18614 19.6102 3.2653 19.8033 3.37955 19.9757C3.43688 20.0641 3.5037 20.1459 3.57883 20.2198C5.84355 22.4554 8.9036 23.6999 12.0858 23.6793C15.2681 23.6588 18.3118 22.3749 20.5474 20.1103C20.6174 20.0393 20.6862 19.9673 20.7561 19.8943C21.0431 19.5892 21.1972 19.1827 21.1847 18.764C21.1722 18.3454 20.994 17.9488 20.6893 17.6614C20.6397 17.6146 20.5871 17.571 20.5318 17.531L20.4661 17.4841Z" fill="black"/>
</g>
<defs>
<clipPath id="clip0">
<rect width="24" height="24" fill="white"/>
</clipPath>
</defs>
</svg>
