<svg width="24" height="24" viewBox="0 0 24 24" fill="none" xmlns="http://www.w3.org/2000/svg">
<path d="M20.7568 9.6915L15.5071 21.0479H13.4099L18.9352 9.09326C19.5838 9.19745 20.1955 9.3991 20.7568 9.6915ZM11.5715 3.02017L3.49531 20.4933C1.43509 19.5422 0 17.4585 0 15.0319C0 11.708 2.68534 9.01596 5.99916 9.01596C5.99916 5.83658 8.45932 3.24198 11.5715 3.02017ZM18.0008 9.01596L12.4386 21.0479H10.1666L17.1505 5.94076C17.6883 6.84148 18.0008 7.89007 18.0008 9.01596ZM20.0678 20.6748L23.6303 12.9717C23.8656 13.617 24 14.3093 24 15.0353C24 17.6232 22.3633 19.8279 20.0678 20.6748ZM21.6407 10.2561C22.1381 10.6393 22.5784 11.093 22.9346 11.6139L18.5856 21.0176C18.3941 21.0378 18.1958 21.0479 18.0008 21.0479H16.6531L21.6407 10.2561ZM12.0218 3C12.8721 3.00336 13.6788 3.18485 14.4114 3.51085L6.305 21.0479H5.99916C5.24632 21.0479 4.5271 20.9034 3.86501 20.6479L12.0218 3ZM16.6767 5.24842L9.37348 21.0479H6.9234L14.9156 3.75956C15.5945 4.13934 16.1927 4.64683 16.6767 5.24842Z" fill="#0072FF"/>
</svg>
