<svg width="24" height="24" viewBox="0 0 24 24" fill="none" xmlns="http://www.w3.org/2000/svg">
<path d="M12 24C18.6274 24 24 18.6274 24 12C24 5.37258 18.6274 0 12 0C5.37258 0 0 5.37258 0 12C0 18.6274 5.37258 24 12 24Z" fill="#FDA616"/>
<path d="M8.94075 16.5C9.0285 16.773 10.1145 17.898 11.2448 17.898C12.9203 17.898 13.899 16.887 13.899 15.4245C13.899 14.07 13.221 13.296 11.508 12.543C9.43725 11.7045 8.157 10.4782 8.157 8.43525C8.157 6.17775 9.795 4.5 12.261 4.5C13.56 4.5 14.8763 5.3175 15.3128 5.8635L14.265 6.95475C13.851 6.69675 13.3538 6.048 12.2048 6.048C10.473 6.048 9.81375 7.23075 9.81375 8.22C9.81375 9.57525 10.5863 10.242 12.336 11.016C14.4825 11.9625 15.5745 13.1452 15.5745 15.2738C15.5745 17.511 14.1165 19.5 11.1233 19.5C9.89925 19.5 8.592 18.6825 7.806 17.682L8.94075 16.5ZM10.3373 8.77275C10.0755 8.2275 10.2503 7.68225 10.2503 7.68225C16.8833 6.591 15.6615 13.0448 15.6615 13.0448C15.138 12.0457 14.6145 11.8635 14.6145 11.8635C14.7015 8.136 10.3373 8.77275 10.3373 8.77275ZM13.305 14.682C13.5675 15.3188 13.2645 15.981 13.2645 15.981C5.712 16.9545 7.752 10.0485 7.74975 10.0485C8.15025 11.109 8.64825 11.3572 8.64825 11.3572C8.50575 15.6817 13.305 14.682 13.305 14.682Z" fill="white"/>
</svg>
