<svg width="24" height="24" viewBox="0 0 24 24" fill="none" xmlns="http://www.w3.org/2000/svg">
<path d="M12 24C18.6274 24 24 18.6274 24 12C24 5.37258 18.6274 0 12 0C5.37258 0 0 5.37258 0 12C0 18.6274 5.37258 24 12 24Z" fill="#8E9495"/>
<path d="M5.71725 15.5332C5.54546 15.1628 5.41808 14.7733 5.33775 14.373C5.29147 14.1622 5.26212 13.948 5.25 13.7325H5.9205C5.93582 13.9058 5.96086 14.078 5.9955 14.2485C6.06825 14.6002 6.17775 14.9497 6.32775 15.2685C6.72975 16.1205 7.34025 16.6065 8.22675 16.6065C8.91975 16.6065 9.45675 16.329 9.83475 15.84C10.1557 15.4267 10.3372 14.8785 10.3372 14.418C10.3372 13.8277 10.1138 13.3927 9.6675 13.0245C9.3045 12.7245 8.88675 12.5145 8.02425 12.156L7.872 12.093C6.975 11.7217 6.561 11.5177 6.15825 11.1997C5.60175 10.7602 5.30625 10.215 5.30625 9.51674C5.30625 8.68049 5.607 7.97174 6.1455 7.47074C6.65616 7.0033 7.32447 6.74589 8.01675 6.74999C8.97675 6.74999 9.7095 7.14974 10.197 7.85024V6.89774H12.363V16.458H13.0065V13.7752C13.0054 13.7533 13.0054 13.7312 13.0065 13.7092L13.677 13.7317V13.7655C13.6902 13.9282 13.7127 14.0899 13.7445 14.25C13.8142 14.5987 13.9223 14.949 14.0723 15.2677C14.472 16.119 15.0833 16.6057 15.969 16.6057C16.662 16.6057 17.199 16.3282 17.577 15.8392C17.898 15.426 18.0795 14.8777 18.0795 14.4172C18.0795 13.827 17.856 13.392 17.4097 13.0237C17.0467 12.7237 16.629 12.5137 15.7665 12.1552L15.6143 12.0922C14.7172 11.721 14.3033 11.517 13.9005 11.199C13.344 10.7595 13.0485 10.2142 13.0485 9.51599C13.0485 8.67974 13.3492 7.97099 13.8878 7.46999C14.3985 7.00282 15.0668 6.74568 15.759 6.74999C16.719 6.74999 17.4518 7.14974 17.9393 7.85024V6.93824H18.6105V10.2547H17.9393C17.9393 9.56174 17.7803 8.85974 17.4675 8.34149C17.0985 7.72874 16.5435 7.39424 15.759 7.39424C15.2397 7.39047 14.738 7.58278 14.3542 7.93274C13.9493 8.31074 13.719 8.85149 13.719 9.51599C13.719 10.011 13.9185 10.3785 14.3265 10.701C14.664 10.9672 15.042 11.1532 15.8798 11.5005L16.032 11.5635C16.9567 11.9467 17.415 12.1785 17.847 12.5347C18.4372 13.0222 18.75 13.6327 18.75 14.4172C18.75 15.0142 18.5235 15.6967 18.1155 16.2247C17.6137 16.872 16.881 17.25 15.969 17.25C15.3368 17.25 14.7945 17.058 14.349 16.7025C14.0824 16.4869 13.855 16.2268 13.677 15.9337V17.1022H11.6925V7.54199H10.8675V10.2547H10.197C10.197 9.56174 10.038 8.85974 9.72525 8.34149C9.35625 7.72874 8.80125 7.39424 8.01675 7.39424C7.4974 7.39047 6.99575 7.58278 6.612 7.93274C6.207 8.31074 5.97675 8.85149 5.97675 9.51599C5.97675 10.011 6.17625 10.3785 6.58425 10.701C6.92175 10.9672 7.29975 11.1532 8.1375 11.5005L8.28975 11.5635C9.2145 11.9467 9.67275 12.1785 10.1047 12.5347C10.695 13.0222 11.0078 13.6327 11.0078 14.4172C11.0078 15.0142 10.7813 15.6967 10.3733 16.2247C9.8715 16.872 9.13875 17.25 8.22675 17.25C7.5945 17.25 7.05225 17.058 6.60675 16.7025C6.33344 16.4815 6.10115 16.2142 5.9205 15.9127V17.0617H5.25V13.7317H5.9205V15.9127C5.84595 15.79 5.7781 15.6633 5.71725 15.5332Z" fill="white"/>
</svg>
