<svg width="24" height="24" viewBox="0 0 24 24" fill="none" xmlns="http://www.w3.org/2000/svg">
<path d="M12 24C18.6274 24 24 18.6274 24 12C24 5.37258 18.6274 0 12 0C5.37258 0 0 5.37258 0 12C0 18.6274 5.37258 24 12 24Z" fill="#5B6DEE"/>
<path d="M9.97524 11.2655C9.55683 11.2631 9.13909 11.2991 8.72724 11.3729C9.06624 8.23752 11.6792 5.86344 14.7901 5.86368C16.6949 5.86368 18 6.79632 18 8.72736C18 10.6584 16.4335 11.591 14.148 11.591C12.461 11.5909 11.6624 11.2655 9.97524 11.2655ZM9.852 12.4091C7.5666 12.4091 6 13.3417 6 15.2728C6 17.2038 7.30512 18.1364 9.20988 18.1364C12.3211 18.1364 14.9339 15.7626 15.2728 12.6272C14.8609 12.701 14.4432 12.737 14.0248 12.7346C12.3376 12.7345 11.539 12.4091 9.852 12.4091Z" fill="white"/>
</svg>
