<svg width="24" height="24" viewBox="0 0 24 24" fill="none" xmlns="http://www.w3.org/2000/svg">
<path d="M16.9512 8.95199C16.8672 9.03599 16.7544 9.08399 16.6368 9.08399H5.48881C5.09521 9.08399 4.89601 8.60399 5.16961 8.31839L6.99841 6.42479C7.08241 6.33839 7.19761 6.28799 7.31761 6.28799H18.5064C18.9024 6.28799 19.1016 6.77279 18.8208 7.05839L16.9512 8.95199ZM16.9512 17.4144C16.8672 17.496 16.7544 17.544 16.6368 17.544H5.48881C5.09521 17.544 4.89601 17.076 5.16961 16.7976L6.99841 14.9496C7.08241 14.8656 7.19761 14.8176 7.31761 14.8176H18.5064C18.9024 14.8176 19.1016 15.2904 18.8208 15.5688L16.9512 17.4144ZM16.6368 10.5528C16.7544 10.5528 16.8672 10.5984 16.9512 10.6824L18.8208 12.5304C19.1016 12.8064 18.9024 13.2816 18.5064 13.2816H7.31761C7.19761 13.2816 7.08241 13.2336 6.99841 13.1496L5.16961 11.3016C4.89361 11.0232 5.09281 10.5552 5.48881 10.5552L16.6368 10.5528Z" fill="#00FFAD"/>
<path d="M12 0C18.6264 0 24 5.3736 24 12C24 18.6264 18.6264 24 12 24C5.3736 24 0 18.6264 0 12C0 5.3736 5.3736 0 12 0Z" fill="black"/>
<path fill-rule="evenodd" clip-rule="evenodd" d="M5.5488 10.8552H16.6536C16.7928 10.8552 16.9248 10.9104 17.0208 11.0088L18.7776 12.7776C19.1016 13.104 18.8712 13.6608 18.4104 13.6608H7.3056C7.1664 13.6608 7.0344 13.6056 6.9384 13.5072L5.1816 11.7384C4.8552 11.412 5.088 10.8552 5.5488 10.8552ZM5.1816 8.51041L6.9384 6.74161C7.0368 6.64321 7.1688 6.58801 7.3056 6.58801H18.408C18.8688 6.58801 19.1016 7.14481 18.7752 7.47121L17.0208 9.24001C16.9224 9.33841 16.7904 9.39361 16.6536 9.39361H5.5488C5.088 9.39361 4.8552 8.83681 5.1816 8.51041ZM18.7752 16.0056L17.0184 17.7744C16.92 17.8728 16.788 17.928 16.6512 17.928H5.5488C5.088 17.928 4.8552 17.3712 5.1816 17.0448L6.9384 15.276C7.0368 15.1776 7.1688 15.1224 7.3056 15.1224H18.408C18.8688 15.1224 19.1016 15.6792 18.7752 16.0056Z" fill="url(#paint0_linear)"/>
<defs>
<linearGradient id="paint0_linear" x1="5.82047" y1="18.4159" x2="18.1363" y2="6.10008" gradientUnits="userSpaceOnUse">
<stop stop-color="#CB4EE8"/>
<stop offset="1" stop-color="#10F4B1"/>
</linearGradient>
</defs>
</svg>
