<svg width="24" height="24" viewBox="0 0 24 24" fill="none" xmlns="http://www.w3.org/2000/svg">
<path d="M12 24C18.6274 24 24 18.6274 24 12C24 5.37258 18.6274 0 12 0C5.37258 0 0 5.37258 0 12C0 18.6274 5.37258 24 12 24Z" fill="#00B098"/>
<path d="M4.5 9.29325V9.02625H10.8127V9.29325H4.5ZM4.5 8.517V8.25H10.8127V8.517H4.5ZM7.1625 16.497V9.82725H7.416V16.497H7.1625ZM7.8975 16.497V9.82725H8.15025V16.497H7.8975ZM19.3215 15.951L16.473 12.9412L16.6515 12.753L19.5 15.762L19.3215 15.951ZM12.3892 8.25L15.2377 11.2597L15.0592 11.448L12.2108 8.439L12.3892 8.25ZM18.8018 16.5L15.9532 13.4902L16.1318 13.3013L18.9802 16.311L18.8018 16.5ZM11.8702 8.799L14.7188 11.808L14.5395 11.997L11.691 8.988L11.8702 8.799ZM15.936 12.375L16.1152 12.186L19.3215 8.799L19.5 8.988L16.2938 12.375L16.1152 12.564L15.7748 12.924L15.5955 13.113L12.39 16.5L12.2115 16.311L15.4177 12.924L15.5963 12.735L15.936 12.375ZM15.5955 11.637L18.8025 8.25L18.981 8.439L15.7748 11.826L15.5963 12.015L15.2557 12.375L15.0765 12.564L11.871 15.951L11.6917 15.762L14.898 12.375L15.0765 12.186L15.4177 11.826L15.5955 11.637Z" fill="white"/>
</svg>
