<svg width="24" height="24" viewBox="0 0 24 24" fill="none" xmlns="http://www.w3.org/2000/svg">
<path d="M12 24C18.6274 24 24 18.6274 24 12C24 5.37258 18.6274 0 12 0C5.37258 0 0 5.37258 0 12C0 18.6274 5.37258 24 12 24Z" fill="#F2941B"/>
<path d="M12.4245 3.75H12.4327C13.9867 5.2875 15.5235 6.84 17.0685 8.38575H20.9235L12.246 20.6805C12.102 19.2367 11.991 17.793 11.8635 16.35C13.1205 14.5417 14.4113 12.75 15.6683 10.95L12.798 8.08875C12.7954 7.75034 12.7671 7.41261 12.7133 7.0785C12.6195 5.9745 12.5603 4.854 12.4245 3.75ZM3.00825 16.095C5.9205 12.003 8.80725 7.89375 11.7113 3.79275L12.0765 8.13975C10.8112 9.948 9.53775 11.7315 8.2725 13.5315C9.21525 14.4735 10.1572 15.4327 11.1173 16.3755C11.2448 17.8185 11.355 19.2795 11.4998 20.7315H11.4818L6.8715 16.1122C5.5815 16.1295 4.29075 16.104 3 16.1295V16.095H3.00825Z" fill="white"/>
</svg>
