<svg width="24" height="24" viewBox="0 0 24 24" fill="none" xmlns="http://www.w3.org/2000/svg">
<path fill-rule="evenodd" clip-rule="evenodd" d="M7.44707 13.9482C7.36205 14.007 7.30438 14.0534 7.24086 14.0898C6.37877 14.5847 5.51357 15.0747 4.65471 15.5754C4.47811 15.6785 4.33101 15.6955 4.14916 15.5886C3.7993 15.3828 3.42199 15.3395 3.02235 15.4304C2.21256 15.6145 1.65817 16.5188 1.8688 17.3289C2.09865 18.2121 2.99011 18.7332 3.82653 18.4724C4.5451 18.2483 4.91083 17.744 4.95942 17.0075C4.97423 16.7838 5.05996 16.6493 5.25542 16.5387C6.21423 15.996 7.16719 15.443 8.11823 14.8865C8.29948 14.7806 8.45686 14.7653 8.65316 14.857C9.09853 15.0653 9.58426 15.1584 10.0588 15.0508C10.4866 14.9538 10.8443 15.017 11.2222 15.2126C11.4263 15.318 11.4934 15.431 11.4922 15.6497C11.4842 17.1259 11.4803 18.6023 11.4934 20.0784C11.4958 20.3562 11.4198 20.5229 11.1783 20.6788C10.4612 21.1419 10.2844 22.1149 10.7573 22.8275C11.2363 23.5499 12.2074 23.752 12.9261 23.2792C13.9027 22.6366 13.8768 21.2314 12.8742 20.6193C12.7418 20.5383 12.636 20.4677 12.6368 20.2813C12.6436 18.7637 12.6428 17.246 12.638 15.7284C12.6374 15.5624 12.7028 15.4883 12.8583 15.4603C13.1188 15.4135 13.3812 15.3707 13.636 15.3014C13.8686 15.2381 14.0813 15.2321 14.3126 15.3233C14.9103 15.5584 15.5003 15.5144 16.0575 15.1933C16.2389 15.0889 16.3794 15.0983 16.5579 15.2038C17.3137 15.6511 18.075 16.0893 18.8418 16.5174C19.0692 16.6443 19.1712 16.7967 19.1752 17.0671C19.185 17.7729 19.7915 18.4238 20.485 18.5131C21.2017 18.6053 21.8559 18.2532 22.1593 17.612C22.4447 17.0085 22.3019 16.2855 21.8034 15.8101C21.3121 15.3414 20.5919 15.2504 19.9637 15.5979C19.7871 15.6957 19.6515 15.6887 19.4826 15.589C18.7622 15.1638 18.0389 14.7425 17.3081 14.3353C17.109 14.2244 17.0392 14.1175 17.1016 13.8829C17.2853 13.1931 17.1548 12.5601 16.7229 11.9809C16.4265 11.5836 16.1647 11.1606 15.8836 10.7518C15.7629 10.5761 15.7939 10.4583 15.9819 10.3508C17.161 9.67609 18.3375 8.99645 19.5123 8.31406C19.6633 8.22642 19.7882 8.21674 19.9452 8.31251C20.3414 8.5543 20.7677 8.59119 21.2122 8.4546C21.9188 8.23752 22.4009 7.47788 22.2877 6.7506C22.1659 5.96743 21.4807 5.36265 20.7292 5.37471C19.8628 5.38857 19.1925 6.05006 19.1695 6.92576C19.1647 7.10845 19.1156 7.23418 18.9475 7.33018C17.7394 8.02176 16.5345 8.71931 15.3318 9.42033C15.1875 9.50451 15.0887 9.49854 14.9629 9.38092C14.3882 8.84361 13.7046 8.53089 12.9217 8.44815C12.7032 8.4251 12.6376 8.32827 12.6388 8.11012C12.6471 6.67549 12.6462 5.24062 12.6366 3.80612C12.6349 3.55418 12.7179 3.38952 12.9306 3.2528C13.5317 2.86665 13.7785 2.16827 13.5718 1.49662C13.3695 0.838715 12.7698 0.393938 12.0817 0.391297C11.3648 0.388446 10.7726 0.816147 10.5634 1.48755C10.3425 2.19657 10.6023 2.88815 11.2472 3.29412C11.3766 3.37567 11.4914 3.44468 11.4908 3.63119C11.4858 5.20683 11.4916 6.7826 11.4811 8.35836C11.4805 8.45722 11.3933 8.59095 11.3065 8.64755C10.9267 8.89591 10.5332 9.12349 10.1426 9.35525C9.75799 9.58355 9.31907 9.68492 8.9322 9.47466C7.67298 8.7906 6.43919 8.05937 5.19632 7.34498C5.04229 7.25651 4.97041 7.13316 4.96575 6.94057C4.93841 5.82033 3.90904 5.23406 3.12205 5.41674C2.46796 5.56851 2.0282 5.93579 1.86963 6.58212C1.71154 7.22677 1.90665 7.7906 2.43369 8.19692C2.95978 8.60242 3.5476 8.64731 4.1371 8.33388C4.33124 8.23083 4.47739 8.23227 4.66283 8.3426C5.28193 8.71131 5.91047 9.06403 6.53435 9.42463C6.96945 9.67609 7.40277 9.9303 7.87202 10.2038C6.77614 11.3557 6.6633 12.6083 7.44707 13.9482ZM22.657 6.95036C22.6569 7.64146 22.3752 8.18713 21.7946 8.56254C21.6126 8.68027 21.5462 8.81352 21.5471 9.02988C21.555 10.9788 21.5555 12.9277 21.5476 14.8766C21.5466 15.1012 21.6134 15.2354 21.8055 15.3606C22.6623 15.9191 22.9274 17.0688 22.4147 17.9259C21.8751 18.828 20.7634 19.1594 19.8475 18.6751C19.6608 18.5764 19.5169 18.5821 19.3418 18.6835C17.6286 19.6766 15.9133 20.6664 14.1955 21.6515C14.0197 21.7523 14.0056 21.9003 13.9944 22.0706C13.9363 22.958 13.3105 23.6854 12.4608 23.8608C11.3366 24.0927 10.2559 23.311 10.1543 22.1703C10.1271 21.8668 10.0126 21.689 9.7439 21.5367C8.09339 20.6016 6.4522 19.6497 4.8128 18.695C4.6202 18.5828 4.47118 18.5729 4.26665 18.6774C3.33554 19.1535 2.23775 18.8247 1.72121 17.9348C1.2036 17.0428 1.4596 15.9302 2.33053 15.3527C2.5273 15.2222 2.6005 15.0753 2.59954 14.8421C2.59178 12.9181 2.59154 10.9942 2.59907 9.07012C2.60002 8.83633 2.52826 8.68851 2.32874 8.56074C1.64205 8.12086 1.34486 7.38104 1.5002 6.55609C1.64169 5.8054 2.22557 5.23597 2.99477 5.06976C3.46295 4.96851 3.90104 5.02654 4.31345 5.25877C4.46868 5.34606 4.59417 5.34677 4.75011 5.25651C6.44193 4.27668 8.13507 3.29889 9.83441 2.33209C10.0637 2.2017 10.1305 2.02427 10.1434 1.78845C10.2005 0.741998 11.1779 -0.0820018 12.2998 0.0313116C13.1531 0.11764 13.9228 0.883371 13.9847 1.75967C14.0068 2.0743 14.149 2.24552 14.4111 2.39477C16.0524 3.3291 17.6877 4.27406 19.32 5.22403C19.5156 5.33794 19.67 5.33734 19.8724 5.23668C21.1717 4.59059 22.649 5.50451 22.657 6.95036Z" fill="#2583FF"/>
<path fill-rule="evenodd" clip-rule="evenodd" d="M7.91824 12.247C7.92352 11.1572 8.79456 10.2421 9.8908 10.2193C10.2315 10.2121 10.4833 10.1101 10.7315 9.88612C11.9849 8.7531 13.721 9.18534 14.5821 10.1665C14.8959 10.5241 15.0787 10.9502 15.1706 11.4092C15.2176 11.6435 15.3374 11.7908 15.5273 11.9153C16.0008 12.225 16.2639 12.6768 16.2134 13.235C16.1549 13.8791 15.8338 14.3815 15.181 14.5917C14.7991 14.7145 14.4097 14.7139 14.0489 14.5139C13.8715 14.4158 13.711 14.4145 13.5288 14.4867C12.691 14.8189 11.8764 14.7738 11.1002 14.3043C10.9127 14.1907 10.7368 14.183 10.5334 14.2412C9.20471 14.6214 7.91146 13.6327 7.91824 12.247Z" fill="#2583FF"/>
<path fill-rule="evenodd" clip-rule="evenodd" d="M20.7414 16.5153C20.9972 16.5216 21.2092 16.7344 21.1998 16.975C21.1905 17.2101 20.9578 17.4209 20.7141 17.4148C20.4655 17.4085 20.2779 17.2135 20.2799 16.9634C20.282 16.6977 20.4766 16.5088 20.7414 16.5153Z" fill="#2583FF"/>
<path fill-rule="evenodd" clip-rule="evenodd" d="M11.6076 1.92466C11.6277 1.67201 11.8456 1.49039 12.1036 1.51153C12.3637 1.53266 12.5408 1.74556 12.5141 2.00502C12.4891 2.2455 12.2696 2.43439 12.0373 2.41529C11.7919 2.39523 11.5886 2.16299 11.6076 1.92466Z" fill="#2583FF"/>
<path fill-rule="evenodd" clip-rule="evenodd" d="M20.7245 7.4025C20.473 7.40179 20.287 7.21755 20.2833 6.96549C20.2793 6.69826 20.4644 6.51235 20.7334 6.51319C20.9857 6.51403 21.2012 6.72191 21.1998 6.96298C21.1985 7.20811 20.9874 7.40322 20.7245 7.4025Z" fill="#2583FF"/>
<path fill-rule="evenodd" clip-rule="evenodd" d="M3.84301 6.96151C3.83931 7.22121 3.66211 7.40151 3.40898 7.40306C3.13137 7.40486 2.92826 7.20605 2.93769 6.94181C2.94677 6.68963 3.15154 6.50647 3.41686 6.51363C3.66999 6.52044 3.84671 6.70611 3.84301 6.96151Z" fill="#2583FF"/>
<path fill-rule="evenodd" clip-rule="evenodd" d="M12.0545 21.5155C12.3068 21.5121 12.5226 21.7175 12.5202 21.9591C12.5177 22.2177 12.3246 22.4036 12.0601 22.4024C11.796 22.4011 11.6087 22.2135 11.6096 21.9514C11.6106 21.7118 11.8076 21.5187 12.0545 21.5155Z" fill="#2583FF"/>
<path fill-rule="evenodd" clip-rule="evenodd" d="M3.40321 16.517C3.65192 16.5163 3.83855 16.7015 3.84285 16.9529C3.84727 17.2154 3.65252 17.4177 3.39772 17.4153C3.14291 17.4131 2.93789 17.2095 2.93885 16.9601C2.93992 16.7053 3.13658 16.5177 3.40321 16.517Z" fill="#2583FF"/>
</svg>
