<svg width="24" height="24" viewBox="0 0 24 24" fill="none" xmlns="http://www.w3.org/2000/svg">
<path d="M4.75564 5.07532H14.7272C14.757 5.07532 14.7826 5.08384 14.8039 5.10089L18.8607 8.08385C18.9204 8.12646 18.9289 8.20743 18.8863 8.26709C18.8607 8.30118 18.8224 8.31822 18.7798 8.31822H8.24995C8.17751 8.31822 8.11785 8.37788 8.11785 8.45033V12.2728C8.11785 12.3452 8.17751 12.4049 8.24995 12.4049H14.9616C15.034 12.4049 15.0937 12.4645 15.0937 12.537V15.3239C15.0937 15.3964 15.034 15.456 14.9616 15.456H4.70876C4.63632 15.456 4.57666 15.3964 4.57666 15.3239L4.62354 5.21168C4.62354 5.13498 4.67893 5.07958 4.75564 5.07532C4.75138 5.07532 4.75564 5.07532 4.75564 5.07532Z" fill="#0E67AE"/>
<path d="M19.1293 19.2102H8.75289C8.72306 19.2102 8.69749 19.2017 8.67618 19.1846L4.86226 16.3636C4.8026 16.321 4.79408 16.24 4.83669 16.1804C4.86226 16.1463 4.90061 16.1293 4.94323 16.1293H15.6392C15.7117 16.1293 15.7714 16.0696 15.7714 15.9971V11.8508C15.7714 11.7784 15.7117 11.7187 15.6392 11.7187H9.02561C8.95317 11.7187 8.89351 11.6591 8.89351 11.5909V9.1321C8.89351 9.05966 8.95317 9 9.02135 9H19.1762C19.2486 9 19.3083 9.05966 19.3083 9.1321L19.2614 19.0824C19.2571 19.1548 19.2017 19.2102 19.1293 19.2102Z" fill="#0E67AE"/>
<path fill-rule="evenodd" clip-rule="evenodd" d="M12 1.10795C5.98449 1.10795 1.10795 5.98449 1.10795 12C1.10795 18.0155 5.98449 22.892 12 22.892C18.0155 22.892 22.892 18.0155 22.892 12C22.892 5.98449 18.0155 1.10795 12 1.10795ZM0 12C0 5.37258 5.37258 0 12 0C18.6274 0 24 5.37258 24 12C24 18.6274 18.6274 24 12 24C5.37258 24 0 18.6274 0 12Z" fill="#0E67AE"/>
</svg>
