<svg width="24" height="24" viewBox="0 0 24 24" fill="none" xmlns="http://www.w3.org/2000/svg">
<g clip-path="url(#clip0)">
<path fill-rule="evenodd" clip-rule="evenodd" d="M4.85113 9.51643C4.73019 9.39633 4.6342 9.25349 4.5687 9.09614C4.5032 8.93879 4.46948 8.77004 4.46948 8.5996C4.46948 8.42916 4.5032 8.2604 4.5687 8.10305C4.6342 7.9457 4.73019 7.80287 4.85113 7.68277L12.1393 0.379095C12.3852 0.1381 12.7157 0.00311279 13.06 0.00311279C13.4043 0.00311279 13.7349 0.1381 13.9807 0.379095C14.2217 0.624959 14.3567 0.955513 14.3567 1.29979C14.3567 1.64407 14.2217 1.97462 13.9807 2.22049L6.68478 9.51643C6.56469 9.63737 6.42185 9.73335 6.2645 9.79885C6.10715 9.86435 5.9384 9.89807 5.76796 9.89807C5.59752 9.89807 5.42876 9.86435 5.27141 9.79885C5.11406 9.73335 4.97122 9.63737 4.85113 9.51643Z" fill="#242328"/>
<path fill-rule="evenodd" clip-rule="evenodd" d="M18.0194 14.4758C18.1406 14.5966 18.2367 14.7401 18.3023 14.898C18.3679 15.056 18.4017 15.2254 18.4017 15.3965C18.4017 15.5676 18.3679 15.737 18.3023 15.895C18.2367 16.053 18.1406 16.1964 18.0194 16.3172L10.7312 23.6131C10.612 23.7395 10.4688 23.8406 10.3099 23.9107C10.151 23.9807 9.97962 24.0182 9.80598 24.0209C9.63234 24.0236 9.45992 23.9915 9.2989 23.9265C9.13787 23.8615 8.99151 23.7649 8.86846 23.6423C8.7454 23.5198 8.64815 23.3738 8.58245 23.2131C8.51674 23.0523 8.48391 22.88 8.4859 22.7064C8.48789 22.5327 8.52466 22.3613 8.59403 22.2021C8.6634 22.0429 8.76397 21.8992 8.88979 21.7795L16.1857 14.4758C16.4293 14.2334 16.7589 14.0974 17.1026 14.0974C17.4462 14.0974 17.7758 14.2334 18.0194 14.4758ZM4.37916 16.0232C4.13816 15.7773 4.00317 15.4468 4.00317 15.1025C4.00317 14.7582 4.13816 14.4277 4.37916 14.1818L9.02132 9.53964C9.14142 9.4187 9.28425 9.32271 9.44161 9.25721C9.59896 9.19171 9.76771 9.15799 9.93815 9.15799C10.1086 9.15799 10.2773 9.19171 10.4347 9.25721C10.592 9.32271 10.7349 9.4187 10.855 9.53964C11.096 9.7855 11.231 10.1161 11.231 10.4603C11.231 10.8046 11.096 11.1352 10.855 11.381L6.21281 16.0232C5.96924 16.2656 5.6396 16.4016 5.29598 16.4016C4.95237 16.4016 4.62273 16.2656 4.37916 16.0232Z" fill="#242328"/>
<path fill-rule="evenodd" clip-rule="evenodd" d="M18.4913 7.96131C18.7337 8.20489 18.8698 8.53452 18.8698 8.87814C18.8698 9.22176 18.7337 9.5514 18.4913 9.79497L13.8492 14.4371C13.7295 14.563 13.5858 14.6635 13.4266 14.7329C13.2674 14.8023 13.0959 14.839 12.9222 14.841C12.7486 14.843 12.5763 14.8102 12.4156 14.7445C12.2548 14.6788 12.1089 14.5815 11.9863 14.4585C11.8638 14.3354 11.7671 14.1891 11.7021 14.028C11.6371 13.867 11.605 13.6946 11.6077 13.5209C11.6104 13.3473 11.6479 13.176 11.718 13.0171C11.788 12.8582 11.8892 12.7149 12.0155 12.5957L16.6577 7.95358C16.7778 7.83264 16.9206 7.73665 17.0779 7.67115C17.2353 7.60565 17.4041 7.57193 17.5745 7.57193C17.7449 7.57193 17.9137 7.60565 18.071 7.67115C18.2284 7.73665 18.3712 7.83264 18.4913 7.95358" fill="#A573FF"/>
</g>
<defs>
<clipPath id="clip0">
<rect width="24" height="24" fill="white"/>
</clipPath>
</defs>
</svg>
