<svg width="24" height="24" viewBox="0 0 24 24" fill="none" xmlns="http://www.w3.org/2000/svg">
<path d="M11.9998 23.9996C18.6271 23.9996 23.9996 18.6271 23.9996 11.9998C23.9996 5.37249 18.6271 0 11.9998 0C5.37249 0 0 5.37249 0 11.9998C0 18.6271 5.37249 23.9996 11.9998 23.9996Z" fill="url(#paint0_linear)"/>
<path fill-rule="evenodd" clip-rule="evenodd" d="M11.5653 4.32898C10.8685 4.40928 10.2207 4.72718 9.73091 5.22917C9.36315 5.59329 9.01481 5.96712 8.64219 6.33488C8.45568 6.52625 8.26715 6.71236 8.07862 6.9013C7.89008 7.09023 7.68213 7.2909 7.48631 7.48915C7.2905 7.68739 7.12786 7.86136 6.94661 8.04545C6.6634 8.32865 6.3802 8.61186 6.09699 8.89789C5.87973 9.12244 5.66733 9.35426 5.4525 9.5784C5.32586 9.71231 5.18952 9.83652 5.07017 9.97731C4.57762 10.5782 4.30842 11.3312 4.30835 12.1082C4.30835 12.1539 4.30835 12.2009 4.31118 12.2462C4.32125 12.6924 4.43836 13.1296 4.65265 13.521C4.77463 13.7576 4.9159 13.9837 5.07503 14.1971C5.18022 14.3451 5.25668 14.3427 5.39505 14.2282C5.42148 14.2062 5.44623 14.1823 5.46908 14.1566C5.60543 14.013 5.73894 13.8698 5.87771 13.7265C6.07353 13.521 6.2742 13.3159 6.47001 13.1079C6.66583 12.9 6.87823 12.671 7.08376 12.4562C7.18167 12.351 7.28605 12.2539 7.38476 12.1503C7.59474 11.9282 7.80027 11.6992 8.01024 11.4795C8.22022 11.2598 8.43303 11.0543 8.63855 10.8395C8.84408 10.6246 9.09694 10.3617 9.32836 10.123C9.55978 9.88426 9.756 9.68359 9.97083 9.4639C10.2504 9.17463 10.5227 8.87847 10.7994 8.5896C10.9714 8.4128 11.1482 8.24328 11.3201 8.06891C11.5588 7.83021 11.7809 7.59151 12.0152 7.35281C12.2494 7.1141 12.4234 6.95389 12.6241 6.74836C13.0726 6.29524 13.5205 5.83941 13.9677 5.38089C13.9965 5.35242 14.0236 5.32215 14.0486 5.29026C14.1586 5.15149 14.1679 5.12074 14.032 5.02283C13.8244 4.8593 13.6022 4.71533 13.3681 4.59277C12.9543 4.39926 12.5031 4.29899 12.0463 4.29904H12.0237C11.8711 4.29907 11.7187 4.30867 11.5673 4.32777L11.5649 4.32534L11.5653 4.32898ZM15.5176 7.26865H15.4889C15.2929 7.26872 15.0993 7.3115 14.9215 7.39402C14.7438 7.47654 14.5862 7.59681 14.4596 7.74646C14.437 7.77153 14.4131 7.79543 14.388 7.81807L13.6573 8.53458C13.4186 8.77369 13.1605 9.03383 12.9097 9.28467C12.7021 9.49222 12.4942 9.69532 12.2891 9.90327C12.0839 10.1112 11.8639 10.3426 11.6417 10.5599C11.4196 10.7772 11.1834 11.0049 10.954 11.2287L10.1395 12.05L8.62561 13.5643C7.9567 14.2359 7.28874 14.9062 6.62173 15.5751C6.49307 15.7017 6.49065 15.7183 6.62173 15.8542C6.94175 16.1779 7.26663 16.4991 7.57694 16.8252C7.76893 17.0287 8.02231 17.1637 8.2983 17.2096C8.55869 17.2619 8.82769 17.2529 9.08399 17.1833C9.27601 17.1358 9.45325 17.0414 9.59983 16.9086L10.3928 16.1427C10.5789 15.9639 10.7678 15.7871 10.9515 15.6054C11.3193 15.2413 11.6822 14.8747 12.05 14.513C12.3485 14.2193 12.6544 13.928 12.9574 13.6343L14.2007 12.4226C14.5875 12.0427 14.9767 11.6608 15.3683 11.2809C15.3944 11.2421 15.4306 11.2112 15.4731 11.1915C15.5155 11.1719 15.5625 11.1642 15.609 11.1695C15.6555 11.1747 15.6996 11.1925 15.7366 11.2211C15.7737 11.2496 15.8022 11.2878 15.819 11.3314C16.0181 11.6222 16.1246 11.9663 16.1245 12.3186C16.1244 12.3789 16.1213 12.4391 16.1152 12.4991C16.0831 12.8543 15.9365 13.1894 15.6976 13.4543C15.4108 13.7626 15.1053 14.0539 14.8076 14.35C14.5952 14.56 14.3779 14.7655 14.1651 14.9779C13.8904 15.2502 13.6205 15.5273 13.3458 15.7996C13.3054 15.8449 13.2673 15.8927 13.2244 15.9355L12.9546 16.2151C12.7523 16.4174 12.5464 16.614 12.3477 16.8167C12.1491 17.0194 11.9209 17.2565 11.7085 17.4778C11.6895 17.4992 11.668 17.5134 11.649 17.5324C11.4099 17.7545 11.1902 17.9775 10.9633 18.2012C10.856 18.3064 10.7533 18.4136 10.6481 18.5188C10.4668 18.7029 10.2803 18.8829 10.106 19.0706C9.99874 19.1827 9.99875 19.2519 10.1254 19.3405C10.3333 19.5001 10.5546 19.6414 10.7869 19.7629C11.3646 20.0241 12.0049 20.1152 12.6326 20.0254C13.2556 19.9515 13.84 19.6852 14.3047 19.2636C14.6579 18.9533 14.9734 18.6046 15.3028 18.2704C15.5415 18.0313 15.7806 17.776 16.0359 17.53L16.7261 16.8349C16.9365 16.6225 17.144 16.4097 17.3568 16.1997C17.5696 15.9898 17.8342 15.7389 18.0729 15.5022C18.3116 15.2656 18.5507 15.0248 18.7894 14.7716C18.9798 14.5778 19.1556 14.3702 19.3154 14.1505C19.6133 13.7003 19.7994 13.1854 19.8579 12.6487C19.8903 12.3822 19.8903 12.1126 19.8579 11.8461C19.7869 11.3717 19.615 10.9181 19.3538 10.5158C19.166 10.2312 18.9412 9.97267 18.6854 9.74711C18.024 9.09047 17.3645 8.42899 16.7176 7.75779C16.5766 7.60077 16.4041 7.47518 16.2114 7.38916C16.0186 7.30315 15.81 7.25865 15.5989 7.25854H15.59L15.5184 7.26825L15.5176 7.26865Z" fill="white"/>
<defs>
<linearGradient id="paint0_linear" x1="1.63512" y1="5.03499" x2="20.8941" y2="18.2122" gradientUnits="userSpaceOnUse">
<stop stop-color="#FF3B3B"/>
<stop offset="1" stop-color="#FF9914"/>
</linearGradient>
</defs>
</svg>
