<svg width="24" height="24" viewBox="0 0 24 24" fill="none" xmlns="http://www.w3.org/2000/svg">
<g clip-path="url(#clip0)">
<path fill-rule="evenodd" clip-rule="evenodd" d="M21.7688 9.6853C20.5792 8.55974 18.8993 7.62213 16.7196 7.0268H16.707C11.5202 5.61565 9.67223 8.95348 13.8721 11.0576C18.6399 13.4431 19.3025 17.35 16.6114 19.7933C15.9258 20.4148 13.6978 21.5782 11.6483 21.8575C8.39338 22.309 4.78152 21.617 1.84583 20.6847C3.44253 21.9249 5.26723 22.8396 7.21637 23.3768C11.7932 24.6367 17.3212 23.7086 20.9845 20.524C24.6741 17.3122 25.0269 12.7596 21.7688 9.6853ZM16.7217 7.02785L16.7689 7.0415L16.7217 7.02785Z" fill="#008DD0"/>
<path fill-rule="evenodd" clip-rule="evenodd" d="M6.74917 2.15496C9.27529 1.12532 12.0273 0.776311 14.7305 1.14276C17.4336 1.50922 19.9934 2.57831 22.1542 4.24333C16.6734 2.50039 12.4211 2.65159 9.63132 3.774L9.59037 3.7908C6.14545 5.19984 4.95164 8.08409 6.45098 10.6922C7.2584 12.0981 8.68215 13.1491 10.1258 13.8704C13.9435 15.7824 12.7696 18.7107 8.63595 18.1753C8.17717 18.1141 7.7232 18.0211 7.2773 17.897C-0.839942 15.6805 -2.02745 8.78756 3.01446 4.40397C4.12747 3.45437 5.38925 2.69453 6.74917 2.15496Z" fill="#008DD0"/>
</g>
<defs>
<clipPath id="clip0">
<rect width="24" height="24" fill="white"/>
</clipPath>
</defs>
</svg>
