<svg width="24" height="24" viewBox="0 0 24 24" fill="none" xmlns="http://www.w3.org/2000/svg">
<path d="M12 24C18.6274 24 24 18.6274 24 12C24 5.37258 18.6274 0 12 0C5.37258 0 0 5.37258 0 12C0 18.6274 5.37258 24 12 24Z" fill="white"/>
<path d="M17.6335 15.5429C17.4686 15.5356 17.305 15.5112 17.1452 15.4703C15.9182 15.147 15.4237 13.9791 15.4237 13.9791C15.202 13.5296 15.0865 12.9552 15.0367 12.3517H16.8858V10.4175H15.053C15.0976 9.87078 15.1636 9.39562 15.2134 9.08404C15.2647 8.75099 15.3981 8.43594 15.6014 8.16726C16.8149 6.57856 19.0309 7.30271 19.0309 7.30271V5.29695C15.7761 5.0936 14.4706 6.68784 14.3675 6.82133L14.3516 6.84104C13.531 7.80934 13.2485 9.27182 13.162 10.4151H12.0498V5.11055H10.1157V10.4175H8.39382V4.82767H6.45999V10.4175H4.45422V12.3517H6.45999V20.0877H8.39382V12.3517H10.1157V16.4324H12.0498V12.3517H13.1717C13.3878 15.2144 15.1633 16.3612 15.1633 16.3612C16.6728 17.4225 19.4321 17.0452 19.4321 17.0452V15.5357C19.1987 15.6135 18.0339 15.562 17.6335 15.5429Z" fill="url(#paint0_linear)"/>
<path d="M12.0239 1.10662C11.9024 1.17411 11.77 1.21998 11.6328 1.24218C11.6328 1.24218 11.6978 1.10662 11.8935 1.09175C11.8935 1.09175 11.5875 0.986272 11.4519 0.830653C11.4519 0.830653 11.713 0.85071 11.9084 0.996301C11.9084 0.996301 11.6176 0.77048 11.5927 0.408405C11.5927 0.408405 11.9136 0.694399 11.9886 0.970019C11.9886 0.970019 11.8735 0.584082 12.0488 0.237915C12.0488 0.237915 12.1895 0.608981 12.074 0.975206C12.1812 0.762429 12.3398 0.579742 12.5354 0.443679C12.5354 0.443679 12.5053 0.754918 12.1795 1.00011C12.33 0.925919 12.4935 0.881643 12.6609 0.869731C12.6609 0.869731 12.4302 1.08068 12.1591 1.10558C12.2687 1.11095 12.3716 1.15973 12.4451 1.24114C12.4451 1.24114 12.1643 1.23146 12.0239 1.10662ZM14.3592 1.41405C14.2252 1.45118 14.0857 1.46475 13.947 1.45417C13.947 1.45417 14.0421 1.33797 14.2358 1.3691C14.2358 1.3691 13.9629 1.19619 13.8678 1.01221C13.8678 1.01221 14.1168 1.09279 14.2728 1.27987C14.2728 1.27987 14.0428 0.992497 14.103 0.635264C14.103 0.635264 14.3482 0.988347 14.3568 1.27434C14.3568 1.27434 14.335 0.871806 14.5868 0.576474C14.5868 0.576474 14.6362 0.970019 14.4384 1.29924C14.5924 1.11729 14.7894 0.976665 15.0114 0.890134C15.0114 0.890134 14.9094 1.18547 14.5349 1.34869C14.6987 1.31184 14.868 1.30715 15.0336 1.33486C15.0336 1.33486 14.76 1.48564 14.4906 1.44656C14.5959 1.47732 14.6845 1.54876 14.7369 1.64506C14.7369 1.64506 14.4664 1.56898 14.3592 1.41405ZM16.837 2.21117C16.6987 2.22033 16.5598 2.20547 16.4265 2.16725C16.4265 2.16725 16.5431 2.0725 16.7267 2.14201C16.7267 2.14201 16.4943 1.91653 16.438 1.71838C16.438 1.71838 16.6655 1.84737 16.7807 2.06212C16.7807 2.06212 16.6133 1.73428 16.744 1.39676C16.744 1.39676 16.9131 1.79169 16.864 2.07353C16.864 2.07353 16.9238 1.6748 17.2295 1.43619C17.2295 1.43619 17.1991 1.83181 16.9391 2.11434C17.1265 1.96711 17.3477 1.86904 17.5826 1.82904C17.5826 1.82904 17.4232 2.09774 17.0238 2.18178C17.1916 2.1785 17.3585 2.20786 17.5152 2.26823C17.5152 2.26823 17.2167 2.36091 16.9619 2.26823C17.0588 2.3196 17.1312 2.40747 17.1631 2.51238C17.1631 2.51238 16.9107 2.38408 16.837 2.21117ZM18.7878 3.57717C18.6505 3.55408 18.5183 3.50727 18.397 3.43884C18.397 3.43884 18.5323 3.37313 18.6951 3.48276C18.6951 3.48276 18.5205 3.21025 18.5108 3.00414C18.5108 3.00414 18.7031 3.18189 18.766 3.41913C18.766 3.41913 18.6782 3.06155 18.8826 2.76206C18.8826 2.76206 18.9566 3.18535 18.8445 3.44852C18.8445 3.44852 18.9939 3.074 19.3463 2.91181C19.3463 2.91181 19.226 3.28979 18.9082 3.50523C19.1243 3.40501 19.362 3.36021 19.5998 3.37486C19.5998 3.37486 19.383 3.59999 18.9749 3.59031C19.1397 3.62575 19.296 3.69281 19.4352 3.78777C19.4352 3.78777 19.124 3.80956 18.8954 3.6612C18.9773 3.73364 19.027 3.83565 19.0337 3.94477C19.0337 3.94477 18.8203 3.76253 18.7878 3.57717ZM20.3748 5.20841C20.2438 5.162 20.1219 5.0932 20.0144 5.00506C20.0144 5.00506 20.159 4.96426 20.2997 5.10085C20.2997 5.10085 20.1763 4.80172 20.2033 4.59734C20.2033 4.59734 20.3606 4.80483 20.3814 5.04898C20.3814 5.04898 20.3578 4.68137 20.612 4.42374C20.612 4.42374 20.6099 4.85359 20.4533 5.09256C20.4533 5.09256 20.6663 4.75054 21.0412 4.65302C21.0412 4.65302 20.8558 5.00402 20.5052 5.15964C20.7356 5.09906 20.9775 5.09704 21.2089 5.15377C21.2089 5.15377 20.9561 5.33705 20.556 5.25544C20.7108 5.31916 20.8518 5.41243 20.971 5.53002C20.971 5.53002 20.6597 5.49544 20.4623 5.31008C20.5309 5.39565 20.5625 5.50507 20.5501 5.61405C20.5501 5.61405 20.3738 5.39688 20.3748 5.20841ZM21.5814 6.80575C21.461 6.73612 21.3537 6.646 21.2642 6.53947C21.2642 6.53947 21.414 6.52598 21.5274 6.6861C21.5274 6.6861 21.4607 6.36933 21.5246 6.17359C21.5246 6.17359 21.6412 6.40771 21.6166 6.65013C21.6166 6.65013 21.6612 6.2846 21.9583 6.0778C21.9583 6.0778 21.8777 6.50005 21.6796 6.70616C21.6796 6.70616 21.9517 6.40875 22.3387 6.38178C22.3387 6.38178 22.0925 6.69302 21.719 6.78189C21.9562 6.76473 22.1939 6.80705 22.4106 6.905C22.4106 6.905 22.1284 7.03884 21.7501 6.88495C21.891 6.97592 22.0129 7.09336 22.1091 7.23077C22.1091 7.23077 21.8099 7.14085 21.6495 6.91953C21.7012 7.01629 21.7122 7.1297 21.6799 7.23457C21.6799 7.23457 21.5447 6.99077 21.5814 6.80575ZM22.4701 9.02593C22.3674 8.93238 22.2817 8.82168 22.217 8.69878C22.217 8.69878 22.366 8.71711 22.4428 8.89763C22.4428 8.89763 22.4449 8.57394 22.5486 8.39584C22.5486 8.39584 22.6133 8.64967 22.5379 8.87999C22.5379 8.87999 22.6586 8.53209 22.9927 8.39273C22.9927 8.39273 22.8246 8.78835 22.5874 8.94812C22.5874 8.94812 22.9162 8.71503 23.3004 8.77071C23.3004 8.77071 22.9937 9.02247 22.6088 9.03042C22.8448 9.06375 23.0688 9.15552 23.2603 9.2974C23.2603 9.2974 22.956 9.36864 22.6188 9.13832C22.737 9.25744 22.831 9.39838 22.8955 9.5533C22.8955 9.5533 22.6219 9.40218 22.5116 9.15353C22.5416 9.25906 22.5283 9.37221 22.4746 9.46789C22.4746 9.46789 22.3965 9.19884 22.4701 9.02593ZM22.8242 11.1942C22.7512 11.0759 22.6994 10.9458 22.671 10.8097C22.671 10.8097 22.8094 10.8685 22.8336 11.0632C22.8336 11.0632 22.9245 10.7519 23.0757 10.6105C23.0757 10.6105 23.0674 10.8719 22.9311 11.0739C22.9311 11.0739 23.1431 10.773 23.5027 10.7315C23.5027 10.7315 23.232 11.0652 22.9598 11.1531C22.9598 11.1531 23.3402 11.0199 23.694 11.1797C23.694 11.1797 23.3298 11.3367 22.9588 11.2385C23.1768 11.3354 23.367 11.4855 23.5121 11.6749C23.5121 11.6749 23.2008 11.659 22.9397 11.3447C23.0207 11.4917 23.0725 11.6531 23.0923 11.8198C23.0923 11.8198 22.8713 11.5988 22.8336 11.3294C22.8334 11.4391 22.7895 11.5442 22.7115 11.6213C22.7115 11.6213 22.7053 11.3402 22.8242 11.1942ZM22.6565 13.6945C22.6211 13.56 22.6094 13.4204 22.6219 13.2819C22.6219 13.2819 22.7371 13.3788 22.7032 13.5721C22.7032 13.5721 22.881 13.3017 23.0653 13.209C23.0653 13.209 22.9812 13.4566 22.7921 13.6101C22.7921 13.6101 23.0826 13.384 23.4388 13.449C23.4388 13.449 23.0822 13.6893 22.7962 13.6942C22.7962 13.6942 23.1991 13.6779 23.491 13.9335C23.491 13.9335 23.0967 13.9777 22.7703 13.7754C22.9498 13.9325 23.0872 14.1318 23.1701 14.3554C23.1701 14.3554 22.8761 14.2496 22.7205 13.8712C22.7551 14.0355 22.7576 14.205 22.7278 14.3702C22.7278 14.3702 22.5808 14.0936 22.624 13.8259C22.5914 13.9302 22.5188 14.0172 22.4221 14.068C22.4221 14.068 22.5002 13.801 22.6565 13.6945ZM21.9832 16.2149C21.9635 16.0768 21.9681 15.9364 21.9967 15.7999C21.9967 15.7999 22.1004 15.9092 22.0441 16.0973C22.0441 16.0973 22.2516 15.8493 22.4452 15.7784C22.4452 15.7784 22.3332 16.015 22.1274 16.1454C22.1274 16.1454 22.4425 15.9545 22.7886 16.0603C22.7886 16.0603 22.4082 16.2577 22.1222 16.2294C22.1222 16.2294 22.5241 16.2598 22.7845 16.5475C22.7845 16.5475 22.3878 16.5475 22.0869 16.3072C22.2476 16.4838 22.3616 16.6978 22.4186 16.9297C22.4186 16.9297 22.1388 16.7913 22.0261 16.3981C22.0414 16.5653 22.0243 16.7338 21.9756 16.8944C21.9756 16.8944 21.8615 16.6036 21.9348 16.3411C21.8908 16.4415 21.8085 16.5202 21.7062 16.5596C21.7062 16.5596 21.8158 16.301 21.9832 16.2149ZM20.8911 18.0941C20.9191 17.9578 20.9706 17.8274 21.0433 17.7088C21.0433 17.7088 21.1034 17.8471 20.9876 18.0048C20.9876 18.0048 21.2667 17.8416 21.4717 17.8402C21.4717 17.8402 21.2864 18.0249 21.0484 18.0785C21.0484 18.0785 21.4095 18.0048 21.6996 18.2213C21.6996 18.2213 21.2736 18.2784 21.0152 18.1556C21.0152 18.1556 21.3832 18.3199 21.5312 18.6788C21.5312 18.6788 21.1581 18.5433 20.9558 18.2168C21.0477 18.4369 21.0834 18.6764 21.0595 18.9137C21.0595 18.9137 20.8434 18.6878 20.8697 18.2805C20.8275 18.4427 20.7545 18.5954 20.6546 18.73C20.6546 18.73 20.6452 18.4188 20.8026 18.1957C20.7272 18.2755 20.6231 18.3218 20.5135 18.3244C20.5135 18.3244 20.7044 18.1186 20.8911 18.0941ZM19.366 19.9719C19.4025 19.8377 19.4621 19.711 19.542 19.5973C19.542 19.5973 19.5936 19.7384 19.468 19.8892C19.468 19.8892 19.7568 19.7433 19.9626 19.7547C19.9626 19.7547 19.7665 19.9276 19.5258 19.9663C19.5258 19.9663 19.8903 19.9155 20.1666 20.1493C20.1666 20.1493 19.7378 20.1797 19.4878 20.0414C19.4878 20.0414 19.845 20.2281 19.9719 20.5947C19.9719 20.5947 19.6081 20.4363 19.4262 20.0981C19.504 20.3234 19.5243 20.5646 19.4853 20.7998C19.4853 20.7998 19.2834 20.5611 19.3349 20.1562C19.2832 20.3158 19.2009 20.4639 19.0928 20.5923C19.0928 20.5923 19.1029 20.281 19.2737 20.0683C19.1936 20.1432 19.0869 20.1829 18.9773 20.1787C18.9773 20.1787 19.1776 19.985 19.366 19.9719ZM17.7535 21.1988C17.8141 21.0737 17.896 20.9601 17.9955 20.863C17.9955 20.863 18.0201 21.0114 17.8686 21.1362C17.8686 21.1362 18.1799 21.0467 18.3797 21.0961C18.3797 21.0961 18.1546 21.2296 17.9112 21.2227C17.9112 21.2227 18.2788 21.2403 18.507 21.5215C18.507 21.5215 18.0799 21.472 17.86 21.2894C17.86 21.2894 18.1761 21.5391 18.2314 21.9233C18.2314 21.9233 17.9032 21.7003 17.787 21.3354C17.8217 21.5712 17.797 21.8119 17.7151 22.0357C17.7151 22.0357 17.5608 21.7639 17.6867 21.3756C17.6061 21.5227 17.4977 21.6529 17.3675 21.7587C17.3675 21.7587 17.4367 21.4537 17.6425 21.2777C17.5499 21.3361 17.438 21.3554 17.3312 21.3313C17.3312 21.3313 17.5678 21.1771 17.7535 21.1988ZM15.6924 22.2048C15.7695 22.0892 15.8663 21.988 15.9784 21.9057C15.9784 21.9057 15.9825 22.0558 15.8151 22.1585C15.8151 22.1585 16.1357 22.1125 16.3269 22.1889C16.3269 22.1889 16.0849 22.2903 15.8456 22.2501C15.8456 22.2501 16.2073 22.3193 16.3947 22.6278C16.3947 22.6278 15.9797 22.5202 15.7854 22.3093C15.7854 22.3093 16.0648 22.6001 16.0665 22.9881C16.0665 22.9881 15.7723 22.7222 15.7072 22.3439C15.7092 22.5821 15.6517 22.8171 15.5399 23.0275C15.5399 23.0275 15.4247 22.7374 15.6021 22.3705C15.5021 22.5052 15.3769 22.6193 15.2335 22.7063C15.2335 22.7063 15.3424 22.4137 15.572 22.2674C15.4722 22.3128 15.3585 22.3165 15.2559 22.2778C15.2559 22.2778 15.5101 22.1575 15.6924 22.2048ZM13.3449 22.8733C13.4443 22.7761 13.5598 22.6969 13.6863 22.6392C13.6863 22.6392 13.6593 22.7868 13.4746 22.8532C13.4746 22.8532 13.7976 22.8737 13.9695 22.9878C13.9695 22.9878 13.7125 23.0376 13.4853 22.9494C13.4853 22.9494 13.8256 23.0898 13.9456 23.4311C13.9456 23.4311 13.56 23.2406 13.4144 22.9947C13.4144 22.9947 13.6282 23.3364 13.5507 23.7168C13.5507 23.7168 13.3169 23.3962 13.3308 23.0123C13.2841 23.2461 13.1797 23.4644 13.0271 23.6476C13.0271 23.6476 12.9735 23.3395 13.2229 23.0161C13.0974 23.1277 12.9514 23.2138 12.793 23.2696C12.793 23.2696 12.9597 23.0054 13.2142 22.9093C13.1073 22.9333 12.9953 22.9136 12.903 22.8546C12.903 22.8546 13.1758 22.7896 13.3449 22.8733ZM10.5362 22.8221C10.6624 22.7639 10.7978 22.7281 10.9363 22.7163C10.9363 22.7163 10.8612 22.8463 10.6652 22.847C10.6652 22.847 10.9626 22.9746 11.086 23.1399C11.086 23.1399 10.8274 23.1005 10.643 22.9407C10.643 22.9407 10.9166 23.1877 10.9145 23.5494C10.9145 23.5494 10.6157 23.2406 10.5611 22.9598C10.5611 22.9598 10.6475 23.3537 10.4466 23.686C10.4466 23.686 10.3342 23.3056 10.4767 22.949C10.3539 23.1533 10.1822 23.3237 9.97698 23.4449C9.97698 23.4449 10.0289 23.1354 10.3747 22.9158C10.2191 22.9785 10.0528 23.0105 9.88499 23.0099C9.88499 23.0099 10.1305 22.8169 10.4037 22.8121C10.2943 22.799 10.1947 22.7427 10.1271 22.6558C10.1271 22.6558 10.4055 22.6859 10.5362 22.8221ZM8.25029 22.2709C8.38916 22.2653 8.52795 22.2839 8.66044 22.3259C8.66044 22.3259 8.54147 22.4175 8.35992 22.3432C8.35992 22.3432 8.58574 22.5745 8.63657 22.7744C8.63657 22.7744 8.41248 22.6392 8.3032 22.4213C8.3032 22.4213 8.46159 22.7537 8.32188 23.0877C8.32188 23.0877 8.16349 22.6879 8.22021 22.4078C8.22021 22.4078 8.15104 22.8045 7.83738 23.0348C7.83738 23.0348 7.87888 22.6402 8.14655 22.3649C7.95509 22.5069 7.73129 22.5989 7.49536 22.6326C7.49536 22.6326 7.6617 22.3681 8.06355 22.2951C7.89574 22.2937 7.72979 22.2598 7.5749 22.1951C7.5749 22.1951 7.87542 22.1108 8.12822 22.21C8.03272 22.1561 7.96264 22.0664 7.93352 21.9607C7.93352 21.9607 8.18113 22.0956 8.25029 22.2709ZM6.13802 21.1643C6.27675 21.1735 6.41283 21.2067 6.54021 21.2625C6.54021 21.2625 6.41191 21.341 6.23934 21.2476C6.23934 21.2476 6.43957 21.5018 6.46931 21.7058C6.46931 21.7058 6.26182 21.5478 6.17502 21.3195C6.17502 21.3195 6.29744 21.6654 6.12315 21.9842C6.12315 21.9842 6.00799 21.5692 6.0941 21.2974C6.0941 21.2974 5.98205 21.6844 5.64695 21.8801C5.64695 21.8801 5.72995 21.4921 6.02528 21.2469C5.81983 21.3679 5.58745 21.4356 5.3492 21.444C5.3492 21.444 5.54286 21.1988 5.95023 21.1674C5.78346 21.1482 5.62198 21.0969 5.47473 21.0162C5.47473 21.0162 5.78286 20.964 6.02424 21.0896C5.93492 21.0259 5.87478 20.9291 5.85721 20.8209C5.85721 20.8209 6.08649 20.983 6.13802 21.1643ZM4.29825 19.559C4.43532 19.5821 4.56731 19.6289 4.68833 19.6973C4.68833 19.6973 4.55277 19.7623 4.39058 19.652C4.39058 19.652 4.56349 19.9252 4.57214 20.1313C4.57214 20.1313 4.38124 19.9525 4.31934 19.7163C4.31934 19.7163 4.40545 20.0742 4.19934 20.3734C4.19934 20.3734 4.12741 19.9497 4.24084 19.6873C4.24084 19.6873 4.08972 20.0611 3.73629 20.2215C3.73629 20.2215 3.85871 19.8439 4.17755 19.6302C3.96111 19.7292 3.7234 19.7727 3.48591 19.7568C3.48591 19.7568 3.70378 19.533 4.11185 19.5448C3.94798 19.5086 3.79271 19.441 3.65467 19.3456C3.65467 19.3456 3.96591 19.3255 4.19346 19.4749C4.11131 19.4024 4.06152 19.3001 4.05513 19.1907C4.05513 19.1907 4.26678 19.3732 4.29825 19.559ZM2.94539 17.8962C3.06572 17.9658 3.17303 18.0558 3.26251 18.1622C3.26251 18.1622 3.11277 18.176 2.99934 18.0159C2.99934 18.0159 3.06643 18.3323 3.00245 18.5284C3.00245 18.5284 2.88557 18.2943 2.90977 18.0519C2.90977 18.0519 2.86585 18.4174 2.56879 18.6245C2.56879 18.6245 2.64902 18.2023 2.84545 17.9958C2.84545 17.9958 2.57329 18.2932 2.18632 18.3206C2.18632 18.3206 2.43254 18.0093 2.80603 17.9201C2.56889 17.9375 2.33116 17.8954 2.11438 17.7977C2.11438 17.7977 2.39657 17.6635 2.7749 17.8171C2.63398 17.726 2.51197 17.6086 2.4156 17.4712C2.4156 17.4712 2.71508 17.5608 2.87554 17.7804C2.82382 17.6838 2.81286 17.5705 2.84511 17.4657C2.84511 17.4657 2.98067 17.7112 2.94539 17.8962ZM1.91381 15.9987C2.02943 16.0757 2.13077 16.1723 2.21329 16.284C2.21329 16.284 2.06286 16.2885 1.9598 16.1215C1.9598 16.1215 2.00649 16.4417 1.93075 16.6333C1.93075 16.6333 1.82701 16.3912 1.86816 16.1519C1.86816 16.1519 1.80107 16.514 1.49191 16.7021C1.49191 16.7021 1.59842 16.2871 1.80902 16.0921C1.80902 16.0921 1.51888 16.3719 1.13087 16.375C1.13087 16.375 1.39611 16.0796 1.77444 16.0139C1.53607 16.0167 1.30079 15.9597 1.09006 15.8483C1.09006 15.8483 1.38021 15.7321 1.74712 15.9092C1.61214 15.8094 1.49776 15.6845 1.41029 15.5412C1.41029 15.5412 1.70355 15.6494 1.85018 15.8784C1.80453 15.7787 1.80055 15.6649 1.83911 15.5623C1.83911 15.5623 1.96084 15.8165 1.91381 15.9987ZM1.31415 13.8328C1.40363 13.9395 1.47385 14.061 1.52165 14.1918C1.52165 14.1918 1.3764 14.1531 1.32487 13.9639C1.32487 13.9639 1.27888 14.2841 1.15196 14.4463C1.15196 14.4463 1.12291 14.1866 1.22874 13.967C1.22874 13.967 1.0617 14.2952 0.711733 14.3875C0.711733 14.3875 0.932367 14.0185 1.18931 13.893C1.18931 13.893 0.831388 14.0787 0.458592 13.9712C0.458592 13.9712 0.796806 13.7637 1.17825 13.8083C0.947602 13.7429 0.737112 13.6205 0.566143 13.4524C0.566143 13.4524 0.877382 13.4234 1.17998 13.6976C1.07857 13.5634 1.00432 13.4107 0.961416 13.2481C0.961416 13.2481 1.21145 13.4351 1.28718 13.6976C1.2718 13.589 1.3003 13.4788 1.36637 13.3912C1.36637 13.3912 1.40926 13.67 1.31415 13.8328ZM1.12464 11.5328C1.19172 11.6546 1.23701 11.7872 1.25848 11.9246C1.25848 11.9246 1.12326 11.8585 1.10908 11.6632C1.10908 11.6632 1.00222 11.9685 0.846258 12.103C0.846258 12.103 0.867353 11.8426 1.01364 11.6476C1.01364 11.6476 0.786777 11.9374 0.425739 11.9609C0.425739 11.9609 0.713117 11.641 0.989428 11.567C0.989428 11.567 0.6028 11.6808 0.257324 11.5037C0.257324 11.5037 0.629082 11.3654 0.994961 11.4819C0.78247 11.3739 0.60035 11.2145 0.465163 11.0182C0.465163 11.0182 0.776402 11.0497 1.01848 11.3768C0.945299 11.2254 0.902309 11.0612 0.891906 10.8934C0.891906 10.8934 1.10147 11.1251 1.12534 11.3958C1.13149 11.2861 1.1813 11.1833 1.26366 11.1105C1.26366 11.1105 1.25052 11.3927 1.12464 11.5328ZM1.5424 9.12691C1.59119 9.25714 1.61694 9.39487 1.61848 9.53394C1.61848 9.53394 1.49433 9.44956 1.50816 9.25382C1.50816 9.25382 1.35911 9.54086 1.18516 9.65186C1.18516 9.65186 1.24361 9.39699 1.41617 9.22477C1.41617 9.22477 1.15023 9.4793 0.789197 9.45094C0.789197 9.45094 1.11911 9.17428 1.40338 9.14178C1.40338 9.14178 1.0043 9.19884 0.687872 8.9744C0.687872 8.9744 1.07554 8.89002 1.42067 9.05809C1.22603 8.92065 1.06867 8.73691 0.9628 8.52345C0.9628 8.52345 1.26609 8.59884 1.46113 8.9578C1.40994 8.79792 1.39021 8.62963 1.40303 8.46224C1.40303 8.46224 1.57594 8.72126 1.56245 8.99307C1.58362 8.88545 1.64702 8.7908 1.73848 8.73025C1.73848 8.73025 1.68695 9.00656 1.5424 9.12691ZM2.47335 6.76771C2.4774 6.90675 2.45716 7.04543 2.41352 7.17751C2.41352 7.17751 2.32326 7.05717 2.40003 6.87665C2.40003 6.87665 2.16557 7.10005 1.96534 7.14881C1.96534 7.14881 2.10366 6.92645 2.32222 6.81959C2.32222 6.81959 1.98816 6.97417 1.65583 6.83031C1.65583 6.83031 2.05732 6.67676 2.33675 6.73659C2.33675 6.73659 1.94078 6.66155 1.71427 6.3465C1.71427 6.3465 2.10816 6.3925 2.38032 6.66328C2.2406 6.47018 2.15122 6.2453 2.12026 6.00898C2.12026 6.00898 2.38274 6.17878 2.45121 6.58132C2.4544 6.41348 2.49022 6.24786 2.55669 6.09371C2.55669 6.09371 2.63761 6.39561 2.5356 6.64702C2.59055 6.55224 2.68104 6.48328 2.78701 6.45544C2.78701 6.45544 2.64902 6.70062 2.47335 6.76771ZM3.88015 4.84668C3.8554 4.98348 3.80694 5.1149 3.73698 5.23503C3.73698 5.23503 3.67369 5.09878 3.78574 4.93797C3.78574 4.93797 3.50908 5.10777 3.30436 5.114C3.30436 5.114 3.48522 4.92518 3.72176 4.86604C3.72176 4.86604 3.3628 4.948 3.06747 4.73843C3.06747 4.73843 3.49214 4.67134 3.75323 4.78789C3.75323 4.78789 3.38113 4.63227 3.22482 4.27745C3.22482 4.27745 3.60107 4.40402 3.81271 4.72529C3.71594 4.50744 3.67505 4.26888 3.69375 4.03123C3.69375 4.03123 3.91542 4.25152 3.89882 4.65959C3.9369 4.49611 4.00631 4.34156 4.1032 4.20449C4.1032 4.20449 4.1198 4.51573 3.96764 4.74189C4.04118 4.66051 4.14408 4.61174 4.25364 4.60633C4.25364 4.60633 4.0662 4.81728 3.88015 4.84668ZM5.48787 3.26593C5.4349 3.39449 5.35988 3.5128 5.2662 3.61555C5.2662 3.61555 5.23162 3.46892 5.37652 3.33544C5.37652 3.33544 5.0715 3.44368 4.86885 3.4046C4.86885 3.4046 5.08534 3.25797 5.32879 3.24967C5.32879 3.24967 4.96084 3.25451 4.716 2.98754C4.716 2.98754 5.14551 3.0114 5.37617 3.18016C5.37617 3.18016 5.04522 2.94985 4.96706 2.56979C4.96706 2.56979 5.30804 2.77279 5.44603 3.13106C5.39711 2.89778 5.40733 2.65597 5.47577 2.42766C5.47577 2.42766 5.64591 2.68979 5.54493 3.08472C5.61644 2.93291 5.71674 2.79644 5.84026 2.68287C5.84026 2.68287 5.79116 2.99134 5.59473 3.17947C5.6838 3.1155 5.79467 3.08961 5.90286 3.10754C5.90286 3.10754 5.676 3.27665 5.48787 3.26593ZM7.23358 2.14408C7.16652 2.26589 7.07889 2.37517 6.97456 2.46708C6.97456 2.46708 6.95761 2.31768 7.11496 2.2008C7.11496 2.2008 6.80026 2.2748 6.6028 2.21532C6.6028 2.21532 6.83415 2.09325 7.07692 2.11158C7.07692 2.11158 6.7107 2.07699 6.49698 1.78374C6.49698 1.78374 6.92096 1.8529 7.13156 2.0476C7.13156 2.0476 6.82793 1.78235 6.79196 1.39607C6.79196 1.39607 7.10874 1.63538 7.20695 2.00645C7.18464 1.77041 7.22124 1.53253 7.31346 1.31411C7.31346 1.31411 7.45352 1.59319 7.30897 1.97498C7.3968 1.83197 7.51154 1.70736 7.64683 1.60806C7.64683 1.60806 7.56384 1.90927 7.34804 2.07492C7.4435 2.02102 7.55648 2.00734 7.66205 2.03688C7.66205 2.03688 7.41928 2.17659 7.23358 2.14408ZM9.41675 1.39918C9.32179 1.5007 9.20993 1.58495 9.08614 1.64817C9.08614 1.64817 9.10655 1.49913 9.2881 1.42477C9.2881 1.42477 8.96441 1.41855 8.78804 1.31204C8.78804 1.31204 9.04222 1.25117 9.27219 1.32967C9.27219 1.32967 8.92637 1.20414 8.79116 0.868002C8.79116 0.868002 9.18436 1.04091 9.34067 1.28126C9.34067 1.28126 9.11242 0.948924 9.17329 0.565754C9.17329 0.565754 9.4209 0.876993 9.42332 1.25982C9.46012 1.02423 9.55522 0.801573 9.69998 0.612094C9.69998 0.612094 9.76672 0.917454 9.53191 1.25117C9.65237 1.13436 9.79436 1.04205 9.95 0.979356C9.95 0.979356 9.79577 1.25083 9.5447 1.35768C9.65057 1.32918 9.76343 1.34399 9.85836 1.39884C9.85836 1.39884 9.58897 1.47561 9.41675 1.39918Z" fill="#467A54"/>
<defs>
<linearGradient id="paint0_linear" x1="4.45492" y1="1.45061e-06" x2="19.4321" y2="1.45061e-06" gradientUnits="userSpaceOnUse">
<stop stop-color="#58B27A"/>
<stop offset="0.05" stop-color="#56AA75"/>
<stop offset="0.32" stop-color="#4A875D"/>
<stop offset="0.46" stop-color="#467A54"/>
<stop offset="1" stop-color="#466454"/>
</linearGradient>
</defs>
</svg>
