<svg width="24" height="24" viewBox="0 0 24 24" fill="none" xmlns="http://www.w3.org/2000/svg">
<path d="M7.31925 18.6385C11.3616 18.6385 14.6385 15.3616 14.6385 11.3193C14.6385 7.27694 11.3616 4 7.31925 4C3.27694 4 0 7.27694 0 11.3193C0 15.3616 3.27694 18.6385 7.31925 18.6385Z" fill="url(#paint0_linear)"/>
<path d="M6.47177 13.7954C6.7747 13.7954 7.02027 13.5498 7.02027 13.2469C7.02027 12.9439 6.7747 12.6984 6.47177 12.6984C6.16885 12.6984 5.92328 12.9439 5.92328 13.2469C5.92328 13.5498 6.16885 13.7954 6.47177 13.7954Z" fill="black"/>
<path d="M8.09146 13.7954C8.39439 13.7954 8.63996 13.5498 8.63996 13.2469C8.63996 12.9439 8.39439 12.6984 8.09146 12.6984C7.78854 12.6984 7.54297 12.9439 7.54297 13.2469C7.54297 13.5498 7.78854 13.7954 8.09146 13.7954Z" fill="black"/>
<path d="M9.71109 13.7954C10.014 13.7954 10.2596 13.5498 10.2596 13.2469C10.2596 12.9439 10.014 12.6984 9.71109 12.6984C9.40817 12.6984 9.1626 12.9439 9.1626 13.2469C9.1626 13.5498 9.40817 13.7954 9.71109 13.7954Z" fill="black"/>
<path d="M11.3318 13.7954C11.6347 13.7954 11.8803 13.5498 11.8803 13.2469C11.8803 12.9439 11.6347 12.6984 11.3318 12.6984C11.0289 12.6984 10.7833 12.9439 10.7833 13.2469C10.7833 13.5498 11.0289 13.7954 11.3318 13.7954Z" fill="black"/>
<path d="M12.9525 13.7954C13.2555 13.7954 13.501 13.5498 13.501 13.2469C13.501 12.9439 13.2555 12.6984 12.9525 12.6984C12.6496 12.6984 12.4041 12.9439 12.4041 13.2469C12.4041 13.5498 12.6496 13.7954 12.9525 13.7954Z" fill="black"/>
<path d="M14.5722 13.7954C14.8751 13.7954 15.1207 13.5498 15.1207 13.2469C15.1207 12.9439 14.8751 12.6984 14.5722 12.6984C14.2692 12.6984 14.0237 12.9439 14.0237 13.2469C14.0237 13.5498 14.2692 13.7954 14.5722 13.7954Z" fill="black"/>
<path d="M16.1929 13.7954C16.4958 13.7954 16.7414 13.5498 16.7414 13.2469C16.7414 12.9439 16.4958 12.6984 16.1929 12.6984C15.89 12.6984 15.6444 12.9439 15.6444 13.2469C15.6444 13.5498 15.89 13.7954 16.1929 13.7954Z" fill="black"/>
<path d="M17.8126 13.7954C18.1155 13.7954 18.3611 13.5498 18.3611 13.2469C18.3611 12.9439 18.1155 12.6984 17.8126 12.6984C17.5097 12.6984 17.2641 12.9439 17.2641 13.2469C17.2641 13.5498 17.5097 13.7954 17.8126 13.7954Z" fill="black"/>
<path d="M19.4322 13.7954C19.7351 13.7954 19.9807 13.5498 19.9807 13.2469C19.9807 12.9439 19.7351 12.6984 19.4322 12.6984C19.1292 12.6984 18.8837 12.9439 18.8837 13.2469C18.8837 13.5498 19.1292 13.7954 19.4322 13.7954Z" fill="black"/>
<path d="M20.3347 15.2666C20.5433 15.2666 20.7124 15.0975 20.7124 14.8889C20.7124 14.6804 20.5433 14.5113 20.3347 14.5113C20.1262 14.5113 19.9571 14.6804 19.9571 14.8889C19.9571 15.0975 20.1262 15.2666 20.3347 15.2666Z" fill="black"/>
<path d="M18.6601 15.2666C18.8686 15.2666 19.0377 15.0975 19.0377 14.8889C19.0377 14.6804 18.8686 14.5113 18.6601 14.5113C18.4515 14.5113 18.2824 14.6804 18.2824 14.8889C18.2824 15.0975 18.4515 15.2666 18.6601 15.2666Z" fill="black"/>
<path d="M16.9864 15.2666C17.195 15.2666 17.3641 15.0975 17.3641 14.8889C17.3641 14.6804 17.195 14.5113 16.9864 14.5113C16.7778 14.5113 16.6088 14.6804 16.6088 14.8889C16.6088 15.0975 16.7778 15.2666 16.9864 15.2666Z" fill="black"/>
<path d="M15.3129 15.2666C15.5215 15.2666 15.6905 15.0975 15.6905 14.8889C15.6905 14.6804 15.5215 14.5113 15.3129 14.5113C15.1043 14.5113 14.9352 14.6804 14.9352 14.8889C14.9352 15.0975 15.1043 15.2666 15.3129 15.2666Z" fill="black"/>
<path d="M13.6381 15.2666C13.8467 15.2666 14.0158 15.0975 14.0158 14.8889C14.0158 14.6804 13.8467 14.5113 13.6381 14.5113C13.4296 14.5113 13.2605 14.6804 13.2605 14.8889C13.2605 15.0975 13.4296 15.2666 13.6381 15.2666Z" fill="black"/>
<path d="M11.9635 15.2666C12.172 15.2666 12.3411 15.0975 12.3411 14.8889C12.3411 14.6804 12.172 14.5113 11.9635 14.5113C11.7549 14.5113 11.5858 14.6804 11.5858 14.8889C11.5858 15.0975 11.7549 15.2666 11.9635 15.2666Z" fill="black"/>
<path d="M10.2899 15.2666C10.4985 15.2666 10.6675 15.0975 10.6675 14.8889C10.6675 14.6804 10.4985 14.5113 10.2899 14.5113C10.0813 14.5113 9.91223 14.6804 9.91223 14.8889C9.91223 15.0975 10.0813 15.2666 10.2899 15.2666Z" fill="black"/>
<path d="M8.6152 15.2666C8.82377 15.2666 8.99285 15.0975 8.99285 14.8889C8.99285 14.6804 8.82377 14.5113 8.6152 14.5113C8.40663 14.5113 8.23755 14.6804 8.23755 14.8889C8.23755 15.0975 8.40663 15.2666 8.6152 15.2666Z" fill="black"/>
<path d="M6.94162 15.2666C7.15019 15.2666 7.31927 15.0975 7.31927 14.8889C7.31927 14.6804 7.15019 14.5113 6.94162 14.5113C6.73304 14.5113 6.56396 14.6804 6.56396 14.8889C6.56396 15.0975 6.73304 15.2666 6.94162 15.2666Z" fill="black"/>
<path d="M21.2238 16.4096C21.4262 16.4096 21.5902 16.2456 21.5902 16.0432C21.5902 15.8409 21.4262 15.6768 21.2238 15.6768C21.0215 15.6768 20.8574 15.8409 20.8574 16.0432C20.8574 16.2456 21.0215 16.4096 21.2238 16.4096Z" fill="black"/>
<path d="M19.5255 16.4096C19.7278 16.4096 19.8919 16.2456 19.8919 16.0432C19.8919 15.8409 19.7278 15.6768 19.5255 15.6768C19.3231 15.6768 19.1591 15.8409 19.1591 16.0432C19.1591 16.2456 19.3231 16.4096 19.5255 16.4096Z" fill="black"/>
<path d="M17.8272 16.4096C18.0296 16.4096 18.1936 16.2456 18.1936 16.0432C18.1936 15.8409 18.0296 15.6768 17.8272 15.6768C17.6249 15.6768 17.4608 15.8409 17.4608 16.0432C17.4608 16.2456 17.6249 16.4096 17.8272 16.4096Z" fill="black"/>
<path d="M16.13 16.4096C16.3323 16.4096 16.4964 16.2456 16.4964 16.0432C16.4964 15.8409 16.3323 15.6768 16.13 15.6768C15.9276 15.6768 15.7635 15.8409 15.7635 16.0432C15.7635 16.2456 15.9276 16.4096 16.13 16.4096Z" fill="black"/>
<path d="M14.4317 16.4096C14.6341 16.4096 14.7981 16.2456 14.7981 16.0432C14.7981 15.8409 14.6341 15.6768 14.4317 15.6768C14.2294 15.6768 14.0653 15.8409 14.0653 16.0432C14.0653 16.2456 14.2294 16.4096 14.4317 16.4096Z" fill="black"/>
<path d="M12.7334 16.4096C12.9357 16.4096 13.0998 16.2456 13.0998 16.0432C13.0998 15.8409 12.9357 15.6768 12.7334 15.6768C12.531 15.6768 12.3669 15.8409 12.3669 16.0432C12.3669 16.2456 12.531 16.4096 12.7334 16.4096Z" fill="black"/>
<path d="M11.0362 16.4096C11.2386 16.4096 11.4026 16.2456 11.4026 16.0432C11.4026 15.8409 11.2386 15.6768 11.0362 15.6768C10.8338 15.6768 10.6698 15.8409 10.6698 16.0432C10.6698 16.2456 10.8338 16.4096 11.0362 16.4096Z" fill="black"/>
<path d="M9.33785 16.4096C9.54021 16.4096 9.70426 16.2456 9.70426 16.0432C9.70426 15.8409 9.54021 15.6768 9.33785 15.6768C9.13548 15.6768 8.97144 15.8409 8.97144 16.0432C8.97144 16.2456 9.13548 16.4096 9.33785 16.4096Z" fill="black"/>
<path d="M7.63961 16.4096C7.84197 16.4096 8.00602 16.2456 8.00602 16.0432C8.00602 15.8409 7.84197 15.6768 7.63961 15.6768C7.43724 15.6768 7.27319 15.8409 7.27319 16.0432C7.27319 16.2456 7.43724 16.4096 7.63961 16.4096Z" fill="black"/>
<path d="M22.4073 17.4876C22.5619 17.4876 22.6872 17.3623 22.6872 17.2077C22.6872 17.0532 22.5619 16.9279 22.4073 16.9279C22.2527 16.9279 22.1274 17.0532 22.1274 17.2077C22.1274 17.3623 22.2527 17.4876 22.4073 17.4876Z" fill="black"/>
<path d="M20.6865 17.4876C20.8411 17.4876 20.9664 17.3623 20.9664 17.2077C20.9664 17.0532 20.8411 16.9279 20.6865 16.9279C20.532 16.9279 20.4067 17.0532 20.4067 17.2077C20.4067 17.3623 20.532 17.4876 20.6865 17.4876Z" fill="black"/>
<path d="M18.9658 17.4876C19.1203 17.4876 19.2456 17.3623 19.2456 17.2077C19.2456 17.0532 19.1203 16.9279 18.9658 16.9279C18.8112 16.9279 18.6859 17.0532 18.6859 17.2077C18.6859 17.3623 18.8112 17.4876 18.9658 17.4876Z" fill="black"/>
<path d="M17.2461 17.4876C17.4006 17.4876 17.5259 17.3623 17.5259 17.2077C17.5259 17.0532 17.4006 16.9279 17.2461 16.9279C17.0915 16.9279 16.9662 17.0532 16.9662 17.2077C16.9662 17.3623 17.0915 17.4876 17.2461 17.4876Z" fill="black"/>
<path d="M15.5253 17.4876C15.6799 17.4876 15.8052 17.3623 15.8052 17.2077C15.8052 17.0532 15.6799 16.9279 15.5253 16.9279C15.3707 16.9279 15.2454 17.0532 15.2454 17.2077C15.2454 17.3623 15.3707 17.4876 15.5253 17.4876Z" fill="black"/>
<path d="M13.8045 17.4876C13.9591 17.4876 14.0844 17.3623 14.0844 17.2077C14.0844 17.0532 13.9591 16.9279 13.8045 16.9279C13.65 16.9279 13.5247 17.0532 13.5247 17.2077C13.5247 17.3623 13.65 17.4876 13.8045 17.4876Z" fill="black"/>
<path d="M12.0837 17.4876C12.2383 17.4876 12.3636 17.3623 12.3636 17.2077C12.3636 17.0532 12.2383 16.9279 12.0837 16.9279C11.9291 16.9279 11.8038 17.0532 11.8038 17.2077C11.8038 17.3623 11.9291 17.4876 12.0837 17.4876Z" fill="black"/>
<path d="M10.3641 17.4876C10.5187 17.4876 10.644 17.3623 10.644 17.2077C10.644 17.0532 10.5187 16.9279 10.3641 16.9279C10.2095 16.9279 10.0842 17.0532 10.0842 17.2077C10.0842 17.3623 10.2095 17.4876 10.3641 17.4876Z" fill="black"/>
<path d="M8.64327 17.4876C8.79784 17.4876 8.92314 17.3623 8.92314 17.2077C8.92314 17.0532 8.79784 16.9279 8.64327 16.9279C8.4887 16.9279 8.3634 17.0532 8.3634 17.2077C8.3634 17.3623 8.4887 17.4876 8.64327 17.4876Z" fill="black"/>
<path d="M23.7853 18.4598C23.9038 18.4598 24 18.3637 24 18.2451C24 18.1266 23.9038 18.0305 23.7853 18.0305C23.6667 18.0305 23.5706 18.1266 23.5706 18.2451C23.5706 18.3637 23.6667 18.4598 23.7853 18.4598Z" fill="black"/>
<path d="M22.051 18.4598C22.1696 18.4598 22.2657 18.3637 22.2657 18.2451C22.2657 18.1266 22.1696 18.0305 22.051 18.0305C21.9325 18.0305 21.8364 18.1266 21.8364 18.2451C21.8364 18.3637 21.9325 18.4598 22.051 18.4598Z" fill="black"/>
<path d="M20.3156 18.4598C20.4342 18.4598 20.5303 18.3637 20.5303 18.2451C20.5303 18.1266 20.4342 18.0305 20.3156 18.0305C20.1971 18.0305 20.101 18.1266 20.101 18.2451C20.101 18.3637 20.1971 18.4598 20.3156 18.4598Z" fill="black"/>
<path d="M18.5814 18.4598C18.6999 18.4598 18.7961 18.3637 18.7961 18.2451C18.7961 18.1266 18.6999 18.0305 18.5814 18.0305C18.4628 18.0305 18.3667 18.1266 18.3667 18.2451C18.3667 18.3637 18.4628 18.4598 18.5814 18.4598Z" fill="black"/>
<path d="M16.8471 18.4598C16.9657 18.4598 17.0618 18.3637 17.0618 18.2451C17.0618 18.1266 16.9657 18.0305 16.8471 18.0305C16.7286 18.0305 16.6324 18.1266 16.6324 18.2451C16.6324 18.3637 16.7286 18.4598 16.8471 18.4598Z" fill="black"/>
<path d="M15.1117 18.4598C15.2303 18.4598 15.3264 18.3637 15.3264 18.2451C15.3264 18.1266 15.2303 18.0305 15.1117 18.0305C14.9931 18.0305 14.897 18.1266 14.897 18.2451C14.897 18.3637 14.9931 18.4598 15.1117 18.4598Z" fill="black"/>
<path d="M13.3774 18.4598C13.496 18.4598 13.5921 18.3637 13.5921 18.2451C13.5921 18.1266 13.496 18.0305 13.3774 18.0305C13.2588 18.0305 13.1627 18.1266 13.1627 18.2451C13.1627 18.3637 13.2588 18.4598 13.3774 18.4598Z" fill="black"/>
<path d="M11.6431 18.4598C11.7617 18.4598 11.8578 18.3637 11.8578 18.2451C11.8578 18.1266 11.7617 18.0305 11.6431 18.0305C11.5246 18.0305 11.4285 18.1266 11.4285 18.2451C11.4285 18.3637 11.5246 18.4598 11.6431 18.4598Z" fill="black"/>
<path d="M9.90779 18.4598C10.0264 18.4598 10.1225 18.3637 10.1225 18.2451C10.1225 18.1266 10.0264 18.0305 9.90779 18.0305C9.78923 18.0305 9.69312 18.1266 9.69312 18.2451C9.69312 18.3637 9.78923 18.4598 9.90779 18.4598Z" fill="black"/>
<path d="M5.68277 12.0746C5.89134 12.0746 6.06042 11.9055 6.06042 11.6969C6.06042 11.4884 5.89134 11.3193 5.68277 11.3193C5.4742 11.3193 5.30511 11.4884 5.30511 11.6969C5.30511 11.9055 5.4742 12.0746 5.68277 12.0746Z" fill="black"/>
<path d="M7.35635 12.0746C7.56492 12.0746 7.734 11.9055 7.734 11.6969C7.734 11.4884 7.56492 11.3193 7.35635 11.3193C7.14778 11.3193 6.9787 11.4884 6.9787 11.6969C6.9787 11.9055 7.14778 12.0746 7.35635 12.0746Z" fill="black"/>
<path d="M9.03109 12.0746C9.23967 12.0746 9.40875 11.9055 9.40875 11.6969C9.40875 11.4884 9.23967 11.3193 9.03109 11.3193C8.82252 11.3193 8.65344 11.4884 8.65344 11.6969C8.65344 11.9055 8.82252 12.0746 9.03109 12.0746Z" fill="black"/>
<path d="M10.7046 12.0746C10.9132 12.0746 11.0823 11.9055 11.0823 11.6969C11.0823 11.4884 10.9132 11.3193 10.7046 11.3193C10.496 11.3193 10.327 11.4884 10.327 11.6969C10.327 11.9055 10.496 12.0746 10.7046 12.0746Z" fill="black"/>
<path d="M12.3794 12.0746C12.5879 12.0746 12.757 11.9055 12.757 11.6969C12.757 11.4884 12.5879 11.3193 12.3794 11.3193C12.1708 11.3193 12.0017 11.4884 12.0017 11.6969C12.0017 11.9055 12.1708 12.0746 12.3794 12.0746Z" fill="black"/>
<path d="M14.054 12.0746C14.2626 12.0746 14.4317 11.9055 14.4317 11.6969C14.4317 11.4884 14.2626 11.3193 14.054 11.3193C13.8455 11.3193 13.6764 11.4884 13.6764 11.6969C13.6764 11.9055 13.8455 12.0746 14.054 12.0746Z" fill="black"/>
<path d="M15.7276 12.0746C15.9362 12.0746 16.1053 11.9055 16.1053 11.6969C16.1053 11.4884 15.9362 11.3193 15.7276 11.3193C15.5191 11.3193 15.35 11.4884 15.35 11.6969C15.35 11.9055 15.5191 12.0746 15.7276 12.0746Z" fill="black"/>
<path d="M17.4023 12.0746C17.6109 12.0746 17.78 11.9055 17.78 11.6969C17.78 11.4884 17.6109 11.3193 17.4023 11.3193C17.1937 11.3193 17.0247 11.4884 17.0247 11.6969C17.0247 11.9055 17.1937 12.0746 17.4023 12.0746Z" fill="black"/>
<path d="M19.0759 12.0746C19.2845 12.0746 19.4535 11.9055 19.4535 11.6969C19.4535 11.4884 19.2845 11.3193 19.0759 11.3193C18.8673 11.3193 18.6982 11.4884 18.6982 11.6969C18.6982 11.9055 18.8673 12.0746 19.0759 12.0746Z" fill="black"/>
<path d="M4.79366 10.909C4.99602 10.909 5.16007 10.7449 5.16007 10.5426C5.16007 10.3402 4.99602 10.1761 4.79366 10.1761C4.59129 10.1761 4.42725 10.3402 4.42725 10.5426C4.42725 10.7449 4.59129 10.909 4.79366 10.909Z" fill="black"/>
<path d="M6.49202 10.909C6.69438 10.909 6.85843 10.7449 6.85843 10.5426C6.85843 10.3402 6.69438 10.1761 6.49202 10.1761C6.28966 10.1761 6.12561 10.3402 6.12561 10.5426C6.12561 10.7449 6.28966 10.909 6.49202 10.909Z" fill="black"/>
<path d="M8.19033 10.909C8.39269 10.909 8.55674 10.7449 8.55674 10.5426C8.55674 10.3402 8.39269 10.1761 8.19033 10.1761C7.98796 10.1761 7.82391 10.3402 7.82391 10.5426C7.82391 10.7449 7.98796 10.909 8.19033 10.909Z" fill="black"/>
<path d="M9.88753 10.909C10.0899 10.909 10.2539 10.7449 10.2539 10.5426C10.2539 10.3402 10.0899 10.1761 9.88753 10.1761C9.68517 10.1761 9.52112 10.3402 9.52112 10.5426C9.52112 10.7449 9.68517 10.909 9.88753 10.909Z" fill="black"/>
<path d="M11.5858 10.909C11.7881 10.909 11.9522 10.7449 11.9522 10.5426C11.9522 10.3402 11.7881 10.1761 11.5858 10.1761C11.3834 10.1761 11.2194 10.3402 11.2194 10.5426C11.2194 10.7449 11.3834 10.909 11.5858 10.909Z" fill="black"/>
<path d="M13.283 10.909C13.4854 10.909 13.6494 10.7449 13.6494 10.5426C13.6494 10.3402 13.4854 10.1761 13.283 10.1761C13.0807 10.1761 12.9166 10.3402 12.9166 10.5426C12.9166 10.7449 13.0807 10.909 13.283 10.909Z" fill="black"/>
<path d="M14.9813 10.909C15.1836 10.909 15.3477 10.7449 15.3477 10.5426C15.3477 10.3402 15.1836 10.1761 14.9813 10.1761C14.7789 10.1761 14.6149 10.3402 14.6149 10.5426C14.6149 10.7449 14.7789 10.909 14.9813 10.909Z" fill="black"/>
<path d="M16.6796 10.909C16.882 10.909 17.0461 10.7449 17.0461 10.5426C17.0461 10.3402 16.882 10.1761 16.6796 10.1761C16.4773 10.1761 16.3132 10.3402 16.3132 10.5426C16.3132 10.7449 16.4773 10.909 16.6796 10.909Z" fill="black"/>
<path d="M18.3768 10.909C18.5792 10.909 18.7432 10.7449 18.7432 10.5426C18.7432 10.3402 18.5792 10.1761 18.3768 10.1761C18.1744 10.1761 18.0104 10.3402 18.0104 10.5426C18.0104 10.7449 18.1744 10.909 18.3768 10.909Z" fill="black"/>
<path d="M3.61019 9.65806C3.76476 9.65806 3.89006 9.53276 3.89006 9.37819C3.89006 9.22363 3.76476 9.09833 3.61019 9.09833C3.45562 9.09833 3.33032 9.22363 3.33032 9.37819C3.33032 9.53276 3.45562 9.65806 3.61019 9.65806Z" fill="black"/>
<path d="M5.33095 9.65806C5.48552 9.65806 5.61082 9.53276 5.61082 9.37819C5.61082 9.22363 5.48552 9.09833 5.33095 9.09833C5.17639 9.09833 5.05109 9.22363 5.05109 9.37819C5.05109 9.53276 5.17639 9.65806 5.33095 9.65806Z" fill="black"/>
<path d="M7.05172 9.65806C7.20629 9.65806 7.33159 9.53276 7.33159 9.37819C7.33159 9.22363 7.20629 9.09833 7.05172 9.09833C6.89715 9.09833 6.77185 9.22363 6.77185 9.37819C6.77185 9.53276 6.89715 9.65806 7.05172 9.65806Z" fill="black"/>
<path d="M8.77144 9.65806C8.92601 9.65806 9.05131 9.53276 9.05131 9.37819C9.05131 9.22363 8.92601 9.09833 8.77144 9.09833C8.61688 9.09833 8.49158 9.22363 8.49158 9.37819C8.49158 9.53276 8.61688 9.65806 8.77144 9.65806Z" fill="black"/>
<path d="M10.4922 9.65806C10.6468 9.65806 10.7721 9.53276 10.7721 9.37819C10.7721 9.22363 10.6468 9.09833 10.4922 9.09833C10.3376 9.09833 10.2123 9.22363 10.2123 9.37819C10.2123 9.53276 10.3376 9.65806 10.4922 9.65806Z" fill="black"/>
<path d="M12.213 9.65806C12.3675 9.65806 12.4928 9.53276 12.4928 9.37819C12.4928 9.22363 12.3675 9.09833 12.213 9.09833C12.0584 9.09833 11.9331 9.22363 11.9331 9.37819C11.9331 9.53276 12.0584 9.65806 12.213 9.65806Z" fill="black"/>
<path d="M13.9338 9.65806C14.0884 9.65806 14.2137 9.53276 14.2137 9.37819C14.2137 9.22363 14.0884 9.09833 13.9338 9.09833C13.7792 9.09833 13.6539 9.22363 13.6539 9.37819C13.6539 9.53276 13.7792 9.65806 13.9338 9.65806Z" fill="black"/>
<path d="M15.6534 9.65806C15.808 9.65806 15.9333 9.53276 15.9333 9.37819C15.9333 9.22363 15.808 9.09833 15.6534 9.09833C15.4988 9.09833 15.3735 9.22363 15.3735 9.37819C15.3735 9.53276 15.4988 9.65806 15.6534 9.65806Z" fill="black"/>
<path d="M17.3742 9.65806C17.5288 9.65806 17.6541 9.53276 17.6541 9.37819C17.6541 9.22363 17.5288 9.09833 17.3742 9.09833C17.2197 9.09833 17.0944 9.22363 17.0944 9.37819C17.0944 9.53276 17.2197 9.65806 17.3742 9.65806Z" fill="black"/>
<path d="M2.23219 8.55539C2.35076 8.55539 2.44687 8.45928 2.44687 8.34071C2.44687 8.22215 2.35076 8.12604 2.23219 8.12604C2.11363 8.12604 2.01752 8.22215 2.01752 8.34071C2.01752 8.45928 2.11363 8.55539 2.23219 8.55539Z" fill="black"/>
<path d="M3.96651 8.55539C4.08507 8.55539 4.18119 8.45928 4.18119 8.34071C4.18119 8.22215 4.08507 8.12604 3.96651 8.12604C3.84795 8.12604 3.75183 8.22215 3.75183 8.34071C3.75183 8.45928 3.84795 8.55539 3.96651 8.55539Z" fill="black"/>
<path d="M5.70076 8.55539C5.81932 8.55539 5.91544 8.45928 5.91544 8.34071C5.91544 8.22215 5.81932 8.12604 5.70076 8.12604C5.5822 8.12604 5.48608 8.22215 5.48608 8.34071C5.48608 8.45928 5.5822 8.55539 5.70076 8.55539Z" fill="black"/>
<path d="M7.43611 8.55539C7.55468 8.55539 7.65079 8.45928 7.65079 8.34071C7.65079 8.22215 7.55468 8.12604 7.43611 8.12604C7.31755 8.12604 7.22144 8.22215 7.22144 8.34071C7.22144 8.45928 7.31755 8.55539 7.43611 8.55539Z" fill="black"/>
<path d="M9.17043 8.55539C9.28899 8.55539 9.3851 8.45928 9.3851 8.34071C9.3851 8.22215 9.28899 8.12604 9.17043 8.12604C9.05186 8.12604 8.95575 8.22215 8.95575 8.34071C8.95575 8.45928 9.05186 8.55539 9.17043 8.55539Z" fill="black"/>
<path d="M10.9058 8.55539C11.0244 8.55539 11.1205 8.45928 11.1205 8.34071C11.1205 8.22215 11.0244 8.12604 10.9058 8.12604C10.7873 8.12604 10.6912 8.22215 10.6912 8.34071C10.6912 8.45928 10.7873 8.55539 10.9058 8.55539Z" fill="black"/>
<path d="M12.6401 8.55539C12.7586 8.55539 12.8548 8.45928 12.8548 8.34071C12.8548 8.22215 12.7586 8.12604 12.6401 8.12604C12.5215 8.12604 12.4254 8.22215 12.4254 8.34071C12.4254 8.45928 12.5215 8.55539 12.6401 8.55539Z" fill="black"/>
<path d="M14.3743 8.55539C14.4929 8.55539 14.589 8.45928 14.589 8.34071C14.589 8.22215 14.4929 8.12604 14.3743 8.12604C14.2558 8.12604 14.1597 8.22215 14.1597 8.34071C14.1597 8.45928 14.2558 8.55539 14.3743 8.55539Z" fill="black"/>
<path d="M16.1098 8.55539C16.2284 8.55539 16.3245 8.45928 16.3245 8.34071C16.3245 8.22215 16.2284 8.12604 16.1098 8.12604C15.9913 8.12604 15.8951 8.22215 15.8951 8.34071C15.8951 8.45928 15.9913 8.55539 16.1098 8.55539Z" fill="black"/>
<defs>
<linearGradient id="paint0_linear" x1="-3.45282" y1="11.3193" x2="11.2273" y2="11.3193" gradientUnits="userSpaceOnUse">
<stop stop-color="#3B007F"/>
<stop offset="1" stop-color="#AA003D"/>
</linearGradient>
</defs>
</svg>
