<svg width="24" height="24" viewBox="0 0 24 24" fill="none" xmlns="http://www.w3.org/2000/svg">
<path d="M22.8954 7.01179C21.8315 6.79966 20.9959 5.97475 20.7701 4.91367H22.3491C22.6478 4.91193 22.8917 5.15237 22.8941 5.45116L22.8954 7.01179ZM22.8954 15.7137C21.2339 15.9445 19.9213 17.2393 19.668 18.8975H4.31747C4.06414 17.2393 2.7516 15.9445 1.09011 15.7137V8.09874C2.75199 7.86782 4.06465 6.57238 4.31747 4.91368H19.668C19.9216 6.57164 21.2341 7.86614 22.8954 8.09684V15.7137ZM22.8954 18.3594C22.8933 18.6584 22.6494 18.8992 22.3503 18.8975H20.7714C20.9976 17.8369 21.8331 17.0126 22.8966 16.8006L22.8954 18.3594ZM1.63516 18.8975C1.33612 18.8992 1.09219 18.6584 1.09011 18.3594V16.8006C2.15363 17.0126 2.98913 17.8369 3.21537 18.8975H1.63516ZM1.09011 5.45305C1.09077 5.30922 1.14859 5.17156 1.25083 5.07039C1.35307 4.96922 1.49133 4.91284 1.63516 4.91367H3.21411C2.9885 5.97439 2.1535 6.79921 1.09011 7.01179V5.45305ZM22.3503 3.83997H1.63516C0.738678 3.8351 0.0072978 4.55659 0 5.45305V18.3594C0.00695156 19.2561 0.738433 19.978 1.63516 19.9731H22.3509C23.2477 19.978 23.9792 19.2561 23.9861 18.3594V5.45305C23.9792 4.55619 23.2472 3.8344 22.3503 3.83997Z" fill="#D9A162"/>
<path d="M12.0568 6.60884C9.11665 6.64882 6.76175 9.05773 6.78843 11.9981C6.81511 14.9384 9.21334 17.3042 12.1538 17.2909C15.0942 17.2774 17.4707 14.8899 17.4707 11.9495C17.4634 10.5226 16.8883 9.15732 15.8725 8.15525C14.8567 7.15317 13.4837 6.59673 12.0568 6.60884ZM12.0568 7.5562C14.4741 7.58924 16.4101 9.56983 16.388 11.9872C16.366 14.4046 14.3942 16.3496 11.9767 16.3385C9.55921 16.3274 7.60535 14.3644 7.60548 11.9469C7.62667 9.50755 9.6174 7.54506 12.0568 7.55873V7.5562Z" fill="#5DB3ED"/>
<path d="M14.1386 11.8307H12.2855V9.76611C12.2855 9.50032 12.0701 9.28485 11.8043 9.28485C11.5385 9.28485 11.323 9.50032 11.323 9.76611V12.0682C11.323 12.1156 11.335 12.151 11.335 12.187C11.3251 12.2257 11.321 12.2657 11.323 12.3057C11.3254 12.5695 11.5405 12.7817 11.8043 12.7806H14.1411C14.3186 12.7936 14.4884 12.7063 14.5811 12.5544C14.6738 12.4024 14.6738 12.2115 14.5811 12.0596C14.4884 11.9076 14.3186 11.8203 14.1411 11.8333" fill="#5DB3ED"/>
</svg>
