<svg width="24" height="24" viewBox="0 0 24 24" fill="none" xmlns="http://www.w3.org/2000/svg">
<path fill-rule="evenodd" clip-rule="evenodd" d="M24 12C24 18.6274 18.6274 24 12 24C5.37262 24 0 18.6274 0 12C0 5.37262 5.37262 0 12 0C18.6274 0 24 5.37262 24 12Z" fill="#EF494D"/>
<path fill-rule="evenodd" clip-rule="evenodd" d="M5.08946 8.34393H4.25357C4.04612 8.34393 3.87799 8.51207 3.87799 8.71951V9.59538C3.87799 9.80283 4.04612 9.97096 4.25357 9.97096H5.08946C5.29691 9.97096 5.46504 9.80283 5.46504 9.59538V8.71951C5.46504 8.51207 5.29691 8.34393 5.08946 8.34393Z" fill="white"/>
<path fill-rule="evenodd" clip-rule="evenodd" d="M6.02844 8.71951V15.2805C6.02844 15.4879 6.19657 15.656 6.40402 15.656H7.58559C7.79304 15.656 7.96117 15.4879 7.96117 15.2805V10.1587C7.96117 10.055 8.04524 9.97096 8.14893 9.97096H9.73107C9.93852 9.97096 10.1067 9.80283 10.1067 9.59538V8.71951C10.1067 8.51207 9.93852 8.34393 9.73107 8.34393H6.40402C6.19657 8.34393 6.02844 8.51207 6.02844 8.71951Z" fill="white"/>
<path fill-rule="evenodd" clip-rule="evenodd" d="M13.5595 15.656H15.0589C15.121 15.656 15.1792 15.6253 15.2141 15.574L16.4898 13.7006C16.5645 13.591 16.7261 13.5912 16.8005 13.7008L18.0721 15.5738C18.1071 15.6252 18.1652 15.656 18.2274 15.656H19.7458C20.0501 15.656 20.2281 15.3131 20.0529 15.0643L17.9004 12.0056C17.8555 11.9417 17.8547 11.8567 17.8986 11.7921L19.8398 8.93034C20.0089 8.68093 19.8303 8.34393 19.529 8.34393H18.0691C18.0079 8.34393 17.9505 8.37377 17.9153 8.42382L13.2521 15.0647C13.0773 15.3135 13.2553 15.656 13.5595 15.656Z" fill="white"/>
<path fill-rule="evenodd" clip-rule="evenodd" d="M12.5746 15.2805V8.71951C12.5746 8.51207 12.4065 8.34393 12.1991 8.34393H11.0175C10.81 8.34393 10.6419 8.51207 10.6419 8.71951V15.2805C10.6419 15.4879 10.81 15.656 11.0175 15.656H12.1991C12.4065 15.656 12.5746 15.4879 12.5746 15.2805Z" fill="white"/>
<path fill-rule="evenodd" clip-rule="evenodd" d="M16.288 9.76567L15.4038 8.42816C15.3691 8.37559 15.3102 8.34396 15.2472 8.34396H13.7788C13.4767 8.34396 13.2982 8.68275 13.4692 8.93196L14.3847 10.2668C14.4198 10.3179 14.4777 10.3484 14.5396 10.3484H15.9747C16.274 10.3484 16.4531 10.0153 16.288 9.76567Z" fill="white"/>
</svg>
