<svg width="24" height="24" viewBox="0 0 24 24" fill="none" xmlns="http://www.w3.org/2000/svg">
<path d="M12 24C18.6274 24 24 18.6274 24 12C24 5.37258 18.6274 0 12 0C5.37258 0 0 5.37258 0 12C0 18.6274 5.37258 24 12 24Z" fill="#3058A6"/>
<path d="M11.9962 20.421C7.34772 20.421 3.57897 16.6522 3.57897 12.0037C3.57897 7.35523 7.34772 3.58648 11.9962 3.58648C16.6447 3.58648 20.4135 7.35523 20.4135 12.0037C20.4135 16.6522 16.6447 20.421 11.9962 20.421ZM11.9962 3.05023C7.05897 3.05023 3.04272 7.06648 3.04272 12.0037C3.04272 16.941 7.05897 20.9572 11.9962 20.9572C16.9335 20.9572 20.9497 16.941 20.9497 12.0037C20.9497 7.06648 16.9335 3.05023 11.9962 3.05023Z" fill="white"/>
<path fill-rule="evenodd" clip-rule="evenodd" d="M15.1492 15.2062L14.6819 17.2305L14.5694 17.7202H14.0669L11.4832 17.7187H11.4727C10.4369 17.7015 9.62393 17.4262 9.09068 16.9402C9.55118 17.7525 10.5292 18.2227 11.8942 18.2452H11.9047L14.4877 18.2467H14.9902L15.1034 17.757L15.5707 15.7327L15.2062 14.9595L15.1492 15.2062ZM14.3369 6.52799L13.9679 5.76074L13.9154 6.00074L13.5652 7.59599H14.1022L14.3369 6.52799ZM16.2022 8.37374L15.7372 10.3425L15.6217 10.8285H12.8219L12.1109 14.0745C12.0959 14.1675 12.0869 14.262 12.0869 14.3145C12.0869 14.3602 12.0922 14.3895 12.0967 14.4037C12.1501 14.4238 12.2069 14.4334 12.2639 14.4322H12.5699L13.2434 11.3557H16.0432L16.1579 10.869L16.6229 8.90024L16.2614 8.12324L16.2014 8.37374H16.2022ZM9.25568 10.8285H7.30493L7.97693 11.3557H9.14093L9.25568 10.8285Z" fill="white"/>
<path fill-rule="evenodd" clip-rule="evenodd" d="M12.3254 15.0645H12.2542C11.7112 15.0502 11.4547 14.7675 11.4547 14.3145C11.4547 14.2065 11.4727 14.0632 11.4907 13.956L12.3142 10.197H15.1222L15.5872 8.22822H12.7792L13.2982 5.86572H11.0077L10.4879 8.22822H8.00242L7.55542 10.197H10.0409L9.07342 14.6182C9.02092 14.8327 9.00217 15.0832 9.00217 15.2085C9.00217 16.47 9.99742 17.0625 11.4832 17.0872L14.0662 17.088L14.5334 15.0645H12.3254Z" fill="white"/>
</svg>
