<svg width="24" height="24" viewBox="0 0 24 24" fill="none" xmlns="http://www.w3.org/2000/svg">
<path d="M11.9972 23.9945C5.37134 23.9945 0 18.6231 0 11.9972C0 5.37134 5.37134 0 11.9972 0C18.6231 0 23.9945 5.37134 23.9945 11.9972C23.9945 18.6231 18.6231 23.9945 11.9972 23.9945ZM11.9972 21.4566C17.2215 21.4566 21.4566 17.2215 21.4566 11.9972C21.4566 6.77299 17.2215 2.5379 11.9972 2.5379C6.77299 2.5379 2.5379 6.77299 2.5379 11.9972C2.5379 17.2215 6.77299 21.4566 11.9972 21.4566Z" fill="#63C6BB"/>
<path d="M6.54358 6.17502H17.451V8.91133H13.6393V18.8932H10.3254V8.92206H6.54358V6.17502Z" fill="#63C6BB"/>
</svg>
