<svg width="24" height="24" viewBox="0 0 24 24" fill="none" xmlns="http://www.w3.org/2000/svg">
<mask id="mask0" mask-type="alpha" maskUnits="userSpaceOnUse" x="0" y="1" width="24" height="22">
<path d="M0 1.9201H23.8657V22.3765H0V1.9201Z" fill="white"/>
</mask>
<g mask="url(#mask0)">
<path fill-rule="evenodd" clip-rule="evenodd" d="M23.0915 6.59043C20.7612 1.84916 13.8763 0.493667 7.71364 3.56311C1.55075 6.63282 -1.55597 12.9647 0.774326 17.706C3.10462 22.4475 9.98956 23.8028 16.1522 20.7333C22.3148 17.6639 25.4218 11.3317 23.0915 6.59043ZM15.8111 19.8369C11.3379 22.0648 6.02292 20.4354 3.94003 16.1971C1.85713 11.959 3.79475 6.71733 8.26794 4.48941C12.7411 2.26124 18.0559 3.89094 20.139 8.12899C22.2219 12.367 20.284 17.609 15.8111 19.8369ZM16.862 11.852L9.04615 7.07733C8.81024 6.94941 8.52352 7.12022 8.52352 7.38856V16.9097C8.52352 17.178 8.81024 17.3486 9.04615 17.2206L16.862 12.4743C17.1086 12.3402 17.1086 11.9858 16.862 11.852Z" fill="#454545"/>
</g>
</svg>
