<svg width="24" height="24" viewBox="0 0 24 24" fill="none" xmlns="http://www.w3.org/2000/svg">
<path d="M12 24C5.4 24 0 18.6 0 12C0 5.4 5.4 0 12 0C18.6 0 24 5.4 24 12C24 18.6 18.6 24 12 24Z" fill="#002868"/>
<path d="M18.048 19.2H5.95205C5.31845 19.2 4.80005 18.6816 4.80005 18.048V5.95199C4.80005 5.31839 5.31845 4.79999 5.95205 4.79999H18.048C18.6816 4.79999 19.2 5.31839 19.2 5.95199V18.048C19.2 18.6816 18.6816 19.2 18.048 19.2Z" fill="white"/>
<path d="M7.60996 17.7504C7.57204 17.7504 7.54132 17.7158 7.54132 17.6779V15.743C7.54132 15.7051 7.5106 15.6706 7.47268 15.6706H6.78964C6.75124 15.6706 6.71716 15.6398 6.71716 15.6019V15.228C6.71716 15.1901 6.75172 15.1555 6.78964 15.1555H8.89204C8.92996 15.1555 8.96452 15.1896 8.96452 15.228V15.6019C8.96452 15.6398 8.92996 15.6706 8.89204 15.6706H8.21284C8.17492 15.6706 8.14036 15.7046 8.14036 15.743V17.6779C8.14036 17.7158 8.10964 17.7504 8.07172 17.7504H7.60996Z" fill="#002868"/>
<path d="M11.0631 15.228C11.0631 15.1901 11.0938 15.1555 11.1318 15.1555H11.5897C11.6276 15.1555 11.6622 15.1896 11.6622 15.228V16.5485C11.6622 17.3309 11.2196 17.785 10.5174 17.785C9.81897 17.785 9.38025 17.3309 9.38025 16.5485V15.228C9.38025 15.1901 9.41097 15.1555 9.44889 15.1555H9.90681C9.94473 15.1555 9.97929 15.1896 9.97929 15.228V16.5672C9.97929 16.9526 10.1775 17.2272 10.5212 17.2272C10.8649 17.2272 11.0631 16.9526 11.0631 16.5672V15.228Z" fill="#002868"/>
<path d="M13.7651 16.0027C13.7041 16.0027 13.6849 15.9797 13.6619 15.9341C13.5817 15.7469 13.406 15.6288 13.1391 15.6288C12.8987 15.6288 12.6966 15.7128 12.6966 15.8731C12.6966 16.0488 12.8838 16.1213 13.2956 16.1707C13.9215 16.2432 14.2801 16.4342 14.2801 16.9301C14.2801 17.4874 13.7915 17.7811 13.166 17.7811C12.6241 17.7811 12.1585 17.5176 12.086 16.9646C12.0783 16.9114 12.1052 16.8922 12.1585 16.8922H12.5785C12.6318 16.8922 12.6625 16.9152 12.6779 16.957C12.735 17.1403 12.9299 17.2814 13.2121 17.2814C13.4603 17.2814 13.6777 17.1898 13.6777 16.9954C13.6777 16.7626 13.4487 16.7208 12.9908 16.6632C12.4643 16.5946 12.098 16.4419 12.098 15.9571C12.098 15.4723 12.5142 15.1253 13.1665 15.1253C13.754 15.1253 14.1625 15.4421 14.2465 15.9154C14.258 15.9686 14.2427 16.0032 14.1855 16.0032H13.7651V16.0027Z" fill="#002868"/>
<path d="M14.7989 17.7504C14.7609 17.7504 14.7302 17.7158 14.7302 17.6779V15.228C14.7302 15.1901 14.7609 15.1555 14.7989 15.1555H15.8366C16.6075 15.1555 17.2065 15.6859 17.2065 16.4606C17.2065 17.2238 16.6152 17.7504 15.8366 17.7504H14.7989ZM15.8366 17.2349C16.2528 17.2349 16.5768 16.9066 16.5768 16.4525C16.5768 15.9984 16.2523 15.6701 15.8328 15.6701H15.4017C15.3638 15.6701 15.3331 15.7042 15.3331 15.7426V17.1658C15.3331 17.2037 15.3638 17.2344 15.4017 17.2344H15.8366V17.2349Z" fill="#002868"/>
<path d="M18.8159 13.728H5.18394C5.07834 13.728 4.99194 13.6416 4.99194 13.536V5.952C4.99194 5.424 5.42394 4.992 5.95194 4.992H18.0479C18.5759 4.992 19.0079 5.424 19.0079 5.952V13.536C19.0079 13.6416 18.9215 13.728 18.8159 13.728Z" fill="#002868"/>
<path d="M12.7071 12.1709H11.4591C11.3799 12.1709 11.3151 12.1061 11.3151 12.0269V6.74687C11.3151 6.66767 11.3799 6.60287 11.4591 6.60287H12.7071C12.7863 6.60287 12.8511 6.66767 12.8511 6.74687V12.0269C12.8511 12.1061 12.7863 12.1709 12.7071 12.1709Z" fill="white"/>
<path d="M14.832 8.13888H9.16805C9.08885 8.13888 9.02405 8.07407 9.02405 7.99487V6.74687C9.02405 6.66767 9.08885 6.60287 9.16805 6.60287H14.832C14.9112 6.60287 14.976 6.66767 14.976 6.74687V7.99487C14.976 8.07407 14.9112 8.13888 14.832 8.13888Z" fill="white"/>
</svg>
