<svg width="24" height="24" viewBox="0 0 24 24" fill="none" xmlns="http://www.w3.org/2000/svg">
<path d="M15.6303 11.3466C15.6258 11.2162 15.5834 11.0901 15.5082 10.9835C15.3943 10.8212 15.1634 10.6407 14.7227 10.6407C14.7227 10.6407 14.4595 10.6407 14.4202 10.3139C14.4152 10.2686 14.4329 10.2237 14.4676 10.1939L21.3782 4.48941L9.07563 9.22891H0L6.85714 14.3718C6.85714 14.3718 8.26891 12.8592 10.3866 13.0608C10.3866 13.0608 10.1849 14.7751 12.3025 15.3802L13.0861 16.077C13.1684 16.1498 13.2403 16.2336 13.2998 16.326L14.1176 17.5987H17.1429L16.3281 15.3156C16.1969 14.9489 16.0983 14.5713 16.0336 14.1872C15.8945 13.3724 15.6605 11.9365 15.6303 11.3466ZM14.9244 12.8592L13.8151 12.355C13.935 11.9635 13.9694 11.5508 13.916 11.1449C13.916 11.1449 15.126 11.6491 14.9244 12.8592Z" fill="#59298D"/>
<path d="M18.958 23.2457L11.6975 18.002L4.43695 23.3465L6.7472 16.1385C7.13575 14.8448 8.32985 13.9614 9.68065 13.9684C9.68065 13.9684 10.2857 15.2793 11.3949 15.8844C11.3949 15.8844 12.5042 16.4894 12.8067 17.4978L13.8151 18.5062H17.4454L18.958 23.2457ZM15.8319 10.1365L16.8403 9.2289H24L16.9412 14.1701C16.9412 14.1701 16.437 12.0524 16.437 10.9432C16.437 9.83394 16.437 10.7415 15.8319 10.1365ZM11.6975 0.959991L9.37813 8.2205L13.7143 6.50621L11.6975 0.959991Z" fill="#CCCCCC"/>
</svg>
