<svg width="24" height="24" viewBox="0 0 24 24" fill="none" xmlns="http://www.w3.org/2000/svg">
<path d="M22.8 0.741577C22.7326 0.741577 22.6652 0.782027 22.6382 0.849442L15.1551 16.1933C14.5079 17.5146 12.6337 17.5146 12 16.1933L4.54385 0.930341C4.48991 0.822476 4.36856 0.741577 4.24722 0.741577H0.36407C0.121374 0.741577 -0.0404241 0.997757 0.0674411 1.21349L10.382 22.1798C11.0832 23.5955 13.1056 23.582 13.7933 22.1528L23.8517 0.997757C23.9056 0.876409 23.8247 0.741577 23.6899 0.741577H22.8Z" fill="url(#paint0_linear)"/>
<path opacity="0.2" d="M9.46518 20.3326L0.471924 2.04944L6.93035 9.53258L9.46518 20.3326Z" fill="white"/>
<path opacity="0.2" d="M11.1371 14.4135L6.93038 9.53259L5.23151 2.35956L11.1371 14.4135Z" fill="white"/>
<path opacity="0.1" d="M6.93036 9.53314L0.471935 2.05L0.0674411 1.22753C-0.0404241 1.01179 0.121374 0.755615 0.36407 0.755615H4.24722C4.36856 0.755615 4.48991 0.823031 4.54385 0.944379L5.24497 2.37359L6.93036 9.53314Z" fill="white"/>
<defs>
<linearGradient id="paint0_linear" x1="3.0844" y1="3.01837" x2="19.9905" y2="14.7404" gradientUnits="userSpaceOnUse">
<stop stop-color="#B290D8"/>
<stop offset="1" stop-color="#26BFE2"/>
</linearGradient>
</defs>
</svg>
