<svg width="24" height="24" viewBox="0 0 24 24" fill="none" xmlns="http://www.w3.org/2000/svg">
<path d="M12 24C18.6274 24 24 18.6274 24 12C24 5.37258 18.6274 0 12 0C5.37258 0 0 5.37258 0 12C0 18.6274 5.37258 24 12 24Z" fill="#FF9933"/>
<path d="M4.5 6C5.328 6.0015 6.15675 6.0015 6.984 6L8.55225 14.385C8.577 14.5087 8.607 14.631 8.63925 14.7525C8.76225 14.265 8.8395 13.767 8.94225 13.275L10.3702 6L12.7733 6.00075C11.892 9.92475 11.0107 13.8495 10.128 17.7735H7.14525C6.2625 13.8517 5.38125 9.93 4.5 6.0075V6ZM13.7355 9.699C14.2582 9.042 15.0938 8.74425 15.8993 8.69175C16.6942 8.63625 17.5507 8.70825 18.2242 9.18225C18.8205 9.59925 19.1475 10.3042 19.3027 11.0055C19.491 11.8845 19.5007 12.7875 19.5 13.683H15.0975C15.1012 14.3452 15.06 15.0285 15.2812 15.663C15.3885 15.975 15.5887 16.2855 15.9067 16.3988C16.2457 16.509 16.6537 16.437 16.9012 16.164C17.2312 15.7905 17.3003 15.267 17.3722 14.7877H19.3702C19.3252 15.5827 19.1783 16.4227 18.6578 17.0475C18.1358 17.697 17.2942 17.9625 16.4977 17.9948C15.6322 18.0278 14.6925 17.91 14.0025 17.3273C13.3612 16.7925 13.0815 15.945 12.9705 15.1327C12.8595 14.1975 12.8535 13.251 12.9053 12.3113C12.975 11.3948 13.1407 10.4242 13.7347 9.69825L13.7355 9.699ZM15.441 10.6328C15.1005 11.1233 15.0915 11.7548 15.0975 12.333H17.3715C17.3363 11.7833 17.34 11.2027 17.0925 10.6995C16.785 10.0785 15.813 10.0763 15.4425 10.6335H15.441V10.6328Z" fill="white"/>
</svg>
