<svg width="24" height="24" viewBox="0 0 24 24" fill="none" xmlns="http://www.w3.org/2000/svg">
<path d="M12 24C18.6274 24 24 18.6274 24 12C24 5.37258 18.6274 0 12 0C5.37258 0 0 5.37258 0 12C0 18.6274 5.37258 24 12 24Z" fill="#15BDFF"/>
<path d="M11.0535 18.5505L5.27998 6.7845C5.23719 6.69639 5.24264 6.59249 5.29442 6.50935C5.34619 6.4262 5.43703 6.37547 5.53498 6.375H7.53598C7.64323 6.375 7.74373 6.435 7.79098 6.5295L12.0075 15.0652C12.3825 15.8302 13.4707 15.8302 13.8465 15.0652L18.0495 6.53625C18.0989 6.44109 18.1973 6.38148 18.3045 6.38175H18.5535C18.7012 6.38175 18.795 6.53625 18.7282 6.66375L12.8932 18.5512C12.5175 19.3162 11.43 19.3162 11.0535 18.5512V18.5505Z" fill="white"/>
</svg>
