<svg width="24" height="24" viewBox="0 0 24 24" fill="none" xmlns="http://www.w3.org/2000/svg">
<path d="M12 24C18.6274 24 24 18.6274 24 12C24 5.37258 18.6274 0 12 0C5.37258 0 0 5.37258 0 12C0 18.6274 5.37258 24 12 24Z" fill="#F89022"/>
<path d="M21 14.2215H19.227L17.9692 13.1445L16.716 14.217H15.2175L14.5012 13.347H12.0323L12.657 12.5752H13.8713L12.9465 11.4443L9.71775 15.375H8.22L9.1545 14.2335H7.59375L6.75 11.868L5.913 14.2155H4.32975L3 10.5307H4.215L5.109 13.0402L6 10.542H7.5L8.38875 13.035L9.27675 10.5412H10.4955L9.1545 14.2335L9.453 13.869L12.192 10.5352H13.6995L15.9787 13.3162L17.0752 12.3735L13.605 9.375H15.3862L21 14.2215ZM19.2412 11.9925L18.405 11.2755L19.2397 10.5645L20.9272 10.566L19.2412 11.9925Z" fill="white"/>
</svg>
