<svg width="24" height="24" viewBox="0 0 24 24" fill="none" xmlns="http://www.w3.org/2000/svg">
<path d="M12 24C18.6274 24 24 18.6274 24 12C24 5.37258 18.6274 0 12 0C5.37258 0 0 5.37258 0 12C0 18.6274 5.37258 24 12 24Z" fill="#B80000"/>
<path d="M19.4197 8.54025C19.5367 8.739 19.521 8.9475 19.4047 9.1515C19.2307 9.429 19.0702 9.71175 18.9045 9.9915C18.45 10.7685 17.9955 11.5455 17.5395 12.3225C16.6294 13.8685 15.7184 15.414 14.8065 16.959C14.7554 17.0539 14.6778 17.132 14.5831 17.1835C14.4884 17.235 14.3807 17.2579 14.2732 17.2493C14.043 17.2388 13.8795 17.1248 13.7707 16.926C13.659 16.7273 13.5427 16.5308 13.4257 16.3328C13.0432 15.6788 12.6592 15.0263 12.276 14.3745C12.1905 14.2268 12.1027 14.082 12.0045 13.9185C11.9085 14.0813 11.8177 14.226 11.7322 14.3745L10.5825 16.332C10.465 16.5286 10.35 16.7266 10.2375 16.926C10.1287 17.1248 9.96598 17.2388 9.73498 17.2493C9.62759 17.2573 9.52015 17.2342 9.42556 17.1827C9.33097 17.1313 9.25325 17.0536 9.20173 16.959C8.76898 16.2307 8.34148 15.5025 7.91173 14.7712C7.42908 13.956 6.94808 13.1397 6.46873 12.3225C6.01498 11.5455 5.55973 10.7685 5.10373 9.9915C4.93873 9.71175 4.77523 9.429 4.60423 9.1515C4.47973 8.9475 4.46173 8.739 4.57798 8.54025C4.69198 8.3445 4.87573 8.25 5.11198 8.25C6.58798 8.25525 8.06473 8.265 9.54073 8.25225C9.91348 8.25 10.1362 8.3925 10.3102 8.703C10.683 9.36825 11.0797 10.017 11.463 10.6747C11.6235 10.9522 11.7817 11.232 11.9445 11.5095C11.9572 11.5297 11.9782 11.5455 11.997 11.5627C12.017 11.5485 12.0343 11.5307 12.048 11.5103C12.2092 11.2328 12.3667 10.9522 12.5302 10.6747C12.9157 10.017 13.3102 9.36525 13.683 8.703C13.8562 8.3925 14.079 8.25 14.4517 8.253C15.9285 8.265 17.4045 8.25525 18.8812 8.25C19.122 8.25 19.3057 8.3445 19.4197 8.54025ZM11.2875 12.8565C11.3019 12.826 11.3096 12.7927 11.31 12.7589C11.3104 12.7251 11.3035 12.6916 11.2897 12.6608C11.2147 12.5078 11.1157 12.363 11.028 12.2123C10.5 11.3108 9.97123 10.4123 9.44548 9.5085C9.39148 9.41625 9.32923 9.38325 9.22048 9.38325C8.23648 9.3885 7.25173 9.3885 6.26773 9.39075C6.22123 9.39075 6.17473 9.39825 6.10723 9.4035C7.30873 11.4533 8.49973 13.488 9.70498 15.543C9.80848 15.3705 9.89623 15.2325 9.97948 15.09C10.419 14.3475 10.8547 13.6028 11.2875 12.8565ZM14.295 15.543C15.4987 13.488 16.6905 11.4533 17.895 9.4035C17.8252 9.39825 17.781 9.39075 17.7345 9.39075C16.7497 9.3885 15.7657 9.3885 14.7817 9.38325C14.673 9.38325 14.6107 9.41625 14.5567 9.50775C14.0299 10.4096 13.5024 11.3111 12.9742 12.2123C12.8857 12.36 12.7897 12.5048 12.7117 12.6608C12.6977 12.6915 12.6904 12.7248 12.6904 12.7586C12.6904 12.7924 12.6977 12.8258 12.7117 12.8565C13.1467 13.602 13.5825 14.3468 14.0205 15.09C14.103 15.2325 14.1915 15.3728 14.295 15.543Z" fill="white"/>
</svg>
