<svg width="24" height="24" viewBox="0 0 24 24" fill="none" xmlns="http://www.w3.org/2000/svg">
<path d="M18.2769 10.6051C18.2769 9.13846 18.2974 7.66154 18.2667 6.19487C18.2564 5.6 18.5026 5.27179 19.0769 5.13846C20.3385 4.84102 21.5898 4.52307 22.841 4.21538C23.4462 4.07179 23.9282 4.38974 23.9282 5.01538C23.9487 8.11282 23.9385 11.2 23.9282 14.2974C23.9282 14.7487 23.6513 15.0154 23.2205 15.1179C21.9487 15.4359 20.6769 15.7641 19.4051 16.0615C18.6769 16.2359 18.2667 15.8769 18.2667 15.1179C18.2769 13.6103 18.2769 12.1128 18.2769 10.6051ZM9.04616 10.5846C9.04616 9.11795 9.05642 7.65128 9.04616 6.18461C9.03591 5.62051 9.2718 5.2923 9.82565 5.15897C11.0974 4.85128 12.3692 4.53333 13.641 4.21538C14.2256 4.07179 14.7077 4.41025 14.7282 5.03589C14.7487 5.93846 14.718 6.84102 14.7385 7.75384C14.7487 8.05128 14.5641 8.08205 14.3692 8.13333C13.2615 8.44102 12.8821 8.91282 12.8718 10.0615C12.8615 11.7026 12.8615 13.3436 12.8821 14.9744C12.8821 15.3026 12.8 15.4462 12.4615 15.5179C11.7333 15.6615 11.0154 15.8769 10.2872 16.0513C9.49744 16.2359 9.06668 15.8974 9.06668 15.0974C9.04616 13.5897 9.04616 12.082 9.04616 10.5846ZM0.0615472 10.6359C0.0615472 9.14871 0.0718036 7.66154 0.0512907 6.17436C0.0410343 5.57948 0.328214 5.26154 0.892316 5.1282C2.13334 4.83077 3.37437 4.53333 4.61539 4.22564C5.26155 4.07179 5.7436 4.4 5.77437 5.06666C5.80514 5.93846 5.77437 6.81025 5.78462 7.68205C5.79488 8.02051 5.54873 8.01025 5.3436 8.06154C3.96924 8.42051 3.65129 8.81025 3.65129 10.2462C3.65129 11.8359 3.64103 13.4256 3.66155 15.0154C3.66155 15.3641 3.53847 15.4974 3.23078 15.559C2.56411 15.7128 1.91796 15.8974 1.25129 16.0513C0.502573 16.2256 0.0615472 15.8667 0.0615472 15.0872V10.6359Z" fill="#8036FD"/>
<path d="M13.6513 14.3282C13.6513 12.8205 13.6615 11.3231 13.6513 9.81539C13.6513 9.30257 13.8974 9.02565 14.3795 8.90257C15.241 8.68719 16.1128 8.50257 16.9641 8.25642C17.3949 8.13334 17.4974 8.26667 17.4872 8.68719C17.4769 10.759 17.4769 12.8205 17.4769 14.8923C17.4769 16.1539 17.8359 16.6154 19.0462 16.8923C19.1385 16.9128 19.2513 16.9539 19.2923 17.0256C19.641 17.6718 19.1897 18.6769 18.4821 18.8615C17.2923 19.1692 16.1026 19.4769 14.9128 19.7539C14.0308 19.959 13.6615 19.641 13.6615 18.7282C13.6513 17.2615 13.6513 15.7949 13.6513 14.3282ZM4.43077 14.3282C4.43077 12.9128 4.46154 11.4872 4.42052 10.0718C4.4 9.35385 4.7077 8.99488 5.37436 8.85129C6.12308 8.67693 6.86154 8.49231 7.61026 8.28719C8.0718 8.16411 8.27693 8.25642 8.26667 8.80001C8.2359 10.8821 8.25641 12.9744 8.25641 15.0564C8.25641 16.1436 8.70769 16.6872 9.78462 16.8821C9.97949 16.9128 10.1231 16.9641 10.1026 17.1897C10.0513 17.7436 10.3487 18.5026 9.62051 18.718C8.20513 19.1487 6.75898 19.4974 5.30257 19.7846C4.64616 19.9077 4.43077 19.3744 4.43077 18.8V14.3282Z" fill="#09FAD9"/>
</svg>
