<svg width="24" height="24" viewBox="0 0 24 24" fill="none" xmlns="http://www.w3.org/2000/svg">
<path d="M12 24C18.6274 24 24 18.6274 24 12C24 5.37258 18.6274 0 12 0C5.37258 0 0 5.37258 0 12C0 18.6274 5.37258 24 12 24Z" fill="#FAA00D"/>
<path d="M19.494 10.8532L12.3923 19.1108L12.0735 19.5L4.50525 10.9365L4.52925 10.9268L4.5 10.9222L7.4415 6.0045L7.443 6.006L7.4415 6H16.632L16.6305 6.00525L19.5 10.8525L19.494 10.8532ZM9.642 11.1975L8.0145 13.953L12.0285 18.537L16.0507 13.9155L14.4592 11.1892L9.642 11.1975ZM7.5585 13.4325L8.8785 11.1982L5.607 11.2035L7.5585 13.4325ZM14.8507 10.548L18.5662 10.542L16.2338 6.636L12.5723 6.6435L14.8507 10.548ZM18.429 11.1825L15.2242 11.1877L16.509 13.389L18.429 11.1825ZM14.0858 10.5495L12.0675 7.0905L10.02 10.5555L14.0858 10.5495ZM7.7865 6.654L5.4615 10.5638L9.2565 10.557L11.5665 6.6465L7.7865 6.654Z" fill="white"/>
</svg>
