<svg width="24" height="24" viewBox="0 0 24 24" fill="none" xmlns="http://www.w3.org/2000/svg">
<g clip-path="url(#clip0)">
<path fill-rule="evenodd" clip-rule="evenodd" d="M4.39717 2.1069L0.019204 11.3525C0.00169754 11.386 -0.00433192 11.4243 0.00205013 11.4616C0.00843217 11.4989 0.0268693 11.5331 0.0545038 11.5587L11.8725 22.9523C11.9065 22.9831 11.9507 23.0002 11.9965 23.0002C12.0422 23.0002 12.0864 22.9831 12.1204 22.9523L23.9455 11.5587C23.9728 11.5329 23.9911 11.4988 23.9974 11.4615C24.0038 11.4243 23.9979 11.386 23.9808 11.3525L19.6028 2.1069C19.5912 2.07475 19.5697 2.0471 19.5416 2.02791C19.5134 2.00871 19.4799 1.99895 19.4459 2.00002H4.55249C4.51893 2.00094 4.48633 2.01149 4.45853 2.03043C4.43074 2.04937 4.4089 2.0759 4.39561 2.1069H4.39717Z" fill="url(#paint0_linear)"/>
<path fill-rule="evenodd" clip-rule="evenodd" d="M13.5207 12.2983C13.4359 12.3053 12.9974 12.3337 12.0212 12.3337C11.2434 12.3337 10.6916 12.3124 10.4935 12.2983C7.48791 12.1634 5.24597 11.6368 5.24597 11.0109C5.24597 10.3849 7.48791 9.85167 10.4935 9.71678V11.7721C10.6896 11.7863 11.2505 11.8218 12.0283 11.8218C12.9617 11.8218 13.4285 11.7792 13.5136 11.7721V9.71678C16.5121 9.85167 18.7541 10.3782 18.7541 11.0038C18.7541 11.6293 16.5184 12.1634 13.5207 12.2983ZM13.5207 9.5105V7.66818H17.7076V4.85913H6.30693V7.66818H10.4935V9.5105C7.09176 9.66827 4.53174 10.3423 4.53174 11.1604C4.53174 11.9784 7.09176 12.6469 10.4935 12.8102V18.7064H13.5207V12.8102C16.9153 12.6524 19.4687 11.978 19.4687 11.1675C19.4687 10.3569 16.9153 9.66669 13.5207 9.5109V9.5105Z" fill="white"/>
</g>
<defs>
<linearGradient id="paint0_linear" x1="-0.38023" y1="12.1315" x2="22.8982" y2="12.1315" gradientUnits="userSpaceOnUse">
<stop stop-color="#D8B35D"/>
<stop offset="1" stop-color="#F5E7BF"/>
</linearGradient>
<clipPath id="clip0">
<rect width="24" height="24" fill="white"/>
</clipPath>
</defs>
</svg>
