<svg width="24" height="24" viewBox="0 0 24 24" fill="none" xmlns="http://www.w3.org/2000/svg">
<path d="M12 24C18.6274 24 24 18.6274 24 12C24 5.37258 18.6274 0 12 0C5.37258 0 0 5.37258 0 12C0 18.6274 5.37258 24 12 24Z" fill="#F7931A"/>
<path d="M19.4827 14.8155L19.074 16.4527L17.9827 16.1812L18.3907 14.5432L16.7535 14.1352L17.0257 13.044L18.663 13.452L19.0717 11.8147L20.163 12.087L19.755 13.7242L21.3923 14.1322L21.12 15.2242L19.4827 14.8155ZM15.4575 10.32C15.3052 11.3325 14.7532 11.8245 14.0235 12C15.0217 12.5272 15.5272 13.3402 15.0345 14.7577C14.4225 16.518 12.99 16.674 11.088 16.3177L10.6155 18.2092L9.501 17.9317L9.96675 16.0642C9.66991 15.9908 9.37389 15.914 9.07875 15.834L8.61075 17.709L7.49775 17.4315L7.97025 15.5355C7.70925 15.4687 7.44525 15.3982 7.17525 15.3307L5.724 14.9685L6.285 13.662C6.285 13.662 7.10625 13.8802 7.095 13.8645C7.4115 13.9417 7.5525 13.731 7.60875 13.5907L8.35425 10.5997L8.47275 10.629C8.43489 10.6139 8.39605 10.6014 8.3565 10.5915L8.889 8.45624C8.904 8.21399 8.82375 7.90949 8.3715 7.79624C8.3895 7.78499 7.56225 7.59524 7.56225 7.59524L7.866 6.37724L9.4035 6.76124L9.402 6.76649C9.633 6.82424 9.8715 6.87899 10.1145 6.93374L10.5817 5.06024L11.6962 5.33774L11.238 7.17524C11.5372 7.24274 11.838 7.31174 12.1305 7.38524L12.5857 5.56049L13.701 5.83799L13.2337 7.71224C14.6407 8.19974 15.6675 8.93699 15.4575 10.32ZM12.8872 13.9837C13.2555 12.5062 10.8307 12.1387 10.0747 11.9497L9.45 14.46C10.206 14.6475 12.5362 15.3997 12.8887 13.983L12.8872 13.9837ZM13.2525 10.3117C13.587 8.96699 11.559 8.67899 10.9297 8.52224L10.362 10.8C10.9912 10.9575 12.9307 11.6002 13.2525 10.3117Z" fill="white"/>
</svg>
