<svg width="24" height="24" viewBox="0 0 24 24" fill="none" xmlns="http://www.w3.org/2000/svg">
<path fill-rule="evenodd" clip-rule="evenodd" d="M8.77703 9.18523L10.4184 7.54388C10.6003 7.36188 10.6003 7.06685 10.4184 6.88485L8.33951 4.80599H3.5227L0 8.32869V13.1215L3.5227 16.6442H8.48324L17.0264 8.10101H19.1473L20.7229 9.67669V11.7077L19.1083 13.3222H16.7749L15.8657 12.4131C15.6837 12.2311 15.3886 12.2311 15.2067 12.4131L13.1922 14.4275V19.2217C13.1922 19.4791 13.4009 19.6877 13.6582 19.6877H16.0692C16.3265 19.6877 16.5352 19.4791 16.5352 19.2217V17.3152C16.5352 16.9314 16.8463 16.6203 17.2302 16.6203H20.5372L24 13.1574V8.32869L20.4713 4.79999H15.5766L7.06643 13.3103H4.96059L3.34449 11.6942V9.67069L4.87146 8.14372H6.99751L8.13022 9.19696C8.31389 9.36772 8.59973 9.36253 8.77703 9.18523Z" fill="#ED1650"/>
</svg>
