<svg width="24" height="24" viewBox="0 0 24 24" fill="none" xmlns="http://www.w3.org/2000/svg">
<path d="M11.4793 24C13.5316 24 15.1953 22.3363 15.1953 20.284C15.1953 18.2318 13.5316 16.5681 11.4793 16.5681C9.427 16.5681 7.76331 18.2318 7.76331 20.284C7.76331 22.3363 9.427 24 11.4793 24Z" fill="#22B24C"/>
<path d="M19.2899 19.645C21.133 19.645 22.6272 18.1508 22.6272 16.3077C22.6272 14.4645 21.133 12.9704 19.2899 12.9704C17.4468 12.9704 15.9526 14.4645 15.9526 16.3077C15.9526 18.1508 17.4468 19.645 19.2899 19.645Z" fill="#CECCCC"/>
<path d="M2.48521 10.5089C3.85775 10.5089 4.97041 9.3962 4.97041 8.02366C4.97041 6.65112 3.85775 5.53845 2.48521 5.53845C1.11267 5.53845 0 6.65112 0 8.02366C0 9.3962 1.11267 10.5089 2.48521 10.5089Z" fill="#CECCCC"/>
<path d="M15.3609 4.11834C16.4982 4.11834 17.4201 3.19642 17.4201 2.05917C17.4201 0.921923 16.4982 0 15.3609 0C14.2237 0 13.3018 0.921923 13.3018 2.05917C13.3018 3.19642 14.2237 4.11834 15.3609 4.11834Z" fill="#22B24C"/>
<path d="M20.7195 5.44378C20.3406 5.42822 19.963 5.49653 19.6136 5.64383C19.2642 5.79112 18.9516 6.01376 18.6982 6.29585L18.6934 6.30532L18.5751 6.44733C18.5304 6.50323 18.483 6.55694 18.4331 6.60827C17.9361 7.14319 16.7337 8.0994 15.11 7.2994C14.8659 7.17928 14.6435 7.01929 14.452 6.82603C14.0633 6.43274 13.6004 6.12058 13.0901 5.90768C12.5797 5.69477 12.0322 5.58536 11.4792 5.58579L11.271 5.59052C11.0728 5.59969 10.8749 5.56911 10.6887 5.50058C9.75617 5.16449 9.49108 4.38815 9.43901 3.79644C9.41327 3.46333 9.46177 3.12866 9.58102 2.81656C9.7224 2.42945 9.74438 2.00882 9.6441 1.60909C9.54382 1.20935 9.3259 0.848905 9.01853 0.574371C8.71117 0.299837 8.32849 0.123848 7.92002 0.06917C7.51154 0.0144918 7.09605 0.0836403 6.7273 0.26767C6.35855 0.4517 6.05351 0.742144 5.85163 1.10143C5.64975 1.46072 5.56032 1.87232 5.59491 2.28298C5.6295 2.69365 5.78653 3.08449 6.04567 3.40494C6.30481 3.72539 6.65414 3.96071 7.04848 4.08046C9.21179 4.96094 8.50173 6.62721 8.20351 7.16685C7.61375 7.90635 7.29322 8.82454 7.29463 9.7704C7.29331 9.95712 7.30438 10.1437 7.32777 10.329C7.32726 10.3337 7.32726 10.3385 7.32777 10.3432C7.39404 11.058 7.31357 12.9988 4.65795 13.0651C4.49969 13.0666 4.34151 13.0571 4.18457 13.0367C4.06038 13.0233 3.93552 13.0169 3.81061 13.0177C3.17421 13.0172 2.55174 13.204 2.02074 13.5548C1.48975 13.9056 1.07371 14.4048 0.824464 14.9904C0.575222 15.5759 0.503795 16.2219 0.619084 16.8478C0.734372 17.4736 1.03128 18.0517 1.47281 18.5101C1.91434 18.9684 2.48097 19.2866 3.1021 19.4252C3.72324 19.5637 4.3714 19.5164 4.96585 19.2892C5.56029 19.062 6.07473 18.6648 6.44507 18.1473C6.8154 17.6297 7.02525 17.0147 7.04848 16.3787H7.05321V16.213C7.06741 15.5929 7.3183 13.3964 10.0591 13.7183C10.0591 13.7183 10.9822 13.9645 11.4792 13.9645C12.3093 13.9655 13.1209 13.7199 13.8112 13.2589C14.5014 12.7979 15.0392 12.1423 15.3562 11.3751C15.6213 10.7692 17.0082 9.24496 19.3988 10.2958C19.4787 10.3396 19.5608 10.3791 19.6449 10.4142C19.9935 10.5546 20.3685 10.6173 20.7437 10.5977C21.119 10.5781 21.4855 10.4767 21.8175 10.3008C22.1495 10.1248 22.439 9.87838 22.6659 9.57882C22.8928 9.27925 23.0514 8.93374 23.1309 8.56645C23.2103 8.19917 23.2085 7.81896 23.1256 7.45244C23.0428 7.08592 22.8808 6.74192 22.6512 6.4445C22.4215 6.14708 22.1296 5.90342 21.796 5.73057C21.4623 5.55772 21.0949 5.45984 20.7195 5.44378Z" fill="#343433"/>
</svg>
