<svg width="24" height="24" viewBox="0 0 24 24" fill="none" xmlns="http://www.w3.org/2000/svg">
<path d="M18.6627 18.3164C18.8418 14.1373 16.4298 12.0955 15.1164 11.3075C14.2447 10.7821 13.5283 10.0299 13.0985 9.11045C11.5582 5.86269 13.7791 3.27164 13.7791 3.27164C15.1283 1.58806 16.8119 0.692538 19.1761 1.20597C20.8477 1.74328 22.4358 2.44776 23.9164 3.3194V3.43881C23.9283 9.07463 21.9462 14.2567 18.6627 18.3164Z" fill="#67AFE2"/>
<path d="M16.0835 21.0269C14.8298 22.1493 13.4686 23.1403 12 23.9761C7.30743 21.3015 3.62982 17.0627 1.65967 11.9642C3.48653 12.9075 5.71937 13.7194 7.29549 13.206C10.4358 12.1911 12.7164 10.5075 15.7492 13.2299C17.4567 14.7582 17.8149 16.7284 17.4089 18.7463C17.2179 19.6299 16.7522 20.4179 16.0835 21.0269Z" fill="#1EBBAD"/>
<path d="M16.0478 0.441789C14.1731 1.17015 11.7254 2.71045 11.5224 5.8388V5.99403C11.4985 6.77015 11.5463 10.6985 7.54626 12.0358C7.54626 12.0358 4.69253 13.0269 2.30447 10.997C1.32536 10.1612 0.692528 9.00298 0.453722 7.73731C0.191036 6.30448 0.0596924 4.82388 0.0596924 3.3194C3.5582 1.26567 7.64178 0.09552 11.9881 0.09552C13.3731 0.09552 14.7343 0.214923 16.0478 0.441789Z" fill="#F7A800"/>
</svg>
