<svg width="24" height="25" viewBox="0 0 24 25" fill="none" xmlns="http://www.w3.org/2000/svg">
<g clip-path="url(#clip0)">
<path d="M23.9997 12.0001C23.9997 18.6273 18.6277 24.0001 12 24.0001C5.37226 24.0001 0.000244141 18.6273 0.000244141 12.0001C0.000244141 5.37284 5.37238 0 12 0C18.6275 0 23.9997 5.37233 23.9997 12.0001Z" fill="white"/>
<path d="M11.9999 0C5.37457 0 -0.00695956 5.38045 0.00147474 11.9997C0.00313605 13.324 0.214313 14.5979 0.610661 15.7895H4.20086V5.69475L11.9999 13.4937L19.7986 5.69475V15.7897H23.3895C23.7865 14.5982 23.9966 13.3243 23.9989 11.9999C24.0102 5.37374 18.6259 0.00159741 11.9999 0.00159741V0Z" fill="#F26822"/>
<path d="M10.2064 15.2866L6.80285 11.8829V18.235H4.20069L1.74524 18.2354C3.85144 21.6909 7.65784 24.0023 11.9999 24.0023C16.3421 24.0023 20.1486 21.6904 22.2552 18.2349H17.1963V11.8829L13.7925 15.2866L11.9996 17.0796L10.2065 15.2866H10.2064Z" fill="#4D4D4D"/>
</g>
<defs>
<clipPath id="clip0">
<rect width="24" height="24.0026" fill="white"/>
</clipPath>
</defs>
</svg>
