<svg width="24" height="24" viewBox="0 0 24 24" fill="none" xmlns="http://www.w3.org/2000/svg">
<g clip-path="url(#clip0)">
<path d="M11.9223 14.301H11.9587L23.0049 8.91262V10.4709L14.1068 14.8034L22.9903 16.9879V18.4442L12.1481 15.7646L1.04369 21.182V19.6602L11.9223 14.301ZM11.9223 8.27185L23.0049 2.86893V4.42719L1 15.1529V13.5947L9.94175 9.22573L1 7.04854V5.59223L11.9223 8.27185ZM1 0L12.0534 2.69418V4.15049L1 1.45631V0ZM1 4.25243V2.79612L12.068 5.50486V6.96117L1 4.25243ZM1 16.6311L23.0049 5.89078V7.44903L1 18.1602V16.6311ZM22.9903 21.2257L11.9223 18.517V17.0607L22.9757 19.7621L22.9903 21.2257ZM11.9223 21.3058V19.8495L23.0049 22.5728V24.0291L11.9223 21.3058Z" fill="#FF0033"/>
</g>
<defs>
<clipPath id="clip0">
<rect width="24" height="24" fill="white"/>
</clipPath>
</defs>
</svg>
