<svg width="24" height="24" viewBox="0 0 24 24" fill="none" xmlns="http://www.w3.org/2000/svg">
<g clip-path="url(#clip0)">
<path d="M3.3365 13.3151H3.80156V13.869L0.465064 14.7354H0V14.1816L3.3365 13.3151Z" fill="url(#paint0_linear)"/>
<path d="M5.37231 18.1935V18.6798H5.86246L7.43905 16.9816V16.4953H6.94697L5.37231 18.1935Z" fill="url(#paint1_linear)"/>
<path d="M0 23.5137V24H0.488221L3.80349 20.6114V20.1251H3.31527L0 23.5137Z" fill="url(#paint2_linear)"/>
<path d="M9.96321 18.6798L10.7351 16.9662V16.4953H10.2276L9.45569 18.2089V18.6798H9.96128H9.96321Z" fill="url(#paint3_linear)"/>
<path d="M7.43518 3.87489V3.39632L5.0925 0H4.59656V0.480502L6.94696 3.87489H7.4429H7.43518Z" fill="url(#paint4_linear)"/>
<path d="M4.59656 23.5195V23.9981H5.0925L7.43518 20.6037V20.1251H6.94696L4.59656 23.5195Z" fill="url(#paint5_linear)"/>
<path d="M0 9.2627V9.81653L3.3365 10.6888H3.80156V10.1407L0.465064 9.2627H0Z" fill="url(#paint6_linear)"/>
<path d="M0 0V0.486291L3.31527 3.87489H3.80349V3.3886L0.488221 0H0Z" fill="url(#paint7_linear)"/>
<path d="M0 18.9113V19.4053H0.480502L3.80349 16.9816V16.4953H3.32299L0 18.9113Z" fill="url(#paint8_linear)"/>
<path d="M18.6894 14.6968V14.1951L17.0376 13.3151H16.5609V13.8169L18.2128 14.7026H18.6875L18.6894 14.6968Z" fill="url(#paint9_linear)"/>
<path d="M18.6894 9.80684V9.30511H18.2128L16.5609 10.1909V10.6926H17.0356L18.6894 9.80684Z" fill="url(#paint10_linear)"/>
<path d="M9.45569 5.3222V5.7892L10.2276 7.50279H10.7332V7.0358L9.96128 5.3222H9.45569Z" fill="url(#paint11_linear)"/>
<path d="M18.6277 5.8085V5.3222H18.1395L16.5629 7.02229V7.50859H17.053L18.6277 5.8085Z" fill="url(#paint12_linear)"/>
<path d="M13.9597 9.9574H13.2225V10.6946H13.9597V9.9574Z" fill="#BE5095"/>
<path d="M10.7756 3.87489V3.41176L9.95935 0H9.40552V0.465064L10.2276 3.87489H10.7814H10.7756Z" fill="url(#paint13_linear)"/>
<path d="M13.2611 16.4953V16.9681L14.033 18.6817H14.5386V18.2069L13.7667 16.4933H13.2611V16.4953Z" fill="url(#paint14_linear)"/>
<path d="M14.5424 5.3222H14.0368L13.2649 7.0358V7.50859H13.7705L14.5424 5.79499V5.3222Z" fill="url(#paint15_linear)"/>
<path d="M0 4.59662V5.09063L3.32299 7.50665H3.80349V7.01264L0.480502 4.59662H0Z" fill="url(#paint16_linear)"/>
<path d="M20.1965 16.4953V16.9816L23.5195 19.3976H24V18.9113L20.679 16.4953H20.1985H20.1965Z" fill="url(#paint17_linear)"/>
<path d="M16.5648 3.39632V3.87489H17.0608L19.4034 0.480502V0H18.9114L16.5648 3.39632Z" fill="url(#paint18_linear)"/>
<path d="M20.1965 20.1251V20.6114L23.5118 24H24V23.5137L20.6848 20.1251H20.1965Z" fill="url(#paint19_linear)"/>
<path d="M16.5648 20.1251V20.6037L18.9114 23.9981H19.4073V23.5195L17.0608 20.1251H16.5648Z" fill="url(#paint20_linear)"/>
<path d="M18.6276 18.6797V18.1934L17.0511 16.4933H16.5609V16.9816L18.1394 18.6797H18.6296H18.6276Z" fill="url(#paint21_linear)"/>
<path d="M23.5118 0L20.1965 3.3886V3.87489H20.6848L24 0.486291V0H23.5118Z" fill="url(#paint22_linear)"/>
<path d="M20.1965 7.01264V7.50665H20.677L24 5.09063V4.59662H23.5195L20.1965 7.01264Z" fill="url(#paint23_linear)"/>
<path d="M20.1965 10.1407V10.6946H20.6616L23.9981 9.82232V9.2627H23.5427L20.1965 10.1407Z" fill="url(#paint24_linear)"/>
<path d="M20.1965 13.3151V13.869L23.5427 14.7354H24.0077V14.1816L20.6635 13.3151H20.1985H20.1965Z" fill="url(#paint25_linear)"/>
<path d="M9.40552 23.5427V24.0077H9.95935L10.7737 20.596V20.1309H10.2276L9.40552 23.5427Z" fill="url(#paint26_linear)"/>
<path d="M5.31055 14.1951V14.6968H5.78912L7.44096 13.8111V13.3151H6.96239L5.31055 14.1951Z" fill="url(#paint27_linear)"/>
<path d="M5.37231 5.3222V5.8085L6.94697 7.50859H7.43712V7.02229L5.86054 5.3222H5.37231Z" fill="url(#paint28_linear)"/>
<path d="M10.0345 14.0465H10.7717V13.3151H10.0345V14.0523V14.0465Z" fill="#BD687B"/>
<path d="M5.31055 9.30707V9.8088L6.96239 10.6945H7.43711V10.1928L5.78912 9.30707H5.31055Z" fill="url(#paint29_linear)"/>
<path d="M13.2263 20.1251V20.5902L14.0407 24.0019H14.5945V23.5427L13.7802 20.1309H13.2263V20.1251Z" fill="url(#paint30_linear)"/>
<path d="M13.2263 3.41176V3.87682H13.7802L14.5964 0.465064V0H14.0407L13.2263 3.41176Z" fill="url(#paint31_linear)"/>
<path d="M10.0345 10.6926H10.7717V9.9574H10.0345V10.6946V10.6926Z" fill="#AC5E90"/>
<path d="M13.9597 13.3151H13.2225V14.0523H13.9597V13.3151Z" fill="#C85C7F"/>
</g>
<defs>
<linearGradient id="paint0_linear" x1="1.36046" y1="15.0384" x2="2.61864" y2="12.6783" gradientUnits="userSpaceOnUse">
<stop stop-color="#93966F"/>
<stop offset="1" stop-color="#9C8476"/>
</linearGradient>
<linearGradient id="paint1_linear" x1="7.49694" y1="16.5551" x2="5.31442" y2="18.618" gradientUnits="userSpaceOnUse">
<stop stop-color="#C27E64"/>
<stop offset="1" stop-color="#CD8D56"/>
</linearGradient>
<linearGradient id="paint2_linear" x1="3.83822" y1="20.1618" x2="-0.0366597" y2="23.9633" gradientUnits="userSpaceOnUse">
<stop stop-color="#D7974E"/>
<stop offset="1" stop-color="#F5AE3D"/>
</linearGradient>
<linearGradient id="paint3_linear" x1="10.8451" y1="17.0183" x2="9.16623" y2="18.2957" gradientUnits="userSpaceOnUse">
<stop stop-color="#CB7365"/>
<stop offset="1" stop-color="#D57D56"/>
</linearGradient>
<linearGradient id="paint4_linear" x1="4.26272" y1="0.652247" x2="7.86165" y2="3.29211" gradientUnits="userSpaceOnUse">
<stop stop-color="#3658CA"/>
<stop offset="1" stop-color="#6B59B8"/>
</linearGradient>
<linearGradient id="paint5_linear" x1="4.31868" y1="23.3979" x2="7.83271" y2="20.6326" gradientUnits="userSpaceOnUse">
<stop stop-color="#F99F36"/>
<stop offset="1" stop-color="#DC8A4C"/>
</linearGradient>
<linearGradient id="paint6_linear" x1="1.22345" y1="8.6915" x2="2.43917" y2="11.0014" gradientUnits="userSpaceOnUse">
<stop stop-color="#668A87"/>
<stop offset="1" stop-color="#847C88"/>
</linearGradient>
<linearGradient id="paint7_linear" x1="3.83822" y1="3.83822" x2="-0.0366654" y2="0.0366653" gradientUnits="userSpaceOnUse">
<stop stop-color="#4A69B0"/>
<stop offset="1" stop-color="#056EBD"/>
</linearGradient>
<linearGradient id="paint8_linear" x1="3.28632" y1="16.256" x2="0.445768" y2="19.7314" gradientUnits="userSpaceOnUse">
<stop stop-color="#B78D63"/>
<stop offset="1" stop-color="#C5A256"/>
</linearGradient>
<linearGradient id="paint9_linear" x1="16.8928" y1="13.0527" x2="18.2533" y2="14.8184" gradientUnits="userSpaceOnUse">
<stop stop-color="#D75080"/>
<stop offset="1" stop-color="#E34B76"/>
</linearGradient>
<linearGradient id="paint10_linear" x1="16.9546" y1="10.8798" x2="18.3498" y2="9.04846" gradientUnits="userSpaceOnUse">
<stop stop-color="#CF4794"/>
<stop offset="1" stop-color="#D739A3"/>
</linearGradient>
<linearGradient id="paint11_linear" x1="9.15079" y1="5.78534" x2="10.9435" y2="6.97598" gradientUnits="userSpaceOnUse">
<stop stop-color="#8554B2"/>
<stop offset="1" stop-color="#9C55A5"/>
</linearGradient>
<linearGradient id="paint12_linear" x1="16.5455" y1="7.40824" x2="18.6856" y2="5.38396" gradientUnits="userSpaceOnUse">
<stop stop-color="#C43CAE"/>
<stop offset="1" stop-color="#CD2CC3"/>
</linearGradient>
<linearGradient id="paint13_linear" x1="9.00606" y1="1.37782" x2="11.3256" y2="2.57618" gradientUnits="userSpaceOnUse">
<stop stop-color="#6344D6"/>
<stop offset="1" stop-color="#874ABF"/>
</linearGradient>
<linearGradient id="paint14_linear" x1="13.0064" y1="16.9295" x2="14.6737" y2="18.1529" gradientUnits="userSpaceOnUse">
<stop stop-color="#D66766"/>
<stop offset="1" stop-color="#E26A55"/>
</linearGradient>
<linearGradient id="paint15_linear" x1="12.96" y1="7.08598" x2="14.6948" y2="5.85095" gradientUnits="userSpaceOnUse">
<stop stop-color="#AD4AA9"/>
<stop offset="1" stop-color="#AD3EBB"/>
</linearGradient>
<linearGradient id="paint16_linear" x1="0.497869" y1="4.21646" x2="3.30562" y2="7.88873" gradientUnits="userSpaceOnUse">
<stop stop-color="#307CA3"/>
<stop offset="1" stop-color="#6A739A"/>
</linearGradient>
<linearGradient id="paint17_linear" x1="20.6365" y1="16.1383" x2="23.4867" y2="19.6678" gradientUnits="userSpaceOnUse">
<stop stop-color="#EA4C68"/>
<stop offset="1" stop-color="#F44752"/>
</linearGradient>
<linearGradient id="paint18_linear" x1="16.1441" y1="3.28632" x2="19.8318" y2="0.586636" gradientUnits="userSpaceOnUse">
<stop stop-color="#B930CC"/>
<stop offset="1" stop-color="#CE15F2"/>
</linearGradient>
<linearGradient id="paint19_linear" x1="24.0367" y1="23.9633" x2="20.1618" y2="20.1618" gradientUnits="userSpaceOnUse">
<stop stop-color="#F15829"/>
<stop offset="1" stop-color="#EF5948"/>
</linearGradient>
<linearGradient id="paint20_linear" x1="16.2734" y1="20.7253" x2="19.7778" y2="23.4635" gradientUnits="userSpaceOnUse">
<stop stop-color="#EA674A"/>
<stop offset="1" stop-color="#F26A28"/>
</linearGradient>
<linearGradient id="paint21_linear" x1="16.503" y1="16.5551" x2="18.6855" y2="18.618" gradientUnits="userSpaceOnUse">
<stop stop-color="#E15A68"/>
<stop offset="1" stop-color="#EB5A55"/>
</linearGradient>
<linearGradient id="paint22_linear" x1="24.0367" y1="0.036665" x2="20.1618" y2="3.83822" gradientUnits="userSpaceOnUse">
<stop stop-color="#F902FD"/>
<stop offset="1" stop-color="#DA1FD4"/>
</linearGradient>
<linearGradient id="paint23_linear" x1="23.5041" y1="4.21646" x2="20.6944" y2="7.88873" gradientUnits="userSpaceOnUse">
<stop stop-color="#FC11D5"/>
<stop offset="1" stop-color="#DE2AB7"/>
</linearGradient>
<linearGradient id="paint24_linear" x1="22.8017" y1="8.64904" x2="21.5608" y2="10.9994" gradientUnits="userSpaceOnUse">
<stop stop-color="#F922AA"/>
<stop offset="1" stop-color="#E2369D"/>
</linearGradient>
<linearGradient id="paint25_linear" x1="21.4219" y1="12.688" x2="22.6261" y2="15.0596" gradientUnits="userSpaceOnUse">
<stop stop-color="#E64183"/>
<stop offset="1" stop-color="#F63777"/>
</linearGradient>
<linearGradient id="paint26_linear" x1="8.90765" y1="22.7689" x2="11.2117" y2="21.393" gradientUnits="userSpaceOnUse">
<stop stop-color="#F68C31"/>
<stop offset="1" stop-color="#D77C4E"/>
</linearGradient>
<linearGradient id="paint27_linear" x1="7.1187" y1="13.0565" x2="5.74666" y2="14.8029" gradientUnits="userSpaceOnUse">
<stop stop-color="#AC757A"/>
<stop offset="1" stop-color="#AC8270"/>
</linearGradient>
<linearGradient id="paint28_linear" x1="5.31442" y1="5.38396" x2="7.48923" y2="7.44104" gradientUnits="userSpaceOnUse">
<stop stop-color="#6466AA"/>
<stop offset="1" stop-color="#8563A1"/>
</linearGradient>
<linearGradient id="paint29_linear" x1="5.67141" y1="9.07357" x2="7.00292" y2="10.8296" gradientUnits="userSpaceOnUse">
<stop stop-color="#857390"/>
<stop offset="1" stop-color="#986C8D"/>
</linearGradient>
<linearGradient id="paint30_linear" x1="15.0306" y1="22.6666" x2="12.7169" y2="21.42" gradientUnits="userSpaceOnUse">
<stop stop-color="#F47B2C"/>
<stop offset="1" stop-color="#E5744A"/>
</linearGradient>
<linearGradient id="paint31_linear" x1="15.0982" y1="1.29292" x2="12.7844" y2="2.54917" gradientUnits="userSpaceOnUse">
<stop stop-color="#952EE3"/>
<stop offset="1" stop-color="#9D3FC3"/>
</linearGradient>
<clipPath id="clip0">
<rect width="24" height="24" fill="white"/>
</clipPath>
</defs>
</svg>
