<svg width="24" height="24" viewBox="0 0 24 24" fill="none" xmlns="http://www.w3.org/2000/svg">
<path fill-rule="evenodd" clip-rule="evenodd" d="M12 0C18.6264 0 24 5.3736 24 12C24 18.6264 18.6264 24 12 24C5.3736 24 0 18.6264 0 12C0 5.3736 5.3736 0 12 0Z" fill="#383B4A"/>
<path fill-rule="evenodd" clip-rule="evenodd" d="M18.7272 12.732L18.2376 13.2216C12.6744 7.6824 6.504 10.7616 5.0304 11.628C5.08256 11.4649 5.1731 11.3168 5.2944 11.196L11.2416 5.2488C11.3424 5.14782 11.4621 5.0677 11.5939 5.01304C11.7257 4.95837 11.8669 4.93024 12.0096 4.93024C12.1523 4.93024 12.2936 4.95837 12.4253 5.01304C12.5571 5.0677 12.6768 5.14782 12.7776 5.2488L18.7248 11.196C18.8262 11.2965 18.9068 11.416 18.9618 11.5477C19.0168 11.6795 19.0453 11.8207 19.0455 11.9635C19.0457 12.1063 19.0177 12.2476 18.9631 12.3795C18.9085 12.5114 18.8283 12.6312 18.7272 12.732Z" fill="white"/>
<path fill-rule="evenodd" clip-rule="evenodd" d="M14.1264 17.3328L12.78 18.6792C12.6793 18.7802 12.5595 18.8603 12.4278 18.9149C12.296 18.9696 12.1547 18.9977 12.012 18.9977C11.8694 18.9977 11.7281 18.9696 11.5963 18.9149C11.4645 18.8603 11.3448 18.7802 11.244 18.6792L9.95764 17.3928C12.0264 15.9288 13.7952 17.0856 14.1264 17.3328Z" fill="white"/>
<path fill-rule="evenodd" clip-rule="evenodd" d="M17.9351 13.524L16.3991 15.06C11.8343 10.8264 7.25515 13.5528 6.56875 14.004L6.23035 13.6656C6.2349 13.6632 6.23897 13.6599 6.24235 13.656C12.2231 8.86082 17.4287 13.0896 17.9351 13.524Z" fill="white"/>
<path fill-rule="evenodd" clip-rule="evenodd" d="M8.57041 16.008L8.20081 15.6384C11.7504 12.4032 15.6504 15.156 16.0272 15.4344L14.4576 17.004C11.6472 14.2992 9.04081 15.7128 8.57041 16.008Z" fill="white"/>
</svg>
