<svg width="24" height="24" viewBox="0 0 24 24" fill="none" xmlns="http://www.w3.org/2000/svg">
<path d="M12 24C18.6274 24 24 18.6274 24 12C24 5.37258 18.6274 0 12 0C5.37258 0 0 5.37258 0 12C0 18.6274 5.37258 24 12 24Z" fill="#00ABDF"/>
<path d="M17.8293 7.83285L11.9835 3.77719L6.13782 7.83285L11.9835 19.2477L17.8293 7.83285ZM11.9835 21.3643L4.89429 7.52131L11.9835 2.60291L19.0728 7.52131L11.9835 21.3643Z" fill="white"/>
<path d="M6.13782 16.1344L11.9835 20.19L17.8293 16.1344L11.9835 4.71958L6.13782 16.1344ZM11.9835 2.60291L19.0728 16.4459L11.9835 21.3643L4.89429 16.4459L11.9835 2.60291Z" fill="white"/>
</svg>
