<svg width="24" height="24" viewBox="0 0 24 24" fill="none" xmlns="http://www.w3.org/2000/svg">
<path d="M14.2579 23.985C12.5464 23.985 11.2971 23.5727 10.5102 22.7482C9.78117 22.0503 9.35812 21.0921 9.33351 20.0832C9.32465 19.7767 9.39568 19.4732 9.53963 19.2024C9.6739 18.9685 9.86785 18.7744 10.1017 18.6399C10.6527 18.3651 11.3008 18.3651 11.8518 18.6399C12.0853 18.7738 12.2783 18.9681 12.4107 19.2024C12.5589 19.4718 12.6325 19.7759 12.6242 20.0832C12.6395 20.4503 12.5342 20.8122 12.3245 21.1138C12.1496 21.36 11.8997 21.5429 11.6122 21.6351C11.8933 21.9931 12.2912 22.2411 12.7364 22.336C13.2346 22.4806 13.7505 22.555 14.2692 22.557C14.9559 22.563 15.6285 22.3619 16.1993 21.9799C16.7913 21.5616 17.2329 20.9637 17.4584 20.2747C17.7444 19.4548 17.8839 18.5909 17.8707 17.7227C17.8937 16.8174 17.741 15.9163 17.4209 15.0693C17.1802 14.3918 16.7232 13.8123 16.1205 13.4203C15.5603 13.0658 14.91 12.8798 14.247 12.8844C13.6694 12.9334 13.1123 13.1225 12.6242 13.4353L11.4209 14.0386V13.4353L16.8288 6.18068H9.33351V13.7089C9.31233 14.2522 9.45604 14.7891 9.74575 15.2492C10.0308 15.6569 10.5085 15.8858 11.0049 15.8525C11.4559 15.8434 11.892 15.6897 12.249 15.4141C12.6538 15.1175 13.0059 14.7552 13.2909 14.3422C13.3166 14.2698 13.3639 14.207 13.4265 14.1624C13.4767 14.119 13.5408 14.0951 13.6071 14.095C13.7373 14.1068 13.8606 14.1592 13.9595 14.2448C14.0847 14.3847 14.1529 14.5666 14.1505 14.7544C14.1361 14.8807 14.1135 15.0058 14.0831 15.1292C13.8168 15.7736 13.3705 16.3277 12.7975 16.7252C12.2654 17.0853 11.6369 17.2762 10.9944 17.2729C9.3716 17.2729 8.24738 16.9531 7.62174 16.3135C6.97211 15.5994 6.63714 14.6539 6.6923 13.6901V6.18068H2.88V4.78193H6.71007V1.59267L5.83318 0.715182V0H8.37772L9.33351 0.494755V4.78193L19.2346 4.75182L20.2204 5.74118L14.1492 11.8419C14.5159 11.6944 14.9022 11.601 15.2959 11.5646C16.075 11.5987 16.8352 11.8157 17.5149 12.198C18.302 12.5721 18.9654 13.1641 19.4263 13.9037C19.8393 14.5299 20.1317 15.2277 20.2883 15.9612C20.4171 16.5398 20.4861 17.1301 20.4945 17.7228C20.4984 18.8539 20.242 19.9708 19.7449 20.9869C19.2735 21.9708 18.4801 22.7642 17.4962 23.2356C16.489 23.7319 15.3807 23.9884 14.2579 23.985Z" fill="#2C7DF7"/>
</svg>
