<svg width="24" height="24" viewBox="0 0 24 24" fill="none" xmlns="http://www.w3.org/2000/svg">
<path fill-rule="evenodd" clip-rule="evenodd" d="M24 12C24 18.6274 18.6274 24 12 24C5.37255 24 0 18.6274 0 12C0 5.37255 5.37255 0 12 0C18.6274 0 24 5.37255 24 12Z" fill="#A4252E"/>
<path fill-rule="evenodd" clip-rule="evenodd" d="M12 22.2541C6.34591 22.2541 1.74587 17.6541 1.74587 12C1.74587 6.34585 6.34591 1.74581 12 1.74581C17.6542 1.74581 22.2542 6.34585 22.2542 12C22.2542 17.6541 17.6542 22.2541 12 22.2541ZM12 1.08282C5.98034 1.08282 1.08289 5.98028 1.08289 12C1.08289 18.0197 5.98034 22.9171 12 22.9171C18.0197 22.9171 22.9172 18.0197 22.9172 12C22.9172 5.98028 18.0197 1.08282 12 1.08282Z" fill="#FFFFFE"/>
<path fill-rule="evenodd" clip-rule="evenodd" d="M7.08262 18.7483H10.8976L19.6463 6.26569H16.1133L9.97475 15.0337V6.26569H6.73356L5.23767 8.35998H7.08262V18.7483Z" fill="#FFFFFE"/>
</svg>
