<svg width="24" height="24" viewBox="0 0 24 24" fill="none" xmlns="http://www.w3.org/2000/svg">
<path d="M12 24C18.6274 24 24 18.6274 24 12C24 5.37258 18.6274 0 12 0C5.37258 0 0 5.37258 0 12C0 18.6274 5.37258 24 12 24Z" fill="#23B852"/>
<path d="M14.0438 14.361H16.5863V16.584H8.94754L18.4298 7.09503C18.5802 6.94285 18.6829 6.75016 18.7256 6.54051C18.7682 6.33086 18.7488 6.11334 18.6698 5.91453C18.5859 5.71693 18.4456 5.54847 18.2664 5.43026C18.0873 5.31205 17.8772 5.24936 17.6625 5.25003H6.33754C6.19432 5.24903 6.05233 5.27652 5.91984 5.33092C5.78735 5.38531 5.667 5.46551 5.5658 5.56685C5.4646 5.66819 5.38456 5.78865 5.33035 5.92122C5.27614 6.05379 5.24884 6.19581 5.25004 6.33903V14.361L9.95629 9.65103H7.41379V7.41603H15.0398L5.57029 16.905C5.41992 17.0572 5.31714 17.2499 5.27452 17.4595C5.23189 17.6692 5.25127 17.8867 5.33029 18.0855C5.50204 18.4868 5.89129 18.75 6.33754 18.75H17.6625C17.8055 18.75 17.947 18.7218 18.0791 18.6671C18.2111 18.6124 18.331 18.5321 18.432 18.431C18.533 18.3298 18.6131 18.2098 18.6677 18.0777C18.7223 17.9455 18.7502 17.804 18.75 17.661V9.65103L14.0438 14.361Z" fill="white"/>
</svg>
