<svg width="24" height="24" viewBox="0 0 24 24" fill="none" xmlns="http://www.w3.org/2000/svg">
<path fill-rule="evenodd" clip-rule="evenodd" d="M12 0C18.6264 0 24 5.3736 24 12C24 18.6264 18.6264 24 12 24C5.3736 24 0 18.6264 0 12C0 5.3736 5.3736 0 12 0Z" fill="#006AE3"/>
<path d="M11.5056 17.0592V7.0752H12.5928V17.0592H11.5056Z" fill="white"/>
<path d="M17.04 10.4016L13.6824 11.292L12.9336 7.80717L13.932 7.58157L14.3256 9.23277C14.3256 9.23277 15.2328 7.74477 14.0232 6.20397C13.3104 5.41197 12.972 5.37837 12.1728 5.25357C11.4696 5.15277 9.83519 5.39037 9.34799 7.29837C9.14159 8.52717 9.37439 9.43677 10.9584 10.6272L10.8696 11.952C10.8696 11.952 9.10079 10.7064 8.64479 9.83277C8.29199 9.14157 7.68719 7.77597 8.77919 5.87517C9.36719 4.92477 10.5264 4.01277 12.5688 4.10877C13.596 4.15197 16.104 5.40717 15.7152 8.33997C15.648 8.88957 15.3624 9.62157 15.3624 9.62157L16.74 9.31437L17.04 10.4016Z" fill="white"/>
<path d="M15.1224 18.2136C14.508 19.1472 13.3248 20.028 11.2872 19.8792C10.26 19.8096 7.78801 18.4872 8.25361 15.5664C8.33521 15.0192 8.64001 14.2968 8.64001 14.2968L7.25521 14.5656L6.98401 13.4736L10.3656 12.672L11.0232 16.176L10.0176 16.3752L9.66721 14.712C9.66721 14.712 8.72161 16.1736 9.88801 17.748C10.5792 18.5592 10.9152 18.6 11.7144 18.7464C12.4128 18.8664 14.0544 18.6696 14.592 16.776C14.8296 15.5544 14.6208 14.6376 13.0704 13.404L13.1952 12.0816C13.1952 12.0816 14.9304 13.3728 15.3624 14.2584C15.6936 14.9616 16.2624 16.344 15.1224 18.2136Z" fill="white"/>
</svg>
