<svg width="24" height="24" viewBox="0 0 24 24" fill="none" xmlns="http://www.w3.org/2000/svg">
<path d="M12 24C5.38272 24 0 18.6173 0 12C0 5.38272 5.38272 0 12 0C18.6173 0 24 5.38272 24 12C24 18.6173 18.6173 24 12 24ZM12 1.94304C6.45216 1.94304 1.94304 6.45216 1.94304 12C1.94304 17.5478 6.45216 22.057 12 22.057C17.5478 22.057 22.057 17.5478 22.057 12C22.057 6.45216 17.5478 1.94304 12 1.94304Z" fill="#E6201A"/>
<path d="M17.6064 7.97757C17.1792 6.98685 16.2461 6.36477 15.168 6.36477L8.81279 6.30621H8.79359C7.74431 6.30621 6.82079 6.89853 6.40319 7.86045C5.96639 8.84157 6.15071 9.94941 6.88895 10.7366L7.76351 11.6793L9.08543 10.2509L8.31743 9.41565C8.01599 9.08541 8.13311 8.74557 8.18111 8.63805C8.23007 8.52189 8.40479 8.23965 8.79359 8.23965H8.80319L15.1574 8.29821C15.5942 8.29821 15.7795 8.63805 15.8275 8.74557C15.8861 8.87229 15.983 9.20253 15.7114 9.49341L12.5635 12.9139C12.3888 13.0982 12.1747 13.128 12.0682 13.128C11.8637 13.128 11.6698 13.0406 11.5334 12.8851L10.9987 12.312L9.67679 13.7405L10.104 14.1974C10.609 14.7417 11.328 15.0624 12.0672 15.0624C12.7958 15.0624 13.5053 14.7513 13.991 14.2166L17.1389 10.7961C17.8493 10.0368 18.024 8.94909 17.6064 7.97757Z" fill="#E6201A"/>
<path d="M17.2367 13.0887L16.3429 12.1172L14.8175 13.7693L15.5855 14.6046C15.79 14.8282 15.7314 15.0711 15.6729 15.1969C15.6345 15.2842 15.4885 15.5559 15.1381 15.5559L8.78396 15.6145C8.46333 15.6145 8.33661 15.4004 8.29821 15.3034C8.24925 15.2065 8.17149 14.9444 8.40477 14.691L11.6111 11.2224C11.7273 11.0957 11.8732 11.0285 12.0383 11.0285C12.1257 11.0285 12.2908 11.0477 12.4271 11.1936L13.0876 11.9127L14.613 10.2605L14.0783 9.67777C13.5532 9.11424 12.815 8.784 12.0479 8.784C11.2607 8.784 10.5129 9.11424 9.97819 9.69697L6.77182 13.1655C5.99423 14.0007 5.80031 15.1671 6.25727 16.2068C6.70463 17.2177 7.67614 17.8494 8.78396 17.8494L15.1583 17.7908C16.2853 17.7812 17.276 17.1303 17.7234 16.0811C18.1794 15.051 17.9951 13.9047 17.2367 13.0887Z" fill="#E6201A"/>
</svg>
