<svg width="24" height="24" viewBox="0 0 24 24" fill="none" xmlns="http://www.w3.org/2000/svg">
<path d="M20.9532 9.91733L17.4976 11.4581L8.3302 16.1243L17.4976 20.5319V13.2464L20.9532 11.6892V22.4523L17.4976 23.9931L3.99963 17.533V14.0993L13.3431 9.51563L3.99963 5.02549V1.54232L7.51031 0.00158691L20.9532 6.47268V9.91733Z" fill="black"/>
<path d="M3.99963 1.54233L17.4976 8.01348L20.9532 6.47273L7.51031 0.00158691L3.99963 1.54233Z" fill="#087A8E"/>
<path d="M17.4977 7.99874L20.9534 6.45801V9.90265L17.4977 11.4434V7.99874Z" fill="#2A8E97"/>
<path d="M3.99963 1.54529V5.02845L13.3431 9.5186L3.99963 14.1023V17.5359L17.4976 23.996V20.5404L8.3302 16.1273L17.4976 11.461V8.01638L3.99963 1.54529Z" fill="#49C1BF"/>
<path d="M17.4977 23.9704L20.9534 22.4296V11.6665L17.4977 13.2237V23.9704Z" fill="#2A8E97"/>
</svg>
