<svg width="24" height="24" viewBox="0 0 24 24" fill="none" xmlns="http://www.w3.org/2000/svg">
<path fill-rule="evenodd" clip-rule="evenodd" d="M7.88183 18.4843C6.69223 19.3913 5.50302 20.2979 4.31384 21.2045C1.6776 19.0067 0 15.6977 0 11.997C0 9.81825 0.581375 7.77537 1.59787 6.01471L7.05545 13.154L5.03072 15.2614C5.26586 15.7386 5.61956 16.3386 6.1464 16.9555C6.7604 17.6744 7.39467 18.1649 7.88183 18.4843Z" fill="#004466"/>
<path fill-rule="evenodd" clip-rule="evenodd" d="M18.4701 16.0981C19.3772 17.2877 20.2837 18.4769 21.1903 19.6661C18.9925 22.3023 15.6835 23.9799 11.9829 23.9799C9.80405 23.9799 7.76118 23.3986 6.00055 22.3821L13.1398 16.9245L15.2472 18.9492C15.7244 18.7141 16.3244 18.3604 16.9413 17.8335C17.6603 17.2195 18.1507 16.5853 18.4701 16.0981Z" fill="#004466"/>
<path fill-rule="evenodd" clip-rule="evenodd" d="M16.0839 5.50975C17.2735 4.60279 18.4628 3.69623 19.6519 2.78967C22.2882 4.98747 23.9658 8.29639 23.9658 11.997C23.9658 14.1759 23.3844 16.2188 22.3679 17.9794L16.9104 10.8401L18.9351 8.73274C18.6999 8.25551 18.3462 7.65554 17.8194 7.03863C17.2054 6.31966 16.5711 5.82918 16.0839 5.50975Z" fill="#004466"/>
<path fill-rule="evenodd" clip-rule="evenodd" d="M5.49557 7.89602C4.5886 6.70639 3.68201 5.51721 2.77545 4.328C4.97328 1.69176 8.2822 0.0141602 11.9829 0.0141602C14.1617 0.0141602 16.2046 0.595535 17.9652 1.61203L10.8259 7.06961L8.71855 5.04492C8.24129 5.28002 7.64132 5.63372 7.02441 6.16056C6.30544 6.77459 5.815 7.40886 5.49557 7.89602Z" fill="#004466"/>
</svg>
