<svg width="117" height="71" viewBox="0 0 117 71" fill="none" xmlns="http://www.w3.org/2000/svg">
  <path
    d="M33.4248 13.0719C33.7832 13.0719 34.2067 12.9113 34.6628 12.6222C35.5749 12.0441 36.031 11.2733 36.031 10.3419C36.031 8.96083 35.2492 8.76813 34.7605 8.76813C34.3044 8.76813 33.6854 8.92871 33.3271 9.76377C33.099 10.3098 32.9036 10.8558 32.8058 11.4018C32.7081 11.8514 32.5778 11.9478 32.5778 11.9478H32.1217L32.3172 12.4938C32.4149 12.7186 32.6755 13.0719 33.4248 13.0719Z"
    fill="#787b7c" />
  <path
    d="M32.024 33.7236C32.7407 33.7236 33.5551 33.2739 34.4999 32.3104C35.3795 31.4111 36.1613 30.4154 36.8781 29.3234C37.4645 28.4241 38.0834 27.3643 38.7024 26.2401C38.6047 26.7861 38.5395 27.3321 38.4418 27.9424L37.6925 32.6958C36.9106 33.3382 35.9659 34.3338 34.956 35.7149C32.6429 38.766 31.0466 41.753 30.1996 44.5793C29.9064 45.6071 29.7435 46.4743 29.7435 47.1809C29.7435 48.8831 30.6231 49.7824 32.2846 49.7824C34.6953 49.7824 36.65 47.1166 38.3115 41.6566C39.354 38.3485 40.5919 32.1498 42.0579 23.2211C43.0678 23.1247 44.0777 22.8678 45.0877 22.4824L45.2831 22.4181L45.3483 20.8444L44.8596 21.0692C44.0126 21.4546 43.1656 21.6794 42.286 21.7758C42.6769 19.4312 42.9701 17.5684 43.1982 16.2837L43.9149 16.1231H43.9474C46.1627 15.4486 48.0848 13.65 49.6485 10.7594C50.9191 8.38271 51.5706 6.13448 51.5706 4.04683C51.5706 0.706589 49.9743 0 48.6712 0C47.6613 0 46.7165 0.449647 45.8369 1.34894C45.0225 2.21612 44.3058 3.30812 43.7194 4.59283C42.286 7.64401 40.8851 13.2004 39.6146 21.0371L39.2237 21.84H38.5395C38.4092 21.84 38.0183 21.9043 38.0183 22.5466C38.0183 23.189 38.3766 23.2532 38.5395 23.2532L38.2789 23.7992C37.3667 25.6299 36.2591 27.4927 34.9885 29.3556C33.3922 31.668 32.6104 32.0213 32.252 32.0213C32.0891 32.0213 31.633 32.0213 31.633 30.6081C31.633 29.484 31.7959 28.1672 32.0891 26.7219C32.252 25.7905 32.4149 25.0518 32.5452 24.4737C32.6755 23.8634 32.871 23.0605 33.1316 22.097C33.3597 21.1334 33.5551 20.3947 33.6529 19.8808C33.7506 19.367 33.8157 18.8531 33.8157 18.3713C33.8157 17.8895 33.7506 17.472 33.6529 17.1187C33.3271 16.0588 32.7081 15.834 32.2846 15.834C31.9262 15.834 31.4376 16.0267 31.2421 16.926C31.1444 17.2793 31.0792 17.6326 30.9815 18.018C30.9163 18.3713 30.8186 18.6925 30.7534 18.9494C30.6883 19.1743 30.5905 19.5275 30.4928 20.0093C29.2549 24.3452 28.6685 27.557 28.6685 29.5161C28.6685 32.9849 30.4928 33.7236 32.024 33.7236ZM34.956 44.5472C34.1415 46.8597 33.1642 48.048 32.0565 48.048C31.9262 48.048 31.4701 48.048 31.4701 46.8597C31.4701 45.8962 32.1869 43.937 33.5877 41.0464C34.7605 38.6054 35.9985 36.6142 37.2364 35.1367C36.5197 39.1193 35.7704 42.299 34.956 44.5472ZM45.9347 4.914C46.7491 2.69788 47.7265 1.57377 48.8015 1.57377C49.4531 1.57377 49.7789 2.34459 49.7789 3.88624C49.7789 5.58848 49.1599 7.61189 47.9545 9.89224C46.6514 12.3974 45.1528 13.9712 43.4913 14.5172C44.2732 10.374 45.0877 7.13012 45.9347 4.914Z"
    fill="#787b7c" />
  <path
    d="M46.4559 21.84C45.6741 23.6386 45.2831 25.2124 45.2831 26.465C45.2831 27.7176 45.4134 28.7774 45.6741 29.6125C46.4885 32.3104 48.4106 33.6914 51.4078 33.6914C52.4828 33.6914 53.623 33.2097 54.7958 32.3104C55.9361 31.4111 56.946 30.4154 57.7604 29.3234C58.3142 28.5847 58.9006 27.7497 59.487 26.8183C59.259 27.8781 59.0961 28.7132 58.9658 29.2913C58.7378 30.3191 58.64 30.9936 58.64 31.379C58.64 31.7965 58.7052 32.1819 58.8681 32.5352C59.2264 33.4345 59.8454 33.6272 60.2689 33.6272C60.725 33.6272 61.0834 33.2739 61.2788 32.5994C61.963 30.3833 63.0054 27.6212 64.3411 24.3773C65.1556 22.3539 66.0352 20.6838 66.9799 19.3991C67.8595 18.1786 68.674 17.5363 69.3255 17.5363C69.5536 17.5363 70.0097 17.5363 70.0097 18.4998C70.0097 19.3348 69.6187 21.2298 68.8043 24.1846C67.9898 27.1716 67.5989 29.4519 67.5989 30.9936C67.5989 34.3017 69.0649 35.0083 70.3029 35.0083C70.6938 35.0083 71.0522 34.8798 71.3779 34.655C71.7037 34.398 71.8666 34.1411 71.8666 33.8199V33.4987H71.5408C71.1173 33.4987 70.8893 32.6637 70.8893 31.1863C70.8893 30.03 71.2476 27.9424 71.9318 24.9554C72.6485 21.9043 73.0068 19.9451 73.0068 19.0458C73.0068 18.0823 72.7462 17.3114 72.1924 16.7333C71.6386 16.1552 70.8893 15.8661 69.9771 15.8661C67.6641 15.8661 65.4814 18.018 63.2661 22.4181C63.6244 20.459 64.0154 18.3392 64.4389 16.0588C65.5791 15.4807 66.7519 14.2602 67.9898 12.3011C69.749 9.53895 70.8567 6.84107 71.2802 4.23953C71.3779 3.69353 71.4105 3.21177 71.4105 2.76212C71.4105 0.481765 70.2377 0 69.2278 0C67.7618 0 66.4587 1.22047 65.351 3.66142C64.7972 4.84977 64.3086 6.10236 63.885 7.38707C63.4615 8.67177 63.0054 10.3098 62.5494 12.3974C62.0607 14.5814 61.6372 16.38 61.3114 17.8895C61.1159 18.8531 60.8553 19.9772 60.5947 21.2619L60.1712 22.1291C59.487 23.6707 58.2491 25.6941 56.5225 28.1351C55.7406 29.195 54.8936 30.0943 53.9488 30.833C53.0366 31.5396 52.1896 31.925 51.3752 31.925C49.3554 31.925 48.378 30.4797 48.378 27.5248C48.378 25.373 48.9644 23.1247 50.0721 20.8444C51.1797 18.6283 52.3851 17.5041 53.6556 17.5041C53.9814 17.5041 54.3072 17.6005 54.3072 18.3071C54.3072 19.0137 54.1443 19.7203 53.7859 20.459C53.4276 21.2298 53.2321 21.3904 53.167 21.4225H52.776L52.9389 21.84C53.1344 22.4181 53.5253 22.4824 53.7534 22.4824C54.3723 22.4824 54.9262 22.2254 55.4148 21.7758C55.8709 21.3261 56.1967 20.7801 56.327 20.202C56.4573 19.6239 56.555 19.0137 56.555 18.3713C56.555 17.6647 56.2618 17.0224 55.6754 16.4443C55.1868 15.9946 54.5026 15.7377 53.6556 15.7377C52.8737 15.7377 52.0593 15.9304 51.2449 16.2837C49.1925 17.2793 47.5962 19.1421 46.4559 21.84ZM69.3255 1.57377C69.6513 1.73435 69.8142 2.15188 69.8142 2.82636C69.8142 4.56071 69.0323 6.93742 67.5012 9.92436C66.589 11.6587 65.7094 12.9434 64.895 13.7785C66.9474 3.43659 68.5437 1.67012 69.3255 1.57377Z"
    fill="#787b7c" />
  <path
    d="M77.5026 33.6593C79.4246 33.6593 81.6725 31.379 84.3113 26.6898C84.181 27.557 84.1484 28.3599 84.1484 29.0665C84.1484 32.1819 85.2887 33.7557 87.5039 33.7557C88.2207 33.7557 89.0351 33.306 89.9799 32.3425C90.8595 31.4432 91.6413 30.4476 92.358 29.3556C92.8141 28.649 93.3028 27.846 93.7915 26.9467C93.6611 27.9745 93.5634 28.8417 93.5634 29.5161C93.5634 32.9849 95.3878 33.7236 96.9189 33.7236C97.6356 33.7236 98.4501 33.2739 99.3948 32.3104C100.274 31.4111 101.056 30.4154 101.773 29.3234C102.294 28.5205 102.815 27.6212 103.369 26.6577C102.881 29.5483 102.62 31.1863 102.62 31.5396C102.62 33.2418 103.434 33.5951 104.086 33.5951C104.444 33.5951 104.933 33.4024 105.129 32.4389C105.259 31.8607 105.715 30.4154 106.562 28.1351C107.376 25.8547 108.484 23.4138 109.852 20.9086C111.481 17.9217 112.524 17.2793 113.11 17.2793C113.468 17.2793 113.794 17.4078 113.794 18.2428C113.794 19.0779 113.371 21.005 112.556 24.024C111.709 27.1073 111.286 29.4198 111.286 30.9614C111.286 34.2696 112.752 34.9762 113.99 34.9762C114.381 34.9762 114.739 34.8477 115.065 34.6229C115.391 34.3659 115.553 34.109 115.553 33.7878V33.4666H115.228C114.804 33.4666 114.576 32.6316 114.576 31.1541C114.576 29.9979 114.934 27.8781 115.684 24.8912C116.433 21.8079 116.791 19.8166 116.791 18.8852C116.791 17.8895 116.531 17.0866 116.01 16.5085C115.488 15.8983 114.706 15.6092 113.762 15.6092C111.579 15.6092 109.396 17.8574 107.116 22.4503L107.409 20.9407C107.507 20.3947 107.572 19.913 107.572 19.4312C107.572 18.9494 107.507 18.4998 107.344 18.0823C106.985 17.0224 106.366 16.8297 105.943 16.8297C105.617 16.8297 105.031 16.9903 104.868 17.9538C104.64 19.1421 104.444 20.2663 104.249 21.3261L103.011 23.8313C102.099 25.662 100.991 27.5248 99.7206 29.3877C98.1243 31.7001 97.3424 32.0534 96.9841 32.0534C96.8212 32.0534 96.3651 32.0534 96.3651 30.6403C96.3651 29.5161 96.528 28.1993 96.8212 26.754C96.9841 25.8226 97.147 25.0839 97.2773 24.5058C97.4076 23.8956 97.6031 23.0926 97.8637 22.1291C98.0917 21.1656 98.2872 20.4268 98.3849 19.913C98.4827 19.3991 98.5478 18.8852 98.5478 18.4034C98.5478 17.9217 98.4827 17.5041 98.3849 17.1508C98.0591 16.091 97.4402 15.8661 97.0167 15.8661C96.6583 15.8661 96.1696 16.0588 95.9742 16.9581C95.8764 17.3114 95.8113 17.6647 95.7135 18.0501C95.6484 18.4355 95.5507 18.7246 95.4855 18.9815C95.4203 19.2064 95.3226 19.5597 95.2249 20.0414C95.1271 20.4268 95.0294 20.8444 94.9317 21.1977L93.596 23.8313C92.6838 25.662 91.5762 27.5248 90.3056 29.3877C88.7093 31.7001 87.9274 32.0534 87.5691 32.0534C87.0479 32.0534 86.9501 31.1863 86.9501 30.4476C86.9501 30.1585 86.9827 29.6767 87.0479 29.0344C87.113 28.3599 87.6017 25.8547 88.5139 21.5831C88.6116 21.1013 88.6442 20.6838 88.6442 20.2984C88.6442 18.6283 87.8949 18.275 87.3085 18.275C86.5918 18.275 86.1683 19.2064 85.9402 19.913C85.6144 20.8444 84.5394 22.9641 82.715 26.208C81.868 27.7497 80.9558 29.0986 79.9785 30.2549C78.8057 31.6038 78.089 31.8929 77.698 31.8929C77.1116 31.8929 76.9813 30.8009 76.9813 29.8694C76.9813 27.3964 77.6329 24.7306 78.936 21.9685C80.2717 19.0458 81.7377 17.6005 83.3014 17.6005C83.7249 17.6005 84.0181 17.6647 84.2136 17.8253C84.4742 18.018 84.4742 18.1786 84.4742 18.2428C84.4742 18.6604 84.7348 18.9173 85.1583 18.9494C85.3864 18.9494 85.5493 18.9173 85.7122 18.7888C85.8099 18.6925 85.9076 18.564 85.9076 18.3071C85.9076 17.6968 85.647 17.1187 85.1583 16.637C84.6697 16.1552 83.9855 15.8982 83.1385 15.8982C82.3567 15.8982 81.5422 16.0588 80.7603 16.38C78.5776 17.3114 76.7858 19.367 75.385 22.4181C74.3751 24.6664 73.8864 26.754 73.8864 28.649C73.9516 31.925 75.157 33.6593 77.5026 33.6593Z"
    fill="#787b7c" />
  <path
    d="M98.3523 13.0719C98.7107 13.0719 99.1342 12.9113 99.5903 12.6222C100.502 12.0441 100.959 11.2733 100.959 10.3419C100.959 8.96083 100.177 8.76813 99.688 8.76813C99.2319 8.76813 98.613 8.92871 98.2546 9.76377C98.0266 10.3098 97.8311 10.8558 97.7334 11.4018C97.6356 11.8514 97.5053 11.9478 97.5053 11.9478H97.0818L97.2773 12.4938C97.3424 12.7186 97.6031 13.0719 98.3523 13.0719Z"
    fill="#787b7c" />
  <path
    d="M29.7435 60.7988C25.6387 58.2936 20.524 59.1286 16.0609 57.8761C11.1742 56.5271 7.36258 53.0584 4.1048 49.3649C4.07222 49.3328 4.00707 49.3649 4.03965 49.4291C7.13454 53.8935 11.6303 57.6191 17.0708 58.7753C20.0679 59.4177 23.1954 59.3213 26.16 60.1243C27.7889 60.5418 29.4177 61.2484 30.6231 62.4046C30.8512 62.6295 31.3724 63.0791 31.405 63.4645C31.4376 64.139 30.6557 64.8135 30.0367 64.8456C29.5155 64.8777 28.7988 64.5565 28.6685 64.0426C28.5381 63.4966 29.3526 62.8864 29.8413 63.2397C30.1019 63.4324 30.3625 63.0149 30.167 62.7901C28.6033 61.2484 26.4532 64.7814 29.2874 65.5522C30.4277 65.8734 31.9914 65.2952 32.252 64.0105C32.4801 62.6295 30.786 61.4411 29.7435 60.7988Z"
    fill="#787b7c" />
  <path
    d="M115.391 45.1896C113.99 43.937 111.416 43.9691 110.732 45.9925C110.146 47.6947 111.905 49.4612 113.501 48.6904C113.99 48.4656 113.664 47.6948 113.143 47.8875C111.937 48.3371 111.155 46.4422 112.068 45.7035C112.687 45.1896 113.534 45.1896 114.218 45.575C115.293 46.1852 116.205 47.7269 115.977 49.0116C115.553 51.2919 111.644 52.4803 109.787 52.9299C105.422 54.0219 100.731 53.3796 96.3977 52.127C87.9275 49.686 80.011 45.4465 70.987 46.4422C68.7066 46.6991 66.1329 47.213 63.7222 48.0802C62.9729 48.2407 62.1584 48.4656 61.344 48.7225C60.2363 49.0758 59.0635 49.4933 57.8907 49.9751C56.6854 50.4569 55.48 51.0029 54.242 51.581C51.7661 52.7051 49.1925 53.9256 46.5862 55.0176C43.98 56.0775 41.3412 57.0089 38.8001 57.5549C37.5622 57.8118 36.3568 58.0045 35.2166 58.133C34.6302 58.1009 34.0764 58.0366 33.49 58.0366C33.0013 58.0045 32.5452 58.0045 32.0565 57.9724C31.2095 57.6833 30.2973 57.4264 29.3526 57.1695C28.2124 56.8804 27.0396 56.5913 25.8342 56.3344C23.4234 55.7884 20.8824 55.2745 18.4065 54.6001C15.9305 53.9577 13.5198 53.1548 11.4022 52.1591C10.262 51.6452 9.21951 51.0671 8.27476 50.4569C8.30734 50.4248 8.33991 50.4248 8.37249 50.3926C10.3923 51.324 12.6402 51.8379 14.8555 51.8379C17.5594 51.8379 20.1657 51.0671 22.837 50.7459C24.303 50.5853 26.5835 50.232 27.7237 51.3562C28.6685 52.2876 27.9843 53.4438 26.8441 53.765C26.4206 53.8613 26.0297 53.8935 25.5736 53.7971C25.0849 53.7971 24.7265 53.5402 24.5637 53.0263C24.8569 52.7693 25.1826 52.5124 25.4758 52.2555C25.8993 52.416 26.1925 51.87 25.8342 51.6452C24.8894 51.0671 23.7166 51.7095 23.7166 52.8336C23.7166 54.1504 25.0849 54.7928 26.2577 54.7606C27.5282 54.7285 29.0594 54.0862 29.1571 52.6409C29.2549 51.2919 28.1146 50.2642 26.8767 49.943C25.0849 49.4612 22.9999 49.8466 21.2081 50.1999C18.9603 50.6175 16.7124 51.1635 14.3994 51.1313C13.8781 51.1313 13.3895 51.0671 12.9008 51.035C14.0736 50.9386 15.2464 50.6817 16.0609 50.1036C18.5368 50.3284 21.2733 49.8787 22.8045 47.759C22.9348 47.5663 22.7719 47.3415 22.609 47.3093C20.8824 46.7955 18.9603 47.0524 17.4617 48.1123C16.9079 48.4977 16.5169 48.9795 16.0609 49.397C15.9305 49.397 15.8002 49.397 15.6699 49.4291C15.4093 49.4291 15.3116 49.7503 15.4093 49.9109C15.1812 50.0393 14.9532 50.1678 14.66 50.2642C13.6827 50.5532 12.6402 50.7138 11.6303 50.8102C10.5552 50.5853 9.54529 50.232 8.56796 49.7824C8.56796 49.686 8.53538 49.5897 8.5028 49.5255C9.6756 49.5897 10.9136 49.3328 12.0212 49.0437C14.3017 48.4977 16.3866 47.3736 17.4291 45.2217C17.5268 45.0611 17.4943 44.772 17.2662 44.6757C15.1812 43.8406 12.9008 43.6158 10.7181 44.226C9.70818 44.5151 8.56796 44.9326 7.81867 45.6713C7.49289 45.9925 7.36258 46.3137 7.13454 46.667C6.54814 47.5342 5.79885 47.759 5.04956 47.5663C4.49573 47.1166 4.00707 46.667 3.48582 46.1531C2.57365 44.5793 2.08498 42.845 2.08498 40.95C2.08498 39.0872 2.28045 37.3529 2.6388 35.8433C4.49573 37.9631 7.13454 39.023 10.49 39.023C12.9985 39.023 15.2138 38.5733 17.1033 37.7062C18.9929 36.8069 20.524 35.5864 21.6317 34.0126C22.7067 32.4389 23.5212 30.7045 24.0424 28.8096C24.5637 26.9146 24.8243 24.9233 24.8243 22.8999C24.8243 20.9086 24.4008 17.1187 23.5863 11.6266C25.2152 10.1171 26.4532 8.70389 27.3002 7.4513C28.1798 6.10236 28.6359 4.75342 28.6033 3.37236C28.5381 2.40883 28.2449 1.638 27.7563 0.995648C27.235 0.353294 26.4857 0.0321177 25.5736 0.0321177C22.2506 0 20.524 3.11541 20.524 9.31413C20.524 10.1813 20.5892 11.0806 20.6869 11.9799L15.6373 16.1231C14.432 15.0953 12.8356 14.5814 10.9136 14.5814C9.48014 14.5814 8.07929 14.9026 6.80876 15.5128C5.53822 16.1231 4.43058 16.9902 3.55098 18.018C2.67138 19.0458 1.85693 20.4268 1.10764 22.097C0.358356 23.7992 0 25.7263 0 27.8781C0 30.1264 0.456089 32.1177 1.33569 33.8199C0.651556 35.8433 0.2932 38.1237 0.2932 40.5325C0.2932 43.0377 1.00991 45.3502 2.44333 47.4057C2.932 48.1444 3.5184 48.7225 4.1048 49.2043C6.18978 51.9343 9.51271 54.1504 12.4121 55.6278C17.5268 58.1972 23.0325 58.5184 28.5707 58.7111C28.701 58.7432 28.8313 58.7753 28.9617 58.8075C30.0367 59.1286 31.0466 59.4498 31.9914 59.8031C33.8483 60.5097 35.3143 61.3448 36.2917 62.0513C36.5523 62.2119 36.7477 62.4046 36.9758 62.5652C37.1713 62.7258 37.3341 62.8543 37.497 62.9828C37.6273 63.1112 37.7577 63.2076 37.8554 63.3039C37.9531 63.4003 38.0183 63.4645 38.0509 63.5288C38.7676 64.2675 39.3865 64.9741 39.8752 65.5201C39.9404 65.5843 40.0055 65.6485 40.0707 65.7128C40.1033 65.7449 40.1358 65.777 40.1684 65.777C40.201 65.777 40.201 65.777 40.2336 65.8091H40.2987C40.2661 65.8734 40.2661 65.9697 40.2661 66.0339C40.2661 66.0982 40.2987 66.1303 40.3313 66.1945C40.3639 66.2588 40.4942 66.3551 40.6897 66.323C40.7874 66.323 40.8525 66.2909 40.8851 66.2588C40.9177 66.2267 40.9503 66.2267 41.0154 66.1945C41.0806 66.1303 41.1457 66.0339 41.1783 65.9376C41.2435 65.7449 41.2435 65.6164 41.2435 65.4879C41.2435 65.4237 41.2109 65.3595 41.2109 65.2952C41.2109 65.2631 41.1783 65.1989 41.1783 65.1668C41.1457 65.0704 41.1457 64.9741 41.1132 64.8777C40.9177 64.0748 40.3313 63.0791 39.4843 62.2119C39.4191 62.1477 39.354 62.0835 39.2562 61.955C39.1585 61.8586 38.9956 61.7302 38.8327 61.5696C38.6698 61.409 38.4744 61.2484 38.2463 61.0878C38.1812 61.0236 38.116 60.9915 38.0509 60.9272C39.5494 61.0557 41.0154 61.0236 42.514 60.863C43.2633 61.3448 44.0777 61.8908 44.6316 62.5652C44.8922 62.7901 45.0551 63.0791 45.1528 63.4324C44.8922 63.8821 44.6316 64.3638 44.3384 64.8135C43.5891 64.3317 43.3936 63.8821 43.7194 63.4003C43.7845 63.2718 43.8497 63.1755 43.9474 63.047C44.0777 62.8543 43.8497 62.6295 43.6542 62.6937C42.514 63.0149 42.4163 64.6529 43.3285 65.3274C44.4035 66.1303 45.8369 65.3595 45.9998 64.1069C46.1953 62.5974 44.7945 61.5054 43.5565 60.7345C44.8922 61.2484 46.1627 61.8908 47.3681 62.6937C48.8015 63.6572 51.7661 65.8734 51.4078 67.8968C51.2123 69.0209 49.9743 70.0165 48.8667 70.145C48.1825 70.2414 47.4333 69.9844 47.0749 69.3421C46.5537 68.4428 47.759 67.1581 48.6712 67.8968C49.0296 68.2179 49.5508 67.7041 49.225 67.3508C48.1174 66.2266 46.065 67.0938 46.065 68.6676C46.0324 70.5625 48.2151 71.3976 49.7789 70.8195C51.31 70.2414 52.7109 68.5391 52.2873 66.869C51.7987 64.9419 49.7463 63.2076 48.2151 62.1156C47.2378 61.4411 46.2279 60.863 45.1528 60.3812C45.9347 60.1885 46.684 59.9637 47.4333 59.6746C50.5933 58.4542 53.395 56.495 56.6202 55.4351C58.3794 54.857 60.3015 54.5037 62.1258 54.857C62.4842 54.9212 63.2335 55.0176 63.4941 55.3388C63.9502 55.949 63.657 57.0089 63.0706 57.4264C62.6145 57.7797 61.7675 57.9082 61.3114 57.4906C60.8553 57.0731 61.2462 56.0453 61.8978 56.0453C62.2562 56.0453 62.2562 55.4993 61.9304 55.4351C59.5196 54.9533 59.7477 59.5141 62.81 58.5184C64.0479 58.133 65.1556 56.6556 64.5692 55.3388C63.9502 53.8292 61.6372 53.765 60.2689 53.8292C54.9587 53.9898 50.7562 57.8118 45.8695 59.3856C45.2505 59.5783 44.6316 59.7389 43.98 59.8673C42.5466 59.3213 41.0154 58.9038 39.4843 58.6148C42.0579 58.1651 44.6967 57.3301 47.2704 56.3665C49.9743 55.3709 52.5806 54.2146 55.089 53.1548C56.1641 52.7051 57.2066 52.2876 58.1839 51.87C58.0862 51.9343 58.021 51.9985 58.021 52.0306C58.0536 52.0628 58.2165 52.0306 58.5097 51.9022C58.7052 51.8379 58.9006 51.7737 59.0635 51.6773C59.3242 51.581 59.5848 51.5168 59.8454 51.4204C60.9856 51.035 62.6797 50.5853 64.7321 50.3926C66.7845 50.1999 69.1952 50.2963 71.7689 50.7459C74.3099 51.1956 77.0139 51.9985 79.6527 52.9942C82.2915 53.9898 84.9303 55.146 87.4388 56.2059C88.7093 56.7519 89.9147 57.2337 91.1526 57.7155C92.358 58.1651 93.5308 58.5505 94.6711 58.8717C96.9189 59.4819 98.9387 59.7389 100.502 59.7389C100.893 59.7389 101.252 59.7068 101.578 59.7068C101.903 59.7068 102.197 59.6425 102.425 59.6104C102.685 59.5783 102.881 59.5462 103.044 59.5141C103.206 59.4819 103.337 59.4498 103.434 59.4177C104.77 59.1286 105.943 58.5184 106.627 57.9082C106.725 57.8439 106.79 57.7476 106.888 57.6833C106.92 57.6512 106.953 57.6191 107.018 57.587C107.083 57.5228 107.116 57.4906 107.181 57.4264C107.279 57.2979 107.376 57.1695 107.442 56.9446C107.474 56.8483 107.474 56.6877 107.442 56.5913C107.442 56.5271 107.409 56.495 107.376 56.4308C107.344 56.3665 107.311 56.3023 107.214 56.2381C107.083 56.1096 106.888 56.1096 106.823 56.1417C106.725 56.1738 106.692 56.2059 106.66 56.2702C106.595 56.3344 106.562 56.4308 106.529 56.5271L106.464 56.4629C106.432 56.4629 106.432 56.4629 106.399 56.4629C106.366 56.4629 106.301 56.4629 106.269 56.495C106.171 56.5271 106.073 56.5271 105.976 56.5592C105.194 56.7841 104.184 57.041 103.044 57.2979C102.978 57.3301 102.881 57.3301 102.718 57.3622C102.587 57.3943 102.392 57.4264 102.197 57.4585C102.001 57.4906 101.74 57.5228 101.447 57.5549C101.154 57.587 100.861 57.6191 100.502 57.6191C99.1342 57.6512 97.2773 57.4906 95.1597 56.9446C94.0847 56.6877 92.977 56.3344 91.8042 55.949C90.6314 55.5315 89.3935 55.0818 88.1229 54.5679C85.5818 53.5723 82.9105 52.5124 80.1739 51.581C78.1867 50.9065 76.1994 50.3605 74.2448 49.943C74.2448 49.9109 74.2448 49.9109 74.2448 49.8788C74.1796 49.686 74.0819 49.5576 73.9842 49.4291C73.919 49.3649 73.8864 49.3327 73.8213 49.2685C73.7887 49.2364 73.7561 49.2043 73.691 49.1722C73.6258 49.1079 73.5281 49.0437 73.4303 48.9795C72.7136 48.4335 71.5408 47.9196 70.1726 47.7269C70.0748 47.7269 69.9445 47.6947 69.7816 47.6626C69.6187 47.6305 69.3907 47.6305 69.1626 47.5984C68.9998 47.5984 68.7717 47.5663 68.5762 47.5663C71.0847 47.0845 73.6584 46.9239 76.1994 47.1488C82.3892 47.6626 88.0903 50.3926 93.9218 52.3197C99.2319 54.0862 105.031 55.2745 110.504 53.7971C112.524 53.2511 115.325 52.2233 116.563 50.3605C117.541 48.8189 116.759 46.41 115.391 45.1896ZM17.2337 48.9152C17.7549 48.4656 18.3739 48.1123 19.0254 47.8875C20.0028 47.5342 21.0127 47.5342 22.0226 47.759C20.6217 49.2364 18.7322 49.3006 16.8101 49.3649C16.9404 49.2043 17.0708 49.0437 17.2337 48.9152ZM25.6387 1.73435C26.16 1.73435 26.8767 1.92706 26.8767 3.50083C26.8767 5.10671 25.7039 7.09801 23.3909 9.4426C23.2931 8.5433 23.2605 7.8046 23.2605 7.22648C23.2605 3.59718 24.0424 1.73435 25.6387 1.73435ZM40.4942 65.777C40.4942 65.8091 40.4942 65.8091 40.4942 65.777V65.777ZM16.5495 45.2217C15.6373 46.7955 14.041 47.6305 12.2818 48.1123C10.7507 48.4977 8.66569 49.0116 7.16711 48.2729C9.44756 47.3093 11.7606 46.6349 14.1388 45.8962C14.5297 45.7677 14.3668 45.2538 13.9759 45.318C11.8909 45.6713 9.80591 46.3779 7.78609 47.1488C9.41498 44.2903 13.6501 44.1618 16.5495 45.2217ZM15.4093 20.459C15.4093 22.2575 14.7252 23.8956 13.3569 25.3408C12.4447 26.3365 11.4348 26.8504 10.3597 26.8504H9.9688L10.034 27.2358C10.0991 27.5891 10.2294 27.8781 10.4575 28.0709C10.6529 28.2636 10.9461 28.3599 11.3045 28.3599C12.6728 28.3599 13.9107 27.9424 14.9858 27.1394C16.0283 26.3365 16.7776 25.4051 17.1685 24.3452C17.592 23.3174 17.7875 22.097 17.7875 20.7801C17.7875 19.5275 17.4291 18.4034 16.745 17.3757L20.8498 14.0033C21.3059 18.6925 21.5339 21.5188 21.5339 22.4824C21.5339 26.465 20.6869 29.9337 18.9929 32.7279C18.1458 34.1411 16.973 35.2652 15.4745 36.0682C13.9759 36.8711 12.2167 37.2886 10.2294 37.2886C7.0368 37.2886 4.75636 36.1645 3.25778 33.852C4.23511 31.0578 5.73369 28.4241 7.78609 26.0153C9.77334 23.6707 12.2492 21.2298 15.1487 18.7567C15.3441 19.3027 15.4093 19.8808 15.4093 20.459ZM2.3456 23.9598C3.32293 20.8765 4.91925 18.6283 7.10196 17.3435C8.27476 16.637 9.61045 16.2837 11.0764 16.2837C12.3796 16.2837 13.422 16.637 14.2039 17.3114C8.24218 22.3539 4.20253 27.1073 2.21529 31.5396C1.88951 30.4476 1.72662 29.2913 1.72662 28.0387C1.72662 26.6256 1.92209 25.2766 2.3456 23.9598ZM9.34983 53.0584C8.14445 52.2233 7.10196 51.2598 6.09205 50.2642C6.28751 50.3284 6.48298 50.3605 6.67845 50.4248C7.88382 51.3883 9.34982 52.3197 10.9461 53.1548C13.0963 54.2789 15.5722 55.1782 18.0481 55.9169C20.4589 56.6235 22.8696 57.2337 25.1826 57.8118C22.3809 57.6833 19.6118 57.3943 16.9079 56.6235C14.2365 55.8526 11.6628 54.6322 9.34983 53.0584ZM36.9758 60.2206C36.422 59.8673 35.7704 59.5141 35.0537 59.1608C35.4446 59.1608 35.8681 59.1286 36.2591 59.0965C36.6826 59.1286 37.0735 59.1929 37.497 59.2571C37.497 59.3214 37.5622 59.3535 37.6273 59.3535C38.0183 59.3535 38.4092 59.3856 38.8001 59.4498C39.0933 59.5141 39.3865 59.5462 39.6797 59.6104C40.2987 59.771 40.8851 59.9637 41.4389 60.2528C39.9404 60.3812 38.4418 60.3491 36.9758 60.2206Z"
    fill="#787b7c" />
</svg>