<svg width="15" height="27" viewBox="0 0 15 27" fill="none" xmlns="http://www.w3.org/2000/svg">
  <path
    d="M14.9071 2.70479C15.231 1.47695 14.7017 -0.0321216 13.4136 0.000520523C10.9363 -0.0346325 10.5327 3.50327 10.8107 6.59422L8.18359 8.8867C7.20478 8.03047 5.83687 7.86224 4.60672 8.16104C0.49331 9.19303 -1.02203 15.1942 0.698739 18.6366C-0.14231 20.6554 -0.0238861 23.1337 1.1241 25.0069C2.09082 26.9805 5.01999 27.6207 4.43754 26.3251C4.29978 26.1493 4.29978 26.2121 4.08952 26.1895C1.34161 26.0112 0.655236 21.7879 1.41411 19.764C3.85025 22.6968 9.21798 21.6924 11.1128 19.0811C13.9138 15.2394 12.9592 10.5816 12.3816 6.39837C13.4039 5.35633 14.5446 4.2013 14.9071 2.70479ZM1.15068 17.3812C-0.248649 11.7969 4.42062 7.27719 7.42713 9.5521H7.42954C4.82181 11.6638 2.68052 14.3354 1.15068 17.3812ZM9.93094 18.0365C8.31168 20.9844 3.49498 21.6297 1.69205 18.6617C2.21649 17.0799 3.02129 15.6135 4.06293 14.3379L4.07743 14.3329C5.25684 12.8941 6.54499 11.5558 7.92982 10.328C8.55094 12.284 7.01869 14.928 5.22542 14.7999C5.33176 16.5275 7.83799 15.1841 8.32618 14.4936C9.49833 13.1829 9.60467 10.7799 8.76846 9.56967L10.9122 7.72414C11.3569 12.9695 11.6614 14.5212 9.93094 18.0365ZM12.2366 5.20317C11.7895 0.291788 13.6625 0.771376 13.9018 1.19321C14.547 2.53656 12.8359 4.78384 12.2366 5.20317Z"
    fill="#787b7c" />
</svg>