<svg width="24" height="24" viewBox="0 0 24 24" fill="none" xmlns="http://www.w3.org/2000/svg">
<path fill-rule="evenodd" clip-rule="evenodd" d="M24 12C24 18.6274 18.6274 24 12 24C5.37255 24 0 18.6274 0 12C0 5.37255 5.37255 0 12 0C18.6274 0 24 5.37255 24 12Z" fill="#B2252A"/>
<path fill-rule="evenodd" clip-rule="evenodd" d="M14.3079 4.55216V19.4314C14.3079 19.985 13.6386 20.2622 13.2471 19.8708L10.0758 16.6994C9.92589 16.5495 9.8417 16.3462 9.8417 16.1342V12.5985C9.8417 12.2675 9.57332 11.9991 9.24229 11.9991H6.85078C6.31157 11.9991 6.04174 11.347 6.42329 10.9661L13.2754 4.12407C13.6566 3.74339 14.3079 4.01342 14.3079 4.55216Z" fill="#FFFFFE"/>
</svg>
