<svg width="24" height="24" viewBox="0 0 24 24" fill="none" xmlns="http://www.w3.org/2000/svg">
<g clip-path="url(#clip0)">
<path d="M23.9999 12.002C24.0081 18.568 18.6866 24 12.002 24C5.31736 24 -0.00415214 18.5639 -5.86751e-05 11.9939C0.00403479 5.42384 5.31736 0 12.0061 0C18.6948 0 24.0122 5.44022 23.9999 12.002Z" fill="#FE9B00"/>
<path d="M21.2246 13.4921C21.2041 13.4512 21.2205 13.4184 21.2205 13.3857C21.2901 12.6734 20.8357 12.043 20.148 11.8957C19.6977 11.8015 19.2966 11.9284 18.9527 12.2231C18.5352 12.5793 18.1381 12.96 17.7451 13.3447C17.2662 13.8155 16.7968 14.2944 16.337 14.7815C16.0136 15.1254 15.637 15.3915 15.1867 15.547C13.9178 15.9809 12.5301 15.3014 12.047 14.1225C11.9897 13.9792 11.9938 13.9506 12.1084 13.8523C12.3745 13.619 12.6447 13.3898 12.9108 13.1564C12.9189 13.1483 12.9271 13.1442 12.9353 13.136C12.9681 13.1155 12.9926 13.0664 13.0336 13.0869C13.0745 13.1073 13.0499 13.1523 13.054 13.1851C13.0702 13.5016 13.1964 13.8025 13.411 14.0357C13.6255 14.2689 13.9148 14.4198 14.2289 14.4623C14.8797 14.5523 15.5306 14.1552 15.7271 13.533C15.9604 12.7962 15.5715 12.0635 14.8183 11.822C14.3598 11.6746 13.9423 11.7729 13.578 12.0758C13.2792 12.3214 12.9926 12.5793 12.702 12.8372C12.5096 13.0091 12.3172 13.1851 12.1207 13.3529C12.0458 13.4173 11.9952 13.5054 11.9775 13.6026C11.8219 14.3927 11.3798 14.9821 10.6798 15.371C10.2415 15.6154 9.73776 15.717 9.23892 15.6616C8.6964 15.6152 8.18359 15.394 7.77755 15.0312C7.49047 14.7794 7.26619 14.4641 7.1226 14.1102C7.11401 14.0932 7.10715 14.0754 7.10213 14.057C7.08773 14.0271 7.08435 13.993 7.09258 13.9608C7.10082 13.9286 7.12014 13.9003 7.14716 13.881C7.24131 13.8032 7.33137 13.7254 7.42551 13.6477C7.61791 13.4798 7.8103 13.312 8.00679 13.1483C8.03954 13.1196 8.07228 13.0705 8.11322 13.0869C8.15415 13.1032 8.13778 13.1605 8.14187 13.2015C8.15135 13.5104 8.26357 13.8074 8.46078 14.0454C8.65799 14.2833 8.92893 14.4488 9.23073 14.5155C9.57199 14.5882 9.92812 14.5278 10.2264 14.3467C10.5246 14.1657 10.7424 13.8775 10.8354 13.5412C11.081 12.6366 10.3646 11.7442 9.43131 11.7892C9.14688 11.7976 8.87388 11.9031 8.65765 12.088C8.39157 12.3091 8.12959 12.5383 7.8717 12.7676C7.60563 13.0009 7.34365 13.2383 7.07757 13.4716C7.04189 13.5008 7.01338 13.5377 6.99422 13.5795C6.97505 13.6214 6.96576 13.6671 6.96705 13.7132V15.4897C6.96705 15.6575 6.94249 15.6821 6.77465 15.678C6.61693 15.6779 6.46107 15.6439 6.31768 15.5782C6.17429 15.5125 6.04673 15.4167 5.94368 15.2973C5.86181 15.2032 5.84544 15.2032 5.73491 15.2646C5.32966 15.4897 4.89985 15.6125 4.43728 15.5961C3.4876 15.5634 2.76306 15.1336 2.27184 14.319C2.04058 13.9351 1.92147 13.4941 1.92799 13.0459C1.92843 12.4576 2.13563 11.8882 2.51335 11.4372C2.89814 10.9664 3.38936 10.6594 3.9911 10.5612C4.79342 10.4343 5.53024 10.5817 6.14835 11.1425C6.34475 11.3215 6.51555 11.5267 6.65594 11.7524C6.67607 11.7977 6.71061 11.8351 6.75419 11.8588C6.78421 11.8396 6.80868 11.8129 6.8252 11.7813C6.84171 11.7497 6.84969 11.7143 6.84834 11.6787C6.84424 11.2735 6.84834 10.8682 6.84834 10.4589C6.84834 9.53782 6.84697 8.61816 6.84424 7.69986C6.84424 7.51975 6.86471 7.49928 7.04892 7.49928C7.32055 7.49961 7.58255 7.59996 7.7849 7.78117C7.98725 7.96238 8.11578 8.21176 8.14597 8.48171C8.15413 8.54689 8.15823 8.61251 8.15825 8.6782V10.8273C8.16234 10.9255 8.18281 10.9378 8.27286 10.8928C8.53602 10.7534 8.82132 10.6606 9.11612 10.6185C9.84885 10.5162 10.5038 10.7004 11.0851 11.1588C11.2796 11.3152 11.4494 11.5001 11.5886 11.7074C11.5967 11.7219 11.6063 11.7356 11.6172 11.7483C11.6459 11.7892 11.6704 11.8343 11.7237 11.8424C11.7523 11.8465 11.8342 11.7401 11.8383 11.6951C11.8452 11.6394 11.8479 11.5833 11.8465 11.5272V8.64954C11.8465 8.05599 12.2149 7.6098 12.8002 7.49928C12.8646 7.48417 12.9306 7.4773 12.9967 7.47881C13.0827 7.48291 13.1195 7.51565 13.14 7.59752C13.1536 7.66209 13.1591 7.72809 13.1564 7.79401V10.8191C13.1646 10.8723 13.1809 10.8887 13.2341 10.8682C13.3037 10.8395 13.3733 10.8068 13.4429 10.7781C14.4253 10.3852 15.5265 10.6226 16.2388 11.384C16.4778 11.6414 16.6641 11.9432 16.7873 12.2723L16.8118 12.3459C16.8528 12.4524 16.8651 12.4565 16.951 12.3787L18.1054 11.3594C18.4289 11.0644 18.8218 10.856 19.2474 10.7536C19.8448 10.6137 20.4726 10.6935 21.0161 10.9783C21.5595 11.2632 21.9822 11.7341 22.207 12.305C22.2306 12.3517 22.2377 12.4049 22.2273 12.4562C22.2169 12.5074 22.1896 12.5536 22.1497 12.5875C21.8673 12.8658 21.593 13.1483 21.3106 13.4307C21.2865 13.4569 21.2572 13.4779 21.2246 13.4921Z" fill="#191C31"/>
<path d="M20.1153 14.6013C20.1143 14.6169 20.1097 14.632 20.1019 14.6455C20.0941 14.659 20.0832 14.6705 20.0702 14.6791C19.7714 14.9779 19.4726 15.2768 19.1779 15.5797C19.1538 15.6079 19.1213 15.6276 19.0851 15.6357C19.0489 15.6438 19.0111 15.64 18.9773 15.6247C18.2732 15.3627 17.7752 14.8865 17.4832 14.1961C17.4382 14.0938 17.4463 14.061 17.5282 13.9914C17.8188 13.7376 18.1136 13.4838 18.4042 13.2341C18.4226 13.2136 18.4469 13.1992 18.4738 13.1932C18.5024 13.2218 18.4943 13.2587 18.4984 13.2914C18.5131 13.484 18.5616 13.6724 18.6416 13.8481C18.834 14.2493 19.1615 14.4785 19.5831 14.5809C19.673 14.6014 19.7653 14.6096 19.8574 14.6054C19.9392 14.5973 20.0252 14.6013 20.1153 14.6013Z" fill="#191C31"/>
<path d="M5.84961 13.0786C5.87008 13.8072 5.24787 14.4417 4.49058 14.4499C4.12877 14.4518 3.78095 14.3103 3.5232 14.0563C3.26545 13.8024 3.11875 13.4568 3.11518 13.095C3.1029 12.3499 3.68826 11.7114 4.49058 11.695C5.2315 11.6786 5.8537 12.2844 5.84961 13.0786Z" fill="#FF9C00"/>
</g>
<defs>
<clipPath id="clip0">
<rect width="24" height="24" fill="white"/>
</clipPath>
</defs>
</svg>
