<svg width="24" height="24" viewBox="0 0 24 24" fill="none" xmlns="http://www.w3.org/2000/svg">
<path d="M12 24C18.6274 24 24 18.6274 24 12C24 5.37258 18.6274 0 12 0C5.37258 0 0 5.37258 0 12C0 18.6274 5.37258 24 12 24Z" fill="#767DFF"/>
<path fill-rule="evenodd" clip-rule="evenodd" d="M10.3275 4.875H13.6725C13.7884 4.87494 13.9023 4.90576 14.0023 4.96429C14.1024 5.02281 14.185 5.10694 14.2418 5.208L19.4213 14.4473C19.4758 14.5446 19.5044 14.6544 19.5044 14.766C19.5044 14.8776 19.4758 14.9874 19.4213 15.0848L17.7638 18.0413C17.7072 18.1423 17.6247 18.2265 17.5248 18.2852C17.4248 18.3439 17.3111 18.3748 17.1953 18.375H6.80476C6.68877 18.375 6.57489 18.3441 6.47484 18.2854C6.37478 18.2267 6.29217 18.1425 6.23551 18.0413L4.57876 15.0848C4.52424 14.9874 4.49561 14.8776 4.49561 14.766C4.49561 14.6544 4.52424 14.5446 4.57876 14.4473L9.75826 5.208C9.81501 5.10694 9.89767 5.02281 9.99772 4.96429C10.0978 4.90576 10.2116 4.87494 10.3275 4.875ZM12 8.55075L8.51026 14.766H15.4898L12 8.55075Z" fill="white"/>
</svg>
