<svg width="24" height="24" viewBox="0 0 24 24" fill="none" xmlns="http://www.w3.org/2000/svg">
<path d="M21.649 5.64505C22.0857 5.89714 22.3549 6.363 22.3549 6.86726V17.1249C22.3549 17.6291 22.0858 18.095 21.6492 18.3471L12.7674 23.4751C12.3306 23.7272 11.7925 23.7272 11.3557 23.4751L2.47393 18.3471C2.03731 18.095 1.76819 17.6291 1.76819 17.1249V6.86723C1.76819 6.36304 2.03731 5.89718 2.47393 5.64507L11.3534 0.51711C11.7902 0.264948 12.3283 0.264948 12.765 0.517102L21.649 5.64505ZM21.4951 5.91171L12.6111 0.783761C12.2696 0.5866 11.8488 0.5866 11.5074 0.783752L2.6279 5.91171C2.28651 6.10883 2.07609 6.47308 2.07609 6.86726V17.1249C2.07609 17.5191 2.28651 17.8833 2.62789 18.0805L11.5097 23.2084C11.8512 23.4056 12.2719 23.4056 12.6134 23.2084L21.4952 18.0805C21.8366 17.8833 22.047 17.5191 22.047 17.1249V6.8673C22.047 6.47306 21.8365 6.10881 21.4951 5.91171Z" fill="url(#paint0_linear)"/>
<path d="M20.6492 6.32007L12.6827 1.72108C12.2979 1.49894 11.8239 1.49894 11.4391 1.72108L3.47322 6.32007C3.08928 6.54191 2.85252 6.95139 2.85181 7.39481V16.5956C2.85181 17.0397 3.08871 17.45 3.47322 17.6722L11.4397 22.2712C11.8245 22.4933 12.2985 22.4933 12.6833 22.2712L20.6499 17.6717C21.0344 17.4496 21.2713 17.0392 21.2713 16.5951V7.39481C21.2704 6.95125 21.0334 6.54173 20.6492 6.32007Z" fill="url(#paint1_linear)"/>
<path d="M6.31177 6.82693C6.50332 6.63662 6.69425 6.44612 6.88455 6.25543C7.0761 6.44635 7.26723 6.63748 7.45792 6.8288C7.26762 7.01972 7.07688 7.21046 6.88572 7.401C6.69425 7.21007 6.50293 7.01871 6.31177 6.82693ZM8.0369 6.82763C8.22721 6.6367 8.41794 6.44596 8.6091 6.25543C8.80003 6.44573 8.99053 6.63623 9.1806 6.82693C8.9903 7.01785 8.79957 7.20859 8.6084 7.39913C8.41755 7.20882 8.22705 7.01832 8.0369 6.82763ZM14.9429 6.82576C15.1332 6.63483 15.3237 6.44433 15.5144 6.25426C15.706 6.44519 15.8971 6.63631 16.0878 6.82763C15.8975 7.01856 15.707 7.20929 15.5163 7.39983C15.3254 7.2082 15.1343 7.01684 14.9429 6.82576ZM16.6643 6.82938C16.8553 6.63783 17.0468 6.44628 17.239 6.25472C17.4299 6.44503 17.6207 6.63576 17.8112 6.82693L17.2365 7.40158C17.0456 7.21089 16.8549 7.02015 16.6643 6.82938ZM7.17469 7.68926C7.36561 7.49895 7.55635 7.30846 7.74689 7.11776C7.93782 7.30807 8.12832 7.49857 8.31839 7.68926C8.12808 7.88019 7.93735 8.07092 7.74619 8.26146C7.55526 8.07108 7.36476 7.88034 7.17469 7.68926ZM8.90473 7.69043C9.09441 7.50137 9.28328 7.31177 9.47132 7.12162C9.65976 7.31192 9.84862 7.5016 10.0379 7.69066C9.84885 7.8791 9.65999 8.06777 9.47132 8.25667C9.28226 8.06808 9.0934 7.87933 8.90473 7.69043ZM14.0862 7.68669C14.2754 7.49697 14.465 7.30795 14.6535 7.11694C14.8426 7.30709 15.0321 7.49724 15.222 7.68739C15.0321 7.87645 14.8426 8.06582 14.6535 8.2555C14.4657 8.06484 14.2754 7.87641 14.0862 7.68669ZM15.8052 7.68797C15.9955 7.49705 16.186 7.30655 16.3767 7.11647C16.5676 7.30678 16.7583 7.49751 16.9489 7.68868C16.7586 7.8796 16.5681 8.07034 16.3774 8.26088C16.1871 8.06917 15.9955 7.87886 15.8052 7.68797ZM6.31177 8.55206L6.88572 7.97811C7.07665 8.16904 7.26715 8.35977 7.45722 8.55031C7.26629 8.74186 7.07517 8.93298 6.88385 9.12368C6.693 8.9333 6.50231 8.74276 6.31177 8.55206ZM8.03632 8.55148C8.22725 8.36117 8.41818 8.17067 8.6091 7.97998C8.80003 8.17028 8.99053 8.36078 9.1806 8.55148C8.9903 8.74241 8.79957 8.93314 8.6084 9.12368C8.41755 8.9333 8.22686 8.74256 8.03632 8.55148ZM9.76333 8.54832C9.95176 8.35926 10.1404 8.1704 10.3293 7.98173C10.5196 8.17204 10.7097 8.36234 10.8995 8.55265C10.7111 8.74108 10.5224 8.92955 10.3335 9.11807C10.1432 8.92839 9.95316 8.73847 9.76333 8.54832ZM13.2259 8.54832C13.4143 8.35926 13.6028 8.1704 13.7913 7.98173C13.981 8.17079 14.1703 8.36008 14.3592 8.54961C14.1694 8.73746 13.9816 8.92718 13.7919 9.11503C13.6045 8.92531 13.4143 8.73746 13.2259 8.54832ZM14.9429 8.55019C15.1339 8.35864 15.325 8.16752 15.5163 7.97682C15.7072 8.16713 15.898 8.35786 16.0885 8.54902C15.8976 8.74057 15.7065 8.93189 15.5151 9.12298C15.3248 8.9315 15.1332 8.7412 14.9429 8.55019ZM16.6671 8.55019C16.8574 8.35926 17.0479 8.16876 17.2386 7.97869C17.4296 8.169 17.6203 8.35973 17.8108 8.55089C17.6205 8.74182 17.43 8.93255 17.2393 9.12309C17.0493 8.9315 16.8578 8.7412 16.6671 8.55019ZM11.4866 8.60876L12.052 8.04333C12.2507 8.22744 12.4456 8.41529 12.6353 8.60876C12.445 8.80155 12.2506 8.98979 12.052 9.17348C11.8635 8.98504 11.675 8.7968 11.4866 8.60876ZM7.17656 9.41428C7.36686 9.22522 7.55736 9.03593 7.74806 8.8464C7.93649 9.03608 8.12516 9.22518 8.31406 9.41369C8.125 9.60338 7.93591 9.79286 7.74677 9.98216C7.55654 9.7931 7.36647 9.6038 7.17656 9.41428ZM10.6261 9.41066C10.8146 9.22152 11.003 9.03379 11.1915 8.84465C11.38 9.03308 11.5682 9.22156 11.7563 9.41007C11.5684 9.59851 11.3794 9.78694 11.1915 9.97549C11.0031 9.78737 10.8146 9.59909 10.6261 9.41066ZM12.3642 9.41066C12.5513 9.22093 12.7411 9.03437 12.9284 8.84465C13.1217 9.03005 13.3065 9.22281 13.4974 9.41066C13.3077 9.59851 13.1193 9.78881 12.9295 9.97725C12.7417 9.78752 12.5524 9.59979 12.3642 9.41066ZM15.8138 9.41124C16.0017 9.22152 16.1901 9.03308 16.3779 8.84336C16.5689 9.03242 16.7592 9.22171 16.9489 9.41124C16.7579 9.6003 16.5674 9.78959 16.3774 9.97912C16.1901 9.78881 16.0008 9.60096 15.8138 9.41124ZM8.03877 10.2729C8.22721 10.0838 8.41631 9.89495 8.60607 9.70628C8.79512 9.89659 8.98481 10.0867 9.17511 10.2766C8.98668 10.4657 8.79801 10.6543 8.6091 10.8426C8.4188 10.6531 8.22869 10.4632 8.03877 10.2729ZM11.4878 10.2716C11.6756 10.0832 11.8636 9.89511 12.0519 9.70745C12.2502 9.89098 12.4447 10.0792 12.6352 10.2722C12.4455 10.4656 12.2513 10.6536 12.0526 10.8363C11.8641 10.6479 11.6758 10.4597 11.4878 10.2716ZM14.9516 10.2729C15.1394 10.0844 15.3274 9.89659 15.5157 9.70932C15.7042 9.89776 15.8928 10.0856 16.0817 10.2729C15.8926 10.4599 15.7042 10.6486 15.5157 10.8358C15.3285 10.6473 15.1394 10.4607 14.9516 10.2729ZM8.90169 11.1351C9.09013 10.946 9.2788 10.7576 9.4677 10.5697C9.65551 10.7575 9.84336 10.9455 10.0312 11.1338C9.84344 11.3222 9.6552 11.5109 9.46653 11.6998C9.27864 11.5114 9.09036 11.3231 8.90169 11.1351ZM14.0875 11.1351C14.2759 10.9467 14.4646 10.7582 14.6535 10.5697C14.8419 10.7575 15.03 10.946 15.2176 11.1351C15.0298 11.3235 14.8418 11.512 14.6535 11.7005C14.4657 11.5114 14.2759 11.3236 14.0875 11.1351ZM8.04029 11.9961C8.22873 11.8071 8.4174 11.6186 8.6063 11.4307C8.79411 11.6192 8.98216 11.8076 9.17043 11.9961C8.98262 12.1846 8.79458 12.373 8.6063 12.5616C8.41701 12.373 8.22834 12.1846 8.04029 11.9961ZM9.76333 11.9961C9.95176 11.8077 10.1402 11.6195 10.3287 11.4314C10.5166 11.6199 10.7045 11.8081 10.8925 11.9961C10.7055 12.1846 10.5176 12.3728 10.329 12.5609C10.1403 12.3724 9.95176 12.1842 9.76333 11.9961ZM13.2252 11.9961C13.4136 11.8064 13.6039 11.6186 13.7925 11.4288C13.9816 11.6173 14.17 11.8076 14.3591 11.9961C14.17 12.1846 13.9811 12.3737 13.7925 12.5634C13.6045 12.3737 13.4137 12.1859 13.2252 11.9961ZM14.9004 11.9961C15.0937 11.8145 15.2663 11.6082 15.4738 11.4418C15.6524 11.6334 15.8506 11.8064 16.0318 11.9961C15.8507 12.1846 15.6555 12.3585 15.4756 12.5486C15.2644 12.3879 15.0957 12.1766 14.9004 11.9961ZM8.90169 12.8572L9.46641 12.2925C9.65485 12.4816 9.84328 12.6693 10.0311 12.8585C9.84332 13.0469 9.65547 13.235 9.46758 13.4226C9.27915 13.2341 9.09052 13.0456 8.90169 12.8572ZM14.0881 12.8572C14.2759 12.6688 14.4657 12.4809 14.6535 12.2918C14.8419 12.4802 15.0302 12.6687 15.2182 12.8572C15.0291 13.045 14.8431 13.2359 14.6522 13.4213C14.4644 13.2329 14.2759 13.0456 14.0881 12.8572ZM8.03877 13.7194C8.22846 13.5291 8.41857 13.3392 8.6091 13.1497C8.79816 13.3381 8.98683 13.5268 9.17511 13.7157C8.98543 13.906 8.79575 14.0961 8.60607 14.286C8.41631 14.0976 8.22721 13.9087 8.03877 13.7194ZM11.4853 13.7207C11.6744 13.5316 11.8635 13.3428 12.0526 13.1541C12.2528 13.3376 12.4478 13.5261 12.6377 13.7195C12.4474 13.9143 12.2521 14.1038 12.0519 14.288C11.8628 14.0988 11.674 13.9097 11.4853 13.7207ZM14.9516 13.72C15.1394 13.5316 15.3285 13.3443 15.5157 13.1564C15.7048 13.3442 15.8936 13.5319 16.0823 13.7194C15.8939 13.9072 15.705 14.0951 15.5157 14.283C15.3278 14.0951 15.1398 13.9074 14.9516 13.72ZM7.17597 14.578C7.36628 14.3889 7.55658 14.1996 7.74689 14.0101C7.93595 14.1992 8.12504 14.3887 8.31418 14.5786C8.12504 14.767 7.93634 14.9563 7.74806 15.1465C7.55717 14.9573 7.36686 14.7665 7.17597 14.578ZM10.6231 14.5816C10.8128 14.3919 11.0023 14.2026 11.1915 14.0137C11.3812 14.2028 11.5709 14.3921 11.7606 14.5816C11.5715 14.7713 11.3822 14.961 11.1927 15.1507C11.0024 14.9616 10.8125 14.7719 10.6231 14.5816ZM12.3605 14.5816C12.5502 14.3913 12.7411 14.2022 12.9302 14.0119C13.12 14.201 13.3097 14.3913 13.5 14.5798C13.3097 14.7701 13.1196 14.9606 12.9297 15.1513C12.7399 14.9616 12.5502 14.7718 12.3605 14.5816ZM15.8132 14.581C16.0003 14.3913 16.1901 14.2023 16.3774 14.012C16.5677 14.2017 16.7584 14.3914 16.9496 14.581C16.7593 14.7707 16.5688 14.9602 16.3781 15.1495C16.1901 14.9598 16.0008 14.7708 15.8132 14.581ZM11.4829 15.3835C11.6725 15.1945 11.8622 15.005 12.0519 14.8151C12.2527 14.9992 12.4479 15.1891 12.6401 15.3829C12.4486 15.5782 12.2527 15.7685 12.0526 15.9539C11.8623 15.7635 11.6724 15.5734 11.4829 15.3835ZM6.31177 15.4408L6.88397 14.8686C7.07552 15.0595 7.26664 15.2507 7.45734 15.442C7.26703 15.6329 7.07653 15.8236 6.88584 16.0142C6.69429 15.8227 6.50293 15.6316 6.31177 15.4408ZM8.03632 15.4402C8.22725 15.2499 8.41798 15.0594 8.60852 14.8687C8.79945 15.059 8.99018 15.2498 9.18072 15.4409C8.99042 15.6318 8.79992 15.8223 8.60922 16.0124C8.41822 15.8221 8.22725 15.6314 8.03632 15.4402ZM9.75958 15.4433C9.95118 15.2529 10.1421 15.0614 10.3335 14.8711C10.5232 15.0607 10.7131 15.2504 10.9033 15.4401C10.7124 15.6323 10.5214 15.8238 10.3305 16.0148C10.1402 15.8245 9.94989 15.634 9.75958 15.4433ZM13.2215 15.444C13.4119 15.2531 13.6034 15.0633 13.7925 14.8725C13.9828 15.0628 14.1733 15.2527 14.364 15.4422C14.173 15.6331 13.9823 15.8241 13.7918 16.015C13.6015 15.8246 13.4115 15.6343 13.2215 15.444ZM14.9429 15.4421C15.1332 15.2512 15.3248 15.0602 15.5151 14.8693C15.7061 15.0609 15.8972 15.2522 16.0885 15.4433L15.5163 16.0155C15.325 15.8245 15.1339 15.6334 14.9429 15.4421ZM16.6671 15.4421C16.8574 15.2512 17.049 15.0602 17.2393 14.8693C17.4296 15.0602 17.6201 15.251 17.8108 15.4415C17.6205 15.6324 17.4298 15.8232 17.2386 16.0137C17.0479 15.8233 16.8574 15.6328 16.6671 15.4421ZM7.1741 16.3024C7.36503 16.1121 7.55576 15.9216 7.7463 15.7309C7.93723 15.9212 8.12796 16.112 8.3185 16.3031C8.1282 16.4941 7.9377 16.6846 7.747 16.8746C7.556 16.6843 7.36503 16.4936 7.1741 16.3024ZM8.89982 16.303C9.0895 16.1121 9.27981 15.9218 9.47074 15.7321C9.66167 15.9218 9.85217 16.1121 10.0422 16.303C9.85193 16.4933 9.66163 16.6849 9.47132 16.8752C9.28043 16.6849 9.09013 16.4934 8.89982 16.303ZM14.0813 16.3043C14.2716 16.1134 14.4625 15.9224 14.6541 15.7315C14.845 15.9231 15.0361 16.114 15.2275 16.3043C15.0359 16.4952 14.8448 16.6866 14.6541 16.8783C14.4625 16.6874 14.2716 16.4961 14.0813 16.3043ZM15.8052 16.3043C15.9955 16.1134 16.1871 15.9224 16.3774 15.7315C16.5677 15.9224 16.7582 16.1132 16.9489 16.3037C16.7586 16.4946 16.5678 16.6854 16.3767 16.8759C16.1858 16.6854 15.9953 16.4948 15.8052 16.3043ZM6.31364 17.1629C6.50394 16.972 6.69468 16.7812 6.88584 16.5907L7.45804 17.1629L6.88584 17.7351C6.69491 17.5452 6.50418 17.3544 6.31364 17.1629ZM8.03632 17.1646C8.22725 16.9743 8.41798 16.7838 8.60852 16.5932C8.79945 16.7835 8.99018 16.9742 9.18072 17.1654C8.99042 17.3563 8.79992 17.5468 8.60922 17.7369C8.41822 17.5465 8.22725 17.3558 8.03632 17.1646ZM14.9429 17.1665C15.1339 16.975 15.325 16.7837 15.5163 16.5926C15.7066 16.7835 15.8971 16.9742 16.0878 17.1648C15.8969 17.3563 15.7058 17.5474 15.5144 17.7381C15.3235 17.5478 15.133 17.3573 14.9429 17.1665ZM16.6643 17.1629C16.8546 16.972 17.0454 16.7812 17.2365 16.5907L17.8112 17.1654C17.6209 17.3563 17.4302 17.547 17.239 17.7376C17.0468 17.5464 16.8553 17.3548 16.6643 17.1629Z" fill="white"/>
<defs>
<linearGradient id="paint0_linear" x1="4.07826" y1="6.08427" x2="21.1791" y2="15.9397" gradientUnits="userSpaceOnUse">
<stop stop-color="#0071BC"/>
<stop offset="1" stop-color="#662D91"/>
</linearGradient>
<linearGradient id="paint1_linear" x1="5.04991" y1="6.83804" x2="20.1865" y2="15.5372" gradientUnits="userSpaceOnUse">
<stop stop-color="#0071BC"/>
<stop offset="1" stop-color="#662D91"/>
</linearGradient>
</defs>
</svg>
