<svg width="24" height="24" viewBox="0 0 24 24" fill="none" xmlns="http://www.w3.org/2000/svg">
<path d="M12 24C18.6274 24 24 18.6274 24 12C24 5.37258 18.6274 0 12 0C5.37258 0 0 5.37258 0 12C0 18.6274 5.37258 24 12 24Z" fill="#F49E00"/>
<path d="M14.8163 13.0005C16.5008 10.3612 17.8125 6 17.8125 6L15.0038 6.63675L13.9755 10.2743C13.8788 7.54725 12.009 6.549 12.009 6.549C10.5113 5.81925 9.17627 6.14025 8.21402 6.642C7.02302 7.2615 6.15677 8.3415 5.74202 9.585C5.15252 11.3542 5.22452 13.3395 5.30252 14.238C5.33402 14.6595 5.42702 15.0743 5.58002 15.4703C6.61352 18.15 9.47627 17.9977 9.47627 17.9977C12.099 17.9047 13.6928 14.8162 13.6928 14.8162L14.4443 17.0872C15.1178 18.2265 16.6095 17.7997 16.9163 17.736C16.9703 17.724 17.0183 17.718 17.073 17.706L18.75 17.4502V16.7205C15.099 16.8195 14.8163 13.0012 14.8163 13.0012V13.0005ZM11.262 15.7455C11.0362 15.977 10.7515 16.1424 10.4385 16.224C9.75827 16.3935 9.23552 16.1077 8.87477 15.7575C8.47174 15.3505 8.19578 14.8351 8.08052 14.274C7.41902 10.5315 8.33327 8.89125 8.94077 8.1375C9.10624 7.9262 9.31956 7.75726 9.56315 7.6446C9.80673 7.53193 10.0736 7.47877 10.3418 7.4895C12.6998 7.6125 13.2293 12.546 13.2293 12.546C12.5618 14.2972 11.7015 15.3135 11.262 15.7455Z" fill="white"/>
</svg>
