<svg width="24" height="24" viewBox="0 0 24 24" fill="none" xmlns="http://www.w3.org/2000/svg">
<path d="M23.8481 14.3352L12.3799 22.8147C12.228 22.9261 12.0051 22.9363 11.8531 22.8248L0.202654 14.5884C-0.0202249 14.4263 -0.0708792 14.1022 0.111476 13.8894L11.5695 0.151963C11.7316 -0.0506543 12.0355 -0.0506543 12.2077 0.151963L23.9089 13.8084C24.0406 13.9705 24.0203 14.2136 23.8481 14.3352Z" fill="#FFF4FC"/>
<path d="M23.23 14.0515L12.3292 22.1055L12.2684 13.8995L12.1874 1.01309L22.9767 13.7476L23.23 14.0515Z" fill="url(#paint0_linear)"/>
<path d="M0.648438 14.2237L11.8329 22.1055L11.5796 1.01309L0.648438 14.2237Z" fill="url(#paint1_linear)"/>
<path d="M11.7417 13.9198L0.729484 14.1325L0.648438 14.2237L11.8329 22.1055L11.7417 13.9198Z" fill="url(#paint2_linear)"/>
<path d="M12.2684 13.8996L22.9767 13.7476L23.23 14.0515L12.3292 22.1056L12.2684 13.8996Z" fill="url(#paint3_linear)"/>
<path fill-rule="evenodd" clip-rule="evenodd" d="M10.2517 5.61474C9.73573 4.51046 9.715 3.5094 9.74603 3.00266L9.94826 3.01504C9.9185 3.5011 9.93829 4.46539 10.4353 5.52906L10.4354 5.52923C10.8327 6.38346 11.3792 6.94004 11.7277 7.24875L11.5934 7.40043C11.2328 7.08104 10.6649 6.50298 10.2517 5.61474ZM12.2923 7.69215C12.806 8.11523 13.2584 8.43682 13.609 8.65714L13.6097 8.65764C14.6747 9.34081 15.6091 9.70257 16.0929 9.88402L16.0939 9.8844C16.2967 9.96291 16.5199 10.0368 16.8507 10.1463C17.0276 10.2049 17.2354 10.2737 17.4873 10.3589C18.0577 10.5441 18.3551 10.6329 18.5386 10.6877L18.5583 10.6935C18.7408 10.748 18.8119 10.7698 18.9442 10.828C19.1382 10.9097 20.4384 11.4593 20.9722 12.6629C21.1071 12.966 21.1762 13.2721 21.1988 13.5702L22.9753 13.5449L22.9782 13.7475L21.2072 13.7727C21.2108 14.2037 21.1241 14.6119 21.0088 14.962C20.7968 15.6059 20.4842 16.0659 20.4361 16.1353L20.2695 16.02C20.3126 15.9578 20.613 15.5161 20.8163 14.8986C20.9271 14.5625 21.0079 14.1777 21.0046 13.7756L12.2699 13.8995L12.267 13.6969L15.619 13.6493L12.1815 10.6427L12.3149 10.4902L15.9218 13.645L20.9957 13.573C20.9737 13.2995 20.9096 13.0205 20.7871 12.7453L20.787 12.7451C20.2881 11.6202 19.0582 11.0958 18.8648 11.0144L18.8641 11.0141L18.8633 11.0138C18.7428 10.9608 18.6821 10.942 18.5003 10.8877L18.4808 10.8819C18.2964 10.8268 17.9972 10.7375 17.4241 10.5514L17.423 10.551C17.1762 10.4676 16.9705 10.3995 16.7939 10.341C16.4589 10.23 16.2286 10.1538 16.0213 10.0736C15.5325 9.89025 14.583 9.52267 13.5007 8.82845C13.1422 8.60302 12.6829 8.27631 12.1635 7.84855L12.2923 7.69215ZM9.10891 8.4386C9.71412 8.70314 10.5652 9.23332 11.7525 10.1416L11.6294 10.3025C10.4461 9.39729 9.61039 8.87893 9.02776 8.62426C8.73638 8.4969 8.51386 8.438 8.3463 8.42689C8.18051 8.4159 8.07536 8.45185 8.00689 8.50711C7.91307 8.58566 7.86163 8.72865 7.86432 8.95537C7.86699 9.18023 7.92293 9.46499 8.01705 9.79639C8.16601 10.3209 8.40457 10.9428 8.65624 11.5988C8.7226 11.7718 8.78986 11.9471 8.85664 12.1237C9.06409 12.6723 9.2665 13.2319 9.41819 13.762L11.7397 13.7172L11.7436 13.9198L9.47373 13.9636C9.52982 14.1758 9.57657 14.3823 9.6109 14.5803C9.73912 15.3197 9.70203 15.9843 9.27751 16.3751L9.27705 16.3755C9.03219 16.5981 8.66626 16.7262 8.15492 16.8218C7.64169 16.9178 6.96274 16.9841 6.07813 17.07L6.07768 17.07C5.52834 17.1209 5.06923 17.1414 4.77158 17.1414V16.9388C5.06149 16.9388 5.51409 16.9187 6.0588 16.8683C6.94696 16.782 7.61534 16.7166 8.11767 16.6226C8.62182 16.5284 8.93969 16.4083 9.1406 16.2257C9.48068 15.9123 9.5385 15.3486 9.41127 14.6149C9.37543 14.4082 9.32552 14.1915 9.26511 13.9676L0.731331 14.1325L0.727417 13.9299L9.20849 13.7661C9.06148 13.2615 8.86811 12.7268 8.66712 12.1954C8.60145 12.0218 8.53494 11.8484 8.46905 11.6766C8.2169 11.0194 7.97384 10.3859 7.82214 9.85174C7.72645 9.51481 7.66471 9.20961 7.66172 8.95777C7.65875 8.7082 7.7135 8.48785 7.87769 8.35103L7.87873 8.35016L7.87874 8.35016C7.9977 8.25371 8.15837 8.21137 8.35971 8.22472C8.5597 8.23798 8.80637 8.30636 9.10891 8.4386Z" fill="#98C9C0"/>
<defs>
<linearGradient id="paint0_linear" x1="12.1857" y1="11.5598" x2="23.2325" y2="11.5598" gradientUnits="userSpaceOnUse">
<stop stop-color="#3B8270"/>
<stop offset="1" stop-color="#305C6E"/>
</linearGradient>
<linearGradient id="paint1_linear" x1="0.652733" y1="11.5598" x2="11.8354" y2="11.5598" gradientUnits="userSpaceOnUse">
<stop stop-color="#4E7F98"/>
<stop offset="1" stop-color="#3BC0B5"/>
</linearGradient>
<linearGradient id="paint2_linear" x1="0.652733" y1="18.0117" x2="11.8354" y2="18.0117" gradientUnits="userSpaceOnUse">
<stop stop-color="#30435C"/>
<stop offset="1" stop-color="#299AA9"/>
</linearGradient>
<linearGradient id="paint3_linear" x1="12.2708" y1="17.9301" x2="23.2325" y2="17.9301" gradientUnits="userSpaceOnUse">
<stop stop-color="#2E2C29"/>
<stop offset="1" stop-color="#323232"/>
</linearGradient>
</defs>
</svg>
