<svg width="24" height="24" viewBox="0 0 24 24" fill="none" xmlns="http://www.w3.org/2000/svg">
<g clip-path="url(#clip0)">
<path d="M12.1016 2.3873C12.1651 2.52698 12.2032 2.67936 12.2793 2.80635C16.1143 8.92698 19.9619 15.0349 23.7968 21.1429C23.8857 21.2825 23.9746 21.4222 24 21.6254C20.0254 17.5238 16.0635 13.4222 12.0635 9.29523C8.07617 13.4222 4.10157 17.5238 0.126969 21.6254C0.101572 21.6127 0.0888734 21.6 0.0634766 21.5873C0.139667 21.4603 0.203159 21.346 0.27935 21.219C4.11427 15.1111 7.96189 8.99047 11.7968 2.86984C11.8857 2.71746 11.9492 2.55238 12.0127 2.3873H12.1016Z" fill="#ED1C24"/>
<path d="M17.4984 17.854H6.62854C7.30156 17.1556 7.91108 16.5079 8.546 15.8857C8.60949 15.8222 8.76187 15.7968 8.87616 15.7968H15.2508C15.365 15.7968 15.5301 15.8222 15.6063 15.8984C16.2285 16.5333 16.8254 17.1683 17.4984 17.854Z" fill="#ED1C24"/>
<path d="M10.0063 14.2222C10.7175 13.5873 11.4286 12.9524 12.0381 12.4063C12.673 12.9651 13.3841 13.6 14.1079 14.2476C14.0825 14.273 14.0571 14.3111 14.0444 14.3365H10.0952C10.0698 14.3111 10.0317 14.2603 10.0063 14.2222Z" fill="#ED1C24"/>
</g>
<defs>
<clipPath id="clip0">
<rect width="24" height="24" fill="white"/>
</clipPath>
</defs>
</svg>
