<svg width="24" height="24" viewBox="0 0 24 24" fill="none" xmlns="http://www.w3.org/2000/svg">
<path d="M12 24C18.6274 24 24 18.6274 24 12C24 5.37258 18.6274 0 12 0C5.37258 0 0 5.37258 0 12C0 18.6274 5.37258 24 12 24Z" fill="#0092B5"/>
<path d="M8.81997 10.5765L12.0315 4.923C12.0375 4.9125 12.0495 4.90575 12.0915 4.923L15.147 10.4738C15.0613 10.5437 14.9926 10.6321 14.946 10.7324C14.8994 10.8327 14.8761 10.9422 14.8779 11.0528C14.8797 11.1634 14.9065 11.2721 14.9564 11.3708C15.0062 11.4695 15.0778 11.5557 15.1657 11.6227L12.3435 16.7137C12.2429 16.6655 12.133 16.64 12.0215 16.6393C11.91 16.6385 11.7997 16.6624 11.6985 16.7092L8.79372 11.535C8.91329 11.4054 8.98178 11.2368 8.98647 11.0605C8.99116 10.8843 8.93173 10.7123 8.81922 10.5765H8.81997ZM8.51247 11.727L11.4285 16.9208C11.3655 16.9995 11.3196 17.0904 11.2935 17.1877C8.93922 16.6237 7.47672 16.275 6.90447 16.1407C6.66245 15.8004 6.45064 15.4395 6.27147 15.0623L8.14047 11.7727C8.26628 11.7887 8.39408 11.7732 8.51247 11.7277V11.727ZM8.10822 10.3148L5.79297 6.18975C7.37097 5.352 9.32922 4.9125 11.6692 4.875L8.54772 10.3695C8.40997 10.3078 8.2569 10.2887 8.10822 10.3148ZM7.79322 10.4467C7.697 10.5162 7.61907 10.6079 7.56615 10.7141C7.51323 10.8203 7.48689 10.9378 7.4894 11.0564C7.49191 11.1751 7.52319 11.2913 7.58055 11.3952C7.63792 11.4991 7.71965 11.5874 7.81872 11.6528L6.10122 14.6752C5.81586 13.9685 5.64618 13.2204 5.59872 12.4598L5.25147 6.92325C5.245 6.81663 5.26424 6.71002 5.30758 6.61239C5.35091 6.51477 5.41706 6.42898 5.50047 6.36225L7.79322 10.4467ZM12.7432 17.1952C12.7181 17.0985 12.6735 17.0078 12.612 16.929L15.4755 11.7638C15.5991 11.7885 15.7269 11.7824 15.8475 11.7458L17.703 15.1163C17.5455 15.4403 17.364 15.7522 17.16 16.05L12.7432 17.1952ZM12.1875 18.0953C12.3233 18.0645 12.4479 17.9963 12.5469 17.8983C12.6459 17.8003 12.7155 17.6765 12.7477 17.541L16.8397 16.4797C16.3451 17.0947 15.7533 17.6247 15.0877 18.0487L12.3705 19.7843C12.3138 19.8206 12.2522 19.8484 12.1875 19.8668V18.0953ZM11.847 18.0953V19.875C11.7698 19.8575 11.6962 19.8268 11.6295 19.7843L8.91222 18.0487C8.27687 17.6438 7.70854 17.1423 7.22772 16.5623C7.97022 16.7385 9.32247 17.061 11.2845 17.5305C11.3445 17.8103 11.565 18.0315 11.847 18.096V18.0953ZM15.8745 10.3448C15.7383 10.2977 15.5916 10.2904 15.4515 10.3238L12.4537 4.87725C14.7277 4.9275 16.6387 5.36175 18.1845 6.1785L15.8745 10.3448ZM16.1617 10.5255L18.4792 6.3465C18.5687 6.41253 18.6403 6.49988 18.6874 6.6006C18.7346 6.70132 18.7558 6.81223 18.7492 6.92325L18.402 12.4605C18.353 13.2405 18.1757 14.0071 17.877 14.7292L16.1415 11.577C16.2134 11.5102 16.2712 11.4296 16.3113 11.3401C16.3514 11.2505 16.3731 11.1537 16.375 11.0556C16.3769 10.9574 16.359 10.8599 16.3223 10.7688C16.2857 10.6777 16.2311 10.595 16.1617 10.5255ZM12 8.4255C11.8938 8.42719 11.7923 8.46977 11.7168 8.54437C11.6412 8.61897 11.5973 8.71985 11.5942 8.826V10.2915L9.42972 11.625L9.66147 12.1252L11.5942 11.4922V12.9578L11.0527 13.3575V13.7572L12 13.4902L12.9472 13.7565V13.3568L12.4057 12.957V11.4915L14.3055 12.159L14.5702 11.625L12.4057 10.2915V8.826C12.4025 8.72011 12.3586 8.61953 12.2832 8.54511C12.2078 8.47069 12.1066 8.42813 12.0007 8.42625L12 8.4255Z" fill="white"/>
</svg>
