<svg width="24" height="24" viewBox="0 0 24 24" fill="none" xmlns="http://www.w3.org/2000/svg">
<path d="M12 24C18.6274 24 24 18.6274 24 12C24 5.37258 18.6274 0 12 0C5.37258 0 0 5.37258 0 12C0 18.6274 5.37258 24 12 24Z" fill="#346FCE"/>
<path fill-rule="evenodd" clip-rule="evenodd" d="M15.12 14.0295L15.837 15.3772C16.2448 16.1445 16.3313 17.0423 16.0772 17.8732C15.8232 18.7042 15.2496 19.4002 14.4825 19.8082L14.3895 19.8577C14.0096 20.0598 13.5935 20.1851 13.1652 20.2263C12.7369 20.2676 12.3046 20.2241 11.8931 20.0984C11.4815 19.9726 11.0988 19.767 10.7668 19.4933C10.4347 19.2196 10.1598 18.8832 9.95773 18.5032L7.54048 13.9567C7.14747 13.2177 7.05221 12.3562 7.27424 11.5491C7.49626 10.7421 8.01875 10.0505 8.73448 9.61649L8.01748 8.26874C7.60969 7.50142 7.52338 6.60355 7.77753 5.7726C8.03168 4.94164 8.60548 4.24567 9.37273 3.83774L9.46573 3.78824C10.233 3.38039 11.1308 3.29397 11.9617 3.54798C12.7926 3.80198 13.4887 4.37562 13.8967 5.14274L16.314 9.68924C16.7071 10.4282 16.8024 11.2896 16.5805 12.0967C16.3587 12.9038 15.8363 13.5953 15.1207 14.0295H15.12ZM15.12 14.0295L13.4197 10.8307C13.0117 10.0636 12.3156 9.48998 11.4847 9.23598C10.6538 8.98197 9.75596 9.06839 8.98873 9.47624L8.89573 9.52499C8.84098 9.55499 8.78698 9.58499 8.73448 9.61649L10.4355 12.8152C10.8435 13.5824 11.5396 14.156 12.3705 14.41C13.2014 14.664 14.0993 14.5776 14.8665 14.1697L14.9595 14.121C15.0142 14.091 15.0682 14.061 15.1207 14.0295H15.12Z" fill="white"/>
</svg>
