<svg width="24" height="24" viewBox="0 0 24 24" fill="none" xmlns="http://www.w3.org/2000/svg">
<path fill-rule="evenodd" clip-rule="evenodd" d="M12 0C18.6264 0 24 5.3736 24 12C24 18.6264 18.6264 24 12 24C5.3736 24 0 18.6264 0 12C0 5.3736 5.3736 0 12 0Z" fill="#1E1E1E"/>
<path d="M12.18 17.016C8.34239 17.016 5.23199 15.9072 5.23199 14.4216C5.23199 13.6464 6.07919 12.948 7.43519 12.456C8.49359 13.1352 10.2696 13.4832 12.2832 13.4832C14.2488 13.4832 15.9864 13.0584 17.0544 12.408C18.3336 12.8952 19.128 13.5744 19.128 14.3232C19.128 15.8112 16.0176 17.016 12.18 17.016Z" fill="white"/>
<path d="M12.2208 13.1497C9.31202 13.1497 6.95282 12.2377 6.95282 11.1121C6.95282 10.4881 7.68002 9.92885 8.82002 9.55685C9.63362 9.98165 10.8528 10.2529 12.2208 10.2529C13.5888 10.2529 14.808 9.98165 15.6216 9.55685C16.764 9.93125 17.4888 10.4881 17.4888 11.1121C17.4912 12.2377 15.132 13.1497 12.2208 13.1497Z" fill="white"/>
<path d="M12.2016 9.91443C9.95278 9.91443 8.12878 9.16083 8.12878 8.23443C8.12878 7.30803 9.95278 6.55443 12.2016 6.55443C14.4504 6.55443 16.2744 7.30803 16.2744 8.23443C16.2744 9.16083 14.4504 9.91443 12.2016 9.91443Z" fill="white"/>
</svg>
