<svg width="24" height="24" viewBox="0 0 24 24" fill="none" xmlns="http://www.w3.org/2000/svg">
<path d="M12 24C18.6274 24 24 18.6274 24 12C24 5.37258 18.6274 0 12 0C5.37258 0 0 5.37258 0 12C0 18.6274 5.37258 24 12 24Z" fill="#516AFF"/>
<path d="M14.1 8.69999L16.2 9.89999V3.89999L12 1.79999L5.47498 5.47499V18.525L12 22.275L18.45 18.45V12L12.225 8.24999L10.125 9.29999L16.35 12.975L16.425 17.4L12 19.875L7.49998 17.325V6.52499L12 4.04999L14.1 5.17499V8.69999Z" fill="white"/>
<path d="M11.775 12.3L13.2 11.55L14.775 12.525L10.125 15.15V9.75L11.775 10.725" fill="white"/>
</svg>
