<svg width="24" height="24" viewBox="0 0 24 24" fill="none" xmlns="http://www.w3.org/2000/svg">
<path fill-rule="evenodd" clip-rule="evenodd" d="M6.79028 13.6828L11.9117 16.2472V20.3706L6.79028 13.6828Z" fill="white"/>
<path fill-rule="evenodd" clip-rule="evenodd" d="M17.3642 13.6828L12.2246 20.3706V16.2472L17.3642 13.6828Z" fill="white"/>
<path fill-rule="evenodd" clip-rule="evenodd" d="M23.9717 11.9774C23.9717 18.5719 18.6259 23.9177 12.0314 23.9177C5.43686 23.9177 0.0910645 18.5719 0.0910645 11.9774C0.0910645 5.38285 5.43686 0.0370636 12.0314 0.0370636C18.6259 0.0370636 23.9717 5.38285 23.9717 11.9774Z" fill="#F99400"/>
<path fill-rule="evenodd" clip-rule="evenodd" d="M14.7497 13.6532C14.7497 16.1471 12.7279 18.1688 10.2341 18.1688C7.74024 18.1688 5.71851 16.1471 5.71851 13.6532C5.71851 11.1594 7.74024 9.13766 10.2341 9.13766C12.7279 9.13766 14.7497 11.1594 14.7497 13.6532Z" fill="white"/>
<path fill-rule="evenodd" clip-rule="evenodd" d="M18.3442 4.95195C18.3442 5.82156 17.6392 6.52652 16.7696 6.52652C15.9 6.52652 15.1951 5.82156 15.1951 4.95195C15.1951 4.08234 15.9 3.37738 16.7696 3.37738C17.6392 3.37738 18.3442 4.08234 18.3442 4.95195Z" fill="white"/>
<path fill-rule="evenodd" clip-rule="evenodd" d="M11.6224 5.87586C11.6224 6.64267 11.0008 7.26428 10.234 7.26428C9.4672 7.26428 8.8457 6.64267 8.8457 5.87586C8.8457 5.10905 9.4672 4.48744 10.234 4.48744C11.0008 4.48744 11.6224 5.10905 11.6224 5.87586Z" fill="white"/>
<path fill-rule="evenodd" clip-rule="evenodd" d="M17.1881 18.2251C17.1881 18.9829 16.5736 19.5974 15.8158 19.5974C15.0579 19.5974 14.4436 18.9829 14.4436 18.2251C14.4436 17.4672 15.0579 16.8528 15.8158 16.8528C16.5736 16.8528 17.1881 17.4672 17.1881 18.2251Z" fill="white"/>
<path fill-rule="evenodd" clip-rule="evenodd" d="M9.66553 10.2399H10.7676V6.70137H9.66553V10.2399Z" fill="white"/>
<path fill-rule="evenodd" clip-rule="evenodd" d="M12.1619 11.0273L11.3435 10.2891L15.8186 5.32846L16.637 6.06673L12.1619 11.0273Z" fill="white"/>
<path fill-rule="evenodd" clip-rule="evenodd" d="M15.5043 18.6589L16.2837 17.8795L11.5596 13.1555L10.7803 13.9348L15.5043 18.6589Z" fill="white"/>
</svg>
