<svg width="24" height="24" viewBox="0 0 24 24" fill="none" xmlns="http://www.w3.org/2000/svg">
<path d="M20.322 3.96904L16.5697 2H7.31889L3.75232 4.00619L0 8.94737L12 22.582L24 8.94737L20.322 3.96904ZM22.774 8.72446L18.0929 11.1022L16.5697 6.4582L20.0248 4.78638L22.774 8.72446ZM7.6161 2.74303H16.2724L19.2074 4.26625L16.2353 5.67802H7.57895L4.97833 4.30341L7.6161 2.74303ZM4.01238 4.78638L7.05882 6.4582L5.98142 11.1022L1.04025 8.613L4.01238 4.78638ZM2.00619 10.0248L5.83282 11.9938L10.5139 20.0557L2.00619 10.0248ZM11.9628 21.0588L6.65015 11.8452L7.95046 6.4582H15.8638L17.2755 11.6966L11.9628 21.0588ZM13.3003 20.0186L18.0557 12.031L22.031 10.0248L13.3003 20.0186Z" fill="black"/>
<path d="M15.3808 12.6997C15.1787 12.1853 14.7955 11.7624 14.3034 11.5108C14.4534 11.4592 14.5907 11.3761 14.706 11.2672C14.8213 11.1583 14.9121 11.026 14.9722 10.8792C15.0465 10.6563 15.0465 10.4706 15.0093 10.2476C15.0093 10.2476 14.9722 9.91328 14.8607 9.61607C14.6378 9.13309 13.8948 8.68727 12.8545 8.57582V7.38696H11.9257V8.57582H11.2198V7.38696H10.2539V8.57582H8.73068V9.356C8.89728 9.3756 9.0573 9.43256 9.19882 9.52261C9.34034 9.61267 9.4597 9.73351 9.54802 9.87613C9.69662 10.099 9.69662 10.2848 9.73378 10.3963L9.80808 13.3684C9.80808 13.7399 9.65947 14.0743 9.36226 14.26C8.99074 14.4829 8.61923 14.3715 8.54492 14.3715V15.226H10.2167V16.4891H11.2198V15.3746H11.9257L11.9629 16.4891H12.8917V15.2631H13.7833C14.123 15.2664 14.4571 15.1764 14.7493 15.0031C15.4551 14.5201 15.678 13.4798 15.3808 12.6997ZM11.2941 9.76467H12.483C12.9288 9.76467 13.3003 10.099 13.3003 10.5449C13.3003 10.9907 12.966 11.3622 12.5202 11.3622H11.2941V9.76467ZM12.7802 14.1486H11.3685V12.4024H12.7802C13.226 12.4396 13.5976 12.8111 13.6347 13.2198C13.6719 13.7028 13.3003 14.1114 12.7802 14.1486Z" fill="#FCC339"/>
</svg>
