<svg width="24" height="24" viewBox="0 0 24 24" fill="none" xmlns="http://www.w3.org/2000/svg">
<path fill-rule="evenodd" clip-rule="evenodd" d="M24 12C24 18.6274 18.6274 24 12 24C5.37255 24 0 18.6274 0 12C0 5.37255 5.37255 0 12 0C18.6274 0 24 5.37255 24 12Z" fill="#182C44"/>
<path fill-rule="evenodd" clip-rule="evenodd" d="M10.6443 19.8659C10.4043 19.8659 10.1649 19.8008 9.94953 19.6712C9.54027 19.425 9.29596 18.9929 9.29596 18.5152V15.3529C9.29596 15.0629 9.53099 14.8279 9.82098 14.8279C10.111 14.8279 10.346 15.0629 10.346 15.3529V18.5152C10.346 18.6679 10.4473 18.7453 10.4909 18.7714C10.5344 18.7977 10.6502 18.8509 10.785 18.7794L13.2462 17.4745C13.7204 17.2231 13.9976 16.7526 13.9878 16.2159C13.978 15.6793 13.6836 15.2193 13.2005 14.9855L9.99316 13.4334C9.43884 13.1651 9.09448 12.6158 9.09448 12C9.09448 11.3841 9.43884 10.8349 9.99316 10.5666L13.2005 9.01445C13.6836 8.78068 13.978 8.3207 13.9878 7.78408C13.9976 7.2474 13.7204 6.77688 13.2462 6.52547L10.785 5.22059C10.6502 5.14912 10.5344 5.20229 10.4909 5.22854C10.4473 5.25473 10.346 5.3321 10.346 5.48472V8.64709C10.346 8.93708 10.111 9.1721 9.82098 9.1721C9.53099 9.1721 9.29596 8.93708 9.29596 8.64709V5.48472C9.29596 5.00711 9.54027 4.57498 9.94953 4.32874C10.3587 4.08258 10.855 4.06912 11.277 4.29281L13.7381 5.59769C14.5567 6.03175 15.0548 6.87692 15.0377 7.80331C15.0206 8.72983 14.492 9.5561 13.6579 9.95973L10.4506 11.5118C10.2589 11.6046 10.1445 11.787 10.1445 12C10.1445 12.2129 10.2589 12.3954 10.4506 12.4881L13.6579 14.0403C14.492 14.4439 15.0206 15.2702 15.0377 16.1966C15.0548 17.1231 14.5567 17.9682 13.7381 18.4023L11.277 19.7072C11.077 19.8131 10.8604 19.8659 10.6443 19.8659Z" fill="#FFFFFE"/>
<path fill-rule="evenodd" clip-rule="evenodd" d="M17.0569 9.99786V14.0021L19.6364 12L17.0569 9.99786ZM16.5318 15.5993C16.4532 15.5993 16.3742 15.5818 16.301 15.5458C16.1209 15.4577 16.0068 15.2747 16.0068 15.0743V8.92568C16.0068 8.72526 16.1209 8.54234 16.301 8.45416C16.4809 8.36605 16.6954 8.388 16.8538 8.51092L20.8146 11.5852C20.9428 11.6847 21.0177 11.8378 21.0177 12C21.0177 12.1622 20.9428 12.3153 20.8146 12.4148L16.8538 15.4891C16.7599 15.5619 16.6463 15.5993 16.5318 15.5993ZM4.36344 12L6.94297 14.0021V9.99786L4.36344 12ZM7.46806 15.5993C7.35356 15.5993 7.23999 15.5619 7.14604 15.4891L3.18525 12.4148C3.05709 12.3153 2.98218 12.1622 2.98218 12C2.98218 11.8378 3.05709 11.6847 3.18525 11.5852L7.14604 8.51092C7.30443 8.388 7.51897 8.36592 7.69891 8.45416C7.87891 8.54234 7.99301 8.72526 7.99301 8.92568V15.0743C7.99301 15.2747 7.87891 15.4577 7.69891 15.5458C7.62565 15.5817 7.54662 15.5993 7.46806 15.5993Z" fill="#FFFFFE"/>
</svg>
