<svg width="24" height="24" viewBox="0 0 24 24" fill="none" xmlns="http://www.w3.org/2000/svg">
<path fill-rule="evenodd" clip-rule="evenodd" d="M20.0387 19.3759C19.9756 19.3058 19.8669 19.3011 19.7979 19.3666L19.7956 19.3701C19.7265 19.4356 19.7254 19.5444 19.7932 19.611L23.5673 23.329L20.0387 19.3759Z" fill="black"/>
<path fill-rule="evenodd" clip-rule="evenodd" d="M18.6146 13.5499L18.6111 13.5534C18.5421 13.6189 18.5421 13.7276 18.6088 13.7943L22.5443 17.6655L18.8555 13.5593C18.7924 13.4891 18.6836 13.4845 18.6146 13.5499Z" fill="black"/>
<path fill-rule="evenodd" clip-rule="evenodd" d="M15.3971 12.7771L12.9554 10.3912C12.9186 11.6502 12.7205 14.2504 12.2173 15.4665C12.2095 15.4852 12.1984 15.5046 12.1895 15.5235C12.5451 15.75 13.2931 16.1876 13.5906 16.1876C13.9623 16.1866 14.7031 15.776 14.9712 15.5186C15.2038 15.2934 15.4502 14.8419 15.6886 14.4052C15.8809 14.053 16.0796 13.6886 16.2864 13.4092C16.4102 13.2422 16.5249 13.1198 16.637 13.0347C16.8694 12.86 17.2528 12.7194 17.6586 12.5706C18.2018 12.3715 18.8174 12.1457 19.0047 11.8392C19.1924 11.5329 19.082 10.4705 19.0065 9.96523C18.4936 10.0211 16.4113 10.176 14.9106 9.21247C14.1963 8.75337 13.1438 7.74979 12.6573 7.27148C12.8318 8.29789 12.9463 9.35889 12.9573 10.0718L15.3971 12.7771Z" fill="#FECD0F"/>
<path fill-rule="evenodd" clip-rule="evenodd" d="M15.238 19.8916L15.2356 19.8939C15.1667 19.9594 15.1656 20.0693 15.2334 20.1347L19.0215 23.8703L15.4789 19.9009C15.4157 19.8308 15.307 19.8261 15.238 19.8916Z" fill="black"/>
<path fill-rule="evenodd" clip-rule="evenodd" d="M15.9664 16.5162C15.9244 16.5162 15.8835 16.5314 15.8507 16.5629C15.7817 16.6284 15.7806 16.7382 15.8495 16.8049L18.5107 19.369L16.0928 16.5746C16.0599 16.536 16.0133 16.5162 15.9664 16.5162Z" fill="black"/>
<path fill-rule="evenodd" clip-rule="evenodd" d="M12.1561 19.2217V19.5211L12.7244 19.0856C12.7762 19.0461 12.8455 19.0366 12.9057 19.0614C12.9662 19.086 13.0076 19.1396 13.0167 19.2042C13.0353 19.4997 13.1062 20.2962 13.2184 20.5367C13.3241 20.7627 13.7072 21.2089 14.2972 21.7926C14.3139 21.8092 14.3321 21.8061 14.3413 21.8027C14.351 21.7992 14.3675 21.79 14.3699 21.7664C14.3966 21.6301 14.4183 21.4671 14.4108 21.4249C14.275 20.6732 13.1335 18.765 12.9061 18.3902C12.8915 18.3664 12.8709 18.3472 12.8451 18.3336L11.8918 17.8321V18.2089L12.1561 18.4207V19.2217Z" fill="#FECD0F"/>
<path fill-rule="evenodd" clip-rule="evenodd" d="M10.4876 21.0491H10.4864C10.4175 21.1145 10.4163 21.2245 10.4841 21.2911L13.2492 23.9873L10.7296 21.062C10.6665 20.9894 10.5566 20.9836 10.4876 21.0491Z" fill="black"/>
<mask id="mask0" mask-type="alpha" maskUnits="userSpaceOnUse" x="1" y="0" width="12" height="20">
<path d="M10.7025 11.2321L10.9652 11.5344L10.7513 11.5637C10.4046 11.611 9.86332 11.7301 9.74545 11.8466C9.58592 12.0046 9.43029 12.7034 9.3697 13.1066L9.36513 13.137L9.34629 13.1612C9.24219 13.2946 8.88278 13.7307 8.62651 13.7415C8.62216 13.7418 8.61775 13.7418 8.61333 13.7418C8.45166 13.7418 8.26614 13.6183 8.04837 13.3684C7.84084 13.3553 7.34773 13.2902 7.17421 12.9695C7.07365 12.7836 7.25733 12.3696 7.34972 12.1844C7.34663 12.1603 7.34486 12.1361 7.34486 12.1118C7.34891 11.8632 7.60474 11.387 7.83833 11.2696C8.00611 11.1845 8.25694 11.2115 8.52263 11.2399C8.7577 11.265 9.02398 11.2936 9.1255 11.2174C9.27804 11.1038 9.351 10.4182 9.35232 9.99062L9.35328 9.67899L9.9267 10.3391C10.0351 10.0698 10.1535 9.72397 10.142 9.5919C10.1253 9.40917 9.82827 8.91283 9.64496 8.64316L9.83836 8.5116C9.89041 8.58824 10.3471 9.26797 10.3749 9.57106C10.3956 9.80738 10.1816 10.3394 10.0981 10.5363L10.5444 11.0501C10.7618 10.7365 11.1313 10.1572 11.1449 9.91538C11.162 9.59757 10.7817 8.78981 10.4509 8.19445C10.4321 8.15926 10.4214 8.141 10.4208 8.13975L10.6223 8.02115C10.6223 8.02115 10.6349 8.04257 10.6563 8.08277C10.8312 8.39742 11.4032 9.46608 11.3784 9.92827C11.3588 10.2734 10.8748 10.9879 10.7025 11.2321ZM6.54278 7.20118C6.44803 7.38014 6.33929 7.55543 6.19316 7.70863C6.17092 7.73087 6.14759 7.75428 6.123 7.77526C6.22827 7.75428 6.35218 7.76363 6.45274 7.87347C6.55794 7.98927 6.53806 8.41833 6.40246 8.49548C6.20486 8.6054 5.65065 8.17163 5.50334 8.05236C5.38643 8.08159 5.26952 8.105 5.15026 8.12252C5.08474 8.13187 5.02629 8.08395 5.02047 8.0185C5.01576 7.95651 5.06258 7.9027 5.12449 7.89688C5.28005 7.884 5.43672 7.86066 5.58749 7.82554C5.68106 7.80338 5.77345 7.77762 5.85878 7.7414C5.9441 7.70746 6.02008 7.66306 6.09495 7.60108C6.24226 7.48181 6.36741 7.32633 6.48079 7.16385C6.59306 7.00012 6.69473 6.82704 6.78241 6.64586C6.71696 6.83646 6.63627 7.02117 6.54278 7.20118ZM3.30175 6.46343C2.63416 6.46343 2.09284 5.92211 2.09284 5.2557C2.09284 4.58812 2.63416 4.04672 3.30175 4.04672C3.41865 4.04672 3.5321 4.06432 3.63966 4.09583C3.59755 3.94387 3.57421 3.78368 3.57421 3.61884C3.57421 2.60628 4.39382 1.78675 5.40631 1.78675C6.41762 1.78675 7.23723 2.60628 7.23723 3.61884C7.23723 4.63016 6.41762 5.44976 5.40631 5.44976C5.07892 5.44976 4.77259 5.36326 4.50719 5.21359C4.50837 5.22765 4.50955 5.24164 4.50955 5.2557C4.50955 5.92211 3.96822 6.46343 3.30175 6.46343ZM12.7242 10.2797H12.8412L12.7569 10.1979L12.8412 10.1172L12.7242 10.1184C12.7167 9.33475 12.5747 8.09065 12.3626 6.94903C12.2778 6.4864 12.187 6.07686 12.0996 5.76427C11.4302 3.36574 9.63296 1.48314 7.03905 0.463285C6.25765 0.156512 4.46722 0.155261 3.8324 0.560611C0.765034 2.51661 1.61527 5.64014 1.89465 6.66662C2.16764 7.67109 2.98665 8.99094 4.39632 9.40527L5.32091 9.49281L4.53414 9.56113C4.55122 9.63644 4.53752 9.72692 4.50896 9.816L4.94795 9.83543L4.47215 9.9145C4.43232 10.0073 4.38535 10.0879 4.35583 10.1281C4.2616 10.2547 4.09978 10.3948 3.92862 10.5431C3.71902 10.7246 3.48145 10.9304 3.40754 11.0873C3.38317 11.1389 3.35887 11.1984 3.3334 11.269C3.18322 11.6943 3.09959 12.3365 3.09826 13.0766C3.09598 13.9993 3.22268 14.95 3.42108 15.499C3.65173 16.1385 4.77031 17.1256 5.38312 17.4537C5.5389 17.5366 5.76712 17.6079 6.06123 17.6653L6.03848 17.7816L6.04032 17.7797L6.0627 17.6665C6.69075 17.7905 7.49019 17.8247 7.96768 17.8048C8.39541 17.7867 9.67964 17.4232 10.0855 17.3056L9.7936 16.592L10.01 16.5035L11.0355 19.0101L11.9222 19.0932V18.5331L11.1127 17.8839L10.7381 16.1338L10.9667 16.0847L11.1009 16.7115C11.3613 16.3724 11.7552 15.8421 11.9364 15.5097C11.9614 15.4647 11.9837 15.419 12.0015 15.3767C12.4627 14.262 12.6857 11.7495 12.7231 10.3328L12.7242 10.2797Z" fill="white"/>
</mask>
<g mask="url(#mask0)">
<path fill-rule="evenodd" clip-rule="evenodd" d="M10.7025 11.2321L10.9652 11.5344L10.7513 11.5637C10.4046 11.611 9.86332 11.7301 9.74545 11.8466C9.58592 12.0046 9.43029 12.7034 9.3697 13.1066L9.36513 13.137L9.34629 13.1612C9.24219 13.2946 8.88278 13.7307 8.62651 13.7415C8.62216 13.7418 8.61775 13.7418 8.61333 13.7418C8.45166 13.7418 8.26614 13.6183 8.04837 13.3684C7.84084 13.3553 7.34773 13.2902 7.17421 12.9695C7.07365 12.7836 7.25733 12.3696 7.34972 12.1844C7.34663 12.1603 7.34486 12.1361 7.34486 12.1118C7.34891 11.8632 7.60474 11.387 7.83833 11.2696C8.00611 11.1845 8.25694 11.2115 8.52263 11.2399C8.7577 11.265 9.02398 11.2936 9.1255 11.2174C9.27804 11.1038 9.351 10.4182 9.35232 9.99062L9.35328 9.67899L9.9267 10.3391C10.0351 10.0698 10.1535 9.72397 10.142 9.5919C10.1253 9.40917 9.82827 8.91283 9.64496 8.64316L9.83836 8.5116C9.89041 8.58824 10.3471 9.26797 10.3749 9.57106C10.3956 9.80738 10.1816 10.3394 10.0981 10.5363L10.5444 11.0501C10.7618 10.7365 11.1313 10.1572 11.1449 9.91538C11.162 9.59757 10.7817 8.78981 10.4509 8.19445C10.4321 8.15926 10.4214 8.141 10.4208 8.13975L10.6223 8.02115C10.6223 8.02115 10.6349 8.04257 10.6563 8.08277C10.8312 8.39742 11.4032 9.46608 11.3784 9.92827C11.3588 10.2734 10.8748 10.9879 10.7025 11.2321ZM6.54278 7.20118C6.44803 7.38014 6.33929 7.55543 6.19316 7.70863C6.17092 7.73087 6.14759 7.75428 6.123 7.77526C6.22827 7.75428 6.35218 7.76363 6.45274 7.87347C6.55794 7.98927 6.53806 8.41833 6.40246 8.49548C6.20486 8.6054 5.65065 8.17163 5.50334 8.05236C5.38643 8.08159 5.26952 8.105 5.15026 8.12252C5.08474 8.13187 5.02629 8.08395 5.02047 8.0185C5.01576 7.95651 5.06258 7.9027 5.12449 7.89688C5.28005 7.884 5.43672 7.86066 5.58749 7.82554C5.68106 7.80338 5.77345 7.77762 5.85878 7.7414C5.9441 7.70746 6.02008 7.66306 6.09495 7.60108C6.24226 7.48181 6.36741 7.32633 6.48079 7.16385C6.59306 7.00012 6.69473 6.82704 6.78241 6.64586C6.71696 6.83646 6.63627 7.02117 6.54278 7.20118ZM3.30175 6.46343C2.63416 6.46343 2.09284 5.92211 2.09284 5.2557C2.09284 4.58812 2.63416 4.04672 3.30175 4.04672C3.41865 4.04672 3.5321 4.06432 3.63966 4.09583C3.59755 3.94387 3.57421 3.78368 3.57421 3.61884C3.57421 2.60628 4.39382 1.78675 5.40631 1.78675C6.41762 1.78675 7.23723 2.60628 7.23723 3.61884C7.23723 4.63016 6.41762 5.44976 5.40631 5.44976C5.07892 5.44976 4.77259 5.36326 4.50719 5.21359C4.50837 5.22765 4.50955 5.24164 4.50955 5.2557C4.50955 5.92211 3.96822 6.46343 3.30175 6.46343ZM12.7242 10.2797H12.8412L12.7569 10.1979L12.8412 10.1172L12.7242 10.1184C12.7167 9.33475 12.5747 8.09065 12.3626 6.94903C12.2778 6.4864 12.187 6.07686 12.0996 5.76427C11.4302 3.36574 9.63296 1.48314 7.03905 0.463285C6.25765 0.156512 4.46722 0.155261 3.8324 0.560611C0.765034 2.51661 1.61527 5.64014 1.89465 6.66662C2.16764 7.67109 2.98665 8.99094 4.39632 9.40527L5.32091 9.49281L4.53414 9.56113C4.55122 9.63644 4.53752 9.72692 4.50896 9.816L4.94795 9.83543L4.47215 9.9145C4.43232 10.0073 4.38535 10.0879 4.35583 10.1281C4.2616 10.2547 4.09978 10.3948 3.92862 10.5431C3.71902 10.7246 3.48145 10.9304 3.40754 11.0873C3.38317 11.1389 3.35887 11.1984 3.3334 11.269C3.18322 11.6943 3.09959 12.3365 3.09826 13.0766C3.09598 13.9993 3.22268 14.95 3.42108 15.499C3.65173 16.1385 4.77031 17.1256 5.38312 17.4537C5.5389 17.5366 5.76712 17.6079 6.06123 17.6653L6.03848 17.7816L6.04032 17.7797L6.0627 17.6665C6.69075 17.7905 7.49019 17.8247 7.96768 17.8048C8.39541 17.7867 9.67964 17.4232 10.0855 17.3056L9.7936 16.592L10.01 16.5035L11.0355 19.0101L11.9222 19.0932V18.5331L11.1127 17.8839L10.7381 16.1338L10.9667 16.0847L11.1009 16.7115C11.3613 16.3724 11.7552 15.8421 11.9364 15.5097C11.9614 15.4647 11.9837 15.419 12.0015 15.3767C12.4627 14.262 12.6857 11.7495 12.7231 10.3328L12.7242 10.2797Z" fill="url(#paint0_linear)"/>
</g>
<mask id="mask1" mask-type="alpha" maskUnits="userSpaceOnUse" x="5" y="17" width="3" height="3">
<path d="M5.49902 17.758C5.61159 18.1882 5.81699 18.8822 5.98484 19.0971C6.14938 19.3065 6.77205 19.6696 7.14258 19.8703V18.5335C6.93814 18.5438 6.57306 18.5482 6.42221 18.4678C6.26452 18.3823 6.05493 18.0414 5.96401 17.884C5.78673 17.8474 5.63088 17.8053 5.49902 17.758Z" fill="white"/>
</mask>
<g mask="url(#mask1)">
<path fill-rule="evenodd" clip-rule="evenodd" d="M5.49902 17.758C5.61159 18.1882 5.81699 18.8822 5.98484 19.0971C6.14938 19.3065 6.77205 19.6696 7.14258 19.8703V18.5335C6.93814 18.5438 6.57306 18.5482 6.42221 18.4678C6.26452 18.3823 6.05493 18.0414 5.96401 17.884C5.78673 17.8474 5.63088 17.8053 5.49902 17.758Z" fill="#356C00"/>
</g>
<path fill-rule="evenodd" clip-rule="evenodd" d="M9.26545 11.4047C9.09053 11.5357 8.8026 11.5049 8.49767 11.4724C8.38024 11.4598 8.25391 11.4464 8.14687 11.4464C8.06272 11.4464 7.9905 11.4547 7.94361 11.4785C7.79975 11.5507 7.58162 11.9306 7.57867 12.1137C7.57867 12.1388 7.58184 12.1657 7.58825 12.1918L7.58876 12.1943C7.65193 12.4804 7.99661 12.9291 8.10984 13.0765C8.13185 13.1052 8.15946 13.1405 8.19141 13.1769C8.45364 13.4893 8.58226 13.5068 8.61671 13.5079C8.71359 13.5039 8.96213 13.2676 9.14317 13.041C9.17556 12.8356 9.3309 11.9282 9.58105 11.6803C9.74302 11.5202 10.2181 11.4157 10.509 11.3649L9.57656 10.293C9.55507 10.6669 9.48586 11.2405 9.26545 11.4047Z" fill="#FECD0F"/>
<path fill-rule="evenodd" clip-rule="evenodd" d="M7.85066 18.526H7.3764V19.6464L8.92249 21.1784L7.85066 18.526Z" fill="#FECD0F"/>
<path fill-rule="evenodd" clip-rule="evenodd" d="M7.38054 12.8594C7.45356 12.9893 7.64941 13.0662 7.85604 13.1055C7.71747 12.9262 7.56623 12.7135 7.46426 12.5129C7.39956 12.675 7.36266 12.8167 7.38054 12.8594Z" fill="#FECD0F"/>
<path fill-rule="evenodd" clip-rule="evenodd" d="M3.8279 3.61884C3.8279 3.13361 4.21956 2.74196 4.70479 2.74196C5.18883 2.74196 5.58167 3.13361 5.58167 3.61884C5.58167 4.10282 5.18883 4.49572 4.70479 4.49572C4.21956 4.49572 3.8279 4.10282 3.8279 3.61884ZM3.14508 5.87882C2.80135 5.87882 2.52189 5.59943 2.52189 5.2557C2.52189 4.91079 2.80135 4.63133 3.14508 4.63133C3.48999 4.63133 3.76945 4.91079 3.76945 5.2557C3.76945 5.59943 3.48999 5.87882 3.14508 5.87882ZM5.40631 5.44976C6.41762 5.44976 7.23723 4.63015 7.23723 3.61884C7.23723 2.60628 6.41762 1.78674 5.40631 1.78674C4.39382 1.78674 3.57421 2.60628 3.57421 3.61884C3.57421 3.78368 3.59755 3.94387 3.63966 4.09582C3.5321 4.06431 3.41865 4.04672 3.30174 4.04672C2.63416 4.04672 2.09283 4.58812 2.09283 5.2557C2.09283 5.92211 2.63416 6.46343 3.30174 6.46343C3.96822 6.46343 4.50955 5.92211 4.50955 5.2557C4.50955 5.24164 4.50837 5.22765 4.50719 5.21359C4.77259 5.36326 5.07892 5.44976 5.40631 5.44976Z" fill="white"/>
<path fill-rule="evenodd" clip-rule="evenodd" d="M6.09495 7.60107C6.02008 7.66306 5.9441 7.70745 5.85878 7.74139C5.77345 7.77761 5.68106 7.80338 5.58749 7.82554C5.43671 7.86066 5.28005 7.88399 5.12449 7.89688C5.06258 7.90269 5.01576 7.95651 5.02047 8.0185C5.02628 8.08395 5.08474 8.13187 5.15026 8.12252C5.26952 8.105 5.38643 8.08159 5.50334 8.05236C5.54891 8.04073 5.59338 8.02902 5.63784 8.01614C5.73716 7.98574 5.83654 7.95069 5.93365 7.90387C6.00263 7.87118 6.06572 7.82554 6.123 7.77526C6.14758 7.75428 6.17092 7.73087 6.19316 7.70863C6.33929 7.55543 6.44803 7.38014 6.54277 7.20117C6.63627 7.02117 6.71696 6.83646 6.78241 6.64586C6.69473 6.82704 6.59306 7.00012 6.48079 7.16385C6.36741 7.32633 6.24226 7.48181 6.09495 7.60107Z" fill="black"/>
<path fill-rule="evenodd" clip-rule="evenodd" d="M5.63786 8.01613C5.59339 8.02902 5.54893 8.04072 5.50336 8.05236C5.65067 8.17162 6.20488 8.60539 6.40247 8.49547C6.53808 8.41832 6.55796 7.98926 6.45276 7.87346C6.35219 7.76362 6.22829 7.75427 6.12301 7.77525C6.06574 7.82553 6.00264 7.87118 5.93366 7.90386C5.83656 7.95069 5.73717 7.98573 5.63786 8.01613Z" fill="#CA1117"/>
<path fill-rule="evenodd" clip-rule="evenodd" d="M5.58171 3.61884C5.58171 3.13362 5.18887 2.74196 4.70483 2.74196C4.2196 2.74196 3.82794 3.13362 3.82794 3.61884C3.82794 4.10282 4.2196 4.49573 4.70483 4.49573C5.18887 4.49573 5.58171 4.10282 5.58171 3.61884Z" fill="black"/>
<path fill-rule="evenodd" clip-rule="evenodd" d="M3.1451 4.63133C2.80137 4.63133 2.52191 4.91079 2.52191 5.2557C2.52191 5.59943 2.80137 5.87882 3.1451 5.87882C3.49001 5.87882 3.76947 5.59943 3.76947 5.2557C3.76947 4.91079 3.49001 4.63133 3.1451 4.63133Z" fill="black"/>
<path fill-rule="evenodd" clip-rule="evenodd" d="M2.06193 10.9741C1.9699 10.9793 1.90968 11.0097 1.8781 11.0675C1.7796 11.2476 1.94892 11.6733 2.14019 12.0117L2.14799 12.0255C2.15226 12.0333 2.15579 12.0402 2.15947 12.0452C2.17354 12.0676 2.17906 12.0787 2.17906 12.0787L2.07452 12.131C2.07393 12.1301 2.0701 12.1225 2.06288 12.1109C2.05957 12.1069 2.05302 12.0955 2.04558 12.082L2.03947 12.071C1.8502 11.7638 1.57891 11.4445 1.3903 11.4713C1.26426 11.4886 1.18784 11.6675 1.14588 11.8145C1.13152 11.8651 1.21376 11.9769 1.27376 12.0584C1.32522 12.1283 1.37381 12.1945 1.39302 12.2525C1.41349 12.3127 1.41893 12.3981 1.42468 12.4888C1.43145 12.5959 1.43911 12.7176 1.47371 12.769C1.54762 12.8755 1.75169 13.0835 1.88914 13.0835C1.88995 13.0835 1.89084 13.0835 1.89172 13.0835C1.93427 13.083 2.02217 12.9797 2.07481 12.8873L2.22868 12.6169L2.1834 12.9248C2.1647 13.052 2.17449 13.1908 2.20365 13.2102C2.36369 13.3188 2.68284 13.1809 2.86453 13.0787C2.86453 13.0779 2.86446 13.0769 2.86446 13.076C2.86571 12.3463 2.94684 11.7058 3.09216 11.2572C2.98261 11.2034 2.70846 11.0711 2.59884 11.0412C2.47 11.0053 2.19702 10.9678 2.06193 10.9741Z" fill="#FECD0F"/>
<path fill-rule="evenodd" clip-rule="evenodd" d="M11.9365 15.5097C11.7552 15.8421 11.3613 16.3724 11.1009 16.7115L10.9667 16.0847L10.7382 16.1338L11.1127 17.8839L11.9222 18.5331V19.0932L11.0355 19.0101L10.01 16.5035L9.79362 16.592L10.0855 17.3056C9.67966 17.4232 8.39544 17.7867 7.96771 17.8048C7.49021 17.8247 6.69078 17.7905 6.06273 17.6665L6.04035 17.7797L6.03851 17.7816L6.06126 17.6653C5.76715 17.6079 5.53893 17.5366 5.38315 17.4537C4.77034 17.1256 3.65176 16.1385 3.42111 15.499C3.22271 14.95 3.09601 13.9993 3.09829 13.0766C3.09961 12.3365 3.18325 11.6943 3.33343 11.269C3.3589 11.1984 3.3832 11.1389 3.40756 11.0873C3.48148 10.9304 3.71905 10.7246 3.92864 10.5431C4.09981 10.3948 4.26163 10.2547 4.35586 10.1281C4.38538 10.0879 4.43235 10.0073 4.47218 9.9145L4.94798 9.83543L4.50899 9.816C4.53755 9.72692 4.55124 9.63644 4.53417 9.56112L5.32094 9.49281L4.39635 9.40527C2.98668 8.99094 2.16766 7.67109 1.89468 6.66662C1.61529 5.64014 0.765061 2.51661 3.83242 0.560609C4.46724 0.15526 6.25767 0.156511 7.03907 0.463284C9.63299 1.48314 11.4303 3.36574 12.0996 5.76427C12.187 6.07686 12.2778 6.4864 12.3626 6.94903C12.5748 8.09065 12.7167 9.33474 12.7243 10.1184L12.8412 10.1172L12.757 10.1979L12.8412 10.2797H12.7243L12.7232 10.3328C12.6858 11.7495 12.4627 14.262 12.0015 15.3767C11.9837 15.419 11.9614 15.4647 11.9365 15.5097ZM11.8918 17.8321L12.8451 18.3336C12.8709 18.3472 12.8915 18.3664 12.9061 18.3902C13.1335 18.765 14.275 20.6732 14.4108 21.4249C14.4183 21.4671 14.3966 21.6301 14.3699 21.7664C14.3675 21.79 14.351 21.7992 14.3413 21.8027C14.3321 21.8061 14.3139 21.8092 14.2972 21.7926C13.7072 21.2089 13.3241 20.7627 13.2184 20.5367C13.1062 20.2962 13.0353 19.4997 13.0167 19.2042C13.0076 19.1396 12.9662 19.086 12.9057 19.0614C12.8455 19.0366 12.7762 19.0461 12.7244 19.0856L12.1561 19.5211V18.4207L11.8918 18.2089V17.8321ZM6.42221 18.4678C6.57306 18.5482 6.93814 18.5438 7.14258 18.5335V19.8703C6.77205 19.6696 6.14938 19.3065 5.98484 19.0971C5.81699 18.8822 5.61159 18.1882 5.49902 17.758C5.63088 17.8053 5.78673 17.8474 5.96401 17.884C6.05493 18.0414 6.26452 18.3823 6.42221 18.4678ZM2.86447 13.076C2.86447 13.0769 2.86455 13.0779 2.86455 13.0787C2.68285 13.1809 2.36371 13.3188 2.20366 13.2102C2.17451 13.1908 2.16472 13.052 2.18342 12.9248L2.22869 12.6169L2.07483 12.8873C2.02219 12.9797 1.93429 13.083 1.89174 13.0835C1.89085 13.0835 1.88997 13.0835 1.88916 13.0835C1.75171 13.0835 1.54764 12.8755 1.47372 12.769C1.43912 12.7176 1.43147 12.5959 1.42469 12.4888C1.41895 12.3981 1.4135 12.3127 1.39304 12.2525C1.37382 12.1945 1.32523 12.1283 1.27377 12.0584C1.21377 11.9769 1.13154 11.8651 1.1459 11.8145C1.18786 11.6675 1.26428 11.4886 1.39031 11.4713C1.57893 11.4445 1.85021 11.7638 2.03949 12.071L2.0456 12.082C2.05304 12.0955 2.05959 12.1069 2.0629 12.1109C2.07012 12.1225 2.07394 12.1301 2.07453 12.131L2.17907 12.0787C2.17907 12.0787 2.17355 12.0676 2.15949 12.0452C2.15581 12.0402 2.15228 12.0333 2.14801 12.0255L2.1402 12.0117C1.94894 11.6733 1.77961 11.2476 1.87812 11.0675C1.9097 11.0097 1.96992 10.9793 2.06194 10.9741C2.19704 10.9678 2.47002 11.0053 2.59885 11.0412C2.70847 11.0711 2.98263 11.2034 3.09218 11.2572C2.94685 11.7058 2.86572 12.3463 2.86447 13.076ZM14.9106 9.21246C16.4113 10.176 18.4936 10.0211 19.0065 9.96522C19.082 10.4705 19.1924 11.5329 19.0047 11.8392C18.8174 12.1457 18.2018 12.3715 17.6586 12.5705C17.2528 12.7194 16.8694 12.86 16.637 13.0347C16.5249 13.1198 16.4102 13.2422 16.2864 13.4091C16.0796 13.6886 15.8809 14.053 15.6886 14.4052C15.4502 14.8419 15.2038 15.2934 14.9711 15.5186C14.7031 15.776 13.9623 16.1866 13.5906 16.1876C13.2931 16.1876 12.5451 15.75 12.1895 15.5235C12.1984 15.5046 12.2095 15.4852 12.2173 15.4665C12.7205 14.2504 12.9186 11.6502 12.9554 10.3912L15.3971 12.7771L12.9573 10.0718C12.9462 9.35889 12.8318 8.29789 12.6573 7.27148C13.1438 7.74979 14.1963 8.75337 14.9106 9.21246ZM7.3764 18.526H7.85066L8.92248 21.1784L7.3764 19.6464V18.526ZM13.591 16.4215C14.0357 16.4202 14.8331 15.9752 15.1334 15.6871C15.392 15.4369 15.6358 14.9901 15.8939 14.5172C16.0823 14.1719 16.2772 13.8147 16.4742 13.5483C16.5845 13.3995 16.6841 13.2925 16.7779 13.2213C16.9823 13.0677 17.3499 12.9328 17.7392 12.7901C18.3465 12.5675 18.9744 12.3372 19.2041 11.9613C19.489 11.4967 19.2482 9.98679 19.2198 9.81622L19.2011 9.70365L19.088 9.71963C19.0637 9.72316 16.6496 10.0512 15.037 9.01575C14.1864 8.46912 12.7874 7.07352 12.5859 6.87084C12.5018 6.41654 12.4117 6.01251 12.3248 5.70132C11.6353 3.2305 9.78847 1.29305 7.12447 0.245665C6.37009 -0.0505073 4.4604 -0.117796 3.70661 0.36353C0.494215 2.412 1.37846 5.66061 1.66904 6.72802C1.95652 7.78557 2.82045 9.17411 4.3097 9.62245C4.31743 9.68495 4.24889 9.87887 4.16798 9.98886C4.08921 10.0946 3.93689 10.2266 3.77551 10.3664C3.53736 10.5727 3.29117 10.7859 3.19605 10.9875C3.17419 11.0339 3.15247 11.0872 3.13031 11.1456C3.01046 11.0869 2.74565 10.9602 2.63007 10.9285C2.49225 10.8902 2.20528 10.8498 2.05576 10.8574C1.9217 10.8649 1.82739 10.9167 1.77556 11.0114C1.69929 11.1508 1.73375 11.3611 1.80634 11.5701C1.67132 11.4333 1.51988 11.3345 1.37434 11.3555C1.22305 11.3764 1.10835 11.52 1.03348 11.7825C1.00337 11.8882 1.09296 12.0099 1.17961 12.1277C1.22342 12.1871 1.26869 12.2487 1.28217 12.2897C1.29777 12.3357 1.30293 12.4172 1.30801 12.496C1.31603 12.6241 1.32442 12.7565 1.37721 12.835C1.43161 12.9133 1.68074 13.206 1.89358 13.2004C1.95225 13.1997 2.00975 13.1577 2.05775 13.1075C2.06298 13.189 2.08337 13.2706 2.13829 13.3071C2.20057 13.3495 2.27478 13.3662 2.35348 13.3662C2.53186 13.3662 2.7324 13.2802 2.86536 13.2109C2.87507 14.1158 3.00405 15.0331 3.20113 15.5784C3.44761 16.2617 4.5603 17.2588 5.22619 17.6332C5.28582 17.8765 5.55225 18.9232 5.80072 19.2413C6.06148 19.5732 7.08965 20.1087 7.20597 20.1686L7.3764 20.2564V19.9757L8.84636 21.4322C8.88693 21.4727 8.93964 21.4936 8.99286 21.4936C9.0324 21.4936 9.0723 21.4821 9.10786 21.4586C9.19156 21.4032 9.22366 21.2994 9.18597 21.2064L8.00828 18.2922H7.3764V18.2827L7.25036 18.2926C7.01147 18.3113 6.63071 18.3141 6.53301 18.2619C6.47743 18.2318 6.37392 18.0963 6.27269 17.9398C6.74931 18.013 7.27922 18.0439 7.69156 18.0439C7.79529 18.0439 7.89159 18.042 7.97758 18.0384C8.44558 18.0186 9.78987 17.6355 10.1747 17.5234L10.8727 19.2298L11.9222 19.3281V19.6309C11.9222 19.6999 11.9608 19.7616 12.0229 19.792C12.0849 19.8225 12.1576 19.8148 12.212 19.7728L12.7911 19.3291C12.812 19.613 12.8778 20.3596 13.0065 20.6357C13.1568 20.9569 13.7019 21.5324 14.1323 21.9584C14.1852 22.0112 14.2546 22.0393 14.3262 22.0393C14.3572 22.0393 14.3887 22.0339 14.4193 22.023C14.521 21.9871 14.5913 21.898 14.6009 21.8015C14.615 21.7303 14.6598 21.4899 14.641 21.3838C14.5015 20.6109 13.4309 18.8041 13.1057 18.2684C13.0691 18.2087 13.0168 18.1598 12.9541 18.1268L11.9438 17.5952C11.8823 17.5639 11.8104 17.5665 11.7514 17.6027C11.6929 17.6385 11.658 17.7009 11.658 17.7694V18.0213L11.324 17.7534L11.165 17.0108C11.4267 16.6755 11.8453 16.1228 12.0791 15.7305C12.3806 15.9222 13.2029 16.4215 13.591 16.4215Z" fill="black"/>
<path fill-rule="evenodd" clip-rule="evenodd" d="M9.58111 11.6803C9.33095 11.9282 9.17562 12.8356 9.14322 13.041C8.96219 13.2677 8.71365 13.5039 8.61677 13.5079C8.58231 13.5068 8.4537 13.4893 8.19147 13.177C8.15952 13.1405 8.13191 13.1052 8.1099 13.0765C7.99667 12.9291 7.65198 12.4804 7.58882 12.1943L7.5883 12.1918C7.5819 12.1657 7.57873 12.1388 7.57873 12.1137C7.58168 11.9306 7.79981 11.5507 7.94366 11.4785C7.99056 11.4547 8.06278 11.4464 8.14693 11.4464C8.25397 11.4464 8.3803 11.4598 8.49773 11.4724C8.80266 11.5049 9.09059 11.5357 9.26551 11.4047C9.48592 11.2405 9.55512 10.6669 9.57662 10.293L10.5091 11.365C10.2181 11.4158 9.74308 11.5202 9.58111 11.6803ZM7.3804 12.8594C7.36317 12.8167 7.39873 12.675 7.46109 12.5129C7.55937 12.7135 7.70514 12.9262 7.83868 13.1055C7.63954 13.0662 7.45078 12.9893 7.3804 12.8594ZM10.6223 8.02115L10.4208 8.13975C10.4215 8.141 10.4322 8.15926 10.4509 8.19445C10.7818 8.78981 11.1621 9.59757 11.1449 9.91538C11.1313 10.1572 10.7618 10.7365 10.5444 11.0501L10.0981 10.5363C10.1816 10.3394 10.3956 9.80738 10.375 9.57106C10.3472 9.26797 9.89046 8.58824 9.83841 8.5116L9.64501 8.64316C9.82833 8.91283 10.1253 9.40917 10.142 9.5919C10.1536 9.72397 10.0352 10.0698 9.92676 10.3391L9.35333 9.67899L9.35238 9.99062C9.35105 10.4182 9.27809 11.1038 9.12555 11.2174C9.02403 11.2936 8.75775 11.265 8.52268 11.2399C8.25699 11.2115 8.00617 11.1845 7.83839 11.2696C7.60479 11.387 7.34897 11.8632 7.34492 12.1118C7.34492 12.1361 7.34668 12.1603 7.34978 12.1844C7.25738 12.3696 7.0737 12.7836 7.17427 12.9695C7.34779 13.2902 7.84089 13.3553 8.04843 13.3684C8.26619 13.6183 8.45171 13.7418 8.61338 13.7418C8.6178 13.7418 8.62222 13.7418 8.62656 13.7415C8.88283 13.7307 9.24224 13.2946 9.34634 13.1612L9.36519 13.137L9.36975 13.1066C9.43034 12.7034 9.58597 12.0046 9.74551 11.8466C9.86337 11.7301 10.4047 11.611 10.7514 11.5637L10.9652 11.5344L10.7026 11.2321C10.8748 10.9879 11.3589 10.2734 11.3785 9.92827C11.4033 9.46608 10.8312 8.39742 10.6563 8.08277C10.6349 8.04257 10.6223 8.02115 10.6223 8.02115Z" fill="black"/>
<defs>
<linearGradient id="paint0_linear" x1="5.95745" y1="0.243683" x2="12.1826" y2="16.457" gradientUnits="userSpaceOnUse">
<stop stop-color="#B8E27F"/>
<stop offset="1" stop-color="#2A6700"/>
</linearGradient>
</defs>
</svg>
