<svg width="24" height="24" viewBox="0 0 24 24" fill="none" xmlns="http://www.w3.org/2000/svg">
<path d="M4.80005 9.87714V15.912H9.63487C9.65939 15.5888 9.75667 15.2754 9.91943 14.9951L4.80005 9.87714Z" fill="#B9BEC1"/>
<path d="M4.80005 0V8.25516L10.736 14.1911C11.0345 14.0235 11.3687 13.9297 11.7108 13.9177V6.17408L4.80005 0Z" fill="#DE575B"/>
<path d="M6.53333 21.341L9.92443 18.1044C9.70066 17.7707 9.55325 17.3917 9.49271 16.9945H4.81201C4.89919 18.5917 5.50334 20.1172 6.53333 21.341ZM12.7478 9.19148V13.8856C13.0934 13.9546 13.4224 14.0899 13.7166 14.2839L17.0385 10.962C15.8361 9.92551 14.3313 9.30459 12.7478 9.19148ZM11.7168 19.2817C11.3468 19.2149 10.9946 19.0727 10.682 18.8639L7.28072 22.1106C8.51021 23.2086 10.0719 23.8635 11.7168 23.9707V19.2817ZM14.4793 15.0336C14.664 15.3047 14.7984 15.6068 14.8762 15.9254H19.5876C19.4521 14.3682 18.8255 12.8943 17.798 11.7164L14.4793 15.0336ZM13.7983 18.8184C13.5195 19.0168 13.206 19.1612 12.8741 19.2441V23.9573C14.4081 23.8212 15.8611 23.2081 17.0288 22.2039L13.7983 18.8184ZM14.9236 16.9954C14.8719 17.3376 14.7555 17.6667 14.5805 17.9652L17.8444 21.3855C18.8968 20.1549 19.5151 18.6122 19.6038 16.9954H14.9236Z" fill="#B9BEC1"/>
</svg>
