<svg width="24" height="24" viewBox="0 0 24 24" fill="none" xmlns="http://www.w3.org/2000/svg">
<path d="M12 24C18.6274 24 24 18.6274 24 12C24 5.37258 18.6274 0 12 0C5.37258 0 0 5.37258 0 12C0 18.6274 5.37258 24 12 24Z" fill="black"/>
<path d="M12.7057 18.4327C12.7448 18.5242 12.7657 18.624 12.7657 18.729C12.7657 19.155 12.4148 19.5 11.982 19.5C11.5492 19.5 11.1982 19.155 11.1982 18.729C11.1982 18.627 11.2185 18.5295 11.2552 18.4402L6.59775 15.795C6.52418 15.8699 6.43638 15.9293 6.33953 15.9697C6.24267 16.0101 6.13871 16.0308 6.03375 16.0305C5.601 16.0305 5.25 15.6855 5.25 15.2595C5.25 14.8995 5.49975 14.598 5.838 14.5125V9.24225C5.67087 9.20087 5.5223 9.10495 5.4158 8.96966C5.30931 8.83436 5.25096 8.66742 5.25 8.49524C5.25 8.06924 5.601 7.72425 6.03375 7.72425C6.29325 7.72425 6.5235 7.84874 6.66675 8.04074L11.2208 5.45325C11.2056 5.39368 11.1981 5.33245 11.1982 5.271C11.1982 4.845 11.55 4.5 11.982 4.5C12.099 4.49939 12.2146 4.52519 12.3203 4.57547C12.4259 4.62576 12.5189 4.69923 12.5922 4.79042C12.6655 4.88161 12.7173 4.98816 12.7437 5.10215C12.7701 5.21613 12.7705 5.3346 12.7448 5.44875L17.3258 8.05124C17.4683 7.85324 17.7015 7.72425 17.9662 7.72425C18.399 7.72425 18.75 8.06924 18.75 8.49524C18.75 8.85524 18.4987 9.15825 18.1597 9.243L18.1462 14.508C18.492 14.5882 18.75 14.8942 18.75 15.2595C18.75 15.6855 18.399 16.0305 17.9662 16.0305C17.8568 16.0307 17.7486 16.0082 17.6484 15.9643C17.5482 15.9204 17.4582 15.8561 17.3843 15.7755L12.7057 18.4327ZM12.4965 18.1477L17.2118 15.4687C17.1677 15.3155 17.1729 15.1523 17.2267 15.0022L12.678 12.0772C12.5908 12.1694 12.4857 12.2428 12.3691 12.2929C12.2525 12.3429 12.1269 12.3686 12 12.3682C11.8586 12.3686 11.7189 12.3367 11.5917 12.275C11.4645 12.2132 11.353 12.1233 11.2657 12.012L6.783 15.0322C6.82998 15.1828 6.82894 15.3443 6.78 15.4942L11.4615 18.153C11.6055 18.0269 11.7906 17.9576 11.982 17.958C12.1792 17.958 12.3593 18.0292 12.4965 18.147V18.1477ZM12.5858 5.763C12.4791 5.88887 12.3356 5.97807 12.1755 6.018L12.1635 10.56C12.3758 10.596 12.5687 10.7056 12.7081 10.8697C12.8476 11.0337 12.9249 11.2417 12.9263 11.457C12.9263 11.5702 12.9053 11.6797 12.8663 11.7795L17.4188 14.7075C17.52 14.61 17.6475 14.5402 17.79 14.508L17.8035 9.24975C17.6097 9.21024 17.4384 9.09812 17.3246 8.93637C17.2108 8.77462 17.1632 8.57547 17.1915 8.37975L12.5858 5.763ZM11.382 5.76675L6.80625 8.3655C6.83874 8.56355 6.7931 8.76649 6.67895 8.93157C6.56479 9.09665 6.39103 9.21098 6.19425 9.25049V14.5042C6.35325 14.5372 6.49425 14.6167 6.60225 14.7292L11.106 11.6955C11.0743 11.5752 11.0675 11.4496 11.0859 11.3266C11.1044 11.2035 11.1478 11.0855 11.2134 10.9798C11.2791 10.874 11.3656 10.7828 11.4677 10.7117C11.5698 10.6405 11.6853 10.591 11.8073 10.566L11.8193 6.0255C11.6489 5.99008 11.495 5.89907 11.382 5.76675Z" fill="white"/>
</svg>
