<svg width="24" height="24" viewBox="0 0 24 24" fill="none" xmlns="http://www.w3.org/2000/svg">
<path fill-rule="evenodd" clip-rule="evenodd" d="M12.0194 9.70283C14.0187 9.70283 15.6395 8.10385 15.6395 6.1314C15.6395 4.85999 14.1353 2.25972 13.0661 0.572094C12.5829 -0.190698 11.456 -0.190698 10.9727 0.572094C9.90363 2.25972 8.39941 4.85999 8.39941 6.1314C8.39941 8.10385 10.0201 9.70283 12.0194 9.70283Z" fill="#667EEC"/>
<path fill-rule="evenodd" clip-rule="evenodd" d="M9.83484 11.9943C9.83484 10.0218 8.21411 8.42284 6.21482 8.42284C4.92611 8.42284 2.29046 9.90686 0.579877 10.9616C-0.193293 11.4384 -0.193293 12.5502 0.579877 13.0269C2.29046 14.0817 4.92611 15.5657 6.21482 15.5657C8.21411 15.5657 9.83484 13.9667 9.83484 11.9943Z" fill="#667EEC"/>
<path fill-rule="evenodd" clip-rule="evenodd" d="M12.0194 14.2862C10.0201 14.2862 8.39941 15.8852 8.39941 17.8576C8.39941 19.1291 9.90363 21.7294 10.9727 23.417C11.456 24.1798 12.5829 24.1798 13.0661 23.417C14.1353 21.7294 15.6395 19.1291 15.6395 17.8576C15.6395 15.8852 14.0187 14.2862 12.0194 14.2862Z" fill="#667EEC"/>
<path fill-rule="evenodd" clip-rule="evenodd" d="M23.3793 10.9616C21.6686 9.90686 19.033 8.42284 17.7443 8.42284C15.7449 8.42284 14.1243 10.0218 14.1243 11.9943C14.1243 13.9667 15.7449 15.5657 17.7443 15.5657C19.033 15.5657 21.6686 14.0817 23.3793 13.0269C24.1524 12.5502 24.1524 11.4384 23.3793 10.9616Z" fill="#667EEC"/>
</svg>
