<svg width="24" height="24" viewBox="0 0 24 24" fill="none" xmlns="http://www.w3.org/2000/svg">
<g clip-path="url(#clip0)">
<path d="M3.34116 17.1993C3.73071 16.8118 4.25815 16.5947 4.80764 16.5958C5.35712 16.5969 5.88371 16.816 6.27174 17.2051C6.65978 17.5941 6.87753 18.1213 6.87717 18.6708C6.87681 19.2203 6.65837 19.7471 6.26983 20.1357C5.88129 20.5242 5.35441 20.7427 4.80493 20.743C4.25545 20.7434 3.72829 20.5256 3.33924 20.1376C2.95019 19.7496 2.73106 19.223 2.72998 18.6735C2.72891 18.124 2.94597 17.5965 3.3335 17.207L3.34116 17.1993Z" fill="#FDBA4D"/>
<path d="M17.5373 3.72194C17.8276 3.43165 18.1974 3.23395 18.6 3.15385C19.0027 3.07375 19.42 3.11484 19.7993 3.27194C20.1786 3.42903 20.5028 3.69507 20.7309 4.03641C20.9589 4.37775 21.0807 4.77906 21.0807 5.18959C21.0807 5.60012 20.9589 6.00143 20.7309 6.34277C20.5028 6.68411 20.1786 6.95015 19.7993 7.10724C19.42 7.26434 19.0027 7.30543 18.6 7.22533C18.1974 7.14523 17.8276 6.94754 17.5373 6.65724C17.1486 6.26878 16.93 5.74193 16.9296 5.19242C16.9291 4.64291 17.1467 4.11568 17.5347 3.72654H17.5373" fill="#FDBA4D"/>
<path d="M6.00281 15.6025L8.19279 17.7925L10.199 15.7863C9.70389 15.5875 9.25416 15.2905 8.87691 14.9133C8.49966 14.536 8.20269 14.0863 8.00391 13.5912L6.00281 15.6025Z" fill="#FDBA4D"/>
<path d="M15.8506 10.2439L17.8568 8.23773L15.6669 6.04774L13.6606 8.05396C14.1558 8.25262 14.6056 8.54958 14.9828 8.92689C15.3596 9.30152 15.6551 9.7499 15.8506 10.2439Z" fill="#FDBA4D"/>
<path d="M17.4674 20.031C17.1771 19.7408 16.9794 19.3709 16.8993 18.9683C16.8192 18.5656 16.8603 18.1483 17.0174 17.769C17.1745 17.3897 17.4405 17.0655 17.7818 16.8375C18.1232 16.6094 18.5245 16.4876 18.935 16.4876C19.3455 16.4876 19.7468 16.6094 20.0882 16.8375C20.4295 17.0655 20.6956 17.3897 20.8527 17.769C21.0098 18.1483 21.0508 18.5656 20.9707 18.9683C20.8906 19.3709 20.693 19.7408 20.4027 20.031C20.2103 20.2238 19.9818 20.3768 19.7303 20.4812C19.4788 20.5857 19.2091 20.6395 18.9368 20.6398C18.6645 20.64 18.3948 20.5866 18.1431 20.4826C17.8914 20.3786 17.6626 20.226 17.4699 20.0336L17.4674 20.031Z" fill="#5DA9DD"/>
<path d="M3.5494 6.47248C3.2591 6.1822 3.0614 5.81236 2.9813 5.40972C2.9012 5.00708 2.9423 4.58973 3.09939 4.21045C3.25649 3.83117 3.52253 3.50699 3.86387 3.27891C4.20521 3.05083 4.60651 2.92909 5.01704 2.92909C5.42757 2.92909 5.82888 3.05083 6.17022 3.27891C6.51156 3.50699 6.7776 3.83117 6.93469 4.21045C7.09179 4.58973 7.13288 5.00708 7.05278 5.40972C6.97268 5.81236 6.77499 6.1822 6.48469 6.47248C6.29213 6.66506 6.06353 6.81783 5.81193 6.92206C5.56032 7.02629 5.29065 7.07994 5.01832 7.07994C4.74598 7.07994 4.47631 7.02629 4.22471 6.92206C3.97311 6.81783 3.7445 6.66506 3.55195 6.47248" fill="#5DA9DD"/>
<path d="M15.5014 17.7052L17.6914 15.5152L15.6852 13.509C15.4864 14.0041 15.1895 14.4538 14.8122 14.8311C14.4349 15.2083 13.9852 15.5053 13.4901 15.7041" fill="#5DA9DD"/>
<path d="M10.3665 7.94011L8.36028 5.9339L6.17029 8.12388L8.1765 10.1301C8.37517 9.63492 8.67212 9.18515 9.04944 8.80793C9.42407 8.43112 9.87244 8.13568 10.3665 7.94011Z" fill="#5DA9DD"/>
<path d="M14.0343 2.07768C14.0338 2.62817 13.8148 3.15597 13.4253 3.54502C13.0359 3.93406 12.5078 4.1525 11.9573 4.1523C11.4068 4.15209 10.879 3.93327 10.4898 3.54393C10.1006 3.1546 9.88196 2.62664 9.88196 2.07615C9.88196 1.52565 10.1006 0.997691 10.4898 0.60836C10.879 0.219029 11.4068 0.000203177 11.9573 1.41413e-07C12.5078 -0.000202894 13.0359 0.218234 13.4253 0.607278C13.8148 0.996322 14.0338 1.52412 14.0343 2.07462V2.07768Z" fill="#18568C"/>
<path d="M14.0343 21.9223C14.0338 22.4728 13.8148 23.0006 13.4253 23.3897C13.0359 23.7787 12.5078 23.9971 11.9573 23.9969C11.4068 23.9967 10.879 23.7779 10.4898 23.3886C10.1006 22.9992 9.88196 22.4713 9.88196 21.9208C9.88196 21.3703 10.1006 20.8423 10.4898 20.453C10.879 20.0637 11.4068 19.8448 11.9573 19.8446C12.5078 19.8444 13.0359 20.0629 13.4253 20.4519C13.8148 20.841 14.0338 21.3688 14.0343 21.9193V21.9223Z" fill="#18568C"/>
<path d="M12.7111 5.24274H11.4043V7.81559C11.8367 7.74055 12.2787 7.74055 12.7111 7.81559" fill="#18568C"/>
<path d="M12.7111 16.2978C12.2787 16.3728 11.8367 16.3728 11.4043 16.2978V18.8706H12.7111" fill="#18568C"/>
<path d="M21.1494 13.509C20.599 13.5086 20.0712 13.2895 19.6821 12.9001C19.2931 12.5106 19.0746 11.9826 19.0748 11.4321C19.075 10.8816 19.2939 10.3537 19.6832 9.96449C20.0725 9.57531 20.6005 9.35667 21.151 9.35667C21.7015 9.35667 22.2294 9.57531 22.6188 9.96449C23.0081 10.3537 23.2269 10.8816 23.2271 11.4321C23.2273 11.9826 23.0089 12.5106 22.6199 12.9001C22.2308 13.2895 21.703 13.5086 21.1525 13.509H21.1494Z" fill="#18578C"/>
<path d="M2.07768 13.8617C1.66678 13.8617 1.2651 13.7399 0.923436 13.5116C0.581775 13.2833 0.315473 12.9589 0.158204 12.5793C0.000934059 12.1996 -0.0402407 11.7819 0.0398856 11.3789C0.120012 10.9759 0.317841 10.6057 0.608359 10.3151C0.898876 10.0245 1.26904 9.82657 1.67203 9.74635C2.07503 9.66612 2.49276 9.70719 2.87242 9.86437C3.25207 10.0215 3.5766 10.2878 3.80496 10.6294C4.03332 10.971 4.15526 11.3726 4.15536 11.7835C4.15543 12.0564 4.10173 12.3266 3.99735 12.5788C3.89297 12.8309 3.73994 13.06 3.547 13.253C3.35406 13.446 3.125 13.5991 2.87289 13.7035C2.62078 13.808 2.35057 13.8617 2.07768 13.8617Z" fill="#18578C"/>
<path d="M15.8665 12.4375H18.4393V11.1286H15.8665C15.9415 11.561 15.9415 12.0031 15.8665 12.4354V12.4375Z" fill="#18578C"/>
<path d="M7.87217 12.4374C7.79713 12.0051 7.79713 11.563 7.87217 11.1306H5.29932V12.4374" fill="#18578C"/>
<path d="M14.8399 11.9372C14.8399 12.5198 14.6671 13.0892 14.3435 13.5736C14.0198 14.058 13.5598 14.4355 13.0216 14.6585C12.4833 14.8814 11.8911 14.9398 11.3197 14.8261C10.7483 14.7124 10.2235 14.4319 9.81157 14.02C9.39964 13.608 9.1191 13.0832 9.00545 12.5118C8.8918 11.9405 8.95013 11.3482 9.17307 10.81C9.39601 10.2718 9.77354 9.81175 10.2579 9.48809C10.7423 9.16443 11.3118 8.99168 11.8944 8.99168C12.6755 8.99195 13.4245 9.30237 13.9768 9.8547C14.5292 10.407 14.8396 11.1561 14.8399 11.9372Z" fill="#18568B"/>
</g>
<defs>
<clipPath id="clip0">
<rect width="24" height="24" fill="white"/>
</clipPath>
</defs>
</svg>
