<svg width="24" height="24" viewBox="0 0 24 24" fill="none" xmlns="http://www.w3.org/2000/svg">
<path d="M4.08 9.6L5.2 7.12C5.2 7.04 5.2 7.04 5.28 7.04V7.12L6.16 8.4C6.16 8.48 6.16 8.48 6.08 8.48L4.16 9.68H4.08C4.08 9.68 4.08 9.68 4.08 9.6ZM8.48 18.64L7.68 16.16C7.68 16.16 7.68 16.16 7.68 16.08H7.76L8.56 16.24V18.64V18.72C8.48 18.72 8.48 18.72 8.48 18.64ZM8.48 16L7.76 15.92C7.76 15.92 7.76 15.84 7.68 15.84L8.48 14.08C8.48 14 8.48 14 8.56 14V14.08V15.92V16C8.56 16 8.56 16 8.48 16ZM4.08 23.6L6.24 22.48H6.32L8.32 23.84V23.92C8.32 23.92 8.32 24 8.24 24L4.16 23.76C4.08 23.76 4.08 23.68 4.08 23.68V23.6ZM4 22.96V20.16C4 20.16 4 20.16 4 20.08H4.08L6 20.64C6.08 20.64 6.08 20.64 6.08 20.72L4.08 23.04C4 23.04 4 23.04 4 22.96ZM4 19.84V19.6L4.96 17.44C4.96 17.36 4.96 17.36 5.04 17.36V17.44L6.08 20.32V20.4C6.08 20.4 6.08 20.48 6 20.4L4.08 19.92C4 19.84 4 19.84 4 19.84ZM4 18.8V16.72V16.64H4.08L4.8 17.12V17.2L4.16 18.8C4.08 18.8 4.08 18.8 4.08 18.8C4 18.8 4 18.8 4 18.8ZM4 16.32V16C4 15.92 4 15.92 4 15.92L5.92 14.4H6V14.48L4.96 16.88C4.96 16.88 4.96 16.96 4.88 16.96L4 16.4C4 16.32 4 16.32 4 16.32ZM4 15.52V15.36L5.04 12.8H5.12L6.16 13.84V13.92L4.08 15.6C4.08 15.6 4.08 15.6 4 15.6C4 15.6 4 15.6 4 15.52ZM4 14.48V11.04C4 11.04 4 10.96 4.08 10.96C4.08 10.96 4.08 10.96 4.16 11.04L4.88 12.56V12.64L4.16 14.48C4.08 14.56 4.08 14.56 4.08 14.56C4 14.56 4 14.48 4 14.48ZM4.08 10.32L6.56 11.04L6.64 11.12C6.64 11.12 6.64 11.12 6.56 11.2L5.12 12.4C5.12 12.4 5.12 12.4 5.04 12.4V12.32L4 10.4C4 10.4 4 10.32 4.08 10.32ZM4 8.96V6.8H4.08L5.04 6.88V6.96L4.16 8.96C4.08 9.04 4.08 9.04 4.08 9.04C4 9.04 4 8.96 4 8.96ZM4 6.48V6.24C4 6.24 4 6.24 4 6.16L5.12 4.8H5.2V4.88L5.12 6.56V6.64L4.08 6.56C4 6.56 4 6.56 4 6.48ZM4 5.68V4.32C4 4.24 4 4.24 4 4.24H4.08L5.04 4.4C5.04 4.48 5.12 4.48 5.12 4.48C5.12 4.48 5.12 4.56 5.04 4.56L4.08 5.76C4 5.76 4 5.76 4 5.68ZM4 3.92V3.44L4.64 2.72L4.72 2.64C4.72 2.72 4.8 2.72 4.8 2.72L5.2 4.16C5.2 4.16 5.2 4.24 5.12 4.24L4.08 4C4 4 4 4 4 3.92ZM4 2.96V1.36C4 1.36 4 1.36 4.08 1.28C4.08 1.28 4.08 1.36 4.16 1.36L4.64 2.32V2.4L4.08 2.96V3.04C4 3.04 4 2.96 4 2.96ZM4 0.72V0H4.08H7.36C7.36 0 7.44 0 7.44 0.08V0.16L4.88 2.16C4.88 2.16 4.88 2.16 4.8 2.16L4 0.72ZM7.84 0.16L8.24 2.16V2.24C8.24 2.24 8.24 2.24 8.16 2.24H5.28C5.2 2.24 5.2 2.24 5.2 2.24C5.2 2.16 5.2 2.16 5.2 2.16L7.68 0.16H7.76H7.84ZM8.08 0H10.16H10.24V0.08L8.56 2C8.56 2.08 8.48 2.08 8.48 2.08L8.4 2L8 0.08C8 0 8 0 8.08 0ZM7.92 2.56L5.44 4.16C5.44 4.24 5.44 4.24 5.36 4.16L4.96 2.56V2.48H7.84H7.92V2.56ZM13.6 0.4L11.2 1.76H11.12L10.72 0.08V0H10.8L13.52 0.32H13.6V0.4ZM16.08 1.68L13.28 2.16C13.28 2.24 13.28 2.16 13.2 2.16C13.2 2.16 13.2 2.16 13.2 2.08L14 0.48C14 0.4 14.08 0.4 14.08 0.4C14.08 0.4 14.08 0.4 14.16 0.4L16.08 1.52V1.6V1.68ZM17.68 4L16 5.68C15.92 5.68 15.92 5.68 15.92 5.68C15.84 5.68 15.84 5.6 15.84 5.6L16.56 2.08H16.64L17.68 3.92V4ZM18 6.56L17.44 8.4C17.44 8.48 17.36 8.48 17.36 8.48H17.28L15.84 6.24C15.76 6.16 15.76 6.16 15.84 6.08L17.68 4.32C17.68 4.24 17.68 4.24 17.68 4.24C17.76 4.24 17.76 4.32 17.76 4.32L18 6.56ZM15.68 10.4L15.12 8.72C15.12 8.72 15.12 8.72 15.12 8.64H15.2L17.04 8.8C17.12 8.8 17.12 8.88 17.12 8.88V8.96L15.76 10.4C15.76 10.4 15.76 10.48 15.68 10.4ZM15.28 10.32L12.88 8.4C12.88 8.4 12.88 8.4 12.88 8.32H12.96L14.88 8.64L15.44 10.24C15.44 10.24 15.44 10.32 15.36 10.32C15.36 10.32 15.36 10.32 15.28 10.32ZM15.12 8.32L15.68 6.48H15.76L17.12 8.56V8.64C17.12 8.64 17.12 8.64 17.04 8.64L15.2 8.48C15.2 8.4 15.12 8.4 15.12 8.4C15.12 8.4 15.12 8.4 15.12 8.32ZM14.88 8L13.92 5.44V5.36H14L15.52 6.16V6.24L15.04 8L14.96 8.08C14.96 8.08 14.88 8.08 14.88 8ZM15.52 5.92L13.84 5.04C13.84 4.96 13.84 4.96 13.84 4.96L16.16 2.24H16.24C16.24 2.24 16.32 2.24 16.32 2.32L15.6 5.92C15.52 5.92 15.52 5.92 15.52 5.92ZM12.96 6.08L12.72 5.2C12.8 5.12 12.8 5.12 12.8 5.12H13.36C13.44 5.12 13.44 5.12 13.44 5.2V5.28L13.04 6.08V6.16C12.96 6.16 12.96 6.08 12.96 6.08ZM13.68 5.44L14.8 8.32C14.72 8.4 14.72 8.4 14.72 8.4L12.56 8.08L12.48 8C12.48 8 12.48 8 12.48 7.92L13.04 6.64L13.6 5.44H13.68ZM13.68 4.72L13.12 2.48C13.12 2.4 13.12 2.4 13.2 2.4L16.08 1.84C16.08 1.84 16.16 1.84 16.16 1.92V2L13.76 4.72C13.68 4.72 13.68 4.72 13.68 4.72ZM13.44 4.96H12.8H12.72C12.72 4.88 12.72 4.88 12.72 4.88L12.96 3.2H13.04H13.12L13.52 4.88V4.96H13.44ZM11.68 3.84L11.28 2.16C11.28 2.08 11.28 2.08 11.36 2.08L12.72 2.4V2.48L11.76 3.84C11.76 3.92 11.76 3.92 11.68 3.92V3.84ZM12.8 2.96L12.56 4.72C12.56 4.72 12.56 4.8 12.48 4.8C12.48 4.8 12.48 4.8 12.4 4.8L11.84 4.24C11.76 4.24 11.76 4.16 11.84 4.16L12.64 2.96C12.72 2.96 12.72 2.88 12.72 2.96H12.8ZM12.88 2.24L11.52 1.92C11.52 1.84 11.52 1.84 11.52 1.84L13.6 0.56C13.6 0.56 13.68 0.56 13.68 0.64V0.72L12.96 2.24H12.88ZM10.56 0.24L10.96 1.84C10.96 1.84 10.88 1.84 10.88 1.92L8.88 2.16C8.8 2.16 8.8 2.16 8.8 2.16V2.08L10.4 0.16H10.48C10.48 0.16 10.48 0.16 10.56 0.24ZM8.56 3.76L6 4.16C6 4.16 6 4.16 5.92 4.16C5.92 4.08 5.92 4.08 6 4.08L8.24 2.56H8.32C8.32 2.56 8.32 2.64 8.4 2.64L8.56 3.68V3.76ZM8.72 2.72L10 3.68H10.08C10.08 3.76 10 3.76 10 3.76H8.88C8.8 3.76 8.8 3.76 8.8 3.68L8.56 2.8C8.56 2.72 8.64 2.72 8.64 2.72C8.64 2.72 8.64 2.72 8.72 2.72ZM8.64 4.64V8.32H8.56H8.48L7.68 6.4H7.76L8.48 4.64C8.48 4.64 8.56 4.56 8.56 4.64H8.64ZM10.72 3.76L11.04 2.56H11.12L11.52 4C11.52 4 11.52 4 11.44 4V4.08L10.72 3.84C10.72 3.84 10.64 3.76 10.72 3.76ZM8.8 2.4L10.88 2.08C10.96 2.16 10.96 2.16 10.96 2.16L10.48 3.6V3.68C10.4 3.68 10.4 3.68 10.4 3.68L8.8 2.56C8.8 2.48 8.72 2.48 8.72 2.48C8.8 2.4 8.8 2.4 8.8 2.4ZM12.4 8.24L14.8 10.16V10.24C14.8 10.32 14.8 10.32 14.72 10.32L11.36 9.12C11.36 9.04 11.36 9.04 11.36 9.04L12.24 8.24H12.4ZM11.04 9.28L11.52 10.96C11.52 10.96 11.52 11.04 11.44 11.04C11.44 11.04 11.44 11.04 11.36 11.04L9.12 9.36C9.12 9.28 9.12 9.28 9.12 9.28C9.12 9.2 9.2 9.2 9.2 9.2H10.96C10.96 9.2 11.04 9.2 11.04 9.28ZM11.36 9.28L14.96 10.56C15.04 10.64 15.04 10.64 15.04 10.64C15.04 10.72 15.04 10.72 14.96 10.72L11.84 11.28C11.76 11.28 11.76 11.2 11.76 11.2L11.28 9.36C11.28 9.28 11.36 9.28 11.36 9.28ZM15.6 10.88L16 12.64C16 12.64 16 12.72 15.92 12.72L12.32 11.52L12.24 11.44C12.24 11.36 12.32 11.36 12.32 11.36L15.52 10.8L15.6 10.88ZM17.44 11.68L16.32 12.64C16.24 12.64 16.24 12.64 16.24 12.64C16.16 12.64 16.16 12.64 16.16 12.56L15.84 11.04C15.84 10.96 15.84 10.96 15.84 10.96H15.92L17.44 11.52C17.52 11.6 17.52 11.6 17.52 11.6C17.52 11.6 17.52 11.68 17.44 11.68ZM18.96 13.36L16.48 12.88C16.48 12.8 16.48 12.8 16.48 12.8V12.72L17.68 11.76H17.76L18.96 13.28C19.04 13.28 19.04 13.28 19.04 13.36C18.96 13.36 18.96 13.36 18.96 13.36ZM20 16.08L18.8 16.48H18.72V16.4L19.28 14.16L19.36 14.08L19.44 14.16L20 16V16.08ZM19.6 19.28L18.24 19.12C18.24 19.12 18.24 19.04 18.16 19.04C18.16 19.04 18.16 19.04 18.24 18.96L19.84 16.72H19.92C20 16.72 20 16.72 20 16.8L19.68 19.28C19.6 19.28 19.6 19.28 19.6 19.28ZM18.16 21.36L18.08 19.36V19.28H18.16L19.52 19.52V19.6L18.32 21.36C18.24 21.36 18.24 21.44 18.24 21.44C18.16 21.36 18.16 21.36 18.16 21.36ZM15.36 23.12L15.2 20.88V20.8H15.28L17.76 21.76V21.84V21.92L15.44 23.12H15.36ZM12.96 23.68L10.88 22.32C10.8 22.32 10.8 22.32 10.8 22.24H10.88L14.64 23.28V23.36L13.04 23.68C13.04 23.68 13.04 23.68 12.96 23.68ZM8.96 23.84L9.92 22.08V22H10L12.48 23.6C12.56 23.6 12.56 23.68 12.56 23.68C12.56 23.76 12.48 23.76 12.48 23.76L9.04 24C8.96 24 8.96 24 8.96 23.92C8.96 23.92 8.96 23.92 8.96 23.84ZM11.12 11.2L7.28 10.96C7.2 10.96 7.2 10.96 7.2 10.96C7.2 10.88 7.2 10.88 7.2 10.88L8.64 9.28H8.8L11.2 11.12V11.2H11.12ZM6.96 10.72L6.48 8.8C6.48 8.72 6.48 8.72 6.48 8.72C6.48 8.72 6.56 8.64 6.56 8.72L8.4 9.12C8.48 9.12 8.48 9.2 8.48 9.2C8.48 9.2 8.48 9.2 8.48 9.28L7.04 10.72C7.04 10.8 7.04 10.8 6.96 10.8V10.72ZM8.48 13.12L6.64 13.76C6.56 13.76 6.56 13.76 6.56 13.68L6.96 11.44C6.96 11.36 6.96 11.36 6.96 11.36H7.04L8.48 13.04V13.12ZM7.28 11.2L11.2 11.44C11.2 11.44 11.28 11.44 11.28 11.52C11.28 11.52 11.28 11.52 11.2 11.52L8.8 13.04C8.72 13.04 8.72 13.04 8.72 13.04L7.2 11.28V11.2H7.28ZM11.68 11.6L12.16 12.96V13.04C12.08 13.04 12.08 13.12 12.08 13.12H9.36C9.28 13.12 9.28 13.04 9.28 13.04V12.96L11.6 11.6C11.6 11.52 11.6 11.52 11.68 11.52V11.6ZM12 11.6L15.28 12.72C15.36 12.72 15.36 12.72 15.36 12.8C15.36 12.8 15.36 12.8 15.28 12.8L12.4 13.04L11.92 11.68C11.92 11.6 11.92 11.6 11.92 11.6C11.92 11.6 11.92 11.6 12 11.6ZM15.68 13.12L14.16 14.32H14.08L12.72 13.36V13.28H12.8L15.6 13.04H15.68V13.12ZM14.48 14.72L17.6 16.32V16.4C17.6 16.4 17.6 16.4 17.52 16.4L15.04 16.08C15.04 16.08 14.96 16.08 14.96 16L14.4 14.8C14.4 14.8 14.4 14.8 14.4 14.72H14.48ZM15.12 16.48L17.44 18.8V18.88H17.36L14.72 18.24C14.72 18.24 14.64 18.24 14.64 18.16L15.04 16.48C15.04 16.48 15.04 16.48 15.04 16.4C15.04 16.4 15.12 16.4 15.12 16.48ZM14.48 18.56L14.88 20.32C14.96 20.32 14.88 20.32 14.88 20.4C14.88 20.4 14.88 20.4 14.8 20.4L13.2 19.44C13.2 19.36 13.2 19.36 13.2 19.36L14.4 18.56H14.48ZM12.96 19.52L14.16 20.24C14.24 20.24 14.24 20.32 14.24 20.32C14.16 20.32 14.16 20.4 14.16 20.32L11.68 19.92C11.68 19.84 11.68 19.84 11.68 19.84L12.88 19.52H12.96ZM10.64 20.08L9.92 21.52C9.84 21.52 9.84 21.52 9.84 21.52L8.96 20C8.96 19.92 8.96 19.92 8.96 19.92C8.96 19.84 8.96 19.84 9.04 19.84L10.56 20H10.64V20.08ZM16.16 13.12L18.16 16.24V16.32C18.08 16.32 18.08 16.32 18.08 16.32L14.4 14.48C14.4 14.48 14.4 14.48 14.32 14.4H14.4L16.08 13.04C16.08 13.04 16.16 13.04 16.16 13.12ZM16.48 13.04L19.2 13.6V13.68L18.56 16.32C18.56 16.32 18.56 16.32 18.48 16.32L16.4 13.12C16.4 13.12 16.4 13.12 16.4 13.04H16.48ZM18.4 16.8L17.92 18.8C17.92 18.88 17.92 18.88 17.84 18.88L15.36 16.4C15.36 16.4 15.36 16.4 15.36 16.32H15.44L18.32 16.72C18.4 16.72 18.4 16.8 18.4 16.8ZM19.76 16.48L18.32 18.48C18.32 18.48 18.32 18.48 18.24 18.48C18.24 18.48 18.24 18.48 18.24 18.4L18.64 16.8C18.64 16.8 18.64 16.8 18.64 16.72L19.76 16.4C19.84 16.48 19.84 16.48 19.76 16.48ZM14.8 18.48L17.52 19.12C17.6 19.2 17.6 19.2 17.6 19.2C17.6 19.2 17.6 19.28 17.52 19.28L15.28 20.48C15.2 20.48 15.2 20.48 15.2 20.48L15.12 20.4L14.72 18.56V18.48H14.8ZM17.84 19.44L18 21.6V21.68C17.92 21.68 17.92 21.68 17.92 21.68L15.52 20.64C15.44 20.64 15.44 20.64 15.44 20.64C15.44 20.56 15.44 20.56 15.52 20.56L17.76 19.36H17.84V19.44ZM14.32 20.72L10.24 21.68C10.16 21.68 10.16 21.68 10.16 21.68V21.6L10.88 20.08C10.88 20 10.96 20 10.96 20L14.32 20.56V20.64V20.72ZM4.16 10L6.16 8.72H6.24V8.8L6.72 10.8V10.88C6.72 10.88 6.72 10.88 6.64 10.88L4.16 10.08H4.08C4.08 10 4.08 10 4.16 10ZM6.24 13.6L5.2 12.64V12.56L6.64 11.36H6.72V11.44L6.32 13.6C6.24 13.6 6.24 13.6 6.24 13.6ZM8.48 13.44L7.6 15.6L7.52 15.68C7.52 15.68 7.52 15.68 7.44 15.6L6.56 14C6.56 13.92 6.56 13.92 6.64 13.92L8.4 13.36H8.48V13.44ZM6.48 14.24L7.36 15.84V15.92L5.2 17.04C5.2 17.04 5.2 17.04 5.12 17.04C5.12 17.04 5.12 17.04 5.12 16.96L6.32 14.24C6.32 14.24 6.4 14.24 6.4 14.16L6.48 14.24ZM6.48 20.32L7.52 16.48H7.6L8.56 19.6C8.56 19.68 8.56 19.68 8.48 19.68L6.56 20.4C6.56 20.4 6.56 20.4 6.48 20.4V20.32ZM8.24 20.16L6.56 22C6.48 22 6.48 22 6.48 22C6.4 22 6.4 21.92 6.4 21.92V20.72C6.4 20.72 6.4 20.72 6.48 20.64L8.16 20.08C8.24 20 8.24 20.08 8.24 20.08C8.32 20.08 8.32 20.16 8.24 20.16ZM9.76 21.92L8.96 23.44C8.96 23.44 8.88 23.52 8.88 23.44C8.8 23.44 8.8 23.44 8.8 23.44V20.32C8.8 20.32 8.8 20.24 8.88 20.24V20.32L9.76 21.84V21.92ZM8.48 23.76L6.56 22.4C6.48 22.4 6.48 22.32 6.48 22.32L8.48 20.16H8.56V20.24L8.64 23.68C8.64 23.76 8.64 23.76 8.56 23.76C8.56 23.76 8.56 23.76 8.48 23.76ZM6.24 21.04V22.24C6.24 22.32 6.24 22.32 6.16 22.32L4.24 23.28C4.24 23.36 4.24 23.28 4.16 23.28V23.2L6.08 21.04C6.08 20.96 6.16 20.96 6.16 20.96L6.24 21.04ZM15.04 23.2L10.48 21.92C10.48 21.92 10.48 21.92 10.48 21.84L14.96 20.8H15.04L15.12 23.12V23.2C15.12 23.2 15.12 23.2 15.04 23.2ZM5.28 17.28L7.28 16.24H7.36V16.32L6.32 20.08V20.16C6.24 20.16 6.24 20.08 6.24 20.08L5.28 17.36C5.2 17.28 5.28 17.28 5.28 17.28ZM8.48 4.08L7.6 6.16C7.52 6.16 7.52 6.16 7.52 6.16L5.68 4.56V4.48V4.4L8.4 4H8.48V4.08ZM5.84 6.16L5.44 6.48C5.36 6.48 5.36 6.4 5.36 6.4L5.44 5.28C5.44 5.2 5.44 5.2 5.44 5.2C5.52 5.2 5.52 5.2 5.52 5.28L5.84 6.08V6.16ZM5.76 4.88L7.12 6.16V6.24C7.12 6.24 7.12 6.24 7.04 6.24L6.08 6.08L5.68 4.96C5.6 4.96 5.68 4.88 5.68 4.88H5.76ZM7.36 6.56L6.48 8.08H6.4H6.32L6.08 6.4V6.32H6.16L7.36 6.48V6.56C7.44 6.56 7.44 6.56 7.36 6.56ZM8.4 8.96L6.56 8.48C6.48 8.4 6.48 8.4 6.56 8.4L7.52 6.72H7.6H7.68L8.48 8.88C8.48 8.96 8.48 8.96 8.4 8.96ZM6 7.76L5.36 6.88C5.36 6.8 5.36 6.8 5.44 6.8L5.84 6.4C5.92 6.4 5.92 6.48 5.92 6.48L6.08 7.76V7.84C6 7.84 6 7.84 6 7.76Z" fill="url(#paint0_linear)"/>
<defs>
<linearGradient id="paint0_linear" x1="12.0722" y1="23.808" x2="11.6722" y2="-0.111975" gradientUnits="userSpaceOnUse">
<stop stop-color="#11A1BC"/>
<stop offset="1" stop-color="#5FCEB4"/>
</linearGradient>
</defs>
</svg>
