<svg width="24" height="24" viewBox="0 0 24 24" fill="none" xmlns="http://www.w3.org/2000/svg">
<path d="M12 24C18.6274 24 24 18.6274 24 12C24 5.37258 18.6274 0 12 0C5.37258 0 0 5.37258 0 12C0 18.6274 5.37258 24 12 24Z" fill="#000D2B"/>
<path d="M11.9399 4.40964L8.55114 6.39528L11.9399 8.38092L15.3923 6.39528L11.9399 4.40964ZM12.4972 15.0106V18.9817L17.0999 16.356V12.384L12.4972 15.0106ZM15.9491 7.644V11.616L12.4967 13.6016V9.62964L15.9491 7.644ZM7.63818 11.616L11.0906 13.6016V9.62964L7.63818 7.644V11.616ZM7.63818 16.9962L11.0906 18.9818V15.0106L7.63818 13.0249V16.9961V16.9962Z" fill="white"/>
</svg>
