<svg width="24" height="24" viewBox="0 0 24 24" fill="none" xmlns="http://www.w3.org/2000/svg">
<path d="M12 24C18.6274 24 24 18.6274 24 12C24 5.37258 18.6274 0 12 0C5.37258 0 0 5.37258 0 12C0 18.6274 5.37258 24 12 24Z" fill="#00A8D6"/>
<path fill-rule="evenodd" clip-rule="evenodd" d="M10.824 14.2125V12.7748H13.0395C14.517 12.7748 15.2557 12.4058 15.2557 11.6678V7.79475C15.2557 7.0575 14.517 6.6885 13.0395 6.6885H9.495V9.012H7.5V5.25H12.8175C15.7725 5.25 17.25 6.0615 17.25 7.6845V11.7787C17.25 13.4017 15.7725 14.2133 12.8175 14.2133H10.824V14.2125ZM15.2557 15.0983H17.25V16.3155C17.25 17.9385 15.7725 18.75 12.8175 18.75H7.5V10.119H12.8175C13.1302 10.119 13.425 10.128 13.7048 10.146V11.5868C13.4836 11.566 13.2616 11.556 13.0395 11.5568H9.495V17.3115H13.0402C14.5177 17.3115 15.2565 16.9425 15.2565 16.2052V15.0975L15.2557 15.0983Z" fill="white"/>
</svg>
