<svg width="24" height="25" viewBox="0 0 24 25" fill="none" xmlns="http://www.w3.org/2000/svg">
<g clip-path="url(#clip0)">
<path d="M23.9999 12.0019C23.9999 18.6289 18.6269 24.0019 11.9971 24.0029C5.37205 24.0029 -0.000959637 18.6289 5.14574e-07 12.001C-0.00191979 5.37302 5.37109 0 11.999 0C18.6269 0 23.9999 5.37398 23.9999 12.0019Z" fill="#EAB300"/>
<path d="M16.721 9.0619C16.5664 7.4546 15.179 6.91596 13.4258 6.76233V4.53189H12.0691V6.7028C11.7129 6.7028 11.348 6.70952 10.986 6.7172V4.53189H9.62935L9.62839 6.76041C9.33458 6.76617 9.04558 6.77193 8.76426 6.77193V6.76521L6.89293 6.76425V8.21409C6.89293 8.21409 7.89532 8.19488 7.87804 8.21313C8.4282 8.21313 8.60679 8.5319 8.65864 8.80746V11.348C8.69705 11.348 8.74601 11.35 8.8017 11.3576H8.65864L8.65768 14.9169C8.63368 15.0898 8.5319 15.3653 8.14784 15.3663C8.16512 15.3816 7.16177 15.3663 7.16177 15.3663L6.89197 16.987H8.65864C8.98701 16.987 9.31058 16.9928 9.62743 16.9947L9.62839 19.2501H10.9841V17.0187C11.3557 17.0264 11.7158 17.0293 12.0681 17.0293L12.0672 19.2501H13.4239V16.9995C15.7052 16.8689 17.3038 16.2938 17.5016 14.1507C17.6619 12.4253 16.8506 11.6543 15.5554 11.3432C16.3437 10.9438 16.8362 10.2381 16.721 9.0619ZM14.8218 13.8838C14.8218 15.5689 11.9366 15.3778 11.0158 15.3778V12.3888C11.9366 12.3908 14.8218 12.1267 14.8218 13.8838ZM14.1901 9.66776C14.1901 11.2011 11.782 11.0216 11.0158 11.0225V8.31298C11.783 8.31298 14.191 8.0691 14.1901 9.66776Z" fill="white"/>
<path d="M8.66052 11.2885H8.86215V11.4374H8.66052V11.2885Z" fill="white"/>
</g>
<defs>
<clipPath id="clip0">
<rect width="24" height="24.0038" fill="white"/>
</clipPath>
</defs>
</svg>
