<svg width="24" height="24" viewBox="0 0 24 24" fill="none" xmlns="http://www.w3.org/2000/svg">
<path d="M12 24C18.6274 24 24 18.6274 24 12C24 5.37258 18.6274 0 12 0C5.37258 0 0 5.37258 0 12C0 18.6274 5.37258 24 12 24Z" fill="#00AAFF"/>
<path d="M11.9715 3.70502C7.40546 3.70502 3.70496 7.40552 3.70496 11.9715C3.70496 16.5368 7.40546 20.2388 11.9715 20.2388C16.5367 20.2388 20.2387 16.5368 20.2387 11.9715C20.2387 7.40552 16.5367 3.70502 11.9715 3.70502ZM11.9977 5.01452C12.6592 5.01431 13.3109 5.17385 13.8975 5.47957C14.4841 5.78528 14.9882 6.22814 15.3669 6.77046C15.7456 7.31279 15.9877 7.93856 16.0727 8.59454C16.1577 9.25053 16.083 9.91734 15.855 10.5383C15.4998 10.4759 15.1357 10.4857 14.7845 10.5672C14.4332 10.6486 14.1019 10.8 13.8105 11.0123C14.0654 10.7685 14.2683 10.4754 14.4067 10.151C14.5452 9.82649 14.6164 9.4773 14.616 9.12452C14.6158 8.42957 14.3398 7.76311 13.8486 7.2715C13.3574 6.77988 12.6912 6.50331 11.9962 6.50252C11.3476 6.50304 10.7222 6.74402 10.241 7.17886C9.75971 7.61371 9.45677 8.21153 9.39071 8.85677C8.89801 8.76875 8.39407 8.76368 7.89971 8.84177C7.97095 7.8034 8.43364 6.83078 9.1943 6.12037C9.95497 5.40997 10.9569 5.01474 11.9977 5.01452ZM13.509 12.7335L12.0555 11.8635C12.0081 11.8349 11.9537 11.82 11.8984 11.8204C11.8431 11.8208 11.7889 11.8365 11.742 11.8658L10.467 12.6533C10.4171 12.6837 10.3772 12.728 10.3521 12.7807C10.3271 12.8335 10.318 12.8924 10.326 12.9503C10.3595 13.1928 10.3417 13.4396 10.2739 13.6748C10.206 13.91 10.0895 14.1283 9.93191 14.3157C9.77433 14.503 9.57919 14.6552 9.35909 14.7623C9.139 14.8695 8.89886 14.9293 8.65421 14.9378C8.42066 14.9451 8.18801 14.9054 7.97012 14.821C7.75223 14.7366 7.55355 14.6092 7.38589 14.4465C7.21824 14.2837 7.08503 14.0889 6.9942 13.8736C6.90338 13.6583 6.85679 13.4269 6.85721 13.1933C6.85984 12.7369 7.04048 12.2995 7.36069 11.9742C7.68089 11.649 8.11539 11.4615 8.57171 11.4518C8.8223 11.4475 9.07085 11.4975 9.30036 11.5982C9.52987 11.6989 9.73491 11.848 9.90146 12.0353C9.99446 12.1403 10.149 12.1628 10.2705 12.0953L11.499 11.406C11.5456 11.3796 11.5844 11.3414 11.6116 11.2951C11.6387 11.2489 11.6531 11.1964 11.6535 11.1428V11.0678C11.6531 11.0044 11.6328 10.9427 11.5955 10.8915C11.5583 10.8402 11.5059 10.8019 11.4457 10.782C11.0462 10.6488 10.7083 10.3755 10.4945 10.0126C10.2808 9.64965 10.2055 9.22166 10.2827 8.80761C10.3598 8.39355 10.5841 8.02138 10.9143 7.75982C11.2444 7.49825 11.658 7.36495 12.0787 7.38452C12.5036 7.40644 12.9059 7.58238 13.2104 7.87945C13.5149 8.17651 13.7008 8.57434 13.7332 8.99852C13.7634 9.40506 13.65 9.8093 13.4127 10.1408C13.1755 10.4723 12.8295 10.7101 12.435 10.8128C12.3694 10.8289 12.3111 10.8665 12.2693 10.9194C12.2275 10.9724 12.2045 11.0378 12.204 11.1053V11.118C12.204 11.223 12.2595 11.3198 12.348 11.3753L13.6387 12.1688C13.7008 12.2074 13.7748 12.2219 13.8469 12.2098C13.919 12.1976 13.9842 12.1596 14.0302 12.1028C14.198 11.8934 14.4118 11.7256 14.6551 11.6124C14.8984 11.4992 15.1645 11.4437 15.4327 11.4503C15.8952 11.4681 16.3316 11.6689 16.6461 12.0085C16.9605 12.3481 17.1271 12.7987 17.1093 13.2611C17.0915 13.7236 16.8907 14.1601 16.5511 14.4745C16.2115 14.7889 15.7609 14.9556 15.2985 14.9378C15.0629 14.9249 14.8324 14.8645 14.6208 14.7603C14.4091 14.656 14.2208 14.51 14.0671 14.3311C13.9133 14.1521 13.7974 13.9439 13.7262 13.719C13.6551 13.4941 13.6301 13.2571 13.653 13.0223C13.659 12.9654 13.6486 12.908 13.6231 12.8569C13.5976 12.8057 13.558 12.7629 13.509 12.7335ZM8.59871 17.2583C8.06459 17.2585 7.53568 17.1534 7.04218 16.9491C6.54868 16.7449 6.10026 16.4453 5.72255 16.0677C5.34484 15.6901 5.04524 15.2417 4.84087 14.7482C4.6365 14.2548 4.53136 13.7259 4.53146 13.1918C4.53107 12.5916 4.66357 11.9987 4.91945 11.4558C5.17534 10.9129 5.54825 10.4333 6.01142 10.0516C6.47459 9.6699 7.01654 9.39546 7.59834 9.248C8.18015 9.10054 8.78738 9.08373 9.37646 9.19877C9.39595 9.88634 9.68531 10.5386 10.182 11.0145C9.7231 10.6792 9.16927 10.499 8.60096 10.5C7.89474 10.5118 7.22144 10.8006 6.72619 11.3042C6.23093 11.8078 5.95339 12.4858 5.95339 13.1921C5.95339 13.8985 6.23093 14.5765 6.72619 15.0801C7.22144 15.5837 7.89474 15.8725 8.60096 15.8843C9.13909 15.8842 9.66481 15.7226 10.1101 15.4204C10.5553 15.1182 10.8997 14.6893 11.0985 14.1893C11.2267 14.7488 11.4637 15.2655 11.7832 15.7215C11.4028 16.2015 10.9188 16.5892 10.3673 16.8554C9.81576 17.1217 9.21113 17.2597 8.59871 17.259V17.2583ZM15.3907 17.2583C14.3599 17.2582 13.3675 16.8668 12.6142 16.1632C11.8609 15.4596 11.4028 14.4962 11.3325 13.4678C11.7903 13.5375 12.2562 13.5347 12.7132 13.4595C12.7617 13.9463 12.942 14.4106 13.2345 14.8027C13.5271 15.1948 13.9209 15.4997 14.3737 15.6848C14.8266 15.8699 15.3212 15.9281 15.8047 15.8532C16.2881 15.7783 16.742 15.5731 17.1175 15.2597C17.4931 14.9462 17.7762 14.5364 17.9364 14.0742C18.0966 13.612 18.1279 13.1149 18.0269 12.6363C17.9258 12.1576 17.6963 11.7156 17.3629 11.3576C17.0295 10.9995 16.6049 10.7391 16.1347 10.6043C16.2908 10.1686 16.3764 9.71088 16.3882 9.24827C17.3481 9.4929 18.1858 10.0794 18.7441 10.8977C19.3024 11.7161 19.5428 12.71 19.4204 13.693C19.298 14.676 18.8211 15.5806 18.0792 16.237C17.3373 16.8934 16.3813 17.2565 15.3907 17.2583Z" fill="white"/>
<path d="M12 2.25C6.61575 2.25 2.25 6.61575 2.25 12C2.25 17.3842 6.61575 21.75 12 21.75C17.3842 21.75 21.75 17.3842 21.75 12C21.75 6.61575 17.3842 2.25 12 2.25ZM11.9715 21.0165C6.9765 21.0165 2.928 16.968 2.928 11.973C2.928 6.978 6.9765 2.93025 11.9715 2.93025C16.9657 2.93025 21.0142 6.97875 21.0142 11.973C21.0142 16.968 16.9657 21.0165 11.9715 21.0165Z" fill="white"/>
</svg>
