<svg width="24" height="24" viewBox="0 0 24 24" fill="none" xmlns="http://www.w3.org/2000/svg">
<path fill-rule="evenodd" clip-rule="evenodd" d="M13.8429 18.7999L17.2 22.1726L16.9733 22.3628C15.8205 23.2924 14.3817 23.8972 12.8007 24V19.2269C13.1714 19.1538 13.516 19.0181 13.8429 18.7999ZM10.7259 18.7999L10.8749 18.9022C11.1295 19.0616 11.416 19.166 11.7336 19.2269V24L11.4191 23.9714C9.85688 23.7965 8.44732 23.1447 7.33329 22.1726L10.7259 18.7999ZM9.59086 17.0665L9.63954 17.2867C9.71779 17.5756 9.84711 17.8463 9.99914 18.1002L6.62741 21.4668L6.43583 21.2369C5.50018 20.0698 4.90186 18.6406 4.80005 17.0665H9.59086ZM19.4659 17.0665L19.4342 17.3899C19.2559 18.8887 18.6512 20.2396 17.7273 21.3331L14.3994 17.9969L14.4993 17.8273C14.6233 17.5964 14.7118 17.3455 14.7837 17.0665H19.4659ZM4.80005 9.86669L9.99914 14.9885L9.88153 15.1719C9.7335 15.4243 9.62156 15.7063 9.5564 16.0003H4.80005V9.86669ZM17.7722 11.6001L17.9638 11.83C18.8994 12.9971 19.4978 14.4262 19.5996 16.0003H14.8275L14.7706 15.7837C14.6848 15.4968 14.5598 15.2195 14.3994 14.9655L17.7722 11.6001ZM12.6671 9.19944L12.9813 9.2282C14.5427 9.40396 15.9523 10.0558 17.0674 11.0278L13.6737 14.3996L13.5247 14.2972C13.2701 14.1378 12.9838 14.0334 12.6671 13.9725V9.19944ZM4.80005 0L11.7336 6.11799V13.8879L11.5273 13.9395C11.26 14.0187 11.0216 14.1375 10.7886 14.267L10.7186 14.1963C9.87705 13.3485 6.05923 9.53577 4.81884 8.30247L4.81843 8.07547C4.81606 6.93188 4.80434 1.86214 4.80096 0.397478L4.80005 0Z" fill="#00A9E0"/>
</svg>
