<svg width="24" height="24" viewBox="0 0 24 24" fill="none" xmlns="http://www.w3.org/2000/svg">
<path d="M12 24C18.6274 24 24 18.6274 24 12C24 5.37258 18.6274 0 12 0C5.37258 0 0 5.37258 0 12C0 18.6274 5.37258 24 12 24Z" fill="black"/>
<path d="M20.8073 10.1543C20.6887 9.5781 20.5133 9.01511 20.2838 8.4735C20.0576 7.94003 19.7808 7.42945 19.4573 6.94875C19.1365 6.47384 18.7705 6.03103 18.3645 5.6265C17.9598 5.22048 17.5167 4.85453 17.0415 4.53375C16.5601 4.21184 16.0499 3.93516 15.5175 3.70725C14.4165 3.24027 13.2328 2.99962 12.0368 2.99962C10.8408 2.99962 9.65707 3.24027 8.55604 3.70725C7.49137 4.15632 6.52437 4.80846 5.70903 5.62725C5.30309 6.03154 4.93714 6.4741 4.61628 6.94875C4.29433 7.43041 4.01765 7.94084 3.78978 8.4735C3.32281 9.57454 3.08215 10.7583 3.08215 11.9543C3.08215 13.1502 3.32281 14.334 3.78978 15.435C4.01028 15.9675 4.29528 16.4722 4.61628 16.959C4.93712 17.4341 5.30307 17.8772 5.70903 18.282C6.1138 18.688 6.55686 19.054 7.03204 19.3748C7.50904 19.6958 8.02353 19.9718 8.55604 20.2013C9.65707 20.6682 10.8408 20.9089 12.0368 20.9089C13.2328 20.9089 14.4165 20.6682 15.5175 20.2013C16.05 19.9807 16.5548 19.6958 17.0415 19.3748C17.5167 19.054 17.9598 18.688 18.3645 18.282C18.7706 17.8772 19.1365 17.4342 19.4573 16.959C19.7783 16.482 20.0543 15.9675 20.2838 15.435C20.9903 13.7687 21.1729 11.9268 20.8073 10.1543ZM12.045 19.788C7.71978 19.788 4.22103 16.2795 4.22103 11.9633C4.22103 7.647 7.72953 4.1385 12.045 4.1385C16.3613 4.1385 19.8698 7.647 19.8698 11.9633C19.8698 16.2795 16.362 19.788 12.045 19.788Z" fill="white"/>
<path d="M12.1838 19.1085H12.3953C12.4321 19.1085 12.4681 19.1085 12.5048 19.0988H12.5146C12.5513 19.0988 12.5783 19.0988 12.6151 19.0898H12.6428C12.6706 19.0898 12.6983 19.0897 12.7253 19.0807H12.7531C12.7808 19.0807 12.8086 19.0718 12.8453 19.0718H12.8633C12.9001 19.0718 12.9368 19.062 12.9736 19.062C13.0103 19.062 13.0381 19.053 13.0748 19.044H13.0928C13.1206 19.044 13.1483 19.035 13.1753 19.035H13.1941C13.2308 19.0252 13.2586 19.0253 13.2953 19.0163C13.3681 19.0073 13.4416 18.9885 13.5061 18.9705H13.5248C13.5518 18.9615 13.5886 18.9615 13.6163 18.9517H13.6253C13.6988 18.9337 13.7633 18.915 13.8368 18.897C13.1489 18.9188 12.461 18.8541 11.7893 18.7043C10.7783 18.4838 9.81457 18.0893 8.99707 17.409C8.35258 16.8727 7.83536 16.1998 7.48281 15.439C7.13026 14.6783 6.95119 13.8487 6.95857 13.0103C6.96518 11.7594 7.41026 10.5505 8.21632 9.594C9.26332 8.35425 10.7513 7.70175 12.2753 7.665H12.4868V6.444H12.2483C11.7847 6.45249 11.3231 6.50777 10.8706 6.609C10.4152 6.71197 9.97197 6.86281 9.54832 7.059C9.11632 7.2615 8.71207 7.509 8.33557 7.794C7.94651 8.08975 7.59224 8.42866 7.27957 8.80425C6.98516 9.15186 6.72964 9.53061 6.51757 9.93375C6.30775 10.3224 6.13837 10.7315 6.01207 11.1548C5.88817 11.5714 5.80528 11.9992 5.76457 12.432L5.73682 12.8355V13.074C5.74582 13.5427 5.80132 14.0017 5.90182 14.4517C6.00307 14.9115 6.15907 15.3518 6.35182 15.7748C6.58207 16.2795 6.99532 17.0235 7.61032 17.5837C8.86604 18.5737 10.4191 19.1109 12.0181 19.1085H12.1838Z" fill="white"/>
<path d="M14.1856 17.9325C13.7326 17.9163 13.2814 17.8672 12.8356 17.7855C10.9441 17.4458 9.31808 16.2885 8.72183 14.544C7.99583 12.4223 9.10733 10.1265 11.2193 9.429C11.6218 9.29412 12.0436 9.22573 12.4681 9.2265C13.0103 9.2265 13.5518 9.33675 14.0483 9.5385L14.5621 8.44575C14.4076 8.38381 14.2515 8.32579 14.0941 8.27175C13.5679 8.10661 13.0196 8.02289 12.4681 8.0235C11.9156 8.02454 11.3668 8.11444 10.8428 8.28975C10.1741 8.51032 9.55821 8.86678 9.03383 9.33675C8.78094 9.56203 8.55037 9.81118 8.34533 10.0808C8.14264 10.3472 7.96726 10.6334 7.82183 10.935C7.5257 11.5413 7.35092 12.1996 7.30733 12.873C7.26158 13.5705 7.35308 14.268 7.58258 14.9295C7.81642 15.61 8.19223 16.233 8.68508 16.7573C9.13508 17.244 9.65858 17.6115 10.2916 17.9513C10.9531 18.3 11.7706 18.4838 12.6241 18.6038C13.1753 18.6765 13.9103 18.6953 14.3416 18.6953C14.7181 18.5573 14.8741 18.4928 15.0766 18.4103C15.2513 18.3278 15.4253 18.2453 15.6001 18.144C15.7748 18.0428 15.8026 18.024 16.0958 17.832C16.122 17.8158 16.1466 17.7972 16.1693 17.7765C15.1591 17.9513 14.9018 17.9415 14.1856 17.9325Z" fill="white"/>
<path d="M16.4453 16.5645C16.1603 16.5825 15.7561 16.6095 15.2971 16.6095C14.4796 16.6095 13.4783 16.5367 12.6248 16.2517C11.3018 15.8115 10.0531 14.682 10.0531 13.2855C10.0528 12.955 10.1177 12.6276 10.244 12.3222C10.3704 12.0168 10.5557 11.7393 10.7894 11.5056C11.0231 11.2719 11.3006 11.0865 11.6061 10.9602C11.9115 10.8338 12.2388 10.7689 12.5693 10.7692C13.5151 10.7692 14.3326 11.2927 14.7646 12.0547L15.8573 11.5132C15.686 11.1907 15.4659 10.8964 15.2048 10.641C14.8589 10.2945 14.448 10.0195 13.9957 9.83197C13.5434 9.6444 13.0586 9.54785 12.569 9.54785C12.0793 9.54785 11.5945 9.6444 11.1422 9.83197C10.6899 10.0195 10.279 10.2945 9.93308 10.641C9.58667 10.9869 9.31185 11.3977 9.12435 11.85C8.93684 12.3022 8.84033 12.7869 8.84033 13.2765C8.84278 13.7896 8.95264 14.2964 9.16283 14.7645C9.35483 15.1867 9.62183 15.582 9.96158 15.9495C10.5586 16.5915 11.3753 17.106 12.2483 17.4C13.0838 17.6752 14.3146 17.7765 15.5086 17.694C15.8386 17.6662 16.0868 17.6385 16.5091 17.547C16.9166 17.2254 17.2864 16.8589 17.6116 16.4542C17.3266 16.482 16.8031 16.5367 16.4453 16.5645Z" fill="white"/>
</svg>
