<svg width="24" height="24" viewBox="0 0 24 24" fill="none" xmlns="http://www.w3.org/2000/svg">
<path d="M12 24C18.6274 24 24 18.6274 24 12C24 5.37258 18.6274 0 12 0C5.37258 0 0 5.37258 0 12C0 18.6274 5.37258 24 12 24Z" fill="#2D2D2D"/>
<path d="M8.7795 14.472L3 12.5775H6.86625L7.24875 10.7452L10.6823 10.7475L11.5387 6H14.9932C17.3317 6 18.2797 6.94125 17.9295 8.88375L17.8545 9.3C17.6497 10.4317 17.133 11.184 16.245 11.6182C17.1248 12.0683 17.4202 12.9195 17.199 14.1458L17.028 15.0953C16.686 16.9898 15.2925 18 13.029 18H9.37275L10.32 12.7552H9.1725L8.7795 14.472ZM12.579 12.4117L11.871 16.3342H13.3298C14.1953 16.3342 14.676 15.9502 14.8395 15.0443L15.0233 14.0295C15.2318 12.8722 14.8312 12.4117 13.6965 12.4117H12.579ZM13.4363 7.665L12.8182 11.088H13.8773C14.8433 11.088 15.408 10.6755 15.5812 9.7155L15.699 9.066C15.8677 8.13075 15.5183 7.665 14.6325 7.665H13.575H13.4363Z" fill="white"/>
</svg>
