<svg width="24" height="24" viewBox="0 0 24 24" fill="none" xmlns="http://www.w3.org/2000/svg">
<path fill-rule="evenodd" clip-rule="evenodd" d="M24 12C24 18.6274 18.6274 24 12 24C5.37255 24 0 18.6274 0 12C0 5.37255 5.37255 0 12 0C18.6274 0 24 5.37255 24 12Z" fill="#FFFFFE"/>
<path fill-rule="evenodd" clip-rule="evenodd" d="M14.183 13.663H10.0291V19.3386H14.183C15.7502 19.3386 17.0207 18.068 17.0207 16.5008V16.5007C17.0207 14.9335 15.7502 13.663 14.183 13.663Z" fill="#D7262E"/>
<path fill-rule="evenodd" clip-rule="evenodd" d="M14.183 4.66144H10.0291V10.337H14.183C15.7502 10.337 17.0207 9.0665 17.0207 7.49927V7.49921C17.0207 5.93198 15.7502 4.66144 14.183 4.66144Z" fill="#D7262E"/>
<path fill-rule="evenodd" clip-rule="evenodd" d="M12 22.2541C8.75927 22.2541 5.86535 20.7426 3.98486 18.3879V5.61209C5.86535 3.25744 8.75927 1.74583 12 1.74583C17.6541 1.74583 22.2542 6.34588 22.2542 12C22.2542 17.6541 17.6541 22.2541 12 22.2541ZM12 0C5.37255 0 0 5.37255 0 12C0 18.6274 5.37255 24 12 24C18.6274 24 24 18.6274 24 12C24 5.37255 18.6274 0 12 0Z" fill="#D7262E"/>
</svg>
