<svg width="24" height="24" viewBox="0 0 24 24" fill="none" xmlns="http://www.w3.org/2000/svg">
<path d="M12 24C18.6274 24 24 18.6274 24 12C24 5.37258 18.6274 0 12 0C5.37258 0 0 5.37258 0 12C0 18.6274 5.37258 24 12 24Z" fill="#272731"/>
<path d="M20.25 12.0225C20.25 14.205 19.3912 16.2975 17.8605 17.841C17.1055 18.6038 16.2068 19.2095 15.2163 19.6229C14.2259 20.0364 13.1633 20.2495 12.09 20.25V18.1485C15.051 18.1575 17.5837 16.0058 18.078 13.062H15.1605C15.276 12.72 15.3352 12.3615 15.336 12C15.3313 11.6392 15.2721 11.2811 15.1605 10.938H18.078C17.577 7.998 15.048 5.85 12.09 5.8515V3.75C16.596 3.7935 20.2312 7.479 20.25 12.0225ZM14.8095 13.7917H17.1135C16.2615 16.2705 13.7595 17.7667 11.1938 17.3317C8.62875 16.8952 6.75 14.6557 6.75 12.0322C6.75 9.40875 8.62875 7.17 11.1938 6.73425C13.7595 6.29925 16.2615 7.7955 17.1135 10.2743H14.8095C14.5501 9.88003 14.2145 9.54165 13.8225 9.279C13.4641 9.04842 13.0635 8.8912 12.6439 8.81642C12.2243 8.74165 11.794 8.7508 11.378 8.84335C10.962 8.9359 10.5684 9.11002 10.2201 9.35562C9.8718 9.60123 9.57563 9.91346 9.34875 10.2743C8.38575 11.7945 8.8275 13.8143 10.3358 14.7855C10.6941 15.0161 11.0947 15.1734 11.5143 15.2482C11.9338 15.323 12.3641 15.314 12.7801 15.2215C13.1961 15.129 13.5897 14.955 13.938 14.7094C14.2863 14.4639 14.5826 14.1517 14.8095 13.791V13.7917Z" fill="white"/>
</svg>
