<svg width="24" height="24" viewBox="0 0 24 24" fill="none" xmlns="http://www.w3.org/2000/svg">
<path fill-rule="evenodd" clip-rule="evenodd" d="M18.5676 9.1344C18.5676 9.3984 18.354 9.612 18.09 9.612C17.826 9.612 17.6124 9.3984 17.6124 9.1344C17.6124 8.8704 17.826 8.6568 18.09 8.6568C18.354 8.6568 18.5664 8.8704 18.5676 9.1344ZM18.12 8.1192C17.5428 8.1192 17.0748 8.586 17.0748 9.1632C17.0748 9.7404 17.5416 10.2084 18.1188 10.2084C18.696 10.2084 19.164 9.7416 19.164 9.1644C19.164 9.1644 19.164 9.1644 19.164 9.1632C19.1628 8.5884 18.696 8.1204 18.12 8.1192ZM16.7748 17.2728C16.9992 17.0676 17.0148 16.7184 16.8096 16.494C16.6056 16.2708 16.26 16.254 16.0344 16.4556C14.9376 17.4516 13.5084 18.0024 12.0264 18.0012C8.7348 18.0012 6.0564 15.3228 6.0564 12.0288C6.0564 8.7348 8.7348 6.0564 12.0264 6.0564C13.5084 6.0552 14.9376 6.606 16.0344 7.602C16.2576 7.8096 16.6056 7.7964 16.8132 7.5744C17.0208 7.3512 17.0076 7.0032 16.7856 6.7956C16.782 6.792 16.7784 6.7884 16.7748 6.786C15.4752 5.6064 13.782 4.9524 12.0276 4.9548C8.1288 4.9548 4.956 8.1288 4.956 12.03C4.956 15.9312 8.1276 19.104 12.0264 19.104C13.782 19.1052 15.4752 18.4524 16.7748 17.2728ZM12.03 1.134C6.0216 1.134 1.134 6.0216 1.134 12.03C1.134 18.0384 6.0216 22.926 12.03 22.926C18.0384 22.926 22.926 18.0384 22.926 12.03C22.926 6.0216 18.0384 1.134 12.03 1.134ZM12 24C5.3832 24 0 18.6168 0 12C0 5.3832 5.3832 0 12 0C18.6168 0 24 5.3832 24 12C24 18.6168 18.6168 24 12 24Z" fill="#4054A8"/>
</svg>
