<svg width="24" height="24" viewBox="0 0 24 24" fill="none" xmlns="http://www.w3.org/2000/svg">
<path d="M9.47368 21.4737C13.3112 21.4737 16.4211 18.3638 16.4211 14.5263C16.4211 10.6888 13.3112 7.57894 9.47368 7.57894C5.63621 7.57894 2.52632 10.6888 2.52632 14.5263C2.52632 18.3638 5.63621 21.4737 9.47368 21.4737ZM9.47368 24C4.24168 24 0 19.7583 0 14.5263C0 9.29431 4.24168 5.05263 9.47368 5.05263C14.7057 5.05263 18.9474 9.29431 18.9474 14.5263C18.9474 19.7583 14.7057 24 9.47368 24Z" fill="#FBCC5C"/>
<path d="M14.5263 16.4211C18.3638 16.4211 21.4737 13.3112 21.4737 9.47368C21.4737 5.63621 18.3638 2.52632 14.5263 2.52632C10.6888 2.52632 7.57893 5.63621 7.57893 9.47368C7.57893 13.3112 10.6888 16.4211 14.5263 16.4211ZM14.5263 18.9474C9.2943 18.9474 5.05261 14.7057 5.05261 9.47368C5.05261 4.24168 9.2943 0 14.5263 0C19.7583 0 24 4.24168 24 9.47368C24 14.7057 19.7583 18.9474 14.5263 18.9474Z" fill="#35D07F"/>
<path d="M14.8396 18.9474C15.4964 18.1516 15.9663 17.2194 16.2164 16.2164C17.2168 15.9663 18.149 15.4964 18.9473 14.8396C18.912 15.9992 18.6619 17.141 18.2097 18.2122C17.141 18.6619 15.9991 18.912 14.8396 18.9474ZM7.78356 7.78358C6.78314 8.03368 5.85093 8.50358 5.05261 9.16042C5.08798 8.00084 5.33809 6.85894 5.7903 5.79031C6.85893 5.34063 8.00335 5.09052 9.1604 5.05263C8.50356 5.84842 8.03367 6.78063 7.78356 7.78358Z" fill="#5EA33B"/>
</svg>
