<svg width="24" height="24" viewBox="0 0 24 24" fill="none" xmlns="http://www.w3.org/2000/svg">
<path fill-rule="evenodd" clip-rule="evenodd" d="M0 0H24V24H0V0Z" fill="#0886FB"/>
<path fill-rule="evenodd" clip-rule="evenodd" d="M19.8907 12.4323C19.905 12.2946 19.876 12.1557 19.8079 12.0352C19.6176 11.6962 19.1461 11.5556 18.8318 11.7043C18.7624 11.7385 18.7006 11.7863 18.65 11.8449L15.4079 14.7149V18.0259C15.4079 18.0259 12.2149 17.5378 11.5039 17.3475C10.5941 17.1075 9.94738 16.9338 9.35338 16.3799C9.14651 16.1896 8.55954 15.6438 8.5264 14.8736V14.5593L8.50983 6.09767L12.7035 6.73335C13.0344 6.79109 13.8779 6.98139 14.5397 7.58694C14.7532 7.78748 14.9389 8.01561 15.092 8.2653C15.3486 8.6705 15.3898 8.90197 15.3978 9.0511V11.7123C15.4123 11.8735 15.4757 12.0265 15.5796 12.1506C15.6857 12.2857 15.8399 12.3745 16.0099 12.3987C16.1751 12.4153 16.3076 12.3485 16.4402 12.2912C16.5197 12.2529 16.5947 12.2057 16.6636 12.1506L19.964 9.37999V6.52748C19.9309 5.69197 19.5006 5.08843 19.2194 4.69125C19.0622 4.47635 18.2518 3.39279 16.7791 2.88817C16.6466 2.84699 16.5391 2.81385 16.4648 2.78774L12.8436 2.12646C12.5657 2.0694 12.2838 2.03348 12.0005 2.01901C11.8353 2.01097 11.157 1.9688 10.5118 2.08529C9.30367 2.30973 7.68235 3.17688 7.45087 4.45878C7.43681 4.54077 7.42859 4.62366 7.42627 4.70682H7.03764C6.66412 4.8424 6.30851 5.02299 5.97868 5.24458C5.64779 5.46802 4.986 5.92294 4.51452 6.80113C4.20756 7.38887 4.04329 8.04062 4.035 8.70364V16.7254C4.03361 16.8635 4.03914 17.0016 4.05157 17.1391C4.05157 17.1391 4.10178 17.8175 4.28304 18.3944C4.48991 19.0311 5.12659 20.082 6.25183 20.7518C6.58272 20.9527 7.32685 21.1239 8.81612 21.4714C9.7279 21.6903 10.6534 21.8477 11.5863 21.9424C12.1738 22.0001 12.4549 22.0001 12.703 21.9835C13.1825 21.9589 13.8362 21.9172 14.5638 21.5698C15.8126 20.9672 16.3835 19.8822 16.522 19.601C16.5632 19.5182 16.5964 19.4438 16.6225 19.3941H16.7877C17.6089 19.142 18.3408 18.6599 18.8965 18.0048C19.1114 17.7567 19.8395 16.8635 19.9138 15.5811C19.9221 15.4351 19.9221 15.2887 19.9138 15.1427C19.8892 14.2244 19.8892 13.3311 19.8892 12.4313L19.8907 12.4323ZM9.37799 4.35936C9.62421 4.14644 9.89653 3.96573 10.1884 3.82159C10.4615 3.68904 11.1645 3.35865 11.9669 3.54845C12.0673 3.57305 12.1486 3.59866 12.1984 3.61472L15.9371 4.31818C16.6009 4.40419 17.2146 4.71691 17.6744 5.20341C17.815 5.35404 18.3693 5.96461 18.4356 6.85787C18.444 6.96516 18.444 7.07294 18.4356 7.18023V8.66096L16.9212 9.8354V9.0988C16.9097 8.94629 16.8904 8.79446 16.8635 8.64389C16.7537 8.06526 16.5132 7.51933 16.1605 7.04767C16.028 6.85737 15.2673 5.80695 13.886 5.35204C13.8116 5.32743 13.7534 5.31086 13.7042 5.29429L9.30367 4.52506L9.37799 4.35986V4.35936ZM14.5146 19.711C14.134 20.2984 13.2658 20.3893 12.8355 20.4305C12.6377 20.4502 12.4387 20.4557 12.24 20.4471L7.71549 19.6613L7.59147 19.6035C7.2742 19.5406 6.97303 19.4138 6.70624 19.2309C6.4224 19.0347 6.18291 18.781 6.00328 18.4863C5.83746 18.2275 5.71722 17.9422 5.64779 17.6428C5.59358 17.4041 5.57129 17.1592 5.58151 16.9147L5.57347 8.62732V8.5033C5.60661 7.64318 6.25183 6.98139 6.75645 6.58422L6.96332 6.47677C6.97136 9.15655 6.97136 11.8368 6.97989 14.5166C6.97989 14.5909 6.97186 14.6984 6.97989 14.8309C7.03764 16.0631 7.7657 16.9483 7.98914 17.2049C8.90751 18.2799 10.1066 18.6108 10.8843 18.8177C11.3804 18.9503 14.6311 19.4961 14.6311 19.4961C14.5985 19.5708 14.5597 19.6427 14.5151 19.711H14.5146ZM18.4351 15.4018C18.3839 15.9261 18.1796 16.4238 17.8476 16.8329C17.6147 17.1131 17.3278 17.3438 17.0041 17.5112V15.2778C17.4836 14.8806 17.9636 14.484 18.4351 14.0948C18.4431 14.5251 18.4431 14.9635 18.4351 15.4003V15.4018Z" fill="#FFFDFC"/>
</svg>
