<svg width="24" height="24" viewBox="0 0 24 24" fill="none" xmlns="http://www.w3.org/2000/svg">
<path d="M12 24C18.6274 24 24 18.6274 24 12C24 5.37258 18.6274 0 12 0C5.37258 0 0 5.37258 0 12C0 18.6274 5.37258 24 12 24Z" fill="#1C98F7"/>
<path fill-rule="evenodd" clip-rule="evenodd" d="M12.21 17.4938C12.7377 17.4571 13.261 17.3717 13.773 17.2388C14.4049 17.4316 15.0729 17.4752 15.7245 17.3663C15.7503 17.3621 15.7764 17.3601 15.8025 17.3602C16.035 17.3602 16.3402 17.4953 16.785 17.7803V17.3115C16.7851 17.2304 16.8067 17.1508 16.8477 17.0808C16.8887 17.0108 16.9476 16.953 17.0182 16.9132C17.2118 16.8038 17.3918 16.6777 17.556 16.539C18.204 15.99 18.57 15.258 18.57 14.4825C18.57 14.2222 18.5287 13.9695 18.4508 13.728C18.6465 13.3628 18.8048 12.9788 18.921 12.5805C19.2969 13.1438 19.4983 13.8054 19.5 14.4825C19.5 15.5362 19.0095 16.5188 18.1613 17.2372C18.0197 17.3571 17.8706 17.4678 17.715 17.5687V18.6645C17.715 19.0417 17.28 19.2585 16.9733 19.0343C16.6832 18.8174 16.3828 18.6147 16.0732 18.4268C15.9846 18.3737 15.8924 18.3268 15.7972 18.2865C15.5422 18.3247 15.2812 18.3442 15.018 18.3442C13.959 18.3442 12.981 18.027 12.2108 17.4938H12.21ZM6.6105 15.3022C5.2725 14.1675 4.5 12.6217 4.5 10.965C4.5 7.58025 7.6935 4.875 11.5927 4.875C15.4928 4.875 18.6863 7.58025 18.6863 10.965C18.6863 14.3505 15.492 17.0557 11.5927 17.0557C11.1547 17.0557 10.7213 17.022 10.2968 16.9545C10.113 16.998 9.37875 17.4345 8.3205 18.207C7.93725 18.4875 7.3935 18.2168 7.3935 17.745V15.876C7.11945 15.7032 6.85781 15.5115 6.6105 15.3022ZM10.3222 15.8018C10.3545 15.8018 10.3875 15.804 10.4197 15.8092C10.8022 15.8738 11.1953 15.9067 11.5927 15.9067C14.8868 15.9067 17.523 13.6733 17.523 10.965C17.523 8.2575 14.8868 6.024 11.5927 6.024C8.30025 6.024 5.6625 8.2575 5.6625 10.965C5.6625 12.2745 6.27825 13.5075 7.36725 14.43C7.641 14.661 7.94175 14.871 8.26425 15.054C8.445 15.156 8.55675 15.3465 8.55675 15.552V16.6298C9.39375 16.068 9.94425 15.8018 10.3222 15.8018ZM8.5695 12.1147C8.05575 12.1147 7.6395 11.7023 7.6395 11.1953C7.6395 10.6875 8.05575 10.2758 8.5695 10.2758C9.08325 10.2758 9.4995 10.6875 9.4995 11.1953C9.4995 11.703 9.08325 12.1147 8.5695 12.1147ZM11.5927 12.1147C11.079 12.1147 10.6628 11.7023 10.6628 11.1953C10.6628 10.6875 11.079 10.2758 11.5927 10.2758C12.1065 10.2758 12.5228 10.6875 12.5228 11.1953C12.5228 11.703 12.1065 12.1147 11.5927 12.1147ZM14.616 12.1147C14.1023 12.1147 13.686 11.7023 13.686 11.1953C13.686 10.6875 14.1023 10.2758 14.616 10.2758C15.1298 10.2758 15.546 10.6875 15.546 11.1953C15.546 11.703 15.1298 12.1147 14.616 12.1147Z" fill="white"/>
</svg>
