<svg width="24" height="24" viewBox="0 0 24 24" fill="none" xmlns="http://www.w3.org/2000/svg">
<g clip-path="url(#clip0)">
<path d="M14.24 12.56C14.24 12.4 14.24 12.32 14.08 12.24C13.52 11.84 12.88 11.44 12.32 11.04C12.2608 11.0005 12.1912 10.9793 12.12 10.9793C12.0488 10.9793 11.9792 11.0005 11.92 11.04L10.16 12.32C10.0865 12.3575 10.0251 12.4149 9.98264 12.4856C9.9402 12.5563 9.9185 12.6375 9.92001 12.72C9.91626 12.8925 9.86049 13.0598 9.76001 13.2C9.72045 13.2592 9.69934 13.3288 9.69934 13.4C9.69934 13.4712 9.72045 13.5408 9.76001 13.6C10.4 14.88 10.96 16.16 11.6 17.44C11.84 17.84 12 18.32 12.24 18.8C12.32 18.72 12.32 18.64 12.4 18.56C13.12 16.96 13.76 15.36 14.48 13.76C14.56 13.6 14.56 13.52 14.4 13.44C14.3101 13.3142 14.2491 13.1701 14.2214 13.0179C14.1938 12.8658 14.2001 12.7094 14.24 12.56Z" fill="#CD0124"/>
<path d="M11.52 10.48C9.91997 9.36 8.31997 8.24 6.79997 7.2L6.71997 7.28C6.79997 7.44 6.79997 7.52 6.87997 7.68L8.55997 11.28C8.71997 11.6 8.79997 11.92 9.27997 12C9.41823 12.0124 9.55714 11.9847 9.67997 11.92C10.16 11.52 10.72 11.2 11.2 10.8L11.52 10.48Z" fill="#CD0124"/>
<path d="M12 0C9.62663 0 7.30655 0.703788 5.33316 2.02236C3.35977 3.34094 1.8217 5.21509 0.913451 7.4078C0.00519943 9.60051 -0.232441 12.0133 0.230582 14.3411C0.693605 16.6689 1.83649 18.8071 3.51472 20.4853C5.19295 22.1635 7.33115 23.3064 9.65892 23.7694C11.9867 24.2324 14.3995 23.9948 16.5922 23.0866C18.7849 22.1783 20.6591 20.6402 21.9776 18.6668C23.2962 16.6935 24 14.3734 24 12C24 8.8174 22.7357 5.76515 20.4853 3.51472C18.2349 1.26428 15.1826 0 12 0V0ZM18.48 6.96C18.32 6.96 18.24 7.04 18.16 7.2C17.52 8.8 16.8 10.4 16.16 12V12.32C16.2239 12.4552 16.2579 12.6027 16.2596 12.7522C16.2614 12.9018 16.2308 13.05 16.1701 13.1867C16.1093 13.3234 16.0198 13.4453 15.9076 13.5443C15.7954 13.6432 15.6632 13.7168 15.52 13.76C15.44 13.76 15.36 13.84 15.28 14C14.56 15.6 13.84 17.28 13.2 18.88C13.1605 18.9392 13.1393 19.0088 13.1393 19.08C13.1393 19.1512 13.1605 19.2208 13.2 19.28C13.3495 19.4852 13.4161 19.7392 13.3864 19.9913C13.3567 20.2435 13.233 20.4751 13.04 20.64C12.8723 20.8057 12.6503 20.905 12.415 20.9197C12.1797 20.9345 11.947 20.8635 11.76 20.72C11.6601 20.6518 11.5746 20.5645 11.5085 20.4633C11.4424 20.362 11.3968 20.2487 11.3746 20.1298C11.3523 20.0109 11.3536 19.8888 11.3786 19.7704C11.4036 19.652 11.4516 19.5398 11.52 19.44C11.5592 19.3661 11.5797 19.2837 11.5797 19.2C11.5797 19.1163 11.5592 19.0339 11.52 18.96C10.72 17.36 10 15.76 9.20001 14.16C9.16359 14.0787 9.10831 14.0072 9.03874 13.9516C8.96917 13.8959 8.88733 13.8577 8.80001 13.84C8.63699 13.8129 8.48297 13.7467 8.35108 13.6472C8.21919 13.5476 8.11335 13.4176 8.04261 13.2682C7.97187 13.1189 7.93832 12.9546 7.94483 12.7895C7.95134 12.6244 7.99772 12.4633 8.08001 12.32C8.11956 12.2608 8.14067 12.1912 8.14067 12.12C8.14067 12.0488 8.11956 11.9792 8.08001 11.92C7.36001 10.32 6.64001 8.8 5.84001 7.2C5.84001 7.12 5.76001 7.04 5.52001 7.04C5.28473 7.00692 5.06828 6.89306 4.90773 6.71792C4.74719 6.54278 4.65254 6.31726 4.64001 6.08C4.6548 5.85775 4.72956 5.64368 4.85635 5.46054C4.98313 5.27741 5.15719 5.13207 5.36001 5.04C5.57532 4.95659 5.81298 4.95091 6.03203 5.02393C6.25108 5.09695 6.4378 5.24409 6.56001 5.44C6.64001 5.6 6.72001 5.6 6.96001 5.6H17.12C17.28 5.6 17.44 5.6 17.52 5.36C17.6292 5.17156 17.8016 5.02794 18.0067 4.9547C18.2118 4.88145 18.4362 4.88333 18.64 4.96C18.8387 5.03524 19.0119 5.16545 19.1394 5.33544C19.2669 5.50542 19.3434 5.70817 19.36 5.92C19.363 6.17022 19.2756 6.41312 19.114 6.60415C18.9524 6.79518 18.7273 6.92152 18.48 6.96Z" fill="#CD0124"/>
<path d="M12 9.91999C12.0592 9.95955 12.1288 9.98066 12.2 9.98066C12.2712 9.98066 12.3408 9.95955 12.4 9.91999C13.92 8.79999 15.44 7.75999 16.88 6.63999C16.96 6.55999 17.04 6.55999 17.04 6.47999V6.39999H6.96002C7.05156 6.43358 7.13381 6.48842 7.20002 6.55999L12 9.91999Z" fill="#CD0124"/>
<path d="M12.8 10.48C13.44 10.96 14.08 11.36 14.72 11.76C14.88 11.84 15.12 11.76 15.36 11.76C15.44 11.76 15.52 11.6 15.52 11.52C16.08 10.24 16.64 8.88002 17.2 7.60002C17.2 7.52002 17.28 7.44002 17.28 7.36002H17.2C15.84 8.32002 14.32 9.36002 12.8 10.48Z" fill="#CD0124"/>
</g>
<defs>
<clipPath id="clip0">
<rect width="24" height="24" fill="white"/>
</clipPath>
</defs>
</svg>
