<svg width="24" height="24" viewBox="0 0 24 24" fill="none" xmlns="http://www.w3.org/2000/svg">
<path d="M12 24C18.6274 24 24 18.6274 24 12C24 5.37258 18.6274 0 12 0C5.37258 0 0 5.37258 0 12C0 18.6274 5.37258 24 12 24Z" fill="#C1A05C"/>
<path fill-rule="evenodd" clip-rule="evenodd" d="M12.207 19.5C10.4677 19.4955 8.91073 18.9615 7.52023 17.94C7.15048 17.6685 7.13923 17.5125 7.45422 17.1742L7.48272 17.1442C7.86748 16.7272 7.86522 16.7295 8.32197 17.058C9.37452 17.827 10.6361 18.2576 11.9392 18.2925C13.3237 18.3405 14.5957 18.0098 15.7455 17.268C17.1247 16.3785 18.0652 15.1395 18.459 13.5577C18.9532 11.5717 18.5857 9.73275 17.2837 8.1165C16.3717 6.984 15.1867 6.25425 13.755 5.9085C12.477 5.5995 11.2215 5.67525 9.98772 6.09975C9.33448 6.32475 8.73072 6.65625 8.18547 7.08225C7.91622 7.29225 7.81422 7.28775 7.58547 7.03125C7.47542 6.91171 7.37225 6.78601 7.27647 6.65475C7.13547 6.45525 7.15497 6.33675 7.34547 6.18525C8.25064 5.46728 9.30525 4.96137 10.4317 4.70475C11.4512 4.46311 12.5096 4.43502 13.5405 4.62225C14.9415 4.87575 16.188 5.45175 17.2582 6.38475C18.0502 7.07625 18.6907 7.88475 19.1362 8.82975C19.7497 10.1318 19.9995 11.4953 19.8157 12.9338C19.6518 14.2463 19.1361 15.4902 18.3232 16.5338C17.493 17.6152 16.4302 18.4042 15.1597 18.9225C14.2237 19.3095 13.2198 19.5059 12.207 19.5ZM11.73 14.7128C11.6797 14.7893 11.6535 14.8463 11.6115 14.8898C11.358 15.156 11.0482 15.3158 10.6747 15.3278C10.416 15.3352 10.1565 15.3135 9.89772 15.3195C9.79764 15.3186 9.69899 15.3434 9.61122 15.3915C8.41572 16.1415 7.12872 16.251 5.77272 15.963C5.32647 15.8685 4.92672 15.6967 4.58622 15.4042C4.32972 15.1845 4.14897 14.925 4.12722 14.5605C4.08972 13.9253 4.55997 13.4917 5.04447 13.35C5.93922 13.0875 6.79048 13.2473 7.60497 13.6425C7.97697 13.8225 8.32498 14.052 8.68047 14.265C8.88447 14.3858 8.94522 14.3812 9.04722 14.1727C9.50847 13.2307 9.21072 12.192 8.08422 11.808C7.09573 11.4705 6.12897 11.5043 5.17722 11.943C5.03772 12.0075 4.88472 12.1305 4.72048 11.9985C4.55023 11.8605 4.66422 11.6962 4.70772 11.5507C5.02047 10.4977 5.33772 9.447 5.65947 8.397C5.72997 8.16675 5.91372 8.04825 6.18222 8.0625C6.57747 8.08425 6.97047 8.1435 7.36572 8.1525C7.95822 8.1675 8.55297 8.17275 9.14472 8.1435C9.58497 8.121 9.97122 7.9275 10.311 7.647C10.3522 7.61325 10.4355 7.57425 10.4625 7.59225C10.5022 7.6185 10.5262 7.692 10.53 7.7475C10.5577 8.202 10.3627 8.55225 10.0012 8.8245C9.57372 9.147 9.08547 9.297 8.55222 9.30975C7.99947 9.3225 7.44672 9.33 6.89472 9.33225C6.77022 9.33375 6.70422 9.37875 6.67497 9.49575C6.62547 9.69075 6.57297 9.8865 6.51672 10.0808C6.47397 10.2255 6.52872 10.2833 6.67497 10.2773C7.02297 10.2645 7.37098 10.2413 7.71823 10.2435C8.51754 10.2388 9.28937 10.5349 9.88047 11.073C10.4602 11.589 10.695 12.255 10.7302 12.999C10.758 13.5953 10.644 14.166 10.3162 14.6798C10.227 14.82 10.2675 14.8807 10.4182 14.9205C10.8187 15.0262 11.1885 14.9543 11.5417 14.757C11.5717 14.7405 11.5995 14.7218 11.6302 14.7075C11.6407 14.703 11.6565 14.7083 11.73 14.7128ZM8.30397 14.8822L8.29197 14.8095C8.24172 14.7788 8.19447 14.7405 8.13972 14.7165C7.74222 14.5402 7.34997 14.3453 6.94197 14.1968C6.52572 14.0445 6.09297 13.9358 5.63997 14.0415C5.43597 14.0887 5.23197 14.1405 5.17272 14.3752C5.10672 14.634 5.26497 14.7953 5.44947 14.9363C5.50722 14.9805 5.57847 15.012 5.64747 15.039C6.34798 15.309 7.05897 15.3165 7.77297 15.105C7.95598 15.051 8.12772 14.9573 8.30397 14.8822Z" fill="white"/>
</svg>
