<svg width="24" height="24" viewBox="0 0 24 24" fill="none" xmlns="http://www.w3.org/2000/svg">
<path d="M12 24C18.6274 24 24 18.6274 24 12C24 5.37258 18.6274 0 12 0C5.37258 0 0 5.37258 0 12C0 18.6274 5.37258 24 12 24Z" fill="#77C3B0"/>
<path d="M19.2585 9.96224L17.9925 8.69624C17.8023 8.50506 17.576 8.35357 17.3267 8.25057C17.0774 8.14757 16.8102 8.09511 16.5405 8.09624H16.3455V7.89374C16.3455 7.53899 16.2615 7.20149 16.0845 6.89774C15.9934 6.72158 15.8735 6.56189 15.7297 6.42524L14.4637 5.15849C14.2734 4.96722 14.047 4.81567 13.7976 4.71267C13.5482 4.60967 13.2808 4.55726 13.011 4.55849H7.1775C6.6285 4.55849 6.114 4.76999 5.7255 5.15849L4.4595 6.42449C4.26777 6.6126 4.11585 6.83736 4.01278 7.08539C3.9097 7.33342 3.85757 7.59965 3.8595 7.86824L3.82575 13.3395C3.81825 13.8877 4.03725 14.4195 4.42575 14.808L5.69175 16.0747C5.88201 16.2658 6.10835 16.4172 6.35761 16.5201C6.60688 16.6229 6.87409 16.6753 7.14375 16.674H7.37175V16.8765C7.37175 17.2312 7.4565 17.5687 7.6335 17.8725C7.7265 18.0502 7.84425 18.21 7.98825 18.345L9.25425 19.6125C9.4447 19.8033 9.67109 19.9544 9.92032 20.0571C10.1696 20.1599 10.4367 20.2122 10.7062 20.211H16.5487C17.0977 20.211 17.6122 20.0002 18.0007 19.6117L19.2675 18.3457C19.4584 18.1553 19.6096 17.929 19.7125 17.6797C19.8153 17.4305 19.8678 17.1634 19.8667 16.8937V11.406C19.8653 11.1372 19.8109 10.8714 19.7067 10.6237C19.6024 10.3759 19.4504 10.1512 19.2592 9.96224H19.2585ZM7.14375 14.8162C7.09017 14.8163 7.03871 14.7953 7.0005 14.7577L6.3675 14.124L5.73375 13.491C5.70656 13.459 5.68637 13.4217 5.6745 13.3815V7.87724C5.6745 7.81724 5.7 7.76699 5.7345 7.73324L7.0005 6.46724C7.017 6.44999 7.03425 6.44174 7.05075 6.43349C7.08203 6.41717 7.11672 6.40844 7.152 6.40799H12.9945C13.0282 6.40799 13.0537 6.41624 13.0875 6.43349C13.113 6.44174 13.1295 6.45899 13.1467 6.47549L14.4127 7.74224C14.4312 7.75808 14.4457 7.77815 14.4547 7.80074C14.4637 7.80974 14.4637 7.81799 14.4637 7.82624C14.4637 7.83449 14.4712 7.84349 14.4712 7.85174C14.4712 7.85999 14.4802 7.88549 14.4802 7.90199V8.17199C14.4802 8.29049 14.3872 8.37449 14.2777 8.37449H13.2652C13.2114 8.37476 13.1596 8.35373 13.1212 8.31599L12.5467 7.74224H7.59975L7.389 7.95224L7.10175 8.24024V12.993L7.59975 13.491H12.5385L13.113 12.909L13.1205 12.9C13.1377 12.8917 13.155 12.8745 13.1715 12.8662C13.197 12.8497 13.2315 12.8497 13.2562 12.8497H14.2687C14.3362 12.8497 14.3962 12.8835 14.4382 12.9337C14.4645 12.9678 14.4792 13.0093 14.4802 13.0522V13.3395C14.4801 13.3932 14.4588 13.4446 14.421 13.4827L13.788 14.1157L13.155 14.7487C13.1467 14.7577 13.1295 14.766 13.1212 14.7742C13.1212 14.7742 13.113 14.7825 13.104 14.7825C13.0957 14.7915 13.0875 14.7915 13.0785 14.7915C13.071 14.7915 13.071 14.7915 13.062 14.7997C13.0537 14.7997 13.0447 14.808 13.0365 14.808H7.14375V14.8162ZM18.018 16.8765C18.0177 16.9303 17.9961 16.9818 17.958 17.0197L16.692 18.2865C16.6773 18.3005 16.6603 18.3119 16.6417 18.3202C16.6105 18.3366 16.5758 18.3453 16.5405 18.3457H10.698C10.6653 18.3453 10.6333 18.3365 10.605 18.3202C10.5824 18.3111 10.5623 18.2967 10.5465 18.2782L9.27975 17.0115C9.26325 16.995 9.246 16.9777 9.23775 16.9522C9.22875 16.9447 9.22875 16.9357 9.22875 16.9275C9.22875 16.9185 9.22125 16.9102 9.22125 16.902C9.22125 16.8937 9.21225 16.8682 9.21225 16.851V16.581C9.21225 16.4632 9.30525 16.3785 9.41475 16.3785H10.4272C10.4872 16.3785 10.5375 16.404 10.5712 16.4377L11.1457 17.0115H16.0845L16.2952 16.8007L16.5825 16.5135V11.7607L16.0845 11.262H11.154L10.5802 11.8447L10.5712 11.853C10.5547 11.862 10.5375 11.8785 10.521 11.8867C10.4955 11.904 10.4617 11.904 10.4362 11.904H9.42375C9.39097 11.9034 9.35875 11.8954 9.32943 11.8808C9.30011 11.8661 9.27442 11.8451 9.25425 11.8192C9.22813 11.7854 9.21343 11.7442 9.21225 11.7015V11.4142C9.21223 11.3876 9.21746 11.3613 9.22762 11.3367C9.23779 11.3121 9.2527 11.2898 9.2715 11.271L9.9045 10.638L10.5375 10.0042C10.5465 9.99599 10.563 9.98774 10.5712 9.97874C10.5712 9.97874 10.5802 9.97124 10.5885 9.97124C10.5967 9.96224 10.605 9.96224 10.614 9.96224C10.6215 9.96224 10.6215 9.96224 10.6305 9.95399C10.6387 9.95399 10.6477 9.94499 10.656 9.94499H16.5405C16.599 9.94499 16.65 9.97049 16.6837 10.005L17.3167 10.638L17.9505 11.271C17.958 11.2792 17.967 11.2875 17.9752 11.3047C17.9902 11.3282 18.0016 11.3537 18.009 11.3805V11.4225C18.018 11.406 18.018 16.8765 18.018 16.8765Z" fill="white"/>
</svg>
