<svg width="24" height="24" viewBox="0 0 24 24" fill="none" xmlns="http://www.w3.org/2000/svg">
<path d="M11.3701 0H12.5691C13.6838 0.0928125 14.7976 0.272812 15.8551 0.647812C18.6094 1.58438 20.9832 3.57469 22.3894 6.12094C23.6129 8.31938 24.136 10.9116 23.8135 13.4081C23.4601 16.4081 21.9122 19.2487 19.5779 21.1669C17.4741 22.9247 14.7451 23.9044 12.0057 23.9072C9.44069 23.9053 6.88225 23.0522 4.83944 21.4987C2.45725 19.7119 0.799748 16.9978 0.28506 14.0662C-0.106815 11.9484 0.110685 9.73125 0.87006 7.71844C1.88631 5.00062 3.93006 2.685 6.50819 1.35187C8.00819 0.554062 9.68256 0.134062 11.3701 0ZM6.1435 4.73531C4.76162 5.92031 3.87475 7.61625 3.51381 9.38719C3.1735 11.1206 3.196 12.9375 3.63662 14.6512C4.15787 16.6087 5.35037 18.4613 7.1335 19.4841C8.82662 20.4553 10.8329 20.6812 12.7519 20.6119C14.5426 20.5219 16.3688 20.2894 18.0001 19.4981C18.0001 18.6244 18.001 17.7497 17.9991 16.8759C16.126 17.9166 13.9416 18.5109 11.7938 18.1997C10.5132 18.0319 9.25319 17.4328 8.45725 16.3922C7.46444 15.1622 7.0585 13.5572 7.03694 12C6.99006 10.1709 7.41756 8.25375 8.59506 6.81281C9.40318 5.8425 10.6632 5.36906 11.8969 5.28C13.9182 5.13375 15.9188 5.6025 17.8388 6.1875C17.8369 5.31375 17.8388 4.43906 17.8379 3.56437C15.7163 3.06094 13.5235 2.82469 11.3438 2.93812C9.49787 3.04781 7.58725 3.52312 6.1435 4.73531Z" fill="#2C3E50"/>
<path d="M6.14346 4.73532C7.58721 3.52313 9.49783 3.04782 11.3438 2.93813C13.5235 2.8247 15.7163 3.06095 17.8378 3.56438C17.8388 4.43907 17.8369 5.31376 17.8388 6.18751C15.9188 5.60251 13.9181 5.13376 11.8969 5.28001C10.6631 5.36907 9.40315 5.84251 8.59502 6.81282C7.41752 8.25376 6.99002 10.1709 7.0369 12C7.05846 13.5572 7.4644 15.1622 8.45721 16.3922C9.25315 17.4328 10.5131 18.0319 11.7938 18.1997C13.9416 18.5109 16.126 17.9166 17.9991 16.8759C18.001 17.7497 18 18.6244 18 19.4981C16.3688 20.2894 14.5425 20.5219 12.7519 20.6119C10.8328 20.6813 8.82658 20.4553 7.13346 19.4841C5.35033 18.4613 4.15783 16.6088 3.63658 14.6513C3.19596 12.9375 3.17346 11.1206 3.51377 9.38719C3.87471 7.61626 4.76158 5.92032 6.14346 4.73532Z" fill="white"/>
</svg>
