<svg width="24" height="24" viewBox="0 0 24 24" fill="none" xmlns="http://www.w3.org/2000/svg">
<path d="M12.2244 0L1.92004 5.94783V17.8435L12.2244 23.7913L22.5287 17.8435V5.94783L12.2244 0Z" fill="url(#paint0_linear)"/>
<path d="M12.2244 0L1.92004 5.94783V17.8435L12.2244 23.7913V0Z" fill="url(#paint1_linear)"/>
<path d="M16.2418 5.13913H8.15482L7.21569 9.26087H17.2331L16.2418 5.13913ZM9.58961 14.9217V12.1826L7.18961 10.6696L4.47656 12.6783L8.18091 19.1217H9.66787L11.4157 17.4783V16.6696L9.58961 14.9217Z" fill="white"/>
<path d="M14.8331 9.88696H9.61572L10.4766 12.1826L10.2157 14.7652H14.2331L13.9722 12.1826L14.8331 9.88696Z" fill="white"/>
<path d="M17.2331 10.6435L14.8592 12.1826V14.9217L13.0592 16.6696V17.4783L14.807 19.0957H16.2679L19.9462 12.6783L17.2331 10.6435Z" fill="white"/>
<defs>
<linearGradient id="paint0_linear" x1="12.2244" y1="0" x2="12.2244" y2="23.7652" gradientUnits="userSpaceOnUse">
<stop stop-color="#25376C"/>
<stop offset="1" stop-color="#1F1F49"/>
</linearGradient>
<linearGradient id="paint1_linear" x1="7.05917" y1="23.7652" x2="7.05917" y2="0" gradientUnits="userSpaceOnUse">
<stop stop-color="#25376C"/>
<stop offset="1" stop-color="#1F1F49"/>
</linearGradient>
</defs>
</svg>
