<svg width="24" height="24" viewBox="0 0 24 24" fill="none" xmlns="http://www.w3.org/2000/svg">
<path d="M12 24C18.6274 24 24 18.6274 24 12C24 5.37258 18.6274 0 12 0C5.37258 0 0 5.37258 0 12C0 18.6274 5.37258 24 12 24Z" fill="#0F1529"/>
<path fill-rule="evenodd" clip-rule="evenodd" d="M18.6248 11.5095C18.474 11.5432 18.3705 11.5627 18.2692 11.5897C17.6355 11.7555 16.9973 11.8867 16.3373 11.862C15.4553 11.8282 14.6977 11.4735 14.0295 10.902C13.7595 10.6702 13.509 10.4145 13.251 10.1685C13.1257 10.05 13.0957 9.915 13.191 9.7605L13.4347 9.36525L13.764 9.72675C14.2387 10.2532 14.7465 10.7325 15.4163 10.9882C16.074 11.2387 16.7437 11.202 17.4165 11.0887C18.3675 10.9297 19.2458 10.5495 20.1068 10.1227C20.1353 10.1085 20.1667 10.0995 20.25 10.0665C20.193 10.1737 20.1615 10.2375 20.1255 10.2975C18.8685 12.411 17.6115 14.5245 16.353 16.6372C16.1985 16.8967 16.1407 16.9162 15.8722 16.785C14.0977 15.9135 12.2393 15.7477 10.3207 16.0777C10.0207 16.1295 9.9675 16.104 9.82425 15.7965C9.6675 15.4605 9.669 15.4695 10.0237 15.4012C11.0122 15.2082 12.0244 15.1669 13.0253 15.279C13.962 15.384 14.8958 15.522 15.7552 15.963C15.8783 16.0267 15.9435 15.9735 16.005 15.8715C16.5503 14.961 17.0955 14.0505 17.6437 13.1415C17.937 12.6547 18.2362 12.1717 18.531 11.6865C18.5565 11.6445 18.5767 11.6002 18.6248 11.5095ZM5.38425 11.6002C5.51025 11.8125 5.63625 12.0247 5.76375 12.2362L8.28675 16.4212C8.40675 16.6207 8.40675 16.6267 8.199 16.722C7.75125 16.9282 7.80675 16.9815 7.533 16.5232C6.5655 14.8995 5.5995 13.2742 4.6335 11.6497L3.8505 10.3335C3.813 10.2712 3.783 10.2037 3.75 10.1385L3.77925 10.0995C3.8895 10.1482 4.0005 10.194 4.10925 10.245C4.7715 10.5547 5.44125 10.8427 6.15075 11.0182C7.06125 11.2447 7.9605 11.271 8.82825 10.8382C9.36825 10.569 9.813 10.1722 10.2135 9.72C10.8548 8.994 11.3752 8.1795 11.847 7.3305L11.9618 7.125C12.024 7.218 12.0638 7.2885 12.114 7.35C12.3907 7.689 12.3255 7.9905 12.0922 8.3415C11.5717 9.1245 11.0475 9.9 10.3545 10.536C9.735 11.1045 9.0405 11.5335 8.2245 11.7292C7.584 11.883 6.9405 11.8522 6.29775 11.733C6.00375 11.6782 5.71125 11.6167 5.418 11.5582L5.38425 11.6002Z" fill="white"/>
</svg>
