<svg width="24" height="24" viewBox="0 0 24 24" fill="none" xmlns="http://www.w3.org/2000/svg">
<g clip-path="url(#clip0)">
<path d="M12 23.004C18.0773 23.004 23.004 18.0773 23.004 12C23.004 5.92265 18.0773 0.995987 12 0.995987C5.92263 0.995987 0.995972 5.92265 0.995972 12C0.995972 18.0773 5.92263 23.004 12 23.004Z" fill="white"/>
<path d="M10.9776 7.56477C10.5571 7.77119 10.1819 8.05941 9.87404 8.41258C9.56621 8.76574 9.3319 9.17676 9.18483 9.62157C8.70541 10.9478 8.64178 12.3887 9.00243 13.752C9.17602 14.5388 9.57557 15.2578 10.152 15.8208C10.5683 16.2387 11.094 16.5307 11.6688 16.6632L11.5704 7.35597C11.3472 7.43997 11.1528 7.48317 10.9776 7.56477Z" fill="black"/>
<path d="M12 0C9.62663 0 7.30655 0.703788 5.33316 2.02236C3.35977 3.34094 1.8217 5.21509 0.913451 7.4078C0.00519939 9.60051 -0.232441 12.0133 0.230582 14.3411C0.693605 16.6689 1.83649 18.8071 3.51472 20.4853C5.19295 22.1635 7.33115 23.3064 9.65892 23.7694C11.9867 24.2324 14.3995 23.9948 16.5922 23.0866C18.7849 22.1783 20.6591 20.6402 21.9776 18.6668C23.2962 16.6935 24 14.3734 24 12C24 8.8174 22.7357 5.76516 20.4853 3.51472C18.2349 1.26428 15.1826 0 12 0V0ZM17.016 15.54C16.9436 15.711 16.8402 15.8672 16.7112 16.0008C15.8893 16.8875 14.7879 17.4653 13.5912 17.6376L13.2768 17.6904C13.2528 17.6904 13.2288 17.712 13.248 17.7024C13.0848 18.2808 12.9696 18.8448 12.768 19.3824C12.396 20.3424 11.7744 21.1104 10.7712 21.4944C10.3306 21.679 9.83914 21.7027 9.38281 21.5614C8.92649 21.4202 8.5344 21.1229 8.27521 20.7216C8.14133 20.503 8.05924 20.2568 8.03521 20.0016C8.01925 19.82 8.0664 19.6385 8.16871 19.4877C8.27102 19.3369 8.42222 19.2259 8.59681 19.1736C8.76389 19.1171 8.94435 19.1135 9.11355 19.1633C9.28274 19.2132 9.43243 19.3141 9.54217 19.4522C9.65191 19.5902 9.71635 19.7588 9.7267 19.9349C9.73705 20.111 9.69281 20.286 9.60001 20.436C9.54481 20.5248 9.47521 20.6064 9.41281 20.6904C9.89281 21.0504 10.4496 21.024 10.7976 20.5728C11.0066 20.2797 11.1685 19.9558 11.2776 19.6128C11.4815 18.9739 11.5969 18.3102 11.6208 17.64C11.5632 17.6067 11.502 17.5802 11.4384 17.5608C9.36001 17.1456 8.00881 15.9048 7.32721 13.92C7.01948 13.0916 6.90283 12.2045 6.98594 11.3247C7.06905 10.4449 7.34979 9.59529 7.80721 8.8392C8.15637 8.23604 8.62958 7.71385 9.19555 7.30716C9.76153 6.90047 10.4074 6.61854 11.0904 6.48L11.4816 6.3936C11.5056 6.3936 11.5248 6.3648 11.5656 6.3384C11.6083 5.59843 11.7967 4.87418 12.12 4.2072C12.3068 3.77816 12.5805 3.39246 12.9237 3.07441C13.267 2.75635 13.6724 2.51284 14.1144 2.3592C14.5266 2.21623 14.974 2.21051 15.3897 2.34288C15.8054 2.47526 16.1672 2.73862 16.4208 3.0936C16.5665 3.31084 16.6654 3.55604 16.7112 3.8136C16.7398 3.99335 16.7059 4.17748 16.615 4.3352C16.5242 4.49291 16.3819 4.61463 16.212 4.68C16.0462 4.75377 15.8611 4.77237 15.684 4.73305C15.5069 4.69374 15.347 4.59858 15.228 4.4616C15.106 4.3269 15.0312 4.1562 15.0147 3.97524C14.9983 3.79428 15.0411 3.61288 15.1368 3.4584C15.1968 3.3576 15.2688 3.2664 15.3336 3.1704C14.8056 2.808 14.2872 2.8704 13.9104 3.3336C13.5741 3.80091 13.3588 4.34432 13.284 4.9152C13.1952 5.3568 13.1544 5.808 13.0824 6.3096L13.6368 6.4056C14.4307 6.52046 15.1895 6.8089 15.8592 7.2504C16.0678 7.36615 16.2354 7.54367 16.339 7.75855C16.4425 7.97344 16.477 8.21513 16.4376 8.4504C16.4215 8.70124 16.4393 8.9531 16.4904 9.1992C16.5288 9.504 16.4736 9.6648 16.2792 9.7392C16.1706 9.77914 16.0507 9.77486 15.9452 9.72729C15.8397 9.67971 15.7571 9.59264 15.7152 9.4848C15.5304 9.1608 15.3768 8.82 15.1944 8.496C15.0193 8.18517 14.7781 7.91658 14.4878 7.70922C14.1975 7.50186 13.8652 7.3608 13.5144 7.296C13.3656 7.272 13.2168 7.2552 13.0656 7.2456L13.1592 16.7304C13.826 16.6351 14.4695 16.4179 15.0576 16.0896C15.4536 15.8496 15.8112 15.5448 16.188 15.2712C16.2918 15.1681 16.415 15.0866 16.5504 15.0312C16.6187 15.0205 16.6884 15.0239 16.7553 15.0412C16.8222 15.0585 16.8848 15.0894 16.9392 15.132C16.9885 15.1862 17.0218 15.2531 17.0354 15.3251C17.0489 15.3972 17.0422 15.4715 17.016 15.54Z" fill="black"/>
</g>
<defs>
<clipPath id="clip0">
<rect width="24" height="24" fill="white"/>
</clipPath>
</defs>
</svg>
