<svg width="24" height="24" viewBox="0 0 24 24" fill="none" xmlns="http://www.w3.org/2000/svg">
<path d="M12.1194 21.1463C7.05669 21.1463 2.94923 17.0388 2.94923 11.9761C2.94923 6.91342 7.05669 2.80596 12.1194 2.80596C16.2627 2.80596 19.7731 5.56417 20.8955 9.3373H23.7612C22.5671 4.01193 17.803 0.0358124 12.1194 0.0358124C5.52833 0.0358124 0.179077 5.38507 0.179077 11.9761C0.179077 18.5672 5.52833 23.9164 12.1194 23.9164C17.791 23.9164 22.5433 19.9642 23.7612 14.6627H20.8836C19.7373 18.4119 16.2507 21.1463 12.1194 21.1463Z" fill="#2FA73F"/>
<path d="M14.794 10.3761C14.794 11.4507 14.1611 12.3701 13.2417 12.8V16.394H10.9611V12.7761C10.0656 12.3463 9.4447 11.4269 9.4447 10.3642C9.4447 8.88357 10.6387 7.68954 12.1193 7.68954C13.588 7.70148 14.794 8.89551 14.794 10.3761Z" fill="#2FA73F"/>
</svg>
