<svg width="24" height="24" viewBox="0 0 24 24" fill="none" xmlns="http://www.w3.org/2000/svg">
<path d="M12 0C18.628 0 24 5.37305 24 12C24 18.628 18.628 24 12 24C5.37305 24 0 18.6275 0 12C0 5.37305 5.37305 0 12 0Z" fill="#F5AC37"/>
<path d="M12.442 12.8474H17.0018C17.099 12.8474 17.1449 12.8474 17.1519 12.7199C17.1891 12.2561 17.1891 11.7895 17.1519 11.3251C17.1519 11.2349 17.1071 11.1977 17.0093 11.1977H7.93453C7.82221 11.1977 7.79197 11.2349 7.79197 11.3402V12.6751C7.79197 12.8474 7.79197 12.8474 7.97179 12.8474H12.442ZM16.6427 9.63758C16.6556 9.60356 16.6556 9.56629 16.6427 9.53281C16.5665 9.36703 16.4763 9.20881 16.3716 9.06031C16.2139 8.80651 16.0281 8.57268 15.8164 8.36262C15.7165 8.23572 15.601 8.12178 15.4714 8.02512C14.8223 7.47269 14.0506 7.08173 13.2212 6.88517C12.8027 6.79121 12.375 6.74639 11.9462 6.75017H7.91887C7.80655 6.75017 7.79143 6.79499 7.79143 6.89273V9.55496C7.79143 9.66728 7.79143 9.69752 7.93399 9.69752H16.5887C16.5887 9.69752 16.6637 9.6824 16.6788 9.63758H16.6421H16.6427ZM16.6427 14.4074C16.5152 14.3934 16.3867 14.3934 16.2593 14.4074H7.94209C7.82977 14.4074 7.79197 14.4074 7.79197 14.5576V17.1604C7.79197 17.2803 7.79197 17.3105 7.94209 17.3105H11.7821C11.9657 17.3246 12.1493 17.3116 12.3291 17.2733C12.8864 17.2333 13.4345 17.1123 13.9572 16.9131C14.1473 16.8472 14.3309 16.7613 14.5042 16.6582H14.5566C15.4568 16.19 16.188 15.4545 16.6491 14.5516C16.6491 14.5516 16.7015 14.4382 16.6427 14.4085V14.4074ZM6.28481 18.66V18.6152V16.8677V16.2753V14.5127C6.28481 14.415 6.28481 14.4004 6.16493 14.4004H4.53735C4.44717 14.4004 4.40991 14.4004 4.40991 14.2805V12.8555H6.14981C6.24701 12.8555 6.28481 12.8555 6.28481 12.728V11.3181C6.28481 11.2279 6.28481 11.2058 6.16493 11.2058H4.53735C4.44717 11.2058 4.40991 11.2058 4.40991 11.0859V9.7661C4.40991 9.68348 4.40991 9.66134 4.52979 9.66134H6.14225C6.25457 9.66134 6.28481 9.66134 6.28481 9.51877V5.47629C6.28481 5.35641 6.28481 5.32617 6.43493 5.32617H12.0596C12.4679 5.34237 12.8734 5.38719 13.2746 5.46117C14.1014 5.61399 14.8957 5.90938 15.622 6.33112C16.1037 6.61462 16.5471 6.95699 16.9418 7.35119C17.2388 7.65954 17.5067 7.99326 17.7443 8.34858C17.9802 8.70877 18.1763 9.09379 18.3302 9.49609C18.3491 9.60086 18.4495 9.6716 18.5543 9.65378H19.8967C20.069 9.65378 20.069 9.65378 20.0765 9.81902V11.0491C20.0765 11.169 20.0317 11.1993 19.9113 11.1993H18.8761C18.7714 11.1993 18.7411 11.1993 18.7487 11.3343C18.7897 11.7911 18.7897 12.2496 18.7487 12.7064C18.7487 12.8339 18.7487 12.849 18.8918 12.849H20.076C20.1284 12.9165 20.076 12.984 20.076 13.052C20.0836 13.139 20.0836 13.227 20.076 13.3139V14.2217C20.076 14.3491 20.0387 14.3869 19.9259 14.3869H18.5084C18.4096 14.368 18.3134 14.4312 18.2908 14.5295C17.9532 15.407 17.4132 16.1938 16.7156 16.8245C16.4607 17.054 16.1928 17.27 15.9131 17.4693C15.6129 17.6421 15.3207 17.8219 15.0129 17.9645C14.4465 18.2193 13.8524 18.4073 13.2428 18.5266C12.6639 18.6303 12.0769 18.6773 11.4878 18.6692H6.28265V18.6616L6.28481 18.66Z" fill="#FEFEFD"/>
</svg>
