<svg width="24" height="24" viewBox="0 0 24 24" fill="none" xmlns="http://www.w3.org/2000/svg">
<path d="M12 24C18.6274 24 24 18.6274 24 12C24 5.37258 18.6274 0 12 0C5.37258 0 0 5.37258 0 12C0 18.6274 5.37258 24 12 24Z" fill="#2D9CDB"/>
<path d="M15.0405 4.2045C15.3345 4.2045 15.5715 4.2945 15.7507 4.47375C15.93 4.653 16.0192 4.88925 16.0192 5.184V13.9395C16.0192 14.937 15.783 15.8468 15.309 16.6658C14.8572 17.4631 14.2012 18.1258 13.4085 18.5858C12.615 19.0463 11.7255 19.2765 10.7392 19.2765C9.75374 19.2765 8.85149 19.0463 8.03174 18.5858C7.23902 18.1258 6.58305 17.4631 6.13124 16.6658C5.67074 15.8468 5.44049 14.9378 5.44049 13.9395C5.44049 12.9413 5.65124 12.0383 6.07424 11.232C6.50924 10.413 7.09799 9.7725 7.84049 9.312C8.59574 8.8515 9.43424 8.6205 10.3552 8.6205C11.0644 8.6153 11.7657 8.76965 12.4072 9.07214C13.0486 9.37463 13.6138 9.81751 14.061 10.368V5.184C14.061 4.88925 14.151 4.653 14.3302 4.47375C14.5222 4.29384 14.7775 4.19707 15.0405 4.2045ZM10.7392 17.5485C11.3797 17.5485 11.9557 17.3955 12.4672 17.088C12.9879 16.7727 13.4129 16.3216 13.6965 15.783C13.9905 15.2318 14.1382 14.6175 14.1382 13.9395C14.1382 13.2615 13.9905 12.6525 13.6957 12.1155C13.4155 11.5795 12.9896 11.1334 12.4672 10.8285C11.9557 10.509 11.3797 10.3485 10.7392 10.3485C10.0995 10.3485 9.51674 10.509 8.99174 10.8285C8.47514 11.1407 8.05109 11.5849 7.76324 12.1155C7.46924 12.6525 7.32224 13.2608 7.32224 13.9395C7.32224 14.6183 7.46924 15.2318 7.76324 15.7823C8.0544 16.3156 8.47767 16.7652 8.99249 17.088C9.51749 17.3955 10.0995 17.5485 10.74 17.5485H10.7392Z" fill="white"/>
</svg>
