<svg width="24" height="24" viewBox="0 0 24 24" fill="none" xmlns="http://www.w3.org/2000/svg">
<path d="M10.56 14.4965H16.4838C18.6847 14.4965 20.4876 12.717 20.4876 10.4927C20.4876 8.26832 18.7081 6.51225 16.5072 6.51225H14.6107L10.56 3.00012H16.4838C20.6281 2.97671 23.9998 6.32494 23.9998 10.4693C24.0232 13.5365 22.15 16.2994 19.2935 17.4467L23.9763 21.4973H18.6379L10.56 14.4965Z" fill="url(#paint0_linear)"/>
<path d="M13.4634 10.0248H7.53959C5.33866 10.0248 3.53576 11.8043 3.53576 14.0286C3.53576 16.253 5.31524 18.0324 7.53959 18.0324H9.43614L13.4634 21.5446H7.53959C3.39528 21.5446 0.0236312 18.1963 0.000217013 14.0754C-0.0231972 10.9848 1.84994 8.22189 4.70647 7.07459L0.0236312 3.00052H5.38549L13.4634 10.0248Z" fill="#4971FA"/>
<path d="M13.4634 10.0248H7.53959C5.33866 10.0248 3.53576 11.8043 3.53576 14.0286C3.53576 16.253 5.31524 18.0324 7.53959 18.0324H9.43614L13.4634 21.5446H7.53959C3.39528 21.5446 0.0236312 18.1963 0.000217013 14.0754C-0.0231972 10.9848 1.84994 8.22189 4.70647 7.07459L0.0236312 3.00052H5.38549L13.4634 10.0248Z" fill="url(#paint1_linear)"/>
<defs>
<linearGradient id="paint0_linear" x1="10.5714" y1="12.2499" x2="23.9947" y2="12.2499" gradientUnits="userSpaceOnUse">
<stop stop-color="#62D0C9"/>
<stop offset="1" stop-color="#7DE2AC"/>
</linearGradient>
<linearGradient id="paint1_linear" x1="0.0421753" y1="12.261" x2="13.4656" y2="12.261" gradientUnits="userSpaceOnUse">
<stop stop-color="#3268FB"/>
<stop offset="1" stop-color="#4795FA"/>
</linearGradient>
</defs>
</svg>
