<svg width="24" height="24" viewBox="0 0 24 24" fill="none" xmlns="http://www.w3.org/2000/svg">
<path fill-rule="evenodd" clip-rule="evenodd" d="M16.7162 8.47524C17.7879 8.10917 18.7276 8.18235 18.795 8.18819L18.8511 8.19526H23.9494V5.7781H18.9822C18.6503 5.75039 17.4555 5.69449 16.051 6.14919C14.789 6.55778 13.1613 7.45279 12.0425 9.41106C12.5871 10.1858 13.0735 11.0752 13.4961 12.0696C13.5815 11.8684 13.6645 11.6631 13.7447 11.4535C14.318 9.95487 15.3177 8.95288 16.7162 8.47524Z" fill="#1BB168"/>
<path fill-rule="evenodd" clip-rule="evenodd" d="M10.8269 12.0696C10.0143 13.6365 9.00409 14.7798 7.8587 15.4149C6.83843 15.9807 6.04991 15.9656 5.93999 15.9602L5.90444 15.9548H2.5182V18.3649H2.45923V18.372H5.77736C5.82919 18.3752 5.90125 18.3781 5.99141 18.3781C6.49565 18.3781 7.56616 18.2865 8.82619 17.6383C9.77003 17.1527 10.6393 16.4487 11.41 15.5458C11.6288 15.2895 11.8396 15.0167 12.0425 14.7281C11.8387 14.3716 11.6518 13.9799 11.4871 13.5494C11.285 13.0211 11.0643 12.5275 10.8269 12.0696Z" fill="#1BB168"/>
<path fill-rule="evenodd" clip-rule="evenodd" d="M11.41 8.59334C10.6393 7.69048 9.77001 6.98652 8.82616 6.50098C7.3407 5.73669 6.1187 5.74607 5.7774 5.76724H2.51817V5.76458H0.0505371V18.3649H2.51817V8.1844H5.82139L5.86502 8.18917L5.93873 8.17897C6.04393 8.17378 6.83458 8.15645 7.85867 8.72431C9.00407 9.35945 10.0143 10.5027 10.8268 12.0696C11.0643 12.5275 11.285 13.0212 11.4871 13.5494C11.6518 13.98 11.8387 14.3716 12.0425 14.7281C13.1613 16.6864 14.789 17.5815 16.051 17.99C17.0551 18.3152 17.9519 18.3792 18.503 18.3792C18.7227 18.3792 18.8875 18.369 18.9821 18.3611H23.9494V15.9439H18.8586L18.7914 15.9515C18.7826 15.9525 17.86 16.0351 16.7955 15.6904C15.3555 15.2242 14.329 14.2133 13.7446 12.6857C13.6645 12.4761 13.5815 12.2708 13.4961 12.0696C13.0735 11.0752 12.5871 10.1859 12.0425 9.41111C11.8395 9.12252 11.6287 8.84962 11.41 8.59334Z" fill="#008A6E"/>
</svg>
