<svg width="24" height="24" viewBox="0 0 24 24" fill="none" xmlns="http://www.w3.org/2000/svg">
<path d="M21.4088 5.64955C20.9203 4.18406 20.1982 3.03716 19.2 2.23008C18.2018 1.423 16.9699 0.892029 15.5044 0.594684C14.0177 0.318578 12.3186 0.169905 10.3858 0.169905L1.8053 0.148666V23.8513H10.3858C12.3398 23.8513 14.0389 23.6389 15.5044 23.2354C16.9911 22.8319 18.2018 22.1522 19.2 21.1965C20.177 20.2407 20.9203 18.9664 21.4088 17.3734C21.8973 15.7805 22.1522 13.7841 22.1522 11.3841C22.1522 9.02654 21.8973 7.11504 21.4088 5.64955Z" fill="#B79163"/>
<path d="M1.8053 12.085V23.8513H10.3646C12.2973 23.8513 13.9964 23.6602 15.4832 23.2354C16.9487 22.8319 18.1805 22.1522 19.1788 21.1965C20.177 20.2407 20.8991 18.9664 21.3876 17.3734C21.8336 15.9504 22.0672 14.1876 22.1097 12.085H1.8053Z" fill="#8E6533"/>
<path d="M15.9079 7.62477L15.4832 6.3292C15.377 5.9469 14.6548 5.16106 10.7256 5.16106C6.79643 5.16106 6.09555 5.9469 5.96811 6.3292L5.54333 7.62477C5.52209 7.66725 5.52209 7.70973 5.52209 7.75221C5.52209 8.19822 5.86192 8.53805 6.41413 8.79291L7.26369 17.777V17.8195C7.39112 19.0088 10.3646 19.0513 10.7256 19.0513C11.0867 19.0513 14.0601 19.0088 14.1876 17.8195V17.777L15.0371 8.79291C15.5681 8.53805 15.9079 8.19822 15.9079 7.75221C15.9292 7.73097 15.9079 7.66725 15.9079 7.62477ZM10.7256 6.03185C12.6371 6.03185 13.8902 6.26548 14.4212 6.45663C13.8902 6.64778 12.6584 6.88141 10.7256 6.88141C8.79289 6.88141 7.56103 6.64778 7.03006 6.45663C7.56103 6.26548 8.81413 6.03185 10.7256 6.03185ZM13.338 17.692C13.1681 17.8619 12.2548 18.1805 10.7256 18.1805C9.21767 18.1805 8.28316 17.8619 8.11325 17.692L7.87962 15.2283C8.87785 15.5469 10.3009 15.5681 10.7256 15.5681C11.1292 15.5681 12.5522 15.5469 13.5717 15.2283L13.338 17.692ZM13.9964 10.8106C13.5292 11.0018 12.4035 11.2354 10.7469 11.2354C9.09024 11.2354 7.96457 11.0018 7.49732 10.8106L7.3274 9.1115C8.41059 9.38761 9.74864 9.4938 10.7469 9.4938C11.7451 9.4938 13.0832 9.38761 14.1663 9.1115L13.9964 10.8106ZM10.7256 8.64424C8.17696 8.64424 6.58404 8.09203 6.41413 7.79468L6.60528 7.19999C7.22121 7.49734 8.41059 7.77345 10.7256 7.77345C13.0407 7.77345 14.2301 7.49734 14.846 7.19999L15.0371 7.79468C14.8247 8.09203 13.2531 8.64424 10.7256 8.64424Z" fill="white"/>
</svg>
