<svg width="24" height="24" viewBox="0 0 24 24" fill="none" xmlns="http://www.w3.org/2000/svg">
<path d="M12 24C18.6274 24 24 18.6274 24 12C24 5.37258 18.6274 0 12 0C5.37258 0 0 5.37258 0 12C0 18.6274 5.37258 24 12 24Z" fill="#666666"/>
<path fill-rule="evenodd" clip-rule="evenodd" d="M18.8115 15.8625C18.6572 16.1201 18.4082 16.307 18.1178 16.3834C17.8274 16.4598 17.5186 16.4195 17.2575 16.2712L13.6733 14.2388V12.9487L14.8118 12.3038L18.3953 14.3355C18.9398 14.6438 19.1258 15.3278 18.8115 15.8617V15.8625ZM13.1378 18.6068C13.1378 19.224 12.6285 19.7242 12 19.7242C11.3715 19.7242 10.8623 19.224 10.8623 18.6068V14.5425L12 13.8975L13.1378 14.5425V18.6068ZM6.74253 16.2712C6.48133 16.4195 6.17251 16.4596 5.8821 16.3831C5.5917 16.3066 5.34276 16.1194 5.18853 15.8617C5.11408 15.7346 5.06576 15.5939 5.0464 15.4478C5.02705 15.3017 5.03705 15.1533 5.07582 15.0111C5.11459 14.869 5.18134 14.736 5.27217 14.62C5.36301 14.504 5.47608 14.4072 5.60478 14.3355L9.18828 12.303L10.3268 12.9487V14.2388L6.74253 16.2712ZM5.60478 9.6645C5.47608 9.59275 5.36301 9.49604 5.27217 9.38002C5.18134 9.26401 5.11459 9.13103 5.07582 8.98887C5.03705 8.84672 5.02705 8.69826 5.0464 8.5522C5.06576 8.40613 5.11408 8.2654 5.18853 8.13825C5.34276 7.88056 5.5917 7.69344 5.8821 7.61692C6.17251 7.54039 6.48133 7.58053 6.74253 7.72875L10.3268 9.76125V11.0512L9.18828 11.6962L5.60478 9.6645ZM10.8623 5.39325C10.8623 4.776 11.3723 4.27575 12 4.27575C12.6285 4.27575 13.1378 4.776 13.1378 5.39325V9.45675L12 10.1025L10.8623 9.4575V5.39325ZM13.6733 11.6588L14.2763 12L13.6733 12.3412V11.6588ZM12.5355 10.4062L13.1378 10.0642V10.7475L12.5355 10.4062ZM10.8623 10.7475V10.065L11.4645 10.4062L10.8623 10.7475ZM10.3268 12.3412L9.72378 12L10.3268 11.6588V12.3412ZM11.4645 13.5938L10.8623 13.9357V13.2525L11.4645 13.5938ZM13.1378 13.2525V13.935L12.5355 13.5938L13.1378 13.2525ZM12 13.29L10.8623 12.645V11.355L12 10.71L13.1378 11.355V12.645L12 13.29ZM17.2575 7.72875C17.5187 7.58053 17.8275 7.54039 18.1179 7.61692C18.4084 7.69344 18.6573 7.88056 18.8115 8.13825C19.1265 8.67225 18.939 9.35625 18.3953 9.6645L14.8118 11.697L13.6733 11.0512V9.76125L17.2575 7.72875ZM18.663 13.8802L15.3473 12L18.663 10.1198C18.8524 10.0143 19.0188 9.87216 19.1525 9.70155C19.2862 9.53095 19.3845 9.33536 19.4416 9.12626C19.4986 8.91717 19.5134 8.69877 19.4849 8.4839C19.4564 8.26903 19.3853 8.06202 19.2758 7.875C18.8138 7.089 17.79 6.81975 16.9898 7.2735L13.6733 9.15375V5.3925C13.6733 4.48575 12.924 3.75 12 3.75C11.076 3.75 10.3268 4.48575 10.3268 5.39325V9.15375L7.01028 7.2735C6.21003 6.81975 5.18628 7.089 4.72503 7.875C4.61546 8.06202 4.54436 8.26903 4.51589 8.4839C4.48742 8.69877 4.50215 8.91717 4.55923 9.12626C4.61631 9.33536 4.71458 9.53095 4.84827 9.70155C4.98196 9.87216 5.14839 10.0143 5.33778 10.1198L8.65278 12L5.33778 13.8802C5.14833 13.9856 4.98183 14.1277 4.84806 14.2983C4.71429 14.4689 4.61595 14.6645 4.5588 14.8736C4.50165 15.0827 4.48685 15.3011 4.51527 15.516C4.54368 15.7309 4.61474 15.9379 4.72428 16.125C5.18628 16.911 6.21003 17.1803 7.01028 16.7265L10.3268 14.8463V18.6068C10.3268 19.5142 11.076 20.25 12 20.25C12.924 20.25 13.6733 19.5142 13.6733 18.6068V14.8463L16.9898 16.7265C17.79 17.1803 18.8138 16.911 19.2758 16.125C19.3853 15.938 19.4564 15.731 19.4849 15.5161C19.5134 15.3012 19.4986 15.0828 19.4416 14.8737C19.3845 14.6646 19.2862 14.469 19.1525 14.2984C19.0188 14.1278 18.8524 13.9857 18.663 13.8802Z" fill="white"/>
</svg>
