<svg width="24" height="24" viewBox="0 0 24 24" fill="none" xmlns="http://www.w3.org/2000/svg">
<path fill-rule="evenodd" clip-rule="evenodd" d="M12 0C18.6333 0 24 5.36667 24 12C24 18.5667 18.7333 23.9 12.2 24H12V13.9L10.4667 15.4333L10.2667 19.2333L11.8667 24C10.9333 24 10.0333 23.8667 9.13333 23.6333L8.9 23.5667L8.13333 21.2667L5.96667 22.3667C5.16667 21.9 4.43333 21.3667 3.76667 20.7333L3.6 20.5667L7.63333 18.5333L7.76667 16.2333L5.46667 16.3667L3.43333 20.4C2.8 19.7333 2.23333 19 1.76667 18.2333L1.63333 18.0333L2.73333 15.8667L0.433333 15.1C0.2 14.2 0.0666667 13.3 0.0333333 12.4V12.1667L4.83333 13.7667L8.63333 13.5667L10.1667 12.0333L8.63333 10.5L4.83333 10.3L0 11.8667C0 10.9333 0.133333 10 0.333333 9.13333L0.4 8.9L2.7 8.13333L1.6 5.96667C2.06667 5.16667 2.6 4.43333 3.23333 3.76667L3.4 3.6L5.43333 7.63333L7.73333 7.76667L7.6 5.46667L3.56667 3.43333C4.23333 2.8 4.96667 2.23333 5.73333 1.76667L5.93333 1.63333L8.1 2.73333L8.86667 0.433333C9.76667 0.2 10.6667 0.0666667 11.5667 0.0333333H11.8L10.2 4.8L10.4 8.6L11.9333 10.1333C12 10.1 12 0 12 0ZM14.6667 3.06667V20.9667C18.5 19.8 21.3333 16.2333 21.3333 12C21.3333 7.83333 18.5667 4.3 14.8 3.1L14.6667 3.06667Z" fill="#FF00AF"/>
</svg>
