<svg width="24" height="24" viewBox="0 0 24 24" fill="none" xmlns="http://www.w3.org/2000/svg">
<g clip-path="url(#clip0)">
<path d="M23.8409 9.66749C23.6732 8.88461 23.3736 8.13311 22.9539 7.44249C22.093 6.06749 20.2148 4.06749 17.867 2.49249C17.867 2.49249 16.093 1.39249 15.2583 1.01749C12.2061 -0.332507 8.7887 -0.607507 5.86696 1.86749C0.96261 6.04249 -1.48956 11.8675 0.96261 17.6675C1.01478 17.7925 2.37131 21.3425 10.5104 23.7175C14.0844 23.8175 16.1713 23.6175 18.467 22.3425C21.467 20.6925 23.2148 17.6925 23.8409 14.6425C24.0235 13.7175 24.0496 10.5925 23.8409 9.66749Z" fill="#04FFCC"/>
<path d="M14.3452 1.4425V7.0175L7.61472 6.6175L4.84951 9.9675L4.51038 16.2925L6.80603 18.6425L10.2495 20.2925L14.7626 20.7675L19.6669 19.5675V7.9425L18.7278 3.1175C18.7278 3.1175 16.093 1.1425 14.3712 0.667496" fill="#7DF8FB"/>
<path d="M22.2235 15.2675C21.2843 15.2175 21.8061 13.7925 21.3887 12.1675C20.893 10.3675 21.6235 9.11749 22.5887 9.16749C23.042 9.2352 23.4715 9.40672 23.8409 9.66749C23.6732 8.88461 23.3736 8.13311 22.9539 7.44249C22.093 6.06749 20.2148 4.06749 17.867 2.49249V17.5675C17.8677 18.2806 17.3518 18.8987 16.6257 19.0547C15.8996 19.2106 15.1578 18.8627 14.8409 18.2175C12.2655 19.7472 8.91323 19.2656 6.91906 17.0795C4.92489 14.8934 4.87493 11.6453 6.80099 9.40378C8.72705 7.16229 12.063 6.58624 14.6844 8.04249V2.19249C14.6756 1.73682 14.8875 1.30294 15.2583 1.01749C12.2061 -0.332507 8.7887 -0.607507 5.86696 1.86749C0.96261 6.04249 -1.48956 11.8675 0.96261 17.6675C1.01478 17.7925 1.06696 17.9175 1.11913 18.0175C1.19083 17.8772 1.28799 17.7502 1.40609 17.6425C2.68435 16.3925 4.09305 18.9425 7.09305 20.4175C8.99739 21.3425 10.093 22.5675 10.5104 23.7175C13.3017 24.0425 16.1713 23.6175 18.467 22.3425C21.467 20.6925 23.2148 17.6925 23.8409 14.6425C23.3903 15.019 22.8206 15.2392 22.2235 15.2675ZM11.9974 3.41749C12.7017 3.39249 13.3539 4.19249 13.38 4.56749C13.4061 4.94249 12.78 4.79249 12.1017 5.01749C11.3452 5.26749 10.7974 5.04249 10.7713 4.66749C10.7452 4.29249 11.267 3.44249 11.9974 3.41749Z" fill="#2C398F"/>
<path d="M10.4583 15.3675C11.9713 16.1925 13.7974 15.8675 14.1365 14.0175C14.3191 12.9425 14.2148 11.2675 13.2235 10.7425C9.93652 8.9425 7.1713 13.5675 10.4583 15.3675Z" fill="#2C398F"/>
</g>
<defs>
<clipPath id="clip0">
<rect width="24" height="24" fill="white"/>
</clipPath>
</defs>
</svg>
