<svg width="24" height="24" viewBox="0 0 24 24" fill="none" xmlns="http://www.w3.org/2000/svg">
<path d="M12 24C18.6274 24 24 18.6274 24 12C24 5.37258 18.6274 0 12 0C5.37258 0 0 5.37258 0 12C0 18.6274 5.37258 24 12 24Z" fill="#786DBC"/>
<path d="M11.9483 8.07824L10.7266 6.85349C10.5621 6.69615 10.4668 6.4799 10.4617 6.25233C10.4567 6.02475 10.5422 5.80449 10.6996 5.63999C10.8569 5.47549 11.0731 5.38023 11.3007 5.37516C11.5283 5.3701 11.7486 5.45565 11.9131 5.61299L11.9416 5.64149L14.6686 8.36849C15.0038 8.70374 15.0038 9.24599 14.6686 9.58124L11.9386 12.3082C11.7766 12.4628 11.5606 12.5478 11.3367 12.5452C11.1129 12.5426 10.8989 12.4525 10.7406 12.2942C10.5823 12.1359 10.4922 11.9219 10.4896 11.6981C10.487 11.4742 10.572 11.2582 10.7266 11.0962L12.0068 9.81599C11.1443 9.66373 10.2558 9.78033 9.4617 10.15C8.66764 10.5197 8.00643 11.1245 7.56766 11.8826C7.12889 12.6406 6.93378 13.5152 7.00877 14.3879C7.08376 15.2606 7.42523 16.0891 7.98689 16.7612C8.54856 17.4333 9.30327 17.9164 10.1487 18.1452C10.9942 18.374 11.8896 18.3373 12.7135 18.0401C13.5375 17.7429 14.2501 17.1996 14.7549 16.4838C15.2597 15.768 15.5322 14.9144 15.5356 14.0385V4.60649C15.5356 4.37913 15.6259 4.16109 15.7866 4.00032C15.9474 3.83955 16.1654 3.74924 16.3928 3.74924C16.6202 3.74924 16.8382 3.83955 16.999 4.00032C17.1597 4.16109 17.2501 4.37913 17.2501 4.60649V14.1532C17.2261 15.3644 16.8362 16.5399 16.1314 17.5252C15.4267 18.5105 14.4403 19.2594 13.3019 19.6734C12.1634 20.0874 10.9263 20.1471 9.75333 19.8447C8.58032 19.5423 7.52632 18.8919 6.72996 17.9791C5.93361 17.0663 5.43221 15.9338 5.29172 14.7306C5.15122 13.5274 5.37821 12.3098 5.94283 11.2381C6.50745 10.1664 7.38325 9.29063 8.45503 8.72609C9.52681 8.16155 10.7444 7.93465 11.9476 8.07524L11.9483 8.07824Z" fill="white"/>
</svg>
