<svg width="24" height="24" viewBox="0 0 24 24" fill="none" xmlns="http://www.w3.org/2000/svg">
<g clip-path="url(#clip0)">
<path d="M10.0162 7.30066C9.64022 7.28853 9.2764 7.38555 8.94896 7.57959C8.41536 7.90702 7.77261 8.40424 7.1905 9.13188C5.66246 11.048 5.67458 13.2188 5.69884 13.8737C5.72309 14.383 5.94139 17.1723 8.30622 19.1854C10.1496 20.7499 12.187 20.9197 12.854 20.9439C13.3391 20.9682 15.8737 21.0167 18.0081 19.0642C20.2274 17.0389 20.3365 14.3709 20.3487 13.9101C20.3729 13.522 20.385 13.0126 20.288 12.4184C20.2031 11.8848 20.0576 11.4361 19.9242 11.0844C19.5604 10.8903 19.0389 10.575 18.5296 10.0536C17.996 9.50783 17.6806 8.94997 17.4987 8.5619C17.4624 8.40424 17.4017 8.18595 17.2562 7.95553C17.0136 7.56746 16.6983 7.37342 16.5286 7.28853C16.8439 7.24002 17.5351 7.19151 18.287 7.53108C18.6872 7.71299 18.9783 7.95553 19.1723 8.13744C19.2087 8.04042 19.2693 7.83426 19.2329 7.59171C19.1966 7.30066 19.0632 7.09449 18.9904 7.0096C19.2329 7.13087 20.0819 7.57959 20.5063 8.58615C20.7852 9.26529 20.761 9.87165 20.7246 10.1627C21.0157 10.6114 21.3795 11.2784 21.6342 12.1395C21.8767 12.9399 21.9373 13.6554 21.9373 14.1769C21.9616 14.7711 22.0465 17.997 19.5725 20.6165C16.6013 23.7575 12.4901 23.3087 12.0536 23.2481C12.3082 23.3936 12.6357 23.5392 13.0238 23.6483C13.9939 23.9151 14.8307 23.7696 15.3037 23.6483C14.2729 23.9394 12.3204 24.3153 10.1132 23.6362C5.03183 22.0596 3.60081 16.384 3.50379 16.0081C3.58868 16.6508 3.72208 17.3421 3.90399 18.0697C4.18292 19.2461 4.54674 20.2769 4.91056 21.1622C4.32845 20.5316 3.5523 19.525 2.93381 18.1304C2.20616 16.4932 2.03638 15.0379 2 14.1162C2.01213 13.1097 2.16978 11.3512 3.09146 9.4472C4.40121 6.73067 6.48712 5.3239 7.39667 4.77817C7.3239 4.77817 7.22688 4.75392 7.11774 4.70541C6.89944 4.60839 6.77817 4.45073 6.72966 4.37797C7.06923 4.32946 7.49368 4.23244 7.96665 4.05053C8.43962 3.86862 8.81556 3.65033 9.09449 3.46842C8.3426 3.16524 7.48156 2.77716 6.57201 2.24356C5.69884 1.73421 4.94694 1.20061 4.34058 0.715513L5.52906 1.35826L4.61951 0.569985C5.39565 1.09146 6.37797 1.64932 7.55432 2.13441C8.36685 2.47398 9.13088 2.71652 9.81001 2.89843C9.43406 2.69227 8.98535 2.40121 8.53664 2.00101C7.78474 1.34613 7.29965 0.642749 7.00859 0.121273C7.3239 0.400202 7.65134 0.667004 7.96665 0.945932L7.14199 0C7.82112 0.667004 8.77918 1.46741 10.0404 2.15867C10.7559 2.54674 11.4351 2.8378 12.0293 3.05609C12.5508 3.14098 13.0601 3.22587 13.5816 3.31076C13.7393 3.33502 14.0182 3.40778 14.285 3.62607C14.3941 3.71096 14.479 3.80798 14.5397 3.88075C14.6124 3.97777 14.7094 4.08691 14.8186 4.19606C15.0005 4.37797 15.1703 4.5235 15.3401 4.63264L17.7898 4.59626C17.9474 4.59626 18.0566 4.74179 18.0202 4.88732C17.8989 5.37241 17.6443 6.06367 17.0258 6.6094C16.8802 6.7428 16.7226 6.85195 16.5771 6.93684C16.6741 6.80344 16.8075 6.6094 16.8924 6.3426C16.953 6.14856 16.9894 5.97878 17.0015 5.84538C16.9045 5.9424 16.7954 6.05154 16.6377 6.14856C16.4073 6.30622 16.1769 6.39111 16.0192 6.43962C16.1041 6.33047 16.189 6.18494 16.2739 6.02729C16.3588 5.86963 16.4194 5.71198 16.4679 5.57858C16.2981 5.5907 16.0556 5.61496 15.7645 5.73623C15.4492 5.8575 15.2309 6.02729 15.0975 6.14856C15.0975 6.03941 15.1218 5.90601 15.1703 5.74836C15.2067 5.63921 15.2552 5.54219 15.2916 5.46943C15.2188 5.42092 15.146 5.38454 15.0611 5.33603C14.758 5.20263 14.479 5.20263 14.2971 5.21476C14.1152 5.21476 13.6301 5.25114 13.1572 5.5907C12.9874 5.71198 12.854 5.84538 12.7448 5.97878C12.5144 6.26983 12.5265 6.69429 12.7812 6.97322V6.98535C12.8904 7.09449 13.0116 7.17938 13.1208 7.22789C13.4967 7.4098 13.9333 7.37342 14.2971 7.17938C14.3092 7.16726 14.3214 7.16726 14.3335 7.15513C14.479 7.07024 14.5882 6.97322 14.6609 6.88833C14.6731 6.97322 14.6852 7.143 14.6246 7.34917C14.576 7.51895 14.4912 7.64022 14.4305 7.70086C14.576 7.72511 14.7458 7.73724 14.9399 7.73724C15.2794 7.72511 15.5462 7.64022 15.7281 7.56746C15.6069 7.83426 15.3401 8.35573 14.7701 8.79232C14.3335 9.13188 13.8969 9.28954 13.6301 9.35018C13.7271 9.20465 13.8363 8.99848 13.909 8.73168C13.9333 8.65892 13.9454 8.58615 13.9576 8.52552C13.9939 8.34361 13.9212 8.1617 13.7756 8.04042C13.6059 7.8949 13.424 7.88277 13.3633 7.87064H12.3567C12.0051 7.87064 11.6655 7.91915 11.3259 8.01617C11.144 8.06468 10.95 8.11319 10.7438 8.14957C10.2345 8.24659 9.77362 8.2951 9.38555 8.30723C9.66448 8.25872 10.1496 8.13744 10.6104 7.77362C10.7802 7.64022 10.9136 7.49469 11.0106 7.37342L10.0162 7.30066Z" fill="#EFB13B"/>
</g>
<defs>
<clipPath id="clip0">
<rect width="24" height="24" fill="white"/>
</clipPath>
</defs>
</svg>
