<svg width="24" height="24" viewBox="0 0 24 24" fill="none" xmlns="http://www.w3.org/2000/svg">
<path d="M12 24C18.6274 24 24 18.6274 24 12C24 5.37258 18.6274 0 12 0C5.37258 0 0 5.37258 0 12C0 18.6274 5.37258 24 12 24Z" fill="#74D269"/>
<path d="M18.7222 10.884H18.7372L18.75 14.6085L10.3672 19.5L8.12325 18.2385V18.24L8.109 18.231L6 16.8787V7.113L8.30475 5.75325L8.30925 5.7555L10.344 4.5L18.7065 9.42225L18.7222 10.884ZM16.266 13.218L14.5118 12.2137L8.6565 15.6593L10.3755 16.6815L16.266 13.218ZM14.1165 11.988L10.5045 9.9195L10.4887 14.1803L14.1165 11.988ZM10.506 9.4635L16.3125 12.8617V10.833L10.5135 7.44675L10.506 9.4635ZM8.115 17.6775L8.1375 15.6427L8.124 15.651V8.472L6.36375 7.422V16.632L8.115 17.6775ZM8.427 15.4268L10.1858 14.3632V7.422L8.427 8.47275V15.4268ZM10.5877 16.95L10.5525 19.077L18.3795 14.475L18.402 12.36L10.5877 16.95ZM16.4325 10.512L18.2543 9.4725L10.413 4.89375L8.6085 5.93775L16.4325 10.512Z" fill="white"/>
</svg>
