<svg width="24" height="24" viewBox="0 0 24 24" fill="none" xmlns="http://www.w3.org/2000/svg">
<g clip-path="url(#clip0)">
<path d="M0 0H23.8234V24H0V0Z" fill="#121747"/>
<path d="M14.0928 19.2356C14.0928 20.4375 13.1184 21.4119 11.9165 21.4119C10.7146 21.4119 9.74023 20.4375 9.74023 19.2356V4.7703C9.74023 3.56838 10.7146 2.59398 11.9165 2.59398C13.1184 2.59398 14.0928 3.56838 14.0928 4.7703" fill="white"/>
<path d="M21.4233 13.4966C21.4233 14.6986 20.4489 15.673 19.247 15.673C18.0451 15.673 17.0707 14.6986 17.0707 13.4966V8.00736C17.0707 6.80544 18.0451 5.83104 19.247 5.83104C20.4489 5.83104 21.4233 6.80544 21.4233 8.00736" fill="#52DEB8"/>
<path d="M6.76508 19.2422C6.78524 20.4403 5.83004 21.4271 4.63196 21.4463C3.43388 21.4665 2.447 20.5113 2.4278 19.3132C2.4278 19.2892 2.4278 19.2652 2.4278 19.2422V15.9897C2.40764 14.7917 3.36284 13.8048 4.56092 13.7856C5.759 13.7664 6.74588 14.7206 6.76508 15.9187C6.76508 15.9427 6.76508 15.9667 6.76508 15.9897" fill="white"/>
</g>
<defs>
<clipPath id="clip0">
<rect width="23.8234" height="24" fill="white"/>
</clipPath>
</defs>
</svg>
