<svg xmlns="http://www.w3.org/2000/svg" viewBox="0 0 44 44">
<path class="letter" d="M22.2 13.9c-3.8 0-6.8 2.5-7.6 6.1h-3.3v2.6h3.1c.4 4.1 3.7 7.1 7.8 7.1 3.1 0 5.7-1.2 6.8-3.3l-2.8-1.8c-.7 1.2-2.3 1.9-4 1.9-2.4 0-4.1-1.5-4.5-3.9h14l.9-2.6h-3.2c-.5-3.5-3.5-6.1-7.2-6.1zM17.9 20c.6-2 2-3.2 4.1-3.2s3.6 1.3 3.8 3.2h-7.9z" fill="#d9f6ef"></path>
<path class="circle" d="M22 39.4V43C10.4 43 1 33.6 1 22h3.6c0 9.6 7.8 17.4 17.4 17.4zM22 1v3.6c9.6 0 17.4 7.8 17.4 17.4H43c0-11.6-9.4-21-21-21z" fill="#d9f6ef"></path>
</svg>
