<svg width="24" height="24" viewBox="0 0 24 24" fill="none" xmlns="http://www.w3.org/2000/svg">
<path fill-rule="evenodd" clip-rule="evenodd" d="M24 12C24 18.6274 18.6274 24 12 24C5.37255 24 0 18.6274 0 12C0 5.37255 5.37255 0 12 0C18.6274 0 24 5.37255 24 12Z" fill="#127A51"/>
<path fill-rule="evenodd" clip-rule="evenodd" d="M6.83061 13.4554C6.83061 13.1785 7.05589 12.9532 7.33289 12.9532C7.60982 12.9532 7.83516 13.1785 7.83516 13.4554C7.83516 13.7324 7.60982 13.9577 7.33289 13.9577C7.05589 13.9577 6.83061 13.7324 6.83061 13.4554ZM3.41883 13.0418C3.41883 12.7648 3.64418 12.5395 3.92111 12.5395C4.19804 12.5395 4.42339 12.7648 4.42339 13.0418C4.42339 13.3187 4.19804 13.5441 3.92111 13.5441C3.64418 13.5441 3.41883 13.3187 3.41883 13.0418ZM4.52979 10.7663C4.53661 10.7602 4.54333 10.754 4.55005 10.7478L4.5513 10.7493C4.54439 10.7558 4.53699 10.7605 4.52979 10.7663ZM3.41883 10.0655C3.41883 9.78855 3.64418 9.5632 3.92111 9.5632C4.19804 9.5632 4.42339 9.78855 4.42339 10.0655C4.42339 10.3424 4.19804 10.5678 3.92111 10.5678C3.64418 10.5678 3.41883 10.3424 3.41883 10.0655ZM5.86126 8.69085C5.86126 8.41385 6.08661 8.18857 6.36354 8.18857C6.64047 8.18857 6.86582 8.41385 6.86582 8.69085C6.86582 8.96778 6.64047 9.19312 6.36354 9.19312C6.08661 9.19312 5.86126 8.96778 5.86126 8.69085ZM7.83808 6.3773C7.83808 6.10031 8.06343 5.87503 8.34036 5.87503C8.61729 5.87503 8.84263 6.10031 8.84263 6.3773C8.84263 6.65423 8.61729 6.87958 8.34036 6.87958C8.06343 6.87958 7.83808 6.65423 7.83808 6.3773ZM8.67947 7.23726C9.02217 7.10161 9.26562 6.76767 9.26562 6.3773C9.26562 5.86714 8.85052 5.45204 8.34036 5.45204C7.83019 5.45204 7.4151 5.86714 7.4151 6.3773C7.4151 6.85916 7.78551 7.25569 8.25649 7.29825V12.2175L6.57503 10.5087V9.59072C6.98343 9.49472 7.2888 9.12815 7.2888 8.69085C7.2888 8.18068 6.87371 7.76559 6.36354 7.76559C5.85337 7.76559 5.43828 8.18068 5.43828 8.69085C5.43828 9.12815 5.74365 9.49472 6.15205 9.59072V10.6819L6.75735 11.297H5.43755C5.35282 11.2107 5.19371 11.0493 5.03413 10.891C4.89682 10.7548 4.78577 10.6472 4.70403 10.5712C4.7021 10.5694 4.70012 10.5676 4.69819 10.5658C4.79154 10.4214 4.84637 10.2499 4.84637 10.0655C4.84637 9.55531 4.43128 9.14022 3.92111 9.14022C3.41094 9.14022 2.99585 9.55531 2.99585 10.0655C2.99585 10.5756 3.41094 10.9907 3.92111 10.9907C4.09375 10.9907 4.25492 10.9423 4.39335 10.8597C4.56029 11.0134 4.89742 11.3489 5.19722 11.6562L5.25954 11.72H7.17357L10.9265 15.534V16.7165L8.10579 13.9626C8.20179 13.8168 8.25808 13.6427 8.25808 13.4554C8.25808 12.9452 7.84305 12.5302 7.33289 12.5302C6.82272 12.5302 6.40763 12.9452 6.40763 13.4554C6.40763 13.9656 6.82272 14.3806 7.33289 14.3806C7.50268 14.3806 7.66146 14.3338 7.79844 14.2537L9.12944 15.5531H6.70591L4.68712 13.5601C4.78756 13.4121 4.84637 13.2337 4.84637 13.0418C4.84637 12.5316 4.43128 12.1165 3.92111 12.1165C3.41094 12.1165 2.99585 12.5316 2.99585 13.0418C2.99585 13.552 3.41094 13.967 3.92111 13.967C4.08632 13.967 4.24113 13.923 4.37552 13.8468L6.53234 15.9761H9.56263L10.9265 17.3076V18.2273L10.9033 18.2033L9.04438 20.0009L9.33841 20.3049L10.9265 18.7691V20.6023H11.3494V15.3608L8.67947 12.6474V7.23726Z" fill="#FFFFFE"/>
<path fill-rule="evenodd" clip-rule="evenodd" d="M9.40278 8.69085C9.40278 8.41385 9.62812 8.18857 9.90505 8.18857C10.182 8.18857 10.4073 8.41385 10.4073 8.69085C10.4073 8.96778 10.182 9.19312 9.90505 9.19312C9.62812 9.19312 9.40278 8.96778 9.40278 8.69085ZM10.7754 5.53551C10.7754 5.25858 11.0006 5.03323 11.2776 5.03323C11.5546 5.03323 11.7798 5.25858 11.7798 5.53551C11.7798 5.8125 11.5546 6.03779 11.2776 6.03779C11.0006 6.03779 10.7754 5.8125 10.7754 5.53551ZM12.6969 8.02992C12.6969 7.75299 12.9223 7.52771 13.1992 7.52771C13.4761 7.52771 13.7015 7.75299 13.7015 8.02992C13.7015 8.30691 13.4761 8.53219 13.1992 8.53219C12.9223 8.53219 12.6969 8.30691 12.6969 8.02992ZM14.1773 4.32291C14.1773 4.04599 14.4027 3.82064 14.6796 3.82064C14.9565 3.82064 15.1819 4.04599 15.1819 4.32291C15.1819 4.59991 14.9565 4.82519 14.6796 4.82519C14.4027 4.82519 14.1773 4.59991 14.1773 4.32291ZM14.3359 12.4338C14.3359 12.1569 14.5613 11.9315 14.8382 11.9315C15.1152 11.9315 15.3405 12.1569 15.3405 12.4338C15.3405 12.7107 15.1152 12.9361 14.8382 12.9361C14.5613 12.9361 14.3359 12.7107 14.3359 12.4338ZM15.0497 14.0684V13.3337C15.4581 13.2377 15.7634 12.8711 15.7634 12.4338C15.7634 11.9236 15.3483 11.5085 14.8382 11.5085C14.328 11.5085 13.913 11.9236 13.913 12.4338C13.913 12.8711 14.2183 13.2377 14.6268 13.3337V13.8876L12.4068 16.01V14.6627L13.4107 13.66V11.5977L14.8911 10.1546V5.22285C15.2995 5.12678 15.6049 4.76022 15.6049 4.32291C15.6049 3.81275 15.1898 3.39772 14.6796 3.39772C14.1694 3.39772 13.7543 3.81275 13.7543 4.32291C13.7543 4.76022 14.0597 5.12678 14.4681 5.22285V9.97631L13.4107 11.007V8.92985C13.8191 8.83379 14.1245 8.46729 14.1245 8.02992C14.1245 7.51975 13.7094 7.10473 13.1992 7.10473C12.6891 7.10473 12.274 7.51975 12.274 8.02992C12.274 8.46729 12.5793 8.83379 12.9877 8.92985V13.4846L12.4068 14.0649V11.1289L11.4891 10.2301V6.43544C11.8975 6.33938 12.2028 5.97281 12.2028 5.53551C12.2028 5.02534 11.7878 4.61032 11.2776 4.61032C10.7674 4.61032 10.3524 5.02534 10.3524 5.53551C10.3524 5.97281 10.6577 6.33938 11.0661 6.43544V10.4078L11.9838 11.3066V13.8306L10.1165 11.9501V9.59071C10.525 9.49471 10.8303 9.12815 10.8303 8.69085C10.8303 8.18068 10.4152 7.76559 9.90505 7.76559C9.39489 7.76559 8.97986 8.18068 8.97986 8.69085C8.97986 9.12815 9.28516 9.49471 9.69356 9.59071V12.1244L11.9838 14.4308V20.6023H12.4068V16.5953L15.0497 14.0684Z" fill="#FFFFFE"/>
<path fill-rule="evenodd" clip-rule="evenodd" d="M17.5264 7.73668C17.5264 7.45976 17.7518 7.23441 18.0287 7.23441C18.3057 7.23441 18.531 7.45976 18.531 7.73668C18.531 8.01361 18.3057 8.23896 18.0287 8.23896C17.7518 8.23896 17.5264 8.01361 17.5264 7.73668ZM19.6077 12.6453C19.8847 12.6453 20.11 12.8706 20.11 13.1476C20.11 13.4245 19.8847 13.6498 19.6077 13.6498C19.3307 13.6498 19.1055 13.4245 19.1055 13.1476C19.1055 12.8706 19.3307 12.6453 19.6077 12.6453ZM15.9932 10.0655C15.9932 9.78855 16.2185 9.5632 16.4955 9.5632C16.7724 9.5632 16.9978 9.78855 16.9978 10.0655C16.9978 10.3424 16.7724 10.5678 16.4955 10.5678C16.2185 10.5678 15.9932 10.3424 15.9932 10.0655ZM19.5766 8.5851C19.5766 8.30811 19.802 8.08283 20.0789 8.08283C20.3558 8.08283 20.5812 8.30811 20.5812 8.5851C20.5812 8.86203 20.3558 9.08738 20.0789 9.08738C19.802 9.08738 19.5766 8.86203 19.5766 8.5851ZM18.2402 11.9934L20.2904 9.96676V9.48497C20.6988 9.38897 21.0042 9.02241 21.0042 8.5851C21.0042 8.07494 20.5891 7.65984 20.0789 7.65984C19.5687 7.65984 19.1537 8.07494 19.1537 8.5851C19.1537 9.02241 19.459 9.38897 19.8674 9.48497V9.79014L18.2402 11.3986V8.63655C18.6487 8.54055 18.954 8.17399 18.954 7.73668C18.954 7.22652 18.5389 6.81142 18.0287 6.81142C17.5185 6.81142 17.1035 7.22652 17.1035 7.73668C17.1035 8.17399 17.4088 8.54055 17.8172 8.63655V12.8482L16.7051 13.9562C16.7 12.8385 16.6964 11.4455 16.7018 10.9667C17.1129 10.8726 17.4207 10.5046 17.4207 10.0655C17.4207 9.55531 17.0057 9.14022 16.4955 9.14022C15.9853 9.14022 15.5702 9.55531 15.5702 10.0655C15.5702 10.5013 15.8734 10.8666 16.2797 10.9643C16.2714 11.6033 16.2795 13.4683 16.284 14.3447L16.3153 14.3446L13.0941 17.5537V20.6023H13.5171V18.8459L15.0638 20.3066L15.3542 19.9992L13.5171 18.2641V17.7294L15.1443 16.1083H17.2005L19.2784 14.0111C19.3809 14.0503 19.4916 14.0727 19.6077 14.0727C20.1179 14.0727 20.5329 13.6577 20.5329 13.1476C20.5329 12.6374 20.1179 12.2223 19.6077 12.2223C19.0976 12.2223 18.6825 12.6374 18.6825 13.1476C18.6825 13.3865 18.7743 13.6039 18.9235 13.7682L17.0241 15.6853H15.5688L18.2402 13.0238V11.9934Z" fill="#FFFFFE"/>
</svg>
