<svg width="24" height="24" viewBox="0 0 24 24" fill="none" xmlns="http://www.w3.org/2000/svg">
<path d="M12.039 22.987C18.5459 22.987 23.8208 18.0784 23.8208 12.0234C23.8208 5.96835 18.5459 1.05976 12.039 1.05976C5.53204 1.05976 0.257141 5.96835 0.257141 12.0234C0.257141 18.0784 5.53204 22.987 12.039 22.987Z" fill="white"/>
<path d="M12 0C5.36883 0 0 5.36883 0 12C0 18.6312 5.36883 24 12 24C18.6312 24 24 18.6312 24 12C24 5.36883 18.6312 0 12 0ZM12.2416 22.3403C6.62338 22.3403 2.06493 17.7818 2.06493 12.1636C2.06493 6.54545 6.62338 1.98701 12.2416 1.98701C17.8597 1.98701 22.4182 6.54545 22.4182 12.1636C22.4182 17.7818 17.8597 22.3403 12.2416 22.3403Z" fill="#F6BE1D"/>
<path d="M12.2494 21.7402C17.5341 21.7402 21.8182 17.4561 21.8182 12.1714C21.8182 6.88669 17.5341 2.60258 12.2494 2.60258C6.96465 2.60258 2.68054 6.88669 2.68054 12.1714C2.68054 17.4561 6.96465 21.7402 12.2494 21.7402Z" fill="#F6BE1D"/>
<path d="M5.49351 17.7117C5.21299 16.013 5.68831 14.6962 5.92208 14.0728C6.7013 11.9923 8.16623 10.8 8.8987 10.2936C10.013 9.52213 11.1039 9.17927 11.8208 9.02342C11.961 8.99226 12.1091 8.95329 12.2493 8.91433C12.7792 8.75849 13.4571 8.54031 14.2364 8.25199C15.1792 7.90134 15.6857 7.71433 16.3247 7.35589C17.1896 6.87277 17.7662 6.38186 18.3117 5.91433C18.8727 5.43121 19.5896 4.7455 20.3221 3.83381C20.2208 4.51952 20.0026 5.50914 19.5195 6.61563C19.2156 7.29355 18.9428 7.91693 18.374 8.57927C17.2208 9.92732 15.6935 10.465 15.0234 10.6988C14.9844 10.7143 15.0156 10.6988 13.3636 11.2442C13.161 11.3065 12.2883 11.5949 12.0935 11.665C11.3454 11.9065 9.59999 12.5845 8.1974 14.3221C6.25714 16.7299 6.35844 19.4338 6.40519 20.104C6.08571 19.613 5.67273 18.7949 5.49351 17.7117ZM12.039 14.1819C12.974 14.0884 13.8312 14.0884 14.5714 14.1273C15.0234 14.0884 15.8649 13.9403 16.6208 13.3247C17.3844 12.7013 17.6727 11.9299 17.9065 11.3143C18.2182 10.4806 18.2883 9.7481 18.2961 9.26498C18.0467 9.50654 17.6649 9.83381 17.1506 10.1455C16.6753 10.4416 16.2857 10.5975 15.6935 10.8312C15.2727 11.0026 14.7039 11.213 14.0026 11.4156C12.6156 11.8442 11.5247 12.3351 10.7454 12.7403C9.88831 13.1767 9.22597 13.6052 8.7974 14.3845C8.68831 14.5871 8.61818 14.7585 8.57922 14.8832C9.51428 14.5871 10.6831 14.3143 12.039 14.1819ZM8.5948 16.7533C8.87532 16.7065 9.21818 16.6754 10.5818 16.8156C10.9403 16.8546 11.2753 16.8936 11.5714 16.9325C12.4753 17.0494 13.3948 16.8858 14.1896 16.426C14.4779 16.2624 14.7662 16.052 15.0389 15.7715C15.5377 15.2728 15.8026 14.7429 15.9506 14.3689C15.4987 14.4468 14.9844 14.5169 14.4156 14.5403C14.0727 14.5559 13.7454 14.5559 13.4415 14.5403C12.1948 14.4936 11.1974 14.6806 10.5351 14.852C9.42077 15.1403 8.08052 15.4832 7.41818 16.6286C7.26233 16.9014 7.17662 17.1585 7.12987 17.3299C7.71428 16.9715 8.22857 16.8156 8.5948 16.7533ZM7.46493 18.8572C7.57402 18.8416 7.68311 18.8338 7.77662 18.826C8.08052 18.8182 8.38441 18.8572 8.68052 18.9429C9.00779 19.0364 9.36623 19.1221 9.75584 19.1923C9.9896 19.2312 10.2156 19.2624 10.4338 19.2858C10.7844 19.3247 11.1351 19.3014 11.4779 19.2234C11.7039 19.1689 11.9454 19.0832 12.1948 18.9507C13.1922 18.4052 13.5506 17.4702 13.6364 17.2208C13.4805 17.3455 13.239 17.5091 12.9195 17.6338C12.4675 17.813 12.0857 17.8208 11.6883 17.8286C11.4078 17.8364 11.0416 17.8208 10.6052 17.7351C10.4727 17.7117 10.348 17.6728 10.2234 17.6416C9.02337 17.3065 7.84675 17.5014 7.16104 18.2182C6.9974 18.3897 6.78701 18.6624 6.65454 19.091C6.85714 19.0052 7.12987 18.904 7.46493 18.8572Z" fill="#FDFFFA"/>
</svg>
