<svg width="24" height="24" viewBox="0 0 24 24" fill="none" xmlns="http://www.w3.org/2000/svg">
<g clip-path="url(#clip0)">
<path d="M12 13.413L17.9999 9.94888L12 6.46411V13.413Z" fill="#2A3D58"/>
<path d="M12 13.413L5.99988 9.94888L12 6.46411V13.413Z" fill="#0F2631"/>
<path d="M17.9999 3L12 6.4641L17.9999 9.94887V3Z" fill="#0F2631"/>
<path d="M17.9999 3L24.0001 6.4641L17.9999 9.94887V3Z" fill="#2A3D58"/>
<path d="M5.99989 3L0 6.4641L5.99989 9.94887V3Z" fill="#0F2631"/>
<path d="M5.99988 3L12 6.4641L5.99988 9.94887V3Z" fill="#2A3D58"/>
<path d="M12 22.9677L17.9999 19.5036L12 16.019V22.9677Z" fill="#2A3D58"/>
<path d="M12 22.9677L5.99988 19.5036L12 16.019V22.9677Z" fill="#0F2631"/>
<path d="M17.9999 12.5548L12 16.0189L17.9999 19.5034V12.5548Z" fill="#0F2631"/>
<path d="M17.9999 12.5548L24.0001 16.0189L17.9999 19.5034V12.5548Z" fill="#2A3D58"/>
<path d="M5.99989 12.5548L0 16.0189L5.99989 19.5034V12.5548Z" fill="#0F2631"/>
<path d="M5.99988 12.5548L12 16.0189L5.99988 19.5034V12.5548Z" fill="#2A3D58"/>
</g>
<defs>
<clipPath id="clip0">
<rect width="24" height="24" fill="white"/>
</clipPath>
</defs>
</svg>
