<svg width="24" height="24" viewBox="0 0 24 24" fill="none" xmlns="http://www.w3.org/2000/svg">
<g clip-path="url(#clip0)">
<path d="M18.9717 16.7847C21.7473 16.7847 23.9974 14.5346 23.9974 11.7589C23.9974 8.98318 21.7473 6.73303 18.9717 6.73303C16.196 6.73303 13.9459 8.98318 13.9459 11.7589C13.9459 14.5346 16.196 16.7847 18.9717 16.7847Z" fill="black"/>
<path d="M12.6208 4.84679C13.9592 4.84679 15.0442 3.7618 15.0442 2.42339C15.0442 1.08497 13.9592 -2.28882e-05 12.6208 -2.28882e-05C11.2824 -2.28882e-05 10.1974 1.08497 10.1974 2.42339C10.1974 3.7618 11.2824 4.84679 12.6208 4.84679Z" fill="black"/>
<path d="M12.6208 23.5297C13.9592 23.5297 15.0442 22.4447 15.0442 21.1063C15.0442 19.7678 13.9592 18.6828 12.6208 18.6828C11.2824 18.6828 10.1974 19.7678 10.1974 21.1063C10.1974 22.4447 11.2824 23.5297 12.6208 23.5297Z" fill="black"/>
<path d="M11.5106 15.3879C11.6538 15.4357 11.809 15.4596 11.9642 15.4596C12.7999 15.4596 13.4803 14.7791 13.4803 13.9435C13.4803 13.1078 12.7999 12.4273 11.9642 12.4273C11.427 12.4273 10.9614 12.7019 10.6868 13.1197V13.1317C10.6391 13.1914 10.6033 13.263 10.5794 13.3346C8.9081 16.2833 5.55355 14.3135 5.55355 14.3135C5.00441 13.9912 4.3717 13.8002 3.6793 13.8002C1.66179 13.8002 0.0263007 15.4357 0.0263007 17.4532C0.0263007 19.4707 1.66179 21.1062 3.6793 21.1062C5.08797 21.1062 6.31757 20.3064 6.91447 19.1364V19.1245C7.02191 18.9216 7.10548 18.7067 7.1771 18.4799C8.92004 14.4807 11.5106 15.3879 11.5106 15.3879ZM10.651 10.0278C10.7227 10.1591 10.8182 10.2905 10.9256 10.3979C11.5225 10.9948 12.4775 10.9948 13.0625 10.3979C13.6594 9.801 13.6594 8.84597 13.0625 8.26101C12.6805 7.879 12.1552 7.74768 11.6777 7.85513H11.6658C11.5941 7.86706 11.5106 7.89094 11.4389 7.92675C8.16795 8.83403 7.18904 5.06166 7.18904 5.06166C7.03385 4.44089 6.71152 3.85593 6.23401 3.37841C4.80146 1.94587 2.49745 1.94587 1.07684 3.36648C-0.343774 4.78709 -0.355712 7.10304 1.07684 8.52365C2.07962 9.52643 3.50023 9.82488 4.76565 9.41899H4.77759C4.99247 9.34736 5.20735 9.25186 5.42223 9.14442C9.46918 7.54474 10.651 10.0278 10.651 10.0278Z" fill="black"/>
</g>
<defs>
<clipPath id="clip0">
<rect width="24" height="24" fill="white"/>
</clipPath>
</defs>
</svg>
