<svg width="24" height="24" viewBox="0 0 24 24" fill="none" xmlns="http://www.w3.org/2000/svg">
<path d="M2.27244 15.7022L0 20.184H5.27736L7.5498 15.7022H2.27244Z" fill="#0175B0"/>
<path d="M5.27938 9.77208L3.01306 14.2417H8.29042L10.5567 9.77208H5.27938Z" fill="#0175B0"/>
<path d="M8.28634 3.84192L6.02002 8.31156H11.2974L13.5637 3.84192H8.28634Z" fill="#0175B0"/>
<path d="M7.53214 15.7004L5.2597 20.1821H10.5369L12.8095 15.7004H7.53214Z" fill="#00A2D0"/>
<path d="M10.5391 9.77016L8.27277 14.2398H13.55L15.8164 9.77016H10.5391Z" fill="#00A2D0"/>
<path d="M13.546 3.84L11.2797 8.30951H16.557L18.8234 3.84H13.546Z" fill="#00A2D0"/>
<path d="M12.7087 15.7004L10.4363 20.1821H15.7136L17.9861 15.7004H12.7087Z" fill="#00CCFF"/>
<path d="M15.7157 9.77016L13.4493 14.2398H18.7267L20.993 9.77016H15.7157Z" fill="#00CCFF"/>
<path d="M18.7226 3.84L16.4563 8.30951H21.7337L24 3.84H18.7226Z" fill="#00CCFF"/>
</svg>
