<svg width="24" height="24" viewBox="0 0 24 24" fill="none" xmlns="http://www.w3.org/2000/svg">
<path d="M12 24C18.6274 24 24 18.6274 24 12C24 5.37258 18.6274 0 12 0C5.37258 0 0 5.37258 0 12C0 18.6274 5.37258 24 12 24Z" fill="url(#paint0_radial)"/>
<path d="M10.1514 14.5081L16.9189 7.72973C16.9189 7.72973 13.827 3.97838 8.97297 6.07568C8.97297 6.07568 4.78919 7.84865 5.26108 12.5369C5.43168 14.2316 6.1427 15.8301 7.40216 16.9767C8.54995 18.0216 10.3278 18.9683 12.8757 18.6378C12.8757 18.6378 14.7351 18.4216 16.1405 17.0378L17.7189 18.5946C17.7189 18.5946 13.6216 22.8757 7.42703 19.6649C7.42703 19.6649 4.07568 17.9892 3.12432 13.4054C3.12432 13.4054 2.15135 7.41622 7.6 4.34595C7.6 4.34595 13.3946 0.951353 18.0865 5.7946L18.8865 5.1027C18.8865 5.1027 14.9189 0.691893 8.8973 2.7027C8.8973 2.7027 3.49189 4.34595 2.38919 9.47027C2.38919 9.47027 0.81081 15.3622 5.0054 19.0811C5.0054 19.0811 9.44865 23.6 15.5676 21.1135C15.5676 21.1135 17.2757 20.6162 19.1243 18.6162L16.1622 15.6324C16.1622 15.6324 14.1838 18.5405 10.3676 17.4487C10.3676 17.4487 5.37297 16.3676 6.37838 10.6378C6.37838 10.6378 7.13513 6.77838 11.6324 6.38919C11.6324 6.38919 13.773 6.22703 15.427 7.68649L9.43784 13.7622L10.1514 14.5081Z" fill="white"/>
<defs>
<radialGradient id="paint0_radial" cx="0" cy="0" r="1" gradientUnits="userSpaceOnUse" gradientTransform="translate(9.60297 5.12076) scale(25.6069)">
<stop stop-color="#F2EC05"/>
<stop offset="0.06" stop-color="#EDEB07"/>
<stop offset="0.13" stop-color="#DFE70C"/>
<stop offset="0.2" stop-color="#C8E114"/>
<stop offset="0.28" stop-color="#A8D820"/>
<stop offset="0.35" stop-color="#7ECD2F"/>
<stop offset="0.43" stop-color="#4CBF41"/>
<stop offset="0.47" stop-color="#2FB74B"/>
<stop offset="0.55" stop-color="#33B765"/>
<stop offset="0.62" stop-color="#37B77A"/>
<stop offset="0.67" stop-color="#38B782"/>
<stop offset="0.84" stop-color="#0AAEA4"/>
</radialGradient>
</defs>
</svg>
