<svg width="24" height="24" viewBox="0 0 24 24" fill="none" xmlns="http://www.w3.org/2000/svg">
<path d="M17.777 7.97858C17.3038 7.97858 16.8501 8.16654 16.5155 8.5011C16.1809 8.83567 15.993 9.28944 15.993 9.76258C15.993 10.2357 16.1809 10.6895 16.5155 11.0241C16.8501 11.3586 17.3038 11.5466 17.777 11.5466C18.2501 11.5466 18.7039 11.3586 19.0385 11.0241C19.373 10.6895 19.561 10.2357 19.561 9.76258C19.561 9.28944 19.373 8.83567 19.0385 8.5011C18.7039 8.16654 18.2501 7.97858 17.777 7.97858ZM17.777 10.6441C17.545 10.6413 17.3235 10.5472 17.1604 10.3822C16.9974 10.2172 16.906 9.99456 16.906 9.76258C16.906 9.27985 17.2943 8.88108 17.777 8.88108C18.2597 8.88108 18.648 9.27985 18.648 9.76258C18.648 10.2453 18.2597 10.6441 17.777 10.6441ZM6.31743 7.97858C5.84429 7.97858 5.39052 8.16654 5.05596 8.5011C4.72139 8.83567 4.53344 9.28944 4.53344 9.76258C4.53344 10.2357 4.72139 10.6895 5.05596 11.0241C5.39052 11.3586 5.84429 11.5466 6.31743 11.5466C6.79058 11.5466 7.24435 11.3586 7.57891 11.0241C7.91348 10.6895 8.10143 10.2357 8.10143 9.76258C8.10143 9.28944 7.91348 8.83567 7.57891 8.5011C7.24435 8.16654 6.79058 7.97858 6.31743 7.97858ZM6.31743 10.6441C6.08547 10.6413 5.86394 10.5472 5.70089 10.3822C5.53784 10.2172 5.44641 9.99456 5.44642 9.76258C5.44642 9.27985 5.83471 8.88108 6.31743 8.88108C6.80016 8.88108 7.18844 9.27985 7.18844 9.76258C7.18844 10.2453 6.80016 10.6441 6.31743 10.6441ZM11.4595 12.5015H10.2422V11.2737H11.47V12.5015H11.4595ZM13.6948 12.5015H12.467V11.2737H13.6948V12.5015ZM23.2864 17.3813L22.4993 11.2527L22.3629 10.1928L22.3209 9.80456C22.191 8.62487 21.6355 7.53299 20.7585 6.7333C19.8816 5.93361 18.7433 5.48093 17.5566 5.46V1.0105L15.3109 2.30127V1.61916L14.3769 2.17534L13.317 2.784V1.96546L11.3441 3.07784V1.5457L9.14035 2.82598V1.92349L6.23348 3.62353V5.48099C5.09899 5.56922 4.03078 6.05033 3.21286 6.84144C2.39493 7.63255 1.8785 8.68413 1.7525 9.81505L1.71052 10.1928C1.66855 10.5391 1.63707 10.9064 1.5741 11.2737L0.787044 17.3918C0.671368 18.1692 0.830338 18.9627 1.23659 19.6356C1.64284 20.3085 2.27096 20.8187 3.01283 21.0784C3.75469 21.3381 4.56389 21.3311 5.30113 21.0585C6.03836 20.786 6.65752 20.2649 7.05202 19.5851L8.96195 16.3529C9.20331 15.9436 9.64406 15.6813 10.1163 15.6813H13.9571C14.4294 15.6813 14.8701 15.9331 15.1115 16.3529L17.0214 19.5851C17.4159 20.2668 18.036 20.7893 18.7748 21.0623C19.5136 21.3354 20.3245 21.3418 21.0675 21.0804C21.8105 20.8191 22.4388 20.3064 22.844 19.631C23.2491 18.9556 23.4056 18.1598 23.2864 17.3813ZM21.7857 19.5011C21.5275 19.7934 21.2036 20.0203 20.8407 20.1631C20.4778 20.306 20.0861 20.3607 19.6979 20.3228C19.3097 20.2849 18.9361 20.1555 18.6076 19.9451C18.2792 19.7348 18.0053 19.4496 17.8085 19.1128L15.8985 15.8806C15.7005 15.5439 15.4185 15.2644 15.08 15.0694C14.7415 14.8744 14.3582 14.7707 13.9676 14.7683H10.1163C9.32924 14.7683 8.58416 15.1985 8.18538 15.8806L6.27546 19.1128C6.08187 19.4533 5.80934 19.7423 5.48078 19.9555C5.15223 20.1686 4.77727 20.2998 4.38747 20.3378C3.99766 20.3759 3.60442 20.3197 3.24084 20.1741C2.87726 20.0285 2.55397 19.7977 2.29819 19.5011C2.06003 19.2295 1.88254 18.9102 1.77758 18.5646C1.67262 18.219 1.6426 17.8549 1.68954 17.4967L2.47659 11.3892C2.53956 11.0219 2.57104 10.6441 2.61302 10.2873L2.65499 9.91999C2.73592 9.21433 3.00435 8.54321 3.43238 7.97638C3.86041 7.40955 4.43243 6.96768 5.089 6.6967C5.74557 6.42572 6.46272 6.33551 7.16594 6.43545C7.86917 6.53538 8.5328 6.82182 9.08788 7.26498C9.87514 7.9293 10.8702 8.29689 11.9003 8.3039H12.2046C13.2016 8.3039 14.1985 7.93661 15.017 7.26498C15.7181 6.68914 16.5969 6.37394 17.5041 6.37299C18.4813 6.37757 19.4225 6.74169 20.1483 7.39589C20.8741 8.05009 21.3337 8.94859 21.4394 9.91999L21.4814 10.2978L21.6178 11.3787L22.4049 17.4967C22.4888 18.2208 22.2685 18.9554 21.7857 19.5011Z" fill="url(#paint0_linear)"/>
<path d="M9.67554 18.3573C10.8509 19.5116 13.2645 19.5011 14.4189 18.3258" stroke="url(#paint1_linear)" stroke-width="8" stroke-miterlimit="10"/>
<defs>
<linearGradient id="paint0_linear" x1="4.20812" y1="5.72235" x2="21.4394" y2="21.2326" gradientUnits="userSpaceOnUse">
<stop stop-color="#8D5AE9"/>
<stop offset="1" stop-color="#63D1DF"/>
</linearGradient>
<linearGradient id="paint1_linear" x1="10.5885" y1="17.3079" x2="13.5164" y2="19.9419" gradientUnits="userSpaceOnUse">
<stop stop-color="#7B8DE5"/>
<stop offset="1" stop-color="#70ADE2"/>
</linearGradient>
</defs>
</svg>
