<svg width="24" height="24" viewBox="0 0 24 24" fill="none" xmlns="http://www.w3.org/2000/svg">
<path d="M12.0359 0.13005V0.141872C12.0477 0.200986 12.0477 0.271922 12.0477 0.342857V8.867C12.0359 8.91429 12.0004 8.92611 11.965 8.94975C11.7167 9.06798 11.4802 9.17439 11.232 9.28079C10.8891 9.43448 10.5344 9.6 10.1916 9.75369L8.9502 10.3212C8.60734 10.4749 8.26449 10.6286 7.93345 10.7823C7.53148 10.9714 7.11769 11.1488 6.71572 11.3379C6.37286 11.4916 6.03 11.6571 5.67532 11.8108C5.39158 11.9409 5.10784 12.0591 4.83591 12.1892C4.81227 12.201 4.78862 12.2128 4.76498 12.2128C4.75316 12.2128 4.75316 12.2128 4.74133 12.201L5.06054 11.669C5.67532 10.6522 6.27828 9.64729 6.89306 8.63054C7.5433 7.54286 8.20537 6.45517 8.85562 5.36749C9.45857 4.36256 10.0734 3.35764 10.6763 2.35271C11.1137 1.6197 11.563 0.8867 12.0004 0.153695C12.0123 0.13005 12.0241 0.118227 12.0241 0.0945816H12.0359C12.0241 0.106404 12.0359 0.118227 12.0359 0.13005Z" fill="#8A92B2"/>
<path d="M19.2945 12.201L19.3063 12.2128L17.5684 13.2414L12.1063 16.469C12.0827 16.4808 12.059 16.4926 12.0472 16.5044C12.0117 16.5044 12.0117 16.469 12.0117 16.4571V16.3507V9.04434C12.0117 9.00887 12.0117 8.96158 12.0235 8.92611C12.0354 8.87882 12.0708 8.89064 12.1063 8.90247C12.26 8.9734 12.4255 9.04434 12.5792 9.11527C13.0403 9.32808 13.5014 9.54089 13.9625 9.74187C14.3644 9.91921 14.7546 10.1084 15.1565 10.2857C15.5585 10.4631 15.9605 10.6522 16.3625 10.8296C16.7053 10.9833 17.06 11.1488 17.4029 11.3025C17.7457 11.4562 18.1004 11.6217 18.4432 11.7754C18.7152 11.8936 18.9871 12.0236 19.259 12.1419C19.259 12.1773 19.2708 12.1892 19.2945 12.201Z" fill="#454A75"/>
<path d="M12.0354 23.8463C12.0354 23.8581 12.0236 23.87 12.0236 23.8818H12.0118C12.0118 23.8581 11.9881 23.8463 11.9763 23.8227C11.2433 22.7941 10.5103 21.7537 9.7773 20.7251C9.03247 19.6729 8.27582 18.6089 7.53099 17.5567C6.80981 16.5399 6.07681 15.5113 5.35562 14.4946C5.16646 14.2227 4.9773 13.9626 4.78814 13.6906C4.77631 13.667 4.76449 13.6552 4.74084 13.6197C4.77631 13.6197 4.79996 13.6434 4.81178 13.6552C5.84035 14.2581 6.8571 14.8611 7.88567 15.464C9.06794 16.1616 10.2384 16.8591 11.4206 17.5567L12.0236 17.9113C12.0472 17.935 12.0472 17.9586 12.0472 17.9823V23.6808C12.0472 23.7399 12.0472 23.799 12.0354 23.8463Z" fill="#8A92B2"/>
<path d="M4.729 12.2246V12.2128C5.10733 12.0473 5.47383 11.87 5.85216 11.7044C6.33689 11.4798 6.82161 11.267 7.30634 11.0424C7.67285 10.8768 8.05117 10.6995 8.41767 10.534C8.96152 10.2857 9.49354 10.0493 10.0374 9.80098C10.4039 9.63547 10.7704 9.46995 11.1487 9.29261C11.4088 9.17438 11.6807 9.05616 11.9408 8.93793C11.9645 8.92611 11.9999 8.91429 12.0118 8.89064C12.0236 8.89064 12.0236 8.90246 12.0118 8.91429V16.4217C12.0118 16.4571 11.9999 16.4926 12.0236 16.5163C11.9999 16.5517 11.9763 16.5163 11.9645 16.5044C11.8581 16.4453 11.7517 16.3862 11.6453 16.3153C9.36349 14.9675 7.06989 13.6079 4.78812 12.2601C4.77629 12.2483 4.75265 12.2365 4.729 12.2246Z" fill="#62688F"/>
<path d="M19.2708 13.6197H19.2827C19.2827 13.6434 19.259 13.667 19.2472 13.6906C17.0718 16.7527 14.8965 19.8266 12.7211 22.8887C12.4965 23.2079 12.26 23.5271 12.0354 23.8463C12.0236 23.8345 12.0236 23.8227 12.0236 23.8108V23.7399V18.0059V17.8995C12.5201 17.6039 13.0048 17.3202 13.5014 17.0246C15.4167 15.8897 17.3319 14.7665 19.2354 13.6315C19.2472 13.6434 19.259 13.6315 19.2708 13.6197Z" fill="#62688F"/>
<path d="M12.0236 8.91428V8.89064V8.8197V0.23645C12.0236 0.200982 12.0118 0.177337 12.0355 0.141869C14.4355 4.12611 16.8355 8.09852 19.2236 12.0828C19.2473 12.1182 19.2828 12.1655 19.2946 12.2128C19.1291 12.1537 18.9754 12.0709 18.8217 12C18.6325 11.9172 18.4315 11.8227 18.2424 11.7399C18.1241 11.6808 17.9941 11.6335 17.8759 11.5744C17.6749 11.4798 17.4739 11.397 17.2729 11.3025C17.1547 11.2552 17.0365 11.1961 16.9182 11.1369L16.1379 10.7823C16.0079 10.7232 15.8778 10.664 15.736 10.6049L15.1685 10.3566C15.0502 10.3094 14.932 10.2502 14.8138 10.1911L14.0335 9.83645C13.9034 9.77734 13.7734 9.71822 13.6315 9.65911L13.064 9.41083C12.934 9.35172 12.8158 9.29261 12.6857 9.23349C12.4611 9.12709 12.2365 9.02069 12 8.92611C12.0355 8.91428 12.0236 8.91428 12.0236 8.91428Z" fill="#62688F"/>
</svg>
