<svg width="24" height="24" viewBox="0 0 24 24" fill="none" xmlns="http://www.w3.org/2000/svg">
<path d="M3.86826 21.1798C5.21554 21.1528 6.28589 20.0388 6.25894 18.6915C6.23198 17.3442 5.11794 16.2739 3.77066 16.3008C2.42337 16.3278 1.35303 17.4418 1.37998 18.7891C1.40693 20.1364 2.52097 21.2067 3.86826 21.1798Z" fill="black"/>
<path d="M1.65914 15.4613C2.57424 15.4613 3.31608 14.7195 3.31608 13.8044C3.31608 12.8893 2.57424 12.1475 1.65914 12.1475C0.744035 12.1475 0.00219727 12.8893 0.00219727 13.8044C0.00219727 14.7195 0.744035 15.4613 1.65914 15.4613Z" fill="black"/>
<path d="M5.67909 5.29593C6.37411 5.29593 6.93753 4.73251 6.93753 4.0375C6.93753 3.34248 6.37411 2.77906 5.67909 2.77906C4.98408 2.77906 4.42065 3.34248 4.42065 4.0375C4.42065 4.73251 4.98408 5.29593 5.67909 5.29593Z" fill="black"/>
<path d="M10.8388 2.91892C11.3678 2.91892 11.7966 2.49009 11.7966 1.96111C11.7966 1.43212 11.3678 1.0033 10.8388 1.0033C10.3098 1.0033 9.88098 1.43212 9.88098 1.96111C9.88098 2.49009 10.3098 2.91892 10.8388 2.91892Z" fill="black"/>
<path d="M16.208 3.51312C16.6482 3.51312 17.005 3.15629 17.005 2.71611C17.005 2.27593 16.6482 1.9191 16.208 1.9191C15.7678 1.9191 15.411 2.27593 15.411 2.71611C15.411 3.15629 15.7678 3.51312 16.208 3.51312Z" fill="black"/>
<path d="M20.5426 6.75718C20.8708 6.75718 21.1369 6.49112 21.1369 6.16292C21.1369 5.83472 20.8708 5.56866 20.5426 5.56866C20.2144 5.56866 19.9484 5.83472 19.9484 6.16292C19.9484 6.49112 20.2144 6.75718 20.5426 6.75718Z" fill="black"/>
<path d="M22.6121 12.6019C23.3766 12.6019 23.9963 11.9821 23.9963 11.2176C23.9963 10.4531 23.3766 9.83333 22.6121 9.83333C21.8475 9.83333 21.2278 10.4531 21.2278 11.2176C21.2278 11.9821 21.8475 12.6019 22.6121 12.6019Z" fill="black"/>
<path d="M21.8641 17.7894C22.5475 17.7894 23.1015 17.2354 23.1015 16.552C23.1015 15.8686 22.5475 15.3145 21.8641 15.3145C21.1806 15.3145 20.6266 15.8686 20.6266 16.552C20.6266 17.2354 21.1806 17.7894 21.8641 17.7894Z" fill="black"/>
<path d="M18.5711 21.7675C19.104 21.7675 19.536 21.3355 19.536 20.8027C19.536 20.2699 19.104 19.8379 18.5711 19.8379C18.0383 19.8379 17.6063 20.2699 17.6063 20.8027C17.6063 21.3355 18.0383 21.7675 18.5711 21.7675Z" fill="black"/>
<path d="M13.4255 23.3965C13.7769 23.3965 14.0618 23.1116 14.0618 22.7603C14.0618 22.4089 13.7769 22.1241 13.4255 22.1241C13.0742 22.1241 12.7893 22.4089 12.7893 22.7603C12.7893 23.1116 13.0742 23.3965 13.4255 23.3965Z" fill="black"/>
<path d="M8.30092 22.4526C8.54418 22.4526 8.74138 22.2554 8.74138 22.0122C8.74138 21.7689 8.54418 21.5717 8.30092 21.5717C8.05767 21.5717 7.86047 21.7689 7.86047 22.0122C7.86047 22.2554 8.05767 22.4526 8.30092 22.4526Z" fill="black"/>
<path d="M2.75405 10.7952C4.04946 10.7234 5.04145 9.61511 4.9697 8.31969C4.89796 7.02428 3.78965 6.0323 2.49424 6.10404C1.19882 6.17579 0.206842 7.28409 0.278587 8.5795C0.350331 9.87492 1.45863 10.8669 2.75405 10.7952Z" fill="black"/>
<path d="M7.93738 10.4486L9.88796 9.337L9.88097 15.804L7.93738 16.9016V10.4486Z" fill="black"/>
<path d="M15.7117 10.4486L17.6623 9.337L17.6553 15.804L15.7117 16.9016V10.4486Z" fill="black"/>
<path d="M11.8175 10.4486L13.7681 9.337L13.7611 15.804L11.8175 16.9016V10.4486Z" fill="black"/>
<path d="M6.04968 9.29494L7.95831 8.16933L9.88791 9.33688L7.93734 10.4485L6.04968 9.29494Z" fill="black"/>
<path d="M9.92285 9.29494L11.8315 8.16933L13.7611 9.33688L11.8175 10.4485L9.92285 9.29494Z" fill="black"/>
<path d="M13.8241 9.30205L15.7327 8.17645L17.6623 9.344L15.7117 10.4556L13.8241 9.30205Z" fill="black"/>
</svg>
