<svg width="24" height="24" viewBox="0 0 24 24" fill="none" xmlns="http://www.w3.org/2000/svg">
<path d="M12.0024 23.9689C18.6088 23.9689 23.9643 18.6134 23.9643 12.007C23.9643 5.40064 18.6088 0.0451279 12.0024 0.0451279C5.39604 0.0451279 0.0405273 5.40064 0.0405273 12.007C0.0405273 18.6134 5.39604 23.9689 12.0024 23.9689Z" fill="url(#paint0_linear)"/>
<path d="M18.669 2.43329C19.5127 2.80691 19.585 4.13868 19.0909 4.91003C18.4521 5.90434 16.2044 5.61509 16.5418 3.64454C16.4514 3.61441 16.4635 3.57825 16.349 3.6807C13.2998 9.14038 13.3781 15.287 10.7989 19.5776C10.2626 20.3189 9.79254 20.6684 9.11762 21.054C8.44269 21.4397 7.95457 21.6868 6.85179 21.741C5.74901 21.7892 5.3091 21.3132 5.3091 21.3132C4.04964 20.4996 4.7788 19.0353 5.48386 18.74C6.18891 18.4447 6.6469 18.5653 7.02052 18.734C7.40017 18.9027 7.822 19.5716 7.822 19.5716C8.2619 18.4447 8.44872 17.8301 8.92478 16.0041C10.8531 8.04965 11.7209 1.10151 18.669 2.43329Z" fill="white"/>
<path d="M8.27995 10.4239H15.0232C15.5595 10.4239 15.9994 10.8578 15.9994 11.4002C15.9994 11.9365 15.5655 12.3764 15.0232 12.3764H8.27995C7.74362 12.3764 7.30371 11.9425 7.30371 11.4002C7.30974 10.8639 7.74362 10.4239 8.27995 10.4239Z" fill="white"/>
<path d="M9.14774 7.24214H15.891C16.4273 7.24214 16.8672 7.67602 16.8672 8.21838C16.8672 8.7547 16.4333 9.19461 15.891 9.19461H9.14774C8.61142 9.19461 8.17151 8.76073 8.17151 8.21838C8.17753 7.68205 8.61142 7.24214 9.14774 7.24214Z" fill="white"/>
<defs>
<linearGradient id="paint0_linear" x1="1.87808" y1="0.892087" x2="30.0027" y2="31.7537" gradientUnits="userSpaceOnUse">
<stop stop-color="#E3D531"/>
<stop offset="1" stop-color="#C4A600"/>
</linearGradient>
</defs>
</svg>
