<svg width="24" height="24" viewBox="0 0 24 24" fill="none" xmlns="http://www.w3.org/2000/svg">
<path d="M6.78483 2.00132C12.5224 1.99956 18.2604 1.99956 23.9988 2.00132C24.0005 3.85594 24.0005 5.71024 23.9988 7.56423C18.261 7.56599 12.523 7.56599 6.78483 7.56423C6.78299 5.7096 6.78299 3.8553 6.78483 2.00132Z" fill="#02A6C2"/>
<path d="M0.00719989 9.65709C1.85829 9.64749 3.7097 9.64749 5.56144 9.65709C5.57104 11.5082 5.57104 13.3596 5.56144 15.2113C3.70978 15.2208 1.85837 15.221 0.00719989 15.2118C-0.00239996 13.3604 -0.00239996 11.5088 0.00719989 9.65709Z" fill="#5FCADE"/>
<path d="M6.78913 9.65702C10.9305 9.64822 15.0715 9.64822 19.2122 9.65702C19.221 11.5081 19.221 13.3595 19.2122 15.2113C15.071 15.2199 10.93 15.2199 6.78913 15.2113C6.78049 13.3601 6.78049 11.5087 6.78913 9.65702Z" fill="#5FCADE"/>
<path d="M6.79432 17.3145C8.64229 17.2944 10.4899 17.2944 12.3372 17.3145C12.3564 19.1613 12.3567 21.009 12.3381 22.8575C10.4901 22.8758 8.64253 22.8755 6.79528 22.8566C6.77608 21.01 6.77576 19.1626 6.79432 17.3145Z" fill="#ABEBF4"/>
</svg>
