<svg width="24" height="24" viewBox="0 0 24 24" fill="none" xmlns="http://www.w3.org/2000/svg">
<path fill-rule="evenodd" clip-rule="evenodd" d="M8.57471 17.8995C8.5695 17.8965 8.56439 17.8932 8.55913 17.8901L13.0981 14.3259L9.98059 10.3557L5.43202 13.9274C5.24523 13.3035 5.14412 12.6426 5.14412 11.9579C5.14412 8.23425 8.1116 5.20384 11.8106 5.10218L8.27394 0.584969C3.47173 2.14547 0 6.65642 0 11.979C0 18.5949 5.36317 23.958 11.979 23.958C12.3896 23.958 12.7953 23.9372 13.1951 23.8969L8.52817 17.936L8.57471 17.8995Z" fill="#EE0766"/>
<path fill-rule="evenodd" clip-rule="evenodd" d="M20.5196 18.6472C19.5015 19.9408 18.2025 21.0132 16.7247 21.7141C16.3483 21.9002 15.971 22.0866 15.971 22.0866L13.9416 19.5891L14.9125 19.254C16.176 18.6877 17.3182 17.8196 18.1793 16.7395C18.3946 16.4695 18.5923 16.1863 18.7701 15.891C19.7281 14.2912 19.898 12.3581 19.6804 10.4644C19.6693 10.3674 19.682 10.225 19.6616 10.13C19.5431 9.29276 19.0332 8.88706 18.342 8.98161C18.1895 9.00962 18.1019 9.07155 18.1019 9.07155L14.1871 12.228L12.199 9.76224L16.1192 6.60135C16.8854 5.92595 16.1947 5.22539 15.7397 4.67168C15.7397 4.67168 15.6764 4.59267 15.5813 4.47417C15.2962 4.11878 14.7259 3.408 14.7259 3.408L12.8835 1.09268L13.7683 1.2255C13.7683 1.2255 14.1036 1.29921 14.4393 1.37291C16.0032 1.7268 17.465 2.44304 18.7085 3.43395C18.9572 3.63227 19.1971 3.84155 19.4282 4.06146C20.3509 4.94215 21.1608 5.95516 21.7536 7.07344C21.9018 7.35297 22.0364 7.63921 22.1559 7.93152C23.2652 11.1507 23.1158 14.9846 21.096 17.8458C20.9157 18.121 20.7233 18.3886 20.5196 18.6472ZM11.979 0C11.5745 0 11.1747 0.0203424 10.7805 0.059524L15.4527 6.02981L10.9224 9.58722L14.0399 13.5574L18.5754 9.99597C18.7607 10.6176 18.8611 11.2759 18.8611 11.9579C18.8611 15.7019 15.8612 18.7447 12.1341 18.8148L15.699 23.3681C20.4934 21.8032 23.958 17.2961 23.958 11.979C23.958 5.36317 18.5948 0 11.979 0Z" fill="#EE0766"/>
</svg>
