<svg width="24" height="24" viewBox="0 0 24 24" fill="none" xmlns="http://www.w3.org/2000/svg">
<g clip-path="url(#clip0)">
<path d="M12 24C18.6274 24 24 18.6274 24 12C24 5.37258 18.6274 0 12 0C5.37258 0 0 5.37258 0 12C0 18.6274 5.37258 24 12 24Z" fill="#1666AE"/>
<path d="M7.22875 20.714C7.40347 20.786 7.60315 20.7024 7.67419 20.5277C7.74619 20.353 7.66267 20.1533 7.48795 20.0823C7.31323 20.0103 7.11355 20.0938 7.04251 20.2685C6.99931 20.3741 7.01179 20.4941 7.07515 20.5882L6.22556 21.4378H4.59741C4.68477 21.506 4.77213 21.5732 4.86141 21.6394H6.30236L7.22875 20.714ZM2.05343 16.3085C2.22719 16.2356 2.30975 16.0359 2.23679 15.8621C2.16383 15.6884 1.96415 15.6058 1.79039 15.6788C1.61663 15.7517 1.53407 15.9514 1.60703 16.1252C1.65119 16.2298 1.74431 16.3066 1.85663 16.3287L1.84127 17.1888L1.41119 17.6256C1.44383 17.688 1.47743 17.7495 1.51199 17.8119L2.03807 17.2772L2.05343 16.3085ZM6.64891 3.06533C6.54331 3.22181 6.58555 3.43397 6.74203 3.53957C6.89851 3.64517 7.11067 3.60293 7.21627 3.44645C7.32187 3.28997 7.27963 3.07781 7.12315 2.97221C7.02811 2.90885 6.90811 2.89637 6.80251 2.93957L6.10748 2.26565L5.00061 2.25797C4.91037 2.32325 4.82013 2.39045 4.73181 2.45765L6.03068 2.46725L6.64891 3.06533ZM6.88603 4.66853C6.84187 4.66853 6.79771 4.67717 6.75643 4.69349L6.0614 4.01957L3.2995 4.00805V4.20965L5.98364 4.22117L6.60283 4.81829C6.49723 4.97477 6.53947 5.18692 6.69595 5.29253C6.85243 5.39812 7.06459 5.35588 7.17019 5.1994C7.27579 5.04292 7.23355 4.83077 7.07707 4.72517C7.02043 4.68869 6.95419 4.66853 6.88603 4.66853ZM6.71515 17.6237C6.52699 17.6237 6.3734 17.7773 6.37436 17.9655C6.37436 18.0327 6.39452 18.0989 6.43196 18.1546L5.81276 18.7527L3.12766 18.7642V18.9658L5.88956 18.9543L6.58459 18.2813C6.75931 18.3524 6.95899 18.2688 7.03003 18.0951C7.10107 17.9204 7.01755 17.7207 6.84379 17.6496C6.80347 17.6324 6.76027 17.6237 6.71515 17.6237ZM17.1368 8.11109L17.2799 7.96805L17.1349 7.82309L17.1359 8.10917L17.1368 8.11109ZM16.1106 6.79973L14.2108 6.78437C14.1378 6.61061 13.9381 6.52805 13.7644 6.60101C13.5906 6.67396 13.5081 6.87364 13.581 7.0474C13.654 7.22117 13.8537 7.30373 14.0274 7.23077C14.1321 7.18661 14.2089 7.09348 14.2309 6.98213L16.0223 6.99749L16.9055 7.88069V7.59557L16.1106 6.79973ZM11.638 7.56389C11.6831 7.56389 11.7273 7.55525 11.7686 7.53797L12.3686 8.13125H14.6514V7.92869H12.4463L11.9231 7.41125C12.0287 7.25381 11.9865 7.04069 11.829 6.93509C11.6716 6.82949 11.4585 6.87173 11.3529 7.02917C11.2473 7.18661 11.2895 7.39972 11.447 7.50533C11.5026 7.54373 11.5698 7.56389 11.638 7.56389Z" fill="#7290C9"/>
<path d="M16.0828 2.57476L16.0981 4.69155L16.9055 5.51042V10.152H17.1378L17.1349 8.10912V7.824L17.1311 5.43938L16.2959 4.60419L16.2805 2.59492C16.4658 2.55844 16.5858 2.37892 16.5493 2.1946C16.5128 2.00933 16.3333 1.88933 16.149 1.92581C15.9637 1.96229 15.8437 2.1418 15.8802 2.32612C15.9013 2.43748 15.9781 2.5306 16.0828 2.57476ZM19.5254 7.04065C19.631 6.88417 19.5887 6.67201 19.4322 6.56641C19.2758 6.46081 19.0636 6.50305 18.958 6.65953C18.8524 6.81601 18.8946 7.02817 19.0511 7.13377C19.1462 7.19713 19.2662 7.20961 19.3718 7.16641L20.4086 8.02656L23.3155 8.03808C23.2915 7.97088 23.2675 7.90272 23.2425 7.83648L20.4863 7.82592L19.5254 7.04065Z" fill="#7290C9"/>
<path d="M23.1495 8.62667L20.0055 8.61515L18.9053 7.70699C19.0109 7.55051 18.9687 7.33835 18.8122 7.23275C18.6557 7.12715 18.4435 7.16939 18.3379 7.32587C18.2323 7.48235 18.2746 7.69451 18.4311 7.80011C18.5261 7.86347 18.6461 7.87595 18.7517 7.83275L19.9287 8.81675L23.1427 8.82827C23.1255 8.76203 23.1274 8.69195 23.1495 8.62667ZM19.6263 5.28203C19.7309 5.12555 19.6896 4.91339 19.5331 4.80875C19.3767 4.70411 19.1645 4.74539 19.0599 4.90187C18.9552 5.05835 18.9965 5.27051 19.153 5.37515C19.2471 5.43851 19.3671 5.45099 19.4727 5.40779L20.4135 6.25643L22.5331 6.27083C22.4967 6.20267 22.4583 6.13547 22.4199 6.06827L20.4912 6.05387L19.6263 5.28203ZM2.12452 6.81035C1.93924 6.84683 1.81828 7.02539 1.85476 7.21067C1.89124 7.39595 2.0698 7.51691 2.25508 7.48043C2.44036 7.44395 2.56132 7.26539 2.52484 7.08011C2.50276 6.96779 2.42692 6.87467 2.32132 6.83051L2.25508 5.56523L2.03044 5.33771C1.99204 5.39531 1.9546 5.45291 1.91716 5.51051L2.05924 5.65259L2.12452 6.81035ZM14.3597 19.7003C14.1706 19.7003 14.018 19.8529 14.018 20.042C14.018 20.1102 14.0381 20.1764 14.0756 20.2321L13.7223 20.6468H10.7732L10.0493 21.4484C9.87459 21.3764 9.67491 21.46 9.60387 21.6347C9.53187 21.8094 9.61539 22.0091 9.79011 22.0801C9.96483 22.1512 10.1645 22.0686 10.2356 21.8939C10.2788 21.7883 10.2663 21.6683 10.2029 21.5742L10.8509 20.8484H13.8L14.2291 20.3569C14.4039 20.4289 14.6035 20.3454 14.6746 20.1707C14.7466 19.996 14.6631 19.7963 14.4883 19.7252C14.449 19.7089 14.4039 19.7003 14.3597 19.7003ZM13.7703 2.20427L14.4183 2.93003C14.3127 3.08651 14.3549 3.29867 14.5114 3.40427C14.6679 3.50987 14.88 3.46763 14.9856 3.31115C15.0912 3.15467 15.049 2.94251 14.8925 2.83691C14.7975 2.77355 14.6775 2.76107 14.5719 2.80427L13.848 2.00267H10.898L10.5447 1.58795C10.6503 1.43147 10.608 1.21931 10.4516 1.11371C10.2951 1.00811 10.0829 1.05035 9.97731 1.20683C9.87171 1.36331 9.91395 1.57547 10.0704 1.68107C10.1655 1.74443 10.2855 1.75691 10.3911 1.71371L10.8202 2.20523L13.7703 2.20427ZM21.8938 13.562C21.7603 13.6955 21.7603 13.9115 21.8938 14.0449C21.9418 14.0929 22.0023 14.1256 22.0695 14.138L22.0819 15.3793L21.0826 16.2232L21.0442 17.3646C20.8704 17.4376 20.7879 17.6372 20.8608 17.811C20.9338 17.9848 21.1335 18.0673 21.3072 17.9944C21.481 17.9214 21.5635 17.7217 21.4906 17.548C21.4464 17.4433 21.3533 17.3665 21.2419 17.3444L21.2803 16.3115L22.2797 15.4676L22.2672 14.1179C22.441 14.0449 22.5235 13.8452 22.4506 13.6715C22.3776 13.4977 22.1779 13.4152 22.0042 13.4881C21.9629 13.5054 21.9255 13.5304 21.8938 13.562ZM6.65476 20.0622C6.82948 20.1332 7.02819 20.0497 7.09924 19.875C7.17027 19.7003 7.08675 19.5016 6.91203 19.4305C6.73732 19.3595 6.5386 19.443 6.46756 19.6177C6.42436 19.7233 6.43684 19.8433 6.5002 19.9374L5.6506 20.787H3.83716C3.91012 20.8552 3.98404 20.9224 4.05892 20.9886H5.7274L6.65476 20.0622Z" fill="#7290C9"/>
<path d="M11.7543 19.7847C11.7908 19.97 11.9703 20.09 12.1547 20.0535C12.3399 20.0171 12.4599 19.8375 12.4235 19.6532C12.387 19.4679 12.2075 19.3479 12.0231 19.3844C11.9118 19.4065 11.8177 19.4823 11.7745 19.5879H9.96873L9.12873 20.4279V18.2871L9.83913 17.5854L9.82569 15.3755C10.0004 15.3025 10.082 15.1028 10.01 14.9281C9.93705 14.7534 9.73737 14.6718 9.56265 14.7438C9.38793 14.8167 9.30633 15.0164 9.37833 15.1911C9.42249 15.2967 9.51561 15.3735 9.62793 15.3947L9.64137 17.4961L8.90121 18.2055L8.89833 20.6574L8.89737 20.6583L8.89833 20.6593L8.89545 22.7886H9.12777V20.7121L10.0561 19.7838L11.7543 19.7847ZM9.12969 2.33482L9.13065 2.33578L9.13353 4.78762L9.87369 5.4961L9.86025 7.59754C9.67497 7.63402 9.55497 7.81354 9.59145 7.99882C9.62793 8.1841 9.80745 8.3041 9.99273 8.26762C10.178 8.23114 10.298 8.05162 10.2615 7.86634C10.2395 7.75498 10.1636 7.6609 10.058 7.6177L10.0715 5.40778L9.36105 4.70602V2.56522L10.2011 3.40522H12.0078C12.0807 3.57898 12.2804 3.66154 12.4542 3.58858C12.6279 3.51562 12.7105 3.31594 12.6375 3.14218C12.5646 2.96842 12.3649 2.88586 12.1911 2.95882C12.0865 3.00298 12.0097 3.0961 11.9876 3.20842H10.2894L9.36105 2.28106V0.291937C9.28329 0.309217 9.20553 0.327457 9.12873 0.346657L9.13161 2.3329L9.12969 2.33482ZM16.9038 19.9307C16.826 19.7588 16.6235 19.683 16.4516 19.7617C16.2798 19.8395 16.204 20.042 16.2827 20.2139C16.3604 20.3857 16.563 20.4615 16.7348 20.3828C16.8385 20.3358 16.9115 20.2398 16.9307 20.1275L18.8622 20.1284L19.8203 21.0942C19.8712 21.05 19.9221 21.0059 19.972 20.9617L18.9438 19.9287L16.9038 19.9307ZM18.8296 21.1739C18.6923 21.0452 18.4763 21.0519 18.3467 21.1892C18.2181 21.3265 18.2248 21.5425 18.3621 21.6721C18.4993 21.8007 18.7153 21.794 18.8449 21.6567C18.891 21.6078 18.9217 21.5454 18.9333 21.4782H19.3509C19.4344 21.4129 19.5169 21.3467 19.5995 21.2795L18.9073 21.2804C18.8881 21.2401 18.8622 21.2046 18.8296 21.1739ZM13.5361 18.7787C13.6648 18.6414 13.658 18.4254 13.5208 18.2958C13.4708 18.2497 13.4094 18.219 13.3422 18.2075L13.3432 16.1828L13.1425 16.179L13.1454 18.2334C12.9735 18.3121 12.8977 18.5147 12.9764 18.6855C13.0551 18.8574 13.2577 18.9332 13.4286 18.8545C13.4689 18.8372 13.5054 18.8103 13.5361 18.7787ZM3.03557 17.8532C3.16422 17.7159 3.1575 17.4999 3.02021 17.3703C2.88293 17.2417 2.66693 17.2484 2.53733 17.3857C2.40869 17.523 2.41541 17.739 2.55269 17.8686C2.60165 17.9147 2.66405 17.9454 2.73125 17.9569L2.69477 19.563C2.75813 19.6417 2.82341 19.7195 2.88965 19.7963L2.92805 17.93C2.96837 17.9118 3.00485 17.8859 3.03557 17.8532ZM20.9099 4.54762C20.7726 4.41802 20.5566 4.4257 20.427 4.56298C20.2974 4.70026 20.3051 4.91626 20.4424 5.04586C20.5797 5.17546 20.7957 5.16778 20.9253 5.0305C20.9713 4.98058 21.0021 4.91914 21.0136 4.85194H21.628C21.5781 4.7857 21.5282 4.71946 21.4773 4.65322L20.9867 4.65418C20.9685 4.61386 20.9426 4.57834 20.9099 4.54762ZM19.4814 3.32074C19.3441 3.1921 19.1281 3.19882 18.9995 3.3361C18.8709 3.47338 18.8776 3.68938 19.0149 3.81802C19.1521 3.94666 19.3681 3.93994 19.4968 3.80266C19.5429 3.7537 19.5736 3.6913 19.5841 3.62506L20.5835 3.62602C20.5182 3.55882 20.452 3.49258 20.3848 3.42634L19.5573 3.42826C19.54 3.38794 19.5141 3.35146 19.4814 3.32074ZM7.2452 2.6593C7.25096 2.84746 7.4084 2.99626 7.59752 2.9905C7.78568 2.98474 7.93448 2.8273 7.92872 2.63818C7.92296 2.45002 7.76552 2.30122 7.5764 2.30698C7.50824 2.3089 7.44296 2.33098 7.38728 2.3713L6.40327 1.38634C6.34183 1.41898 6.28135 1.45162 6.21991 1.48618L7.26632 2.5297C7.25096 2.57098 7.24328 2.61514 7.2452 2.6593ZM2.79941 5.15434C2.66981 5.29162 2.67749 5.50762 2.81477 5.63722C2.95205 5.76682 3.16806 5.75914 3.29766 5.62186C3.42726 5.48458 3.41958 5.26858 3.2823 5.13898C3.23238 5.0929 3.17094 5.06218 3.10374 5.05066L3.1047 3.95818C3.03749 4.03306 2.97125 4.1089 2.90501 4.18474L2.90693 5.07658C2.86661 5.09578 2.83013 5.1217 2.79941 5.15434ZM18.6021 17.1803L16.563 17.1831C16.4852 17.0113 16.2827 16.9355 16.1108 17.0142C15.939 17.0919 15.8632 17.2945 15.9419 17.4663C16.0196 17.6382 16.2222 17.714 16.394 17.6353C16.4977 17.5883 16.5707 17.4923 16.5899 17.3799H18.5214L19.5102 18.3764L17.4337 18.3774C17.356 18.2055 17.1534 18.1297 16.9816 18.2084C16.8097 18.2862 16.7339 18.4887 16.8126 18.6606C16.8913 18.8324 17.0929 18.9083 17.2648 18.8295C17.3685 18.7825 17.4414 18.6865 17.4606 18.5742L22.0293 18.5751C22.0725 18.5089 22.1157 18.4417 22.1579 18.3755L19.7953 18.3764L18.6021 17.1803ZM5.91847 8.05738C6.04711 8.19466 6.26407 8.20234 6.40135 8.07274C6.53863 7.9441 6.54631 7.72714 6.41671 7.58986C6.28807 7.45258 6.07111 7.4449 5.93383 7.5745C5.90119 7.60522 5.87527 7.6417 5.85607 7.68298L3.77958 7.68202L4.76838 6.68554L6.69991 6.68458C6.73064 6.87082 6.90632 6.99658 7.09256 6.96586C7.2788 6.93514 7.40456 6.75946 7.37384 6.57322C7.34312 6.38698 7.16744 6.26122 6.9812 6.29194C6.86888 6.31018 6.77384 6.38314 6.72583 6.48682L4.68678 6.48394L3.49638 7.6801H0.816043C0.790123 7.74634 0.765163 7.81354 0.741163 7.87978L5.83111 7.87882C5.84071 7.94602 5.87143 8.00842 5.91847 8.05738ZM4.12806 17.8839C4.17414 17.835 4.20486 17.7726 4.21638 17.7054L5.06119 17.7063C5.11783 17.8859 5.30887 17.9867 5.48935 17.93C5.66887 17.8734 5.76967 17.6823 5.71303 17.5019C5.65639 17.3223 5.46535 17.2215 5.28487 17.2782C5.17639 17.3118 5.09287 17.3972 5.06023 17.5057L4.19046 17.5086C4.1127 17.3367 3.91014 17.2609 3.7383 17.3396C3.56646 17.4174 3.49062 17.6199 3.56934 17.7918C3.6471 17.9636 3.84966 18.0395 4.0215 17.9607C4.06086 17.9425 4.09734 17.9166 4.12806 17.8839ZM5.65063 5.06122C5.49991 5.06122 5.36647 5.1601 5.32327 5.30506L4.4535 5.30794C4.37574 5.1361 4.17318 5.06026 4.00134 5.13898C3.8295 5.2177 3.75366 5.4193 3.83238 5.59114C3.91014 5.76298 4.1127 5.83882 4.28454 5.7601C4.38822 5.71306 4.46118 5.61706 4.48038 5.50474L5.32519 5.5057C5.38183 5.68522 5.57383 5.78602 5.75335 5.72938C5.93287 5.67274 6.03367 5.48074 5.97703 5.30122C5.93191 5.15722 5.80039 5.06122 5.65063 5.06122ZM16.4382 13.6206C16.2635 13.5486 16.0638 13.6321 15.9928 13.8068C15.9208 13.9815 16.0043 14.1812 16.179 14.2523C16.3537 14.3243 16.5534 14.2407 16.6244 14.066C16.6676 13.9604 16.6552 13.8404 16.5918 13.7463L17.5057 12.8545L23.14 12.843V12.6414L17.428 12.6529L16.4382 13.6206ZM16.3 14.2043C16.154 14.2043 16.036 14.0862 16.036 13.9403C16.036 13.7943 16.154 13.6763 16.3 13.6763C16.4459 13.6763 16.564 13.7943 16.564 13.9403C16.564 14.0862 16.4459 14.2043 16.3 14.2043ZM4.5111 16.5889L6.57895 16.6043C6.65191 16.778 6.8516 16.8606 7.02536 16.7876C7.19912 16.7147 7.28168 16.515 7.20872 16.3412C7.13576 16.1675 6.93608 16.0849 6.76232 16.1579C6.65767 16.202 6.58087 16.2951 6.55879 16.4065L4.6599 16.3911L3.54054 15.1163H0.423401C0.444521 15.1959 0.466601 15.2747 0.489641 15.3534H3.46182L4.5111 16.5889ZM6.71623 16.2884C6.81896 16.1857 6.986 16.1857 7.08968 16.2884C7.1924 16.3911 7.1924 16.5582 7.08968 16.6619C6.98696 16.7646 6.81992 16.7646 6.71623 16.6619C6.61351 16.5582 6.61255 16.3921 6.71623 16.2884Z" fill="#7290C9"/>
<path d="M15.9081 13.0935L16.822 12.2016L19.5062 12.1901V11.9885L16.7443 12L15.7535 12.9687C15.5788 12.8967 15.3791 12.9802 15.3081 13.1549C15.2361 13.3296 15.3196 13.5293 15.4943 13.6003C15.6691 13.6723 15.8687 13.5888 15.9398 13.4141C15.9839 13.3085 15.9724 13.1885 15.9081 13.0935ZM15.6326 13.5523C15.4867 13.5523 15.3686 13.4342 15.3686 13.2883C15.3686 13.1424 15.4867 13.0243 15.6326 13.0243C15.7785 13.0243 15.8966 13.1424 15.8966 13.2883C15.8966 13.4342 15.7785 13.5523 15.6326 13.5523ZM8.92222 13.3891L9.44829 12.9005L12.1171 12.9053L13.055 12.001L12.9772 11.8147L12.0297 12.7152H9.35517L8.76862 13.2643C8.5939 13.1923 8.39422 13.2758 8.32222 13.4506C8.25022 13.6253 8.33374 13.825 8.50846 13.897C8.68318 13.969 8.88286 13.8854 8.95485 13.7107C8.99805 13.6042 8.98654 13.4832 8.92222 13.3891ZM8.6467 13.847C8.50078 13.847 8.3827 13.729 8.3827 13.583C8.3827 13.4371 8.50078 13.319 8.6467 13.319C8.79262 13.319 8.90973 13.4371 8.9107 13.5821C8.9107 13.729 8.79262 13.847 8.6467 13.847ZM6.83327 9.01157C6.61439 8.9223 6.36479 9.02597 6.27551 9.24485C6.18623 9.46373 6.28991 9.71333 6.50879 9.80261C6.72767 9.89188 6.97726 9.78821 7.06654 9.56933C7.1203 9.43685 7.1059 9.28709 7.02623 9.16805L7.40542 8.88198L7.2883 8.64966L6.83327 9.01157ZM6.68063 9.70181C6.52031 9.70181 6.39071 9.57221 6.39071 9.41189C6.39071 9.25157 6.52031 9.12197 6.68063 9.12197C6.84095 9.12197 6.97054 9.25157 6.97054 9.41189C6.97054 9.57221 6.84095 9.70181 6.68063 9.70181C6.68063 9.70277 6.68063 9.70277 6.68063 9.70181ZM1.95553 13.7539H2.73217V13.5216H2.09569L0.962896 12.3879H1.47553V12.1085H0.0153809C0.0163409 12.2074 0.0182608 12.3053 0.0211408 12.4032H0.650898L1.95553 13.7539ZM2.45281 11.1466L2.48353 10.9143L1.05602 9.48581H0.278419C0.26498 9.54821 0.2525 9.60965 0.24002 9.67205H0.977296L2.45281 11.1466ZM23.1493 8.62662C23.0869 8.81382 23.1877 9.01637 23.3749 9.07877C23.4565 9.10565 23.5458 9.10277 23.6245 9.07013C23.5669 8.83974 23.5026 8.61222 23.4316 8.38758C23.301 8.40774 23.1916 8.4999 23.1493 8.62662ZM11.255 13.801H12.9475V14.0179H11.255V13.801Z" fill="#7290C9"/>
<path d="M14.2147 7.45158V9.23717H12.7296V16.5485H21.0663V7.45158H14.2147ZM19.1309 14.4375H14.664V9.56261H19.1309V14.4375Z" fill="#FFFFFA"/>
<path d="M8.86463 14.7782V16.5475H6.55103C6.55103 16.5475 4.21439 16.5782 2.84735 14.4749C2.12159 13.3565 1.90079 11.9836 2.23967 10.6934C2.57279 9.42619 3.49919 7.92474 5.96063 7.4505H11.3789V9.14395H6.59807C6.59807 9.14395 4.07711 10.0099 4.10975 12.1008C4.12415 13.0205 4.64159 13.8537 5.43839 14.3136C5.79743 14.52 6.19007 14.6611 6.59807 14.7321L8.86463 14.7782Z" fill="white"/>
<path d="M6.59808 11.1466V12.8074H9.6096V16.5485H11.3798V11.1466H6.59808Z" fill="white"/>
</g>
<defs>
<clipPath id="clip0">
<rect width="24" height="24" fill="white"/>
</clipPath>
</defs>
</svg>
