<svg width="24" height="24" viewBox="0 0 24 24" fill="none" xmlns="http://www.w3.org/2000/svg">
<path fill-rule="evenodd" clip-rule="evenodd" d="M24 12C24 18.6274 18.6274 24 12 24C5.37255 24 0 18.6274 0 12C0 5.37255 5.37255 0 12 0C18.6274 0 24 5.37255 24 12Z" fill="#84BF42"/>
<path fill-rule="evenodd" clip-rule="evenodd" d="M12.0299 12.5476H17.34V11.5107H12.0299V12.5476ZM12.0299 12.92H17.3077V17.2463C16.7667 17.6385 16.0133 17.9543 15.0471 18.1935C14.0804 18.4328 13.1413 18.5525 12.2289 18.5525C10.1813 18.5525 8.56417 17.96 7.37849 16.7749C6.19208 15.5898 5.59924 14.0141 5.59924 12.0476C5.59924 10.087 6.24963 8.49666 7.5504 7.27704C8.85164 6.05735 10.4903 5.44754 12.7002 5.44754C14.2475 5.44754 15.9164 6.35735 16.8198 7.22466L15.3743 8.83273C13.1602 6.27216 7.62293 7.38723 7.83641 12.1168C8.05122 16.8743 12.7002 17.596 15.2802 15.623V13.9569H12.0299V12.92Z" fill="#FFFFFE"/>
</svg>
