<svg width="24" height="24" viewBox="0 0 24 24" fill="none" xmlns="http://www.w3.org/2000/svg">
<path d="M12 24C18.6274 24 24 18.6274 24 12C24 5.37258 18.6274 0 12 0C5.37258 0 0 5.37258 0 12C0 18.6274 5.37258 24 12 24Z" fill="#008DDE"/>
<path d="M18.0217 12.9945C18.095 12.9972 18.168 12.9851 18.2365 12.959C18.305 12.9328 18.3675 12.8931 18.4203 12.8423C18.4731 12.7914 18.515 12.7304 18.5437 12.6629C18.5724 12.5955 18.5872 12.5229 18.5872 12.4496C18.5872 12.3763 18.5724 12.3038 18.5437 12.2363C18.515 12.1688 18.4731 12.1079 18.4203 12.057C18.3675 12.0061 18.305 11.9664 18.2365 11.9403C18.168 11.9141 18.095 11.902 18.0217 11.9048H16.7767V10.6733H19.38C19.4532 10.676 19.5263 10.6639 19.5948 10.6377C19.6632 10.6116 19.7257 10.5719 19.7785 10.521C19.8313 10.4701 19.8733 10.4092 19.902 10.3417C19.9307 10.2742 19.9454 10.2017 19.9454 10.1284C19.9454 10.0551 19.9307 9.98252 19.902 9.91506C19.8733 9.8476 19.8313 9.78661 19.7785 9.73575C19.7257 9.68488 19.6632 9.64518 19.5948 9.61903C19.5263 9.59287 19.4532 9.58079 19.38 9.58351H16.7662C16.7134 9.00003 16.4688 8.45046 16.0708 8.02062C15.6727 7.59078 15.1434 7.30486 14.5657 7.2075V5.89576C14.5684 5.8225 14.5564 5.74945 14.5302 5.68097C14.504 5.61249 14.4643 5.54999 14.4135 5.4972C14.3626 5.44442 14.3016 5.40243 14.2342 5.37375C14.1667 5.34507 14.0942 5.33029 14.0208 5.33029C13.9475 5.33029 13.875 5.34507 13.8075 5.37375C13.7401 5.40243 13.6791 5.44442 13.6282 5.4972C13.5773 5.54999 13.5377 5.61249 13.5115 5.68097C13.4853 5.74945 13.4733 5.8225 13.476 5.89576V7.17075H12.2445V4.305C12.2472 4.23175 12.2351 4.1587 12.209 4.09022C12.1828 4.02174 12.1431 3.95924 12.0922 3.90645C12.0414 3.85367 11.9804 3.81168 11.9129 3.783C11.8455 3.75432 11.7729 3.73954 11.6996 3.73954C11.6263 3.73954 11.5537 3.75432 11.4863 3.783C11.4188 3.81168 11.3578 3.85367 11.307 3.90645C11.2561 3.95924 11.2164 4.02174 11.1902 4.09022C11.1641 4.1587 11.152 4.23175 11.1547 4.305V7.17001H9.92247V5.89501C9.91724 5.75399 9.85754 5.6205 9.75593 5.52259C9.65432 5.42468 9.5187 5.36997 9.3776 5.36997C9.23649 5.36997 9.10087 5.42468 8.99926 5.52259C8.89765 5.6205 8.83795 5.75399 8.83272 5.89501V7.2075C8.255 7.30486 7.72578 7.59078 7.32769 8.02062C6.9296 8.45046 6.68505 9.00003 6.63222 9.58351H3.55497C3.48172 9.58079 3.40866 9.59287 3.34019 9.61903C3.27171 9.64518 3.2092 9.68488 3.15642 9.73575C3.10363 9.78661 3.06164 9.8476 3.03296 9.91506C3.00428 9.98252 2.9895 10.0551 2.9895 10.1284C2.9895 10.2017 3.00428 10.2742 3.03296 10.3417C3.06164 10.4092 3.10363 10.4701 3.15642 10.521C3.2092 10.5719 3.27171 10.6116 3.34019 10.6377C3.40866 10.6639 3.48172 10.676 3.55497 10.6733H6.62247V11.9048H5.37747C5.30422 11.902 5.23116 11.9141 5.16269 11.9403C5.09421 11.9664 5.0317 12.0061 4.97892 12.057C4.92613 12.1079 4.88414 12.1688 4.85546 12.2363C4.82678 12.3038 4.812 12.3763 4.812 12.4496C4.812 12.5229 4.82678 12.5955 4.85546 12.6629C4.88414 12.7304 4.92613 12.7914 4.97892 12.8423C5.0317 12.8931 5.09421 12.9328 5.16269 12.959C5.23116 12.9851 5.30422 12.9972 5.37747 12.9945H6.62247V14.226H4.25022C4.17697 14.2233 4.10391 14.2354 4.03544 14.2615C3.96696 14.2877 3.90445 14.3274 3.85167 14.3782C3.79888 14.4291 3.75689 14.4901 3.72821 14.5576C3.69953 14.625 3.68475 14.6976 3.68475 14.7709C3.68475 14.8442 3.69953 14.9167 3.72821 14.9842C3.75689 15.0517 3.79888 15.1126 3.85167 15.1635C3.90445 15.2144 3.96696 15.2541 4.03544 15.2802C4.10391 15.3064 4.17697 15.3185 4.25022 15.3158H6.63222C6.68505 15.8992 6.9296 16.4488 7.32769 16.8786C7.72578 17.3085 8.255 17.5944 8.83272 17.6918V18.5393C8.83 18.6125 8.84208 18.6856 8.86824 18.754C8.8944 18.8225 8.9341 18.885 8.98496 18.9378C9.03583 18.9906 9.09681 19.0326 9.16428 19.0613C9.23174 19.0899 9.30429 19.1047 9.3776 19.1047C9.4509 19.1047 9.52345 19.0899 9.59092 19.0613C9.65838 19.0326 9.71936 18.9906 9.77023 18.9378C9.82109 18.885 9.86079 18.8225 9.88695 18.754C9.91311 18.6856 9.92519 18.6125 9.92247 18.5393V17.7285H11.154V20.1968C11.1592 20.3378 11.2189 20.4713 11.3205 20.5692C11.4221 20.6671 11.5577 20.7218 11.6988 20.7218C11.84 20.7218 11.9756 20.6671 12.0772 20.5692C12.1788 20.4713 12.2385 20.3378 12.2437 20.1968V17.7285H13.4752V19.0035C13.4725 19.0768 13.4846 19.1498 13.5107 19.2183C13.5369 19.2868 13.5766 19.3493 13.6275 19.4021C13.6783 19.4548 13.7393 19.4968 13.8068 19.5255C13.8742 19.5542 13.9468 19.569 14.0201 19.569C14.0934 19.569 14.166 19.5542 14.2334 19.5255C14.3009 19.4968 14.3619 19.4548 14.4127 19.4021C14.4636 19.3493 14.5033 19.2868 14.5294 19.2183C14.5556 19.1498 14.5677 19.0768 14.565 19.0035V17.6925C15.1427 17.5951 15.6719 17.3092 16.07 16.8794C16.4681 16.4495 16.7126 15.9 16.7655 15.3165H20.3737C20.447 15.3192 20.52 15.3071 20.5885 15.281C20.657 15.2548 20.7195 15.2151 20.7723 15.1643C20.8251 15.1134 20.867 15.0524 20.8957 14.985C20.9244 14.9175 20.9392 14.8449 20.9392 14.7716C20.9392 14.6983 20.9244 14.6258 20.8957 14.5583C20.867 14.4908 20.8251 14.4299 20.7723 14.379C20.7195 14.3281 20.657 14.2884 20.5885 14.2623C20.52 14.2361 20.447 14.224 20.3737 14.2268H16.7775V12.9953H18.0217V12.9945ZM15.9067 15.081C15.9063 15.5523 15.7189 16.0042 15.3857 16.3374C15.0524 16.6707 14.6005 16.8581 14.1292 16.8585H9.26922C8.79792 16.8581 8.34604 16.6707 8.01278 16.3374C7.67952 16.0042 7.49212 15.5523 7.49172 15.081V9.8175C7.49212 9.3462 7.67952 8.89432 8.01278 8.56106C8.34604 8.2278 8.79792 8.0404 9.26922 8.04001H14.1292C14.6005 8.0404 15.0524 8.2278 15.3857 8.56106C15.7189 8.89432 15.9063 9.3462 15.9067 9.8175V15.0803V15.081Z" fill="white"/>
<path d="M10.4257 9.32626C10.2152 9.32288 10.0047 9.33014 9.79496 9.34801C9.46346 9.38551 9.21971 9.68551 9.20921 10.011C9.19271 10.749 9.20621 11.4885 9.20171 12.2265C9.21221 12.603 9.17621 12.984 9.23171 13.3568C9.28496 13.6898 9.61046 13.9043 9.93371 13.9035C10.9387 13.9103 11.9437 13.9058 12.9487 13.9065V14.3228H9.71246L9.29621 15.5715H12.5167C12.8932 15.561 13.2735 15.597 13.647 15.5423C13.98 15.489 14.1937 15.1635 14.193 14.8403C14.2005 13.5255 14.1945 12.2108 14.1967 10.8953C14.1847 10.5428 14.2275 10.1835 14.1562 9.83551C14.0805 9.48076 13.7002 9.30601 13.3642 9.32776H11.0572C10.8472 9.33151 10.6357 9.32701 10.425 9.32551L10.4257 9.32626ZM10.4505 10.5765H12.948V12.6578H10.4505V10.5765Z" fill="white"/>
</svg>
