<svg width="24" height="24" viewBox="0 0 24 24" fill="none" xmlns="http://www.w3.org/2000/svg">
<path fill-rule="evenodd" clip-rule="evenodd" d="M1.99094 6.04208C2.02806 6.07516 2.05849 6.10023 2.08669 6.12757C2.38793 6.41856 2.68657 6.71217 2.99164 6.99945C3.06006 7.06381 3.06043 7.10799 3.01144 7.18202C2.37222 8.14584 2.13977 9.20184 2.35305 10.3211C2.63894 11.8225 3.51544 12.9165 4.9474 13.5758C5.79321 13.9651 6.69036 14.065 7.61263 13.9288C8.23243 13.8372 8.81288 13.6291 9.34261 13.3017C9.43045 13.2473 9.47857 13.2535 9.5502 13.3238C10.3286 14.0864 11.1118 14.8444 11.8893 15.6077C11.9752 15.6921 12.0196 15.7017 12.112 15.6118C13.0009 14.7461 13.8969 13.8871 14.7858 13.0214C14.8835 12.9261 14.9448 12.9098 15.0729 12.9842C15.8502 13.4356 16.6971 13.6166 17.6026 13.5758C19.4 13.4947 21.0415 12.2824 21.5984 10.6182C22.0202 9.35766 21.8637 8.16172 21.1765 7.02417C21.1316 6.9499 21.1275 6.90393 21.1964 6.83981C21.4469 6.60698 21.6904 6.36734 21.9369 6.13056C21.9599 6.10859 21.9855 6.08925 22.0104 6.06823C24.6441 9.80423 25.0155 15.8143 20.7781 20.2395C16.3895 24.8227 9.1469 25.1795 4.31115 21.2454C-0.599697 17.2501 -1.18361 10.6907 1.99094 6.04208Z" fill="#00A6C4"/>
<path fill-rule="evenodd" clip-rule="evenodd" d="M20.2416 4.55992C15.5287 -0.0911855 7.86585 0.303203 3.77719 4.37425C3.80094 4.40016 3.82407 4.42762 3.84981 4.45246C6.55092 7.06511 9.25253 9.67729 11.952 12.2916C12.028 12.3652 12.071 12.3562 12.1404 12.2883C12.4891 11.9469 12.8413 11.609 13.1936 11.2712C15.4715 9.08661 17.7496 6.90213 20.029 4.71896C20.0901 4.66034 20.1658 4.61592 20.2416 4.55992ZM12.0402 13.9412C8.74531 10.7496 5.45917 7.56672 2.16473 4.37568C2.18849 4.34511 2.20754 4.31598 2.23117 4.29078C3.41954 3.01807 4.7988 1.98977 6.40878 1.25807C7.2875 0.858665 8.20073 0.55765 9.15084 0.360158C10.2449 0.132815 11.351 0.0403966 12.4684 0.0888743C14.0978 0.159322 15.6569 0.519441 17.147 1.16123C18.9388 1.93281 20.4514 3.06093 21.7351 4.48541C21.8094 4.5678 21.7667 4.60469 21.7095 4.6595C20.1127 6.1918 18.5165 7.72469 16.9207 9.25795C15.3282 10.7879 13.7362 12.3182 12.1437 13.8483C12.1148 13.876 12.0839 13.902 12.0402 13.9412Z" fill="#00A6C4"/>
<path fill-rule="evenodd" clip-rule="evenodd" d="M7.79432 11.7042C7.12541 12.2951 5.63852 12.4318 4.65428 11.4827C3.66669 10.5305 3.80191 9.12219 4.4504 8.39001C5.56665 9.49628 6.68129 10.601 7.79432 11.7042Z" fill="#00A6C4"/>
<path fill-rule="evenodd" clip-rule="evenodd" d="M16.4438 11.4756C17.5637 10.3919 18.6784 9.31322 19.793 8.23454C20.2641 8.74355 20.4828 10.043 19.667 11.0009C18.7598 12.0659 17.2632 12.0598 16.4438 11.4756Z" fill="#00A6C4"/>
</svg>
