<svg width="24" height="24" viewBox="0 0 24 24" fill="none" xmlns="http://www.w3.org/2000/svg">
<g clip-path="url(#clip0)">
<path d="M0.627136 3.019C0.26371 3.04758 -0.0160053 3.10475 -0.000284044 3.14763C0.144678 3.49268 1.04099 5.52419 1.05324 5.53644C1.06549 5.54869 1.27375 5.56298 1.51875 5.57319C2.60495 5.61403 3.46451 5.82636 4.3935 6.28575C5.06114 6.61447 5.55523 6.96769 6.06975 7.48016C6.82722 8.23559 7.32132 9.07474 7.61124 10.1017C7.64391 10.2201 7.67045 10.3263 7.67045 10.3426C7.67045 10.3651 7.50507 10.3692 6.77414 10.3692C6.28004 10.3692 5.85537 10.3774 5.82882 10.3876C5.79003 10.4019 5.68794 10.6224 5.26327 11.5963C4.97743 12.2517 4.74059 12.8029 4.7365 12.8213C4.72221 12.8744 4.89372 12.9213 5.32248 12.9846C5.41027 12.9989 5.93703 13.0132 6.55976 13.0214L7.64391 13.0336L7.57858 13.2582C6.84764 15.7369 4.57929 17.4703 1.80051 17.6785C1.6433 17.6888 1.43709 17.699 1.34113 17.699H1.16758L0.632649 18.9301C0.173262 19.9816 0.101802 20.1613 0.132428 20.1715C0.271265 20.2225 0.581606 20.2409 1.30029 20.2409C2.21906 20.2409 2.6662 20.2001 3.42368 20.0449C6.51688 19.4099 9.08741 17.4417 10.2512 14.812C10.4758 14.3056 10.7392 13.4726 10.7861 13.1235L10.8004 13.0234H13.1218L13.13 13.0683C13.2974 13.8891 13.4791 14.4424 13.7936 15.0958C14.7389 17.064 16.5111 18.6708 18.7059 19.5528C20.0388 20.0866 21.4664 20.343 22.9017 20.3062C23.5019 20.2879 23.9797 20.2205 23.9552 20.1572C23.9348 20.1041 22.918 17.7704 22.9119 17.7643C22.9058 17.7582 22.6955 17.75 22.4402 17.7398C21.7236 17.7112 21.1846 17.6275 20.5762 17.454C19.639 17.1844 18.7121 16.6965 18.0016 16.1003C17.1073 15.3469 16.4601 14.4098 16.117 13.3705C16.0783 13.2521 16.0395 13.1276 16.0333 13.0908L16.019 13.0255L16.8929 13.0193C17.3727 13.0153 17.781 13.005 17.7974 12.9969C17.8239 12.9826 18.8693 10.6122 18.8693 10.5652C18.8693 10.5346 18.6059 10.457 18.367 10.4182C18.1914 10.3896 17.9689 10.3814 17.0807 10.3753L16.0048 10.3651L16.0456 10.2201C16.6418 8.10901 18.4711 6.43276 20.8293 5.83861C21.35 5.70794 21.8563 5.64057 22.5138 5.61403C22.9058 5.59769 22.9548 5.59157 22.9793 5.5589C22.9956 5.53644 23.2365 4.99538 23.5142 4.35633C23.8552 3.57435 24.0124 3.18846 23.9981 3.17825C23.9532 3.15375 23.6673 3.10271 23.4427 3.08025C23.1161 3.04554 22.1626 3.05167 21.742 3.08842C19.3368 3.3028 17.1685 4.27262 15.5433 5.85699C14.551 6.82477 13.8548 7.91096 13.4261 9.16458C13.3158 9.48104 13.1831 9.97922 13.1423 10.2201L13.1178 10.3692H10.8357L10.8276 10.3222C10.8214 10.2977 10.799 10.1814 10.7745 10.0629C10.4376 8.38872 9.48615 6.76147 8.1427 5.56298C6.61346 4.19707 4.70649 3.34159 2.6076 3.08168C1.97671 3.00471 1.1635 2.97817 0.627136 3.019Z" fill="#007F88"/>
</g>
<defs>
<clipPath id="clip0">
<rect width="24" height="24" fill="white"/>
</clipPath>
</defs>
</svg>
