<svg width="24" height="24" viewBox="0 0 24 24" fill="none" xmlns="http://www.w3.org/2000/svg">
<path d="M12 24C18.6274 24 24 18.6274 24 12C24 5.37258 18.6274 0 12 0C5.37258 0 0 5.37258 0 12C0 18.6274 5.37258 24 12 24Z" fill="#1591CA"/>
<path d="M12.429 11.454C12.429 11.454 13.4242 9.2415 11.4727 7.104C11.4727 7.104 10.3627 5.679 8.06772 5.7915L8.52597 5.6115C8.60247 5.5815 8.68272 5.5605 8.76372 5.55L9.21522 5.4915L12.3907 5.004C12.3907 5.004 13.5135 4.7835 14.3647 5.0265C14.607 5.09625 14.8275 5.2275 15.0022 5.406C15.4717 5.8815 16.4145 7.13925 15.7972 9.129C15.7972 9.129 15.1845 11.3415 12.8887 11.8665C12.8887 11.8665 12.3142 12.0165 12.429 11.454ZM12.2872 12.687C12.2872 12.687 13.722 14.6542 16.5937 14.1C16.5937 14.1 18.4102 13.8907 19.482 11.8972L19.4055 12.3765C19.3927 12.456 19.3702 12.534 19.338 12.6082L19.1595 13.0185L17.9685 15.9435C17.9685 15.9435 17.5897 17.0017 16.9425 17.5957C16.7567 17.765 16.5304 17.8835 16.2855 17.94C15.6292 18.0922 14.0445 18.246 12.612 16.7115C12.612 16.7115 10.9822 15.0675 11.6917 12.864C11.6917 12.8625 11.8522 12.3037 12.2872 12.687ZM11.2485 11.9767C11.2485 11.9767 8.79597 12.2347 7.87722 14.958C7.87722 14.958 7.16922 16.611 8.41272 18.5055L8.02497 18.2055C7.96052 18.1557 7.90257 18.098 7.85247 18.0337L7.57497 17.6797L5.56197 15.225C5.56197 15.225 4.80672 14.3797 4.59897 13.5375C4.53897 13.296 4.54497 13.0425 4.61547 12.804C4.80222 12.1687 5.44497 10.7415 7.51272 10.275C7.51272 10.275 9.77547 9.69225 11.3842 11.382C11.3857 11.382 11.8042 11.7945 11.2492 11.9767H11.2485Z" fill="white"/>
<path opacity="0.5" d="M12.8295 12.1192C12.8295 12.1192 15.2745 11.8012 16.122 9.05549C16.122 9.05549 16.7873 7.38524 15.4943 5.52224L15.8903 5.81249C15.9555 5.86124 16.0155 5.91749 16.0673 5.97974L16.353 6.32624L18.4305 8.73074C18.4305 8.73074 19.206 9.55574 19.437 10.3942C19.5023 10.6342 19.5023 10.8862 19.437 11.1262C19.2668 11.766 18.6615 13.2097 16.6058 13.7272C16.6058 13.7272 14.3588 14.3647 12.7073 12.7177C12.7088 12.7177 12.2798 12.3157 12.8295 12.1192ZM11.601 12.5722C11.601 12.5722 10.5503 14.7592 12.4462 16.944C12.4462 16.944 13.518 18.3952 15.8175 18.339L15.354 18.5077C15.2768 18.5356 15.1964 18.554 15.1148 18.5625L14.6625 18.6105L11.475 19.02C11.475 19.02 10.3478 19.2127 9.5025 18.9487C9.26279 18.8731 9.0466 18.7369 8.87475 18.5535C8.41725 18.066 7.5075 16.7865 8.17575 14.8132C8.17575 14.8132 8.84325 12.6157 11.1525 12.1477C11.1525 12.15 11.7323 12.0127 11.601 12.5722ZM11.6828 11.4195C11.6828 11.4195 10.2188 9.47249 7.356 10.0695C7.356 10.0695 5.5425 10.3035 4.5 12.312L4.569 11.8312C4.58079 11.7514 4.60246 11.6733 4.6335 11.5987L4.806 11.1862L5.9535 8.24324C5.9535 8.24324 6.31725 7.17974 6.9555 6.57674C7.13961 6.40518 7.36487 6.28402 7.6095 6.22499C8.2635 6.06224 9.846 5.88749 11.2995 7.40174C11.2995 7.40174 12.9533 9.02249 12.276 11.2357C12.276 11.2342 12.123 11.7967 11.6828 11.4195Z" fill="white"/>
</svg>
