<svg width="24" height="24" viewBox="0 0 24 24" fill="none" xmlns="http://www.w3.org/2000/svg">
<g clip-path="url(#clip0)">
<path d="M4.94766 3.48619C6.93533 1.82889 9.52434 0.896579 12.1146 0.951742C15.2758 0.943255 18.3843 2.42477 20.4205 4.83434C24.3783 9.48498 23.8151 16.464 19.1651 20.4217C17.6443 21.7154 15.8016 22.5732 13.8326 22.9041C11.8636 23.2349 9.84171 23.0265 7.98161 22.3009C7.03839 21.9296 6.14926 21.4333 5.33804 20.8255C5.53081 19.3742 6.24732 18.0049 7.29359 16.9853C8.44385 15.8596 9.96032 15.1847 11.5666 15.0837C11.9909 15.0443 12.4152 15.0788 12.8426 15.0588C14.4852 15.0177 16.1102 15.406 17.5569 16.1851C17.7515 16.2876 18.0085 16.3967 18.0206 16.6531C18.0533 16.9816 17.706 17.1229 17.5041 17.3102C18.0315 17.2908 18.5231 17.0489 18.9693 16.7846C19.3936 16.5422 19.5197 15.8942 19.1766 15.5304C18.5934 14.8806 17.9642 14.2756 17.372 13.6331C17.2089 13.4512 16.9828 13.2924 16.9367 13.0336C16.4161 11.0809 15.1696 9.40075 13.4518 8.33626C12.4049 7.66401 11.1853 7.27787 9.94928 7.16269C7.29662 6.83838 4.60335 6.93537 1.96948 7.37304C2.63143 5.86667 3.68801 4.54641 4.94766 3.48619Z" fill="white"/>
<path d="M13.1269 10.2263C13.3054 10.355 13.4697 10.5026 13.6167 10.6664C14.1526 11.201 14.6908 11.7333 15.2225 12.2728C15.3363 12.3776 15.438 12.4949 15.5256 12.6225C15.1073 12.6371 14.689 12.6322 14.2714 12.6225C14.0192 12.077 13.7325 11.546 13.4706 11.004C13.35 10.7476 13.1972 10.5033 13.1269 10.2263Z" fill="white"/>
<path d="M11.412 0.0145525C13.2053 -0.0734233 14.9954 0.24235 16.6504 0.938575C18.3053 1.6348 19.7828 2.69371 20.9739 4.03718C25.3724 8.98788 24.9244 16.567 19.9731 20.9654C19.2477 21.61 18.4467 22.164 17.5878 22.6155C14.5902 24.2176 10.904 24.434 7.73365 23.2144C5.75618 22.4605 4.01294 21.1976 2.68034 19.5536C1.34774 17.9095 0.473076 15.9426 0.144848 13.8519C-0.315245 10.958 0.33034 7.90221 1.94461 5.45565C3.4268 3.18267 5.6337 1.47734 8.20708 0.616492C9.24364 0.273377 10.3216 0.0709239 11.412 0.0145525ZM4.94764 3.48616C3.68799 4.54638 2.63141 5.86664 1.96946 7.37665C4.60332 6.93898 7.2966 6.84199 9.94925 7.1663C11.1853 7.28147 12.4049 7.66761 13.4518 8.33987C15.1696 9.40436 16.4161 11.0845 16.9367 13.0372C16.9828 13.296 17.2089 13.4518 17.372 13.6367C17.963 14.2793 18.5934 14.8842 19.1766 15.5341C19.5197 15.8978 19.396 16.5452 18.9693 16.7882C18.5231 17.0525 18.0315 17.2944 17.5041 17.3138C17.706 17.1265 18.0533 16.9853 18.0206 16.6567C18.0085 16.4003 17.7514 16.293 17.5568 16.1887C16.1103 15.4085 14.485 15.0194 12.842 15.06C12.4176 15.08 11.9933 15.0455 11.569 15.0849C9.96272 15.1859 8.44625 15.8608 7.29599 16.9865C6.24972 18.0049 5.53321 19.3754 5.34044 20.8266C6.15166 21.4345 7.04079 21.9307 7.98401 22.3021C13.6749 24.5189 20.0858 21.702 22.302 16.0105C23.0263 14.1514 23.234 12.1309 22.9032 10.1634C22.5723 8.19577 21.7153 6.35436 20.4229 4.83431C18.3867 2.42413 15.2776 0.943225 12.1182 0.954742C9.52796 0.89958 6.93895 1.83189 4.95127 3.48919L4.94764 3.48616ZM13.1287 10.2293C13.199 10.5064 13.3518 10.7507 13.4736 11.0065C13.7355 11.5484 14.0192 12.0782 14.2744 12.625C14.692 12.6353 15.1103 12.6401 15.5286 12.625C15.441 12.4974 15.3393 12.38 15.2255 12.2752C14.6938 11.7357 14.1556 11.2035 13.6197 10.6688C13.4719 10.5039 13.3067 10.3555 13.1269 10.2263L13.1287 10.2293Z" fill="#333333"/>
</g>
<defs>
<clipPath id="clip0">
<rect width="24" height="23.9951" fill="white"/>
</clipPath>
</defs>
</svg>
