<svg width="24" height="24" viewBox="0 0 24 24" fill="none" xmlns="http://www.w3.org/2000/svg">
<path fill-rule="evenodd" clip-rule="evenodd" d="M24 12C24 18.6274 18.6274 24 12 24C5.37255 24 0 18.6274 0 12C0 5.37255 5.37255 0 12 0C18.6274 0 24 5.37255 24 12Z" fill="#FFFFFE"/>
<path fill-rule="evenodd" clip-rule="evenodd" d="M12 22.9171C5.98031 22.9171 1.08285 18.0197 1.08285 12C1.08285 5.98024 5.98031 1.08285 12 1.08285C18.0197 1.08285 22.9171 5.98024 22.9171 12C22.9171 18.0197 18.0197 22.9171 12 22.9171ZM12 0C5.37255 0 0 5.37255 0 12C0 18.6274 5.37255 24 12 24C18.6274 24 24 18.6274 24 12C24 5.37255 18.6274 0 12 0Z" fill="#3A3A39"/>
<path fill-rule="evenodd" clip-rule="evenodd" d="M17.5489 11.502C17.4394 11.502 17.3281 11.4843 17.2187 11.4469L6.12111 7.65918C5.58708 7.47686 5.30199 6.89622 5.48425 6.36219C5.6665 5.82815 6.24728 5.54307 6.78124 5.72532L17.8788 9.51308C18.4128 9.6954 18.698 10.276 18.5157 10.8101C18.3708 11.2347 17.9739 11.502 17.5489 11.502Z" fill="#4FA2CD"/>
<path fill-rule="evenodd" clip-rule="evenodd" d="M17.5489 14.9159C17.4394 14.9159 17.3281 14.8982 17.2187 14.8609L6.12111 11.073C5.58708 10.8908 5.30199 10.3101 5.48425 9.77602C5.6665 9.24206 6.24714 8.95677 6.78124 9.13916L17.8788 12.927C18.4128 13.1092 18.698 13.6899 18.5157 14.224C18.3708 14.6486 17.9739 14.9159 17.5489 14.9159Z" fill="#4365A1"/>
<path fill-rule="evenodd" clip-rule="evenodd" d="M17.5489 18.3298C17.4394 18.3298 17.3281 18.312 17.2187 18.2747L6.12111 14.4869C5.58708 14.3046 5.30199 13.7239 5.48425 13.1899C5.6665 12.6559 6.24728 12.3709 6.78124 12.553L17.8788 16.3408C18.4128 16.5231 18.698 17.1038 18.5157 17.6377C18.3708 18.0624 17.9739 18.3298 17.5489 18.3298Z" fill="#3D2C78"/>
</svg>
