<svg width="24" height="24" viewBox="0 0 24 24" fill="none" xmlns="http://www.w3.org/2000/svg">
<path d="M11.3926 0L1 6V18L11.3926 24L21.7852 18V6L11.3926 0ZM11.6051 19.4365L3.62818 14.8868L3.66051 12.6744L11.6005 17.2194L15.4296 15.0115L12.8614 13.5289L11.9007 14.0831L10.0993 13.0485L11.0647 12.4896L9.8037 11.7598L9.04157 12.2032L7.23557 11.1686L8.00231 10.7252L3.93303 8.37414L11.6005 3.94919L18.8337 8.0739L16.8938 9.20092L11.6005 6.16628L7.77136 8.37414L9.91455 9.61201L11.0092 8.9746L12.8152 10.0092L11.7113 10.6467L12.9723 11.3764L13.8684 10.8545L15.6744 11.8891L14.7691 12.4157L19.2587 15.0069L11.6051 19.4365Z" fill="black"/>
</svg>
