<svg width="24" height="24" viewBox="0 0 24 24" fill="none" xmlns="http://www.w3.org/2000/svg">
<path d="M15.9442 1.95349C15.9256 1.24651 16.5581 0.576744 17.3767 0.613954C18.0837 0.651163 18.6791 1.26512 18.6791 2.0093C18.6791 2.77209 18.0465 3.36744 17.2651 3.34884C16.5209 3.33023 15.9256 2.71628 15.9442 1.95349ZM18.8465 19.907C19.6093 19.907 20.2047 20.5023 20.2047 21.2651C20.2047 22.0279 19.5907 22.6419 18.8279 22.6419C18.0837 22.6419 17.4698 22.0279 17.4698 21.2837C17.4698 20.5023 18.0837 19.907 18.8465 19.907ZM1.35814 14.3256C0.576744 14.3256 0 13.7116 0 12.9302C0 12.186 0.613953 11.5907 1.37674 11.6093C2.13953 11.6093 2.73488 12.2233 2.73488 13.0047C2.71628 13.7302 2.10233 14.3256 1.35814 14.3256ZM16.5209 5.6C16.5209 4.94884 17.0419 4.42791 17.693 4.42791C18.3256 4.42791 18.8465 4.94884 18.8651 5.5814C18.8651 6.21395 18.3442 6.75349 17.693 6.77209C17.0419 6.77209 16.5209 6.25116 16.5209 5.6ZM4.29767 9.65581C4.94884 9.65581 5.48837 10.1767 5.48837 10.8093C5.48837 11.4419 4.94884 11.9814 4.31628 11.9814C3.66512 11.9814 3.14419 11.4605 3.14419 10.8093C3.14419 10.1767 3.64651 9.65581 4.29767 9.65581ZM20.7256 7.1814C20.093 7.1814 19.5535 6.66047 19.5721 6.02791C19.5721 5.37674 20.1116 4.85581 20.7442 4.85581C21.3767 4.87442 21.8977 5.39535 21.8977 6.02791C21.9163 6.67907 21.3767 7.1814 20.7256 7.1814ZM15.5163 20.9674C14.8651 20.9674 14.3442 20.4279 14.3442 19.7953C14.3442 19.1628 14.8651 18.6419 15.5163 18.6233C16.1488 18.6046 16.6884 19.1628 16.6884 19.7953C16.6884 20.4279 16.1488 20.9674 15.5163 20.9674ZM4.31628 7.96279C4.31628 8.61395 3.79535 9.13488 3.14419 9.11628C2.51163 9.11628 1.9907 8.59535 1.9907 7.94419C1.9907 7.31163 2.51163 6.77209 3.14419 6.77209C3.77674 6.77209 4.31628 7.31163 4.31628 7.96279ZM13.6 23.386C12.9488 23.386 12.4465 22.8651 12.4465 22.214C12.4465 21.5628 12.9674 21.0605 13.6 21.0605C14.2512 21.0605 14.7721 21.5814 14.7721 22.2326C14.7721 22.8837 14.2512 23.386 13.6 23.386ZM10.1581 20.3535C10.1581 19.7953 10.6047 19.3674 11.1442 19.3674C11.7023 19.3674 12.1488 19.8326 12.1302 20.3907C12.1302 20.9488 11.6837 21.3767 11.1256 21.3767C10.586 21.3767 10.1395 20.9302 10.1581 20.3535ZM21.3581 9.09767C21.3581 9.65581 20.9116 10.1023 20.3535 10.1023C19.814 10.1023 19.3674 9.65581 19.3674 9.09767C19.3674 8.53954 19.814 8.09302 20.3721 8.09302C20.9116 8.09302 21.3581 8.53954 21.3581 9.09767ZM6.97674 6.75349C6.97674 7.31163 6.53023 7.73953 5.9907 7.73953C5.43256 7.73953 4.98605 7.29302 5.00465 6.73488C5.00465 6.17674 5.43256 5.74884 5.9907 5.74884C6.56744 5.74884 6.99535 6.17674 6.97674 6.75349ZM8.14884 9.6C8.14884 10.1581 7.72093 10.6047 7.16279 10.6047C6.60465 10.6047 6.15814 10.1767 6.15814 9.6186C6.15814 9.04186 6.58605 8.61395 7.16279 8.61395C7.72093 8.61395 8.14884 9.04186 8.14884 9.6ZM4.59535 4.14884C4.59535 3.5907 5.04186 3.16279 5.6 3.16279C6.15814 3.16279 6.58605 3.6093 6.58605 4.16744C6.58605 4.72558 6.15814 5.15349 5.6 5.17209C5.02326 5.15349 4.57674 4.70698 4.59535 4.14884ZM16.3163 8.66977C16.3163 8.11163 16.7628 7.66512 17.3023 7.66512C17.8605 7.66512 18.307 8.11163 18.307 8.66977C18.307 9.22791 17.8605 9.65581 17.3023 9.65581C16.7442 9.67442 16.3163 9.22791 16.3163 8.66977ZM13.0419 16.9302C13.5814 16.9302 14.0279 17.3767 14.0279 17.9349C14.0279 18.493 13.5814 18.9395 13.0233 18.9209C12.4651 18.9209 12.0372 18.4744 12.0372 17.9163C12.0372 17.3767 12.4837 16.9302 13.0419 16.9302ZM10.1023 22.0279C10.1023 22.586 9.67442 23.014 9.11628 23.014C8.55814 23.014 8.11163 22.5674 8.11163 22.0279C8.11163 21.4698 8.55814 21.0233 9.11628 21.0233C9.67442 21.0233 10.1023 21.4698 10.1023 22.0279ZM22.7907 11.0326C22.2512 11.0326 21.8047 10.5674 21.8047 10.0465C21.8047 9.48837 22.2698 9.04186 22.8279 9.04186C23.3674 9.04186 23.8326 9.50698 23.814 10.0465C23.814 10.586 23.3488 11.0326 22.7907 11.0326ZM10.307 18.3628C10.307 18.8279 9.91628 19.2186 9.45116 19.2186C8.96744 19.2186 8.59535 18.8279 8.59535 18.3628C8.59535 17.8791 8.98605 17.507 9.46977 17.507C9.93488 17.507 10.307 17.8791 10.307 18.3628ZM8.59535 5.43256C9.07907 5.43256 9.45116 5.80465 9.45116 6.28837C9.45116 6.75349 9.06047 7.14419 8.59535 7.14419C8.13023 7.14419 7.72093 6.75349 7.73954 6.26977C7.73954 5.82326 8.13023 5.43256 8.59535 5.43256ZM10.493 15.9256C10.493 15.4419 10.8651 15.0698 11.3302 15.0698C11.814 15.0698 12.2047 15.4419 12.2047 15.9256C12.2047 16.3907 11.8326 16.7814 11.3488 16.7814C10.8651 16.7628 10.493 16.4093 10.493 15.9256ZM7.42326 20.8558C6.93954 20.8558 6.54884 20.4837 6.54884 20.0186C6.54884 19.5535 6.92093 19.1628 7.40465 19.1628C7.88837 19.1628 8.27907 19.5349 8.26047 20.0186C8.26047 20.4837 7.90698 20.8558 7.42326 20.8558ZM17.2465 11.1628C17.2465 11.6279 16.8744 12 16.4093 12C15.9256 12 15.5535 11.6279 15.5535 11.1442C15.5535 10.6605 15.9256 10.2884 16.4093 10.2884C16.893 10.2884 17.2465 10.6605 17.2465 11.1628ZM8.16744 4.53953C7.68372 4.53953 7.31163 4.18605 7.31163 3.70233C7.31163 3.2186 7.70233 2.82791 8.16744 2.82791C8.63256 2.82791 9.02326 3.2186 9.02326 3.68372C9.02326 4.16744 8.65116 4.53953 8.16744 4.53953ZM19.4605 12.4093C18.9767 12.4093 18.6233 12.0372 18.6233 11.5535C18.6233 11.0884 18.9953 10.7163 19.4791 10.6977C19.9628 10.6977 20.3349 11.0698 20.3163 11.5721C20.3163 12.0744 19.9442 12.4279 19.4605 12.4093ZM9.73023 9.9907C9.26512 9.9907 8.89302 9.6 8.89302 9.13488C8.89302 8.66977 9.30233 8.29767 9.76744 8.29767C10.2326 8.29767 10.6047 8.68837 10.6047 9.15349C10.6047 9.6186 10.214 9.9907 9.73023 9.9907ZM21.8977 13.3581C21.414 13.3395 21.0419 12.9488 21.0605 12.4651C21.0791 12 21.4698 11.6279 21.9349 11.6465C22.4186 11.6651 22.7907 12.0558 22.7721 12.5581C22.7535 13.0233 22.3628 13.3767 21.8977 13.3581ZM11.9814 9.9907C11.5721 9.9907 11.2558 9.67442 11.2558 9.26512C11.2558 8.85581 11.5907 8.53953 12 8.53953C12.4093 8.53953 12.7256 8.85581 12.7256 9.26512C12.707 9.67442 12.3907 9.9907 11.9814 9.9907ZM19.9628 14.3814C19.9628 13.9721 20.2791 13.6558 20.6884 13.6372C21.0977 13.6372 21.414 13.9535 21.414 14.3628C21.414 14.7721 21.0605 15.1442 20.6884 15.1256C20.2977 15.1256 19.9814 14.7907 19.9628 14.3814ZM11.1256 3.81395C11.1256 4.22326 10.8093 4.53953 10.4 4.53953C9.9907 4.53953 9.67442 4.20465 9.67442 3.79535C9.67442 3.38605 10.0093 3.06977 10.4372 3.06977C10.8279 3.08837 11.1256 3.40465 11.1256 3.81395ZM11.0512 13.9349C11.0512 14.3442 10.7349 14.6605 10.3442 14.6605C9.91628 14.6605 9.6 14.3442 9.6 13.9349C9.6 13.5256 9.91628 13.2093 10.3256 13.2093C10.7349 13.1907 11.0512 13.507 11.0512 13.9349ZM8.44651 17.0791C8.03721 17.0791 7.70233 16.7628 7.70233 16.3535C7.70233 15.9442 8.03721 15.6093 8.44651 15.6093C8.83721 15.6093 9.17209 15.9442 9.17209 16.3349C9.17209 16.7628 8.85581 17.0791 8.44651 17.0791ZM18.9767 13.4512C18.9767 13.8791 18.6605 14.1767 18.2512 14.1767C17.8605 14.1767 17.5256 13.8233 17.5256 13.4326C17.5256 13.0233 17.8605 12.707 18.2698 12.707C18.6605 12.707 18.9767 13.0419 18.9767 13.4512ZM15.2 12.2977C15.6279 12.2977 15.9256 12.5953 15.9256 13.0233C15.9256 13.4326 15.6093 13.7674 15.2 13.7488C14.7907 13.7488 14.4558 13.414 14.4558 13.0233C14.4558 12.614 14.7721 12.2977 15.2 12.2977ZM7.12558 18.0093C7.12558 18.4186 6.7907 18.7349 6.4 18.7349C5.9907 18.7349 5.67442 18.4186 5.67442 18.0093C5.67442 17.6 6.0093 17.2651 6.4 17.2651C6.7907 17.2837 7.12558 17.6186 7.12558 18.0093ZM10.8279 7.12558C10.4186 7.12558 10.1023 6.8093 10.1023 6.4C10.1023 6.0093 10.4372 5.67442 10.8465 5.65581C11.2372 5.63721 11.5721 5.9907 11.5721 6.4C11.5535 6.8093 11.2372 7.12558 10.8279 7.12558ZM17.507 14.7535C17.507 15.107 17.2279 15.4047 16.8744 15.4047C16.5209 15.4047 16.2605 15.1256 16.2605 14.7721C16.2605 14.4186 16.5395 14.1395 16.8744 14.1395C17.2279 14.1395 17.507 14.4186 17.507 14.7535ZM10.493 12.093C10.493 12.4465 10.214 12.7256 9.86047 12.7256C9.54419 12.7256 9.22791 12.4093 9.22791 12.093C9.22791 11.7581 9.52558 11.4419 9.87907 11.4605C10.214 11.4605 10.493 11.7395 10.493 12.093ZM5.95349 15.5535C6.30698 15.5535 6.58605 15.8326 6.56744 16.186C6.56744 16.5209 6.26977 16.8186 5.93488 16.8186C5.5814 16.8 5.30233 16.5023 5.30233 16.1674C5.30233 15.7953 5.5814 15.5349 5.95349 15.5535ZM13.8047 10.4C13.4512 10.4 13.1721 10.1395 13.1721 9.78605C13.1721 9.43256 13.4326 9.15349 13.8047 9.15349C14.1581 9.15349 14.4372 9.43256 14.4372 9.76744C14.4372 10.1209 14.1581 10.4 13.8047 10.4ZM12.6512 6.28837C13.0047 6.28837 13.2651 6.56744 13.2651 6.92093C13.2651 7.27442 12.986 7.55349 12.6326 7.55349C12.2791 7.55349 12 7.27442 12 6.90233C12.0186 6.56744 12.2977 6.28837 12.6512 6.28837ZM8.59535 14.5116C8.59535 14.8651 8.31628 15.1442 7.9814 15.1628C7.64651 15.1628 7.34884 14.8465 7.34884 14.5116C7.34884 14.1581 7.62791 13.8977 7.9814 13.8977C8.33488 13.8977 8.59535 14.1581 8.59535 14.5116ZM13.8419 13.7302C14.1953 13.7302 14.4558 14.0093 14.4558 14.3628C14.4558 14.7163 14.1767 14.9767 13.8233 14.9767C13.4512 14.9767 13.1907 14.6977 13.1907 14.3442C13.2093 13.9907 13.4884 13.7116 13.8419 13.7302ZM19.9628 15.6837C19.9628 16.0558 19.7023 16.3349 19.3302 16.3163C18.9767 16.3163 18.7163 16.0372 18.6977 15.6837C18.6977 15.3488 18.9767 15.0512 19.3116 15.0512C19.6651 15.0698 19.9628 15.3488 19.9628 15.6837ZM12.2419 3.70233C12.5953 3.70233 12.8558 3.96279 12.8558 4.31628C12.8558 4.66977 12.5767 4.94884 12.2419 4.94884C11.8884 4.94884 11.6093 4.66977 11.6093 4.31628C11.6093 3.96279 11.8884 3.70233 12.2419 3.70233ZM14.1767 5.11628C14.1767 5.41395 13.9349 5.65581 13.6186 5.63721C13.3209 5.63721 13.0977 5.39535 13.0977 5.09767C13.0977 4.8 13.3395 4.55814 13.6372 4.55814C13.9535 4.57674 14.1953 4.8186 14.1767 5.11628ZM5.37674 14.5302C5.37674 14.2326 5.61861 14.0093 5.91628 14.0093C6.21395 14.0093 6.47442 14.2698 6.45581 14.5674C6.43721 14.8651 6.19535 15.107 5.91628 15.107C5.6 15.0884 5.35814 14.8465 5.37674 14.5302ZM18.493 16.5209C18.493 16.8372 18.2512 17.0791 17.9535 17.0791C17.6558 17.0791 17.3953 16.8372 17.3953 16.5395C17.3953 16.2419 17.6372 16 17.9535 16C18.2512 16 18.4744 16.2233 18.493 16.5209ZM8.48372 12.9116C8.48372 13.2093 8.24186 13.4512 7.94419 13.4512C7.64651 13.4512 7.40465 13.1907 7.40465 12.893C7.40465 12.5953 7.66512 12.3721 7.94419 12.3721C8.24186 12.3721 8.48372 12.5953 8.48372 12.9116ZM14.0465 8.24186C13.7302 8.24186 13.507 8 13.507 7.70233C13.507 7.40465 13.7488 7.1814 14.0465 7.1814C14.3628 7.1814 14.586 7.40465 14.586 7.72093C14.6047 8.0186 14.3814 8.24186 14.0465 8.24186ZM15.4977 15.0698C15.7954 15.0698 16.0186 15.293 16.0186 15.6093C16.0186 15.9256 15.7767 16.1674 15.4605 16.1674C15.1628 16.1674 14.9395 15.9256 14.9395 15.6279C14.9581 15.293 15.2 15.0698 15.4977 15.0698ZM6.64186 13.2093C6.64186 13.4698 6.43721 13.6744 6.17674 13.6744C5.93488 13.6744 5.69302 13.4512 5.71163 13.1907C5.71163 12.9302 5.93488 12.7256 6.19535 12.7256C6.45581 12.7442 6.66047 12.9488 6.64186 13.2093ZM17.0977 16.9674C17.0977 17.2279 16.893 17.4326 16.6326 17.4326C16.3907 17.4326 16.1674 17.2093 16.1674 16.9674C16.1674 16.707 16.3907 16.5023 16.6512 16.5023C16.9116 16.5023 17.0977 16.707 17.0977 16.9674ZM14.6605 5.5814C14.9395 5.5814 15.1442 5.76744 15.1442 6.04651C15.1442 6.30698 14.9395 6.51163 14.6791 6.51163C14.4186 6.51163 14.214 6.32558 14.214 6.06512C14.1953 5.76744 14.3814 5.5814 14.6605 5.5814Z" fill="#01A996"/>
</svg>
