<svg width="24" height="24" viewBox="0 0 24 24" fill="none" xmlns="http://www.w3.org/2000/svg">
<path d="M12 24C18.6274 24 24 18.6274 24 12C24 5.37258 18.6274 0 12 0C5.37258 0 0 5.37258 0 12C0 18.6274 5.37258 24 12 24Z" fill="#55DDFF"/>
<path d="M8.87251 7.59C8.87734 6.16796 9.41217 4.7988 10.3725 3.75C10.635 3.4875 10.665 3.435 10.665 3.225C10.665 3.015 10.665 3 10.5075 3C10.3128 3.02156 10.1198 3.05665 9.93001 3.105C7.69147 3.6338 5.73726 4.99291 4.46251 6.9075C3.84705 7.81539 3.41401 8.8343 3.18751 9.9075C2.99972 10.896 2.95426 11.9062 3.05251 12.9075C3.32807 15.1294 4.44462 17.1612 6.17251 18.585C7.09501 19.335 8.13001 19.935 8.13001 19.665C8.06948 19.5487 7.98813 19.4445 7.89001 19.3575C7.42591 18.846 7.07882 18.2395 6.87288 17.5802C6.66694 16.921 6.6071 16.2247 6.69751 15.54C6.76422 14.6892 7.0297 13.866 7.47259 13.1365C7.91549 12.407 8.52343 11.7917 9.24751 11.34C9.43044 11.2097 9.62356 11.0943 9.82501 10.995C9.93751 10.995 9.87001 10.77 9.59251 10.245C9.11772 9.44102 8.86896 8.5237 8.87251 7.59ZM20.505 9.93C20.2398 8.6381 19.6938 7.42027 18.9058 6.36271C18.1179 5.30514 17.1071 4.43369 15.945 3.81C15.525 3.5775 15.315 3.525 15.315 3.6675C15.3547 3.78743 15.4156 3.89922 15.495 3.9975C15.9599 4.65791 16.2207 5.44025 16.245 6.2475C16.2923 6.66838 16.2498 7.0945 16.1206 7.49781C15.9913 7.90113 15.7781 8.2725 15.495 8.5875C15.3496 8.74162 15.1496 8.83265 14.9379 8.84106C14.7262 8.84948 14.5197 8.7746 14.3625 8.6325C14.0625 8.415 14.0625 8.265 14.25 7.9875C14.6473 7.40317 14.8447 6.70587 14.8125 6C14.8416 5.71621 14.8069 5.4295 14.7109 5.16087C14.6149 4.89224 14.4599 4.6485 14.2575 4.4475C14.0733 4.25652 13.8402 4.11983 13.5836 4.05238C13.327 3.98492 13.0568 3.98929 12.8025 4.065C12.4389 4.21151 12.1171 4.44568 11.8659 4.74664C11.6146 5.04761 11.4417 5.40603 11.3625 5.79C11.1905 6.345 11.0897 6.9196 11.0625 7.5C11.068 8.38875 11.2867 9.2632 11.7 10.05C11.9884 10.5022 12.3451 10.907 12.7575 11.25C12.84 11.304 12.9128 11.37 12.975 11.445C12.9025 11.5046 12.8181 11.5481 12.7275 11.5725C12.1479 11.8468 11.629 12.2343 11.2013 12.7121C10.7737 13.19 10.446 13.7486 10.2375 14.355C9.96298 15.0589 9.8403 15.8129 9.87751 16.5675C9.86234 16.9232 9.92117 17.2782 10.0503 17.6099C10.1794 17.9417 10.3759 18.2431 10.6275 18.495C10.9122 18.7414 11.2491 18.9201 11.6129 19.0175C11.9766 19.115 12.3577 19.1286 12.7275 19.0575C13.7182 18.9834 14.6447 18.5389 15.3225 17.8125C15.63 17.4825 15.69 17.445 15.75 17.52C15.81 17.595 15.795 17.64 15.6825 17.8275C14.9703 19.0439 13.8274 19.9486 12.48 20.3625C12.2175 20.43 12.105 20.4825 12.105 20.5425C12.105 20.7375 13.7475 20.4675 14.745 20.115C16.0173 19.6501 17.1694 18.9063 18.1168 17.9382C19.0642 16.97 19.7828 15.8021 20.22 14.52C20.5434 13.6271 20.6837 12.6783 20.6325 11.73C20.6667 11.127 20.6239 10.5221 20.505 9.93Z" fill="white"/>
</svg>
