<svg width="24" height="24" viewBox="0 0 24 24" fill="none" xmlns="http://www.w3.org/2000/svg">
<g clip-path="url(#clip0)">
<path d="M1.02449 7.48166C1.34679 7.15281 1.76809 6.93878 2.22374 6.87243C2.67939 6.80607 3.14423 6.89104 3.54694 7.11431L12.1673 12.0123L3.52245 16.9102C3.11953 17.1327 2.65488 17.2172 2.19943 17.1509C1.74398 17.0845 1.32274 16.871 1 16.5429C1.02449 16.5429 1.02449 6.8939 1.02449 7.48166Z" fill="url(#paint0_linear)"/>
<path d="M21.5469 4.98345C21.6617 5.41172 21.63 5.86607 21.457 6.27429C21.2839 6.68251 20.9794 7.02119 20.5918 7.23651L12.1673 12.012L3.52245 7.11406C3.11953 6.8916 2.65488 6.80708 2.19943 6.87341C1.74398 6.93974 1.32274 7.15327 1 7.4814C1.00572 6.95441 1.15166 6.43844 1.42281 5.98652C1.69396 5.5346 2.08055 5.16302 2.54286 4.90998L10.4776 0.403854C10.9442 0.138954 11.4716 -0.000305176 12.0082 -0.000305176C12.5447 -0.000305176 13.0721 0.138954 13.5388 0.403854L21.5469 4.98345Z" fill="url(#paint1_linear)"/>
<path d="M3.52245 16.9102L20.5918 7.23676C21.4 6.77146 21.5959 5.84085 21.3755 4.9837C22.2816 5.52248 22.649 6.50207 22.649 7.53064V16.5184C22.649 17.5959 22.2327 18.5755 21.302 19.1143L13.4653 23.5959C13.0075 23.8606 12.488 23.9999 11.9592 23.9999C11.4304 23.9999 10.9109 23.8606 10.4531 23.5959L2.51837 19.1143C2.066 18.8519 1.68873 18.4775 1.42282 18.0272C1.15691 17.5769 1.01131 17.0657 1 16.5429C1.32274 16.871 1.74398 17.0846 2.19943 17.1509C2.65488 17.2172 3.11953 17.1327 3.52245 16.9102Z" fill="url(#paint2_linear)"/>
</g>
<defs>
<linearGradient id="paint0_linear" x1="2.2098" y1="17.3315" x2="6.99755" y2="9.03921" gradientUnits="userSpaceOnUse">
<stop stop-color="#00DAD9"/>
<stop offset="1" stop-color="#095FA7"/>
</linearGradient>
<linearGradient id="paint1_linear" x1="8.51837" y1="1.45936" x2="14.0384" y2="11.0202" gradientUnits="userSpaceOnUse">
<stop stop-color="#0BF7DF"/>
<stop offset="1" stop-color="#0095FF"/>
</linearGradient>
<linearGradient id="paint2_linear" x1="24.2261" y1="8.67921" x2="4.52408" y2="22.4743" gradientUnits="userSpaceOnUse">
<stop stop-color="#00FCC6"/>
<stop offset="1" stop-color="#0095FF"/>
</linearGradient>
<clipPath id="clip0">
<rect width="24" height="24" fill="white"/>
</clipPath>
</defs>
</svg>
