<svg width="24" height="24" viewBox="0 0 24 24" fill="none" xmlns="http://www.w3.org/2000/svg">
<path d="M12 24C18.6274 24 24 18.6274 24 12C24 5.37258 18.6274 0 12 0C5.37258 0 0 5.37258 0 12C0 18.6274 5.37258 24 12 24Z" fill="#0093DD"/>
<path fill-rule="evenodd" clip-rule="evenodd" d="M10.125 12L14.025 15.975L16.5 13.5C16.95 13.05 17.625 13.05 18 13.5C18.45 13.95 18.45 14.7 18 15.15L14.775 18.45C14.325 18.9 13.65 18.9 13.2 18.45L8.54999 13.65V16.5C8.54999 17.1 8.02499 17.625 7.42499 17.625C6.82499 17.625 6.29999 17.1 6.29999 16.5V7.49999C6.29999 6.89999 6.82499 6.37499 7.42499 6.37499C8.02499 6.37499 8.54999 6.89999 8.54999 7.49999V10.35L13.2 5.54999C13.65 5.09999 14.325 5.09999 14.775 5.54999L18 8.84999C18.45 9.29999 18.45 10.05 18 10.5C17.55 10.95 16.875 10.95 16.5 10.5L14.025 7.94999L10.125 12ZM14.025 10.875C14.625 10.875 15.15 11.4 15.15 12C15.15 12.6 14.625 13.125 14.025 13.125C13.425 13.125 12.9 12.6 12.9 12C12.9 11.4 13.425 10.875 14.025 10.875Z" fill="white"/>
</svg>
