<svg width="24" height="24" viewBox="0 0 24 24" fill="none" xmlns="http://www.w3.org/2000/svg">
<g clip-path="url(#clip0)">
<path d="M17.1863 8.72724H15.636V7.1772C15.636 6.91304 15.741 6.65971 15.9277 6.47292C16.1145 6.28613 16.3679 6.1812 16.632 6.1812H17.1863C17.4505 6.1812 17.7038 6.28613 17.8906 6.47292C18.0774 6.65971 18.1823 6.91304 18.1823 7.1772V7.7316C18.1822 7.99569 18.0772 8.24894 17.8905 8.43564C17.7037 8.62235 17.4504 8.72724 17.1863 8.72724ZM8.36403 8.72724H6.81363C6.54947 8.72724 6.29614 8.6223 6.10935 8.43552C5.92256 8.24873 5.81763 7.99539 5.81763 7.73124V7.1772C5.81753 7.04638 5.84323 6.91682 5.89325 6.79593C5.94327 6.67505 6.01663 6.56521 6.10914 6.47271C6.20164 6.3802 6.31148 6.30684 6.43236 6.25682C6.55325 6.2068 6.6828 6.1811 6.81363 6.1812H7.36803C7.63218 6.1812 7.88552 6.28613 8.07231 6.47292C8.25909 6.65971 8.36403 6.91304 8.36403 7.1772V8.72724ZM7.36803 18.1818H6.81375C6.68295 18.1818 6.55344 18.156 6.43259 18.106C6.31175 18.0559 6.20196 17.9826 6.10947 17.8901C6.01698 17.7976 5.94362 17.6878 5.89356 17.567C5.84351 17.4461 5.81775 17.3166 5.81775 17.1858V16.632C5.81775 16.5012 5.84351 16.3717 5.89356 16.2508C5.94362 16.13 6.01698 16.0202 6.10947 15.9277C6.20196 15.8352 6.31175 15.7619 6.43259 15.7118C6.55344 15.6618 6.68295 15.636 6.81375 15.636H8.36403V17.1858C8.36403 17.45 8.25909 17.7033 8.07231 17.8901C7.88552 18.0769 7.63218 18.1818 7.36803 18.1818ZM17.1863 18.1818H16.632C16.3679 18.1818 16.1145 18.0769 15.9277 17.8901C15.741 17.7033 15.636 17.45 15.636 17.1858V15.636H17.1859C17.4501 15.636 17.7034 15.7409 17.8902 15.9277C18.077 16.1145 18.1819 16.3678 18.1819 16.632V17.1864C18.1819 17.4506 18.077 17.7039 17.8902 17.8907C17.7034 18.0775 17.4501 18.1824 17.1859 18.1824" fill="#005FFF"/>
<path d="M12.459 6.1818H11.9046C11.6404 6.1818 11.3871 6.07687 11.2003 5.89008C11.0135 5.70329 10.9086 5.44996 10.9086 5.1858V4.632C10.9086 4.36785 11.0135 4.11451 11.2003 3.92772C11.3871 3.74094 11.6404 3.636 11.9046 3.636H12.4589C12.723 3.636 12.9764 3.74094 13.1631 3.92772C13.3499 4.11451 13.4549 4.36785 13.4549 4.632V5.1864C13.4549 5.45056 13.3499 5.70389 13.1631 5.89068C12.9764 6.07747 12.723 6.1824 12.4589 6.1824L12.459 6.1818ZM12.459 20.7272H11.9046C11.6404 20.7272 11.3871 20.6223 11.2003 20.4355C11.0135 20.2487 10.9086 19.9954 10.9086 19.7312V19.1768C10.9086 18.9127 11.0135 18.6593 11.2003 18.4726C11.3871 18.2858 11.6404 18.1808 11.9046 18.1808H12.4589C12.723 18.1808 12.9764 18.2858 13.1631 18.4726C13.3499 18.6593 13.4549 18.9127 13.4549 19.1768V19.7312C13.4549 19.9954 13.3499 20.2487 13.1631 20.4355C12.9764 20.6223 12.723 20.7272 12.4589 20.7272H12.459ZM19.7317 13.4545H19.1774C18.9133 13.4545 18.6599 13.3496 18.4731 13.1628C18.2864 12.976 18.1814 12.7227 18.1814 12.4585V11.904C18.1814 11.6398 18.2864 11.3865 18.4731 11.1997C18.6599 11.0129 18.9133 10.908 19.1774 10.908H19.7317C19.9959 10.908 20.2492 11.0129 20.436 11.1997C20.6228 11.3865 20.7277 11.6398 20.7277 11.904V12.4584C20.7277 12.7226 20.6228 12.9759 20.436 13.1627C20.2492 13.3495 19.9959 13.4544 19.7317 13.4544V13.4545ZM5.18627 13.4545H4.63199C4.36783 13.4545 4.11449 13.3496 3.92771 13.1628C3.74092 12.976 3.63599 12.7227 3.63599 12.4585V11.904C3.63599 11.6398 3.74092 11.3865 3.92771 11.1997C4.11449 11.0129 4.36783 10.908 4.63199 10.908H5.18627C5.31706 10.908 5.44658 10.9338 5.56742 10.9838C5.68826 11.0339 5.79806 11.1072 5.89054 11.1997C5.98303 11.2922 6.0564 11.402 6.10645 11.5228C6.1565 11.6437 6.18227 11.7732 6.18227 11.904V12.4584C6.18227 12.5892 6.1565 12.7187 6.10645 12.8396C6.0564 12.9604 5.98303 13.0702 5.89054 13.1627C5.79806 13.2552 5.68826 13.3285 5.56742 13.3786C5.44658 13.4286 5.31706 13.4544 5.18627 13.4544" fill="#00CCEE"/>
<path d="M14.9639 21.7328C14.9089 21.5999 14.8945 21.4537 14.9225 21.3127C14.9505 21.1717 15.0197 21.0421 15.1214 20.9404C15.2231 20.8387 15.3526 20.7694 15.4937 20.7414C15.6347 20.7133 15.7809 20.7277 15.9138 20.7827C16.0466 20.8377 16.1602 20.9309 16.2401 21.0504C16.32 21.17 16.3627 21.3105 16.3627 21.4543C16.3627 21.5981 16.3201 21.7387 16.2402 21.8583C16.1603 21.9779 16.0468 22.0711 15.914 22.1261C15.7358 22.1999 15.5357 22.1999 15.3575 22.1261C15.1794 22.0524 15.0378 21.9109 14.9639 21.7328ZM7.3282 3.18726C7.27315 3.05441 7.25873 2.90822 7.28676 2.76718C7.3148 2.62614 7.38403 2.49657 7.4857 2.39488C7.58737 2.29318 7.71691 2.22391 7.85795 2.19584C7.99898 2.16776 8.14517 2.18214 8.27804 2.23715C8.4109 2.29216 8.52447 2.38534 8.60438 2.5049C8.68429 2.62445 8.72695 2.76502 8.72697 2.90882C8.72699 3.05262 8.68437 3.1932 8.6045 3.31278C8.52462 3.43236 8.41108 3.52557 8.27824 3.58062C8.10008 3.65438 7.89994 3.65437 7.72179 3.58061C7.54364 3.50685 7.40207 3.36536 7.3282 3.18726ZM21.369 9.03594C21.2362 9.09099 21.09 9.10541 20.949 9.07737C20.8079 9.04934 20.6784 8.98011 20.5767 8.87844C20.475 8.77677 20.4057 8.64722 20.3776 8.50619C20.3495 8.36515 20.3639 8.21896 20.4189 8.0861C20.4739 7.95323 20.5671 7.83967 20.6867 7.75976C20.8062 7.67985 20.9468 7.63718 21.0906 7.63716C21.2344 7.63714 21.375 7.67976 21.4946 7.75964C21.6141 7.83951 21.7073 7.95305 21.7624 8.0859C21.8362 8.26405 21.8361 8.4642 21.7624 8.64235C21.6886 8.8205 21.5471 8.96207 21.369 9.03594ZM3.18724 16.6717C3.05439 16.7267 2.9082 16.7411 2.76716 16.7131C2.62611 16.6851 2.49655 16.6158 2.39485 16.5142C2.29315 16.4125 2.22389 16.2829 2.19581 16.1419C2.16774 16.0009 2.18212 15.8547 2.23713 15.7218C2.29214 15.589 2.38532 15.4754 2.50487 15.3955C2.62443 15.3156 2.76499 15.2729 2.9088 15.2729C3.0526 15.2729 3.19318 15.3155 3.31276 15.3954C3.43234 15.4752 3.52555 15.5888 3.5806 15.7216C3.65435 15.8998 3.65435 16.0999 3.58059 16.2781C3.50682 16.4562 3.36534 16.5978 3.18724 16.6717Z" fill="#005FFF"/>
<path d="M20.8126 16.6717C20.6798 16.6167 20.5663 16.5235 20.4864 16.4039C20.4065 16.2843 20.3639 16.1438 20.3639 16C20.3639 15.8562 20.4065 15.7156 20.4864 15.596C20.5663 15.4765 20.6799 15.3833 20.8127 15.3283C20.9456 15.2732 21.0918 15.2588 21.2328 15.2869C21.3738 15.315 21.5034 15.3842 21.6051 15.4859C21.7068 15.5876 21.776 15.7171 21.8041 15.8582C21.8321 15.9992 21.8177 16.1454 21.7627 16.2782C21.7262 16.3665 21.6726 16.4466 21.6051 16.5142C21.5376 16.5817 21.4574 16.6353 21.3692 16.6718C21.281 16.7083 21.1864 16.7271 21.0909 16.7271C20.9954 16.7271 20.9009 16.7083 20.8126 16.6717ZM2.63085 9.036C2.498 8.98096 2.38445 8.88776 2.30457 8.76819C2.22469 8.64862 2.18206 8.50804 2.18207 8.36424C2.18208 8.22045 2.22473 8.07988 2.30462 7.96032C2.38452 7.84076 2.49807 7.74757 2.63093 7.69255C2.76379 7.63752 2.90997 7.62313 3.05101 7.65118C3.19205 7.67924 3.32159 7.74849 3.42328 7.85017C3.52496 7.95185 3.5942 8.0814 3.62226 8.22244C3.65031 8.36348 3.63591 8.50967 3.58089 8.64252C3.54436 8.73075 3.49081 8.81092 3.42329 8.87845C3.35577 8.94598 3.27561 8.99954 3.18738 9.03608C3.09916 9.07262 3.0046 9.09142 2.90911 9.09141C2.81362 9.09139 2.71906 9.07257 2.63085 9.036ZM16.308 3.18732C16.2529 3.32017 16.1597 3.43371 16.0402 3.51359C15.9206 3.59348 15.78 3.63611 15.6362 3.6361C15.4924 3.63609 15.3518 3.59344 15.2323 3.51354C15.1127 3.43365 15.0195 3.32009 14.9645 3.18724C14.9095 3.05438 14.8951 2.90819 14.9232 2.76716C14.9512 2.62612 15.0205 2.49657 15.1221 2.39489C15.2238 2.29321 15.3534 2.22396 15.4944 2.19591C15.6354 2.16786 15.7816 2.18225 15.9145 2.23728C16.0027 2.27381 16.0829 2.32736 16.1504 2.39488C16.2179 2.4624 16.2715 2.54256 16.308 2.63078C16.3446 2.71901 16.3634 2.81357 16.3634 2.90906C16.3634 3.00455 16.3445 3.09911 16.308 3.18732ZM8.67177 21.7328C8.61673 21.8657 8.52353 21.9792 8.40396 22.0591C8.28438 22.139 8.14381 22.1816 8.00001 22.1816C7.85621 22.1816 7.71564 22.139 7.59608 22.0591C7.47652 21.9792 7.38334 21.8656 7.32831 21.7328C7.27329 21.5999 7.25889 21.4537 7.28695 21.3127C7.31501 21.1716 7.38426 21.0421 7.48594 20.9404C7.58762 20.8387 7.71717 20.7695 7.85821 20.7414C7.99924 20.7134 8.14543 20.7278 8.27829 20.7828C8.36652 20.8193 8.44669 20.8729 8.51421 20.9404C8.58174 21.0079 8.63531 21.0881 8.67185 21.1763C8.70839 21.2645 8.72719 21.3591 8.72717 21.4546C8.72716 21.5501 8.70833 21.6446 8.67177 21.7328Z" fill="#002DAE"/>
<path d="M19.7428 20.6207C19.692 20.5699 19.6574 20.5051 19.6433 20.4345C19.6293 20.364 19.6365 20.2909 19.664 20.2245C19.6915 20.158 19.7381 20.1012 19.7979 20.0613C19.8577 20.0213 19.928 20 19.9999 20C20.0718 20 20.1421 20.0213 20.2019 20.0613C20.2617 20.1012 20.3083 20.158 20.3359 20.2245C20.3634 20.2909 20.3706 20.364 20.3565 20.4345C20.3425 20.5051 20.3079 20.5699 20.257 20.6207C20.2233 20.6545 20.1832 20.6813 20.1391 20.6996C20.095 20.7178 20.0477 20.7273 19.9999 20.7273C19.9522 20.7273 19.9049 20.7178 19.8608 20.6996C19.8167 20.6813 19.7766 20.6545 19.7428 20.6207ZM3.37927 4.25715C3.32842 4.2063 3.29379 4.14151 3.27976 4.07098C3.26573 4.00045 3.27293 3.92734 3.30045 3.8609C3.32797 3.79446 3.37457 3.73768 3.43437 3.69772C3.49416 3.65777 3.56446 3.63644 3.63637 3.63644C3.70829 3.63644 3.77859 3.65777 3.83838 3.69772C3.89817 3.73768 3.94478 3.79446 3.9723 3.8609C3.99982 3.92734 4.00702 4.00045 3.99299 4.07098C3.97896 4.14151 3.94433 4.2063 3.89347 4.25715C3.85972 4.29093 3.81964 4.31772 3.77553 4.336C3.73141 4.35428 3.68413 4.36369 3.63637 4.36369C3.58862 4.36369 3.54134 4.35428 3.49722 4.336C3.45311 4.31772 3.41303 4.29093 3.37927 4.25715ZM20.257 4.25715C20.2062 4.308 20.1414 4.34263 20.0709 4.35666C20.0003 4.3707 19.9272 4.3635 19.8608 4.33598C19.7943 4.30846 19.7376 4.26185 19.6976 4.20206C19.6577 4.14226 19.6363 4.07197 19.6363 4.00005C19.6363 3.92814 19.6577 3.85784 19.6976 3.79805C19.7376 3.73825 19.7943 3.69165 19.8608 3.66413C19.9272 3.63661 20.0003 3.62941 20.0709 3.64344C20.1414 3.65747 20.2062 3.6921 20.257 3.74295C20.2908 3.77671 20.3176 3.81679 20.3359 3.8609C20.3542 3.90502 20.3636 3.9523 20.3636 4.00005C20.3636 4.0478 20.3542 4.09509 20.3359 4.1392C20.3176 4.18332 20.2908 4.2234 20.257 4.25715ZM3.89347 20.6207C3.84262 20.6716 3.77784 20.7062 3.70731 20.7202C3.63677 20.7343 3.56367 20.7271 3.49723 20.6995C3.43079 20.672 3.374 20.6254 3.33404 20.5656C3.29409 20.5058 3.27277 20.4355 3.27277 20.3636C3.27277 20.2917 3.29409 20.2214 3.33404 20.1616C3.374 20.1018 3.43079 20.0552 3.49723 20.0277C3.56367 20.0002 3.63677 19.993 3.70731 20.007C3.77784 20.021 3.84262 20.0557 3.89347 20.1065C3.92725 20.1403 3.95405 20.1803 3.97233 20.2245C3.99061 20.2686 4.00002 20.3159 4.00002 20.3636C4.00002 20.4114 3.99061 20.4587 3.97233 20.5028C3.95405 20.5469 3.92725 20.587 3.89347 20.6207Z" fill="#0099C0"/>
<path d="M23.6364 12.3636C23.5645 12.3636 23.4942 12.3423 23.4344 12.3023C23.3746 12.2624 23.328 12.2056 23.3005 12.1391C23.273 12.0727 23.2658 11.9996 23.2798 11.9291C23.2938 11.8585 23.3285 11.7937 23.3793 11.7429C23.4302 11.692 23.4949 11.6574 23.5655 11.6434C23.636 11.6294 23.7091 11.6366 23.7755 11.6641C23.842 11.6916 23.8987 11.7382 23.9387 11.798C23.9786 11.8578 24 11.9281 24 12C23.9999 12.0964 23.9616 12.1889 23.8934 12.2571C23.8253 12.3253 23.7328 12.3636 23.6364 12.3636Z" fill="#0029C0"/>
<path d="M0.3636 12.3636C0.291687 12.3636 0.221389 12.3423 0.161595 12.3023C0.101801 12.2624 0.0551976 12.2056 0.0276776 12.1391C0.000157542 12.0727 -0.00704295 11.9996 0.00698664 11.9291C0.0210162 11.8585 0.0556458 11.7937 0.106496 11.7429C0.157347 11.692 0.222134 11.6574 0.292665 11.6434C0.363197 11.6294 0.436305 11.6366 0.502744 11.6641C0.569183 11.6916 0.62597 11.7382 0.665923 11.798C0.705875 11.8578 0.7272 11.9281 0.7272 12C0.727168 12.0964 0.68885 12.1889 0.620669 12.2571C0.552488 12.3253 0.460023 12.3636 0.3636 12.3636Z" fill="#0029C0"/>
<path d="M12.3636 0.3636C12.3636 0.435513 12.3423 0.505812 12.3023 0.565605C12.2624 0.625399 12.2056 0.672003 12.1392 0.699523C12.0727 0.727043 11.9996 0.734243 11.9291 0.720214C11.8585 0.706184 11.7938 0.671554 11.7429 0.620704C11.6921 0.569854 11.6574 0.505066 11.6434 0.434535C11.6294 0.364003 11.6366 0.290896 11.6641 0.224456C11.6916 0.158017 11.7382 0.101231 11.798 0.0612776C11.8578 0.0213248 11.9281 0 12 0C12.0964 3.1807e-05 12.1889 0.0383498 12.2571 0.106531C12.3253 0.174712 12.3636 0.267177 12.3636 0.3636Z" fill="#0029C0"/>
<path d="M12.3636 23.6364C12.3636 23.7083 12.3423 23.7787 12.3023 23.8385C12.2624 23.8983 12.2056 23.9449 12.1392 23.9724C12.0727 23.9999 11.9996 24.0071 11.9291 23.9931C11.8585 23.979 11.7938 23.9444 11.7429 23.8936C11.6921 23.8427 11.6574 23.7779 11.6434 23.7074C11.6294 23.6368 11.6366 23.5637 11.6641 23.4973C11.6916 23.4308 11.7382 23.374 11.798 23.3341C11.8578 23.2941 11.9281 23.2728 12 23.2728C12.0964 23.2728 12.1889 23.3111 12.2571 23.3793C12.3253 23.4475 12.3636 23.54 12.3636 23.6364Z" fill="#0029C0"/>
<path d="M14.4267 10.788H14.9695C15.1463 10.7879 15.3159 10.7175 15.4408 10.5925C15.5658 10.4674 15.636 10.2978 15.636 10.121V8.364H13.8791C13.7022 8.364 13.5326 8.43423 13.4075 8.55925C13.2824 8.68428 13.2121 8.85386 13.212 9.03072V9.576C13.212 9.89744 13.0843 10.2057 12.857 10.433C12.6297 10.6603 12.3215 10.788 12 10.788C11.6786 10.788 11.3703 10.6603 11.143 10.433C10.9157 10.2057 10.788 9.89744 10.788 9.576V9.0066C10.7879 8.83613 10.7201 8.67268 10.5995 8.55218C10.4789 8.43169 10.3154 8.364 10.1449 8.364H8.36401V15.636H10.1316C10.3057 15.6359 10.4726 15.5668 10.5957 15.4437C10.7188 15.3206 10.7879 15.1537 10.788 14.9796V14.424C10.788 14.1026 10.9157 13.7943 11.143 13.567C11.3703 13.3397 11.6786 13.212 12 13.212V13.2144C12.3215 13.2144 12.6297 13.3421 12.857 13.5694C13.0843 13.7967 13.212 14.105 13.212 14.4264V14.9744C13.212 15.1499 13.2817 15.3182 13.4058 15.4423C13.5299 15.5664 13.6982 15.6361 13.8737 15.6361H15.636V13.8738C15.636 13.7869 15.6189 13.7009 15.5856 13.6206C15.5524 13.5403 15.5037 13.4674 15.4422 13.4059C15.3808 13.3445 15.3078 13.2957 15.2275 13.2625C15.1473 13.2292 15.0612 13.2121 14.9743 13.2121H14.424C14.1026 13.2121 13.7943 13.0844 13.567 12.8571C13.3397 12.6298 13.212 12.3216 13.212 12.0001H13.2144C13.2144 11.6787 13.3421 11.3704 13.5694 11.1431C13.7967 10.9158 14.105 10.7881 14.4264 10.7881" fill="#003EC5"/>
</g>
<defs>
<clipPath id="clip0">
<rect width="24" height="24" fill="white"/>
</clipPath>
</defs>
</svg>
