<svg width="24" height="24" viewBox="0 0 24 24" fill="none" xmlns="http://www.w3.org/2000/svg">
<g clip-path="url(#clip0)">
<path d="M1.71447e-05 11.9886C-0.00535887 15.1712 1.25377 18.2256 3.5004 20.4799C5.74704 22.7341 8.79715 24.0035 11.9797 24.0089C15.1623 24.0143 18.2167 22.7552 20.471 20.5085C22.7252 18.2619 23.9946 15.2118 24 12.0292V11.9384C23.9996 11.0153 23.8908 10.0955 23.6757 9.19783C23.588 8.87548 23.3786 8.59975 23.0916 8.42876C22.8046 8.25776 22.4624 8.20485 22.1372 8.28116C21.812 8.35748 21.5291 8.55707 21.3481 8.83787C21.1671 9.11867 21.1022 9.45876 21.167 9.78648C21.6522 11.7861 21.4709 13.8894 20.6507 15.7765C19.8304 17.6635 18.4161 19.2309 16.623 20.2402C14.8299 21.2494 12.7562 21.6452 10.7174 21.3674C8.67864 21.0896 6.78645 20.1533 5.32879 18.701C3.87114 17.2488 2.92782 15.3601 2.6424 13.3224C2.35698 11.2847 2.74508 9.2095 3.74765 7.41266C4.75021 5.61581 6.31234 4.19569 8.19632 3.36841C10.0803 2.54112 12.183 2.35196 14.1843 2.82972C14.5161 2.90714 14.865 2.84992 15.1547 2.67059C15.4443 2.49126 15.6511 2.20445 15.7297 1.87297C15.7697 1.70958 15.7768 1.53989 15.7506 1.37375C15.7244 1.20761 15.6655 1.04832 15.5772 0.905147C15.4889 0.76197 15.3731 0.637756 15.2365 0.539717C15.0998 0.441678 14.945 0.371768 14.7811 0.334048C13.2498 -0.033945 11.661 -0.0965445 10.1055 0.149827C8.55006 0.396199 7.05838 0.946712 5.71577 1.7699C4.37317 2.59308 3.20595 3.6728 2.28086 4.94733C1.35576 6.22186 0.690924 7.66622 0.324341 9.19783C0.109795 10.1126 0.000974719 11.049 1.71447e-05 11.9886Z" fill="url(#paint0_linear)"/>
<path d="M18.0941 3.15731C18.073 3.17839 18.0633 3.19947 18.0519 3.2092C17.7565 3.52281 17.5749 3.92655 17.5363 4.35569V4.56163C17.5363 4.61353 17.5265 4.65407 17.5265 4.70596C17.4825 5.15927 17.3494 5.59943 17.1348 6.00117C16.9203 6.40291 16.6285 6.75832 16.2762 7.047C15.924 7.33569 15.5182 7.55196 15.0821 7.68341C14.646 7.81485 14.1883 7.85889 13.7352 7.81299C13.5824 7.79964 13.4307 7.7758 13.2811 7.74163C13.193 7.72334 13.1064 7.69895 13.0217 7.66866C12.654 7.57589 12.2753 7.53442 11.8963 7.54542C10.7909 7.56703 9.73176 7.99277 8.91896 8.74218C8.87842 8.78272 8.82652 8.81515 8.78436 8.86542C8.33953 9.27638 7.98227 9.77294 7.73398 10.3253C7.4857 10.8777 7.35151 11.4745 7.33945 12.08C7.3274 12.6855 7.43774 13.2872 7.66384 13.849C7.88995 14.4108 8.22717 14.9212 8.6553 15.3496C9.08342 15.7779 9.59363 16.1154 10.1553 16.3418C10.717 16.5682 11.3187 16.6788 11.9242 16.6671C12.5297 16.6553 13.1266 16.5214 13.6791 16.2734C14.2316 16.0254 14.7283 15.6684 15.1395 15.2238C15.3254 15.0361 15.4947 14.8326 15.6454 14.6157C16.0081 14.094 16.2564 13.5016 16.374 12.8773C16.4917 12.253 16.476 11.6108 16.3281 10.993C16.3025 10.9115 16.2814 10.8287 16.2649 10.7449C16.2649 10.7335 16.2552 10.7238 16.2552 10.7027C16.1519 10.2587 16.1374 9.79859 16.2125 9.34891C16.2875 8.89923 16.4506 8.4688 16.6925 8.08233C16.9343 7.69585 17.2501 7.36095 17.6217 7.09683C17.9933 6.83271 18.4134 6.64459 18.8579 6.54326C19.0174 6.50413 19.1803 6.48023 19.3444 6.4719L19.4157 6.46055C19.4878 6.45245 19.5604 6.4492 19.633 6.45082H19.6541C20.1024 6.40784 20.5219 6.21069 20.8411 5.89299C20.9141 5.81028 20.9871 5.73082 21.0487 5.64488C21.1964 5.43798 21.3017 5.20381 21.3583 4.95595C21.4149 4.70809 21.4217 4.45146 21.3784 4.20093C21.3352 3.95041 21.2426 3.71096 21.1061 3.49646C20.9696 3.28197 20.7919 3.09669 20.5833 2.95136C20.2101 2.6882 19.7563 2.56463 19.3013 2.60228C18.8462 2.63993 18.4189 2.8364 18.0941 3.15731Z" fill="url(#paint1_linear)"/>
</g>
<defs>
<linearGradient id="paint0_linear" x1="20.9368" y1="3.17999" x2="3.09894" y2="20.7746" gradientUnits="userSpaceOnUse">
<stop offset="0.09" stop-color="#00EDD3"/>
<stop offset="0.41" stop-color="#1B456E"/>
</linearGradient>
<linearGradient id="paint1_linear" x1="20.9417" y1="2.94326" x2="8.45517" y2="15.5919" gradientUnits="userSpaceOnUse">
<stop offset="0.4" stop-color="#00EDD3"/>
<stop offset="0.89" stop-color="#1B456E"/>
</linearGradient>
<clipPath id="clip0">
<rect width="24" height="24" fill="white"/>
</clipPath>
</defs>
</svg>
