<svg width="24" height="24" viewBox="0 0 24 24" fill="none" xmlns="http://www.w3.org/2000/svg">
<path d="M12.0395 0.101898C5.44672 0.101898 0.102295 5.44653 0.102295 12.0387C0.102295 18.6316 5.44672 23.9765 12.0395 23.9765C18.6321 23.9765 23.9765 18.6317 23.9765 12.0387C23.9765 5.44653 18.6321 0.101898 12.0395 0.101898ZM18.8605 12.0387C18.8605 14.2265 17.8276 16.1693 16.2261 17.4168L15.4426 16.1742C16.636 15.1915 17.3988 13.7056 17.3988 12.0386C17.3988 10.2519 16.5218 8.67284 15.1773 7.69937L16.1796 6.62358C17.8077 7.87032 18.8605 9.83011 18.8605 12.0387ZM14.0461 8.91379C15.0749 9.57421 15.7583 10.7251 15.7583 12.0388C15.7583 13.1207 15.2956 14.0926 14.5581 14.7713L12.1491 10.95L14.0461 8.91379ZM15.8344 2.87948L10.0677 8.978L10.8851 2.92863H8.12819C9.32819 2.41253 10.6502 2.12569 12.0395 2.12569C13.3839 2.12579 14.6651 2.39442 15.8344 2.87948ZM5.99493 15.1989C5.49945 14.2542 5.2184 13.1798 5.2184 12.0387C5.2184 10.2434 5.91503 8.61232 7.04956 7.39453L5.99493 15.1989ZM2.12619 12.0387C2.12619 8.15221 4.36408 4.79011 7.62082 3.16537L7.42808 4.59148C4.93766 6.13621 3.27872 8.89295 3.27872 12.0388C3.27872 14.3385 4.16808 16.4274 5.61766 17.9899L5.42429 19.4208C3.4003 17.6057 2.12619 14.9715 2.12619 12.0387ZM6.56114 20.3004H8.53798L9.57324 12.64L9.65798 12.6503L14.4811 20.3005H17.518C15.9482 21.3438 14.0657 21.9527 12.0396 21.9527C10.0138 21.9527 8.13051 21.3437 6.56114 20.3004ZM17.8827 20.0452L17.2661 19.0666C19.4099 17.4702 20.8001 14.9176 20.8001 12.0387C20.8001 9.27 19.5141 6.80295 17.5082 5.19769L18.2966 4.35148C20.5272 6.16906 21.9524 8.93706 21.9524 12.0387C21.9525 15.3281 20.3495 18.2419 17.8827 20.0452Z" fill="#DE4235"/>
</svg>
