<svg width="24" height="24" viewBox="0 0 24 24" fill="none" xmlns="http://www.w3.org/2000/svg">
<path d="M12 24C18.6274 24 24 18.6274 24 12C24 5.37258 18.6274 0 12 0C5.37258 0 0 5.37258 0 12C0 18.6274 5.37258 24 12 24Z" fill="#00AEEF"/>
<path d="M11.82 11.0295C11.9985 10.9988 12.156 10.932 12.294 10.8308C12.432 10.7295 12.5625 10.5585 12.6848 10.3245L15.4035 5.08425C15.51 4.90875 15.6405 4.76925 15.7905 4.65975C15.9446 4.55315 16.1281 4.4973 16.3155 4.5H18.0397L14.6542 10.6635C14.5042 10.917 14.334 11.1233 14.1442 11.283C13.9547 11.4406 13.7385 11.5633 13.506 11.6453C13.869 11.739 14.1728 11.8913 14.421 12.105C14.6655 12.315 14.8987 12.612 15.1155 12.9938L18.375 19.5H16.4775C16.0942 19.5 15.786 19.2938 15.5535 18.885L12.882 13.3718C12.744 13.1258 12.594 12.951 12.432 12.8453C12.2708 12.7403 12.0652 12.678 11.8207 12.6623V15.4598H10.329V12.6503H9.2325V19.5H7.125V4.5H9.2325V11.0535H10.329V7.812H11.8207V11.0295H11.82Z" fill="white"/>
</svg>
