<svg width="24" height="24" viewBox="0 0 24 24" fill="none" xmlns="http://www.w3.org/2000/svg">
<path d="M12 24C18.6274 24 24 18.6274 24 12C24 5.37258 18.6274 0 12 0C5.37258 0 0 5.37258 0 12C0 18.6274 5.37258 24 12 24Z" fill="url(#paint0_linear)"/>
<path d="M12.828 16.0345L8.1107 20.7517L6.7655 19.3034L10.0345 16.0345L6.64142 12.6414L8.0897 11.1931L12.828 16.0345ZM15.5797 13.3241L17.028 11.8759L13.6345 8.48278L16.9035 5.21374L15.5586 3.76546L10.8207 8.48278L15.5794 13.3241H15.5797ZM8.6897 10.6345L13.4483 15.4759L14.8966 14.028L10.138 9.2689L8.6897 10.6345Z" fill="white"/>
<defs>
<linearGradient id="paint0_linear" x1="-0.24" y1="12" x2="27.84" y2="12" gradientUnits="userSpaceOnUse">
<stop stop-color="#08BBC9"/>
<stop offset="0.5" stop-color="#12A3CA"/>
<stop offset="1" stop-color="#149ACA"/>
</linearGradient>
</defs>
</svg>
