<svg width="24" height="24" viewBox="0 0 24 24" fill="none" xmlns="http://www.w3.org/2000/svg">
<g clip-path="url(#clip0)">
<path fill-rule="evenodd" clip-rule="evenodd" d="M11.214 9.81227C11.1436 9.81372 11.0745 9.79331 11.0162 9.75384C10.9579 9.71438 10.9133 9.6578 10.8884 9.59191C10.8636 9.52603 10.8598 9.45406 10.8776 9.38594C10.8954 9.31781 10.9339 9.25687 10.9877 9.21152C11.5598 8.72939 12.0542 8.16204 12.4536 7.52942C12.7359 7.0348 13.1925 6.78048 13.6691 6.84456C13.716 6.84754 13.7619 6.86016 13.8037 6.88163C13.8456 6.9031 13.8826 6.93297 13.9124 6.96937C13.9422 7.00576 13.9641 7.04791 13.9769 7.09318C13.9897 7.13845 13.9931 7.18587 13.9867 7.23248C13.9804 7.27909 13.9645 7.3239 13.9401 7.3641C13.9156 7.4043 13.8832 7.43904 13.8448 7.46615C13.8063 7.49326 13.7627 7.51216 13.7166 7.52167C13.6706 7.53117 13.623 7.53108 13.577 7.52141C13.2986 7.48336 13.1124 7.7517 13.0443 7.86784C12.6106 8.56594 12.07 9.19166 11.4423 9.72216C11.3804 9.78004 11.2988 9.81225 11.214 9.81227ZM5.46283 15.5935C5.39347 15.5926 5.32601 15.5706 5.2694 15.5305C5.21279 15.4905 5.16969 15.4341 5.14581 15.369C5.12193 15.3038 5.11839 15.233 5.13567 15.1658C5.15294 15.0986 5.19022 15.0383 5.24256 14.9927C5.63907 14.6805 6.05956 14.3999 6.50013 14.1537C6.57757 14.1279 6.66169 14.1308 6.73718 14.1618C6.81266 14.1929 6.87448 14.25 6.91137 14.3228C6.94826 14.3956 6.95776 14.4793 6.93815 14.5585C6.91853 14.6377 6.87111 14.7073 6.80451 14.7544C6.41192 14.9773 6.03642 15.2289 5.68111 15.5074C5.61992 15.5587 5.54271 15.5871 5.46283 15.5875" fill="#28646E"/>
<path fill-rule="evenodd" clip-rule="evenodd" d="M14.0416 12.3554C14.1777 12.4816 14.3359 12.4275 14.4801 12.2893C15.4694 11.3442 16.5167 9.86831 16.8651 9.09935C16.8773 9.06099 16.897 9.02549 16.9233 8.99497C16.9495 8.96446 16.9817 8.93957 17.0178 8.92179C17.0539 8.90402 17.0932 8.89374 17.1334 8.89156C17.1736 8.88938 17.2138 8.89535 17.2516 8.90912C17.4418 8.98521 17.4398 9.30962 17.2676 9.66806C16.6745 10.8818 15.8826 11.9877 14.9247 12.9402C14.8976 12.9646 14.876 12.9944 14.8612 13.0277C14.8464 13.0609 14.8388 13.097 14.8388 13.1334C14.8388 13.1698 14.8464 13.2058 14.8612 13.2391C14.876 13.2724 14.8976 13.3022 14.9247 13.3266C15.0348 13.4248 15.215 13.4188 15.3812 13.2485C15.9152 12.7203 16.4048 12.149 16.8451 11.5404C16.8755 11.4816 16.9234 11.4336 16.9822 11.4031C17.041 11.3726 17.1079 11.3611 17.1735 11.3702C17.3377 11.4022 17.3637 11.5604 17.3137 11.7507C17.2316 12.0571 16.3685 13.1905 16.0261 13.5709C15.0989 14.6062 14.1717 15.1729 12.3875 16.1001C11.7707 16.4205 11.3041 16.7349 11.0138 17.2215C10.7555 17.654 10.6794 17.7962 10.6533 17.8503C10.6058 17.9528 10.5999 18.0698 10.6369 18.1767C10.6739 18.2835 10.7508 18.3718 10.8516 18.423C10.9016 18.4471 10.956 18.4609 11.0114 18.4639C11.0669 18.4668 11.1223 18.4588 11.1747 18.4401C11.227 18.4215 11.2751 18.3927 11.3162 18.3554C11.3573 18.3181 11.3907 18.273 11.4143 18.2228C11.4143 18.2228 11.4143 18.2067 11.4143 18.2007C11.4143 18.1947 11.4023 18.2007 11.7387 17.64C11.9899 17.2339 12.3557 16.9113 12.79 16.7129C14.5802 15.8979 15.3112 15.255 16.3485 14.2178C16.8372 13.6645 17.2736 13.0672 17.6521 12.4335C18.1507 11.5925 17.8884 10.8736 17.4378 10.7514C17.4234 10.7472 17.4111 10.7375 17.4036 10.7245C17.3961 10.7114 17.394 10.6959 17.3978 10.6813C17.3969 10.676 17.3969 10.6706 17.3978 10.6653C17.6601 10.2562 17.8542 9.80708 17.9725 9.33565C18.0606 8.90111 17.9364 8.37244 17.3417 8.24428C17.3269 8.24092 17.314 8.23193 17.3058 8.21921C17.2976 8.20649 17.2947 8.19105 17.2976 8.1762C17.3357 8.03803 17.3737 7.86381 17.3978 7.74967C17.46 7.50712 17.426 7.2499 17.3028 7.03189C17.1796 6.81389 16.9768 6.65202 16.7369 6.5802C16.5991 6.55024 16.4565 6.54974 16.3185 6.57872C16.1804 6.60771 16.0501 6.66554 15.9359 6.74841C15.92 6.75926 15.9008 6.76401 15.8816 6.76181C15.8625 6.7596 15.8448 6.75058 15.8318 6.7364C15.7748 6.67459 15.7058 6.62499 15.629 6.59057C15.5523 6.55615 15.4693 6.53764 15.3853 6.53615C15.0108 6.53615 14.6443 6.64428 14.384 7.219C14.1837 7.6195 13.9054 8.18221 13.0663 9.11337C12.3039 9.92055 11.4513 10.6375 10.5252 11.25C10.407 11.3261 10.2428 11.3081 10.2608 11.1519C10.2929 10.9016 10.5612 9.21149 10.6133 8.72288C10.6874 7.92188 10.2548 7.54942 9.76823 7.48534C9.36773 7.43127 8.76697 7.54541 8.43055 8.45655C8.04767 9.37296 7.73178 10.3159 7.48537 11.2781C7.22483 12.4218 7.19894 13.6064 7.40928 14.7604C7.42378 14.8404 7.40884 14.9229 7.36723 14.9927C7.04451 15.4766 6.75354 15.981 6.49614 16.5026C6.45313 16.6 6.44753 16.7098 6.48041 16.811C6.51329 16.9122 6.58235 16.9978 6.67436 17.0513C6.7722 17.1043 6.88703 17.1166 6.99389 17.0855C7.10074 17.0544 7.19101 16.9824 7.24507 16.8851L7.25709 16.8611C7.38525 16.5907 7.65759 16.0801 7.75371 15.8598C7.88443 15.6117 8.00077 15.3563 8.10214 15.0948C8.16885 14.8762 8.16885 14.6426 8.10214 14.424C7.93495 13.4944 7.9588 12.5406 8.17223 11.6205C8.44651 10.5571 8.7808 9.51015 9.17348 8.48458C9.27561 8.23227 9.41979 8.15417 9.57398 8.16819C9.72818 8.18221 9.99451 8.25029 9.91641 8.76894C9.77423 9.68809 9.57398 10.8555 9.51591 11.25C9.48387 11.4503 9.44783 11.8928 9.80227 12.0991C10.0806 12.2593 10.387 12.1712 10.7234 11.9449C11.7752 11.2322 12.7455 10.4062 13.617 9.48183C14.4801 8.51262 14.7545 7.9339 14.9767 7.41124C15.0165 7.32993 15.0837 7.26526 15.1665 7.22862C15.2493 7.19199 15.3424 7.18575 15.4293 7.21099C15.5214 7.23702 15.6296 7.36118 15.5555 7.62351C15.3552 8.26231 14.5742 9.72213 13.0563 11.0918C13.0225 11.1154 12.9939 11.1457 12.9724 11.1808C12.9508 11.2159 12.9368 11.2551 12.9311 11.296C12.9255 11.3368 12.9283 11.3783 12.9396 11.418C12.9508 11.4577 12.9701 11.4946 12.9963 11.5264C13.0227 11.5556 13.055 11.579 13.0911 11.5949C13.1271 11.6109 13.1661 11.6192 13.2055 11.6192C13.245 11.6192 13.2839 11.6109 13.32 11.5949C13.356 11.579 13.3883 11.5556 13.4148 11.5264C14.4621 10.6048 15.3063 9.47552 15.8939 8.21024C16.0105 7.96228 16.1102 7.70671 16.1923 7.44529C16.209 7.36494 16.2544 7.29343 16.32 7.24406C16.3856 7.1947 16.4669 7.17085 16.5487 7.17695C16.7149 7.21099 16.8251 7.3772 16.773 7.66356C16.6877 8.02142 16.5628 8.36867 16.4005 8.69885C15.964 9.62801 15.0388 10.8716 14.0416 11.9389C14.0136 11.9653 13.9914 11.9971 13.9762 12.0324C13.961 12.0677 13.9531 12.1057 13.9531 12.1442C13.9531 12.1826 13.961 12.2206 13.9762 12.2559C13.9914 12.2912 14.0136 12.323 14.0416 12.3494V12.3554ZM7.87186 7.72964C7.92392 7.68358 7.9039 7.62351 7.88988 7.57745C7.81579 7.34116 7.39726 6.35993 7.28913 6.16368C7.28188 6.14472 7.27087 6.12742 7.25675 6.11283C7.24263 6.09825 7.2257 6.08667 7.20699 6.07881C7.18827 6.07095 7.16815 6.06697 7.14785 6.0671C7.12755 6.06723 7.10749 6.07148 7.08888 6.07958C6.94101 6.15566 6.80589 6.25429 6.68838 6.37194C6.55519 6.4748 6.43955 6.59856 6.34595 6.7384C6.33645 6.75532 6.33041 6.77397 6.32818 6.79325C6.32596 6.81253 6.3276 6.83206 6.33301 6.8507C6.33841 6.86934 6.34748 6.88672 6.35967 6.90182C6.37186 6.91692 6.38694 6.92944 6.40402 6.93865C6.58425 7.07482 7.5034 7.6175 7.72567 7.71963C7.77173 7.74166 7.8278 7.76969 7.87987 7.71963L7.87186 7.72964ZM5.86935 8.06005C5.75521 8.06005 5.70715 8.10811 5.69313 8.18621C5.67998 8.35405 5.69282 8.52291 5.73118 8.68684C5.75083 8.85365 5.79609 9.01643 5.86535 9.16944C5.88438 9.20351 5.91593 9.22883 5.9533 9.24004C5.99068 9.25126 6.03096 9.24748 6.0656 9.22952C6.26585 9.14541 7.21503 8.64278 7.41929 8.50661C7.46134 8.47858 7.51341 8.44453 7.50139 8.37445L5.86935 8.06005ZM15.4413 16.4205C15.3712 16.4205 15.3512 16.4866 15.3332 16.5326C15.2491 16.7629 14.9868 17.7982 14.9527 18.0205C14.9467 18.04 14.9447 18.0605 14.947 18.0807C14.9492 18.101 14.9556 18.1205 14.9658 18.1382C14.9759 18.1558 14.9896 18.1712 15.0059 18.1834C15.0223 18.1955 15.041 18.2041 15.0608 18.2087C15.2265 18.2405 15.3961 18.2459 15.5635 18.2248C15.7316 18.2227 15.8984 18.1951 16.0581 18.1427C16.0767 18.135 16.0936 18.1237 16.1078 18.1094C16.1219 18.0952 16.1331 18.0782 16.1405 18.0595C16.148 18.0408 16.1516 18.0208 16.1512 18.0007C16.1508 17.9806 16.1464 17.9608 16.1382 17.9424C16.0761 17.7261 15.6776 16.7409 15.5635 16.5186C15.5394 16.4746 15.5114 16.4185 15.4413 16.4225V16.4205ZM16.0421 15.9419C16.008 16.004 16.0421 16.052 16.0801 16.0901C16.2343 16.2903 16.9812 17.0453 17.1535 17.1895C17.1675 17.2043 17.1844 17.2161 17.2032 17.2242C17.2219 17.2323 17.2422 17.2365 17.2626 17.2365C17.283 17.2365 17.3032 17.2323 17.322 17.2242C17.3408 17.2161 17.3577 17.2043 17.3717 17.1895C17.484 17.0644 17.5759 16.9225 17.6441 16.7689C17.7284 16.6234 17.7886 16.4651 17.8223 16.3004C17.8223 16.2203 17.8023 16.1562 17.6921 16.1261C17.4759 16.0661 16.4225 15.8938 16.1762 15.8798C16.1262 15.8798 16.0641 15.8798 16.0321 15.9319L16.0421 15.9419ZM12.3815 21.6791C12.3819 21.7549 12.3597 21.8291 12.3179 21.8923C12.276 21.9555 12.2163 22.0049 12.1463 22.0341C12.0763 22.0633 11.9993 22.071 11.9249 22.0563C11.8505 22.0416 11.7822 22.0051 11.7286 21.9515C11.675 21.8979 11.6385 21.8296 11.6238 21.7552C11.6091 21.6808 11.6168 21.6038 11.646 21.5338C11.6752 21.4638 11.7246 21.4041 11.7878 21.3622C11.851 21.3204 11.9252 21.2982 12.001 21.2986C12.051 21.2986 12.1005 21.3084 12.1466 21.3276C12.1928 21.3467 12.2347 21.3747 12.2701 21.41C12.3054 21.4454 12.3334 21.4873 12.3525 21.5335C12.3717 21.5796 12.3815 21.6291 12.3815 21.6791ZM12.3815 2.32288C12.3815 2.39861 12.359 2.47264 12.3169 2.53558C12.2748 2.59852 12.2149 2.64754 12.1449 2.67643C12.0749 2.70532 11.9979 2.71278 11.9237 2.69786C11.8494 2.68294 11.7813 2.64631 11.7279 2.59262C11.6744 2.53893 11.6382 2.47059 11.6236 2.39627C11.6091 2.32194 11.617 2.24497 11.6462 2.17512C11.6755 2.10527 11.7248 2.04567 11.788 2.00389C11.8511 1.9621 11.9253 1.94001 12.001 1.9404C12.0512 1.9404 12.1008 1.95031 12.1471 1.96956C12.1934 1.9888 12.2354 2.01701 12.2708 2.05255C12.3061 2.08809 12.3341 2.13027 12.3531 2.17667C12.3721 2.22306 12.3818 2.27275 12.3815 2.32288ZM14.8726 21.2505C14.8918 21.3232 14.889 21.4 14.8646 21.4711C14.8402 21.5422 14.7953 21.6045 14.7356 21.6501C14.6758 21.6957 14.6039 21.7226 14.5288 21.7274C14.4538 21.7321 14.379 21.7146 14.314 21.6769C14.2489 21.6392 14.1965 21.5831 14.1633 21.5156C14.1301 21.4481 14.1177 21.3724 14.1275 21.2978C14.1374 21.2233 14.1691 21.1533 14.2187 21.0968C14.2682 21.0403 14.3334 20.9997 14.406 20.9802C14.4544 20.9672 14.5049 20.9639 14.5546 20.9705C14.6042 20.977 14.6521 20.9933 14.6955 21.0184C14.7388 21.0436 14.7768 21.077 14.8072 21.1168C14.8376 21.1567 14.8598 21.2021 14.8726 21.2505ZM9.86635 2.55317C9.8795 2.60156 9.88299 2.65206 9.87662 2.7018C9.87025 2.75153 9.85415 2.79953 9.82923 2.84304C9.80431 2.88655 9.77107 2.92473 9.7314 2.95539C9.69172 2.98606 9.6464 3.00861 9.59801 3.02176C9.54963 3.0349 9.49912 3.03839 9.44939 3.03203C9.39965 3.02566 9.35166 3.00955 9.30815 2.98464C9.26463 2.95972 9.22646 2.92647 9.19579 2.8868C9.16513 2.84713 9.14258 2.80181 9.12943 2.75342C9.10287 2.6557 9.11623 2.55143 9.16655 2.46355C9.21687 2.37568 9.30004 2.31139 9.39776 2.28484C9.49549 2.25828 9.59975 2.27163 9.68763 2.32196C9.77551 2.37228 9.8398 2.45545 9.86635 2.55317ZM17.1715 20.1912C17.1977 20.2345 17.215 20.2826 17.2223 20.3327C17.2297 20.3828 17.227 20.4338 17.2144 20.4828C17.2018 20.5318 17.1796 20.5779 17.149 20.6182C17.1184 20.6585 17.08 20.6923 17.0362 20.7176C16.9924 20.7429 16.9439 20.7592 16.8937 20.7656C16.8435 20.7719 16.7925 20.7682 16.7438 20.7546C16.695 20.741 16.6495 20.7179 16.6098 20.6864C16.5701 20.655 16.5371 20.616 16.5127 20.5717C16.4646 20.4845 16.4527 20.3819 16.4794 20.286C16.5061 20.1901 16.5694 20.1084 16.6556 20.0586C16.7419 20.0088 16.8442 19.9948 16.9406 20.0196C17.0371 20.0444 17.12 20.106 17.1715 20.1912ZM7.49138 3.42826C7.51689 3.47126 7.53368 3.51886 7.54079 3.56834C7.5479 3.61783 7.5452 3.66823 7.53284 3.71667C7.52047 3.76511 7.49868 3.81064 7.46872 3.85066C7.43876 3.89068 7.40121 3.92441 7.35821 3.94992C7.27138 4.00143 7.16764 4.01634 7.06981 3.99137C6.97198 3.9664 6.88808 3.90358 6.83656 3.81675C6.78852 3.72953 6.77658 3.62695 6.80331 3.53103C6.83004 3.43511 6.89331 3.35349 6.97954 3.30369C7.06577 3.25389 7.16809 3.23989 7.26453 3.26467C7.36097 3.28946 7.44385 3.35107 7.49539 3.43627L7.49138 3.42826ZM19.1099 18.5832C19.1813 18.6546 19.2215 18.7515 19.2215 18.8525C19.2215 18.9536 19.1813 19.0504 19.1099 19.1219C19.0385 19.1933 18.9416 19.2334 18.8406 19.2334C18.7395 19.2334 18.6427 19.1933 18.5712 19.1219C18.4998 19.0504 18.4597 18.9536 18.4597 18.8525C18.4597 18.7515 18.4998 18.6546 18.5712 18.5832C18.6427 18.5118 18.7395 18.4716 18.8406 18.4716C18.9416 18.4716 19.0385 18.5118 19.1099 18.5832ZM5.4268 4.88809C5.49823 4.95952 5.53836 5.0564 5.53836 5.15743C5.53836 5.25845 5.49823 5.35533 5.4268 5.42676C5.35537 5.49819 5.25848 5.53833 5.15746 5.53833C5.05644 5.53833 4.95956 5.49819 4.88813 5.42676C4.81669 5.35533 4.77656 5.25845 4.77656 5.15743C4.77656 5.0564 4.81669 4.95952 4.88813 4.88809C4.95956 4.81666 5.05644 4.77653 5.15746 4.77653C5.25848 4.77653 5.35537 4.81666 5.4268 4.88809ZM20.5717 16.5026C20.6599 16.552 20.7248 16.6344 20.7522 16.7317C20.7797 16.8289 20.7673 16.9331 20.7179 17.0213C20.6685 17.1094 20.5861 17.1743 20.4889 17.2018C20.3916 17.2292 20.2874 17.2168 20.1993 17.1674C20.1116 17.117 20.0476 17.0338 20.0214 16.9361C19.9951 16.8385 20.0086 16.7344 20.0591 16.6468C20.1095 16.5592 20.1927 16.4952 20.2904 16.4689C20.388 16.4426 20.4921 16.4562 20.5797 16.5066L20.5717 16.5026ZM3.80477 6.83252C3.8491 6.85694 3.88812 6.88996 3.91953 6.92964C3.95094 6.96933 3.97412 7.01488 3.9877 7.06364C4.00129 7.11239 4.00501 7.16337 3.99866 7.21358C3.9923 7.26379 3.97598 7.31223 3.95067 7.35605C3.92536 7.39988 3.89156 7.43822 3.85125 7.46882C3.81094 7.49943 3.76492 7.52168 3.71591 7.53428C3.66689 7.54688 3.61585 7.54957 3.56577 7.5422C3.5157 7.53482 3.4676 7.51754 3.4243 7.49134C3.33909 7.43981 3.27748 7.35693 3.2527 7.26049C3.22791 7.16405 3.24192 7.06173 3.29172 6.9755C3.34151 6.88927 3.42313 6.826 3.51905 6.79927C3.61497 6.77254 3.71755 6.78447 3.80477 6.83252ZM21.4468 14.1377C21.5448 14.1621 21.6291 14.2244 21.6811 14.311C21.7331 14.3976 21.7486 14.5012 21.7242 14.5992C21.6997 14.6972 21.6374 14.7815 21.5508 14.8335C21.4643 14.8855 21.3606 14.901 21.2626 14.8766H21.2506C21.2023 14.8634 21.1571 14.8409 21.1176 14.8103C21.078 14.7797 21.0449 14.7416 21.0201 14.6981C20.9953 14.6547 20.9792 14.6068 20.9729 14.5572C20.9666 14.5076 20.9701 14.4572 20.9832 14.409C20.9964 14.3607 21.0189 14.3155 21.0495 14.276C21.0801 14.2364 21.1183 14.2033 21.1617 14.1785C21.2051 14.1537 21.253 14.1376 21.3026 14.1313C21.3522 14.125 21.4026 14.1285 21.4508 14.1417L21.4468 14.1377ZM2.75546 9.1354C2.85345 9.16195 2.93687 9.22635 2.98738 9.31441C3.03789 9.40248 3.05135 9.507 3.0248 9.60499C2.99824 9.70297 2.93385 9.7864 2.84578 9.83691C2.75772 9.88742 2.6532 9.90088 2.55521 9.87432C2.46272 9.84327 2.38559 9.77805 2.33961 9.692C2.29362 9.60595 2.28226 9.50558 2.30785 9.41144C2.33343 9.31729 2.39403 9.23647 2.47724 9.18553C2.56044 9.13459 2.65997 9.11737 2.75546 9.1374V9.1354ZM21.6791 11.6145C21.7544 11.6145 21.8279 11.6368 21.8905 11.6786C21.9531 11.7204 22.0018 11.7798 22.0306 11.8494C22.0594 11.9189 22.067 11.9954 22.0523 12.0692C22.0376 12.143 22.0014 12.2108 21.9482 12.264C21.8949 12.3172 21.8272 12.3535 21.7533 12.3681C21.6795 12.3828 21.603 12.3753 21.5335 12.3465C21.464 12.3177 21.4046 12.2689 21.3628 12.2064C21.321 12.1438 21.2986 12.0702 21.2986 11.995C21.2986 11.945 21.3085 11.8955 21.3276 11.8494C21.3467 11.8032 21.3748 11.7613 21.4101 11.7259C21.4454 11.6906 21.4874 11.6626 21.5335 11.6435C21.5797 11.6243 21.6292 11.6145 21.6791 11.6145ZM2.32292 11.6145C2.37288 11.6145 2.42236 11.6243 2.46852 11.6435C2.51468 11.6626 2.55663 11.6906 2.59196 11.7259C2.62729 11.7613 2.65531 11.8032 2.67443 11.8494C2.69355 11.8955 2.7034 11.945 2.7034 11.995C2.7034 12.0449 2.69355 12.0944 2.67443 12.1406C2.65531 12.1867 2.62729 12.2287 2.59196 12.264C2.55663 12.2993 2.51468 12.3274 2.46852 12.3465C2.42236 12.3656 2.37288 12.3754 2.32292 12.3754C2.22201 12.3754 2.12524 12.3354 2.05388 12.264C1.98253 12.1927 1.94244 12.0959 1.94244 11.995C1.94244 11.8941 1.98253 11.7973 2.05388 11.7259C2.12524 11.6546 2.22201 11.6145 2.32292 11.6145ZM21.2506 9.12138C21.3457 9.10099 21.445 9.11779 21.5281 9.16833C21.6112 9.21886 21.6717 9.2993 21.6974 9.39312C21.723 9.48694 21.7117 9.58701 21.6659 9.67278C21.62 9.75855 21.5431 9.8235 21.4508 9.8543H21.4408C21.3431 9.88085 21.2388 9.8675 21.151 9.81718C21.0631 9.76685 20.9988 9.68368 20.9722 9.58596C20.9457 9.48824 20.959 9.38397 21.0094 9.29609C21.0597 9.20822 21.1428 9.14393 21.2406 9.11738L21.2506 9.12138ZM2.54319 14.1236C2.59227 14.1072 2.64418 14.101 2.69574 14.1054C2.74729 14.1098 2.79742 14.1246 2.84305 14.149C2.88868 14.1734 2.92886 14.2068 2.96112 14.2473C2.99338 14.2877 3.01706 14.3343 3.03069 14.3843C3.04433 14.4342 3.04765 14.4863 3.04043 14.5376C3.03322 14.5888 3.01563 14.638 2.98875 14.6822C2.96186 14.7264 2.92624 14.7647 2.88406 14.7947C2.84188 14.8246 2.79404 14.8457 2.74345 14.8566C2.64599 14.8831 2.54198 14.8699 2.45429 14.8197C2.3666 14.7696 2.30242 14.6867 2.27586 14.5892C2.24931 14.4918 2.26255 14.3877 2.31269 14.3001C2.36282 14.2124 2.44574 14.1482 2.54319 14.1216V14.1236ZM20.1812 6.8165C20.2246 6.79031 20.2727 6.77302 20.3227 6.76565C20.3728 6.75828 20.4238 6.76097 20.4729 6.77357C20.5219 6.78617 20.5679 6.80842 20.6082 6.83902C20.6485 6.86962 20.6823 6.90796 20.7076 6.95179C20.7329 6.99562 20.7492 7.04405 20.7556 7.09427C20.762 7.14448 20.7582 7.19545 20.7447 7.24421C20.7311 7.29296 20.7079 7.33851 20.6765 7.3782C20.6451 7.41788 20.6061 7.4509 20.5617 7.47532C20.4745 7.52337 20.3719 7.53531 20.276 7.50857C20.1801 7.48184 20.0985 7.41857 20.0487 7.33234C19.9989 7.24611 19.9849 7.1438 20.0096 7.04735C20.0344 6.95091 20.096 6.86803 20.1812 6.8165ZM3.4283 16.5086C3.49339 16.47 3.56852 16.4517 3.64407 16.456C3.71963 16.4603 3.79218 16.4871 3.85245 16.5328C3.91273 16.5786 3.95799 16.6413 3.98244 16.7129C4.0069 16.7845 4.00944 16.8618 3.98975 16.9349C3.97005 17.008 3.92902 17.0735 3.87188 17.1231C3.81474 17.1727 3.74411 17.2042 3.669 17.2135C3.59389 17.2227 3.51773 17.2094 3.45024 17.1752C3.38275 17.1409 3.327 17.0873 3.29013 17.0213C3.24109 16.9342 3.22808 16.8313 3.25391 16.7348C3.27973 16.6382 3.34233 16.5556 3.4283 16.5046V16.5086ZM18.5752 4.89009C18.6285 4.83697 18.6963 4.80081 18.7701 4.7862C18.8438 4.77159 18.9203 4.77917 18.9898 4.808C19.0592 4.83682 19.1186 4.88558 19.1604 4.94814C19.2022 5.01069 19.2245 5.08421 19.2245 5.15943C19.2245 5.23464 19.2022 5.30817 19.1604 5.37072C19.1186 5.43327 19.0592 5.48204 18.9898 5.51086C18.9203 5.53968 18.8438 5.54727 18.7701 5.53266C18.6963 5.51804 18.6285 5.48189 18.5752 5.42877C18.5042 5.35713 18.4643 5.26032 18.4643 5.15943C18.4643 5.05853 18.5042 4.96173 18.5752 4.89009ZM4.88813 18.5752C4.94137 18.5221 5.00917 18.4859 5.08295 18.4713C5.15673 18.4567 5.23319 18.4643 5.30266 18.4931C5.37213 18.5219 5.43151 18.5707 5.47328 18.6332C5.51505 18.6958 5.53734 18.7693 5.53734 18.8445C5.53734 18.9198 5.51505 18.9933 5.47328 19.0558C5.43151 19.1184 5.37213 19.1671 5.30266 19.196C5.23319 19.2248 5.15673 19.2324 5.08295 19.2178C5.00917 19.2031 4.94137 19.167 4.88813 19.1139C4.85247 19.0787 4.82415 19.0367 4.80482 18.9905C4.7855 18.9443 4.77555 18.8946 4.77555 18.8445C4.77555 18.7944 4.7855 18.7448 4.80482 18.6986C4.82415 18.6523 4.85247 18.6104 4.88813 18.5752ZM16.5026 3.42826C16.5403 3.36319 16.5964 3.31072 16.6638 3.27749C16.7313 3.24427 16.807 3.23176 16.8816 3.24156C16.9561 3.25137 17.0261 3.28303 17.0827 3.33257C17.1392 3.3821 17.1798 3.44728 17.1994 3.51988C17.2189 3.59248 17.2165 3.66924 17.1925 3.74047C17.1684 3.81171 17.1238 3.87422 17.0643 3.92013C17.0047 3.96603 16.9329 3.99326 16.8579 3.99838C16.7829 4.00351 16.7081 3.98629 16.6428 3.94892C16.5554 3.89823 16.4916 3.81504 16.4654 3.71749C16.4391 3.61994 16.4525 3.51597 16.5026 3.42826ZM6.83256 20.1912C6.85582 20.1455 6.88809 20.105 6.92741 20.0721C6.96673 20.0392 7.0123 20.0145 7.06138 19.9997C7.11046 19.9848 7.16203 19.98 7.21301 19.9856C7.26398 19.9912 7.3133 20.007 7.35801 20.0322C7.40271 20.0573 7.44188 20.0912 7.47315 20.1318C7.50442 20.1724 7.52716 20.219 7.53999 20.2686C7.55282 20.3183 7.55548 20.37 7.54782 20.4207C7.54015 20.4714 7.52232 20.52 7.49539 20.5637C7.44385 20.6489 7.36097 20.7105 7.26453 20.7353C7.16809 20.7601 7.06577 20.7461 6.97954 20.6963C6.89331 20.6465 6.83004 20.5648 6.80331 20.4689C6.77658 20.373 6.78852 20.2704 6.83656 20.1832L6.83256 20.1912ZM14.1377 2.55317C14.1493 2.50452 14.1703 2.45863 14.1996 2.41811C14.2289 2.37759 14.2659 2.34324 14.3085 2.31702C14.3511 2.2908 14.3984 2.27323 14.4478 2.2653C14.4972 2.25737 14.5476 2.25925 14.5963 2.27082C14.6449 2.28239 14.6908 2.30343 14.7313 2.33274C14.7718 2.36204 14.8062 2.39904 14.8324 2.44163C14.8586 2.48421 14.8762 2.53154 14.8841 2.58091C14.8921 2.63029 14.8902 2.68074 14.8786 2.72939V2.75142C14.8521 2.84887 14.7879 2.93179 14.7002 2.98193C14.6125 3.03206 14.5085 3.04531 14.411 3.01875C14.3136 2.9922 14.2307 2.92802 14.1805 2.84033C14.1304 2.75264 14.1171 2.64862 14.1437 2.55117L14.1377 2.55317ZM9.13744 21.2485C9.14967 21.2 9.17133 21.1544 9.2012 21.1142C9.23106 21.0741 9.26854 21.0402 9.31149 21.0146C9.35445 20.9889 9.40204 20.972 9.45154 20.9647C9.50105 20.9574 9.5515 20.96 9.60002 20.9722C9.64853 20.9844 9.69417 21.0061 9.73432 21.036C9.77446 21.0658 9.80833 21.1033 9.83399 21.1462C9.85965 21.1892 9.8766 21.2368 9.88387 21.2863C9.89114 21.3358 9.88859 21.3863 9.87636 21.4348C9.84981 21.5322 9.78563 21.6151 9.69794 21.6653C9.61025 21.7154 9.50623 21.7287 9.40878 21.7021C9.31132 21.6756 9.22841 21.6114 9.17827 21.5237C9.12814 21.436 9.11489 21.332 9.14144 21.2345" fill="#28646E"/>
<path d="M12.001 24C14.3747 24 16.695 23.2961 18.6686 21.9773C20.6422 20.6585 22.1804 18.7841 23.0887 16.5911C23.9969 14.3981 24.2345 11.985 23.7713 9.65698C23.308 7.32896 22.1648 5.19059 20.4863 3.5123C18.8077 1.834 16.6691 0.691178 14.341 0.228343C12.013 -0.234492 9.59989 0.00345351 7.40703 0.912088C5.21417 1.82072 3.34001 3.35923 2.02156 5.33305C0.703114 7.30687 -0.000395905 9.62734 1.67148e-07 12.001C0.00423984 15.1824 1.27005 18.2322 3.51981 20.4816C5.76958 22.731 8.81962 23.9963 12.001 24ZM12.001 1.01526C14.1738 1.01526 16.2977 1.65956 18.1043 2.86669C19.9109 4.07382 21.319 5.78956 22.1505 7.79694C22.982 9.80432 23.1995 12.0132 22.7756 14.1442C22.3518 16.2752 21.3055 18.2327 19.7691 19.7691C18.2327 21.3055 16.2752 22.3518 14.1442 22.7756C12.0132 23.1995 9.80432 22.982 7.79694 22.1505C5.78956 21.319 4.07383 19.9109 2.8667 18.1043C1.65957 16.2977 1.01527 14.1738 1.01527 12.001C1.01845 9.08838 2.17689 6.29596 4.23643 4.23642C6.29596 2.17689 9.08838 1.01844 12.001 1.01526Z" fill="#28646E"/>
</g>
<defs>
<clipPath id="clip0">
<rect width="24" height="24" fill="white"/>
</clipPath>
</defs>
</svg>
