<svg width="24" height="24" viewBox="0 0 24 24" fill="none" xmlns="http://www.w3.org/2000/svg">
<path fill-rule="evenodd" clip-rule="evenodd" d="M13.1066 15.4744L14.9136 16.5052L22.2425 11.0856C23.3175 10.2905 23.9472 9.04515 23.9701 7.66886C23.9931 6.2927 23.4052 5.02523 22.3574 4.19186L18.2953 0.960007L13.3754 4.49571L14.9994 5.67369L18.2401 3.34465L21.2378 5.72955C21.8121 6.18646 22.1343 6.88093 22.1217 7.63524C22.1092 8.38955 21.764 9.07213 21.1748 9.50793L13.1066 15.4744Z" fill="#038199"/>
<path fill-rule="evenodd" clip-rule="evenodd" d="M11.0099 8.5409L9.29049 7.43143L1.77312 12.8341C0.670748 13.6266 0.00805733 14.9344 6.83545e-05 16.333C-0.00766055 17.7314 0.64046 19.0472 1.73394 19.853L6.06773 23.0467L11.0099 19.392L9.23965 18.3339L6.06591 20.681L2.79901 18.2734C2.19085 17.8252 1.84439 17.122 1.84874 16.3441C1.8531 15.5662 2.20729 14.8672 2.82053 14.4266L11.0099 8.5409Z" fill="#018294"/>
<path fill-rule="evenodd" clip-rule="evenodd" d="M2.79601 9.50793C2.20677 9.07213 1.86158 8.38955 1.84913 7.63524C1.83649 6.88093 2.15871 6.18646 2.73302 5.72955L5.73054 3.34465L17.7895 12.0113L19.3978 10.822L5.67558 0.960007L1.61336 4.19186C0.565579 5.02523 -0.022209 6.2927 0.000642349 7.66886C0.0236146 9.04515 0.653297 10.2905 1.72834 11.0856L2.9495 11.9886L4.57291 10.8219L2.79601 9.50793Z" fill="#4DBEC8"/>
<path fill-rule="evenodd" clip-rule="evenodd" d="M22.1975 12.8341L21.0213 11.9888L19.4129 13.1781L21.1501 14.4266C21.7633 14.8674 22.1176 15.5662 22.1221 16.3441C22.1264 17.122 21.78 17.8252 21.1717 18.2734L17.9049 20.681L6.18122 12.0113L4.5578 13.178L17.9031 23.0467L22.2369 19.853C23.3303 19.0472 23.9785 17.7314 23.9705 16.333C23.9627 14.9344 23.2998 13.6266 22.1975 12.8341Z" fill="#4DBEC8"/>
</svg>
