<svg width="24" height="24" viewBox="0 0 24 24" fill="none" xmlns="http://www.w3.org/2000/svg">
<path d="M14.4203 2.20255L12.1519 4.4709L12.6177 4.93673C12.6799 4.9998 12.754 5.04988 12.8357 5.08407C12.9174 5.11825 13.0051 5.13586 13.0937 5.13586C13.1822 5.13586 13.2699 5.11825 13.3516 5.08407C13.4333 5.04988 13.5074 4.9998 13.5696 4.93673L15.838 2.66837L15.3722 2.20255C15.31 2.13948 15.2359 2.08939 15.1542 2.05521C15.0725 2.02102 14.9848 2.00342 14.8962 2.00342C14.8076 2.00342 14.7199 2.02102 14.6382 2.05521C14.5565 2.08939 14.4824 2.13948 14.4203 2.20255ZM8.6481 2.20255L8.10127 2.66837L10.4709 4.93673C10.5313 4.9992 10.6037 5.04888 10.6837 5.08281C10.7638 5.11674 10.8498 5.13422 10.9367 5.13422C11.0236 5.13422 11.1097 5.11674 11.1897 5.08281C11.2697 5.04888 11.3421 4.9992 11.4025 4.93673L11.8684 4.4709L9.57975 2.20255C9.51931 2.14008 9.44693 2.0904 9.3669 2.05647C9.28688 2.02254 9.20085 2.00505 9.11392 2.00505C9.027 2.00505 8.94097 2.02254 8.86094 2.05647C8.78092 2.0904 8.70854 2.14008 8.6481 2.20255ZM16.5671 5.17976L12.2532 9.49369L13.1241 10.3848C13.3624 10.6174 13.6822 10.7476 14.0152 10.7476C14.3482 10.7476 14.668 10.6174 14.9063 10.3848L19.2203 6.05065L18.3494 5.17976C18.1145 4.94847 17.798 4.81883 17.4684 4.81883C17.1387 4.81883 16.8222 4.94847 16.5873 5.17976H16.5671ZM5.65063 5.17976L4.77975 6.05065L9.09367 10.3646C9.20896 10.4846 9.34733 10.5802 9.50047 10.6454C9.6536 10.7107 9.81835 10.7443 9.98481 10.7443C10.1513 10.7443 10.316 10.7107 10.4692 10.6454C10.6223 10.5802 10.7607 10.4846 10.8759 10.3646L11.7468 9.49369L7.43291 5.17976C7.19458 4.94719 6.87477 4.81701 6.54177 4.81701C6.20877 4.81701 5.88896 4.94719 5.65063 5.17976ZM11.5241 5.0785L11.0785 5.54432L12.0101 6.47597L12.9418 5.54432L12.4759 5.0785C12.4155 5.01602 12.3431 4.96634 12.2631 4.93242C12.1831 4.89849 12.097 4.881 12.0101 4.881C11.9232 4.881 11.8372 4.89849 11.7571 4.93242C11.6771 4.96634 11.6047 5.01602 11.5443 5.0785H11.5241ZM19.6253 9.39242L12.4354 16.562L13.8734 18.0203C14.0629 18.2226 14.2918 18.3839 14.5461 18.4942C14.8005 18.6045 15.0747 18.6614 15.3519 18.6614C15.6291 18.6614 15.9033 18.6045 16.1576 18.4942C16.412 18.3839 16.6409 18.2226 16.8304 18.0203L24 10.8507L22.562 9.39242C22.3726 9.19007 22.1436 9.02876 21.8893 8.91848C21.635 8.8082 21.3607 8.7513 21.0835 8.7513C20.8064 8.7513 20.5321 8.8082 20.2778 8.91848C20.0235 9.02876 19.7945 9.19007 19.6051 9.39242H19.6253ZM1.39747 9.39242L0 10.8304L7.16962 18.0203C7.35907 18.2226 7.58804 18.3839 7.84235 18.4942C8.09666 18.6045 8.37091 18.6614 8.6481 18.6614C8.9253 18.6614 9.19954 18.6045 9.45385 18.4942C9.70817 18.3839 9.93713 18.2226 10.1266 18.0203L11.5848 16.562L4.41519 9.39242C4.22574 9.19007 3.99677 9.02876 3.74246 8.91848C3.48815 8.8082 3.2139 8.7513 2.93671 8.7513C2.65951 8.7513 2.38527 8.8082 2.13096 8.91848C1.87664 9.02876 1.64768 9.19007 1.45823 9.39242H1.39747ZM11.0582 10.6481L10.1873 11.519L11.9494 13.281L13.7722 11.519L12.9013 10.6481C12.7845 10.5305 12.6457 10.4372 12.4928 10.3736C12.3398 10.3099 12.1758 10.2771 12.0101 10.2771C11.8445 10.2771 11.6804 10.3099 11.5275 10.3736C11.3745 10.4372 11.2357 10.5305 11.119 10.6481H11.0582ZM10.5316 18.4658L9.07342 19.9038L12.0101 22.8405L14.9266 19.9038L13.4886 18.4658C13.2992 18.2635 13.0702 18.1022 12.8159 17.9919C12.5616 17.8816 12.2873 17.8247 12.0101 17.8247C11.7329 17.8247 11.4587 17.8816 11.2044 17.9919C10.9501 18.1022 10.7211 18.2635 10.5316 18.4658Z" fill="url(#paint0_linear)"/>
<defs>
<linearGradient id="paint0_linear" x1="8.90633" y1="14.1379" x2="28.8263" y2="14.1379" gradientUnits="userSpaceOnUse">
<stop stop-color="#7CB7FF"/>
<stop offset="1" stop-color="#BA6DF6"/>
</linearGradient>
</defs>
</svg>
