<svg width="24" height="24" viewBox="0 0 24 24" fill="none" xmlns="http://www.w3.org/2000/svg">
<path fill-rule="evenodd" clip-rule="evenodd" d="M23.962 11.957C23.962 18.5515 18.6162 23.8973 12.0217 23.8973C5.42715 23.8973 0.0813599 18.5515 0.0813599 11.957C0.0813599 5.36245 5.42715 0.0166626 12.0217 0.0166626C18.6162 0.0166626 23.962 5.36245 23.962 11.957Z" fill="#E1F0FF"/>
<path fill-rule="evenodd" clip-rule="evenodd" d="M8.93707 10.4246L18.1112 5.09123V16.0178C18.1112 17.5038 17.3071 18.8733 16.0094 19.5974L15.3649 19.9569V9.19081L11.0167 11.6783L8.93707 10.4246Z" fill="#25558B"/>
<path fill-rule="evenodd" clip-rule="evenodd" d="M14.5092 13.6286L8.93704 10.4247L18.1112 5.0913L17.2262 4.63649C15.991 4.00174 14.5184 4.03553 13.3136 4.7264L4.00092 10.0665L14.4296 16.1361L14.5092 13.6286Z" fill="#5191D9"/>
<path fill-rule="evenodd" clip-rule="evenodd" d="M4.00092 10.0664V11.2503C4.00092 12.7316 4.8002 14.0978 6.09154 14.8235L15.3848 20.0469V9.19081L13.0896 10.4924V15.3362L4.00092 10.0664Z" fill="#97BDE8"/>
</svg>
