<svg width="24" height="24" viewBox="0 0 24 24" fill="none" xmlns="http://www.w3.org/2000/svg">
<path d="M11.6105 1.09207L1.9201 6.70319V17.9262L11.6105 23.5379L21.3009 17.9262V6.70319L11.6105 1.09207Z" fill="white"/>
<path d="M15.4276 19.1455H14.0534L12.4076 17.6257V16.8533L14.1147 15.2109V12.6192L16.3476 11.1615L18.8957 13.0849L15.4276 19.1455ZM9.72791 15.0522L9.98173 12.6103L9.15014 10.4325H14.0884L13.2743 12.6103L13.5106 15.0435L11.6104 15.0522H9.72791ZM10.8485 17.6257L9.20264 19.1632H7.81013L4.32587 13.0849L6.88209 11.1792L9.14133 12.6192V15.2109L10.8485 16.8533V17.6257ZM7.78447 5.9438H15.4106L16.3301 9.84349H6.89959L7.78447 5.9438ZM11.6104 1.09206L1.92004 6.70318V17.9262L11.6104 23.5379L21.301 17.9262V6.70318L11.6104 1.09206Z" fill="#002D72"/>
<path style="mix-blend-mode:multiply" d="M15.4277 19.1456H14.0533L12.4075 17.6258V16.8532L14.1148 15.2108V12.6191L16.3477 11.1616L18.8958 13.0849L15.4277 19.1456ZM11.6105 1.0921V5.94372H15.4107L16.3302 9.8434H11.6105V10.4324H14.0885L13.2742 12.6104L13.5106 15.0436L11.6105 15.0523V23.5379L21.3009 17.9261V6.70309L11.6105 1.0921Z" fill="url(#paint0_linear)"/>
<path style="mix-blend-mode:multiply" d="M10.8485 17.6258L9.20271 19.1631H7.8102L4.32594 13.085L6.88202 11.1791L9.14127 12.6191V15.2108L10.8485 16.8532V17.6258ZM9.72785 15.0523L9.98167 12.6104L9.15021 10.4324H11.6105V9.84342H6.89966L7.78454 5.94373H11.6105V1.09212L1.91998 6.70311V17.9261L11.6105 23.5379V15.0523H9.72785Z" fill="url(#paint1_linear)"/>
<defs>
<linearGradient id="paint0_linear" x1="16.4558" y1="21.1165" x2="16.4558" y2="3.45819" gradientUnits="userSpaceOnUse">
<stop stop-color="#002D72"/>
<stop offset="1" stop-color="#002D72" stop-opacity="0"/>
</linearGradient>
<linearGradient id="paint1_linear" x1="6.76527" y1="21.1165" x2="6.76527" y2="3.4582" gradientUnits="userSpaceOnUse">
<stop stop-color="#002D72" stop-opacity="0"/>
<stop offset="1" stop-color="#002D72"/>
</linearGradient>
</defs>
</svg>
