<svg width="24" height="24" viewBox="0 0 24 24" fill="none" xmlns="http://www.w3.org/2000/svg">
<path fill-rule="evenodd" clip-rule="evenodd" d="M17.0363 4.80925C15.0557 4.80925 13.2684 5.63579 12 6.96303C13.1938 8.2132 13.9275 9.90687 13.9275 11.773C13.9275 10.0561 15.3194 8.66417 17.0363 8.66417C18.7532 8.66417 20.1451 10.0561 20.1451 11.773C20.1451 13.4899 18.7532 14.8818 17.0363 14.8818C15.3194 14.8818 13.9275 13.4899 13.9275 11.773C13.9275 13.6383 13.1938 15.3328 12 16.5829C13.2684 17.9102 15.0557 18.7367 17.0363 18.7367C20.8821 18.7367 24 15.6188 24 11.773C24 7.9272 20.8821 4.80925 17.0363 4.80925Z" fill="#1CA8E5"/>
<path fill-rule="evenodd" clip-rule="evenodd" d="M12 6.96303C10.8062 8.21319 10.0725 9.90687 10.0725 11.773C10.0725 13.6383 10.8062 15.3328 12 16.5829C13.1938 15.3328 13.9274 13.6383 13.9274 11.773C13.9274 9.90687 13.1938 8.21319 12 6.96303Z" fill="#1F3463"/>
<path fill-rule="evenodd" clip-rule="evenodd" d="M6.96373 14.8818C5.24681 14.8818 3.85492 13.4899 3.85492 11.773C3.85492 10.0561 5.24681 8.66417 6.96373 8.66417C8.68059 8.66417 10.0725 10.0561 10.0725 11.773C10.0725 9.90687 10.8062 8.2132 12 6.96303C10.7316 5.63579 8.94427 4.80925 6.96373 4.80925C3.11795 4.80925 0 7.9272 0 11.773C0 15.6188 3.11795 18.7367 6.96373 18.7367C8.94427 18.7367 10.7316 17.9102 12 16.5829C10.8062 15.3328 10.0725 13.6383 10.0725 11.773C10.0725 13.4899 8.68059 14.8818 6.96373 14.8818Z" fill="#D81A5A"/>
</svg>
