<svg width="24" height="24" viewBox="0 0 24 24" fill="none" xmlns="http://www.w3.org/2000/svg">
<g clip-path="url(#clip0)">
<path d="M8.36065 0.766031C9.23002 -0.123412 10.7325 -0.258359 11.7432 0.466658C12.7444 1.12603 13.1603 2.4984 12.7236 3.60976C12.469 4.30509 11.9014 4.84958 11.23 5.14499C11.4328 6.18924 11.6481 7.23035 11.8519 8.27293C13.063 8.18669 14.2885 8.76422 14.9847 9.75955C15.7879 10.8676 15.8286 12.4316 15.1348 13.6036C16.4449 14.8291 17.7521 16.0573 19.0563 17.288C19.694 16.7667 20.59 16.5735 21.3716 16.8585C22.2705 17.1707 22.9172 18.08 22.906 19.0327C22.9148 19.8794 22.411 20.6989 21.659 21.0845C21.1935 21.3354 20.6411 21.3911 20.1254 21.2968C19.2663 21.1276 18.5421 20.4274 18.3466 19.5739C18.2093 19.0471 18.3048 18.4914 18.5138 17.9972C17.2021 16.7662 15.8944 15.5303 14.578 14.3048C13.6766 15.1759 12.3154 15.5359 11.109 15.1678C10.4512 16.961 9.83567 18.7693 9.17786 20.5631C9.42371 20.9416 9.62567 21.3647 9.63925 21.8246C9.66162 22.5128 9.32953 23.2066 8.76424 23.6041C8.25497 23.9706 7.57636 24.1014 6.97281 23.917C6.20075 23.708 5.59239 23.0181 5.47584 22.2277C5.39357 21.8254 5.50061 21.4198 5.62354 21.039C5.36086 20.8509 5.09985 20.6614 4.83716 20.4737C4.51699 20.6478 4.16577 20.7922 3.79448 20.7715C3.03873 20.7888 2.32344 20.2555 2.0941 19.5402C1.86413 18.8887 2.06692 18.1191 2.57389 17.6529C3.04333 17.2017 3.76553 17.0466 4.37985 17.2568C5.06797 17.478 5.58852 18.147 5.61006 18.8728C5.63567 19.1968 5.53824 19.5114 5.43288 19.8135C5.6779 19.9808 5.91748 20.156 6.16176 20.3245C6.47389 20.085 6.83159 19.8925 7.22598 19.8366C7.63866 19.7536 8.05176 19.871 8.44344 19.9915C9.05096 18.2615 9.67291 16.537 10.2821 14.8069C9.24821 14.1692 8.54483 12.9946 8.5903 11.766C8.55403 10.2944 9.58887 8.91401 10.9737 8.45178C10.7781 7.41234 10.5569 6.3777 10.3597 5.33899C9.4927 5.35499 8.62333 4.96697 8.10455 4.26485C7.30385 3.24694 7.4204 1.65579 8.36086 0.766449L8.36065 0.766031ZM9.96727 1.09373C9.10584 1.20871 8.47114 2.13485 8.6711 2.98028C8.80762 3.68126 9.46145 4.2545 10.1841 4.24802C10.8844 4.29359 11.5659 3.79938 11.7584 3.12798C11.9763 2.45492 11.6754 1.65903 11.0638 1.30289C10.7413 1.0953 10.3425 1.04157 9.96769 1.09384L9.96727 1.09373ZM11.5796 9.82812C10.5785 10.0677 9.89587 11.155 10.1083 12.161C10.2624 13.0958 11.1485 13.8367 12.0978 13.8159C13.0254 13.8415 13.8988 13.139 14.0856 12.232C14.2765 11.4296 13.9148 10.5275 13.2147 10.0891C12.7389 9.77554 12.1288 9.68032 11.5796 9.82781V9.82812ZM20.1915 17.8641C19.6087 18.0573 19.2215 18.7271 19.3892 19.326C19.5209 19.9103 20.122 20.3422 20.7192 20.2696C21.3579 20.2145 21.8888 19.6006 21.8257 18.9571C21.8097 18.1739 20.9235 17.5773 20.1915 17.8641ZM3.50744 18.1072C2.84891 18.3019 2.67716 19.2675 3.2296 19.6775C3.73971 20.1429 4.65946 19.7757 4.71769 19.0899C4.83194 18.4488 4.1134 17.854 3.50744 18.1073V18.1072ZM7.26371 20.9223C6.96988 21.0053 6.72162 21.2296 6.6011 21.5098C6.33518 22.0952 6.75591 22.8495 7.39699 22.9166C7.98779 23.022 8.58978 22.5089 8.56344 21.9075C8.59479 21.2503 7.88723 20.7242 7.26371 20.9222" fill="#6EA8F2"/>
</g>
<defs>
<clipPath id="clip0">
<rect width="24" height="24" fill="white"/>
</clipPath>
</defs>
</svg>
