<svg width="24" height="24" viewBox="0 0 24 24" fill="none" xmlns="http://www.w3.org/2000/svg">
<path d="M10.8187 0C12.0839 0.791821 13.1613 1.84988 13.9759 3.10051C14.7905 4.35114 15.3228 5.76429 15.5356 7.24158C15.8087 9.08927 15.6092 10.976 14.9558 12.7257C14.3024 14.4755 13.2163 16.0311 11.799 17.2476C9.74808 18.997 6.60623 20.4573 2 19.8932C2 19.8932 3.37822 21.9604 6.57955 23.191C8.79503 24.0457 11.2135 24.2276 13.5319 23.7139C15.8502 23.2002 17.9655 22.0139 19.6127 20.3034C21.526 18.312 22.6311 15.6807 22.7135 12.9203C22.7135 12.9203 23.3289 1.02546 10.8187 0Z" fill="#0099FF"/>
</svg>
