<svg width="24" height="24" viewBox="0 0 24 24" fill="none" xmlns="http://www.w3.org/2000/svg">
<path d="M16.0606 16.5074L12.8689 18.9811V11.515C12.8689 10.883 13.0157 10.2597 13.2978 9.6941C13.5799 9.12855 13.9896 8.6363 14.4945 8.25617L17.6386 5.89042V13.2834C17.6389 13.9056 17.4968 14.5195 17.2233 15.0783C16.9498 15.6371 16.5521 16.126 16.0606 16.5074ZM7.93853 16.5117C7.44657 16.1305 7.04837 15.6418 6.77441 15.0829C6.50045 14.5241 6.358 13.91 6.35796 13.2876V5.89466L9.50211 8.26382C10.0065 8.64395 10.4157 9.13601 10.6975 9.70124C10.9793 10.2665 11.126 10.8894 11.126 11.521V18.9853L7.93598 16.5117H7.93853ZM22.2996 20.3951L19.2404 22.7286V6.79032C19.2404 6.12467 19.3937 5.46797 19.6884 4.87113C19.9832 4.27429 20.4114 3.75337 20.94 3.34876L24 1V16.9484C23.9999 17.6156 23.8458 18.2737 23.5497 18.8715C23.2536 19.4694 22.8235 19.9908 22.2928 20.3951H22.2996ZM1.71313 20.3951C1.18162 19.9916 0.750479 19.4707 0.453326 18.8732C0.156172 18.2756 0.00103294 17.6175 0 16.9501L0 1L3.06936 3.35046C3.59792 3.75507 4.02618 4.27599 4.32091 4.87283C4.61565 5.46967 4.76894 6.12637 4.7689 6.79202V22.7303L1.70973 20.3968L1.71313 20.3951Z" fill="#0072FF"/>
</svg>
