<svg width="24" height="24" viewBox="0 0 24 24" fill="none" xmlns="http://www.w3.org/2000/svg">
<path d="M1.51297 3C0.674651 3 0 3.67864 0 4.51297V12.0739V15.3273V19.6826C0 20.517 0.674651 21.1956 1.51297 21.1956C2.3513 21.1956 3.02595 20.517 3.02595 19.6826V4.51297C3.02196 3.67864 2.34731 3 1.51297 3Z" fill="url(#paint0_linear)"/>
<path d="M22.487 3C21.6526 3 20.974 3.67864 20.974 4.51297V19.6826C20.974 20.517 21.6526 21.1956 22.487 21.1956C23.3213 21.1956 23.9999 20.517 23.9999 19.6826V4.51297C23.9999 3.67864 23.3213 3 22.487 3Z" fill="url(#paint1_linear)"/>
<path d="M8.50296 6.15369C7.66863 6.15369 6.98999 6.82834 6.98999 7.66666V16.5289C6.98999 17.3633 7.66863 18.0419 8.50296 18.0419C9.3373 18.0419 10.0159 17.3633 10.0159 16.5289V7.66666C10.0159 6.83233 9.3373 6.15369 8.50296 6.15369Z" fill="url(#paint2_linear)"/>
<path d="M15.497 8.70061C14.6627 8.70061 13.984 9.37925 13.984 10.2136V13.9541C13.984 14.7884 14.6627 15.4671 15.497 15.4671C16.3313 15.4671 17.01 14.7884 17.01 13.9541V10.2136C17.006 9.37526 16.3313 8.70061 15.497 8.70061Z" fill="url(#paint3_linear)"/>
<defs>
<linearGradient id="paint0_linear" x1="-0.0362435" y1="12.2584" x2="32.1375" y2="8.91626" gradientUnits="userSpaceOnUse">
<stop stop-color="#4400E2"/>
<stop offset="0.0411" stop-color="#7013C5"/>
<stop offset="0.0866" stop-color="#9A25AA"/>
<stop offset="0.1333" stop-color="#BC3494"/>
<stop offset="0.1804" stop-color="#D73F82"/>
<stop offset="0.2284" stop-color="#EA4876"/>
<stop offset="0.2776" stop-color="#F54C6E"/>
<stop offset="0.33" stop-color="#F94E6C"/>
<stop offset="1" stop-color="#FFD402"/>
</linearGradient>
<linearGradient id="paint1_linear" x1="0.187616" y1="14.4139" x2="32.3613" y2="11.0718" gradientUnits="userSpaceOnUse">
<stop stop-color="#4400E2"/>
<stop offset="0.0411" stop-color="#7013C5"/>
<stop offset="0.0866" stop-color="#9A25AA"/>
<stop offset="0.1333" stop-color="#BC3494"/>
<stop offset="0.1804" stop-color="#D73F82"/>
<stop offset="0.2284" stop-color="#EA4876"/>
<stop offset="0.2776" stop-color="#F54C6E"/>
<stop offset="0.33" stop-color="#F94E6C"/>
<stop offset="1" stop-color="#FFD402"/>
</linearGradient>
<linearGradient id="paint2_linear" x1="0.0383689" y1="12.977" x2="32.2121" y2="9.63482" gradientUnits="userSpaceOnUse">
<stop stop-color="#4400E2"/>
<stop offset="0.0411" stop-color="#7013C5"/>
<stop offset="0.0866" stop-color="#9A25AA"/>
<stop offset="0.1333" stop-color="#BC3494"/>
<stop offset="0.1804" stop-color="#D73F82"/>
<stop offset="0.2284" stop-color="#EA4876"/>
<stop offset="0.2776" stop-color="#F54C6E"/>
<stop offset="0.33" stop-color="#F94E6C"/>
<stop offset="1" stop-color="#FFD402"/>
</linearGradient>
<linearGradient id="paint3_linear" x1="0.111336" y1="13.6794" x2="32.2851" y2="10.3372" gradientUnits="userSpaceOnUse">
<stop stop-color="#4400E2"/>
<stop offset="0.0411" stop-color="#7013C5"/>
<stop offset="0.0866" stop-color="#9A25AA"/>
<stop offset="0.1333" stop-color="#BC3494"/>
<stop offset="0.1804" stop-color="#D73F82"/>
<stop offset="0.2284" stop-color="#EA4876"/>
<stop offset="0.2776" stop-color="#F54C6E"/>
<stop offset="0.33" stop-color="#F94E6C"/>
<stop offset="1" stop-color="#FFD402"/>
</linearGradient>
</defs>
</svg>
