<svg width="24" height="24" viewBox="0 0 24 24" fill="none" xmlns="http://www.w3.org/2000/svg">
<path fill-rule="evenodd" clip-rule="evenodd" d="M12.4078 20.1553L15.0873 5.53399C15.0873 5.53399 17.2136 6.11654 18.466 7.16505C19.9048 8.36973 20.6796 10.4272 20.6796 10.4272C20.6796 10.4272 21.7572 8.59223 21.3786 6.52426C21 4.45514 19.4936 2.647 19.447 2.59107C19.4458 2.58991 19.4458 2.58991 19.4458 2.58991C17.9208 1.38061 16.094 0.534776 14.0959 0.182922L10.9515 17.534C10.9515 17.534 9.4497 16.2361 6.11651 16.7185C3.699 17.068 1.97937 18.6035 1.97937 18.6035C3.57785 21.0257 6.03141 22.8337 8.91146 23.5981C8.91146 23.5981 11.0097 23.1845 12.4078 20.1553Z" fill="white"/>
<path fill-rule="evenodd" clip-rule="evenodd" d="M19.447 2.59106C19.4936 2.64699 21 4.45514 21.3787 6.52426C21.7573 8.59222 20.6796 10.4272 20.6796 10.4272C20.6796 10.4272 19.9048 8.36972 18.466 7.16505C17.2136 6.11653 15.0874 5.53398 15.0874 5.53398L12.4078 20.1553C11.0097 23.1845 8.9115 23.5981 8.9115 23.5981C9.8971 23.8602 10.9317 24 12 24C18.628 24 24 18.628 24 12C24 8.18565 22.221 4.78717 19.447 2.59106Z" fill="#E9B200"/>
<path fill-rule="evenodd" clip-rule="evenodd" d="M10.9515 17.534L14.0959 0.182917C13.4156 0.0629174 12.7153 0 12 0C5.37204 0 0 5.37204 0 12C0 14.4396 0.728147 16.7103 1.97939 18.6035C1.97939 18.6035 3.69903 17.068 6.11653 16.7185C9.44972 16.2361 10.9515 17.534 10.9515 17.534Z" fill="#E9B200"/>
</svg>
