<svg width="24" height="24" viewBox="0 0 24 24" fill="none" xmlns="http://www.w3.org/2000/svg">
<path d="M8.4 10.5333L5.2 18.0667H0L0.2 17.6L7.53333 9L8.4 10.5333ZM5.46667 5.26666L5.53333 5.33333L5.46667 5.26666Z" fill="#A03EC3"/>
<path d="M18.8 5.26666L18.2667 11.6L15.7333 14.4667L15 13.0667L18.8 5.26666Z" fill="#3B9FE6"/>
<path d="M23.9333 5.33333L17.7333 18.0667L18.2667 11.6L23.9333 5.33333Z" fill="#20ADEC"/>
<path d="M24 5.26666L23.9333 5.33333L18.2667 11.6L18.8 5.26666H24Z" fill="#3AB6ED"/>
<path d="M10.6667 5.26666L10.5333 5.46666L8.26667 8.2L5.53334 5.33333L5.46667 5.26666H10.6667Z" fill="#7C58B8"/>
<path d="M10.6667 5.33333L10.5333 5.46666L10.6667 5.26666V5.33333Z" fill="#A03EC3"/>
<path d="M15 13.0667L14.3333 14.5333L11.6 11.7333L10.7333 5.33333L15 13.0667Z" fill="#5E88DE"/>
<path d="M12.5334 18L8.40002 10.5333L9.06669 9L11.6 11.7333L12.5334 18Z" fill="#7876D7"/>
<path d="M17.7333 18.0667H12.6L12.7333 17.8L15 15.2667L17.7333 18.0667Z" fill="#0447C1"/>
<path d="M12.5333 18L12.7333 17.8L12.6 18.0667L12.5333 18Z" fill="#A03EC3"/>
<path d="M15.7333 14.4667L15 15.2667L14.3333 14.5333L15 13.0667L15.7333 14.4667Z" fill="#3C67CA"/>
<path d="M7.53335 9L0.200012 17.6L5.46668 5.26666L5.53335 5.33333L7.53335 9Z" fill="#B64AC6"/>
<path d="M9.06666 9L8.39999 10.5333L7.53333 9L8.26666 8.2L9.06666 9Z" fill="#572FAA"/>
<path d="M8.26666 8.2L7.53333 9L5.53333 5.33333L8.26666 8.2Z" fill="#7241AE"/>
<path d="M10.5333 5.46666L9.06666 8.99999L8.26666 8.19999L10.5333 5.46666Z" fill="#6249B6"/>
<path d="M11.6 11.7333L9.06665 8.99999L10.5333 5.46666L10.6666 5.33333H10.7333L11.6 11.7333Z" fill="#8E7FDA"/>
<path d="M18.2667 11.6L17.7333 18.0667L15.7333 14.4667L18.2667 11.6Z" fill="#2890E2"/>
<path d="M14.3333 14.5333L12.7333 17.8L12.5333 18L11.6 11.7333L14.3333 14.5333Z" fill="#5375D8"/>
<path d="M15 15.2667L12.7333 17.8L14.3333 14.5333L15 15.2667Z" fill="#2B4FC0"/>
<path d="M17.7333 18.0667L15 15.2667L15.7333 14.4667L17.7333 18.0667Z" fill="#205DC9"/>
</svg>
