<svg width="24" height="24" viewBox="0 0 24 24" fill="none" xmlns="http://www.w3.org/2000/svg">
<g clip-path="url(#clip0)">
<path d="M2.60514 6.12817H14.6131C16.4101 6.12817 17.8721 7.59017 17.8721 9.38722C17.8721 11.1843 16.4101 12.6463 14.6131 12.6463H8.11568C7.86959 12.6463 7.63357 12.744 7.45956 12.918C7.28555 13.0921 7.18779 13.3281 7.18779 13.5742C7.18779 13.8203 7.28555 14.0563 7.45956 14.2303C7.63357 14.4043 7.86959 14.5021 8.11568 14.5021H14.6128C17.4331 14.5021 19.7277 12.2078 19.7277 9.38722C19.7277 6.5666 17.4331 4.27238 14.6128 4.27238H2.60514C2.35905 4.27238 2.12303 4.37014 1.94902 4.54416C1.77501 4.71817 1.67725 4.95418 1.67725 5.20028C1.67725 5.44637 1.77501 5.68238 1.94902 5.85639C2.12303 6.03041 2.35905 6.12817 2.60514 6.12817Z" fill="#8500FF"/>
<path d="M14.613 0H9.95552C9.70942 0 9.47341 0.0977597 9.2994 0.271773C9.12538 0.445786 9.02762 0.681799 9.02762 0.927891C9.02762 1.17398 9.12538 1.41 9.2994 1.58401C9.47341 1.75802 9.70942 1.85578 9.95552 1.85578H14.613C18.7659 1.85578 22.1443 5.23434 22.1443 9.38722C22.1443 13.5401 18.7657 16.9188 14.6128 16.9188H2.78246C2.65974 16.9174 2.53796 16.9403 2.42418 16.9863C2.3104 17.0323 2.20687 17.1005 2.1196 17.1867C2.03233 17.273 1.96304 17.3758 1.91575 17.489C1.86847 17.6023 1.84412 17.7238 1.84412 17.8465C1.84412 17.9692 1.86847 18.0907 1.91575 18.204C1.96304 18.3172 2.03233 18.42 2.1196 18.5063C2.20687 18.5925 2.3104 18.6607 2.42418 18.7066C2.53796 18.7526 2.65974 18.7756 2.78246 18.7742H14.6128C19.7889 18.7742 24 14.5632 24 9.38698C24 4.21077 19.7893 0 14.613 0Z" fill="#8500FF"/>
<path d="M9.23336 9.38723C9.23308 9.14122 9.13523 8.90538 8.96128 8.73142C8.78732 8.55747 8.55148 8.45962 8.30547 8.45934H6.04412C5.79811 8.45962 5.56226 8.55747 5.38831 8.73142C5.21436 8.90538 5.11651 9.14122 5.11622 9.38723C5.11622 9.90124 5.52661 10.3151 5.86624 10.3151H8.12736C8.77869 10.3151 9.23336 9.93349 9.23336 9.38723ZM6.29625 21.1914H0.927838C0.805104 21.19 0.683313 21.213 0.569517 21.259C0.455722 21.305 0.352184 21.3731 0.2649 21.4594C0.177615 21.5457 0.10832 21.6485 0.0610258 21.7617C0.013732 21.875 -0.0106201 21.9965 -0.0106201 22.1193C-0.0106201 22.242 0.013732 22.3635 0.0610258 22.4768C0.10832 22.59 0.177615 22.6928 0.2649 22.7791C0.352184 22.8654 0.455722 22.9335 0.569517 22.9795C0.683313 23.0255 0.805104 23.0485 0.927838 23.0471H6.29625C6.41898 23.0485 6.54077 23.0255 6.65457 22.9795C6.76836 22.9335 6.8719 22.8654 6.95918 22.7791C7.04647 22.6928 7.11577 22.59 7.16306 22.4768C7.21035 22.3635 7.2347 22.242 7.2347 22.1193C7.2347 21.9965 7.21035 21.875 7.16306 21.7617C7.11577 21.6485 7.04647 21.5457 6.95918 21.4594C6.8719 21.3731 6.76836 21.305 6.65457 21.259C6.54077 21.213 6.41898 21.19 6.29625 21.1914Z" fill="#8500FF"/>
</g>
<defs>
<clipPath id="clip0">
<rect width="24" height="24" fill="white"/>
</clipPath>
</defs>
</svg>
