<svg width="24" height="24" viewBox="0 0 24 24" fill="none" xmlns="http://www.w3.org/2000/svg">
<path d="M12 24C18.6274 24 24 18.6274 24 12C24 5.37258 18.6274 0 12 0C5.37258 0 0 5.37258 0 12C0 18.6274 5.37258 24 12 24Z" fill="#F80000"/>
<path d="M15.375 12.6315L10.353 19.5L10.5382 13.9193H9.375L9.8505 9.02025L15.1635 8.28825L13.419 12.732L15.375 12.6315ZM11.2515 17.505V16.1925C11.2515 16.095 11.169 16.0155 11.067 16.0155C10.965 16.0155 10.8817 16.0943 10.8817 16.1918V17.505C10.8817 17.6025 10.9642 17.682 11.067 17.682C11.1697 17.682 11.2515 17.6025 11.2515 17.505ZM9.8775 13.5405H10.935L10.8863 15.5602C10.8855 15.6135 10.9065 15.6652 10.9455 15.7028C10.9845 15.7403 11.0378 15.7628 11.0933 15.7628H11.1023C11.1551 15.7638 11.2062 15.7441 11.2448 15.708C11.2833 15.6718 11.3062 15.622 11.3085 15.5693L11.3572 13.1865H10.2997L10.6545 9.27225C10.6583 9.22725 10.6425 9.18225 10.6103 9.1485C10.578 9.11475 10.533 9.096 10.485 9.096H10.455C10.4134 9.09516 10.3731 9.10982 10.3417 9.13714C10.3104 9.16446 10.2903 9.20246 10.2855 9.24375L9.8775 13.5405ZM9.8775 8.5905L11.8335 6.975C11.9385 5.35875 10.881 5.106 10.881 5.106L11.04 4.5C12.7845 5.00475 12.5205 6.924 12.5205 6.924L15.0577 7.9845L9.8775 8.5905Z" fill="white"/>
</svg>
