<svg width="24" height="24" viewBox="0 0 24 24" fill="none" xmlns="http://www.w3.org/2000/svg">
<path d="M23.9836 12.0039C23.9836 18.5984 18.638 23.9442 12.0433 23.9442C5.44894 23.9442 0.103027 18.5984 0.103027 12.0039C0.103027 5.40944 5.44894 0.0636444 12.0433 0.0636444C18.638 0.0636444 23.9836 5.40944 23.9836 12.0039Z" fill="#008EBD"/>
<path d="M16.911 12.6162H15.1716L11.5446 10.207C11.5204 10.1909 11.4946 10.1796 11.4692 10.1672C11.4659 10.1654 11.4626 10.1636 11.4593 10.1619C11.4461 10.1557 11.4334 10.1483 11.42 10.143C11.3365 10.1056 11.246 10.0862 11.1544 10.0862H10.132C9.77153 10.0862 9.47933 10.3784 9.47933 10.7389C9.47933 11.0993 9.77153 11.3915 10.132 11.3915H10.9686L14.6092 13.8098C14.7268 13.8874 14.8664 13.9245 15.007 13.9156C15.0345 13.9192 15.0627 13.9217 15.0914 13.9217H16.9111C17.1464 13.9249 17.3652 13.8012 17.4838 13.5979C17.6023 13.3946 17.6023 13.1433 17.4838 12.94C17.3652 12.7368 17.1464 12.6131 16.9111 12.6162H16.911ZM11.3596 12.6162H10.2895L6.73342 10.2541C6.61399 10.1459 6.45859 10.0861 6.29748 10.0862H5.27503C4.91458 10.0862 4.62237 10.3784 4.62237 10.7389C4.62237 11.0993 4.91458 11.3915 5.27503 11.3915H6.08661L9.64315 13.7539C9.76254 13.8619 9.91776 13.9217 10.0787 13.9217H11.3596C11.7166 13.9168 12.0035 13.626 12.0035 13.269C12.0035 12.9119 11.7166 12.6211 11.3596 12.6162ZM19.3855 10.4278C19.2713 10.2172 19.051 10.0861 18.8115 10.0862H15.11C14.7496 10.0862 14.4574 10.3784 14.4574 10.7389C14.4574 11.0993 14.7496 11.3915 15.11 11.3915H18.159V11.9376C18.159 12.298 18.4512 12.5902 18.8116 12.5902C19.1721 12.5902 19.4643 12.298 19.4643 11.9376V10.7387C19.4643 10.6263 19.4356 10.5202 19.3855 10.4278ZM6.39491 12.6162H5.27491C4.91442 12.6162 4.62219 12.9085 4.62219 13.269C4.62219 13.6294 4.91442 13.9217 5.27491 13.9217H6.39491C6.75195 13.9168 7.03886 13.626 7.03886 13.269C7.03886 12.9119 6.75195 12.6211 6.39491 12.6162Z" fill="white"/>
</svg>
