<svg width="24" height="24" viewBox="0 0 24 24" fill="none" xmlns="http://www.w3.org/2000/svg">
<path d="M12 24C18.6274 24 24 18.6274 24 12C24 5.37258 18.6274 0 12 0C5.37258 0 0 5.37258 0 12C0 18.6274 5.37258 24 12 24Z" fill="#164B79"/>
<path d="M10.5675 14.001L10.1002 14.9985H9.06372L11.8785 9L13.7557 12.9998H12.6945L11.8545 11.2635L11.013 13.029L10.5675 14.001ZM14.658 14.976L16.8555 12.0135L14.6422 9.0285H15.8535L17.4592 11.211L16.875 12.0135L17.4592 12.816L15.8542 14.9985H13.632L13.1625 14.001H14.199L14.658 14.976ZM18.0525 12.0007L17.4592 11.1855L19.065 9.003H20.25L18.0525 12.0007ZM18.0525 12.0007L20.25 14.9993H19.065L17.46 12.8168L18.0525 12.0007ZM8.56647 9.86925C8.83584 10.1536 9.04639 10.4883 9.18604 10.8542C9.32569 11.2201 9.39168 11.61 9.38022 12.0015C9.39051 12.7897 9.09944 13.5522 8.56647 14.133C8.02497 14.7397 7.35522 15 6.56547 15C6.18981 15.0037 5.81756 14.9285 5.47285 14.7791C5.12813 14.6298 4.81865 14.4096 4.56447 14.133C4.02282 13.5575 3.73012 12.7915 3.74997 12.0015C3.7379 11.3829 3.91906 10.776 4.26822 10.2653L4.95822 11.0002C4.74222 11.3857 4.65225 11.8291 4.70094 12.2682C4.74963 12.7073 4.93453 13.1202 5.22972 13.449C5.39701 13.6384 5.60238 13.7905 5.83242 13.8952C6.06246 13.9998 6.31199 14.0548 6.56472 14.0565C7.06872 14.0565 7.55022 13.8367 7.89972 13.449C8.079 13.2593 8.21916 13.0362 8.3122 12.7923C8.40524 12.5484 8.44934 12.2887 8.44197 12.0278C8.44372 11.5028 8.25018 10.9959 7.89897 10.6057C7.73088 10.4194 7.52467 10.2713 7.29432 10.1717C7.06398 10.0721 6.81489 10.0231 6.56397 10.0283C6.23238 10.0192 5.9058 10.1107 5.62722 10.2907L4.93722 9.55575C5.40059 9.18937 5.97633 8.99436 6.56697 9.00375C6.9426 8.99704 7.31531 9.07081 7.66006 9.22009C8.00481 9.36937 8.31361 9.59072 8.56572 9.86925H8.56647Z" fill="white"/>
</svg>
