<svg width="24" height="24" viewBox="0 0 24 24" fill="none" xmlns="http://www.w3.org/2000/svg">
<path d="M12 0C18.6274 0 24 5.37257 24 12C24 18.6274 18.6274 24 12 24C5.37257 24 0 18.6274 0 12C0 5.37257 5.37257 0 12 0Z" fill="#1A82FF"/>
<path d="M16.3871 16.9413C15.3483 18.2139 13.8872 18.8503 12.004 18.8503C10.1208 18.8503 8.65959 18.2139 7.62027 16.9413C6.58073 15.6679 6.06119 14.0219 6.06165 12.0034C6.0621 9.98491 6.58142 8.3392 7.61959 7.06628C8.65845 5.79291 10.1197 5.15634 12.0034 5.15657C13.887 5.1568 15.348 5.79337 16.3864 7.06628C17.4253 8.33897 17.9448 9.98468 17.9451 12.0034C17.9453 14.0222 17.426 15.6681 16.3871 16.9413Z" fill="white"/>
<path d="M11.9822 16.189C12.478 16.189 12.8994 16.0539 13.2466 15.7838C13.5938 15.5136 13.8453 15.1472 14.0009 14.6846C14.1564 14.2217 14.2661 13.7781 14.3301 13.3536C14.3941 12.9291 14.4258 12.4791 14.4254 12.0034C14.4254 11.4178 14.39 10.8937 14.3191 10.4311L10.0478 14.8821C10.4428 15.7529 11.0876 16.1886 11.9822 16.189Z" fill="#1A82FF"/>
<path d="M12.0247 7.81783C11.5289 7.81783 11.1074 7.95291 10.7602 8.22307C10.413 8.49324 10.1616 8.85963 10.0059 9.32225C9.8496 9.78509 9.73989 10.2287 9.6768 10.6532C9.6128 11.0776 9.58103 11.5277 9.58149 12.0033C9.58149 12.3167 9.59154 12.6125 9.61166 12.8906L13.6855 8.64615C13.2898 8.09416 12.7362 7.81805 12.0247 7.81783Z" fill="#1A82FF"/>
<path d="M6.39359 16.2466L5.86902 15.7433L9.84685 11.5968L10.3714 12.1001L6.39359 16.2466ZM13.8884 11.9198L13.3639 11.4165L17.3417 7.26994L17.8663 7.77326L13.8884 11.9198Z" fill="#1A82FF"/>
</svg>
