<svg width="24" height="24" viewBox="0 0 24 24" fill="none" xmlns="http://www.w3.org/2000/svg">
<path fill-rule="evenodd" clip-rule="evenodd" d="M11.9856 20.8381C7.10434 20.8381 3.1331 16.8669 3.1331 11.9856C3.1331 10.4602 3.52094 9.02366 4.20315 7.76942C4.30546 7.58133 4.41442 7.39728 4.52969 7.21769C4.64496 7.03803 4.76654 6.86283 4.89408 6.69237C5.06421 6.46505 5.24489 6.24624 5.43559 6.03648C5.48325 5.98409 5.53152 5.93218 5.58041 5.88096C5.77591 5.67586 5.98121 5.48009 6.1955 5.29447C6.24905 5.24805 6.30315 5.20224 6.35781 5.15712C7.88866 3.89321 9.85008 3.1331 11.9856 3.1331C14.1212 3.1331 16.0825 3.89321 17.6133 5.15712C17.668 5.20224 17.7221 5.24805 17.7758 5.29447C17.99 5.48009 18.1953 5.67586 18.3908 5.88096C18.4397 5.93218 18.488 5.98409 18.5357 6.03648C18.7263 6.24624 18.9071 6.46505 19.0771 6.69237C19.2047 6.86283 19.3262 7.03803 19.4416 7.21769C19.5568 7.39728 19.6657 7.58133 19.768 7.76942C20.4503 9.02366 20.8381 10.4602 20.8381 11.9856C20.8381 16.8669 16.8669 20.8381 11.9856 20.8381ZM11.9856 0C5.37669 0 0 5.37669 0 11.9856C0 18.5945 5.37669 23.9712 11.9856 23.9712C18.5945 23.9712 23.9712 18.5945 23.9712 11.9856C23.9712 5.37669 18.5945 0 11.9856 0Z" fill="#1E4691"/>
<path fill-rule="evenodd" clip-rule="evenodd" d="M5.03959 1.10838H0.990173V5.18735C0.990173 5.18735 1.79561 3.89917 2.73408 2.9607C3.86222 1.83257 5.03959 1.10838 5.03959 1.10838Z" fill="#1E4691"/>
<path fill-rule="evenodd" clip-rule="evenodd" d="M21.0105 2.73408C22.1387 3.86222 22.8628 5.03959 22.8628 5.03959V0.990173H18.7838C18.7838 0.990173 20.0721 1.79561 21.0105 2.73408Z" fill="#1E4691"/>
<path fill-rule="evenodd" clip-rule="evenodd" d="M2.96072 21.2371C1.83258 20.109 1.1084 18.9316 1.1084 18.9316V22.981H5.18737C5.18737 22.981 3.89912 22.1756 2.96072 21.2371Z" fill="#1E4691"/>
<path fill-rule="evenodd" clip-rule="evenodd" d="M18.9316 22.8628H22.9811V18.7838C22.9811 18.7838 22.1756 20.0721 21.2371 21.0106C20.1091 22.1387 18.9316 22.8628 18.9316 22.8628Z" fill="#1E4691"/>
</svg>
