<svg width="24" height="24" viewBox="0 0 24 24" fill="none" xmlns="http://www.w3.org/2000/svg">
<g clip-path="url(#clip0)">
<path d="M6.89858 15.2582C6.89436 15.3131 6.87351 15.3654 6.8388 15.4081C6.8041 15.4508 6.75719 15.482 6.70434 15.4973C6.65149 15.5127 6.59521 15.5116 6.543 15.4942C6.49079 15.4767 6.44515 15.4438 6.41215 15.3997L2.52064 11.7753C2.47209 11.744 2.43394 11.699 2.411 11.646C2.38807 11.5929 2.38139 11.5343 2.39181 11.4775C2.40223 11.4206 2.42927 11.3682 2.46953 11.3267C2.50978 11.2853 2.56142 11.2567 2.61792 11.2447L8.06604 9.0725C8.31898 8.97168 8.47111 9.10434 8.40389 9.36967L6.89858 15.2582Z" fill="#404A72"/>
<path d="M3.67923 18.7023C3.47228 18.8792 3.26355 18.8066 3.21579 18.5378L2.15447 12.6474C2.10494 12.3786 2.22876 12.3113 2.42864 12.4971L6.12558 15.9464C6.17266 15.9883 6.21011 16.0399 6.23537 16.0976C6.26063 16.1553 6.2731 16.2179 6.27193 16.2809C6.27075 16.3439 6.25596 16.4059 6.22856 16.4627C6.20116 16.5194 6.16181 16.5696 6.1132 16.6097L3.67923 18.7023Z" fill="#556195"/>
<path d="M8.13682 7.89977C8.17929 7.94017 8.21033 7.99109 8.22679 8.04736C8.24324 8.10362 8.24454 8.16324 8.23053 8.22017C8.21652 8.27709 8.18771 8.3293 8.14703 8.37151C8.10634 8.41372 8.05522 8.44442 7.99884 8.4605L2.58434 10.6274C2.32962 10.7282 2.20049 10.6026 2.29601 10.3461L4.52125 4.36557C4.53059 4.31122 4.55642 4.26107 4.59523 4.22189C4.63404 4.18272 4.68396 4.15643 4.73822 4.14658C4.79247 4.13673 4.84845 4.14381 4.89855 4.16684C4.94865 4.18988 4.99046 4.22776 5.0183 4.27536L8.13682 7.89977Z" fill="#556195"/>
<path d="M2.46224 17.7011C2.51176 17.9699 2.42863 18.0018 2.28535 17.7736L0.176859 14.5277C0.10445 14.4029 0.0686984 14.2602 0.0737043 14.1159C0.0787102 13.9717 0.124271 13.8318 0.20516 13.7123L1.14266 12.4546C1.30716 12.2353 1.48051 12.2777 1.52827 12.5448L2.46224 17.7011Z" fill="#556195"/>
<path d="M1.8007 9.97821C1.70518 10.2347 1.5566 10.2329 1.46992 9.97821L0.75353 7.81842C0.714835 7.6776 0.713917 7.52907 0.750869 7.38778C0.787822 7.24649 0.86134 7.11743 0.964025 7.01359L3.52358 4.6946C3.72523 4.51771 3.81367 4.57078 3.71815 4.82727L1.8007 9.97821Z" fill="#556195"/>
<path d="M1.12499 10.8095C1.16462 10.9554 1.17265 11.1079 1.14855 11.2571C1.12445 11.4063 1.06877 11.5486 0.98525 11.6745L0.25117 12.6633C0.0866648 12.8826 -0.023005 12.8402 0.00352801 12.5678L0.353764 9.14857C0.380297 8.87616 0.475816 8.86555 0.560721 9.12557L1.12499 10.8095Z" fill="#556195"/>
<path d="M4.0136 3.10967C4.10558 3.21404 4.0136 3.45106 3.81018 3.64033L2.65334 4.67866C2.44992 4.85555 2.41808 4.83255 2.58082 4.61321L3.53777 3.31663C3.71466 3.09729 3.92339 3.00708 4.0136 3.10967Z" fill="#556195"/>
<path d="M11.2783 21.3078C11.2569 21.3595 11.2211 21.404 11.1752 21.4359C11.1293 21.4679 11.0751 21.486 11.0192 21.488C10.9633 21.4901 10.9079 21.476 10.8598 21.4475C10.8116 21.419 10.7727 21.3772 10.7476 21.3272L7.74054 16.9475C7.70192 16.9083 7.67616 16.8583 7.66669 16.8041C7.65723 16.7499 7.66451 16.6941 7.68757 16.6441C7.71063 16.5942 7.74836 16.5524 7.79575 16.5245C7.84314 16.4965 7.89792 16.4836 7.9528 16.4876L14.0006 15.8632C14.2712 15.8349 14.3809 16.0047 14.2429 16.2417L11.2783 21.3078Z" fill="#556195"/>
<path d="M10.0171 21.3113C10.1727 21.5377 10.0878 21.6492 9.82782 21.5625L4.16744 19.6344C3.90918 19.546 3.86673 19.3284 4.07369 19.1497L6.49527 17.0589C6.54207 17.0167 6.59746 16.9851 6.65762 16.9663C6.71778 16.9476 6.78129 16.942 6.8438 16.9501C6.90631 16.9581 6.96634 16.9796 7.01976 17.0131C7.07318 17.0465 7.11873 17.0911 7.15329 17.1438L10.0171 21.3113Z" fill="#556195"/>
<path d="M14.1226 14.8461C14.2995 15.0531 14.2235 15.2441 13.9457 15.2724L7.80778 15.9057C7.75111 15.9175 7.69229 15.914 7.63745 15.8954C7.58261 15.8768 7.53377 15.8438 7.49601 15.7999C7.45825 15.756 7.43296 15.7028 7.42277 15.6458C7.41259 15.5888 7.41788 15.5301 7.43809 15.4758L8.97347 9.5006C9.04245 9.23704 9.2441 9.18928 9.42099 9.39623L14.1226 14.8461Z" fill="#6ECCE0"/>
<path d="M18.5324 19.9652C18.5758 19.9997 18.6075 20.0467 18.6232 20.0999C18.6388 20.153 18.6376 20.2097 18.6198 20.2622C18.602 20.3147 18.5684 20.3603 18.5236 20.393C18.4789 20.4256 18.4251 20.4437 18.3697 20.4446L12.1256 21.7571C11.8585 21.8137 11.7524 21.6669 11.8903 21.4298L14.8355 16.3939C14.8602 16.341 14.8983 16.2954 14.9461 16.2618C14.9939 16.2282 15.0496 16.2077 15.1077 16.2024C15.1659 16.197 15.2244 16.207 15.2775 16.2313C15.3306 16.2555 15.3764 16.2933 15.4104 16.3408L18.5324 19.9652Z" fill="#556195"/>
<path d="M8.49057 23.3261C8.36031 23.3879 8.2153 23.4119 8.07206 23.3954C7.92882 23.3788 7.79312 23.3223 7.68043 23.2323L4.77595 20.6728C4.57253 20.4959 4.61675 20.4163 4.875 20.4959L9.82783 22.1816C10.0879 22.2701 10.102 22.4487 9.86144 22.5778L8.49057 23.3261Z" fill="#556195"/>
<path d="M15.2229 23.5702C15.1051 23.6563 14.9667 23.7098 14.8217 23.7253C14.6767 23.7408 14.5301 23.7178 14.3968 23.6586L12.3821 22.6309C12.1379 22.5053 12.1574 22.3585 12.4245 22.3019L17.8036 21.1698C18.0707 21.1132 18.1167 21.2088 17.9062 21.3821L15.2229 23.5702Z" fill="#556195"/>
<path d="M9.58901 23.7028C9.31484 23.6904 9.29007 23.5737 9.53064 23.4445L10.6132 22.8573C10.7512 22.792 10.9016 22.7573 11.0542 22.7554C11.2069 22.7536 11.3581 22.7847 11.4976 22.8467L13.079 23.6515C13.3231 23.7753 13.2983 23.8655 13.0259 23.8532L9.58901 23.7028Z" fill="#556195"/>
<path d="M19.5371 21.1327C19.6274 21.2371 19.5053 21.4299 19.2647 21.559L17.839 22.3196C17.5967 22.4487 17.5719 22.4116 17.7842 22.2382L18.987 21.2547C19.1993 21.0814 19.4469 21.0266 19.5371 21.1327Z" fill="#556195"/>
<path d="M15.9339 14.7824C15.6792 14.8832 15.5271 14.7506 15.5961 14.4852L17.1085 8.59844C17.1129 8.54349 17.1339 8.49117 17.1687 8.44839C17.2034 8.40562 17.2504 8.3744 17.3033 8.35888C17.3562 8.34335 17.4126 8.34425 17.4649 8.36144C17.5173 8.37863 17.5633 8.41131 17.5967 8.45517L21.4882 12.0813C21.5375 12.1121 21.5765 12.1571 21.6 12.2103C21.6235 12.2635 21.6304 12.3225 21.6199 12.3797C21.6094 12.437 21.582 12.4897 21.5411 12.5311C21.5003 12.5725 21.448 12.6007 21.3909 12.612L15.9339 14.7824Z" fill="#404A72"/>
<path d="M21.849 11.2076C21.8968 11.4764 21.7748 11.5454 21.5749 11.3579L17.8762 7.90864C17.8292 7.86661 17.7919 7.81491 17.7668 7.7571C17.7417 7.69929 17.7293 7.63673 17.7307 7.57372C17.732 7.5107 17.747 7.44873 17.7746 7.39204C17.8021 7.33535 17.8416 7.2853 17.8903 7.24531L20.319 5.15274C20.5259 4.97585 20.7364 5.04837 20.7842 5.31724L21.849 11.2076Z" fill="#556195"/>
<path d="M19.4788 19.4911C19.4687 19.5452 19.4424 19.595 19.4033 19.6337C19.3642 19.6725 19.3142 19.6984 19.26 19.708C19.2058 19.7176 19.15 19.7105 19.1 19.6875C19.0499 19.6646 19.0081 19.6269 18.98 19.5796L15.8597 15.9552C15.8158 15.9151 15.7835 15.8639 15.7661 15.8071C15.7487 15.7502 15.7469 15.6898 15.7608 15.632C15.7747 15.5742 15.8039 15.5212 15.8452 15.4785C15.8866 15.4357 15.9386 15.4049 15.9959 15.3891L21.4157 13.2223C21.6687 13.1214 21.7996 13.247 21.7041 13.5035L19.4788 19.4911Z" fill="#556195"/>
<path d="M23.8196 9.32724C23.8919 9.45205 23.9277 9.59462 23.923 9.73876C23.9183 9.8829 23.8733 10.0228 23.7931 10.1427L22.8538 11.4004C22.6911 11.6197 22.5177 11.5772 22.4682 11.3101L21.536 6.15389C21.4882 5.88502 21.5696 5.85318 21.7129 6.08137L23.8196 9.32724Z" fill="#556195"/>
<path d="M23.2465 16.0366C23.2852 16.1774 23.2861 16.3259 23.2492 16.4672C23.2122 16.6085 23.1387 16.7376 23.036 16.8414L20.4764 19.1604C20.273 19.3373 20.1864 19.2842 20.2819 19.0295L22.1993 13.8768C22.2931 13.6203 22.4417 13.6221 22.5283 13.8768L23.2465 16.0366Z" fill="#556195"/>
<path d="M23.6427 14.7064C23.6144 14.9788 23.5206 14.9876 23.4339 14.7294L22.8732 13.0454C22.8331 12.8991 22.8248 12.7458 22.8489 12.596C22.873 12.4462 22.9289 12.3032 23.013 12.1769L23.7488 11.1916C23.9115 10.9723 24.023 11.0147 23.9947 11.2871L23.6427 14.7064Z" fill="#556195"/>
<path d="M20.4481 20.5383C20.2836 20.7594 20.0767 20.8514 19.9847 20.7453C19.8927 20.6392 19.9847 20.4039 20.1881 20.2146L21.3396 19.171C21.5413 18.9941 21.5749 19.0171 21.4122 19.2364L20.4481 20.5383Z" fill="#556195"/>
<path d="M16.263 6.90745C16.3016 6.94664 16.3274 6.99667 16.3368 7.05087C16.3463 7.10507 16.339 7.16087 16.316 7.21083C16.2929 7.26079 16.2552 7.30253 16.2078 7.3305C16.1604 7.35846 16.1056 7.37132 16.0507 7.36735L10.003 7.99176C9.73055 8.02006 9.62088 7.85025 9.75885 7.61499L12.7217 2.54719C12.7431 2.49546 12.7788 2.45097 12.8248 2.41901C12.8707 2.38704 12.9249 2.36896 12.9808 2.36691C13.0367 2.36486 13.092 2.37893 13.1402 2.40744C13.1883 2.43596 13.2273 2.47771 13.2524 2.52773L16.263 6.90745Z" fill="#404A72"/>
<path d="M17.5118 6.796C17.465 6.83821 17.4096 6.8698 17.3495 6.88859C17.2893 6.90738 17.2258 6.91294 17.1633 6.90487C17.1008 6.89681 17.0407 6.87531 16.9873 6.84186C16.9339 6.80841 16.8883 6.7638 16.8538 6.71109L13.9741 2.54364C13.8202 2.31722 13.9051 2.20578 14.1633 2.29423L19.8237 4.21876C20.082 4.3072 20.1244 4.52477 19.9175 4.70343L17.5118 6.796Z" fill="#556195"/>
<path d="M15.0177 14.3544C14.9504 14.6197 14.7488 14.6657 14.5701 14.4588L9.87734 9.01064C9.70045 8.80368 9.77474 8.61087 10.0542 8.58257L16.1904 7.94931C16.2472 7.93706 16.3063 7.94032 16.3614 7.95875C16.4165 7.97718 16.4656 8.01011 16.5036 8.05408C16.5416 8.09804 16.5671 8.15143 16.5773 8.20862C16.5876 8.26582 16.5822 8.32472 16.5619 8.37915L15.0177 14.3544Z" fill="#556195"/>
<path d="M9.16275 7.46108C9.13846 7.51441 9.1005 7.56037 9.05272 7.59431C9.00495 7.62825 8.94905 7.64896 8.8907 7.65434C8.83235 7.65973 8.77361 7.6496 8.72043 7.62498C8.66725 7.60036 8.62152 7.56213 8.58787 7.51415L5.46759 3.89151C5.4243 3.85714 5.39266 3.81027 5.37697 3.75728C5.36128 3.70429 5.3623 3.64775 5.37989 3.59535C5.39748 3.54296 5.4308 3.49726 5.47529 3.46448C5.51979 3.4317 5.5733 3.41342 5.62855 3.41214L11.8727 2.09788C12.1415 2.04127 12.2477 2.18809 12.1097 2.42512L9.16275 7.46108Z" fill="#556195"/>
<path d="M14.1616 1.66627C13.9033 1.57782 13.8892 1.40094 14.1297 1.27004L15.513 0.530655C15.6432 0.468801 15.7883 0.444794 15.9315 0.46137C16.0747 0.477945 16.2104 0.534438 16.3231 0.624405L19.2205 3.18396C19.4257 3.36084 19.3815 3.44044 19.1232 3.36084L14.1616 1.66627Z" fill="#556195"/>
<path d="M6.20343 2.68515C5.93633 2.74176 5.89034 2.65331 6.1026 2.47643L8.77536 0.284799C8.89347 0.198752 9.03213 0.145284 9.17744 0.129761C9.32274 0.114237 9.46957 0.137203 9.60319 0.196356L11.6268 1.22584C11.8709 1.34966 11.8514 1.49647 11.5843 1.55308L6.20343 2.68515Z" fill="#556195"/>
<path d="M13.3868 0.997666C13.2488 1.06293 13.0984 1.09767 12.9457 1.0995C12.7931 1.10133 12.6419 1.07021 12.5023 1.00828L10.9104 0.203444C10.6804 0.079623 10.7034 -0.0105892 10.9776 2.39774e-05L14.411 0.159222C14.6816 0.176911 14.7099 0.288349 14.4693 0.417477L13.3868 0.997666Z" fill="#556195"/>
<path d="M5.01295 2.60021C4.80068 2.7771 4.55304 2.8284 4.46283 2.72403C4.37262 2.61967 4.49467 2.42509 4.73524 2.29773L6.16094 1.53535C6.40151 1.40623 6.42627 1.44337 6.21578 1.61672L5.01295 2.60021Z" fill="#556195"/>
<path d="M3.18398 19.9139C3.28835 19.8219 3.52537 19.9139 3.71464 20.1156L4.75827 21.2671C4.93516 21.4705 4.91217 21.5024 4.69283 21.3396L3.39448 20.3756C3.16806 20.2129 3.07608 20.0041 3.18398 19.9139Z" fill="#556195"/>
<path d="M21.2034 4.39035C21.3095 4.29837 21.5024 4.42219 21.6297 4.66276L22.3921 6.08846C22.5195 6.3308 22.4841 6.35379 22.3107 6.1433L21.3272 4.94047C21.1539 4.7282 21.0991 4.48056 21.2034 4.39035Z" fill="#556195"/>
<path d="M20.6108 3.47934C20.8302 3.64208 20.9239 3.85081 20.8178 3.94102C20.7117 4.03123 20.4764 3.94102 20.2871 3.73937L19.2435 2.58783C19.0666 2.38441 19.0896 2.35257 19.309 2.51531L20.6108 3.47934Z" fill="#556195"/>
<path d="M2.67275 18.9145C2.84964 19.1268 2.90094 19.3744 2.7948 19.4646C2.68867 19.5548 2.49763 19.4328 2.36851 19.1922L1.60789 17.7665C1.47877 17.5242 1.51591 17.5012 1.68926 17.7117L2.67275 18.9145Z" fill="#556195"/>
</g>
<defs>
<clipPath id="clip0">
<rect width="24" height="24" fill="white"/>
</clipPath>
</defs>
</svg>
