<svg width="24" height="24" viewBox="0 0 24 24" fill="none" xmlns="http://www.w3.org/2000/svg">
<mask id="mask0" mask-type="alpha" maskUnits="userSpaceOnUse" x="5" y="9" width="19" height="15">
<path d="M5.4635 9.90039H23.9339V23.2806H5.4635V9.90039Z" fill="white"/>
</mask>
<g mask="url(#mask0)">
<path fill-rule="evenodd" clip-rule="evenodd" d="M22.8474 9.90039C24.8236 12.8936 24.0724 15.6992 20.8523 17.1528C18.9643 18.005 17.3318 19.2005 15.8231 20.5919C15.7694 20.6415 15.7104 20.6857 15.6609 20.7389C12.3703 24.2833 9.17952 24.0416 5.4635 20.5077C5.50247 20.4643 5.54143 20.4209 5.58013 20.3771C6.67004 20.1828 7.7582 20.4054 8.84487 20.4276C12.2742 20.4977 15.1191 19.2422 17.5213 16.8641C19.5521 15.2446 20.9552 13.1502 22.0973 10.8509C22.2747 10.4939 22.2807 9.96417 22.8474 9.90039Z" fill="#0095D9"/>
</g>
<path fill-rule="evenodd" clip-rule="evenodd" d="M5.46349 20.5077C4.47045 20.2621 3.46589 20.0608 2.53913 19.5945C0.566003 18.6018 -0.313637 16.8772 0.100093 14.7024C0.215644 14.0951 0.359846 13.4784 0.599644 12.9122C1.41665 10.9829 1.9067 8.9726 2.32528 6.92539C3.06949 3.28528 4.01688 2.5191 7.7085 2.2942C7.85385 2.28537 7.99751 2.25011 8.14205 2.22712C8.54418 2.0513 8.94868 1.85593 9.26944 2.36054C9.24713 2.43166 9.21875 2.53177 9.16508 2.54027C7.05861 2.87337 6.17176 4.6106 5.18425 6.13561C3.3467 8.97348 2.44427 12.0692 3.11789 15.4861C3.20985 15.9526 3.35162 16.4026 3.62048 16.8021C4.10843 18.0953 5.04099 19.1552 5.53946 20.4436L5.46349 20.5077Z" fill="#B2D134"/>
<path fill-rule="evenodd" clip-rule="evenodd" d="M9.24719 2.42644C8.91705 2.14713 8.50899 2.30064 8.14191 2.22729C9.85042 0.597312 11.7417 0.165447 13.5869 1.33902C15.6789 2.6696 17.9382 3.27493 20.3311 3.66122C22.7963 4.05918 23.5129 5.06462 23.3255 7.57538C23.2741 8.26417 23.1815 8.94843 22.8143 9.55861C22.1336 9.47057 21.9571 8.83504 21.5951 8.41288C20.0092 6.56374 18.185 5.07405 15.7739 4.43778C15.5073 4.36329 15.2507 4.26183 14.9928 4.16266C13.5057 3.47448 11.9225 3.13012 10.3239 2.83275C9.94696 2.76271 9.51469 2.8014 9.24719 2.42644Z" fill="#EBE710"/>
<path fill-rule="evenodd" clip-rule="evenodd" d="M15.7835 4.21402C18.2831 4.7009 20.0237 6.34058 21.6686 8.11267C22.0856 8.562 22.4342 9.07483 22.8143 9.55854C22.8254 9.67274 22.8364 9.78681 22.8474 9.9006C21.7562 12.2459 20.4935 14.4791 18.609 16.2971C18.3562 16.5411 18.1762 16.894 17.7698 16.944C17.511 16.1913 18.1472 15.7406 18.392 15.1672C19.7388 12.0146 19.6781 9.00714 17.5749 6.17386C17.2656 5.75717 16.8666 5.44591 16.471 5.12157C16.1757 4.87941 15.7551 4.7098 15.7835 4.21402Z" fill="#00845D"/>
<path fill-rule="evenodd" clip-rule="evenodd" d="M15.7835 4.21401C20.4752 7.17188 20.3895 13.1192 17.9233 16.5401C17.842 16.653 17.8198 16.8085 17.77 16.944C15.7498 19.1869 13.2253 20.4473 10.2274 20.6798C8.66485 20.8009 7.08901 20.7803 5.53953 20.4437C4.54177 19.4884 4.06615 18.2235 3.5031 17.0104C2.38245 13.5065 2.88078 10.2339 5.2942 7.46756C7.86908 4.51617 11.087 2.98395 15.1302 3.99033L15.7835 4.21401Z" fill="#005120"/>
<path fill-rule="evenodd" clip-rule="evenodd" d="M15.1302 3.99035C11.5925 3.62947 8.49311 4.54289 5.96132 7.12794C3.53502 9.60534 2.96583 12.6241 3.37141 15.9321C3.41543 16.2912 3.45918 16.6504 3.50307 17.0099C2.28379 15.3701 2.47666 13.4654 2.72711 11.6624C3.16424 8.51556 4.73536 5.86329 6.78783 3.46484C7.47008 2.66758 8.22972 2.30569 9.24716 2.42657C11.289 2.64392 13.3001 2.97682 15.1302 3.99035Z" fill="#4CB748"/>
<path fill-rule="evenodd" clip-rule="evenodd" d="M17.5579 12.1545C17.5584 15.6268 14.9115 18.2775 11.4619 18.2591C8.04323 18.2409 5.23725 15.4329 5.26064 12.0536C5.28498 8.54744 8.377 5.50416 11.891 5.52775C15.2062 5.55007 17.5575 8.29942 17.5579 12.1545Z" fill="#FEFEFE"/>
</svg>
