<svg width="24" height="24" viewBox="0 0 24 24" fill="none" xmlns="http://www.w3.org/2000/svg">
<path d="M23.7412 11.7209L17.3734 4.79999L11.9239 10.6655L6.58097 4.79999L0.213108 11.7209C-0.0710359 12.0254 -0.0710359 12.4972 0.213108 12.8118L6.58097 19.7683L11.934 14.0245L17.3734 19.7683L23.7412 12.8068C24.0203 12.4922 24.0203 12.0254 23.7412 11.7209ZM3.25751 12.6545C3.02918 12.4059 3.03932 12.0254 3.26765 11.7818L6.59619 8.2909L10.4474 12.3247L6.59619 16.3585L3.25751 12.6545ZM20.6867 12.6545L17.3378 16.3484L13.4867 12.3146L17.3378 8.28075L20.6664 11.7717C20.9099 12.0203 20.915 12.4059 20.6867 12.6545Z" fill="#3C3738"/>
<path d="M6.9021 8.60908L16.1114 18.4476L17.6336 16.6666L8.49026 6.89914L6.9021 8.60908Z" fill="url(#paint0_linear)"/>
<path d="M6.74988 16.1592L8.32282 17.8032L17.4865 8.10169L15.8983 6.39175L6.74988 16.1592Z" fill="#3C3738"/>
<defs>
<linearGradient id="paint0_linear" x1="16.7126" y1="16.9236" x2="7.24038" y2="9.05261" gradientUnits="userSpaceOnUse">
<stop stop-color="#3C3738"/>
<stop offset="0.5" stop-color="#040404"/>
<stop offset="1" stop-color="#3C3738"/>
</linearGradient>
</defs>
</svg>
