<svg width="24" height="24" viewBox="0 0 24 24" fill="none" xmlns="http://www.w3.org/2000/svg">
<g clip-path="url(#clip0)">
<path fill-rule="evenodd" clip-rule="evenodd" d="M10.9291 13.9344C10.8457 13.8264 10.7586 13.7124 10.6728 13.5921C10.5771 13.4572 10.544 13.3272 10.5734 13.191C10.6372 12.8942 10.9917 12.6342 11.1229 12.5593L10.961 12.2674C10.9365 12.2809 10.36 12.6133 10.2508 13.1174C10.2005 13.348 10.2521 13.5737 10.4042 13.7872C10.4925 13.9111 10.582 14.0276 10.6679 14.1392C11.096 14.6973 11.2898 14.9819 11.026 15.3364C10.9132 15.4873 10.7832 15.5854 10.6446 15.6884C10.3011 15.946 9.94541 16.2122 10.0656 17.2033L10.3931 17.1628C10.2962 16.3643 10.5244 16.1938 10.8408 15.9571C10.9856 15.8491 11.1487 15.7265 11.291 15.5363C11.7191 14.9623 11.3351 14.463 10.9291 13.9344Z" fill="#DEC685"/>
<path fill-rule="evenodd" clip-rule="evenodd" d="M10.9402 12.3483C10.7918 12.4428 10.3944 12.7298 10.3073 13.1297C10.2607 13.3431 10.3085 13.5529 10.4521 13.7528C10.5404 13.8767 10.6287 13.992 10.7133 14.1024C11.1475 14.6691 11.361 14.9819 11.0727 15.3695C10.955 15.5277 10.8213 15.6271 10.679 15.7338C10.3404 15.9877 10.0203 16.2269 10.116 17.137L10.3282 17.1101C10.246 16.3275 10.4925 16.1423 10.8041 15.9092C10.9464 15.8025 11.1058 15.6835 11.2432 15.5007C11.6456 14.961 11.2923 14.501 10.8826 13.9675C10.7992 13.8583 10.7109 13.7442 10.625 13.6228C10.5183 13.4731 10.4827 13.3272 10.5158 13.1751C10.5784 12.8893 10.8838 12.6403 11.0445 12.536L10.9402 12.3483ZM10.0142 17.2683L10.0068 17.2106C9.88168 16.1852 10.2681 15.8969 10.6078 15.6418C10.7428 15.5412 10.8716 15.4443 10.9783 15.3008C11.2077 14.9929 11.0703 14.7611 10.6201 14.1748C10.5293 14.0582 10.441 13.9405 10.3552 13.8215C10.1932 13.5946 10.138 13.3529 10.192 13.1052C10.3036 12.5912 10.8654 12.2539 10.9304 12.2171L10.982 12.1876L11.2003 12.5814L11.1512 12.6096C11.0347 12.6758 10.6888 12.9273 10.6299 13.2033C10.6042 13.321 10.6336 13.4376 10.7195 13.559C10.8053 13.6792 10.8912 13.7921 10.9746 13.9C11.3757 14.4225 11.7903 14.9635 11.3364 15.5731C11.1893 15.7694 11.0224 15.8945 10.8752 16.0049C10.5637 16.2379 10.3576 16.3925 10.4508 17.1567L10.4582 17.2143L10.0142 17.2683ZM6.97214 6.9414C5.26346 6.87394 4.86236 7.51914 4.82679 8.07357C4.81084 8.3238 4.82924 8.60224 4.85009 8.89786C4.89425 9.54551 4.93964 10.2165 4.60109 10.555C4.40238 10.7537 4.07855 10.8322 3.61121 10.7954L3.58545 11.1291C3.66763 11.1352 3.74614 11.1389 3.82219 11.1389C4.26868 11.1389 4.60109 11.0248 4.83292 10.793C5.27941 10.3465 5.22666 9.56514 5.18005 8.87578C5.16043 8.59243 5.14325 8.32503 5.15675 8.09565C5.19477 7.50565 5.80072 7.22843 6.95987 7.27627L6.97214 6.9414Z" fill="#DEC685"/>
<path fill-rule="evenodd" clip-rule="evenodd" d="M3.64672 11.0763C4.16803 11.1082 4.54092 11.0027 4.79115 10.7525C5.21801 10.3244 5.16649 9.55656 5.12111 8.87947C5.10148 8.59489 5.08431 8.32626 5.0978 8.09198C5.13706 7.47376 5.74423 7.17937 6.90339 7.21617L6.91197 6.99783C5.63016 6.95736 4.93098 7.33147 4.88437 8.07726C4.86843 8.32626 4.88683 8.60102 4.90768 8.89296C4.95184 9.55411 4.99845 10.2386 4.6415 10.5955C4.43911 10.7979 4.12019 10.8838 3.66511 10.8568L3.64672 11.0763ZM3.82212 11.1965C3.74484 11.1965 3.66511 11.1941 3.58048 11.1867L3.52283 11.1818L3.55717 10.7329L3.61482 10.7378C4.06377 10.7734 4.37287 10.6998 4.55809 10.5133C4.87824 10.1932 4.83285 9.53571 4.79115 8.90032C4.77152 8.6047 4.7519 8.32503 4.76784 8.06867C4.80464 7.48848 5.21679 6.81384 6.9733 6.88253L7.03095 6.88499L7.01378 7.33515L6.95613 7.3327C5.83623 7.28732 5.24868 7.54491 5.21311 8.09811C5.19839 8.32381 5.21679 8.58998 5.23641 8.87088C5.28425 9.57251 5.33699 10.3686 4.87333 10.8335C4.62924 11.0788 4.28456 11.1965 3.82212 11.1965Z" fill="#DEC685"/>
<path fill-rule="evenodd" clip-rule="evenodd" d="M9.49769 12.563C9.41428 12.4538 9.32719 12.3409 9.24133 12.2195C9.13461 12.0699 9.09782 11.93 9.12848 11.7902C9.18123 11.5522 9.41305 11.3719 9.51977 11.3008C9.75037 11.3928 10.03 11.4541 10.371 11.4676V11.47C10.3943 11.47 10.4189 11.47 10.4422 11.4688C10.4655 11.47 10.4888 11.47 10.5133 11.47V11.4676C11.4615 11.4308 11.9411 11.0186 12.184 10.6139C12.4109 10.7059 13.061 11.0395 13.0316 11.8454C13.0168 12.2428 12.6844 12.6218 12.3618 12.9886C11.9043 13.5111 11.3842 14.1036 11.8172 14.8064L12.0981 14.6298C11.816 14.1711 12.103 13.7871 12.6096 13.2106C12.9702 12.7997 13.3431 12.3741 13.3615 11.8577C13.3873 11.1376 12.9764 10.6838 12.5888 10.4446C12.9126 10.4115 13.3235 10.3011 13.4228 10.095C13.4584 10.0214 13.5516 9.82637 12.6587 7.70187C12.5949 7.39767 12.4146 6.52555 12.3618 6.10114C13.0254 5.18853 12.7286 4.25262 12.1288 3.72027C11.5081 3.17075 10.4814 2.96958 9.68904 3.59393C9.46212 3.07507 8.88807 2.70954 8.12511 2.61509C6.76848 2.44827 5.77861 3.17197 5.43393 3.9153C4.98867 4.87575 5.23399 5.55161 5.4695 5.91224C4.73476 5.9196 4.22326 6.09991 3.91416 6.45686C3.41861 7.02846 3.5842 7.89077 3.71667 8.58504C3.778 8.90764 3.85528 9.30874 3.77678 9.40687C3.51919 9.7307 3.22726 9.63748 3.11318 9.58228C2.91815 9.48783 2.79549 9.30015 2.82983 9.1456L2.50724 9.07446C2.441 9.38111 2.63603 9.72211 2.97212 9.88402C3.26896 10.0275 3.70441 10.0324 4.03559 9.6154C4.20977 9.39706 4.13617 9.01067 4.04173 8.52125C3.92397 7.89936 3.77555 7.12659 4.16439 6.67642C4.44773 6.34891 5.00584 6.20908 5.82399 6.25569L5.93561 5.95762C5.92703 5.95149 5.15181 5.31242 5.73445 4.05759C6.1564 3.14744 7.24931 2.84324 8.08709 2.94628C8.66727 3.01742 9.32842 3.31058 9.44863 3.92144L9.72829 4.00607C10.2275 3.49335 11.1622 3.3069 11.9117 3.97173C12.3655 4.37406 12.6758 5.12352 12.0822 5.92082C10.5624 5.68531 9.42532 5.8877 8.70653 6.528C8.26985 6.91561 8.08096 7.38172 7.99877 7.73376C7.9632 7.70555 7.92518 7.68225 7.8847 7.66262C7.77185 7.6111 7.5437 7.5559 7.27385 7.7583C7.00644 7.95946 6.89728 8.26121 6.96597 8.60589C7.04692 9.01681 7.36339 9.43263 7.6774 9.66691C7.52775 9.81288 7.37443 10.0091 7.32291 10.2459C7.27262 10.4765 7.32414 10.7022 7.47624 10.9156C7.56455 11.0395 7.65409 11.156 7.73996 11.2676C8.16804 11.8258 8.36185 12.1103 8.09813 12.4648C7.98528 12.6157 7.85403 12.7138 7.71543 12.8169C7.37197 13.0745 7.01626 13.3406 7.13646 14.3317L7.46397 14.2913C7.36707 13.4927 7.59522 13.3222 7.91168 13.0867C8.05642 12.9788 8.21956 12.8561 8.36185 12.666C8.78994 12.0919 8.40601 11.5927 8 11.0628C7.91291 10.95 7.82705 10.8359 7.74364 10.7206C7.64796 10.5857 7.61607 10.4544 7.64428 10.3195C7.68476 10.1306 7.84299 9.9564 7.98651 9.83619C7.99632 9.83987 8.02576 9.80429 8.02576 9.80429C8.09322 9.75155 8.15333 9.71107 8.1938 9.68899L8.11285 9.54303L8.03189 9.39706C8.00245 9.41423 7.97424 9.4314 7.94603 9.45103C7.69212 9.29034 7.35971 8.90518 7.28734 8.54211C7.24318 8.32131 7.30328 8.15327 7.46888 8.02693C7.57069 7.94965 7.66268 7.93002 7.74486 7.96805C7.84299 8.01221 7.92395 8.141 7.93254 8.26612L8.08832 8.25385L8.26249 8.24649C8.26127 8.2379 8.24041 7.3805 8.92364 6.777C9.57006 6.2054 10.6213 6.03245 12.0466 6.25569C12.1288 6.82116 12.3459 7.83435 12.3557 7.88218L12.3704 7.8785C12.7298 8.73468 13.099 9.73192 13.1137 9.95762C13.0095 10.0484 12.5704 10.1306 12.3815 10.1293C12.4293 9.94168 12.4305 9.8092 12.4305 9.80429H12.0993C12.0993 9.85827 12.0797 11.1021 10.4397 11.1364C8.81079 11.1008 8.78258 9.85704 8.78135 9.80307L8.61698 9.80429H8.45139C8.45139 9.81656 8.46366 10.647 9.19349 11.1315C9.04384 11.2591 8.86353 11.4578 8.80588 11.7166C8.75314 11.9521 8.80834 12.1876 8.9727 12.417C9.06102 12.5409 9.15056 12.6574 9.23642 12.769C9.66451 13.3271 9.85831 13.6105 9.59459 13.965C9.48174 14.1159 9.3505 14.214 9.21312 14.3182C8.86967 14.5758 8.51395 14.8408 8.63416 15.8331L8.96166 15.7926C8.86476 14.9941 9.09291 14.8236 9.40937 14.5869C9.55411 14.4789 9.71725 14.3563 9.85954 14.1661C10.2864 13.5909 9.90247 13.0916 9.49769 12.563Z" fill="#DEC685"/>
<path fill-rule="evenodd" clip-rule="evenodd" d="M8.51278 9.86201C8.52996 10.0558 8.63299 10.69 9.22668 11.0825L9.29046 11.1254L9.23158 11.1757C9.09298 11.2935 8.91757 11.4836 8.8636 11.7289C8.81453 11.9485 8.86728 12.1681 9.02061 12.3827C9.10892 12.5066 9.19724 12.6231 9.2831 12.7335C9.7161 13.299 9.92953 13.6118 9.64128 13.9994C9.52352 14.1564 9.39105 14.257 9.24998 14.3625C8.90898 14.6176 8.58883 14.8568 8.68451 15.7682L8.89794 15.7412C8.81576 14.9586 9.06231 14.7722 9.37387 14.5403C9.51616 14.4336 9.67562 14.3146 9.81178 14.1319C10.2129 13.5934 9.86084 13.1334 9.45238 12.5998L9.49776 12.563L9.45115 12.5986C9.36774 12.4894 9.28065 12.3754 9.19356 12.2539C9.07703 12.0908 9.03655 11.9338 9.07212 11.778C9.12977 11.5167 9.38246 11.3229 9.48795 11.2518L9.51371 11.2346L9.54192 11.2456C9.78111 11.3413 10.062 11.3965 10.3736 11.4088L10.4275 11.4112H10.4423H10.4852L10.5122 11.4088C11.2788 11.3781 11.8247 11.1009 12.1362 10.5833L12.162 10.5416L12.2074 10.56C12.422 10.647 13.1224 10.9966 13.0918 11.8479C13.0758 12.265 12.736 12.6526 12.4085 13.0267C11.9743 13.521 11.4849 14.0791 11.8394 14.7256L12.0222 14.6102C11.7695 14.1405 12.0761 13.732 12.568 13.1714C12.9225 12.7679 13.288 12.3508 13.3064 11.8553C13.3346 11.0899 12.8514 10.6728 12.5606 10.4937L12.4159 10.4042L12.5852 10.387C12.9188 10.3527 13.2905 10.241 13.3727 10.0705C13.4512 9.9074 13.1936 9.11868 12.6073 7.72524C12.5484 7.4468 12.3607 6.54156 12.3067 6.10856L12.3031 6.08648L12.3165 6.06686C12.9593 5.18369 12.6661 4.27354 12.0908 3.76327C11.5008 3.24073 10.4999 3.02975 9.72591 3.63938L9.66704 3.68599L9.6376 3.6173C9.41803 3.11562 8.8501 2.76235 8.12026 2.67281C6.79183 2.50967 5.82525 3.21497 5.48915 3.9399C5.06597 4.85251 5.27204 5.49893 5.51982 5.88164L5.57747 5.96995L5.47198 5.97118C4.75318 5.97854 4.25885 6.15027 3.96078 6.49495C3.48362 7.0457 3.64554 7.89329 3.77556 8.57406C3.8602 9.01319 3.91294 9.33211 3.82462 9.44251C3.54127 9.79823 3.21622 9.69519 3.08988 9.63386C2.89116 9.53819 2.76359 9.35787 2.76727 9.18983L2.55507 9.14322C2.52931 9.40816 2.70717 9.69029 2.99665 9.83135C3.27264 9.96505 3.67866 9.96873 3.98899 9.57989C4.146 9.38118 4.07486 9.00706 3.98409 8.53236C3.86265 7.8982 3.713 7.10948 4.11901 6.63969C4.4085 6.30482 4.96784 6.15517 5.78354 6.19688L5.86695 5.97486C5.72099 5.8338 5.14693 5.18369 5.68173 4.03313C6.11596 3.09599 7.23587 2.78443 8.09328 2.88992C8.68206 2.96229 9.35425 3.25913 9.49776 3.87612L9.71119 3.94113C10.235 3.42718 11.1856 3.25054 11.9498 3.92886C12.4184 4.34469 12.7459 5.12482 12.1276 5.95646L12.1068 5.98467L12.0724 5.97977C10.5686 5.74671 9.4487 5.94542 8.74462 6.57222C8.31162 6.95738 8.13008 7.4235 8.05525 7.74732L8.0344 7.83564L7.96325 7.77922C7.92646 7.751 7.89334 7.73015 7.86145 7.71421C7.76086 7.66759 7.55479 7.61853 7.31069 7.80375C7.06169 7.99142 6.95988 8.27232 7.02366 8.59369C7.10584 9.00951 7.42967 9.40816 7.71302 9.61914L7.76822 9.65962L7.71916 9.70746C7.53516 9.88409 7.42231 10.0693 7.38061 10.257C7.334 10.4704 7.38183 10.6802 7.52535 10.8801C7.60876 10.9966 7.6934 11.107 7.77435 11.2125L7.78785 11.2309C8.22207 11.7964 8.43551 12.1092 8.14725 12.4968C8.02949 12.655 7.89456 12.7556 7.75228 12.8611C7.41373 13.115 7.09358 13.3542 7.18925 14.2656L7.40269 14.2398C7.3205 13.456 7.56828 13.2708 7.87984 13.039C8.02336 12.931 8.18282 12.812 8.31775 12.6305C8.72008 12.0908 8.36681 11.6308 7.95712 11.0972C7.87126 10.9856 7.78539 10.8727 7.69953 10.7538C7.59281 10.6053 7.55724 10.4581 7.59036 10.3073C7.63697 10.0938 7.81361 9.90862 7.95222 9.79087L7.97675 9.77002L7.98043 9.77124L7.98533 9.76634C8.0344 9.72586 8.07978 9.69274 8.12026 9.66698L8.01477 9.47685C8.00373 9.48421 7.99392 9.49035 7.98288 9.49771L7.94854 9.51856L7.91664 9.49893C7.6382 9.32353 7.30456 8.9212 7.23219 8.55321C7.18435 8.31157 7.25304 8.11899 7.43581 7.98038C7.55602 7.88961 7.66887 7.86631 7.77067 7.91414C7.87248 7.96076 7.95712 8.07728 7.98411 8.2024L8.20735 8.19013C8.21471 7.98161 8.28586 7.26404 8.88813 6.73291C9.54683 6.15027 10.6128 5.97118 12.0577 6.19811L12.1007 6.20547L12.1068 6.24717C12.1767 6.72432 12.3399 7.51427 12.4024 7.81356L12.4073 7.81234L12.4257 7.85649C12.7765 8.69427 13.158 9.71482 13.174 9.95401L13.1764 9.98345L13.1543 10.0018C13.0304 10.1086 12.5754 10.1871 12.3889 10.1871H12.384H12.3104L12.3276 10.1159C12.3484 10.0325 12.3632 9.94788 12.3717 9.86324H12.1583C12.1375 10.1257 11.9584 11.1635 10.4435 11.1953C8.93474 11.1635 8.74952 10.1245 8.72622 9.86324L8.51278 9.86201ZM8.5827 15.8957L8.57534 15.8381C8.45022 14.8126 8.83661 14.5244 9.17761 14.2705C9.31377 14.1687 9.44011 14.073 9.54805 13.9295C9.77743 13.6216 9.64128 13.3898 9.19111 12.8034C9.10524 12.6918 9.0157 12.5741 8.92616 12.4489C8.7532 12.2061 8.69432 11.9558 8.75075 11.7019C8.80595 11.4591 8.96173 11.2665 9.10156 11.1352C8.40361 10.6274 8.39503 9.81049 8.39503 9.80191V9.74426L8.84029 9.74303L8.84152 9.80068C8.84152 9.8522 8.86973 11.042 10.4459 11.0764C12.0283 11.0432 12.0467 9.85343 12.0467 9.80191V9.74426H12.4932V9.80191C12.4932 9.80313 12.492 9.9074 12.4588 10.0669C12.6526 10.0534 12.9507 9.98835 13.0562 9.92825C13.0169 9.68415 12.714 8.84269 12.3399 7.94358L12.3153 7.94972L12.3031 7.89329C12.2491 7.64061 12.0774 6.81877 12.0001 6.30482C10.6128 6.09384 9.59221 6.2668 8.96663 6.81877C8.30426 7.40264 8.32388 8.23429 8.32511 8.24288L8.32634 8.30053L7.88352 8.32629L7.87862 8.26864C7.87003 8.16437 7.80257 8.0552 7.72406 8.01841C7.66273 7.99019 7.59159 8.00737 7.50695 8.07115C7.35853 8.184 7.30701 8.32874 7.34749 8.52868C7.41127 8.84883 7.70198 9.20945 7.94854 9.37873C7.98165 9.35787 8.00251 9.34561 8.00619 9.34315L8.05648 9.31617L8.27359 9.70746L8.2233 9.73567C8.17914 9.76143 8.11781 9.80313 8.06261 9.84729C8.05034 9.86447 8.03317 9.87919 8.01355 9.88777C7.90928 9.97731 7.74124 10.1454 7.70076 10.3294C7.675 10.4483 7.70444 10.5649 7.7903 10.6851C7.87494 10.8041 7.9608 10.9157 8.04299 11.0224C8.44655 11.5486 8.86114 12.0896 8.40729 12.6992C8.26255 12.8942 8.09573 13.0181 7.94976 13.1285C7.63452 13.364 7.42967 13.5173 7.52167 14.2827L7.52903 14.3404L7.08622 14.3956L7.07886 14.3379C6.95497 13.3125 7.34013 13.0242 7.68113 12.7691C7.81606 12.6685 7.94363 12.5728 8.05157 12.4281C8.28095 12.1202 8.14357 11.8884 7.6934 11.3021L7.6799 11.2837C7.59772 11.1769 7.51308 11.0653 7.42967 10.9488C7.26653 10.7219 7.21256 10.4802 7.26653 10.2325C7.30824 10.0399 7.41741 9.8522 7.59036 9.67189C7.3021 9.43883 6.99177 9.0365 6.90836 8.617C6.83599 8.24901 6.95252 7.92764 7.23832 7.71175C7.53148 7.48973 7.78294 7.55229 7.90806 7.60872C7.92646 7.6173 7.94486 7.62711 7.96203 7.63693C8.07856 7.19167 8.32388 6.79056 8.66611 6.48391C9.3935 5.83871 10.533 5.62896 12.054 5.85833C12.5974 5.10151 12.2981 4.39375 11.8713 4.01473C11.1488 3.37443 10.2485 3.55229 9.76762 4.04662L9.74309 4.07115L9.39595 3.96689L9.38982 3.93254C9.27574 3.35235 8.63667 3.07268 8.07733 3.00399C7.26163 2.90341 6.19446 3.1978 5.78477 4.08219C5.22543 5.28796 5.96263 5.90617 5.96999 5.91353L6.00188 5.93929L5.86205 6.31709L5.81912 6.31463C5.01936 6.2668 4.47719 6.40295 4.2061 6.71574C3.83566 7.14383 3.98041 7.90188 4.09693 8.51151C4.19384 9.01565 4.26989 9.41307 4.07854 9.65226C3.72527 10.0951 3.2616 10.0902 2.94513 9.93561C2.58573 9.76266 2.37721 9.39467 2.44958 9.06103L2.46184 9.00461L2.89852 9.10028L2.88626 9.15671C2.85927 9.28428 2.96967 9.44864 3.13894 9.5296C3.26406 9.5897 3.50816 9.64981 3.7314 9.37014C3.79273 9.29286 3.70564 8.83901 3.65903 8.59614C3.5241 7.89084 3.35605 7.01258 3.87001 6.42012C4.17667 6.0644 4.66732 5.88164 5.36649 5.85833C5.12975 5.44374 4.96538 4.7875 5.38121 3.89206C5.73448 3.13033 6.74644 2.38823 8.1313 2.55873C8.87096 2.6495 9.45483 3.00154 9.70997 3.50568C10.5244 2.912 11.5548 3.13647 12.1657 3.67863C12.7753 4.21957 13.0881 5.18247 12.4208 6.11838C12.4785 6.55505 12.66 7.43086 12.714 7.69335C13.6143 9.83012 13.5199 10.0276 13.4745 10.1233C13.3813 10.3171 13.0599 10.4324 12.7471 10.4851C13.0537 10.7121 13.445 11.1438 13.4193 11.8639C13.3997 12.4011 13.0206 12.8341 12.6526 13.2524C12.1191 13.8608 11.8946 14.1932 12.1473 14.6041L12.1767 14.6532L11.7989 14.8911L11.7682 14.8409C11.3132 14.1012 11.8467 13.4916 12.319 12.9543C12.6342 12.5949 12.9593 12.2233 12.974 11.8479C12.9998 11.1352 12.4785 10.8102 12.2074 10.6912C11.9731 11.0555 11.5033 11.475 10.5711 11.5265V11.529L10.5134 11.5314H10.3135V11.5265C10.0228 11.5106 9.75903 11.4566 9.5272 11.3695C9.42294 11.4431 9.22913 11.6038 9.18497 11.8062C9.15799 11.9289 9.19111 12.054 9.28801 12.1901C9.37387 12.3103 9.46096 12.4232 9.54315 12.5311L9.49776 12.5667L9.54437 12.5324C9.94548 13.0549 10.3589 13.5958 9.905 14.2042C9.75903 14.4005 9.59099 14.5256 9.44379 14.636C9.131 14.8703 8.92616 15.0236 9.01815 15.789L9.02551 15.8467L8.5827 15.8957Z" fill="#DEC685"/>
<path fill-rule="evenodd" clip-rule="evenodd" d="M6.75131 5.26829C6.5109 5.57862 6.50722 5.97359 6.7415 6.27534C6.8887 6.46424 7.09354 6.56728 7.29716 6.56728C7.3818 6.56728 7.46643 6.54888 7.54616 6.51208C7.88716 6.35507 7.96812 6.2275 8.18646 5.88282C8.29563 5.71232 8.44405 5.47804 8.68446 5.14563C8.86968 4.89049 9.06717 4.75556 9.27447 4.74698C9.61056 4.73471 9.89268 5.05118 9.89514 5.05486L10.0203 4.94569L10.1454 4.83652C10.1306 4.81935 9.77861 4.41211 9.29777 4.41211C9.28673 4.41211 9.27569 4.41211 9.26343 4.41334C8.95064 4.4256 8.66606 4.60591 8.41829 4.94814C8.24043 5.19346 8.07116 5.44615 7.90924 5.70251C7.7044 6.02511 7.66147 6.09258 7.40878 6.2091C7.25668 6.27902 7.09477 6.18948 7.00154 6.06804C6.89238 5.92821 6.8384 5.69883 7.01258 5.47436L6.75131 5.26829Z" fill="#DEC685"/>
<path fill-rule="evenodd" clip-rule="evenodd" d="M6.76231 5.35046C6.57341 5.63135 6.58077 5.97358 6.78684 6.23853C6.97451 6.48017 7.27503 6.57217 7.52036 6.45932C7.84541 6.30967 7.91901 6.19437 8.13612 5.85092C8.24529 5.68042 8.39371 5.44613 8.63658 5.11004C8.83161 4.83896 9.04504 4.6979 9.26951 4.68808C9.55777 4.67704 9.80064 4.88312 9.89509 4.97389L10.0595 4.83037C9.95765 4.72611 9.66694 4.46729 9.29405 4.46729C9.28423 4.46729 9.27442 4.46729 9.26338 4.46852C8.96777 4.47956 8.69914 4.65128 8.4624 4.98002C8.21585 5.32224 8.06498 5.55898 7.95581 5.73071C7.74728 6.05822 7.69822 6.13549 7.43081 6.25815C7.2505 6.34034 7.06038 6.23853 6.95366 6.10115C6.81015 5.92329 6.80156 5.67183 6.93035 5.48293L6.76231 5.35046ZM7.29589 6.62491C7.07019 6.62491 6.85062 6.50961 6.69484 6.30967C6.44339 5.98707 6.44829 5.56389 6.70466 5.23147L6.74023 5.18486L7.09104 5.46331L7.0567 5.50869C6.90337 5.70618 6.94998 5.90857 7.04566 6.03123C7.12416 6.13304 7.26031 6.21032 7.38298 6.15389C7.61971 6.04472 7.65528 5.98707 7.85768 5.66938C7.96807 5.4952 8.12017 5.25723 8.36918 4.91255C8.62799 4.55438 8.92729 4.36671 9.25847 4.35322C9.26951 4.35199 9.28178 4.35199 9.29405 4.35199C9.80432 4.35199 10.1711 4.77885 10.1858 4.79725L10.2226 4.84141L9.88528 5.13457L9.84725 5.09164C9.8448 5.08919 9.58843 4.80339 9.28914 4.80339H9.27319C9.08552 4.81197 8.90276 4.93709 8.72858 5.1775C8.55562 5.41669 8.39003 5.66202 8.23302 5.91225C8.01346 6.25693 7.92269 6.39921 7.56697 6.56358C7.48356 6.60406 7.39034 6.62491 7.29589 6.62491ZM16.7298 18.8261C17.5418 18.5857 17.9343 17.5884 17.6841 16.3594L17.3603 16.4268C17.5406 17.3088 17.3726 18.3416 16.5802 18.5219C15.8221 18.6948 15.0898 18.0263 14.8003 16.8954C14.6274 16.2183 14.674 15.5866 14.9304 15.1622C15.0849 14.9058 15.3057 14.7427 15.5854 14.6789C15.7681 14.6347 15.9583 14.6396 16.1386 14.6924L16.2318 14.371C15.9975 14.3023 15.7497 14.2962 15.513 14.3514C15.3732 14.3833 15.2395 14.4372 15.1156 14.5121L15.1094 14.4998C14.2017 14.9708 13.1898 15.2051 12.168 15.183L12.1619 15.5167C12.206 15.5179 12.249 15.5179 12.2931 15.5179C13.0831 15.5179 13.8657 15.3719 14.593 15.0959C14.3428 15.5903 14.2999 16.2661 14.4814 16.9776C14.6998 17.8288 15.1511 18.4495 15.697 18.7243C15.0174 18.8518 14.23 18.9512 13.6866 18.9512C12.8856 18.9512 12.0956 18.8371 11.34 18.6102L11.2468 18.9303C12.0392 19.1671 12.8611 19.2861 13.6878 19.2848C14.5734 19.2848 16.0036 19.0432 16.7323 18.8273L16.7298 18.8261Z" fill="#DEC685"/>
<path fill-rule="evenodd" clip-rule="evenodd" d="M11.318 18.8948C12.0822 19.118 12.8783 19.2309 13.6866 19.2309C14.5477 19.2309 15.924 19.0015 16.6636 18.7905L16.7139 18.7709C17.4928 18.5403 17.8608 17.6032 17.6388 16.4281L17.4291 16.4722C17.5959 17.3677 17.407 18.3931 16.5937 18.5796C15.8025 18.7586 15.0433 18.073 14.7452 16.9101C14.5686 16.2195 14.6176 15.5719 14.8813 15.134C15.0445 14.8629 15.2775 14.6912 15.5732 14.6237C15.7461 14.5832 15.9264 14.5832 16.0994 14.6237L16.1607 14.414C15.9534 14.3624 15.7351 14.3612 15.5278 14.4103C15.3941 14.4409 15.2653 14.4925 15.1475 14.5636L15.0936 14.5967L15.085 14.5808C14.1993 15.0297 13.218 15.2579 12.2257 15.2444L12.222 15.4627C13.0304 15.4713 13.8215 15.3315 14.5735 15.0444L14.7133 14.9905L14.6458 15.1242C14.4017 15.6062 14.3625 16.2772 14.5379 16.9653C14.7464 17.7773 15.1782 18.4005 15.724 18.6752L15.8774 18.7525L15.7081 18.7844C14.9464 18.9267 14.1908 19.0126 13.6866 19.0126C12.9053 19.0138 12.1288 18.9034 11.3781 18.685L11.318 18.8948ZM13.6866 19.3474C12.855 19.3486 12.027 19.2284 11.2297 18.9905L11.1745 18.9745L11.3008 18.5428L11.3572 18.5587C12.1067 18.7832 12.8918 18.8973 13.6866 18.8973C14.1417 18.8973 14.836 18.8224 15.5302 18.6998C15.0212 18.3796 14.6238 17.77 14.4263 16.996C14.2558 16.3299 14.2766 15.6995 14.4827 15.2027C13.7381 15.4676 12.9519 15.5952 12.1607 15.5793L12.103 15.578L12.1116 15.1279L12.1693 15.1291C12.211 15.1303 12.2515 15.1303 12.2932 15.1303C13.2696 15.1303 14.2349 14.896 15.0837 14.4532L15.1353 14.4262L15.1414 14.4373C15.2542 14.3747 15.3757 14.3293 15.502 14.3011C15.7486 14.2435 16.0062 14.2496 16.249 14.3207L16.3042 14.3367L16.1791 14.7685L16.1227 14.7513C15.9522 14.7022 15.7719 14.6973 15.5989 14.7378C15.334 14.7991 15.1267 14.9524 14.9807 15.1953C14.7329 15.6075 14.6875 16.222 14.8568 16.8831C15.1377 17.9822 15.843 18.6335 16.5667 18.4679C17.3223 18.2962 17.4781 17.2965 17.3039 16.4403L17.2929 16.3839L17.7296 16.2919L17.7418 16.3496C17.9933 17.586 17.6155 18.5869 16.801 18.8654L16.8022 18.8703L16.7483 18.8862C16.016 19.1045 14.5784 19.3474 13.6866 19.3474ZM12.0012 7.76447L11.2272 7.43451L11.0972 7.43574L9.80066 8.00366L9.93191 8.31031L11.1647 7.77183L11.8737 8.07358L12.0012 7.76447Z" fill="#DEC685"/>
<path fill-rule="evenodd" clip-rule="evenodd" d="M9.87671 8.0331L9.96258 8.23304L11.1635 7.70805L11.8418 7.9963L11.9252 7.79514L11.215 7.49216L11.1095 7.49339L9.87671 8.0331ZM9.90125 8.38637L9.72461 7.973L11.0972 7.37809L11.2395 7.37686L11.2506 7.38177L12.0773 7.73381L11.9044 8.1484L11.1647 7.83439L9.90125 8.38637Z" fill="#DEC685"/>
<path fill-rule="evenodd" clip-rule="evenodd" d="M10.9966 8.40108C10.9966 8.55318 11.1266 8.67707 11.2861 8.67707C11.4455 8.67707 11.5755 8.55318 11.5755 8.40108C11.5755 8.24898 11.4455 8.12509 11.2861 8.12509C11.1266 8.12509 10.9966 8.25021 10.9966 8.40108Z" fill="#DEC685"/>
<path fill-rule="evenodd" clip-rule="evenodd" d="M11.2861 8.18397C11.1585 8.18397 11.0543 8.2821 11.0543 8.40231C11.0543 8.52252 11.1573 8.62065 11.2861 8.62065C11.4149 8.62065 11.5179 8.52252 11.5179 8.40231C11.5179 8.2821 11.4137 8.18397 11.2861 8.18397ZM11.2861 8.73472C11.0947 8.73472 10.939 8.58508 10.939 8.40108C10.939 8.21709 11.0947 8.06744 11.2861 8.06744C11.4774 8.06744 11.6345 8.21709 11.6345 8.40108C11.6345 8.58508 11.4774 8.73472 11.2861 8.73472Z" fill="#DEC685"/>
<path fill-rule="evenodd" clip-rule="evenodd" d="M17.2953 11.859L14.4667 12.9948L15.6062 9.40697C15.6111 9.40697 15.616 9.4082 15.621 9.4082C15.6308 9.4082 15.6394 9.40574 15.6492 9.40574L17.337 11.6431C17.3076 11.6958 17.2916 11.7547 17.2916 11.8148C17.2916 11.8295 17.2941 11.8443 17.2953 11.859ZM8.54337 17.1383C8.61452 17.2205 8.71878 17.2745 8.83776 17.2745C8.84635 17.2745 8.85493 17.272 8.86352 17.272L10.4103 19.886C9.85463 19.7768 9.31123 19.61 8.78992 19.3867C7.82948 18.9758 6.95736 18.3858 6.21893 17.6474L8.54337 17.1383ZM4.80341 12.866C4.82672 12.9948 4.91749 13.1015 5.04138 13.1482L5.64119 17.0132C5.12847 16.3877 4.71142 15.6946 4.3974 14.9427L4.17539 14.8568L4.05272 14.9145C3.78778 14.138 3.63567 13.3272 3.60256 12.5066L4.80341 12.866ZM20.3214 20.1129C19.2517 21.1984 17.9822 22.0644 16.5814 22.663C15.134 23.2837 13.575 23.6014 12 23.5989C10.4115 23.5989 8.87088 23.2837 7.41856 22.663C6.01777 22.0644 4.74699 21.1972 3.67861 20.1129C2.67155 19.096 1.85708 17.905 1.27321 16.5974L4.16067 15.2322C4.58753 16.2 5.18735 17.0819 5.9319 17.8326C6.71203 18.6238 7.63813 19.2567 8.6599 19.6934C9.71479 20.1448 10.8519 20.3778 11.9988 20.3754C12.6881 20.3754 13.3726 20.2932 14.0313 20.1313L13.9528 19.8075C12.9322 20.0565 11.8736 20.108 10.8347 19.9583L9.15177 17.1126C9.19471 17.0513 9.21924 16.9789 9.21924 16.9041C9.21924 16.6992 9.04751 16.5324 8.83531 16.5324C8.65622 16.5324 8.50657 16.6526 8.46487 16.8133L6.02635 17.3469L5.37257 13.1236C5.48664 13.0598 5.56514 12.9409 5.56514 12.8035C5.56514 12.5986 5.39342 12.433 5.18121 12.433C5.07327 12.433 4.97514 12.4772 4.90522 12.5471L3.59397 12.1558C3.59397 12.1497 3.53387 12.1386 3.53387 12.1386H3.26278C3.26278 13.142 3.42838 14.1221 3.7522 15.0568L2.59305 15.6051C2.19317 14.4938 1.98955 13.3199 1.99078 12.1386C1.99078 11.8896 1.99937 11.6406 2.01654 11.3965L1.68658 11.372C1.66818 11.6235 1.65959 11.8823 1.65959 12.1386C1.65959 13.3812 1.8718 14.5943 2.2913 15.7474L1.13705 16.2932C0.640275 14.9648 0.386365 13.5578 0.388818 12.1386C0.388818 10.5526 0.696699 9.01445 1.30142 7.56582C1.88284 6.17238 2.72675 4.90528 3.789 3.83199C4.84389 2.76116 6.0975 1.9062 7.47989 1.31498C8.9089 0.704119 10.4459 0.390105 12 0.392559C13.5676 0.392559 15.0886 0.702893 16.5201 1.3162C17.9025 1.90743 19.1561 2.76238 20.211 3.83322C21.2732 4.90528 22.1183 6.17361 22.6985 7.56582C23.3045 9.01445 23.6136 10.5686 23.6111 12.1386C23.6111 13.5296 23.3707 14.8887 22.9022 16.1828L21.7087 15.7461C22.1282 14.5894 22.3416 13.3689 22.3404 12.1386C22.3404 6.37109 17.7025 1.67928 12.0012 1.67928C11.1953 1.67928 10.3931 1.7725 9.61544 1.95895L9.69149 2.284C10.4446 2.10492 11.2211 2.01292 12.0012 2.01292C14.5379 2.01292 16.8549 2.97459 18.62 4.55202L18.9439 7.22359C18.8151 7.2837 18.7317 7.41249 18.7304 7.55478V7.55723L15.8246 8.72375C15.7632 8.68572 15.6933 8.66609 15.621 8.66609C15.6075 8.66609 15.5952 8.66855 15.5829 8.66977L14.3158 5.9565C14.3735 5.89149 14.4054 5.80685 14.4066 5.71976C14.4066 5.6204 14.3649 5.52473 14.2925 5.45604L14.7709 4.10798C14.939 4.16686 15.107 4.23187 15.2714 4.30179C16.2723 4.72988 17.18 5.34932 17.9442 6.12577L18.1772 5.88903C17.3836 5.08314 16.4403 4.43917 15.4002 3.99391C14.7783 3.72773 14.1269 3.53638 13.4609 3.4223L13.4069 3.75226C13.7626 3.81237 14.1134 3.89823 14.4581 4.00617L13.9797 5.35423C13.7896 5.37631 13.6412 5.53086 13.6412 5.72099C13.6412 5.92215 13.808 6.08529 14.0141 6.0902L15.2984 8.8415C15.2603 8.89915 15.2395 8.96784 15.2383 9.03776C15.2383 9.11749 15.2652 9.19109 15.3094 9.25242L14.1453 12.9163C13.9613 12.9433 13.8191 13.0954 13.8191 13.2819C13.8191 13.4867 13.9908 13.6523 14.203 13.6523C14.4054 13.6523 14.5685 13.5002 14.5832 13.3076L17.4376 12.162L16.9052 14.874C16.7396 14.9145 16.6219 15.0605 16.6194 15.231C16.6194 15.4358 16.7911 15.6014 17.0034 15.6014C17.2119 15.6014 17.3799 15.4407 17.3861 15.2395L21.1088 13.5505C21.1739 13.602 21.256 13.6327 21.3468 13.6327C21.5578 13.6327 21.7307 13.4658 21.7307 13.2622C21.7307 13.0574 21.559 12.8906 21.3468 12.8906C21.1395 12.8906 20.9702 13.0513 20.9641 13.25L17.2401 14.9402L17.2315 14.9329L17.7737 12.173C17.9393 12.1325 18.057 11.9853 18.0595 11.816C18.0595 11.6112 17.8877 11.4456 17.6755 11.4456C17.6522 11.4456 17.6302 11.4481 17.6081 11.4517L15.9411 9.24261C15.9816 9.18373 16.0049 9.11504 16.0049 9.03899C16.0049 9.0304 16.0024 9.02304 16.0024 9.01445L18.8887 7.8553C18.9524 7.89946 19.0297 7.92767 19.1144 7.92767C19.3253 7.92767 19.4983 7.76085 19.4983 7.55723C19.4983 7.40881 19.4063 7.28124 19.2763 7.22237L18.9954 4.90651C20.9273 6.81635 22.0129 9.42169 22.0092 12.1386C22.0092 13.3407 21.8043 14.5146 21.3983 15.6321L20.0454 15.1365L19.9889 15.2935L20.0454 15.1365L19.7375 15.0237L19.5302 15.112C19.2113 15.832 18.7905 16.5042 18.2827 17.1064L18.5342 17.3236C19.0297 16.7372 19.4443 16.0871 19.7681 15.3904L19.9325 15.4505L22.7734 16.4919C22.187 17.84 21.3554 19.0678 20.3214 20.1129ZM23.9423 12.1386C23.9423 10.5085 23.6259 8.92614 23.004 7.4358C22.4066 6.00311 21.5369 4.69921 20.4452 3.59648C19.3597 2.49498 18.0705 1.61672 16.6501 1.00832C15.1806 0.379066 13.5995 0.0552388 12.0012 0.0576921C10.3907 0.0576921 8.82549 0.377839 7.35233 1.00832C5.93068 1.61672 4.6415 2.49498 3.55717 3.59648C2.46548 4.69921 1.59581 6.00311 0.998447 7.4358C0.374099 8.92491 0.055178 10.5244 0.0576312 12.1386C0.0576312 13.6449 0.336073 15.1181 0.870879 16.5115L0.906451 16.5839C1.50995 17.9872 2.37103 19.2641 3.44555 20.3496C4.5446 21.4646 5.85095 22.3551 7.28977 22.9709C8.77766 23.6087 10.3808 23.9363 12 23.9338C13.6326 23.9338 15.2174 23.61 16.7102 22.9709C18.1502 22.3551 19.4554 21.4646 20.5544 20.3496C21.6608 19.2322 22.5415 17.9111 23.1463 16.46L23.1561 16.4392C23.6774 15.0654 23.9436 13.6081 23.9423 12.1386Z" fill="#DEC685"/>
<path fill-rule="evenodd" clip-rule="evenodd" d="M15.6406 9.49032L14.5587 12.8954L17.2327 11.8209V11.8148C17.2327 11.7583 17.245 11.7031 17.2683 11.6492L15.6406 9.49032ZM14.3747 13.0941L15.5658 9.34681L15.6308 9.34926L15.6774 9.34558L17.4069 11.6381L17.3885 11.6712C17.364 11.7154 17.3505 11.7645 17.3493 11.816C17.3493 11.8246 17.3505 11.8319 17.3517 11.8393L17.3579 11.8835L17.3174 11.9129L14.3747 13.0941ZM4.17295 14.7942L4.44158 14.8985L4.4514 14.9206C4.73352 15.5952 5.10273 16.2294 5.55167 16.8071L4.98988 13.1898C4.87458 13.1358 4.78872 13.034 4.7556 12.9114L3.66391 12.5863C3.70316 13.3542 3.84545 14.1098 4.08709 14.8347L4.17295 14.7942ZM5.73198 17.2143L5.59706 17.05C5.08556 16.4256 4.66605 15.7314 4.35327 14.988L4.17786 14.9193L4.0184 14.9942L3.99755 14.9328C3.73137 14.1502 3.57804 13.3345 3.5437 12.509L3.54002 12.4268L4.85495 12.8181L4.86109 12.8537C4.87948 12.9604 4.95676 13.0524 5.06225 13.0929L5.09414 13.1052L5.73198 17.2143ZM6.33548 17.6804C7.05305 18.3784 7.89206 18.939 8.81202 19.3327C9.28672 19.5363 9.78473 19.6933 10.2925 19.8025L8.83042 17.3309C8.71512 17.3296 8.60472 17.283 8.52254 17.2008L6.33548 17.6804ZM10.5256 19.9681L10.398 19.9423C9.8387 19.8319 9.29163 19.6639 8.76664 19.4394C7.80006 19.026 6.92058 18.4311 6.17725 17.6878L6.10242 17.613L8.56424 17.0745L8.58755 17.1003C8.65011 17.1739 8.7421 17.2156 8.83778 17.2156L8.89543 17.2119L10.5256 19.9681ZM1.35051 16.6268C1.92947 17.9074 2.73168 19.0739 3.72033 20.0724C4.78381 21.1518 6.04845 22.0141 7.44189 22.6102C8.88194 23.2272 10.4336 23.5449 12 23.5412C13.5799 23.5412 15.1144 23.2272 16.5581 22.6102C17.9515 22.0141 19.2162 21.1518 20.2797 20.0724L20.3201 20.1128L20.2797 20.0724C21.2953 19.0469 22.1135 17.8448 22.6949 16.525L19.7964 15.4627C19.4738 16.146 19.0641 16.7838 18.5771 17.3603L18.5391 17.4057L18.2006 17.1125L18.2374 17.0684C18.7415 16.4698 19.1585 15.8037 19.4762 15.0886L19.486 15.0678L19.7351 14.961L21.3628 15.5572C21.7541 14.4594 21.9528 13.3039 21.9503 12.1386C21.9503 9.4707 20.9298 6.96594 19.0727 5.06714L19.329 7.18183C19.4676 7.25788 19.556 7.40017 19.556 7.55472C19.556 7.79146 19.3573 7.98404 19.1144 7.98404C19.0322 7.98404 18.9525 7.96196 18.8826 7.91903L16.0638 9.05119C16.0613 9.11743 16.0442 9.18122 16.0123 9.23887L17.6339 11.3891C17.6473 11.3879 17.6608 11.3867 17.6756 11.3867C17.9184 11.3867 18.1171 11.5793 18.1171 11.8148C18.1171 11.9963 17.9982 12.157 17.824 12.2171L17.3076 14.8457L20.9089 13.2107C20.9371 12.9911 21.126 12.8292 21.3468 12.8316C21.5909 12.8316 21.7884 13.0242 21.7884 13.2609C21.7884 13.4977 21.5897 13.689 21.3468 13.689C21.2597 13.689 21.1763 13.6645 21.1027 13.6167L17.4425 15.2775C17.418 15.4909 17.2291 15.6578 17.0046 15.6578C16.7617 15.6578 16.563 15.4652 16.563 15.2284C16.563 15.0469 16.682 14.8862 16.8562 14.8261L17.3615 12.2527L14.6372 13.3468C14.6041 13.5517 14.4189 13.7074 14.203 13.7074C13.9601 13.7074 13.7614 13.5149 13.7614 13.2793C13.7614 13.0819 13.9049 12.9089 14.1 12.8635L15.2456 9.25972C15.1647 9.13215 15.1585 8.97024 15.2321 8.83654L13.9761 6.14534C13.7565 6.12203 13.5823 5.93804 13.5823 5.7197C13.5823 5.51486 13.732 5.3419 13.9356 5.30142L14.3821 4.04291C14.0583 3.94479 13.7295 3.86628 13.3959 3.80863L13.3395 3.79882L13.4131 3.35478L13.4707 3.3646C14.1417 3.47867 14.7967 3.67248 15.4235 3.93988C16.471 4.38759 17.4204 5.03525 18.219 5.84727L18.2594 5.88775L17.9442 6.20667L17.9025 6.16496C17.1432 5.39465 16.2416 4.77889 15.2481 4.35448C15.1021 4.29314 14.9549 4.23549 14.8053 4.18152L14.3588 5.44126C14.4888 5.58845 14.4998 5.80556 14.3833 5.9638L15.6173 8.60716C15.6909 8.61207 15.7633 8.62433 15.8283 8.65868L18.674 7.5167C18.6863 7.38177 18.7623 7.26279 18.8813 7.19164L18.5649 4.5814C16.7458 2.96226 14.4152 2.07051 12 2.07051C11.2236 2.07051 10.4508 2.16128 9.70377 2.33914L9.64735 2.35264L9.54431 1.91473L9.60074 1.90124C10.387 1.71357 11.1917 1.61912 12 1.61912C17.7332 1.61912 22.3968 6.33792 22.3968 12.1361C22.3968 13.364 22.1895 14.5648 21.781 15.708L22.8654 16.1055C23.3205 14.831 23.5535 13.4891 23.5523 12.1361C23.5523 10.5587 23.2469 9.02789 22.6446 7.58539C22.0656 6.19931 21.2254 4.93712 20.1693 3.86996C19.1193 2.80403 17.8718 1.95399 16.4968 1.36521C15.0764 0.760486 13.5455 0.447699 12 0.450152C10.441 0.450152 8.92855 0.75926 7.50199 1.36889C6.12695 1.95766 4.87948 2.80771 3.8295 3.87242C1.65716 6.07419 0.440356 9.04506 0.446489 12.1386C0.446489 13.5369 0.690586 14.9083 1.17019 16.2134L2.22018 15.7166C1.80926 14.5685 1.60074 13.3578 1.60196 12.1374C1.60196 11.8798 1.61055 11.621 1.62895 11.367L1.63263 11.3094L2.07789 11.3425L2.07421 11.4002C2.05704 11.6455 2.04845 11.892 2.04845 12.1386C2.04845 13.3027 2.24226 14.4422 2.62619 15.5253L3.68108 15.026C3.36584 14.0963 3.20392 13.1199 3.20515 12.1386V12.0809H3.53511C3.56332 12.0846 3.59154 12.092 3.6173 12.103L4.89052 12.4833C4.97148 12.4146 5.07329 12.3766 5.18246 12.3766C5.42533 12.3766 5.62404 12.5691 5.62404 12.8059C5.62404 12.9445 5.5529 13.0745 5.43637 13.1542L6.07666 17.2781L8.42196 16.7642C8.48574 16.5888 8.65256 16.4735 8.83901 16.4747C9.0831 16.4747 9.28059 16.6673 9.28059 16.904C9.28059 16.9776 9.26096 17.05 9.22294 17.115L10.874 19.9068C11.9178 20.0515 12.958 19.9939 13.9417 19.7522L13.9982 19.7387L14.1036 20.1754L14.0472 20.1889C13.3775 20.3532 12.6906 20.4354 12 20.4342C10.8335 20.4342 9.70255 20.2036 8.63784 19.7485C7.60871 19.3082 6.67648 18.6728 5.89144 17.8755C5.15547 17.1334 4.56056 16.2649 4.13247 15.3119L1.35051 16.6268ZM12 23.6578C10.4042 23.6578 8.85495 23.3413 7.3965 22.7169C5.98957 22.1147 4.71266 21.2438 3.63815 20.1533C2.62619 19.1315 1.80803 17.9356 1.22171 16.6219L1.19841 16.5704L4.19135 15.1548L4.21466 15.2088C4.63784 16.1705 5.2352 17.0451 5.97363 17.7921C6.74762 18.5783 7.66881 19.2064 8.68323 19.6406C9.73076 20.0895 10.8592 20.3201 12 20.3177C12.6648 20.3177 13.326 20.2404 13.9626 20.0883L13.9111 19.8761C12.9016 20.1153 11.8553 20.1619 10.8286 20.0147L10.8016 20.011L9.08433 17.1088L9.10641 17.0782C9.14321 17.0267 9.16283 16.9653 9.16283 16.9028C9.16283 16.7298 9.01687 16.5888 8.83655 16.5888C8.68936 16.5875 8.56056 16.6844 8.52131 16.8267L8.51273 16.8611L5.97853 17.4155L5.30757 13.0917L5.34315 13.072C5.4425 13.0193 5.50506 12.9163 5.50629 12.8034C5.50629 12.6305 5.36032 12.4906 5.18123 12.4906C5.09292 12.4906 5.00828 12.525 4.94572 12.5875L4.92119 12.6121L3.53511 12.1975L3.52285 12.195L3.32045 12.1962C3.32536 13.164 3.48973 14.1233 3.80619 15.0371L3.82337 15.0862L2.55995 15.6835L2.53787 15.6234C2.13554 14.5047 1.9307 13.326 1.93315 12.1374C1.93315 11.908 1.94051 11.6762 1.95523 11.448L1.7418 11.4321C1.72585 11.6663 1.71849 11.9019 1.71849 12.1361C1.71849 13.3701 1.9307 14.5783 2.34775 15.7252L2.36615 15.7743L1.10641 16.3704L1.08433 16.3115C0.58387 14.9794 0.328734 13.5651 0.331187 12.1386C0.331187 10.5452 0.640294 8.99968 1.2487 7.54368C1.83257 6.14411 2.68139 4.86966 3.74854 3.79146C4.80834 2.71571 6.06808 1.85708 7.45661 1.2634C8.89175 0.648864 10.4373 0.332397 12 0.33485C13.575 0.33485 15.1033 0.646411 16.5434 1.2634C17.9319 1.85708 19.1929 2.71571 20.2527 3.79269C21.3198 4.87088 22.1687 6.14411 22.7538 7.54491C23.3622 9.0009 23.6737 10.5624 23.67 12.1398C23.6713 13.5259 23.4296 14.9009 22.9574 16.2036L22.9377 16.2588L21.6351 15.7816L21.6547 15.7277C22.0718 14.5783 22.284 13.364 22.2827 12.141C22.2827 6.40538 17.6707 1.73933 12.0012 1.73933C11.2186 1.73933 10.4397 1.82887 9.68537 2.00428L9.73444 2.21648C10.4778 2.04353 11.2383 1.95767 12.0012 1.95767C14.4532 1.95767 16.8169 2.86536 18.6593 4.51148L18.6753 4.5262L19.0064 7.26033L18.9696 7.27873C18.8605 7.32902 18.7906 7.43696 18.7893 7.55717V7.59643L18.7525 7.6136L15.8197 8.79115L15.7952 8.77643C15.7363 8.74086 15.6676 8.71878 15.6026 8.72859L15.5609 8.73473L15.5314 8.69793L14.2484 5.95031L14.2729 5.92209C14.322 5.8669 14.349 5.79698 14.3502 5.72338C14.3502 5.63874 14.3146 5.55901 14.2545 5.50136L14.2275 5.4756L14.7378 4.03678L14.793 4.05641C14.9758 4.12142 15.1414 4.18398 15.2959 4.25144C16.2858 4.67462 17.1849 5.28425 17.9454 6.04598L18.0975 5.89265C17.3174 5.11007 16.395 4.48572 15.3793 4.0515C14.7795 3.79514 14.1527 3.60747 13.51 3.49339L13.4744 3.70927C13.8007 3.76693 14.1368 3.85034 14.4753 3.9546L14.533 3.973L14.0227 5.41182L13.9859 5.4155C13.8228 5.43513 13.6989 5.5676 13.6989 5.72461C13.6989 5.89265 13.8412 6.03249 14.0153 6.03617L14.0509 6.0374L15.3634 8.85003L15.3462 8.87701C15.3143 8.92608 15.2959 8.98373 15.2959 9.04138C15.2959 9.10516 15.3168 9.16772 15.356 9.22047L15.3732 9.245L14.1883 12.9715L14.1527 12.9764C13.9957 12.9997 13.8767 13.1322 13.8767 13.2843C13.8767 13.4572 14.0227 13.597 14.203 13.597C14.3711 13.597 14.5133 13.4695 14.5256 13.3063L14.5281 13.2708L14.5612 13.2573L17.5149 12.0711L16.9543 14.9242L16.9187 14.9328C16.7789 14.9659 16.6795 15.0898 16.6771 15.2333C16.6771 15.4063 16.8231 15.5461 17.0034 15.5461C17.1776 15.5461 17.3235 15.4088 17.3272 15.2407L17.3284 15.2039L21.115 13.4854L21.1432 13.5063C21.2009 13.5517 21.272 13.5762 21.3444 13.5762C21.5235 13.5762 21.6707 13.4364 21.6707 13.2634C21.6707 13.0904 21.5247 12.9506 21.3444 12.9506C21.1677 12.9506 21.0255 13.0831 21.0205 13.2536L21.0193 13.2892L20.9862 13.3039L17.2303 15.0089L17.169 14.9647L17.1726 14.923L17.7222 12.1263L17.7577 12.1177C17.8976 12.0846 17.9969 11.9607 17.9994 11.8172C17.9994 11.6455 17.8534 11.5044 17.6743 11.5044C17.6547 11.5044 17.6363 11.5069 17.6167 11.5093L17.5823 11.5155L15.87 9.245L15.8933 9.21065C15.9276 9.16036 15.9473 9.10026 15.9473 9.03893C15.946 9.03157 15.9448 9.02421 15.9448 9.01685L15.9423 8.97514L15.9804 8.9592L18.896 7.789L18.9218 7.8074C18.9782 7.84788 19.0445 7.86873 19.1144 7.86873C19.2935 7.86873 19.4407 7.72767 19.4407 7.55595C19.4382 7.43329 19.3646 7.32289 19.253 7.27383L19.2236 7.26033L18.9169 4.74699L19.0359 4.86475C20.9911 6.79912 22.0669 9.38361 22.0669 12.1386C22.0669 13.3468 21.8596 14.5293 21.4523 15.6516L21.4327 15.7068L20.0797 15.21L20.0429 15.3119L19.9338 15.2726L19.9706 15.1696L19.7387 15.0837L19.5744 15.1548C19.2616 15.8552 18.8543 16.509 18.3637 17.0978L18.5268 17.2389C19.0015 16.6673 19.4014 16.0368 19.7142 15.3634L19.7375 15.3155L22.8507 16.4563L22.8261 16.5127C22.2374 17.8681 21.402 19.1021 20.3619 20.1521C19.2873 21.2425 18.0117 22.1134 16.6035 22.7157C15.1487 23.3401 13.5823 23.6602 12 23.6578ZM12 0.116512C10.3968 0.116512 8.84023 0.434206 7.37442 1.06223C5.96013 1.66696 4.67709 2.54276 3.59767 3.63813C2.50966 4.73473 1.64489 6.03249 1.05121 7.45782C0.430543 8.9408 0.112849 10.5317 0.115302 12.1386C0.115302 13.6277 0.387611 15.0911 0.92487 16.4906L0.957988 16.5581C1.55903 17.9552 2.41644 19.2272 3.48605 20.3091C4.58019 21.4192 5.87918 22.306 7.31187 22.9181C8.79239 23.5523 10.387 23.8785 11.9988 23.8761C13.624 23.8761 15.2002 23.5535 16.6857 22.9181C18.1184 22.3048 19.4186 21.4192 20.5115 20.3091C21.613 19.1965 22.4888 17.8828 23.0911 16.4379L23.1021 16.4146C23.6185 15.0481 23.8835 13.5995 23.8822 12.1398C23.8847 10.5329 23.567 8.94203 22.9476 7.45904C22.3527 6.03371 21.4879 4.73595 20.4011 3.63813C19.3217 2.54276 18.0386 1.66696 16.6243 1.06223C15.1647 0.435432 13.5909 0.114059 12 0.116512ZM12 23.9914C10.36 23.9914 8.76664 23.6663 7.26771 23.0236C5.82153 22.4054 4.50905 21.5099 3.40386 20.39C2.32444 19.2996 1.45845 18.0153 0.852499 16.6059L0.818154 16.536C0.277216 15.134 0 13.6424 0 12.1386C0 10.4998 0.317694 8.91013 0.944496 7.41243C1.54431 5.97361 2.41644 4.66358 3.51426 3.55595C4.60472 2.44954 5.90003 1.56637 7.32781 0.955518C8.80466 0.322584 10.3944 -0.00246997 12 -1.67343e-05C13.6179 -1.67343e-05 15.1904 0.321357 16.6722 0.954292C18.1 1.56515 19.3953 2.44831 20.4857 3.55472C21.5836 4.66358 22.4557 5.97238 23.0567 7.41243C23.6823 8.90891 24.0037 10.5158 24 12.1386C24 13.6203 23.7351 15.0739 23.2113 16.4587L23.199 16.4845C22.5918 17.9417 21.7075 19.2677 20.5961 20.39C19.4922 21.5112 18.1797 22.4054 16.7323 23.0236C15.237 23.6651 13.6265 23.9951 12 23.9914Z" fill="#DEC685"/>
<path fill-rule="evenodd" clip-rule="evenodd" d="M19.7473 8.82918C20.1852 9.87673 20.4097 11.0028 20.4072 12.1387H20.7384C20.7384 10.9451 20.5078 9.78841 20.0527 8.69916L19.7473 8.82918Z" fill="#DEC685"/>
<path fill-rule="evenodd" clip-rule="evenodd" d="M20.4648 12.0809H20.6795C20.6746 10.9463 20.4513 9.82397 20.0208 8.77521L19.8233 8.85984C20.2416 9.88162 20.4599 10.9758 20.4648 12.0809ZM20.7948 12.1962H20.3483V12.1386C20.3507 11.0101 20.1275 9.89266 19.6933 8.85126L19.6712 8.79851L20.0821 8.62311L20.1042 8.67708C20.5629 9.77368 20.7972 10.9512 20.7948 12.1398V12.1962ZM4.2342 17.6314L4.36422 17.7884C4.37772 17.8043 4.49057 17.9491 4.35564 18.0632C4.3262 18.0914 4.28695 18.1073 4.24647 18.1085C4.15815 18.1085 4.08701 18.0239 4.08578 18.0239L3.95576 17.8669L4.2342 17.6314ZM4.26732 17.088L2.95361 18.1993L3.20384 18.5023L3.67118 18.1073L3.80121 18.2643C3.80979 18.2741 4.00114 18.5023 4.26732 18.5023C4.3863 18.5023 4.50038 18.4569 4.60587 18.3674C4.94073 18.084 4.77882 17.7074 4.64757 17.5492L4.26732 17.088Z" fill="#DEC685"/>
<path fill-rule="evenodd" clip-rule="evenodd" d="M4.03688 17.8742L4.1301 17.9871C4.14482 18.0043 4.19634 18.0509 4.2454 18.0509C4.26012 18.0509 4.28343 18.0472 4.31778 18.019C4.40241 17.9466 4.34721 17.8595 4.319 17.824L4.22701 17.7123L4.03688 17.8742ZM4.24663 18.1674C4.13133 18.1674 4.04546 18.0656 4.04178 18.0619L3.87496 17.8608L4.24172 17.5504L4.40855 17.7528C4.49073 17.8534 4.51772 18.003 4.3926 18.1085C4.35212 18.1441 4.3006 18.1662 4.24663 18.1674ZM3.6787 18.0239L3.84552 18.2263C3.84798 18.2287 4.02461 18.4434 4.26626 18.4434C4.37052 18.4434 4.47233 18.4029 4.56678 18.322C4.8673 18.068 4.72011 17.7283 4.60113 17.5835L4.25767 17.1677L3.0335 18.2042L3.21013 18.4176L3.6787 18.0239ZM3.19664 18.5845L2.87158 18.1919L4.27362 17.0058L4.6919 17.5124C4.83664 17.6866 5.01205 18.0987 4.64283 18.4115C4.5263 18.5109 4.39996 18.5599 4.26748 18.5599C3.96941 18.5599 3.75843 18.3023 3.75721 18.3011L3.66521 18.1895L3.19664 18.5845ZM6.31105 19.1254L5.34692 20.5605L6.13318 21.1002L6.34048 20.7899L5.87927 20.4722L6.63488 19.3474L6.31105 19.1254Z" fill="#DEC685"/>
<path fill-rule="evenodd" clip-rule="evenodd" d="M5.42778 20.5446L6.11837 21.0193L6.26188 20.8059L5.79945 20.4882L6.55505 19.3634L6.32689 19.2063L5.42778 20.5446ZM6.14903 21.1812L5.26709 20.5753L6.295 19.0444L6.71451 19.3315L5.95891 20.4575L6.42012 20.7752L6.14903 21.1812ZM8.91753 21.7454C8.9163 21.7467 8.87582 21.8706 8.75071 21.8706C8.7225 21.8706 8.69428 21.8657 8.6673 21.8558C8.48576 21.7957 8.52256 21.6461 8.53114 21.6179L8.893 20.5017L8.52133 20.3778L8.1607 21.494C8.15947 21.4989 7.99633 22.0263 8.55322 22.2103C8.63173 22.2361 8.70655 22.2496 8.77769 22.2496C9.08435 22.2496 9.24626 21.9994 9.2892 21.8669L9.64983 20.7507L9.27816 20.628L8.91753 21.7454Z" fill="#DEC685"/>
<path fill-rule="evenodd" clip-rule="evenodd" d="M8.55807 20.4526L8.21584 21.5124C8.20971 21.532 8.07355 21.9908 8.57156 22.1564C8.64393 22.1797 8.71385 22.1932 8.77763 22.1932C9.04994 22.1932 9.19468 21.9687 9.23393 21.851L9.57738 20.7899L9.31612 20.7028L8.97266 21.7651C8.92605 21.8927 8.78499 21.9589 8.65619 21.9123C8.65497 21.9111 8.65251 21.9111 8.65129 21.9098C8.45748 21.846 8.45135 21.6841 8.47711 21.5995L8.82056 20.5373L8.55807 20.4526ZM8.77763 22.3085C8.70035 22.3085 8.61817 22.2938 8.53476 22.2668C7.92145 22.0644 8.10299 21.483 8.10544 21.4768L8.48447 20.3054L8.96653 20.4649L8.5875 21.6351C8.57646 21.6706 8.56297 21.759 8.68686 21.8007C8.70771 21.808 8.72979 21.8117 8.75187 21.8129C8.82915 21.8129 8.85859 21.7381 8.86349 21.7271L9.24252 20.5569L9.72458 20.7163L9.34555 21.8865C9.29649 22.0325 9.1174 22.3085 8.77763 22.3085ZM11.2014 21.4045L11.5976 21.4167L11.5559 22.7734L11.9472 22.7856L11.9889 21.4278L12.3876 21.44L12.3998 21.0659L11.2125 21.0291L11.2014 21.4045Z" fill="#DEC685"/>
<path fill-rule="evenodd" clip-rule="evenodd" d="M11.6161 22.7182L11.8908 22.7268L11.9325 21.3689L12.3312 21.3812L12.3398 21.1236L11.2689 21.0892L11.2616 21.348L11.6578 21.3603L11.6161 22.7182ZM12.0037 22.847L11.4971 22.831L11.5388 21.4744L11.1426 21.4621L11.1573 20.9727L12.4612 21.0132L12.4453 21.5026L12.0466 21.4903L12.0037 22.847ZM14.8654 22.0607C14.8421 22.0668 14.8175 22.0705 14.7942 22.0717C14.6654 22.0717 14.6274 21.9503 14.6237 21.9368L14.4667 21.3394C14.4667 21.3382 14.4557 21.2928 14.468 21.2425C14.4839 21.1751 14.533 21.1309 14.6164 21.1088C14.6397 21.1027 14.6642 21.099 14.6888 21.099C14.8175 21.099 14.8556 21.2205 14.8593 21.234L15.0163 21.8313C15.0212 21.8595 15.0494 22.0116 14.8654 22.0607ZM15.2358 21.1309C15.199 20.9886 15.0408 20.7188 14.7121 20.7188C14.647 20.72 14.5833 20.7286 14.5207 20.7458C14.2251 20.8243 14.1233 21.0107 14.0889 21.1518C14.0521 21.3027 14.0865 21.4339 14.0877 21.4388L14.2447 22.0374C14.2815 22.1797 14.4397 22.4495 14.7685 22.4495C14.8286 22.4495 14.8924 22.441 14.9598 22.4226C15.5278 22.2705 15.3941 21.7344 15.3928 21.7295L15.2358 21.1309Z" fill="#DEC685"/>
<path fill-rule="evenodd" clip-rule="evenodd" d="M14.6875 21.1555C14.6678 21.1555 14.6494 21.1579 14.6298 21.1641C14.5489 21.1861 14.5305 21.2242 14.5231 21.2548C14.5145 21.2904 14.5219 21.3247 14.5219 21.3247L14.6789 21.9221C14.6838 21.9393 14.7194 22.0386 14.8506 22.0055C14.9708 21.9736 14.9696 21.8914 14.9586 21.8448L14.8028 21.2475C14.7991 21.2376 14.7746 21.1555 14.6875 21.1555ZM14.793 22.1294C14.6617 22.1294 14.5893 22.0337 14.566 21.9515L14.409 21.353C14.4078 21.3493 14.3943 21.2916 14.4103 21.2278C14.4323 21.1395 14.4961 21.0806 14.6004 21.0524C14.6286 21.0451 14.658 21.0402 14.6875 21.0402C14.8285 21.0402 14.896 21.1518 14.9144 21.218L15.0702 21.8154C15.0972 21.9246 15.0628 22.0681 14.88 22.1159C14.8518 22.1245 14.8224 22.1282 14.793 22.1294ZM14.712 20.7764C14.6568 20.7764 14.5967 20.785 14.5354 20.801C14.268 20.8733 14.176 21.0377 14.1453 21.1641C14.1122 21.3014 14.1428 21.4216 14.1428 21.4229L14.2999 22.0215C14.333 22.149 14.474 22.3907 14.7672 22.3907C14.8224 22.3907 14.8825 22.3821 14.9438 22.3649C15.4504 22.2288 15.3413 21.7614 15.3351 21.7418L15.1781 21.1444C15.1462 21.0181 15.0052 20.7764 14.712 20.7764ZM14.7672 22.5072C14.4041 22.5072 14.2299 22.2091 14.1882 22.0521L14.0312 21.4535C14.0067 21.3493 14.0079 21.2413 14.0325 21.1383C14.0705 20.9813 14.1821 20.7764 14.5059 20.6906C14.5771 20.671 14.647 20.6611 14.7132 20.6611C15.0775 20.6611 15.2517 20.9592 15.2922 21.1162L15.4492 21.7148C15.5007 21.9209 15.4688 22.3465 14.9745 22.479C14.9034 22.4974 14.8334 22.5072 14.7672 22.5072ZM17.3995 19.4873L17.8362 20.2085L17.0328 19.7142L16.72 19.908L17.6154 21.3861L17.9491 21.18L17.5124 20.4587L18.3158 20.9531L18.6286 20.7593L17.7332 19.28L17.3995 19.4873Z" fill="#DEC685"/>
<path fill-rule="evenodd" clip-rule="evenodd" d="M16.7997 19.9264L17.635 21.3063L17.8705 21.1616L17.3394 20.2846L18.3158 20.8856L18.5489 20.7409L17.7135 19.3609L17.478 19.5057L18.0091 20.3827L17.0328 19.7817L16.7997 19.9264ZM17.597 21.467L16.6415 19.8884L17.0328 19.6455L17.662 20.0331L17.3198 19.4676L17.7516 19.2002L18.7071 20.7789L18.3158 21.0218L17.6866 20.6342L18.0288 21.1996L17.597 21.467ZM19.432 17.7209C19.1965 17.9896 19.183 18.2999 19.3977 18.4925C19.4627 18.5514 19.551 18.5808 19.6577 18.5808C19.8049 18.5808 19.9717 18.5268 20.1189 18.4778C20.2367 18.4397 20.3471 18.4029 20.4194 18.4029C20.4366 18.4029 20.4611 18.4054 20.4734 18.4152C20.5544 18.4876 20.4452 18.6176 20.4415 18.6225L20.1349 18.9721L20.4096 19.2186L20.7163 18.8678C20.8451 18.7206 20.9113 18.555 20.9015 18.4017C20.8941 18.284 20.8402 18.1736 20.7506 18.0963C20.6856 18.0374 20.5985 18.008 20.4918 18.008C20.3446 18.008 20.1766 18.0632 20.0294 18.111C19.9116 18.1503 19.8 18.1858 19.7276 18.1858C19.7105 18.1858 19.6859 18.1834 19.6737 18.1723C19.5939 18.1 19.7043 17.9712 19.7092 17.965L20.0134 17.6167L19.7362 17.3689L19.432 17.7209Z" fill="#DEC685"/>
<path fill-rule="evenodd" clip-rule="evenodd" d="M20.2159 18.9696L20.4048 19.1389L20.6722 18.8322C20.7912 18.6961 20.8525 18.5464 20.8439 18.4078C20.8378 18.3048 20.7899 18.2091 20.7127 18.1416C20.6587 18.0926 20.5839 18.0681 20.4919 18.0681C20.3545 18.0681 20.1914 18.122 20.0479 18.1686C19.8651 18.2287 19.6983 18.2754 19.6345 18.2189C19.5462 18.1392 19.5916 18.0178 19.6639 17.9307L19.9326 17.624L19.7412 17.4535L19.475 17.7577C19.2628 18.0006 19.2457 18.2778 19.4346 18.4471C19.4898 18.4961 19.5633 18.5207 19.6566 18.5207C19.7939 18.5207 19.9559 18.4679 20.0981 18.4213C20.2809 18.3612 20.4465 18.3146 20.5103 18.371C20.5998 18.4508 20.552 18.5759 20.4845 18.6581L20.2159 18.9696ZM20.4158 19.3033L20.054 18.9794L20.3987 18.5857C20.4171 18.5636 20.4649 18.4912 20.4379 18.4618C20.4379 18.463 20.4318 18.4618 20.4207 18.4618C20.357 18.4618 20.2453 18.4974 20.1374 18.5329C19.9853 18.5832 19.8148 18.6384 19.659 18.6384C19.5376 18.6384 19.437 18.6041 19.3597 18.5354C19.1193 18.3195 19.1316 17.9773 19.3892 17.6829L19.7326 17.2904L20.0957 17.6154L19.7535 18.0067C19.7338 18.03 19.6848 18.1024 19.7105 18.1318C19.7118 18.1306 19.7179 18.1318 19.7277 18.1318C19.7927 18.1318 19.9031 18.095 20.0123 18.0595C20.1644 18.0092 20.3361 17.9527 20.4931 17.9527C20.6145 17.9527 20.7151 17.9871 20.7912 18.0558C20.8942 18.1478 20.9531 18.268 20.9604 18.4005C20.9702 18.5685 20.8991 18.7488 20.7605 18.9071L20.4158 19.3033Z" fill="#DEC685"/>
</g>
<defs>
<clipPath id="clip0">
<rect width="24" height="24" fill="white"/>
</clipPath>
</defs>
</svg>
