<svg width="24" height="24" viewBox="0 0 24 24" fill="none" xmlns="http://www.w3.org/2000/svg">
<path d="M24 12C24 18.6283 18.6283 24 12 24C5.37167 24 0 18.6283 0 12C0 5.37167 5.37167 0 12 0C18.6283 0 24 5.37167 24 12Z" fill="black"/>
<g opacity="0.95">
<path d="M22.6044 12.1031C22.6044 17.9022 17.9022 22.6044 12.103 22.6044C6.30386 22.6044 1.60168 17.9022 1.60168 12.1031C1.60168 6.30389 6.30386 1.60172 12.103 1.60172C17.9022 1.60172 22.6044 6.30389 22.6044 12.1031Z" fill="white"/>
</g>
<path d="M16.0759 9.07901L8.5359 16.7889L8.37109 13.6833L12.9188 9.07901L14.8038 7.12193L16.0244 6.72021L16.9102 6.95197L17.7394 7.6421L16.7402 8.7906L16.0759 9.07901Z" fill="white"/>
<path opacity="0.3" d="M16.7604 9.29474L15.2513 10.8501H17.538L17.7955 10.5874C17.9758 10.402 18.12 10.1754 18.2179 9.93335C18.3157 9.68615 18.3621 9.42349 18.3621 9.16083C18.3621 8.63552 18.1664 8.13596 17.8161 7.75485L16.7758 8.83638C16.8325 8.89818 16.8582 8.98573 16.8582 9.06813C16.8531 9.15053 16.817 9.23293 16.7604 9.29474Z" fill="black"/>
<path opacity="0.3" d="M10.5599 15.8403L9.32898 17.1176H11.6157L12.8569 15.8403H10.5599Z" fill="black"/>
<path opacity="0.3" d="M11.1782 15.1927H13.4649L14.8297 13.7762H12.543L11.1782 15.1927Z" fill="black"/>
<path opacity="0.3" d="M16.9148 11.6132H14.6281L13.1654 13.1222H15.4521L16.9148 11.6132Z" fill="black"/>
<path d="M17.6704 7.19487C17.4335 6.94765 17.1502 6.75194 16.8412 6.61804C16.5322 6.48413 16.1974 6.41718 15.8627 6.41718C15.5279 6.41718 15.1931 6.48413 14.8841 6.61804C14.5751 6.75194 14.2919 6.9528 14.0549 7.20001L8.13217 13.3185C8.07551 13.3855 8.03946 13.473 8.04461 13.5606V16.7126L6.41199 18.4173H7.30813L8.51844 17.1658H11.5468C11.588 17.1658 11.6292 17.1606 11.6704 17.14C11.7064 17.1246 11.7425 17.0937 11.7682 17.0628L17.655 10.9649L17.6653 10.9546C18.1442 10.455 18.412 9.7803 18.4069 9.07986C18.412 8.72964 18.3451 8.38458 18.2163 8.06526C18.0979 7.73049 17.9073 7.44208 17.6704 7.19487ZM14.2301 7.9056L14.4876 7.64294C14.8532 7.26697 15.3477 7.05581 15.8627 7.05581C16.3777 7.05581 16.8721 7.26697 17.2378 7.64294C17.2481 7.65324 17.2481 7.66354 17.2584 7.66354C17.6086 8.04466 17.8043 8.55454 17.8043 9.08501C17.7992 9.61549 17.5983 10.1202 17.2378 10.4962L16.9803 10.7588H14.6936L16.1923 9.20347C16.2489 9.14682 16.285 9.06441 16.285 8.98201C16.285 8.8996 16.2592 8.8172 16.2026 8.7554C16.1923 8.7451 16.1923 8.7451 16.1923 8.7348C16.1356 8.67299 16.0532 8.64209 15.9708 8.64209C15.8884 8.64209 15.806 8.67814 15.7494 8.7348L14.2301 10.3108V7.9056ZM9.14161 16.5117L10.3725 15.2344H12.6592L11.4283 16.5117H9.14161ZM12.7313 12.7881L14.194 11.2687H16.4807L15.018 12.7881H12.7313ZM14.5185 13.3031L13.1537 14.7194H10.8669L12.2318 13.3031H14.5185ZM12.2678 9.93481L13.7305 8.41548V10.8207L12.2678 12.34V9.93481ZM10.4034 11.8662L11.7682 10.4498V12.855L10.4034 14.2713V11.8662ZM8.66264 13.6739L9.91415 12.3863V14.7915L8.66264 16.0791" fill="black"/>
</svg>
