<svg width="24" height="24" viewBox="0 0 24 24" fill="none" xmlns="http://www.w3.org/2000/svg">
<g clip-path="url(#clip0)">
<path fill-rule="evenodd" clip-rule="evenodd" d="M23.9623 6.36319L23.9018 5.52846L23.6796 6.18813L22.3333 7.37288L20.7885 7.5853L20.3676 7.19117L21.6602 5.3534L23.3767 4.82162L21.5524 4.93606L19.3844 6.47087L17.3789 6.32279L14.5112 4.82162L12.871 5.17695L7.58405 9.54555L5.10648 10.4026L4.03836 11.4899H2.19587L1.22603 13.2496L0.00720215 13.5297L1.22603 13.8097L2.34007 12.2632L4.03836 12.6149V14.2742L3.23473 16.4857L2.70772 18.7663L2.16094 19.643L3.53515 19.3574L3.37262 18.4215L4.59602 15.9702L6.74668 15.1559L7.63826 13.7126L9.0962 12.6191L12.0466 13.1461L14.8484 11.8226L14.4418 13.7997L13.1351 13.9149L12.7776 15.6328L13.9229 14.8449L15.7331 14.0264L17.1858 11.8226L17.255 10.7252L18.025 11.5061L20.3004 12.9244L21.6534 12.3274L21.4986 9.31837L21.1811 8.23097L20.4013 8.47017L22.7709 7.74317L23.9623 6.36319Z" fill="#4B5897"/>
<path fill-rule="evenodd" clip-rule="evenodd" d="M1.22603 13.2496V13.8097L0.00720215 13.5297L1.22603 13.2496Z" fill="#313A62"/>
<path fill-rule="evenodd" clip-rule="evenodd" d="M2.19591 11.49L2.34011 12.2632L1.22607 13.8097V13.2496L2.19591 11.49Z" fill="#4B5897"/>
<path fill-rule="evenodd" clip-rule="evenodd" d="M4.03841 12.6149L2.19592 11.49L2.34012 12.2632L4.03841 12.6149Z" fill="#3F4B80"/>
<path fill-rule="evenodd" clip-rule="evenodd" d="M4.03841 11.49V12.6149L2.19592 11.49H4.03841Z" fill="#313A62"/>
<path fill-rule="evenodd" clip-rule="evenodd" d="M4.03833 14.2742V11.49L5.6679 13.9343L4.03833 14.2742Z" fill="#3F4B80"/>
<path fill-rule="evenodd" clip-rule="evenodd" d="M3.23474 16.4857L5.66793 13.9343L4.03837 14.2742L3.23474 16.4857Z" fill="#313A62"/>
<path fill-rule="evenodd" clip-rule="evenodd" d="M2.70776 18.7663L3.37266 18.4215L3.23477 16.4857L2.70776 18.7663Z" fill="#1F243E"/>
<path fill-rule="evenodd" clip-rule="evenodd" d="M2.16089 19.643L3.37257 18.4215L2.70767 18.7663L2.16089 19.643Z" fill="#313A62"/>
<path fill-rule="evenodd" clip-rule="evenodd" d="M3.5351 19.3574L3.37257 18.4215L2.16089 19.643L3.5351 19.3574Z" fill="#3F4B80"/>
<path fill-rule="evenodd" clip-rule="evenodd" d="M4.59608 15.9702L3.37263 18.4215L3.23474 16.4857L4.59608 15.9702Z" fill="#3F4B80"/>
<path fill-rule="evenodd" clip-rule="evenodd" d="M6.74669 15.1559L5.66793 13.9343L3.23474 16.4857L6.74669 15.1559Z" fill="#4B5897"/>
<path fill-rule="evenodd" clip-rule="evenodd" d="M7.6383 13.7126L6.74673 15.1559L5.66797 13.9343L7.6383 13.7126Z" fill="#313A62"/>
<path fill-rule="evenodd" clip-rule="evenodd" d="M5.10645 10.4026L5.6679 13.9343L4.03833 11.4899L5.10645 10.4026Z" fill="#3F4B80"/>
<path fill-rule="evenodd" clip-rule="evenodd" d="M7.58401 9.54556L5.66789 13.9343L5.10645 10.4026L7.58401 9.54556Z" fill="#4B5897"/>
<path fill-rule="evenodd" clip-rule="evenodd" d="M7.6383 13.7126L5.66797 13.9343L7.58409 9.54556L7.6383 13.7126Z" fill="#3F4B80"/>
<path fill-rule="evenodd" clip-rule="evenodd" d="M9.09626 12.6191L7.63832 13.7126L7.58411 9.54556L9.09626 12.6191Z" fill="#313A62"/>
<path fill-rule="evenodd" clip-rule="evenodd" d="M12.0466 13.1461L9.09619 12.6191L12.0466 12.1685V13.1461Z" fill="#3F4B80"/>
<path fill-rule="evenodd" clip-rule="evenodd" d="M7.58411 9.54556L12.0467 12.1685L9.09626 12.6191L7.58411 9.54556Z" fill="#4B5897"/>
<path fill-rule="evenodd" clip-rule="evenodd" d="M12.49 8.85577L12.0367 12.1832L7.57422 9.56037L12.49 8.85577Z" fill="#3F4B80"/>
<path fill-rule="evenodd" clip-rule="evenodd" d="M12.871 5.17694L12.4999 8.84099L7.58411 9.54554L12.871 5.17694Z" fill="#4B5897"/>
<path fill-rule="evenodd" clip-rule="evenodd" d="M14.8484 11.8226L12.0466 13.1461L12.0367 12.1832L14.8484 11.8226Z" fill="#313A62"/>
<path fill-rule="evenodd" clip-rule="evenodd" d="M17.255 10.7252L14.8484 11.8226L12.0367 12.1832L17.255 10.7252Z" fill="#3F4B80"/>
<path fill-rule="evenodd" clip-rule="evenodd" d="M17.1858 11.8226L17.255 10.7252L14.8484 11.8226H17.1858Z" fill="#5161A4"/>
<path fill-rule="evenodd" clip-rule="evenodd" d="M15.7331 14.0264L14.8484 11.8226H17.1858L15.7331 14.0264Z" fill="#4B5897"/>
<path fill-rule="evenodd" clip-rule="evenodd" d="M14.4418 13.7997L15.7331 14.0264L14.8484 11.8226L14.4418 13.7997Z" fill="#3F4B80"/>
<path fill-rule="evenodd" clip-rule="evenodd" d="M13.9229 14.8449L14.4418 13.7997L15.7331 14.0264L13.9229 14.8449Z" fill="#4B5897"/>
<path fill-rule="evenodd" clip-rule="evenodd" d="M12.7776 15.6328L14.4417 13.7997L13.9228 14.8449L12.7776 15.6328Z" fill="#313A62"/>
<path fill-rule="evenodd" clip-rule="evenodd" d="M13.135 13.9149L12.7776 15.6328L14.4417 13.7997L13.135 13.9149Z" fill="#3F4B80"/>
<path fill-rule="evenodd" clip-rule="evenodd" d="M17.255 10.7252L12.4999 8.841L12.0367 12.1832L17.255 10.7252Z" fill="#4B5897"/>
<path fill-rule="evenodd" clip-rule="evenodd" d="M12.871 5.17694L12.4999 8.84099L17.255 10.7252L12.871 5.17694Z" fill="#5161A4"/>
<path fill-rule="evenodd" clip-rule="evenodd" d="M14.5112 4.82162L12.871 5.17695L17.255 10.7252L14.5112 4.82162Z" fill="#4B5897"/>
<path fill-rule="evenodd" clip-rule="evenodd" d="M17.7086 8.69233L17.255 10.7252L14.5111 4.82162L17.7086 8.69233Z" fill="#3F4B80"/>
<path fill-rule="evenodd" clip-rule="evenodd" d="M17.3788 6.32279L17.7086 8.69233L14.5111 4.82162L17.3788 6.32279Z" fill="#313A62"/>
<path fill-rule="evenodd" clip-rule="evenodd" d="M18.025 11.5061L17.7087 8.69232L17.255 10.7252L18.025 11.5061Z" fill="#313A62"/>
<path fill-rule="evenodd" clip-rule="evenodd" d="M20.4014 8.47016L17.7087 8.69232L17.3789 6.32278L20.4014 8.47016Z" fill="#4B5897"/>
<path fill-rule="evenodd" clip-rule="evenodd" d="M18.025 11.5062L20.4013 8.47018L17.7086 8.69235L18.025 11.5062Z" fill="#3F4B80"/>
<path fill-rule="evenodd" clip-rule="evenodd" d="M20.3004 12.9244L20.4013 8.47018L18.025 11.5062L20.3004 12.9244Z" fill="#495692"/>
<path fill-rule="evenodd" clip-rule="evenodd" d="M20.3677 7.19116L19.4206 7.77342L17.3789 6.32278L20.3677 7.19116Z" fill="#3F4B80"/>
<path fill-rule="evenodd" clip-rule="evenodd" d="M19.3845 6.47086L20.3677 7.19116L17.3789 6.32278L19.3845 6.47086Z" fill="#313A62"/>
<path fill-rule="evenodd" clip-rule="evenodd" d="M21.6601 5.35339L20.3676 7.19116L19.3844 6.47086L21.6601 5.35339Z" fill="#3F4B80"/>
<path fill-rule="evenodd" clip-rule="evenodd" d="M21.5523 4.93607L21.6601 5.35341L19.3844 6.47087L21.5523 4.93607Z" fill="#495692"/>
<path fill-rule="evenodd" clip-rule="evenodd" d="M23.3767 4.82162L21.6601 5.3534L21.5524 4.93606L23.3767 4.82162Z" fill="#5D6CAC"/>
<path fill-rule="evenodd" clip-rule="evenodd" d="M20.7918 7.58833L20.3677 7.19116L19.4207 7.77342L20.7918 7.58833Z" fill="#313A62"/>
<path fill-rule="evenodd" clip-rule="evenodd" d="M22.7709 7.74316L20.4014 8.47017L19.4207 7.77342L22.7709 7.74316Z" fill="#4F60A3"/>
<path fill-rule="evenodd" clip-rule="evenodd" d="M22.3333 7.37289L22.7709 7.81663L19.4207 7.85289L22.3333 7.37289Z" fill="#495692"/>
<path fill-rule="evenodd" clip-rule="evenodd" d="M23.6796 6.18814L22.7708 7.74317L22.3333 7.37289L23.6796 6.18814Z" fill="#3F4B80"/>
<path fill-rule="evenodd" clip-rule="evenodd" d="M23.9623 6.3632L23.6796 6.18814L22.7709 7.74317L23.9623 6.3632Z" fill="#4F60A3"/>
<path fill-rule="evenodd" clip-rule="evenodd" d="M24.0569 5.52847L23.6797 6.18815L24.1597 6.36321L24.0569 5.52847Z" fill="#313A62"/>
<path fill-rule="evenodd" clip-rule="evenodd" d="M21.4986 9.31836L20.4014 8.47016L21.1811 8.23096L21.4986 9.31836Z" fill="#313A62"/>
<path fill-rule="evenodd" clip-rule="evenodd" d="M20.3004 12.9244L21.4986 9.31838L20.4014 8.47018L20.3004 12.9244Z" fill="#3F4B80"/>
<path fill-rule="evenodd" clip-rule="evenodd" d="M21.6534 12.3274L20.3004 12.9244L21.4986 9.31836L21.6534 12.3274Z" fill="#313A62"/>
</g>
<defs>
<clipPath id="clip0">
<rect width="24" height="24" fill="white"/>
</clipPath>
</defs>
</svg>
