<svg width="24" height="24" viewBox="0 0 24 24" fill="none" xmlns="http://www.w3.org/2000/svg">
<path d="M12 24C18.6274 24 24 18.6274 24 12C24 5.37258 18.6274 0 12 0C5.37258 0 0 5.37258 0 12C0 18.6274 5.37258 24 12 24Z" fill="#105B2F"/>
<path d="M7.38297 8.15821C7.62513 6.86425 7.88697 5.57437 8.13897 4.28221C9.43289 4.27461 10.727 4.2713 12.0212 4.27237C13.2117 4.26973 14.4036 4.26481 15.591 4.35793C16.2919 4.41325 16.9933 4.49257 17.6768 4.66021C18.3848 4.82917 19.056 5.20549 19.5241 5.76817C19.9485 6.28417 20.1492 6.94801 20.2058 7.60525C20.2553 7.95973 20.2677 8.32177 20.2134 8.67625C20.1326 9.73969 19.7814 10.792 19.1437 11.6522C18.6193 12.3706 17.8867 12.9176 17.0864 13.2953C16.2041 13.7095 15.2396 13.9222 14.2724 14.0096C13.5393 14.0778 12.8019 14.06 12.0667 14.0622C11.0313 14.0604 9.99645 14.0648 8.96157 14.0555C8.58609 15.9238 8.24277 17.7986 7.88337 19.6705C6.97937 19.6656 6.07513 19.6613 5.17065 19.6576C5.78109 16.4428 6.41865 13.2329 7.05537 10.023C6.51813 10.0207 5.98077 10.0253 5.44353 10.0243C5.56749 9.40585 5.67897 8.78473 5.79489 8.16505C6.32421 8.16013 6.85389 8.16505 7.38309 8.15797L7.38297 8.15821ZM10.3477 6.93601C10.2732 7.34401 10.1894 7.75021 10.1118 8.15773C11.399 8.16001 12.6867 8.15773 13.9745 8.16037C13.8554 8.78017 13.7359 9.39949 13.6257 10.0204C12.3331 10.0253 11.0405 10.0217 9.74793 10.0222C9.66189 10.4975 9.55353 10.9687 9.48045 11.4458C10.9805 11.4458 12.4817 11.4481 13.9825 11.4458C14.8007 11.4338 15.6648 11.2706 16.3122 10.7378C16.8665 10.2794 17.3261 9.63649 17.3756 8.89945C17.3907 8.58157 17.3636 8.25337 17.2436 7.95601C17.0675 7.52533 16.6563 7.22293 16.2116 7.11601C15.5102 6.95233 14.7861 6.95101 14.0705 6.92869C12.8291 6.93433 11.5881 6.92089 10.3477 6.93601Z" fill="#FEFEFE"/>
</svg>
