<svg width="24" height="24" viewBox="0 0 24 24" fill="none" xmlns="http://www.w3.org/2000/svg">
<path fill-rule="evenodd" clip-rule="evenodd" d="M0.59205 12.0316L11.9682 23.4077L23.3444 12.0316L11.9682 0.655318L0.59205 12.0316ZM11.9682 23.973C11.9083 23.973 11.8483 23.9502 11.8026 23.9044L0.095309 12.1971C0.00387486 12.1057 0.00387486 11.9573 0.095309 11.866L11.8026 0.158694C11.8941 0.0672599 12.0424 0.0672599 12.1337 0.158694L23.841 11.866C23.9326 11.9573 23.9326 12.1057 23.841 12.1971L12.1337 23.9044C12.088 23.9502 12.0281 23.973 11.9682 23.973Z" fill="#00C0AC"/>
<path fill-rule="evenodd" clip-rule="evenodd" d="M1.33409 11.7974H8.31118L10.8122 7.45459L1.33409 11.7974ZM8.44652 12.2657H0.260876C0.150827 12.2657 0.0556468 12.189 0.0321151 12.0814C0.00870046 11.974 0.0633736 11.8645 0.163354 11.8187L11.2832 6.7237C11.3757 6.68144 11.4853 6.70356 11.5539 6.77896C11.6225 6.85412 11.6345 6.96522 11.5836 7.0535L8.6494 12.1484C8.60761 12.221 8.53034 12.2657 8.44652 12.2657Z" fill="#00C0AC"/>
<path fill-rule="evenodd" clip-rule="evenodd" d="M15.5945 12.2657L13.0935 16.6084L22.5716 12.2657H15.5945ZM12.525 17.3606C12.4606 17.3606 12.3973 17.334 12.3518 17.2841C12.2832 17.2089 12.2712 17.0978 12.3221 17.0096L15.2563 11.9147C15.2981 11.8421 15.3754 11.7974 15.4592 11.7974H23.6447C23.7549 11.7974 23.8501 11.874 23.8735 11.9816C23.897 12.0891 23.8423 12.1986 23.7422 12.2444L12.6225 17.3393C12.5912 17.3537 12.558 17.3606 12.525 17.3606Z" fill="#00C0AC"/>
<path fill-rule="evenodd" clip-rule="evenodd" d="M2.10394 6.36471L6.30136 21.8958L21.8325 17.6984L17.6351 2.16717L2.10394 6.36471ZM6.13629 22.4171C6.03315 22.4171 5.93855 22.3484 5.91046 22.244L1.59081 6.26087C1.55709 6.13607 1.63085 6.0074 1.75565 5.97369L17.7389 1.65404C17.7989 1.63777 17.8627 1.64589 17.9167 1.67698C17.9705 1.70801 18.0099 1.75905 18.026 1.81899L22.3457 17.8022C22.3795 17.9271 22.3056 18.0555 22.1808 18.0892L6.19752 22.409C6.17715 22.4145 6.15654 22.4171 6.13629 22.4171Z" fill="#00C0AC"/>
<path fill-rule="evenodd" clip-rule="evenodd" d="M4.5324 7.99412C4.49283 7.99412 4.45279 7.98406 4.41603 7.96287L1.70028 6.40275C1.58812 6.33836 1.54937 6.1953 1.61376 6.08314C1.67827 5.97098 1.82133 5.93247 1.93349 5.99662L4.64924 7.55686C4.76139 7.62125 4.80014 7.76443 4.73564 7.87647C4.69232 7.95198 4.61353 7.99412 4.5324 7.99412Z" fill="#00C0AC"/>
<path fill-rule="evenodd" clip-rule="evenodd" d="M22.0927 18.0821C22.0531 18.0821 22.0131 18.072 21.9763 18.0509L19.2829 16.5037C19.1708 16.4392 19.132 16.296 19.1964 16.184C19.2609 16.0718 19.4039 16.0332 19.5161 16.0976L22.2095 17.6449C22.3217 17.7092 22.3603 17.8524 22.2959 17.9645C22.2526 18.0399 22.1738 18.0821 22.0927 18.0821Z" fill="#00C0AC"/>
<path fill-rule="evenodd" clip-rule="evenodd" d="M19.3694 7.98018C19.2885 7.98018 19.2097 7.93815 19.1664 7.86299C19.1018 7.75095 19.1402 7.60777 19.2522 7.54315L21.965 5.97788C22.0769 5.91325 22.2202 5.95165 22.2849 6.06369C22.3495 6.17573 22.311 6.31891 22.1991 6.38354L19.4862 7.94869C19.4494 7.97 19.4091 7.98018 19.3694 7.98018Z" fill="#00C0AC"/>
<path fill-rule="evenodd" clip-rule="evenodd" d="M1.82801 18.1012C1.74711 18.1012 1.66832 18.0591 1.625 17.984C1.56038 17.8719 1.59878 17.7288 1.71082 17.6641L4.40128 16.1117C4.51332 16.047 4.6565 16.0854 4.72112 16.1974C4.78575 16.3095 4.74735 16.4527 4.63531 16.5174L1.94485 18.0697C1.90797 18.091 1.8677 18.1012 1.82801 18.1012Z" fill="#00C0AC"/>
<path fill-rule="evenodd" clip-rule="evenodd" d="M11.9757 3.69807H11.9752C11.8445 3.69784 11.7389 3.59282 11.7391 3.46346L11.746 0.3314C11.7462 0.202386 11.8521 0.0978394 11.9826 0.0978394H11.983C12.1137 0.0980735 12.2194 0.203088 12.2191 0.332454L12.2123 3.46451C12.212 3.59353 12.1062 3.69807 11.9757 3.69807Z" fill="#00C0AC"/>
<path fill-rule="evenodd" clip-rule="evenodd" d="M11.9322 23.9498H11.9317C11.801 23.9496 11.6953 23.8446 11.6956 23.7152L11.7023 20.6089C11.7027 20.4796 11.8085 20.3752 11.9389 20.3752H11.9395C12.0701 20.3756 12.1759 20.4806 12.1756 20.6099L12.1688 23.7162C12.1686 23.8453 12.0627 23.9498 11.9322 23.9498Z" fill="#00C0AC"/>
<path fill-rule="evenodd" clip-rule="evenodd" d="M2.12834 17.7406L17.6774 21.8714L21.8082 6.32243L6.25915 2.19162L2.12834 17.7406ZM17.8438 22.392C17.8238 22.392 17.8036 22.3894 17.7835 22.3842L1.7818 18.1331C1.72174 18.1172 1.67058 18.078 1.63944 18.0244C1.6083 17.9706 1.59964 17.9067 1.61568 17.8466L5.86672 1.84509C5.89997 1.71994 6.02816 1.64606 6.15308 1.67896L22.1548 5.92989C22.2148 5.94593 22.266 5.98503 22.2971 6.03877C22.3284 6.0925 22.3369 6.15642 22.321 6.21637L18.0698 22.2179C18.042 22.3228 17.9473 22.392 17.8438 22.392Z" fill="#00C0AC"/>
<path fill-rule="evenodd" clip-rule="evenodd" d="M6.83403 2.71588L10.3355 8.75077L15.3468 8.73461L6.83403 2.71588ZM10.2008 9.21953C10.1173 9.21953 10.0402 9.17516 9.99828 9.10293L5.89042 2.02269C5.83516 1.92751 5.85366 1.80657 5.93491 1.73247C6.01627 1.65813 6.13815 1.65052 6.22818 1.71397L16.2155 8.77524C16.2986 8.83413 16.3342 8.93984 16.3035 9.03701C16.2728 9.13407 16.1828 9.20033 16.0809 9.20068L10.2016 9.21953H10.2008Z" fill="#00C0AC"/>
<path fill-rule="evenodd" clip-rule="evenodd" d="M8.57418 15.3016L17.0869 21.3205L13.5855 15.2856L8.57418 15.3016ZM17.828 22.3653C17.7809 22.3653 17.7336 22.3512 17.6929 22.3224L7.70562 15.261C7.62238 15.2022 7.58679 15.0964 7.61746 14.9993C7.64813 14.9021 7.73816 14.836 7.84002 14.8358L13.7194 14.8168H13.7201C13.8036 14.8168 13.8808 14.8612 13.9227 14.9334L18.0305 22.0136C18.0858 22.1089 18.0673 22.2298 17.986 22.304C17.9416 22.3446 17.8849 22.3653 17.828 22.3653Z" fill="#00C0AC"/>
<path fill-rule="evenodd" clip-rule="evenodd" d="M2.14844 6.28811L6.22481 21.8515L21.7882 17.775L17.7118 2.21162L2.14844 6.28811ZM6.05774 22.3714C6.01653 22.3714 5.97568 22.3605 5.9395 22.3393C5.88588 22.3081 5.8469 22.2567 5.83121 22.1966L1.63612 6.18017C1.60334 6.05513 1.67815 5.92717 1.8033 5.89439L17.8196 1.69931C17.9445 1.66676 18.0727 1.74134 18.1054 1.86637L22.3005 17.8828C22.3333 18.0078 22.2584 18.1358 22.1334 18.1686L6.11698 22.3637C6.09743 22.3688 6.07753 22.3714 6.05774 22.3714Z" fill="#00C0AC"/>
<path fill-rule="evenodd" clip-rule="evenodd" d="M14.0168 8.99292L16.5027 13.3443L17.5393 2.97044L14.0168 8.99292ZM16.6627 14.3308C16.58 14.3308 16.5018 14.2867 16.4595 14.2127L13.543 9.10765C13.5015 9.03495 13.502 8.94574 13.5441 8.87339L17.6768 1.80755C17.7324 1.71249 17.8469 1.66917 17.9514 1.70313C18.056 1.73708 18.1229 1.83952 18.1119 1.9491L16.8958 14.1199C16.8856 14.2212 16.8112 14.3044 16.7116 14.3256C16.6953 14.3291 16.6789 14.3308 16.6627 14.3308Z" fill="#00C0AC"/>
<path fill-rule="evenodd" clip-rule="evenodd" d="M7.44956 10.692L6.41299 21.0659L9.93549 15.0434L7.44956 10.692ZM6.07336 22.3447C6.04924 22.3447 6.02478 22.3409 6.00089 22.3332C5.89623 22.2993 5.82938 22.1968 5.84027 22.0872L7.05643 9.91644C7.06661 9.81517 7.14107 9.73193 7.2407 9.71074C7.34033 9.6892 7.44218 9.73509 7.49276 9.8236L10.4093 14.9287C10.4507 15.0014 10.4503 15.0906 10.4081 15.163L6.27543 22.2288C6.23246 22.3021 6.15473 22.3447 6.07336 22.3447Z" fill="#00C0AC"/>
</svg>
