<svg width="24" height="24" viewBox="0 0 24 24" fill="none" xmlns="http://www.w3.org/2000/svg">
<path d="M11.9071 23.8141C18.4831 23.8141 23.8141 18.4831 23.8141 11.9071C23.8141 5.33097 18.4831 0 11.9071 0C5.33097 0 0 5.33097 0 11.9071C0 18.4831 5.33097 23.8141 11.9071 23.8141Z" fill="#3CB054"/>
<path d="M6.9635 5.58948C15.8101 5.90649 19.2216 11.0501 17.509 15.6406C17.0237 16.9179 16.5082 17.617 15.4239 18.3454C15.4681 18.1613 15.5136 17.9763 15.5479 17.7879C16.1894 14.2066 14.9739 9.89744 9.02875 7.51699C13.7588 10.2442 15.6676 15.0963 13.4618 18.2284C9.70745 18.8001 6.9635 15.694 6.9635 12.1154V5.58948Z" fill="white"/>
</svg>
