<svg width="24" height="24" viewBox="0 0 24 24" fill="none" xmlns="http://www.w3.org/2000/svg">
<path d="M12 24C18.6274 24 24 18.6274 24 12C24 5.37258 18.6274 0 12 0C5.37258 0 0 5.37258 0 12C0 18.6274 5.37258 24 12 24Z" fill="#152743"/>
<path d="M12.0367 6.237C11.0497 6.237 10.2495 5.68725 10.2495 5.0085C10.2495 4.32975 11.0497 3.78 12.0367 3.78C13.0237 3.78 13.8232 4.32975 13.8232 5.0085C13.8232 5.68725 13.0237 6.237 12.0367 6.237ZM11.112 19.95V6.828H15.096C15.2437 6.828 15.348 6.93825 15.348 7.086V14.367C15.348 14.514 15.243 14.64 15.096 14.64H12.9V19.95C12.9 20.0977 12.7875 20.232 12.6397 20.232H11.3887C11.3155 20.2292 11.246 20.1985 11.1946 20.1462C11.1432 20.094 11.1136 20.024 11.112 19.9507V19.95ZM10.44 14.6392H8.93248C8.85959 14.6385 8.78979 14.6098 8.73755 14.5589C8.68532 14.5081 8.65467 14.4391 8.65198 14.3662V7.086C8.65198 6.93825 8.78473 6.828 8.93173 6.828H10.44V14.64V14.6392Z" fill="white"/>
</svg>
