<svg width="24" height="24" viewBox="0 0 24 24" fill="none" xmlns="http://www.w3.org/2000/svg">
<path d="M12 0C18.624 0 24 5.376 24 12C24 18.624 18.624 24 12 24C5.376 24 0 18.624 0 12C0 5.376 5.376 0 12 0Z" fill="#071630"/>
<path opacity="0.9" d="M19.728 17.328C19.728 17.664 19.44 17.904 19.008 17.904C18.624 17.904 18.336 17.664 18.336 17.328V8.54399C18.336 8.49599 18.336 8.49599 18.288 8.49599C18.24 8.49599 18.24 8.49599 18.192 8.49599L12.672 15.552C12.432 15.792 12 15.888 11.712 15.696C11.616 15.648 11.568 15.6 11.52 15.552L5.99999 8.49599C5.95199 8.49599 5.95199 8.49599 5.90399 8.49599L5.85599 8.54399V17.376C5.85599 17.712 5.51999 17.952 5.13599 17.952C4.75199 17.952 4.46399 17.712 4.46399 17.376V6.81599C4.46399 6.62399 4.60799 6.43199 4.75199 6.33599C5.08799 6.14399 5.47199 6.23999 5.71199 6.47999L11.808 14.208C11.952 14.352 12.144 14.352 12.288 14.256C12.288 14.256 12.336 14.256 12.336 14.208L18.432 6.47999C18.576 6.28799 18.816 6.19199 19.056 6.19199C19.44 6.19199 19.776 6.43199 19.776 6.76799L19.728 17.328Z" fill="url(#paint0_linear)"/>
<path d="M19.728 17.328C19.728 17.616 19.44 17.904 19.008 17.904C18.768 17.904 18.528 17.808 18.384 17.616L12.336 9.88799C12.192 9.74399 12 9.74399 11.856 9.83999C11.856 9.83999 11.808 9.88799 11.76 9.98399L5.75996 17.664C5.51996 17.952 5.13596 18 4.79996 17.808C4.60796 17.712 4.51196 17.52 4.51196 17.328V6.81599C4.51196 6.47999 4.79996 6.23999 5.18396 6.23999C5.56796 6.23999 5.90396 6.47999 5.90396 6.81599V15.648C5.90396 15.696 5.90396 15.696 5.95196 15.696C5.99996 15.696 5.99996 15.696 6.04796 15.696L11.424 8.83199C11.472 8.73599 11.664 8.54399 11.76 8.49599C12.096 8.30399 12.48 8.35199 12.72 8.63999L18.192 15.696C18.192 15.696 18.24 15.696 18.288 15.696C18.336 15.696 18.336 15.648 18.336 15.648V6.81599C18.336 6.47999 18.624 6.23999 19.008 6.23999C19.392 6.23999 19.728 6.47999 19.728 6.81599V17.328Z" fill="url(#paint1_linear)"/>
<defs>
<linearGradient id="paint0_linear" x1="12.12" y1="17.9137" x2="12.12" y2="6.24455" gradientUnits="userSpaceOnUse">
<stop stop-color="#3F5CAA"/>
<stop offset="0.2" stop-color="#3F5FAC"/>
<stop offset="0.33" stop-color="#4168B2"/>
<stop offset="0.46" stop-color="#4378BD"/>
<stop offset="0.57" stop-color="#468ECC"/>
<stop offset="0.64" stop-color="#48A0D9"/>
<stop offset="0.8" stop-color="#3ABBEC"/>
<stop offset="0.9" stop-color="#35C6F4"/>
</linearGradient>
<linearGradient id="paint1_linear" x1="12.12" y1="17.9232" x2="12.12" y2="6.23999" gradientUnits="userSpaceOnUse">
<stop stop-color="#4068B1"/>
<stop offset="0.13" stop-color="#3D7FC1"/>
<stop offset="0.39" stop-color="#39A5DD"/>
<stop offset="0.59" stop-color="#36BDEE"/>
<stop offset="0.72" stop-color="#35C6F4"/>
</linearGradient>
</defs>
</svg>
