<svg width="24" height="24" viewBox="0 0 24 24" fill="none" xmlns="http://www.w3.org/2000/svg">
<path fill-rule="evenodd" clip-rule="evenodd" d="M4.36869 2.72748C-0.724112 6.91743 -1.47137 14.4124 2.6924 19.5266C5.9891 23.5758 11.3855 24.9081 16.034 23.2323C17.0751 22.857 17.2198 21.4446 16.2741 20.8697L9.39664 16.6887C8.80479 16.329 8.12636 16.1216 7.43453 16.089L5.36618 15.9905L5.32851 15.9854C4.55281 15.8783 3.85717 15.4896 3.36965 14.8909C2.31067 13.5902 2.50737 11.6704 3.80808 10.6114C4.79426 9.80848 5.79048 9.65225 6.66943 9.51441C7.55462 9.37557 8.31918 9.25567 9.18852 8.54789C10.0578 7.84012 10.3302 7.11577 10.6456 6.27713C10.9588 5.44437 11.3137 4.50059 12.3 3.69763C13.6007 2.63864 15.5204 2.83535 16.5794 4.13597C17.067 4.73479 17.3065 5.49482 17.2541 6.27613L17.2515 6.31408L16.9287 8.35897C16.8202 9.04347 16.8856 9.74988 17.1179 10.4023L19.8177 17.9849C20.187 19.0222 21.5969 19.177 22.1735 18.239C24.7637 14.0255 24.5556 8.4652 21.2562 4.41265C17.0694 -0.729875 9.49581 -1.49081 4.36869 2.72748Z" fill="#2891A5"/>
<path fill-rule="evenodd" clip-rule="evenodd" d="M18.6718 20.196C18.1194 20.6457 18.0361 21.4582 18.4859 22.0106C18.9357 22.5631 19.7482 22.6463 20.3006 22.1966C20.8531 21.7468 20.9363 20.9342 20.4865 20.3818C20.0367 19.8293 19.2243 19.7461 18.6718 20.196ZM15.2517 8.0937C15.0991 9.05741 15.1914 10.0526 15.5186 10.9718L17.3766 16.1904C17.6589 16.9837 17.302 17.6388 16.8738 17.9875C16.4456 18.3361 15.7317 18.5528 15.012 18.1156L10.2786 15.238C9.44485 14.7312 8.48902 14.439 7.5148 14.3931L5.52751 14.2985C5.19667 14.2447 4.89156 14.0711 4.68624 13.8189C4.21838 13.2442 4.30523 12.396 4.87996 11.928C5.51048 11.4147 6.13802 11.3162 6.93246 11.1917C7.91818 11.037 9.0354 10.8619 10.2604 9.86445C10.7581 9.45926 11.1192 9.04401 11.3963 8.63112C11.8011 8.02768 12.0263 7.42922 12.2347 6.87477C12.4117 6.40437 12.5654 5.99574 12.8097 5.63003C12.9563 5.41068 13.1355 5.20673 13.372 5.01418C13.9467 4.54632 14.795 4.63317 15.2629 5.20791C15.4682 5.46004 15.5763 5.79405 15.562 6.12887L15.2517 8.0937Z" fill="#3C4D60"/>
</svg>
