<svg width="24" height="24" viewBox="0 0 24 24" fill="none" xmlns="http://www.w3.org/2000/svg">
<path d="M12 24C18.6274 24 24 18.6274 24 12C24 5.37258 18.6274 0 12 0C5.37258 0 0 5.37258 0 12C0 18.6274 5.37258 24 12 24Z" fill="#9D4BEF"/>
<path d="M8.60248 5.74576C9.35994 5.74576 10.0864 6.04666 10.622 6.58226C11.1576 7.11787 11.4585 7.8443 11.4585 8.60176C11.4585 9.35922 11.1576 10.0857 10.622 10.6213C10.0864 11.1569 9.35994 11.4578 8.60248 11.4578C7.84502 11.4578 7.11859 11.1569 6.58298 10.6213C6.04738 10.0857 5.74648 9.35922 5.74648 8.60176C5.74648 7.8443 6.04738 7.11787 6.58298 6.58226C7.11859 6.04666 7.84502 5.74576 8.60248 5.74576ZM11.4577 15.3983C11.4577 15.9631 11.2902 16.5153 10.9764 16.985C10.6626 17.4546 10.2165 17.8207 9.69467 18.0369C9.17281 18.253 8.59856 18.3096 8.04455 18.1994C7.49054 18.0892 6.98165 17.8172 6.58223 17.4178C6.18281 17.0183 5.91081 16.5094 5.80061 15.9554C5.69041 15.4014 5.74697 14.8272 5.96313 14.3053C6.17929 13.7834 6.54535 13.3374 7.01502 13.0236C7.48469 12.7098 8.03687 12.5423 8.60173 12.5423C9.64662 12.5423 10.6487 12.1272 11.3876 11.3883C12.1264 10.6495 12.5415 9.6474 12.5415 8.60251C12.5415 8.03765 12.709 7.48547 13.0228 7.0158C13.3366 6.54613 13.7827 6.18007 14.3045 5.96391C14.8264 5.74774 15.4006 5.69119 15.9547 5.80139C16.5087 5.91159 17.0176 6.18359 17.417 6.58301C17.8164 6.98243 18.0884 7.49132 18.1986 8.04533C18.3088 8.59934 18.2522 9.17359 18.0361 9.69545C17.8199 10.2173 17.4539 10.6634 16.9842 10.9772C16.5145 11.291 15.9623 11.4585 15.3975 11.4585C14.3527 11.4587 13.3508 11.8739 12.6121 12.6127C11.8735 13.3515 11.4585 14.3535 11.4585 15.3983H11.4577ZM15.3975 18.2543C14.64 18.2543 13.9136 17.9534 13.378 17.4178C12.8424 16.8822 12.5415 16.1557 12.5415 15.3983C12.5415 14.6408 12.8424 13.9144 13.378 13.3788C13.9136 12.8432 14.64 12.5423 15.3975 12.5423C16.1549 12.5423 16.8814 12.8432 17.417 13.3788C17.9526 13.9144 18.2535 14.6408 18.2535 15.3983C18.2535 16.1557 17.9526 16.8822 17.417 17.4178C16.8814 17.9534 16.1549 18.2543 15.3975 18.2543ZM15.3975 16.2593C15.6258 16.2593 15.8448 16.1685 16.0063 16.0071C16.1678 15.8456 16.2585 15.6266 16.2585 15.3983C16.2585 15.1699 16.1678 14.9509 16.0063 14.7894C15.8448 14.628 15.6258 14.5373 15.3975 14.5373C15.1691 14.5373 14.9501 14.628 14.7887 14.7894C14.6272 14.9509 14.5365 15.1699 14.5365 15.3983C14.5365 15.6266 14.6272 15.8456 14.7887 16.0071C14.9501 16.1685 15.1691 16.2593 15.3975 16.2593ZM8.60248 16.2593C8.83083 16.2593 9.04983 16.1685 9.2113 16.0071C9.37277 15.8456 9.46348 15.6266 9.46348 15.3983C9.46348 15.1699 9.37277 14.9509 9.2113 14.7894C9.04983 14.628 8.83083 14.5373 8.60248 14.5373C8.37413 14.5373 8.15513 14.628 7.99366 14.7894C7.83219 14.9509 7.74148 15.1699 7.74148 15.3983C7.74148 15.6266 7.83219 15.8456 7.99366 16.0071C8.15513 16.1685 8.37413 16.2593 8.60248 16.2593ZM15.3975 9.46276C15.6258 9.46276 15.8448 9.37205 16.0063 9.21058C16.1678 9.04911 16.2585 8.83011 16.2585 8.60176C16.2585 8.37341 16.1678 8.15441 16.0063 7.99294C15.8448 7.83147 15.6258 7.74076 15.3975 7.74076C15.1691 7.74076 14.9501 7.83147 14.7887 7.99294C14.6272 8.15441 14.5365 8.37341 14.5365 8.60176C14.5365 8.83011 14.6272 9.04911 14.7887 9.21058C14.9501 9.37205 15.1691 9.46276 15.3975 9.46276ZM8.60248 9.46276C8.83083 9.46276 9.04983 9.37205 9.2113 9.21058C9.37277 9.04911 9.46348 8.83011 9.46348 8.60176C9.46348 8.37341 9.37277 8.15441 9.2113 7.99294C9.04983 7.83147 8.83083 7.74076 8.60248 7.74076C8.37413 7.74076 8.15513 7.83147 7.99366 7.99294C7.83219 8.15441 7.74148 8.37341 7.74148 8.60176C7.74148 8.83011 7.83219 9.04911 7.99366 9.21058C8.15513 9.37205 8.37413 9.46276 8.60248 9.46276Z" fill="white"/>
</svg>
