<svg width="59" height="59" viewBox="0 0 59 59" fill="none" xmlns="http://www.w3.org/2000/svg">
<path d="M29.7507 58.8188C45.8644 58.8188 58.9272 45.6912 58.9272 29.4975C58.9272 13.3038 45.8644 0.17627 29.7507 0.17627C13.637 0.17627 0.574219 13.3038 0.574219 29.4975C0.574219 45.6912 13.637 58.8188 29.7507 58.8188Z" fill="#0C6F4C"/>
<path d="M29.8096 3.91602C26.6601 3.91602 24.1062 15.3959 24.1062 29.5571C24.1062 43.7183 26.6601 55.1982 29.8096 55.1982C32.9592 55.1982 35.513 43.7183 35.513 29.5571C35.513 15.3959 32.9592 3.91602 29.8096 3.91602ZM30.2034 53.7511C29.8432 54.2339 29.4831 53.8717 29.4831 53.8717C28.0326 52.1828 27.3073 49.0452 27.3073 49.0452C24.7703 40.8402 25.3741 23.2232 25.3741 23.2232C26.5665 9.23724 28.7354 5.93332 29.4735 5.19982C29.5489 5.12496 29.6481 5.07921 29.7537 5.07063C29.8593 5.06205 29.9646 5.09118 30.051 5.1529C31.1219 5.91549 32.0201 9.10471 32.0201 9.10471C34.6725 18.9991 34.4323 28.2902 34.4323 28.2902C34.6725 36.3747 33.1032 45.4244 33.1032 45.4244C31.8952 52.302 30.2034 53.7511 30.2034 53.7511Z" fill="#00F5AB"/>
<path d="M51.9395 16.7952C50.3714 14.0489 39.1931 17.536 26.9644 24.583C14.7358 31.6299 6.10979 39.5694 7.67668 42.3146C9.24358 45.0598 20.4231 41.5738 32.6517 34.5269C44.8804 27.4799 53.5064 19.5404 51.9395 16.7952V16.7952ZM9.12337 41.9379C8.52303 41.8619 8.65865 41.366 8.65865 41.366C9.39506 39.2617 11.7385 37.068 11.7385 37.068C17.5605 30.773 33.0674 22.5328 33.0674 22.5328C45.731 16.6118 49.6644 16.8616 50.6623 17.1377C50.7647 17.1664 50.8537 17.2307 50.9135 17.319C50.9733 17.4074 51.0001 17.5142 50.989 17.6205C50.8691 18.9341 48.5576 21.3032 48.5576 21.3032C41.3424 28.5418 33.2031 32.9569 33.2031 32.9569C26.3447 37.1909 17.7528 40.3245 17.7528 40.3245C11.2152 42.692 9.1236 41.9379 9.1236 41.9379H9.12337Z" fill="#00F5AB"/>
<path d="M51.8855 42.4072C53.4656 39.6682 44.8615 31.6925 32.6759 24.5926C20.4902 17.4928 9.31344 13.9626 7.73465 16.7063C6.15587 19.45 14.7586 27.421 26.9513 34.5209C39.1439 41.6207 50.3067 45.1512 51.8855 42.4072ZM8.78173 17.7646C8.54832 17.2085 9.04105 17.0745 9.04105 17.0745C11.2225 16.6605 14.2867 17.604 14.2867 17.604C22.6229 19.5117 37.4876 28.869 37.4876 28.869C48.9324 36.9172 50.6876 40.4622 50.9507 41.4685C50.9774 41.5717 50.967 41.6811 50.9213 41.7774C50.8756 41.8736 50.7976 41.9506 50.7009 41.9946C49.5075 42.5438 46.3112 41.7256 46.3112 41.7256C36.4597 39.071 28.5809 34.2073 28.5809 34.2073C21.5018 30.3702 14.5019 24.4662 14.5019 24.4662C9.18296 19.9656 8.78336 17.7707 8.78336 17.7707L8.78173 17.7646Z" fill="#00F5AB"/>
<path d="M29.749 32.5126C31.4068 32.5126 32.7507 31.1621 32.7507 29.4961C32.7507 27.8301 31.4068 26.4795 29.749 26.4795C28.0912 26.4795 26.7473 27.8301 26.7473 29.4961C26.7473 31.1621 28.0912 32.5126 29.749 32.5126Z" fill="#B7C8C3"/>
<path d="M42.0584 19.7224C43.0198 19.7224 43.7992 18.9121 43.7992 17.9125C43.7992 16.9129 43.0198 16.1025 42.0584 16.1025C41.097 16.1025 40.3176 16.9129 40.3176 17.9125C40.3176 18.9121 41.097 19.7224 42.0584 19.7224Z" fill="#B7C8C3"/>
<path d="M13.4794 25.8757C14.4409 25.8757 15.2204 25.0654 15.2204 24.0658C15.2204 23.0662 14.4409 22.2559 13.4794 22.2559C12.5178 22.2559 11.7383 23.0662 11.7383 24.0658C11.7383 25.0654 12.5178 25.8757 13.4794 25.8757Z" fill="#B7C8C3"/>
<path d="M26.2079 48.0774C27.1695 48.0774 27.9491 47.2671 27.9491 46.2675C27.9491 45.2679 27.1695 44.4575 26.2079 44.4575C25.2463 44.4575 24.4668 45.2679 24.4668 46.2675C24.4668 47.2671 25.2463 48.0774 26.2079 48.0774Z" fill="#B7C8C3"/>
</svg>
