<svg width="24" height="24" viewBox="0 0 24 24" fill="none" xmlns="http://www.w3.org/2000/svg">
<g clip-path="url(#clip0)">
<path fill-rule="evenodd" clip-rule="evenodd" d="M5.10522 17.982C4.30805 17.0258 3.71769 15.8701 3.39374 14.6334C5.94971 11.776 9.57222 9.98739 13.3505 9.72142C13.7191 9.6954 14.0934 9.68228 14.4632 9.68228C14.4984 9.68228 14.5338 9.68239 14.5692 9.68265L12.516 11.6122C12.2871 11.8275 12.2167 12.1236 12.3278 12.4041C12.4498 12.712 12.7591 12.9269 13.0802 12.9269C13.2705 12.9269 13.4498 12.8531 13.5985 12.7133L16.9069 9.60391C17.051 9.46851 17.1319 9.27905 17.1348 9.07042C17.1378 8.85649 17.0563 8.6511 16.9111 8.50694L13.0804 4.70107C12.9319 4.55356 12.7512 4.47561 12.5577 4.47556C12.2467 4.47551 11.9426 4.6862 11.8182 4.98791C11.7017 5.27034 11.7657 5.57168 11.9894 5.79395L14.3506 8.13976C10.1529 8.16917 6.08713 9.81779 3.1061 12.6882C3.03989 10.9444 3.47891 9.20545 4.36093 7.7455C5.95964 5.09921 8.88518 3.45526 11.9959 3.45526C12.5746 3.45526 13.1535 3.51378 13.7165 3.62922C17.0292 4.30851 19.7066 6.86145 20.5666 10.1487C18.0135 12.9805 14.4056 14.753 10.6494 15.0175C10.2808 15.0435 9.90643 15.0566 9.5367 15.0566C9.5015 15.0566 9.46619 15.0565 9.43082 15.0563L11.4839 13.1267C11.7129 12.9114 11.7833 12.6154 11.6721 12.3348C11.5502 12.027 11.2409 11.812 10.9198 11.8119C10.7295 11.8119 10.5502 11.8858 10.4015 12.0256L7.09309 15.135C6.94903 15.2704 6.86805 15.4599 6.86519 15.6686C6.86221 15.8824 6.94372 16.0878 7.08884 16.2319L10.9196 20.0378C11.0681 20.1854 11.2489 20.2633 11.4424 20.2633C11.7534 20.2633 12.0575 20.0526 12.1818 19.7509C12.2983 19.4685 12.2342 19.1672 12.0105 18.945L9.64932 16.5991C13.8182 16.5698 17.8634 14.9405 20.8389 12.1034C20.8407 12.1796 20.8418 12.2576 20.8422 12.338C20.8223 16.0679 18.4893 19.418 15.0366 20.672C14.0647 21.025 13.0457 21.204 12.0079 21.204C9.32839 21.204 6.81246 20.0296 5.10522 17.982ZM23.8964 7.36186C23.7495 7.11405 23.4721 6.9539 23.1896 6.9539C22.9251 6.9539 22.6961 7.09498 22.5614 7.34099C22.3072 7.80529 22.0224 8.26337 21.7121 8.70717C21.2108 7.3805 20.4356 6.14802 19.4546 5.12241C18.3604 3.9785 17.0022 3.0858 15.527 2.54079C14.4121 2.12896 13.232 1.92001 12.0192 1.92001H12.0184C10.4951 1.92001 8.955 2.25926 7.56466 2.90112C6.1466 3.55578 4.88768 4.52542 3.92398 5.70522C2.96045 6.88476 2.25338 8.29799 1.87909 9.79214C1.51823 11.2327 1.46343 12.7578 1.71974 14.2093C1.09949 14.9839 0.554643 15.7974 0.0994259 16.6289C-0.0345958 16.8737 -0.033056 17.1464 0.103621 17.3771C0.250439 17.6248 0.527881 17.785 0.810368 17.785C1.07491 17.785 1.30392 17.6439 1.43858 17.3979C1.6813 16.9547 1.95093 16.5181 2.24282 16.0957C2.45882 16.661 2.72304 17.2035 3.03081 17.713C4.9078 20.8198 8.35244 22.7499 12.0205 22.7499C12.7008 22.7499 13.3831 22.6827 14.0485 22.5502C18.2467 21.7142 21.6221 18.1825 22.2567 13.9618C22.34 13.4079 22.3836 12.8615 22.3864 12.338C22.3833 11.7596 22.3301 11.174 22.2284 10.594C22.8704 9.79979 23.4326 8.96454 23.9005 8.10997C24.0346 7.86518 24.0331 7.59252 23.8964 7.36186Z" fill="#4155FF"/>
</g>
<defs>
<clipPath id="clip0">
<rect width="24" height="24" fill="white"/>
</clipPath>
</defs>
</svg>
