<svg viewBox="0 0 84 84" fill="none" xmlns="http://www.w3.org/2000/svg">
  <g clip-path="url(#clip0)">
    <path d="M39.8276 27.3231V27.3746L34.9844 1.80445L30.9656 0.515625L28.4409 3.91811L39.8276 27.3231Z" fill="#4fb573">
    </path>
    <path d="M42.4553 16.6516L44.5163 26.5497L46.7318 16.4969L44.5678 15.0535L42.4553 16.6516Z" fill="#4fb573"></path>
    <path d="M57.7577 18.4045L55.13 18.6623L52.0386 28.4573L58.8397 20.776L57.7577 18.4045Z" fill="#4fb573"></path>
    <path d="M80.222 20.4666V16.2908L76.1516 15.002L57.0879 32.8908L80.222 20.4666Z" fill="#4fb573"></path>
    <path
      d="M33.6447 31.0348L27.9771 22.5286L28.0802 22.7348L27.9771 22.5286L25.401 22.941L24.9888 25.5186L33.6447 31.0348Z"
      fill="#4fb573"></path>
    <path d="M70.1235 39.6958L59.9734 41.7064L70.1235 43.9231L71.6692 41.8095L70.1235 39.6958Z" fill="#4fb573"></path>
    <path d="M29.1107 41.7579L3.03979 38.4585L0.515137 41.861L3.03979 45.2635L29.1107 41.7579Z" fill="#4fb573"></path>
    <path d="M19.4757 47.4286L18.7029 49.8515L20.8153 51.3981L29.832 46.3459L19.4757 47.4286Z" fill="#4fb573"></path>
    <path d="M22.4641 54.5944L22.3611 57.1721L24.8342 58.0485L32.0475 50.4702L22.4641 54.5944Z" fill="#4fb573"></path>
    <path d="M35.448 53.9758L27.771 60.7292L28.4408 63.2038L31.0685 63.3069L35.448 53.9758Z" fill="#4fb573"></path>
    <path d="M44.5678 56.9658L42.5068 66.9671L44.6193 68.4621L46.7318 66.9155L44.5678 56.9658Z" fill="#4fb573"></path>
    <path d="M80.2735 63.0491L57.0879 50.728L76.2546 68.5137L80.2735 67.2249V63.0491Z" fill="#4fb573"></path>
    <path d="M54.7178 64.9566L49.5139 56.2441L50.699 66.2454L53.1721 67.0187L54.7178 64.9566Z" fill="#4fb573"></path>
    <path d="M39.8791 56.2441L28.5955 79.7007L31.1201 83.1031L35.1389 81.8143L39.8791 56.2441Z" fill="#4fb573"></path>
  </g>
  <defs>
    <clipPath id="clip0">
      <rect width="82.5876" height="82.5876" fill="#4fb573" transform="translate(0.515137 0.515625)"></rect>
    </clipPath>
  </defs>
</svg>