<svg width="24" height="24" viewBox="0 0 24 24" fill="none" xmlns="http://www.w3.org/2000/svg">
<path d="M12 24C18.6274 24 24 18.6274 24 12C24 5.37258 18.6274 0 12 0C5.37258 0 0 5.37258 0 12C0 18.6274 5.37258 24 12 24Z" fill="url(#paint0_linear)"/>
<path d="M6.74998 6.975L8.02498 6.3L8.17498 6.6L12.825 3.9L12.525 3.675L12.15 3.45L12 3.375L4.34998 7.8V7.95L6.52498 6.75L6.74998 6.975ZM6.74998 9.825L10.425 7.65L10.575 7.95L15.3 5.25L14.925 5.025L14.55 4.875L14.4 4.8L4.34998 10.575V10.725L6.52498 9.525L6.74998 9.825ZM6.74998 11.175L11.625 8.4L11.775 8.625L16.5 5.925L16.125 5.775L15.75 5.55L15.6 5.475L4.34998 11.925V12.15L6.52498 10.875L6.74998 11.175ZM6.74998 12.525L12.825 9.075L12.975 9.3L17.7 6.675L17.325 6.45L16.95 6.225L16.8 6.15L4.34998 13.35V13.5L6.52498 12.3L6.74998 12.525ZM6.74998 13.95L14.025 9.75L14.175 10.05L18.9 7.35L18.525 7.125L18.225 6.975L18 6.825L4.34998 14.7V14.925L6.52498 13.65L6.74998 13.95ZM19.35 7.65L19.2 7.5L4.34998 16.125V16.275L6.52498 15.075L6.74998 15.375L14.025 11.1L14.175 11.4L19.65 8.325V7.8L19.35 7.65ZM5.32498 17.175L6.52498 16.425L6.67498 16.725L14.025 12.525L14.175 12.825L19.65 9.675V8.7L5.09998 17.025L5.32498 17.175ZM14.025 13.95L14.175 14.25L19.65 11.025V10.05L6.29998 17.775L6.52498 17.85L7.72498 17.1L7.94998 17.4L14.025 13.95ZM7.72498 18.525L8.99998 17.85L9.14998 18.15L14.025 15.3L14.175 15.6L19.65 12.45V11.475L7.49998 18.45L7.72498 18.525ZM8.92498 19.2L10.2 18.525L10.35 18.825L14.025 16.725L14.175 17.025L19.65 13.875V12.825L8.69998 19.125L8.92498 19.2ZM9.89998 19.8L10.125 19.95L11.4 19.2L11.55 19.5L14.025 18.075L14.175 18.375L19.65 15.225V14.25L9.89998 19.8ZM11.325 20.625L12.525 19.875L12.75 20.175L14.025 19.5L14.175 19.8L19.65 16.65V15.6L11.175 20.55L11.325 20.625ZM14.1 4.575L13.725 4.35L13.35 4.2L13.2 4.05L4.34998 9.15V9.375L6.52498 8.1L6.74998 8.4L9.22498 6.975L9.37498 7.275L14.1 4.575Z" fill="white"/>
<defs>
<linearGradient id="paint0_linear" x1="0" y1="12" x2="24" y2="12" gradientUnits="userSpaceOnUse">
<stop stop-color="#001C3A"/>
<stop offset="0.6" stop-color="#001E3D"/>
<stop offset="0.7" stop-color="#001F3F"/>
<stop offset="1" stop-color="#002042"/>
</linearGradient>
</defs>
</svg>
