<svg width="24" height="24" viewBox="0 0 24 24" fill="none" xmlns="http://www.w3.org/2000/svg">
<g clip-path="url(#clip0)">
<path d="M5.64527 8.31081H11.0676C11.0833 8.30964 11.0981 8.30286 11.1093 8.2917C11.1204 8.28054 11.1272 8.26574 11.1284 8.25V6.49662C11.1272 6.48088 11.1204 6.46609 11.1093 6.45492C11.0981 6.44376 11.0833 6.43698 11.0676 6.43581H5.64527C5.62953 6.43698 5.61473 6.44376 5.60357 6.45492C5.59241 6.46609 5.58563 6.48088 5.58446 6.49662V8.25C5.58418 8.25806 5.58556 8.2661 5.58851 8.2736C5.59147 8.28111 5.59594 8.28793 5.60164 8.29363C5.60734 8.29933 5.61416 8.3038 5.62167 8.30676C5.62917 8.30971 5.63721 8.31109 5.64527 8.31081ZM9.31419 5.09797H11.0676C11.0833 5.0968 11.0981 5.09002 11.1093 5.07886C11.1204 5.0677 11.1272 5.0529 11.1284 5.03716V3.28378C11.1272 3.26804 11.1204 3.25325 11.1093 3.24209C11.0981 3.23093 11.0833 3.22414 11.0676 3.22297H9.31419C9.29845 3.22414 9.28365 3.23093 9.27249 3.24209C9.26133 3.25325 9.25455 3.26804 9.25338 3.28378V5.03716C9.25455 5.0529 9.26133 5.0677 9.27249 5.07886C9.28365 5.09002 9.29845 5.0968 9.31419 5.09797ZM1.81419 12.8716H0.0608108C0.0450709 12.8728 0.0302744 12.8796 0.0191139 12.8907C0.00795336 12.9019 0.00117063 12.9167 0 12.9324L0 14.6858C0.00117063 14.7015 0.00795336 14.7163 0.0191139 14.7275C0.0302744 14.7387 0.0450709 14.7455 0.0608108 14.7466H1.81419C1.82993 14.7455 1.84473 14.7387 1.85589 14.7275C1.86705 14.7163 1.87383 14.7015 1.875 14.6858V12.9324C1.87383 12.9167 1.86705 12.9019 1.85589 12.8907C1.84473 12.8796 1.82993 12.8728 1.81419 12.8716ZM8.25 12.8716H6.49662C6.48088 12.8728 6.46609 12.8796 6.45492 12.8907C6.44376 12.9019 6.43698 12.9167 6.43581 12.9324V18.3547C6.43698 18.3705 6.44376 18.3853 6.45492 18.3964C6.46609 18.4076 6.48088 18.4144 6.49662 18.4155H8.25C8.26574 18.4144 8.28054 18.4076 8.2917 18.3964C8.30286 18.3853 8.30964 18.3705 8.31081 18.3547V12.9324C8.30964 12.9167 8.30286 12.9019 8.2917 12.8907C8.28054 12.8796 8.26574 12.8728 8.25 12.8716ZM18.973 11.1182H20.7264C20.7421 11.1171 20.7569 11.1103 20.768 11.0991C20.7792 11.088 20.786 11.0732 20.7872 11.0574V9.30405C20.786 9.28831 20.7792 9.27352 20.768 9.26236C20.7569 9.2512 20.7421 9.24441 20.7264 9.24324H18.973C18.9572 9.24441 18.9424 9.2512 18.9313 9.26236C18.9201 9.27352 18.9133 9.28831 18.9122 9.30405V11.0574C18.911 11.0657 18.9117 11.0741 18.9144 11.082C18.917 11.09 18.9214 11.0972 18.9273 11.1031C18.9333 11.109 18.9404 11.1134 18.9484 11.116C18.9563 11.1187 18.9647 11.1194 18.973 11.1182ZM15.75 11.1182H17.5034C17.5191 11.1171 17.5339 11.1103 17.5451 11.0991C17.5562 11.088 17.563 11.0732 17.5642 11.0574V5.63514C17.563 5.6194 17.5562 5.6046 17.5451 5.59344C17.5339 5.58228 17.5191 5.57549 17.5034 5.57432H15.75C15.7343 5.57549 15.7195 5.58228 15.7083 5.59344C15.6971 5.6046 15.6904 5.6194 15.6892 5.63514V11.0574C15.6889 11.0655 15.6903 11.0735 15.6932 11.081C15.6962 11.0885 15.7007 11.0954 15.7064 11.1011C15.7121 11.1068 15.7189 11.1112 15.7264 11.1142C15.7339 11.1171 15.7419 11.1185 15.75 11.1182ZM9.31419 1.875H11.0676C11.0833 1.87383 11.0981 1.86705 11.1093 1.85589C11.1204 1.84473 11.1272 1.82993 11.1284 1.81419V0.0608108C11.1272 0.0450709 11.1204 0.0302744 11.1093 0.0191139C11.0981 0.00795336 11.0833 0.00117063 11.0676 0L9.31419 0C9.29845 0.00117063 9.28365 0.00795336 9.27249 0.0191139C9.26133 0.0302744 9.25455 0.0450709 9.25338 0.0608108V1.81419C9.2531 1.82225 9.25447 1.83029 9.25743 1.83779C9.26039 1.8453 9.26486 1.85211 9.27056 1.85782C9.27626 1.86352 9.28308 1.86799 9.29059 1.87095C9.29809 1.8739 9.30613 1.87528 9.31419 1.875ZM5.03716 12.8716H3.28378C3.26804 12.8728 3.25325 12.8796 3.24209 12.8907C3.23093 12.9019 3.22414 12.9167 3.22297 12.9324V14.6858C3.22414 14.7015 3.23093 14.7163 3.24209 14.7275C3.25325 14.7387 3.26804 14.7455 3.28378 14.7466H5.03716C5.0529 14.7455 5.0677 14.7387 5.07886 14.7275C5.09002 14.7163 5.0968 14.7015 5.09797 14.6858V12.9324C5.0953 12.9173 5.08803 12.9033 5.07715 12.8924C5.06627 12.8816 5.05231 12.8743 5.03716 12.8716ZM18.3649 15.6892H12.9426C12.9268 15.6904 12.912 15.6971 12.9009 15.7083C12.8897 15.7195 12.8829 15.7343 12.8818 15.75V17.5034C12.8829 17.5191 12.8897 17.5339 12.9009 17.5451C12.912 17.5562 12.9268 17.563 12.9426 17.5642H18.3649C18.3806 17.563 18.3954 17.5562 18.4066 17.5451C18.4177 17.5339 18.4245 17.5191 18.4257 17.5034V15.75C18.4247 15.7342 18.418 15.7193 18.4068 15.7081C18.3956 15.6969 18.3807 15.6902 18.3649 15.6892ZM22.0642 12.4966H14.3818C14.366 12.4978 14.3512 12.5046 14.3401 12.5157C14.3289 12.5269 14.3221 12.5417 14.3209 12.5574V14.2601C14.3221 14.2759 14.3289 14.2907 14.3401 14.3018C14.3512 14.313 14.366 14.3198 14.3818 14.3209H22.0642C22.0799 14.3198 22.0947 14.313 22.1059 14.3018C22.117 14.2907 22.1238 14.2759 22.125 14.2601V12.5574C22.1253 12.5494 22.1239 12.5413 22.1209 12.5338C22.118 12.5263 22.1135 12.5195 22.1078 12.5138C22.1021 12.5081 22.0953 12.5036 22.0878 12.5007C22.0803 12.4977 22.0723 12.4963 22.0642 12.4966ZM14.6858 18.902H12.9324C12.9167 18.9032 12.9019 18.91 12.8907 18.9211C12.8796 18.9323 12.8728 18.9471 12.8716 18.9628V20.7162C12.8728 20.732 12.8796 20.7468 12.8907 20.7579C12.9019 20.7691 12.9167 20.7759 12.9324 20.777H14.6858C14.7015 20.7759 14.7163 20.7691 14.7275 20.7579C14.7387 20.7468 14.7455 20.732 14.7466 20.7162V18.9628C14.7469 18.9548 14.7455 18.9467 14.7426 18.9392C14.7396 18.9317 14.7351 18.9249 14.7294 18.9192C14.7237 18.9135 14.7169 18.909 14.7094 18.9061C14.7019 18.9031 14.6939 18.9017 14.6858 18.902ZM9.67905 9.73986C9.67788 9.72412 9.6711 9.70933 9.65994 9.69817C9.64878 9.68701 9.63398 9.68022 9.61824 9.67905H1.93581C1.92007 9.68022 1.90527 9.68701 1.89411 9.69817C1.88295 9.70933 1.87617 9.72412 1.875 9.73986V11.4426C1.87617 11.4583 1.88295 11.4731 1.89411 11.4843C1.90527 11.4954 1.92007 11.5022 1.93581 11.5034H9.61824C9.63398 11.5022 9.64878 11.4954 9.65994 11.4843C9.6711 11.4731 9.67788 11.4583 9.67905 11.4426V9.73986ZM23.9392 9.25338H22.1858C22.1701 9.25455 22.1553 9.26133 22.1441 9.27249C22.133 9.28365 22.1262 9.29845 22.125 9.31419V11.0676C22.1262 11.0833 22.133 11.0981 22.1441 11.1093C22.1553 11.1204 22.1701 11.1272 22.1858 11.1284H23.9392C23.9549 11.1272 23.9697 11.1204 23.9809 11.1093C23.992 11.0981 23.9988 11.0833 24 11.0676V9.31419C24.0012 9.30593 24.0004 9.2975 23.9978 9.28958C23.9952 9.28166 23.9907 9.27447 23.9848 9.26857C23.9789 9.26266 23.9717 9.25822 23.9638 9.25558C23.9559 9.25295 23.9475 9.25219 23.9392 9.25338ZM11.4426 14.3209H9.73986C9.72412 14.3221 9.70933 14.3289 9.69817 14.3401C9.68701 14.3512 9.68022 14.366 9.67905 14.3818V22.0642C9.68022 22.0799 9.68701 22.0947 9.69817 22.1059C9.70933 22.117 9.72412 22.1238 9.73986 22.125H11.4426C11.4583 22.1238 11.4731 22.117 11.4843 22.1059C11.4954 22.0947 11.5022 22.0799 11.5034 22.0642V14.3818C11.5022 14.366 11.4954 14.3512 11.4843 14.3401C11.4731 14.3289 11.4583 14.3221 11.4426 14.3209ZM14.3209 9.62838V1.93581C14.3198 1.92007 14.313 1.90527 14.3018 1.89411C14.2907 1.88295 14.2759 1.87617 14.2601 1.875H12.5574C12.5417 1.87617 12.5269 1.88295 12.5157 1.89411C12.5046 1.90527 12.4978 1.92007 12.4966 1.93581V9.62838C12.4978 9.64412 12.5046 9.65891 12.5157 9.67008C12.5269 9.68124 12.5417 9.68802 12.5574 9.68919H14.2601C14.2759 9.68802 14.2907 9.68124 14.3018 9.67008C14.313 9.65891 14.3198 9.64412 14.3209 9.62838ZM14.6858 22.125H12.9324C12.9167 22.1262 12.9019 22.133 12.8907 22.1441C12.8796 22.1553 12.8728 22.1701 12.8716 22.1858V23.9392C12.8728 23.9549 12.8796 23.9697 12.8907 23.9809C12.9019 23.992 12.9167 23.9988 12.9324 24H14.6858C14.7015 23.9988 14.7163 23.992 14.7275 23.9809C14.7387 23.9697 14.7455 23.9549 14.7466 23.9392V22.1858C14.7478 22.1775 14.7471 22.1691 14.7444 22.1612C14.7418 22.1533 14.7373 22.1461 14.7314 22.1402C14.7255 22.1343 14.7183 22.1298 14.7104 22.1272C14.7025 22.1246 14.6941 22.1238 14.6858 22.125Z" fill="#149DD9"/>
</g>
<defs>
<clipPath id="clip0">
<rect width="24" height="24" fill="white"/>
</clipPath>
</defs>
</svg>
