<svg width="24" height="24" viewBox="0 0 24 24" fill="none" xmlns="http://www.w3.org/2000/svg">
<path fill-rule="evenodd" clip-rule="evenodd" d="M12.034 4.22461C10.1621 4.22461 8.64463 5.74216 8.64463 7.61402C8.64463 7.68395 8.65085 7.75214 8.65506 7.82093L8.65058 7.81358C8.65058 7.81358 8.58968 8.78414 8.17165 9.09768C7.75369 9.41122 6.80378 9.15591 6.80378 9.15591L6.80519 9.15838C6.27037 8.80573 5.63079 8.59909 4.94234 8.59909C3.07034 8.59909 1.5528 10.1166 1.5528 11.9885C1.5528 13.8605 3.07034 15.378 4.94234 15.378C6.81421 15.378 8.33176 13.8605 8.33176 11.9885C8.33176 11.9222 8.32561 11.8574 8.32187 11.792L8.32648 11.8C8.32648 11.8 8.33584 10.8296 8.85468 10.4873C9.37352 10.1452 10.287 10.5191 10.287 10.5191L10.2827 10.512C10.7943 10.8219 11.3923 11.0036 12.034 11.0036C13.906 11.0036 15.4235 9.48596 15.4235 7.61402C15.4235 5.74216 13.906 4.22461 12.034 4.22461Z" fill="#FFE800"/>
<path fill-rule="evenodd" clip-rule="evenodd" d="M19.1752 8.50476C17.3032 8.50476 15.7857 10.0224 15.7857 11.8942C15.7857 11.9641 15.792 12.0324 15.7961 12.1012L15.7916 12.0937C15.7916 12.0937 15.7307 13.0643 15.3128 13.3778C14.9704 13.6346 14.2722 13.5101 14.0303 13.4564C13.4806 13.072 12.813 12.8447 12.0913 12.8447C10.2193 12.8447 8.70175 14.3622 8.70175 16.2342C8.70175 16.304 8.70797 16.3722 8.71218 16.441L8.7077 16.4336C8.7077 16.4336 8.6468 17.4042 8.22884 17.7178C7.81081 18.0313 6.86091 17.776 6.86091 17.776L6.86238 17.7785C6.32756 17.4258 5.68791 17.2192 4.99953 17.2192C3.12753 17.2192 1.60999 18.7366 1.60999 20.6085C1.60999 22.4804 3.12753 23.9981 4.99953 23.9981C6.87133 23.9981 8.38895 22.4804 8.38895 20.6085C8.38895 20.5422 8.38273 20.4774 8.37899 20.412L8.38367 20.42C8.38367 20.42 8.39296 19.4496 8.91187 19.1074C9.43064 18.7651 10.3442 19.1392 10.3442 19.1392L10.3398 19.1319C10.8515 19.4419 11.4495 19.6236 12.0913 19.6236C13.9631 19.6236 15.4806 18.1061 15.4806 16.2342C15.4806 16.1624 15.4743 16.0924 15.47 16.0218C15.4814 15.8097 15.5522 15.06 15.9957 14.7675C16.5147 14.4253 17.4282 14.7993 17.4282 14.7993L17.4237 14.7921C17.9355 15.102 18.5334 15.2837 19.1752 15.2837C21.0472 15.2837 22.5647 13.7662 22.5647 11.8942C22.5647 10.0224 21.0472 8.50476 19.1752 8.50476Z" fill="#FFE800"/>
<path fill-rule="evenodd" clip-rule="evenodd" d="M8.29672 3.42832C8.29672 5.32185 6.76185 6.85671 4.86833 6.85671C2.97493 6.85671 1.44 5.32185 1.44 3.42832C1.44 1.53486 2.97493 0 4.86833 0C6.76185 0 8.29672 1.53486 8.29672 3.42832Z" fill="#FFE800"/>
</svg>
