<svg width="24" height="24" viewBox="0 0 24 24" fill="none" xmlns="http://www.w3.org/2000/svg">
<path d="M12 0C18.6274 0 24 5.37257 24 12C24 18.6274 18.6274 24 12 24C5.37257 24 0 18.6274 0 12C0 5.37257 5.37257 0 12 0Z" fill="black"/>
<path d="M6.23657 9.79612C6.23657 9.88594 6.3264 9.97577 6.41623 9.97577H8.59886V11.0853H6.41623C6.3264 11.0853 6.23657 11.1751 6.23657 11.2649V13.0944C6.23657 13.1842 6.3264 13.2741 6.41623 13.2741H8.59886V17.653C8.59886 17.7429 8.65852 17.8032 8.74834 17.8032H10.8418C10.9317 17.8032 10.9913 17.7435 10.9913 17.653V13.5154C10.9913 13.4256 11.051 13.3653 11.1408 13.3653H12.816C12.8757 13.3653 12.9353 13.3954 12.9655 13.4551L14.8197 17.7442C14.8498 17.8039 14.9095 17.8341 14.9691 17.8341H17.2121C17.3314 17.8341 17.3918 17.7141 17.3616 17.6242L15.5074 13.4249C15.4773 13.3351 15.5074 13.2453 15.5973 13.2151C16.4942 12.8853 17.0626 12.0754 17.0626 10.9954V8.29577C17.0626 6.91612 15.9264 5.77646 14.5502 5.77646H8.74834C8.65852 5.77646 8.59886 5.8368 8.59886 5.92663V7.78629H6.41623C6.3264 7.78629 6.23657 7.87612 6.23657 7.96594V9.79612Z" fill="white"/>
<path d="M10.9913 8.20596C10.9913 8.11613 11.051 8.05579 11.1408 8.05579H13.9522C14.341 8.05579 14.6702 8.38561 14.6702 8.77579V10.3954C14.6702 10.7856 14.341 11.1154 13.9522 11.1154H11.1408C11.051 11.1154 10.9913 11.0551 10.9913 10.9653V8.20596Z" fill="black"/>
</svg>
