<svg width="24" height="24" viewBox="0 0 24 24" fill="none" xmlns="http://www.w3.org/2000/svg">
<g clip-path="url(#clip0)">
<path d="M12.2464 14.5716C12.3975 15.6551 12.269 16.8479 13.2135 17.8203C13.7657 18.3881 13.5487 19.2632 12.9687 19.7598C12.6842 20.0119 12.3184 20.153 11.9384 20.1575C11.5583 20.162 11.1893 20.0294 10.899 19.7841C10.2774 19.2632 10.0308 18.3673 10.6003 17.7786C11.5345 16.8028 11.4494 15.6273 11.5605 14.4639C11.5883 14.1791 11.7342 13.8006 11.2636 13.6843C10.8347 13.5784 10.51 13.0331 9.95092 13.4985C9.03759 14.2573 7.88986 14.7139 7.50439 16.0527C7.26824 16.867 6.30803 17.1258 5.54577 16.8202C5.20277 16.6954 4.91426 16.4544 4.73031 16.1392C4.54636 15.8239 4.47856 15.4542 4.53868 15.0942C4.69148 14.2608 5.45027 13.561 6.2872 13.7746C7.53564 14.0923 8.46633 13.469 9.48558 13.0227C9.70262 12.9272 10.1332 12.8491 9.99259 12.5539C9.75645 12.0695 10.1853 11.3628 9.54635 11.0711C8.54447 10.6144 7.62593 9.92506 6.36533 10.281C5.49715 10.5241 4.7401 9.89033 4.56646 9.04993C4.48261 8.64817 4.55187 8.22957 4.76067 7.87623C4.96946 7.52289 5.30272 7.26029 5.6951 7.13994C6.50424 6.91247 7.43146 7.30315 7.63635 8.16265C7.95584 9.45103 9.13136 9.76879 9.96134 10.479C10.0186 10.5276 10.161 10.5693 10.1923 10.5397C10.5708 10.1768 11.0466 9.95805 11.4598 9.65766C11.729 9.46145 11.5241 9.00479 11.4928 8.66793C11.4181 7.81364 11.3435 6.99234 10.6663 6.28912C10.0568 5.65708 10.2166 4.74202 10.8399 4.19506C11.1352 3.92968 11.5199 3.78563 11.9169 3.79175C12.3139 3.79787 12.6939 3.9537 12.9809 4.22806C13.5834 4.79064 13.6997 5.6866 13.0989 6.33426C12.5624 6.91247 12.3905 7.54972 12.3054 8.2842C12.1439 9.61599 12.2863 9.89728 13.5018 10.4529C13.6164 10.5067 13.7154 10.5519 13.8143 10.4703C14.6356 9.78789 15.7834 9.48402 16.122 8.24947C16.2176 7.84711 16.4689 7.49908 16.8208 7.28167C17.1726 7.06426 17.5963 6.99518 17.999 7.08958C18.0518 7.10175 18.104 7.11682 18.1552 7.13473C18.914 7.38476 19.3707 8.25989 19.1814 9.09855C19.1022 9.49341 18.8696 9.84074 18.5347 10.0644C18.1997 10.288 17.7898 10.3696 17.3947 10.2914C17.3461 10.281 17.2975 10.2689 17.2506 10.255C15.9744 9.8695 15.0645 10.6404 14.1095 11.1388C13.632 11.3853 13.9185 12.1407 13.7292 12.6494C13.6233 12.9359 14.1182 12.9967 14.3595 13.1078C15.3684 13.5853 16.3216 14.1236 17.5631 13.8024C18.3601 13.594 19.0911 14.3233 19.2023 15.1272C19.2651 15.4884 19.1963 15.8602 19.0083 16.1751C18.8204 16.4899 18.5257 16.7268 18.1778 16.8427C17.4017 17.1171 16.4918 16.8202 16.2574 15.9745C15.8719 14.5855 14.6704 14.134 13.6945 13.4204C13.1753 13.0505 12.2169 13.7989 12.2464 14.5716Z" fill="#09CBCD"/>
<path d="M12.9479 0L21.8033 5.10143C20.2979 6.26306 20.0045 6.2839 18.5043 5.41571C17.0561 4.57647 15.6092 3.7407 14.1633 2.90841C12.8072 2.12704 12.6232 1.69816 12.9479 0Z" fill="#09CBCD"/>
<path d="M1.97412 18.8934C3.0906 17.895 4.10464 17.7387 5.32704 18.5739C6.66056 19.4837 8.10522 20.2165 9.51341 21.0308C10.9685 21.8747 11.1004 22.1681 10.8139 24L1.97412 18.8934Z" fill="#09CBCD"/>
<path d="M2.00537 5.09449L10.8261 0C11.1543 1.71726 10.9858 2.10968 9.61064 2.9032C8.18682 3.72971 6.70918 4.47808 5.3496 5.40009C4.14283 6.22139 3.12359 6.112 2.00537 5.09449Z" fill="#09CBCD"/>
<path d="M21.779 18.8447L12.9809 23.9861C12.6215 22.3452 12.8212 21.8781 14.1668 21.0985C15.6167 20.2599 17.1186 19.4924 18.5077 18.56C19.6763 17.7682 20.6712 17.8463 21.779 18.8447Z" fill="#09CBCD"/>
<path d="M1 6.86035C2.44292 7.27361 3.00723 8.12269 2.91 9.5795C2.79193 11.2169 2.88395 12.8786 2.88222 14.516C2.88222 16.0995 2.6426 16.426 1.00521 16.992L1 6.86035Z" fill="#08CBCD"/>
<path d="M22.7723 17.0164C21.0637 16.3218 20.9161 16.1152 20.9161 14.4014V8.85546C20.9155 8.40534 21.0728 7.96927 21.3606 7.62314C21.6483 7.27702 22.0483 7.04274 22.491 6.96109C22.9876 6.86211 22.8382 7.23717 22.8382 7.44206C22.8521 8.88498 22.8382 10.3279 22.8382 11.7708V16.7976C22.8239 16.8726 22.8018 16.9459 22.7723 17.0164Z" fill="#08CBCD"/>
</g>
<defs>
<clipPath id="clip0">
<rect width="24" height="24" fill="white"/>
</clipPath>
</defs>
</svg>
