<svg width="24" height="24" viewBox="0 0 24 24" fill="none" xmlns="http://www.w3.org/2000/svg">
<g clip-path="url(#clip0)">
<path d="M11.5744 7.06736C18.0915 7.06736 23.3764 12.1395 23.3764 18.3993C23.3761 19.6824 23.15 20.9554 22.7084 22.1601C23.5394 20.5721 23.9724 18.8061 23.9703 17.0138C23.9703 10.754 18.7843 5.68179 12.3909 5.68179C8.15004 5.68179 4.44365 7.91355 2.42468 11.2389C4.59211 8.6954 7.88283 7.06736 11.5744 7.06736Z" fill="black"/>
<path d="M7.56619 2.71274C4.53175 2.711 1.69535 4.21917 0 6.73583C1.4469 5.91555 3.08232 5.48581 4.74557 5.48882C10.1146 5.48882 14.4693 9.888 14.4693 15.3115C14.4704 16.3324 14.3135 17.3473 14.0041 18.3202C15.7297 16.6087 16.699 14.278 16.6961 11.8476C16.6961 6.80016 12.6087 2.71274 7.56619 2.71274Z" fill="url(#paint0_linear)"/>
<path d="M19.2693 4.47438C16.7512 2.02644 13.1804 0.991375 9.74353 1.71314C11.6058 2.19922 13.3105 3.159 14.692 4.49912C19.1505 8.82902 19.2198 15.9894 14.8503 20.4925C14.0281 21.3404 13.0801 22.0564 12.0396 22.6154C14.8523 22.5846 17.5357 21.4299 19.492 19.4088C23.5547 15.2274 23.4557 8.53706 19.2693 4.47438Z" fill="url(#paint1_linear)"/>
</g>
<defs>
<linearGradient id="paint0_linear" x1="5.96338" y1="5.71836" x2="17.0947" y2="16.7263" gradientUnits="userSpaceOnUse">
<stop stop-color="#137EAF"/>
<stop offset="1" stop-color="#003C5A"/>
</linearGradient>
<linearGradient id="paint1_linear" x1="14.4962" y1="15.0166" x2="20.5907" y2="8.31338" gradientUnits="userSpaceOnUse">
<stop stop-color="#137EAF"/>
<stop offset="1" stop-color="#003C5A"/>
</linearGradient>
<clipPath id="clip0">
<rect width="24" height="24" fill="white"/>
</clipPath>
</defs>
</svg>
