<svg width="24" height="24" viewBox="0 0 24 24" fill="none" xmlns="http://www.w3.org/2000/svg">
<path d="M23.6304 14.9128C23.0544 17.2129 21.8095 19.2906 20.053 20.8833C18.2966 22.4761 16.1074 23.5125 13.7622 23.8616C11.4169 24.2106 9.02082 23.8566 6.87667 22.8444C4.73251 21.8321 2.93653 20.207 1.71566 18.1744C0.494787 16.1418 -0.0961767 13.7929 0.0174431 11.4245C0.131063 9.05614 0.944167 6.7746 2.35401 4.86818C3.76385 2.96177 5.70715 1.51604 7.93836 0.713687C10.1696 -0.0886676 12.5885 -0.211641 14.8896 0.360307C16.4225 0.735917 17.8658 1.41136 19.1363 2.34766C20.4068 3.28395 21.4793 4.46257 22.2919 5.8155C23.1045 7.16843 23.6412 8.66889 23.8709 10.2303C24.1006 11.7917 24.0189 13.3832 23.6304 14.9128Z" fill="#EC672F"/>
<path d="M7.21817 11.0538H11.5188V14.4479C11.1899 14.5558 10.9032 14.7641 10.6988 15.0435C10.4945 15.3229 10.3829 15.6593 10.3797 16.0054C10.3797 16.437 10.5512 16.8509 10.8563 17.1561C11.1615 17.4612 11.5754 17.6327 12.007 17.6327C12.4386 17.6327 12.8525 17.4612 13.1577 17.1561C13.4628 16.8509 13.6343 16.437 13.6343 16.0054C13.6324 15.6622 13.5241 15.3281 13.3242 15.0491C13.1243 14.7701 12.8428 14.56 12.5184 14.4479V11.0538H16.7726C16.8402 11.0532 16.9049 11.0261 16.9528 10.9783C17.0006 10.9304 17.0277 10.8657 17.0283 10.7981V10.2402C17.0277 10.1726 17.0006 10.1079 16.9528 10.06C16.9049 10.0122 16.8402 9.98508 16.7726 9.98447H12.4022V4.05654H16.7726C16.8402 4.05593 16.9049 4.0288 16.9528 3.98097C17.0006 3.93315 17.0277 3.86846 17.0283 3.80082V3.25452C17.0277 3.18689 17.0006 3.1222 16.9528 3.07438C16.9049 3.02655 16.8402 2.99942 16.7726 2.99881H7.21817C7.15258 3.00236 7.09081 3.03079 7.04545 3.0783C7.0001 3.12582 6.97457 3.18884 6.97407 3.25452V3.81245C6.97468 3.88008 7.00182 3.94477 7.04964 3.9926C7.09747 4.04042 7.16216 4.06756 7.22979 4.06816H11.4607V9.9961H7.21817C7.15053 9.9967 7.08584 10.0238 7.03802 10.0717C6.99019 10.1195 6.96306 10.1842 6.96245 10.2518V10.8097C6.9606 10.8433 6.96604 10.8768 6.9784 10.9081C6.99076 10.9393 7.00975 10.9675 7.03405 10.9907C7.05836 11.0139 7.0874 11.0316 7.11919 11.0425C7.15097 11.0534 7.18474 11.0572 7.21817 11.0538ZM12.7858 16.0403C12.7858 16.192 12.7408 16.3403 12.6565 16.4665C12.5722 16.5926 12.4524 16.691 12.3122 16.749C12.172 16.8071 12.0178 16.8223 11.869 16.7927C11.7202 16.7631 11.5835 16.69 11.4762 16.5827C11.3689 16.4754 11.2958 16.3387 11.2662 16.1899C11.2366 16.0411 11.2518 15.8869 11.3099 15.7467C11.3679 15.6065 11.4663 15.4867 11.5924 15.4024C11.7186 15.3181 11.8669 15.2731 12.0186 15.2731C12.1196 15.2722 12.2198 15.2914 12.3133 15.3296C12.4068 15.3678 12.4917 15.4243 12.5632 15.4957C12.6346 15.5672 12.6911 15.6521 12.7293 15.7456C12.7675 15.8391 12.7867 15.9393 12.7858 16.0403Z" fill="white"/>
<path d="M15.7497 12.4022L15.7265 12.3789C15.695 12.3493 15.6534 12.3329 15.6103 12.3329C15.5671 12.3329 15.5255 12.3493 15.494 12.3789L15.0756 12.7974C15.0552 12.8147 15.0385 12.8361 15.0265 12.86C15.0146 12.884 15.0075 12.9101 15.0058 12.9368C15.0024 12.9696 15.0106 13.0025 15.0291 13.0298C15.0291 13.036 15.0315 13.0419 15.0359 13.0463C15.0403 13.0506 15.0462 13.0531 15.0523 13.0531L15.0756 13.0763C15.7682 13.86 16.156 14.8666 16.1682 15.9124C16.1682 17.016 15.7298 18.0745 14.9494 18.8548C14.169 19.6352 13.1106 20.0736 12.007 20.0736C10.9034 20.0736 9.84497 19.6352 9.0646 18.8548C8.28423 18.0745 7.84582 17.016 7.84582 15.9124C7.84582 14.8431 8.28751 13.9132 8.93842 13.0763L8.96167 13.0531C8.96167 13.0469 8.96412 13.041 8.96848 13.0366C8.97284 13.0323 8.97875 13.0298 8.98491 13.0298C9.00816 13.0066 9.00816 12.9833 9.00816 12.9368C9.00893 12.9096 9.00297 12.8827 8.9908 12.8583C8.97863 12.834 8.96064 12.8131 8.93842 12.7974L8.51998 12.3789C8.48878 12.3488 8.44711 12.332 8.40374 12.332C8.36038 12.332 8.31871 12.3488 8.28751 12.3789L8.26426 12.4022C7.78375 12.855 7.40318 13.4032 7.14696 14.0117C6.89075 14.6202 6.76455 15.2755 6.77647 15.9357C6.774 17.3258 7.32354 18.66 8.30432 19.6452C9.2851 20.6303 10.6169 21.1858 12.007 21.1895C13.3971 21.1858 14.7289 20.6303 15.7097 19.6452C16.6905 18.66 17.24 17.3258 17.2375 15.9357C17.2494 15.2755 17.1232 14.6202 16.867 14.0117C16.6108 13.4032 16.2302 12.855 15.7497 12.4022Z" fill="white"/>
</svg>
