<svg width="24" height="24" viewBox="0 0 24 24" fill="none" xmlns="http://www.w3.org/2000/svg">
<path fill-rule="evenodd" clip-rule="evenodd" d="M16 16.4481H15.6185V19.1916H13.8755V16.4481H11.3831V15.3863H13.8755V13.5617C13.8755 13.5617 12.211 14.7403 9.81495 14.3994C7.19829 14.0271 6.99025 11.4383 6.99025 11.4383V6.15583H8.61688L8.6948 11.3701C8.6948 11.3701 8.75325 12.6737 11.1396 13.0942C12.5669 13.3456 13.8755 12.3377 13.8755 12.3377V6.15583H15.6185V15.3863H16V16.4481ZM12 0C5.37257 0 0 5.37257 0 12C0 18.6274 5.37257 24 12 24C18.6274 24 24 18.6274 24 12C24 5.37257 18.6274 0 12 0Z" fill="#057BC1"/>
<path fill-rule="evenodd" clip-rule="evenodd" d="M15.6185 6.15582H13.8755V12.3376C13.8755 12.3376 12.5669 13.3456 11.1396 13.0941C8.75324 12.6737 8.69479 11.3701 8.69479 11.3701L8.61687 6.15582H6.99023V11.4383C6.99023 11.4383 7.19827 14.0271 9.81493 14.3994C12.211 14.7402 13.8755 13.5616 13.8755 13.5616V15.3863H11.3831V16.4481H13.8755V19.1916H15.6185V16.4481H16V15.3863H15.6185V6.15582Z" fill="white"/>
</svg>
