<svg width="24" height="24" viewBox="0 0 24 24" fill="none" xmlns="http://www.w3.org/2000/svg">
<path d="M12 24C18.6274 24 24 18.6274 24 12C24 5.37258 18.6274 0 12 0C5.37258 0 0 5.37258 0 12C0 18.6274 5.37258 24 12 24Z" fill="#FEC60D"/>
<path d="M20.0003 7.61027L17.4218 6.12602C17.3333 6.07352 17.2515 6.02777 17.1638 5.97752C17.0783 5.92877 16.995 5.87627 16.908 5.82602C16.3913 5.53052 15.873 5.24402 15.3623 4.93802L12.9128 3.52352C12.7703 3.43727 12.0338 3.00452 12.0023 3.00452C11.9895 3.00452 11.8965 3.06452 11.8763 3.07727L8.52977 5.00477C8.48102 5.03252 8.44727 5.05427 8.39777 5.08127C8.35523 5.10483 8.31322 5.12934 8.27177 5.15477L8.01527 5.30477C7.97162 5.33112 7.92762 5.35687 7.88327 5.38202L7.63127 5.52752C7.54277 5.58002 7.45952 5.62502 7.37252 5.67527L6.85427 5.97152C6.80927 5.99477 6.77177 6.01952 6.72827 6.04427L6.08027 6.41927C5.99027 6.47177 5.90702 6.51527 5.81927 6.56552L5.30702 6.86777C5.04977 7.01477 4.79177 7.17152 4.53077 7.31327C4.41602 7.37477 3.81377 7.74227 3.75452 7.75802V17.2935C3.80252 17.298 4.46102 17.6903 4.52927 17.7308L5.56127 18.3278C5.64752 18.3803 5.73377 18.4275 5.81927 18.477L6.32927 18.771C6.37277 18.7935 6.41177 18.819 6.45677 18.8438C6.50627 18.8708 6.53852 18.894 6.58877 18.9188C6.72002 18.9863 6.84602 19.0665 6.97127 19.1423L7.62077 19.5165C7.66577 19.5413 7.70177 19.563 7.74602 19.5893C7.99952 19.7423 8.26277 19.8795 8.51552 20.0318L9.42077 20.5568C10.0185 20.91 10.6283 21.2393 11.223 21.5963L11.9303 22.0058C12.0428 22.0815 12.084 21.996 12.261 21.8993L13.8105 21.0053C13.896 20.9558 13.9793 20.9078 14.0693 20.8575L14.322 20.7128C14.3648 20.6895 14.4045 20.6648 14.4473 20.6385L15.8685 19.8158C16.293 19.5615 16.731 19.3313 17.1555 19.0763L19.9853 17.4368C20.0265 17.412 20.0678 17.3873 20.1113 17.3633C20.1563 17.3393 20.199 17.3055 20.25 17.2943V7.75802C20.1698 7.70402 20.0865 7.66277 20.0003 7.61027ZM14.9078 16.9433H12.4965V17.5748C12.4965 17.5823 12.4935 17.5845 12.486 17.5845H11.3235V16.9433H9.09677V15.1583C9.09677 15.1395 9.11927 15.1238 9.13052 15.1133L9.35627 14.8695C9.36292 14.8634 9.36919 14.8569 9.37502 14.85C9.38022 14.8428 9.38599 14.8361 9.39227 14.8298L9.52352 14.6903L9.52502 14.688L9.56402 14.6483L9.58127 14.6273L9.62327 14.583L9.62777 14.5778L9.76802 14.4263C9.79802 14.3955 9.82802 14.3663 9.85652 14.3325L9.85802 14.331L9.86252 14.325L9.95702 14.2245C9.97052 14.2095 9.98102 14.2013 9.99377 14.1848L10.1078 14.0633L10.1265 14.0445C10.1327 14.0379 10.1385 14.0309 10.1438 14.0235L10.335 13.8195L10.3365 13.818L10.341 13.8128L10.3703 13.7828C10.4078 13.7348 10.4753 13.6748 10.515 13.6268L10.5195 13.6208C10.5323 13.6058 10.5465 13.5953 10.5585 13.581L10.6328 13.5008C10.6853 13.4483 10.7303 13.3913 10.7828 13.3388L10.9515 13.1573L10.9703 13.1385L11.0438 13.0575C11.058 13.0433 11.0715 13.0328 11.0828 13.0178C11.094 13.0028 11.1083 12.9923 11.121 12.9773L11.1953 12.897C11.2028 12.8895 11.2088 12.8843 11.2155 12.876L11.2718 12.8153C11.283 12.8003 11.2973 12.7898 11.31 12.7748C11.343 12.738 11.4375 12.6413 11.4578 12.6143C11.4698 12.5993 11.484 12.5903 11.4945 12.5753C11.4648 12.5389 11.433 12.5043 11.3993 12.4718L11.3258 12.3908L11.3063 12.372C11.2988 12.363 11.2965 12.3585 11.2875 12.3495C11.2298 12.291 11.1765 12.2288 11.118 12.1695L11.0243 12.0683C11.0188 12.061 11.0128 12.0543 11.0063 12.048L10.1438 11.1225C10.138 11.1146 10.1317 11.1071 10.125 11.1L9.99752 10.9628L9.99602 10.9613L9.71327 10.6568C9.70727 10.6493 9.70127 10.6448 9.69452 10.638L9.61952 10.5555C9.56852 10.503 9.51977 10.446 9.46802 10.3943L9.45152 10.3763L9.45002 10.3748L9.39452 10.314C9.36902 10.2863 9.34202 10.2608 9.31727 10.233C9.30902 10.224 9.30752 10.2195 9.29852 10.2105C9.24752 10.1588 9.20102 10.1025 9.14852 10.0515C9.14252 10.044 9.13652 10.0395 9.13052 10.0328C9.12377 10.0253 9.09677 9.99902 9.09677 9.99077V8.19902H11.3228V7.45502C11.7143 7.45502 12.1013 7.46252 12.4928 7.46252V8.17502C12.4928 8.18327 12.495 8.18627 12.5033 8.18627H14.9078V9.99452H11.5905C11.61 10.0245 11.64 10.0493 11.6633 10.0763L11.8478 10.2788C11.859 10.2938 11.871 10.3043 11.8838 10.3193C11.9153 10.3568 11.9505 10.389 11.9813 10.4265L12.2498 10.7213C12.3023 10.7723 12.3473 10.83 12.3975 10.8825L13.0823 11.6348L13.0868 11.6408L13.332 11.9108L13.3508 11.9288C13.3838 11.9618 13.4108 11.9993 13.4438 12.0323L13.8848 12.5145C13.9028 12.534 13.9223 12.552 13.9373 12.5745C13.9305 12.585 13.9253 12.588 13.917 12.597C13.9117 12.6041 13.9059 12.6109 13.8998 12.6173L13.8075 12.717C13.8022 12.7241 13.7964 12.7309 13.7903 12.7373L13.569 12.9795C13.554 12.9938 13.5465 13.0058 13.5315 13.02C13.5015 13.05 13.4565 13.1063 13.4213 13.14L13.2668 13.3118C13.236 13.3485 13.1535 13.4303 13.1288 13.4618L12.909 13.7018C12.8618 13.7595 12.8085 13.809 12.7605 13.866L12.6705 13.9635C12.6255 14.0093 12.5865 14.058 12.543 14.1045C12.5355 14.112 12.5295 14.1173 12.5228 14.1255C12.4718 14.1833 12.4163 14.238 12.366 14.298L12.3585 14.307L12.1658 14.5163L12.1613 14.5215L12.1545 14.529L12.153 14.5313L12.0645 14.6288C12.0583 14.6348 12.0525 14.6413 12.0473 14.6483C12.0415 14.6552 12.0352 14.6617 12.0285 14.6678C11.9903 14.7053 11.9573 14.7503 11.919 14.7878C11.9128 14.7941 11.9071 14.8009 11.9018 14.808L11.8283 14.889C11.8223 14.8965 11.8163 14.901 11.8095 14.9078L11.5905 15.1493H14.8155C14.8463 15.1493 14.9078 15.1418 14.9078 15.159V16.944V16.9433Z" fill="white"/>
</svg>
