<svg width="24" height="24" viewBox="0 0 24 24" fill="none" xmlns="http://www.w3.org/2000/svg">
<path d="M12 24C18.6274 24 24 18.6274 24 12C24 5.37258 18.6274 0 12 0C5.37258 0 0 5.37258 0 12C0 18.6274 5.37258 24 12 24Z" fill="#B30D23"/>
<path d="M12.6847 15.9255L11.9858 17.2275L11.2867 15.9255C7.06425 15.5977 3.75 12.4493 3.75 12.4493C3.75 12.4418 6.9705 9.39075 11.1068 8.98875L11.6542 8.05125L11.9858 7.5L12.5483 8.4375L12.8647 8.98875C17.0002 9.38325 20.2215 12.4493 20.2215 12.4493C20.2215 12.4493 16.9065 15.5977 12.684 15.9255H12.6847ZM4.449 12.4493C4.4415 12.4493 7.6335 14.6302 10.8398 15.0915L9.27675 12.1665L9.70125 11.43L10.0912 12.159L10.0837 12.1665L11.604 15.159C11.7263 15.1665 11.8485 15.1665 11.9715 15.1665C12.0938 15.1665 12.2092 15.1665 12.3315 15.159L13.4482 12.933L14.2628 11.415L14.6873 12.1515L13.1243 15.084C16.3305 14.6302 19.5217 12.5017 19.5217 12.4418C19.5217 12.3893 16.482 10.3582 13.3545 9.837L13.83 10.6635L13.434 11.4592L12.4035 9.73275C12.2644 9.72404 12.1251 9.71903 11.9858 9.71775C11.8485 9.71775 11.7045 9.72525 11.5605 9.73275L10.5082 11.4592L10.1198 10.7002L10.6163 9.8445C7.4895 10.3733 4.449 12.4493 4.449 12.4493Z" fill="white"/>
</svg>
