<svg width="24" height="24" viewBox="0 0 24 24" fill="none" xmlns="http://www.w3.org/2000/svg">
<path d="M12 24C18.6274 24 24 18.6274 24 12C24 5.37258 18.6274 0 12 0C5.37258 0 0 5.37258 0 12C0 18.6274 5.37258 24 12 24Z" fill="#199248"/>
<path d="M12 3C7.02975 3 3 7.02975 3 12C3 16.9703 7.02975 21 12 21C16.9703 21 21 16.9703 21 12C21 9.61305 20.0518 7.32387 18.364 5.63604C16.6761 3.94821 14.3869 3 12 3ZM14.0573 19.677C13.0219 19.9529 11.9414 20.0166 10.8808 19.8642C9.82025 19.7118 8.80142 19.3465 7.88562 18.7903C6.96981 18.2341 6.17594 17.4984 5.55174 16.6276C4.92754 15.7567 4.4859 14.7685 4.25337 13.7226C4.02084 12.6766 4.00223 11.5945 4.19865 10.5411C4.39507 9.48782 4.80247 8.48509 5.39635 7.59325C5.99024 6.7014 6.75834 5.93887 7.65447 5.35149C8.55061 4.7641 9.55627 4.36401 10.611 4.17525C12.6273 3.81899 14.7033 4.25464 16.4063 5.39138C18.1093 6.52813 19.3078 8.27826 19.7522 10.277C20.1965 12.2757 19.8524 14.3688 18.7914 16.12C17.7304 17.8712 16.0346 19.1454 14.0573 19.677Z" fill="white"/>
<path d="M14.1975 5.46525C14.1975 5.853 14.1975 6.24 14.2125 6.62775C13.6937 6.42647 13.1537 6.28505 12.603 6.20624C12.5805 5.85449 12.681 5.46825 12.5782 5.1345C12.1858 5.10652 11.7921 5.10177 11.3992 5.12025C11.3797 5.48175 11.3872 5.84475 11.3992 6.20775C10.8482 6.29018 10.3083 6.4346 9.7897 6.63824C9.80095 6.24674 9.8047 5.85599 9.79945 5.46374C8.43037 5.92473 7.24051 6.8038 6.39762 7.97701C5.55473 9.15022 5.10132 10.5584 5.10132 12.003C5.10132 13.4476 5.55473 14.8558 6.39762 16.029C7.24051 17.2022 8.43037 18.0813 9.79945 18.5422C9.79945 18.1582 9.7957 17.7757 9.7882 17.3932C10.3028 17.5947 10.84 17.7329 11.388 17.805C11.388 18.1567 11.388 18.5085 11.367 18.8565C11.787 18.9165 12.213 18.9165 12.633 18.8565C12.6138 18.5101 12.6038 18.1632 12.603 17.8162C13.1512 17.7392 13.6894 17.6024 14.208 17.4082C14.196 17.7882 14.196 18.1683 14.208 18.5482C15.5765 18.0862 16.7655 17.2064 17.6074 16.0327C18.4494 14.8591 18.9018 13.4508 18.9009 12.0064C18.8999 10.562 18.4458 9.1543 17.6024 7.98171C16.7589 6.80913 15.5688 5.93079 14.1997 5.4705L14.1982 5.46525H14.1975ZM15.225 15.9165C14.319 16.7377 13.032 16.932 11.85 16.9147C10.8127 16.9147 9.7147 16.6335 8.96545 15.8827C8.56795 15.4987 8.34295 14.9857 8.1412 14.4765C8.8657 14.289 9.61345 14.226 10.3432 14.07C10.3886 14.2906 10.4914 14.4954 10.6412 14.6636C10.7911 14.8317 10.9827 14.9574 11.1967 15.0277C11.859 15.2347 12.6795 15.264 13.2315 14.7915C13.623 14.4667 13.6342 13.7565 13.149 13.5135C12.0112 12.9255 10.5937 13.125 9.5182 12.381C8.03695 11.4472 7.92745 8.97074 9.3772 7.96274C10.4857 7.18499 11.9677 7.08824 13.2532 7.40024C14.4157 7.69424 15.2445 8.67974 15.6435 9.771C14.928 9.89474 14.2132 10.0215 13.4977 10.1422C13.3095 9.006 11.7187 8.736 10.9282 9.39825C10.4782 9.7725 10.5937 10.5697 11.1562 10.7692C12.3862 11.2792 13.8637 11.1322 14.9535 11.9857C16.2187 12.8437 16.3507 14.8927 15.2242 15.9157L15.225 15.9165Z" fill="white"/>
</svg>
