<svg width="24" height="24" viewBox="0 0 24 24" fill="none" xmlns="http://www.w3.org/2000/svg">
<mask id="mask0" mask-type="alpha" maskUnits="userSpaceOnUse" x="0" y="0" width="24" height="24">
<path d="M12 23.2485C5.79757 23.2485 0.751465 18.2024 0.751465 12C0.751465 5.7976 5.79757 0.751495 12 0.751495C18.2024 0.751495 23.2485 5.7976 23.2485 12C23.2485 18.2024 18.2024 23.2485 12 23.2485Z" fill="white"/>
</mask>
<g mask="url(#mask0)">
<path d="M12 23.2485C5.79757 23.2485 0.751465 18.2024 0.751465 12C0.751465 5.7976 5.79757 0.751495 12 0.751495C18.2024 0.751495 23.2485 5.7976 23.2485 12C23.2485 18.2024 18.2024 23.2485 12 23.2485Z" fill="#0F100F"/>
<path fill-rule="evenodd" clip-rule="evenodd" d="M13.7817 0.751495V1.53048L15.0787 1.05775L13.7817 0.751495Z" fill="#C4CACA"/>
<path fill-rule="evenodd" clip-rule="evenodd" d="M14.5212 1.60735H13.7817L14.8878 1.12735L14.5212 1.60735Z" fill="#ACB6BA"/>
<path fill-rule="evenodd" clip-rule="evenodd" d="M15.9217 1.46286L14.5212 1.53774L14.8879 1.12841L15.0788 1.05774L15.9217 1.46286Z" fill="#B7BFC3"/>
<path fill-rule="evenodd" clip-rule="evenodd" d="M12.8122 0.633453L12.7637 1.14102L13.7819 1.53047V0.75149L12.8122 0.633453Z" fill="#B7BDBF"/>
<path fill-rule="evenodd" clip-rule="evenodd" d="M11.5636 0.633453L11.3575 1.05774L12.7636 1.14102L12.8121 0.633453H11.5636Z" fill="#BCC2C4"/>
<path fill-rule="evenodd" clip-rule="evenodd" d="M9.50305 0.936508L10.994 1.21527L11.3576 1.05774L11.5636 0.633453L9.50305 0.936508Z" fill="#B5BEC3"/>
<path fill-rule="evenodd" clip-rule="evenodd" d="M8.10889 1.44532C8.11289 1.44394 8.47267 2.07594 8.47267 2.07594L9.6363 1.12736L9.50299 0.936523L8.10889 1.44532Z" fill="#A8AFB1"/>
<path fill-rule="evenodd" clip-rule="evenodd" d="M9.99993 1.66379L8.47266 2.07593L9.63629 1.12735L9.99993 1.66379Z" fill="#9BA2A4"/>
<path fill-rule="evenodd" clip-rule="evenodd" d="M10.994 1.21529L11.406 1.29412L10 1.6638L9.63636 1.12736L9.50305 0.936523L10.994 1.21529Z" fill="#B8BEBF"/>
<path fill-rule="evenodd" clip-rule="evenodd" d="M13.7818 1.60735H12.8121L12.5326 1.12735L12.7636 1.14363L13.7818 1.60735Z" fill="#BEC3C4"/>
<path fill-rule="evenodd" clip-rule="evenodd" d="M10.9939 1.21769L11.3575 1.05774L12.5326 1.12841L12.8121 1.53774L11.406 1.29774L10.9939 1.21769Z" fill="#B5BABA"/>
<path fill-rule="evenodd" clip-rule="evenodd" d="M10 1.66377L11.1151 2.56072L11.406 1.2941L10 1.66377Z" fill="#979C9B"/>
<path fill-rule="evenodd" clip-rule="evenodd" d="M8.47266 2.07593L9.1272 3.16684L9.99993 1.66379L8.47266 2.07593Z" fill="#444545"/>
<path fill-rule="evenodd" clip-rule="evenodd" d="M11.1151 2.56073L10 2.79106V1.66379L11.1151 2.56073Z" fill="#818685"/>
<path fill-rule="evenodd" clip-rule="evenodd" d="M11.406 1.2941L11.903 1.66377L11.1151 2.56072L11.406 1.2941Z" fill="#808686"/>
<path fill-rule="evenodd" clip-rule="evenodd" d="M12.8121 1.601L11.903 1.7741L11.406 1.2941L12.8121 1.601Z" fill="#BBC1C4"/>
<path fill-rule="evenodd" clip-rule="evenodd" d="M10 2.7946L10.4545 3.04073L12.1091 2.85611L11.1151 2.56073L10 2.7946Z" fill="#A3AAAD"/>
<path fill-rule="evenodd" clip-rule="evenodd" d="M12.8122 1.53049L12.6667 2.01049L11.9031 1.73354L12.8122 1.53049Z" fill="#B1B9BD"/>
<path fill-rule="evenodd" clip-rule="evenodd" d="M11.1151 2.56073L11.903 1.66379L12.6667 1.84561L12.1091 2.85164L11.1151 2.56073Z" fill="#7F8485"/>
<path fill-rule="evenodd" clip-rule="evenodd" d="M10.4545 3.03345L9.16356 3.84559L9.1272 3.16683L9.99992 2.79105L10.4545 3.03345Z" fill="#868D8D"/>
<path fill-rule="evenodd" clip-rule="evenodd" d="M8.47272 2.07593L9.12727 3.16684L8.15759 2.96073L8.47272 2.07593Z" fill="#919493"/>
<path fill-rule="evenodd" clip-rule="evenodd" d="M9.16361 3.8456L8.25452 3.93048L9.12724 3.16684L9.16361 3.8456Z" fill="#909697"/>
<path fill-rule="evenodd" clip-rule="evenodd" d="M8.15759 2.96072L8.25454 3.93047L9.12727 3.16683L8.15759 2.96072Z" fill="#989C9C"/>
<path fill-rule="evenodd" clip-rule="evenodd" d="M10.4545 3.03347L10.8484 3.93049L12.109 2.85165L10.4545 3.03347Z" fill="#535554"/>
<path fill-rule="evenodd" clip-rule="evenodd" d="M9.16357 3.84559L9.6363 4.25774L10.4545 3.03345L9.16357 3.84559Z" fill="#4C4F4F"/>
<path fill-rule="evenodd" clip-rule="evenodd" d="M10.8485 3.93047L9.63635 4.25774L10.4545 3.03345L10.8485 3.93047Z" fill="#2F3130"/>
<path fill-rule="evenodd" clip-rule="evenodd" d="M12.8121 1.53049L13.7818 2.66983L13.5394 3.08198L12.6666 1.84561L12.8121 1.53049Z" fill="#888E90"/>
<path fill-rule="evenodd" clip-rule="evenodd" d="M14.5212 1.53049L15.0788 2.73049L13.7818 2.66983L12.8121 1.53049H14.5212Z" fill="#656767"/>
<path fill-rule="evenodd" clip-rule="evenodd" d="M15.6364 1.47171L15.0788 2.73047L14.5212 1.53047L15.6364 1.47171Z" fill="#787D7D"/>
<path fill-rule="evenodd" clip-rule="evenodd" d="M16.6908 2.10111L16.2302 1.32889L15.6364 1.47172L16.6908 2.10111Z" fill="#838C90"/>
<path fill-rule="evenodd" clip-rule="evenodd" d="M15.0787 2.73047L16.1212 3.6456L16.2303 2.79105L15.0787 2.73047Z" fill="#ABAEAF"/>
<path fill-rule="evenodd" clip-rule="evenodd" d="M15.6364 1.47171L16.6909 2.10109L16.2303 2.79106L15.0787 2.73047L15.6364 1.47171Z" fill="#B4BAB9"/>
<path fill-rule="evenodd" clip-rule="evenodd" d="M12.6666 1.84561L13.5393 3.08198L12.109 2.85165L12.6666 1.84561Z" fill="#717473"/>
<path fill-rule="evenodd" clip-rule="evenodd" d="M15.0788 2.73048L14.8879 3.18801L13.5394 3.08198L13.7818 2.66983L15.0788 2.73048Z" fill="#A8AEB0"/>
<path fill-rule="evenodd" clip-rule="evenodd" d="M16.1212 3.6456L14.8878 3.188L15.0787 2.73047L16.1212 3.6456Z" fill="#9EA4A7"/>
<path fill-rule="evenodd" clip-rule="evenodd" d="M16.2303 2.79105L17.3091 3.18799L16.1212 3.64559L16.2303 2.79105Z" fill="#848A8B"/>
<path fill-rule="evenodd" clip-rule="evenodd" d="M16.6909 2.1011L16.2303 2.79107L17.3091 3.18801L16.6909 2.1011Z" fill="#83898A"/>
<path fill-rule="evenodd" clip-rule="evenodd" d="M8.15759 2.96073L7.30908 3.03345L8.47272 2.07593L8.15759 2.96073Z" fill="#969C9D"/>
<path fill-rule="evenodd" clip-rule="evenodd" d="M8.10891 1.44531L8.47269 2.07593L7.30906 3.03346L7.23633 1.66379L8.10891 1.44531Z" fill="#858C8E"/>
<path fill-rule="evenodd" clip-rule="evenodd" d="M8.15759 2.96072L8.25454 3.93047L7.56363 4.36683L7.30908 3.03345L8.15759 2.96072Z" fill="#3A3D3C"/>
<path fill-rule="evenodd" clip-rule="evenodd" d="M9.16358 3.84561L9.6363 4.25776L10.703 5.08198L9.16358 5.60321L8.10889 4.72438L8.25449 3.93048L9.16358 3.84561Z" fill="#858A8A"/>
<path fill-rule="evenodd" clip-rule="evenodd" d="M10.8485 3.93048L10.703 5.08197L9.63635 4.25775L10.8485 3.93048Z" fill="#676A69"/>
<path fill-rule="evenodd" clip-rule="evenodd" d="M12.1091 2.85165L12.4364 3.79711L10.8485 3.93049L12.1091 2.85165Z" fill="#727574"/>
<path fill-rule="evenodd" clip-rule="evenodd" d="M13.5393 3.08198L12.4363 3.79711L12.109 2.85165L13.5393 3.08198Z" fill="#808483"/>
<path fill-rule="evenodd" clip-rule="evenodd" d="M14.8879 3.18801L14.5212 4.02743L13.5394 3.08197L14.8879 3.18801Z" fill="#656867"/>
<path fill-rule="evenodd" clip-rule="evenodd" d="M16.1212 3.64562L15.9878 4.36686L14.8878 3.18802L16.1212 3.64562Z" fill="#8B9191"/>
<path fill-rule="evenodd" clip-rule="evenodd" d="M16.2303 1.32889L17.0424 1.78503L16.6909 2.10111L16.2303 1.32889Z" fill="#AFB4B5"/>
<path fill-rule="evenodd" clip-rule="evenodd" d="M18.194 2.41529L17.8182 2.85165L16.6909 2.10111L17.0424 1.78503L18.194 2.41529Z" fill="#A2A8AB"/>
<path fill-rule="evenodd" clip-rule="evenodd" d="M17.3091 3.18801L17.8182 2.85165L16.6909 2.1011L17.3091 3.18801Z" fill="#7A7F81"/>
<path fill-rule="evenodd" clip-rule="evenodd" d="M7.23631 1.66379L7.28977 2.66982L6.35144 2.73048L7.23631 1.66379Z" fill="#91979A"/>
<path fill-rule="evenodd" clip-rule="evenodd" d="M7.30907 3.03347L6.25453 3.72438L5.76965 3.44561L6.35147 2.73048L7.2898 2.66983L7.30907 3.03347Z" fill="#AFB6BA"/>
<path fill-rule="evenodd" clip-rule="evenodd" d="M7.56361 4.36683C7.47873 4.40319 6.88484 4.79105 6.88484 4.79105L6.25452 3.72436L7.30906 3.03345L7.56361 4.36683Z" fill="#171818"/>
<path fill-rule="evenodd" clip-rule="evenodd" d="M8.10891 4.72437L7.5636 4.36684L8.25451 3.93048L8.10891 4.72437Z" fill="#545859"/>
<path fill-rule="evenodd" clip-rule="evenodd" d="M8.58769 5.12335L7.11511 5.8456L8.10893 4.72437L8.58769 5.12335Z" fill="#151615"/>
<path fill-rule="evenodd" clip-rule="evenodd" d="M7.56365 4.36685L8.10896 4.72438L7.11514 5.84562L6.88489 4.79107L7.56365 4.36685Z" fill="#353838"/>
<path fill-rule="evenodd" clip-rule="evenodd" d="M11.9999 4.25775L10.703 5.08197L10.8485 3.93048L11.9999 4.25775Z" fill="#676A69"/>
<path fill-rule="evenodd" clip-rule="evenodd" d="M12.4364 3.79709L13.6121 4.6456L12 4.25774L10.8485 3.93047L12.4364 3.79709Z" fill="#979D9F"/>
<path fill-rule="evenodd" clip-rule="evenodd" d="M13.5393 3.08197L13.6121 4.64561L12.4363 3.7971L13.5393 3.08197Z" fill="#696C6A"/>
<path fill-rule="evenodd" clip-rule="evenodd" d="M15.9879 4.36686L14.5212 4.02744L14.8879 3.18802L15.9879 4.36686Z" fill="#5B5D5C"/>
<path fill-rule="evenodd" clip-rule="evenodd" d="M13.5394 3.08197L13.6122 4.64561L14.9697 5.08197L14.5212 4.02742L13.5394 3.08197Z" fill="#565958"/>
<path fill-rule="evenodd" clip-rule="evenodd" d="M17.8182 2.85165L17.3091 3.18801L18.4121 3.44561L19.6364 4.02743L19.4545 3.43957L18.194 2.41528L17.8182 2.85165Z" fill="#7E8588"/>
<path fill-rule="evenodd" clip-rule="evenodd" d="M16.1212 3.64562C16.206 3.70016 17.7091 4.2214 17.7091 4.2214L17.3091 3.18802L16.1212 3.64562Z" fill="#808687"/>
<path fill-rule="evenodd" clip-rule="evenodd" d="M15.9878 4.36684L17.309 4.85164L17.709 4.22138L16.1212 3.6456L15.9878 4.36684Z" fill="#767C7D"/>
<path fill-rule="evenodd" clip-rule="evenodd" d="M17.3091 3.18802L18.4121 3.44562L19.6364 4.02744L18.8727 4.79107L17.7091 4.2214L17.3091 3.18802Z" fill="#343736"/>
<path fill-rule="evenodd" clip-rule="evenodd" d="M5.76964 3.44561L4.58179 3.39106L6.03633 2.23942L7.23633 1.66379L6.35146 2.73048L5.76964 3.44561Z" fill="#92989A"/>
<path fill-rule="evenodd" clip-rule="evenodd" d="M6.25451 3.72436L5.13262 4.25774L4.58179 3.39105L5.76964 3.4456L6.25451 3.72436Z" fill="#474949"/>
<path fill-rule="evenodd" clip-rule="evenodd" d="M6.88479 4.79106L5.909 4.36684L5.13257 4.25775L6.25446 3.72437L6.88479 4.79106Z" fill="#404242"/>
<path fill-rule="evenodd" clip-rule="evenodd" d="M4.58179 3.39105L3.73328 4.72436L5.13262 4.25774L4.58179 3.39105Z" fill="#343736"/>
<path fill-rule="evenodd" clip-rule="evenodd" d="M5.26055 4.79106L3.73328 4.72437L5.13262 4.25775L5.26055 4.79106Z" fill="#939A9D"/>
<path fill-rule="evenodd" clip-rule="evenodd" d="M5.68479 5.10619L5.2605 4.79106L5.13257 4.25775L5.909 4.36684L5.68479 5.10619Z" fill="#606567"/>
<path fill-rule="evenodd" clip-rule="evenodd" d="M7.11507 5.84562L5.68481 5.1062L5.90903 4.36685L6.88481 4.79107L7.11507 5.84562Z" fill="#909494"/>
<path fill-rule="evenodd" clip-rule="evenodd" d="M3.73328 4.72437C3.75757 4.87593 3.87873 5.8456 3.87873 5.8456L5.13262 5.76073L4.95757 6.05164L5.68484 6.53651L7.11509 5.8456L5.68484 5.10618L5.26055 4.79106L3.73328 4.72437Z" fill="#0A0B09"/>
<path fill-rule="evenodd" clip-rule="evenodd" d="M4.58173 3.39105L3.73323 4.72436H3.2605L4.58173 3.39105Z" fill="#788084"/>
<path fill-rule="evenodd" clip-rule="evenodd" d="M3.8787 5.8456L2.9939 5.74866V4.99709L3.26051 4.72437H3.73324L3.8787 5.8456Z" fill="#202223"/>
<path fill-rule="evenodd" clip-rule="evenodd" d="M4.95762 6.06387L4.16969 6.24074L3.87878 5.84918L5.13268 5.76074L4.95762 6.06387Z" fill="#535859"/>
<path fill-rule="evenodd" clip-rule="evenodd" d="M5.68489 6.53651L3.87878 7.50618L4.95762 6.05164L5.68489 6.53651Z" fill="#161716"/>
<path fill-rule="evenodd" clip-rule="evenodd" d="M2.89697 7.78502L4.95763 6.05164L3.87879 7.50618L2.89697 7.78502Z" fill="#404446"/>
<path fill-rule="evenodd" clip-rule="evenodd" d="M4.1697 6.22138L4.95763 6.05164L2.89697 7.78502L2.99399 6.91833L4.1697 6.22138Z" fill="#2D2F30"/>
<path fill-rule="evenodd" clip-rule="evenodd" d="M9.16362 5.60321L8.15759 6.37892L7.11511 5.84561L8.58769 5.12335L9.16362 5.60321Z" fill="#323534"/>
<path fill-rule="evenodd" clip-rule="evenodd" d="M10.703 5.08197L11.7985 6.22139L13.2969 7.23957L14.7757 7.90619L15.8848 7.33652L16.7151 8.42742L15.0181 9.48197L13.7818 8.54866L12.8242 8.39106L11.9999 7.65164L10.5575 6.66982L9.16357 5.60321L10.703 5.08197Z" fill="#151615"/>
<path fill-rule="evenodd" clip-rule="evenodd" d="M11.9999 4.25775L12.9394 5.44561H11.8909L10.703 5.08197L11.9999 4.25775Z" fill="#0A0B09"/>
<path fill-rule="evenodd" clip-rule="evenodd" d="M11.7985 6.22139L13.6121 6.53652L12.9394 5.44561H11.8909L10.703 5.08197L11.7985 6.22139Z" fill="#3F403F"/>
<path fill-rule="evenodd" clip-rule="evenodd" d="M13.2969 7.23956L13.6121 6.5365L11.7985 6.22137L13.2969 7.23956Z" fill="#4D4F4F"/>
<path fill-rule="evenodd" clip-rule="evenodd" d="M12 4.25775L13.6121 4.64561L12.9394 5.44561L12 4.25775Z" fill="#373939"/>
<path fill-rule="evenodd" clip-rule="evenodd" d="M14.9696 5.08196L16.1212 5.4456L14.7878 5.6032L13.6121 4.6456L14.9696 5.08196Z" fill="#9DA2A3"/>
<path fill-rule="evenodd" clip-rule="evenodd" d="M9.55148 6.53652L9.16363 5.60321L8.15759 6.37892L9.55148 6.53652Z" fill="#393C3B"/>
<path fill-rule="evenodd" clip-rule="evenodd" d="M11.9999 7.65165L10.703 7.78503L9.55143 6.53652L9.16357 5.60321L10.5575 6.66983L11.9999 7.65165Z" fill="#595B5A"/>
<path fill-rule="evenodd" clip-rule="evenodd" d="M8.15754 6.37892L6.73827 6.69412L5.68481 6.53652L7.11507 5.84561L8.15754 6.37892Z" fill="#4B4E4E"/>
<path fill-rule="evenodd" clip-rule="evenodd" d="M7.90904 7.17891L6.73828 6.69411L8.15755 6.37891L7.90904 7.17891Z" fill="#242625"/>
<path fill-rule="evenodd" clip-rule="evenodd" d="M10.703 7.78502L9.40593 8.088L7.90906 7.17891L8.15757 6.37891L9.55146 6.53651L10.703 7.78502Z" fill="#0A0B09"/>
<path fill-rule="evenodd" clip-rule="evenodd" d="M6.73835 6.6941L5.20002 7.28195L3.87878 7.50617L5.68489 6.5365L6.73835 6.6941Z" fill="#282A29"/>
<path fill-rule="evenodd" clip-rule="evenodd" d="M2.99393 6.91834L2.73938 6.53652L3.87873 5.84561L4.16963 6.22139L2.99393 6.91834Z" fill="#373A3B"/>
<path fill-rule="evenodd" clip-rule="evenodd" d="M2.99393 5.74866L2.73938 6.53651L3.87873 5.8456L2.99393 5.74866Z" fill="#44494A"/>
<path fill-rule="evenodd" clip-rule="evenodd" d="M2.99399 4.9971V5.74866L2.73944 6.53652L1.55151 7.50619L2.20606 5.99106L2.99399 4.9971Z" fill="#454A4C"/>
<path fill-rule="evenodd" clip-rule="evenodd" d="M2.89686 7.78501L2.27264 7.93046L1.76733 7.32995L2.73933 6.5365L2.99388 6.91832L2.89686 7.78501Z" fill="#1B1E1E"/>
<path fill-rule="evenodd" clip-rule="evenodd" d="M5.19996 7.28198L4.33938 8.4638L3.26054 9.14256L1.89087 9.31231L1.70905 8.83958L1.06665 8.6214L1.55145 7.5062L1.76738 7.32998L2.27269 7.93049L2.89691 7.78504L3.87872 7.5062L5.19996 7.28198Z" fill="#0F100F"/>
<path fill-rule="evenodd" clip-rule="evenodd" d="M6.73834 6.69412L7.16365 7.59107L6.53943 8.52438L7.56365 8.96074L8.25456 8.68198L9.2923 9.6638L10.2909 8.96074L9.40598 8.08801L7.9091 7.17892L6.73834 6.69412Z" fill="#0F100F"/>
<path fill-rule="evenodd" clip-rule="evenodd" d="M5.19995 7.28198L6.53937 8.52438L7.16359 7.59107L6.73828 6.69412L5.19995 7.28198Z" fill="#1E211F"/>
<path fill-rule="evenodd" clip-rule="evenodd" d="M3.2605 9.14256L3.8181 9.6638L5.0181 8.24562L5.19992 7.28198L4.33933 8.4638L3.2605 9.14256Z" fill="#282B2C"/>
<path fill-rule="evenodd" clip-rule="evenodd" d="M2.54581 9.23113L1.61206 10.3911L2.20595 11.0092L2.73933 10.6698L3.2605 9.14255L2.54581 9.23113Z" fill="#121413"/>
<path fill-rule="evenodd" clip-rule="evenodd" d="M1.06662 8.6214C1.06051 8.65776 0.799927 9.42744 0.799927 9.42744L1.61207 10.3911L2.54582 9.23114L1.89084 9.31231L1.70902 8.83958L1.06662 8.6214Z" fill="#242727"/>
<path fill-rule="evenodd" clip-rule="evenodd" d="M5.20001 7.28198C5.19041 7.33296 5.01819 8.24562 5.01819 8.24562L6.00873 8.03216L5.20001 7.28198Z" fill="#434545"/>
<path fill-rule="evenodd" clip-rule="evenodd" d="M6.53943 8.52435L5.52088 9.81832L5.01819 8.24559L6.00873 8.03214L6.53943 8.52435Z" fill="#363937"/>
<path fill-rule="evenodd" clip-rule="evenodd" d="M7.08182 10.0759L5.52087 9.81832L6.53942 8.52435L7.08182 10.0759Z" fill="#262827"/>
<path fill-rule="evenodd" clip-rule="evenodd" d="M8.25456 8.68195C8.26365 8.76377 8.33637 10.0759 8.33637 10.0759H7.08183L6.53943 8.52435L7.56365 8.96072L8.25456 8.68195Z" fill="#161716"/>
<path fill-rule="evenodd" clip-rule="evenodd" d="M9.29226 9.6638L8.33633 10.0759L8.25452 8.68198L9.29226 9.6638Z" fill="#1C1E1D"/>
<path fill-rule="evenodd" clip-rule="evenodd" d="M10.703 7.78503L11.8212 9.01834L10.2908 8.96074L9.40588 8.08802L10.703 7.78503Z" fill="#333534"/>
<path fill-rule="evenodd" clip-rule="evenodd" d="M15.0181 9.48197L13.5015 9.26204L11.8212 9.01833L10.703 7.78502L11.9999 7.65164L12.8242 8.39106L13.7818 8.54866L15.0181 9.48197Z" fill="#333534"/>
<path fill-rule="evenodd" clip-rule="evenodd" d="M12.5439 10.4729L13.5015 9.26205L14.109 9.86744L12.5439 10.4729Z" fill="#222423"/>
<path fill-rule="evenodd" clip-rule="evenodd" d="M15.0181 9.48198L14.109 9.86744L13.5015 9.26205L15.0181 9.48198Z" fill="#404140"/>
<path fill-rule="evenodd" clip-rule="evenodd" d="M15.8848 7.33652L14.7757 7.9062L13.2969 7.23958L13.6121 6.53652L14.5212 6.43652L15.8848 7.33652Z" fill="#161817"/>
<path fill-rule="evenodd" clip-rule="evenodd" d="M14.7879 5.60322L14.5213 6.43653L12.9395 5.44562L14.7879 5.60322Z" fill="#191B1A"/>
<path fill-rule="evenodd" clip-rule="evenodd" d="M13.6122 6.53653L12.9395 5.44562L14.5213 6.43653L13.6122 6.53653Z" fill="#606261"/>
<path fill-rule="evenodd" clip-rule="evenodd" d="M13.6122 4.6456L14.7879 5.6032L12.9395 5.4456L13.6122 4.6456Z" fill="#8F9394"/>
<path fill-rule="evenodd" clip-rule="evenodd" d="M17.3091 4.85165L16.9727 5.44562H16.1212L14.9697 5.08198L14.5212 4.02744L15.9879 4.36685L17.3091 4.85165Z" fill="#6A6C6B"/>
<path fill-rule="evenodd" clip-rule="evenodd" d="M19.4546 3.43958L21 4.92743L20.3273 4.85165L19.7091 5.12437L18.8727 5.99107L18.194 5.70016L18.6364 4.85165L18.8727 4.79107L19.6364 4.02743L19.4546 3.43958Z" fill="#0A0B09"/>
<path fill-rule="evenodd" clip-rule="evenodd" d="M17.3091 4.85163L18.194 5.70014L18.6364 4.85163L18.8727 4.79105L17.7091 4.22137L17.3091 4.85163Z" fill="#5F6363"/>
<path fill-rule="evenodd" clip-rule="evenodd" d="M14.5212 6.43653L16.0545 6.61835L17.2545 6.37893L17.3091 4.85165L16.9727 5.44562H16.1212L14.7879 5.60322L14.5212 6.43653Z" fill="#131513"/>
<path fill-rule="evenodd" clip-rule="evenodd" d="M15.8849 7.33652L16.0545 6.61834L14.5212 6.43652L15.8849 7.33652Z" fill="#484A49"/>
<path fill-rule="evenodd" clip-rule="evenodd" d="M18.8727 5.99107L18.3909 6.61835L18.194 5.70016L18.8727 5.99107Z" fill="#282B2C"/>
<path fill-rule="evenodd" clip-rule="evenodd" d="M19.709 5.12436L20.0727 5.80923L19.709 6.6941L18.3909 6.61832L18.8727 5.99105L19.709 5.12436Z" fill="#7C807F"/>
<path fill-rule="evenodd" clip-rule="evenodd" d="M17.3091 4.85165L18.194 5.70016L18.3909 6.61835L17.4909 7.33653H15.8849L16.0546 6.61835L17.2546 6.37893L17.3091 4.85165Z" fill="#4B4E4D"/>
<path fill-rule="evenodd" clip-rule="evenodd" d="M21 4.92744L21.4637 5.60322L20.0727 5.80925L19.7091 5.12438L20.3273 4.85165L21 4.92744Z" fill="#666A6B"/>
<path fill-rule="evenodd" clip-rule="evenodd" d="M19.7091 6.69411L20.7455 6.95469L20.0727 5.80923L19.7091 6.69411Z" fill="#242626"/>
<path fill-rule="evenodd" clip-rule="evenodd" d="M17.4909 7.33652L16.7151 8.42743L15.8849 7.33652H17.4909Z" fill="#161716"/>
<path fill-rule="evenodd" clip-rule="evenodd" d="M20.7454 6.95471C20.7545 7.02744 21.2727 8.42744 21.2727 8.42744L19.7091 7.99107L18.6181 7.51835L17.9181 8.08802C17.9181 8.08802 17.1909 9.33653 17.1909 9.30926C17.1909 9.28198 16.7151 8.42744 16.7151 8.42744L17.4909 7.33653L18.3909 6.61835L19.7091 6.69413L20.7454 6.95471Z" fill="#0F100F"/>
<path fill-rule="evenodd" clip-rule="evenodd" d="M19.1546 9.10016L17.9182 8.08801L18.6182 7.51834L19.7091 7.99107L19.3818 8.08801L19.1546 9.10016Z" fill="#242625"/>
<path fill-rule="evenodd" clip-rule="evenodd" d="M21.2727 8.42743L22.0909 9.20924L21.8909 10.1365L21.2182 9.10015L19.6364 8.90015L19.8497 8.03033L21.2727 8.42743Z" fill="#3D3F3F"/>
<path fill-rule="evenodd" clip-rule="evenodd" d="M19.1545 9.10015L19.6364 8.90015L19.8497 8.03033L19.7091 7.99106L19.3818 8.088L19.1545 9.10015Z" fill="#0F100E"/>
<path fill-rule="evenodd" clip-rule="evenodd" d="M21.4637 5.60321L21.8273 6.30016L21.0909 7.09107L21.2728 8.42743L20.7455 6.9547L20.0728 5.80925L21.4637 5.60321Z" fill="#444849"/>
<path fill-rule="evenodd" clip-rule="evenodd" d="M22.0909 9.20925L21.8273 7.69107L21.2727 8.42743L22.0909 9.20925Z" fill="#121413"/>
<path fill-rule="evenodd" clip-rule="evenodd" d="M21.8273 6.30014V7.69105L21.2728 8.42741L21.0909 7.09105L21.8273 6.30014Z" fill="#515454"/>
<path fill-rule="evenodd" clip-rule="evenodd" d="M22.8273 8.2032L21.9204 8.22741L21.8273 7.69105V6.30014L22.5727 7.3365L22.8273 8.2032Z" fill="#343738"/>
<path fill-rule="evenodd" clip-rule="evenodd" d="M19.1545 9.10016L18.9939 9.86743L18.009 9.26205L19.1545 9.10016Z" fill="#2C2E2E"/>
<path fill-rule="evenodd" clip-rule="evenodd" d="M9.99993 2.79106L9.1272 3.16684L9.99993 1.66379V2.79106Z" fill="#4C4F4F"/>
</g>
</svg>
