<svg width="24" height="24" viewBox="0 0 24 24" fill="none" xmlns="http://www.w3.org/2000/svg">
<path d="M12 24C18.6274 24 24 18.6274 24 12C24 5.37258 18.6274 0 12 0C5.37258 0 0 5.37258 0 12C0 18.6274 5.37258 24 12 24Z" fill="#1C1C1C"/>
<path d="M11.7862 10.0747C12.0157 10.1685 12.2452 10.1212 12.429 10.0747C12.567 10.5427 12.7965 10.9635 13.0252 11.1502C12.888 12.3202 12.4747 12.741 12.0157 12.741C11.3737 12.741 11.052 11.3842 11.052 11.151C11.19 11.0572 11.6032 10.776 11.787 10.0747H11.7862ZM11.0977 14.1915C11.3737 13.9575 11.5567 13.5832 11.7862 12.975C11.97 13.0687 12.2452 13.0215 12.429 12.975C12.567 13.6297 12.7042 14.0512 13.0252 14.238C12.9337 14.9865 12.4747 15.501 12.0615 15.501C11.4652 15.501 11.19 14.5657 11.0977 14.1915ZM7.42647 15.6412C7.61022 15.4072 7.61021 15.0337 7.51871 14.3317C7.65596 14.3782 7.79397 14.3782 7.88622 14.3317C8.16072 14.9865 8.39021 15.4072 8.75772 15.6412C8.80346 15.969 8.75772 16.3432 8.61972 16.3897C8.11496 16.6237 7.65597 16.0155 7.42722 15.6412H7.42647ZM5.49896 14.3782C5.59121 14.3782 5.63697 14.3782 5.72847 14.4255C6.05022 15.267 6.60071 15.735 6.60071 15.735C6.78446 16.1092 6.87597 16.4835 6.73797 16.4835C6.32547 16.53 6.00372 16.2495 5.68272 15.6412C5.72847 15.501 5.68271 15.4072 5.49896 14.3782ZM4.25996 14.3782C4.71896 16.3432 5.59122 16.2495 5.54547 16.1557C5.36172 15.8287 5.17796 15.6885 4.99421 15.5482C4.58171 15.1267 4.25996 14.238 4.25996 14.3782ZM9.85872 15.6412C10.1805 15.4072 10.2262 14.8927 10.272 14.2387C10.4557 14.2845 10.6845 14.2845 10.8225 14.2387C10.9147 14.6587 11.052 15.267 11.4652 15.5482C11.4195 16.0627 11.2815 16.3432 10.9605 16.3897C10.731 16.4835 10.0882 16.4835 9.85872 15.6412ZM5.91221 14.1915C6.09596 13.9575 6.14172 13.5832 6.18747 13.0687C6.32546 13.1152 6.50922 13.1152 6.59997 13.0687C6.73797 13.6762 6.96747 14.0512 7.24346 14.2387C7.33496 15.2205 7.24347 15.5482 7.05972 15.5482C6.64722 15.5482 6.09596 14.6587 5.91221 14.1907V14.1915ZM4.48947 14.1915C4.48947 14.0977 4.53522 13.4895 4.58172 13.0687H4.76472C4.99422 13.9575 5.31596 14.2387 5.31596 14.2387C5.54546 15.3142 5.54546 15.5947 5.36096 15.501C4.94846 15.3607 4.62747 14.5657 4.48947 14.1915ZM8.16071 14.1915C8.39021 14.004 8.52821 13.677 8.61972 13.0687C8.84922 13.1617 9.07871 13.1152 9.21671 13.0687C9.35396 13.6762 9.58421 14.0512 9.90521 14.2387C9.90521 14.7525 9.85871 15.5947 9.21671 15.4537C8.66546 15.3142 8.20721 14.3782 8.16071 14.1915ZM7.74822 14.0512C7.19697 14.0512 6.87597 13.1617 6.87597 12.8812C7.15122 12.6007 7.28847 12.0862 7.42647 11.1975C7.51872 11.244 7.65597 11.244 7.79397 11.1975C7.83972 12.18 8.11497 12.6007 8.34447 12.8347C8.25297 13.6297 8.02347 14.0512 7.74822 14.0512ZM4.90272 12.8812C4.99422 12.6937 4.99422 12.6472 5.27022 11.1975H5.49896C5.49896 12.18 5.77421 12.6472 5.91221 12.8347C5.86647 13.3492 5.95797 14.0512 5.54472 14.0512C5.36172 14.0512 5.13222 13.8172 4.90272 12.8812ZM3.98472 11.244C4.12272 11.2912 4.03047 12.507 4.21421 12.9285C4.21421 12.9285 4.21422 14.0977 4.12272 14.004C3.43422 13.1617 3.89322 11.1975 3.98472 11.244ZM9.49197 12.8812C9.81297 12.6472 9.99671 12.1327 10.272 11.1975C10.4557 11.244 10.6845 11.244 10.8225 11.1975C10.9147 11.8987 11.0977 12.414 11.4652 12.7875C11.3737 13.536 11.0062 14.0512 10.5472 14.0512C9.81296 14.0512 9.53771 13.0215 9.49197 12.8812ZM5.72847 11.0572C6.09597 10.917 6.32546 10.1212 6.37121 10.0275C6.42171 10.0728 6.48714 10.0978 6.55497 10.0978C6.62279 10.0978 6.68822 10.0728 6.73871 10.0275C6.73871 10.6357 6.92172 10.917 7.05972 11.01C6.92172 11.805 6.73796 12.741 6.32471 12.741C5.95796 12.741 5.77421 11.8987 5.72847 11.0572ZM4.58096 12.7875C4.25996 12.7875 4.16846 11.5717 4.25996 11.0572C4.25996 11.0572 4.53521 10.6357 4.71896 10.0275C4.76471 10.0275 4.85697 10.0747 4.90272 10.0275C4.85697 10.6357 4.94846 10.917 5.03996 11.0572C5.03996 11.0572 4.81122 12.7875 4.58172 12.7875H4.58096ZM8.06921 11.0572C8.25296 10.9635 8.61972 10.449 8.80346 9.98099C8.98722 10.0747 9.17097 10.0747 9.39971 10.0275C9.49197 10.5427 9.62921 10.8697 9.95096 11.0572C9.81296 11.8987 9.53771 12.741 8.94146 12.741C8.39021 12.741 8.11496 11.6182 8.06921 11.0572ZM8.48172 9.79424C8.20722 10.5427 7.93122 10.9635 7.56447 10.9635C7.10547 10.9635 7.05972 9.98099 7.05972 9.88724C7.42722 9.60674 7.70171 9.04574 7.93121 8.57774H8.25296C8.16071 9.27899 8.34447 9.60674 8.48247 9.79424H8.48172ZM6.23321 8.62424C6.00372 9.27899 6.09597 9.60674 6.18822 9.84074C5.82072 10.776 5.63697 11.0107 5.36172 11.0107C5.08647 10.9635 5.08646 10.4017 5.17796 9.93449C5.45321 9.74699 6.05022 8.67149 6.05022 8.62424H6.23321ZM4.90272 8.67149C5.03997 8.62424 4.53522 9.32624 4.58172 9.65399C4.62672 10.1212 4.07622 10.917 4.03047 10.8697C3.84747 10.8232 4.21422 9.13874 4.90272 8.67149ZM11.4195 9.79424C11.2815 10.3087 11.0977 10.9635 10.3177 10.9635C9.90521 10.917 9.67571 10.356 9.58347 9.88724C10.0425 9.56024 10.272 8.99849 10.41 8.57774C10.5472 8.62424 10.7775 8.62424 10.9147 8.57774C11.0062 9.27899 11.2357 9.60674 11.4195 9.79424ZM5.17796 8.53049C5.26946 8.48399 5.86647 7.68899 6.18747 7.68899C6.37122 7.73549 5.86647 8.20349 5.91221 8.43749C5.77421 8.67149 5.13222 9.83999 4.90272 9.83999C4.71897 9.83999 4.71896 9.23249 5.17796 8.53049ZM16.4677 14.3317C16.4212 15.033 16.4212 15.4072 16.5592 15.6412C16.3755 16.0162 15.8707 16.5772 15.3667 16.3897C15.1822 16.3432 15.1822 15.969 15.228 15.6412C15.6412 15.4072 15.9165 14.94 16.1002 14.3317C16.1917 14.3782 16.3297 14.3782 16.4677 14.3317ZM18.303 14.3317C18.3487 14.3782 18.441 14.3782 18.5325 14.2845C18.3487 15.3142 18.303 15.4072 18.3487 15.5482C18.0277 16.1557 17.7067 16.3897 17.2935 16.3897C17.1097 16.3897 17.202 16.0627 17.4315 15.6412C17.4315 15.6412 17.982 15.174 18.303 14.3317ZM19.038 15.5482C18.8535 15.735 18.6705 15.8287 18.5325 16.1557C18.4867 16.2495 19.359 16.3432 19.8172 14.3782C19.7257 14.238 19.4497 15.1267 19.0372 15.5482H19.038ZM13.7595 14.3317C13.7595 14.8927 13.8975 15.4072 14.1727 15.735C13.9432 16.53 13.3012 16.53 13.0717 16.4835C12.75 16.3897 12.6585 16.1092 12.567 15.6412C12.9337 15.3142 13.1175 14.7525 13.209 14.3317C13.3927 14.3782 13.5765 14.3782 13.7595 14.3317ZM17.8897 13.0215C17.8897 13.5832 17.9362 13.9575 18.1657 14.1442C17.982 14.6122 17.3857 15.5017 17.0182 15.5017C16.8345 15.5017 16.743 15.174 16.8345 14.1915C17.1097 14.004 17.3392 13.536 17.4772 13.0215C17.5402 13.0568 17.6112 13.0754 17.6835 13.0754C17.7557 13.0754 17.8267 13.0568 17.8897 13.0215ZM19.542 13.1152C19.542 13.4902 19.542 14.0977 19.6342 14.238C19.4505 14.613 19.1295 15.408 18.762 15.5482C18.5325 15.5947 18.5782 15.3142 18.8077 14.2845C18.8077 14.2845 19.1295 13.9575 19.359 13.1152H19.542ZM15.4575 13.0215C15.5497 13.677 15.6412 14.004 15.9165 14.1442C15.8715 14.3782 15.366 15.3142 14.8612 15.4072C14.2185 15.5482 14.1727 14.6587 14.1727 14.1915C14.4937 14.004 14.7232 13.5832 14.8612 13.0215C14.9992 13.0687 15.2287 13.1152 15.4575 13.0215ZM17.202 12.8812C17.1555 13.1617 16.7887 14.0512 16.3297 14.0512C16.0545 14.0512 15.825 13.5832 15.7335 12.8347C15.963 12.6472 16.2382 12.18 16.284 11.1975C16.402 11.2443 16.5334 11.2443 16.6515 11.1975C16.8345 12.0397 16.9725 12.6007 17.202 12.8812ZM18.8077 11.1975C19.0372 12.6472 19.083 12.6945 19.1752 12.8812C18.9457 13.77 18.7162 14.0512 18.5325 14.0512C18.12 14.0512 18.2115 13.3027 18.165 12.8347C18.3487 12.6472 18.5782 12.18 18.5782 11.1975C18.6705 11.244 18.7162 11.1975 18.8077 11.1975ZM19.7715 12.8812C20.001 12.507 19.9095 11.2912 20.001 11.1975C20.139 11.1502 20.5515 13.209 19.8637 13.9575C19.7715 14.0512 19.7715 12.8812 19.7715 12.8812ZM13.8975 11.1975C14.0355 12.1327 14.265 12.6472 14.6775 12.8812C14.6317 13.0215 14.265 14.0512 13.6222 14.0512C13.1175 14.0977 12.8422 13.4895 12.7042 12.7875C13.0252 12.414 13.2547 11.8987 13.347 11.1975C13.4385 11.244 13.668 11.244 13.8975 11.1975ZM17.7067 10.0275C17.7067 10.1212 17.982 10.917 18.303 11.1502C18.303 11.9452 18.0735 12.8347 17.7067 12.8347C17.2935 12.8347 17.1097 11.946 16.9717 11.1037C17.1097 10.9635 17.2935 10.6357 17.2935 10.0747C17.3608 10.1015 17.4337 10.1112 17.5057 10.103C17.5776 10.0948 17.6465 10.0688 17.706 10.0275H17.7067ZM19.7715 11.0572C19.8172 11.5717 19.7257 12.7875 19.4962 12.741C19.2667 12.741 19.0372 11.01 19.0372 11.01C19.1295 10.8697 19.221 10.5427 19.1752 10.0275C19.2004 10.0502 19.2332 10.0628 19.2671 10.0628C19.301 10.0628 19.3338 10.0502 19.359 10.0275C19.542 10.6357 19.7715 11.0572 19.7715 11.0572ZM15.2745 10.0275C15.4575 10.449 15.7792 10.9635 16.0545 11.1037C16.0087 11.6655 15.687 12.7875 15.1822 12.7875C14.4937 12.8347 14.3107 11.9925 14.1727 11.1037C14.448 10.9162 14.6317 10.5427 14.6775 10.0747C14.8612 10.1212 15.09 10.1212 15.2745 10.0275ZM16.422 10.917C16.1002 10.9635 15.825 10.542 15.504 9.79424C15.687 9.60674 15.825 9.23249 15.7335 8.57774C15.8707 8.62424 15.963 8.62424 16.0545 8.57774C16.3297 9.09224 16.605 9.60674 16.926 9.84074C16.926 9.98099 16.881 10.917 16.4212 10.917H16.422ZM17.8897 9.79424C17.9362 9.60674 18.0277 9.27899 17.7525 8.57774H17.9362C17.9362 8.62424 18.5782 9.74774 18.8077 9.88724C18.9 10.4017 18.9 10.917 18.624 10.9635C18.3952 10.9635 18.2115 10.7295 17.8897 9.79349V9.79424ZM19.4497 9.65324C19.4962 9.32624 19.0372 8.62424 19.083 8.67074C19.818 9.13874 20.0932 10.8232 19.9552 10.8697C19.9095 10.917 19.4047 10.0747 19.4505 9.65324H19.4497ZM13.6222 10.917C12.9337 10.9635 12.75 10.3087 12.6127 9.79424C12.8422 9.65324 13.0717 9.23249 13.1175 8.57774C13.2547 8.62424 13.485 8.62424 13.6222 8.57774C13.7595 8.99849 13.9897 9.56024 14.3565 9.84074C14.3107 10.4017 14.0812 10.8697 13.6215 10.917H13.6222ZM17.8897 7.68899C18.1192 7.68899 18.8077 8.48399 18.8535 8.53049C19.359 9.27899 19.359 9.84074 19.1752 9.84074C18.9 9.84074 18.303 8.67074 18.1657 8.43749C18.2107 8.20349 17.7067 7.68899 17.8897 7.68899ZM7.70171 7.82924C7.61022 8.10974 7.56447 8.39024 7.70171 8.53049C7.42647 9.09224 6.96747 9.88799 6.55422 9.84074C6.09597 9.74699 6.46271 8.67074 6.50921 8.57774C6.78447 8.43749 7.42646 7.54874 7.65671 7.54874C7.79396 7.59524 7.70171 7.82924 7.70171 7.82924ZM9.85872 7.78274C9.85872 8.06324 9.90521 8.39024 10.134 8.53049C9.95096 9.09224 9.58347 9.84074 8.98647 9.79424C8.57397 9.74699 8.48247 9.04574 8.57397 8.53049C8.98646 8.39024 9.35396 7.50149 9.62921 7.50149C9.85872 7.50149 9.85872 7.73549 9.85872 7.78274ZM16.3762 8.53049C16.4677 8.39024 16.4677 8.11049 16.3762 7.82924C16.3762 7.78274 16.284 7.54874 16.4212 7.54874C16.6507 7.54874 17.2935 8.43749 17.5687 8.57774C17.6145 8.67149 17.9812 9.74774 17.523 9.84074C17.064 9.88724 16.6507 9.04574 16.3755 8.53049H16.3762ZM13.9432 8.53049C14.127 8.39024 14.1727 8.06324 14.2185 7.78274C14.2185 7.73549 14.2185 7.50149 14.448 7.50149C14.6775 7.45499 15.1365 8.39024 15.504 8.53049C15.6412 9.13874 15.549 9.74699 15.0907 9.79424C14.448 9.88724 14.127 9.04574 13.9432 8.53049ZM12.0157 7.50149C12.4747 7.50149 12.4747 8.39024 12.8422 8.57774C12.8422 8.81174 12.7042 9.84074 11.97 9.84074C11.3272 9.84074 11.19 8.99849 11.1442 8.57774C11.6947 8.34374 11.5117 7.50149 12.0157 7.50149Z" fill="white"/>
</svg>
