<svg width="24" height="24" viewBox="0 0 24 24" fill="none" xmlns="http://www.w3.org/2000/svg">
<path d="M0.487472 15.75C0.656222 15.4875 0.806222 15.2625 0.974972 15L1.25622 15.1688C4.78122 17.4375 8.32497 19.7063 11.85 21.9938C12.0562 22.125 12.1875 22.1438 12.3937 21.9938C15.75 19.8188 19.125 17.6625 22.5 15.5063C22.8937 15.2625 23.1 14.9438 23.0812 14.475C23.0625 14.0063 23.0812 13.5375 23.0812 12.9938C22.95 13.0688 22.8375 13.125 22.7437 13.1813C19.3687 15.3375 15.9937 17.475 12.6187 19.6313C12.2062 19.8938 11.85 19.9125 11.4375 19.65C8.00622 17.4563 4.57497 15.2625 1.12497 13.1063C0.374972 12.6375 -2.75373e-05 12.0188 0.0374725 11.1188C0.0749725 10.4625 0.0374725 9.80625 0.0374725 9.15C0.0374725 8.85 0.149972 8.625 0.412472 8.45625C4.12497 6 7.87497 3.5625 11.6062 1.125C11.7562 1.03125 11.9062 0.900002 12.075 0.881252C12.2812 0.862502 12.525 0.900002 12.675 1.0125C16.3125 3.31875 19.95 5.625 23.5875 7.95C24.15 8.30625 24.1125 8.90625 23.5312 9.2625L15.15 14.55C14.325 15.075 13.5 15.5625 12.6937 16.1063C12.3 16.3688 11.9625 16.3688 11.55 16.1063C8.13747 13.95 4.68747 11.7938 1.25622 9.6375C1.16247 9.58125 1.06872 9.525 0.937472 9.45C0.937472 10.1625 0.918722 10.8375 0.937472 11.5125C0.956222 11.85 1.19997 12.075 1.48122 12.2438L9.63747 17.4188C10.35 17.8688 11.0437 18.3 11.7375 18.7688C11.9062 18.8813 12.0375 18.8813 12.225 18.7688C15.675 16.5563 19.1437 14.3438 22.6125 12.15C22.7062 12.0938 22.8 12.0188 22.8937 11.9813C23.4 11.7375 23.9437 12.0375 23.9625 12.6C23.9812 13.3313 23.9812 14.0625 23.9625 14.7938C23.9437 15.4313 23.6062 15.8813 23.0625 16.2188C20.775 17.6813 18.4875 19.1438 16.2 20.625C15 21.3938 13.7812 22.1625 12.5812 22.95C12.2437 23.175 11.9437 23.175 11.6062 22.95C7.96872 20.5875 4.29372 18.225 0.637472 15.8625C0.581222 15.8438 0.543722 15.8063 0.487472 15.75ZM1.61247 8.7375C1.68747 8.8125 1.76247 8.85 1.81872 8.90625C5.19372 11.025 8.56872 13.1438 11.925 15.2625C12.0937 15.375 12.2062 15.3375 12.3562 15.2438C15.7687 13.0875 19.1812 10.9313 22.5937 8.79375C22.6687 8.7375 22.7625 8.68125 22.8562 8.60625C22.7812 8.55 22.7437 8.5125 22.6875 8.475C19.275 6.3 15.8625 4.125 12.4312 1.95C12.2437 1.81875 12.1125 1.89375 11.9625 1.9875C9.63747 3.50625 7.29372 5.04375 4.96872 6.5625C3.84372 7.275 2.73747 8.00625 1.61247 8.7375Z" fill="#2A8AC7"/>
</svg>
