<svg width="24" height="24" viewBox="0 0 24 24" fill="none" xmlns="http://www.w3.org/2000/svg">
<g clip-path="url(#clip0)">
<path d="M2.52346 9.2135L0 11.7365H5.04653L2.52346 9.2135Z" fill="#A02870"/>
<path d="M5.04591 12.2635H0.000915527L2.52332 14.7863L5.04591 12.2635Z" fill="#80286C"/>
<path d="M8.46864 8.84091L5.94537 6.31784V11.3637L8.46864 8.84091Z" fill="#C42C79"/>
<path d="M5.41864 11.3637V6.31784L2.89557 8.84091L5.41864 11.3637Z" fill="#A02870"/>
<path d="M8.84157 8.46809L11.3645 5.9455H6.31812L8.84157 8.46809Z" fill="#C42C79"/>
<path d="M8.84162 2.89554L6.31787 5.4188H11.3642L8.84162 2.89554Z" fill="#E4327F"/>
<path d="M14.7863 2.52307L12.2634 0V5.04586L14.7863 2.52307Z" fill="#0A8B4B"/>
<path d="M11.7365 5.04605V0L9.2135 2.52307L11.7365 5.04605Z" fill="#E4327F"/>
<path d="M8.46864 15.1585L5.94537 12.6359V17.6817L8.46864 15.1585Z" fill="#632A69"/>
<path d="M2.89581 15.1585L5.41882 17.6812V12.6359L2.89581 15.1585Z" fill="#80286C"/>
<path d="M15.1589 8.46809L17.6818 5.9455H12.636L15.1589 8.46809Z" fill="#167B55"/>
<path d="M12.6358 5.41861H17.6819L15.1589 2.89554L12.6358 5.41861Z" fill="#0A8B4B"/>
<path d="M11.3644 18.5806H6.31787L8.84094 21.104L11.3644 18.5806Z" fill="#402863"/>
<path d="M8.84162 15.5314L6.31836 18.054H11.3637L8.84162 15.5314Z" fill="#632A69"/>
<path d="M21.1042 8.84093L18.5812 6.31815V11.3635L21.1042 8.84093Z" fill="#21695E"/>
<path d="M15.5314 8.84091L18.0545 11.364V6.31784L15.5314 8.84091Z" fill="#167B55"/>
<path d="M9.21368 21.4765L11.7365 23.9993V18.9535L9.21368 21.4765Z" fill="#402863"/>
<path d="M12.2634 18.9537V23.9991L14.7865 21.4766L12.2634 18.9537ZM15.1589 21.1041L17.6822 18.5808H12.6355L15.1589 21.1041Z" fill="#223160"/>
<path d="M15.1589 15.5314L12.6363 18.054H17.6814L15.1589 15.5314Z" fill="#1E4561"/>
<path d="M18.5814 12.6359V17.6813L21.1041 15.1584L18.5814 12.6359Z" fill="#245661"/>
<path d="M15.5314 15.1584L18.0545 17.6815V12.6356L15.5314 15.1584Z" fill="#1E4561"/>
<path d="M21.4768 14.7863L24 12.2632H18.954L21.4768 14.7863Z" fill="#245661"/>
<path d="M21.4768 9.2135L18.9533 11.7365H24L21.4768 9.2135Z" fill="#21695E"/>
</g>
<defs>
<clipPath id="clip0">
<rect width="24" height="23.9993" fill="white"/>
</clipPath>
</defs>
</svg>
