<svg width="24" height="24" viewBox="0 0 24 24" fill="none" xmlns="http://www.w3.org/2000/svg">
<g clip-path="url(#clip0)">
<path d="M4.7416e-06 5.6208C-0.0625943 3.75511 1.38362 2.19131 3.23234 2.12695C3.75239 2.10919 4.26939 2.21337 4.74197 2.43118C5.21455 2.64898 5.62961 2.97435 5.95393 3.38127C5.16881 3.70246 2.86376 4.91992 1.74576 8.4711C1.23276 8.18797 0.802133 7.7764 0.496095 7.27672C0.190056 6.77705 0.0191068 6.20643 4.7416e-06 5.6208ZM2.38111 8.3617H8.69308C8.43061 6.71173 7.5287 5.23158 6.18268 4.24186C6.03818 4.13539 5.91415 4.0529 5.8182 3.99322C4.29742 5.11003 3.10992 6.62035 2.38345 8.3617H2.38111ZM15.3689 8.3617H21.4925C20.7893 6.6768 19.6542 5.20712 18.2017 4.10087C18.1104 4.15937 17.9963 4.23543 17.8671 4.33079C16.5456 5.3017 15.6508 6.7461 15.3701 8.3617H15.3689ZM7.39488 13.4129C8.35473 12.1874 8.84243 10.6579 8.76913 9.10294H2.10614C1.56445 10.7603 1.44797 12.5272 1.7674 14.2413C4.21345 14.2045 5.17759 12.6032 5.17759 12.6032L5.82815 13.3579C4.75051 14.7386 3.11416 15.0914 1.98036 15.1534C2.05836 15.4354 2.14943 15.7123 2.25357 15.9842C4.79205 15.8952 6.4009 14.686 7.39605 13.4129H7.39488ZM9.65313 10.5626C9.36529 12.2072 8.75217 13.4293 7.99337 14.3414C8.41928 14.8761 9.63148 16.0298 12.1653 15.9871C12.1653 15.9871 14.1544 16.1667 16.0499 14.428C15.2941 13.5176 14.6845 12.2967 14.3919 10.6515C14.3919 10.6515 13.5799 5.78344 17.2264 3.4427C15.8346 2.6122 14.2662 2.12247 12.6491 2.01346V5.93321H11.4667V2C9.83056 2.0714 8.23513 2.53274 6.81335 3.34559C10.4687 5.68574 9.65313 10.5626 9.65313 10.5626ZM21.1743 2.18078C20.597 2.08306 20.0042 2.13688 19.4539 2.33695C18.9036 2.53702 18.4147 2.8765 18.035 3.32219C21.0087 4.95268 21.8681 7.42798 22.1829 8.45999C22.6462 8.22315 23.0477 7.88118 23.3552 7.46142C23.6627 7.04167 23.8677 6.55577 23.9538 6.04261C24.2598 4.21846 23.0154 2.48909 21.1743 2.18078ZM18.276 13.1707L18.978 12.423C18.978 12.423 19.8492 13.9137 22.1466 14.0178C22.2374 13.4612 22.283 12.8981 22.2829 12.3341C22.2838 11.2365 22.1098 10.1458 21.7675 9.10294H15.2841C15.1877 10.6873 15.6749 12.2522 16.6537 13.5018C17.6213 14.7404 19.1693 15.9192 21.5902 16.0614C21.734 15.6897 21.8559 15.31 21.9553 14.9241C20.8332 14.8433 19.3062 14.4707 18.276 13.1707ZM11.434 18.0599V17.3216C10.0942 17.1917 8.6258 16.5979 7.14916 15.1897C5.53973 16.5405 3.62724 16.8787 2.68357 16.9618C3.90621 19.4005 6.04018 21.2595 8.62346 22.1364C9.28958 21.8481 9.88595 21.4199 10.3721 20.8809C11.0617 20.1036 11.4398 19.0989 11.434 18.0599ZM10.2733 22.5454C11.4487 22.735 12.648 22.7223 13.8192 22.5079C13.0696 21.7013 12.4678 20.7692 12.0413 19.7541C11.6212 20.7816 11.0226 21.7265 10.2733 22.5454ZM12.6567 17.3192V18.0798C12.6503 19.0775 13.0124 20.0424 13.6735 20.7897C14.1674 21.3403 14.7758 21.7762 15.4561 22.0668C17.9257 21.1705 19.9634 19.371 21.1585 17.0314C20.1873 16.9214 18.4913 16.5587 17.0188 15.3781C16.4056 15.8935 14.7652 17.1074 12.6567 17.3192Z" fill="url(#paint0_linear)"/>
</g>
<defs>
<linearGradient id="paint0_linear" x1="5.08047" y1="4.17634" x2="23.57" y2="19.478" gradientUnits="userSpaceOnUse">
<stop stop-color="#EA3570"/>
<stop offset="0.88" stop-color="#138FC9"/>
</linearGradient>
<clipPath id="clip0">
<rect width="24" height="24" fill="white"/>
</clipPath>
</defs>
</svg>
