<svg width="24" height="24" viewBox="0 0 24 24" fill="none" xmlns="http://www.w3.org/2000/svg">
<g clip-path="url(#clip0)">
<path d="M23.9781 21.4602V21.4483C23.9785 21.443 23.9785 21.4377 23.9781 21.4324L12.2665 2.16312L12.2506 2.13925C12.2289 2.10563 12.2007 2.07663 12.1677 2.05393C12.1347 2.03122 12.0975 2.01526 12.0583 2.00694C12.0192 1.99862 11.9787 1.99812 11.9393 2.00546C11.9 2.0128 11.8624 2.02785 11.8289 2.04972C11.7931 2.07202 11.762 2.10108 11.7374 2.13527L11.7214 2.16113C10.9363 3.45821 10.1459 4.75198 9.3501 6.04243C9.27154 6.15543 9.22944 6.28976 9.22944 6.42738C9.22944 6.565 9.27154 6.69933 9.3501 6.81232C10.4018 8.5232 11.4502 10.2347 12.4953 11.9469C12.5806 12.0692 12.6264 12.2146 12.6264 12.3637C12.6264 12.5128 12.5806 12.6583 12.4953 12.7805C10.7725 15.6134 8.95222 18.5915 7.21349 21.4363C7.17532 21.5082 7.16708 21.5922 7.19055 21.67C7.21403 21.7479 7.26732 21.8133 7.33882 21.8521C7.38284 21.8758 7.43208 21.8881 7.48206 21.8879H12.5331C12.5886 21.8883 12.6432 21.8735 12.6909 21.8451C12.7385 21.8167 12.7776 21.7758 12.8037 21.7268L12.9768 21.4363L15.3183 17.5889C15.3374 17.5534 15.3634 17.5221 15.3947 17.4968C15.4261 17.4714 15.4621 17.4526 15.5008 17.4413C15.5395 17.43 15.58 17.4265 15.6201 17.431C15.6601 17.4355 15.6988 17.4479 15.734 17.4675C15.7767 17.49 15.8129 17.5228 15.8395 17.563L18.1591 21.3428L18.374 21.695C18.4005 21.743 18.4394 21.783 18.4866 21.811C18.5338 21.839 18.5877 21.8539 18.6425 21.8541H18.7838C18.8076 21.8561 18.8316 21.8561 18.8554 21.8541H23.6936C23.7745 21.8541 23.8521 21.8221 23.9095 21.7651C23.9669 21.708 23.9994 21.6306 24 21.5497C23.9972 21.519 23.9898 21.4888 23.9781 21.4602Z" fill="black"/>
<path d="M10.5139 12.9715L10.683 12.6929C10.7528 12.5928 10.7902 12.4738 10.7902 12.3518C10.7902 12.2298 10.7528 12.1107 10.683 12.0106L9.64457 10.3276L8.45093 8.40382C8.42996 8.36939 8.40236 8.33947 8.36973 8.31579C8.3371 8.29212 8.30009 8.27516 8.26085 8.26591C8.22161 8.25666 8.18093 8.25529 8.14116 8.26189C8.10139 8.26849 8.06333 8.28292 8.02918 8.30435C7.98327 8.33174 7.9455 8.37088 7.91976 8.41774L0.0358123 21.4383C-0.0022656 21.5098 -0.0104563 21.5935 0.0130328 21.6711C0.036522 21.7486 0.0897777 21.8137 0.161144 21.8521C0.205259 21.8776 0.255438 21.8906 0.306369 21.8899H4.93767C4.99259 21.8899 5.0465 21.8751 5.09374 21.8471C5.14099 21.8191 5.17985 21.7789 5.20624 21.7307L5.38329 21.4363C5.39128 21.4255 5.39859 21.4142 5.40518 21.4025L5.60411 21.0842C7.25332 18.3488 8.83289 15.7367 10.4861 13.0152C10.4963 13.0013 10.5056 12.9866 10.5139 12.9715Z" fill="black"/>
</g>
<defs>
<clipPath id="clip0">
<rect width="24" height="24" fill="white"/>
</clipPath>
</defs>
</svg>
