<svg width="24" height="24" viewBox="0 0 24 24" fill="none" xmlns="http://www.w3.org/2000/svg">
<path d="M12 24C18.6274 24 24 18.6274 24 12C24 5.37258 18.6274 0 12 0C5.37258 0 0 5.37258 0 12C0 18.6274 5.37258 24 12 24Z" fill="#1B2D45"/>
<path d="M18.7918 11.0267V8.08064L12 4.15079L8.49102 6.18148L11.2688 7.80708L10.5796 8.24899L7.77555 6.59708L5.20825 8.0859L5.21877 15.9404L8.73828 17.9553V14.7672L9.41167 15.1565V18.3393L12.0421 19.8597L18.797 15.9141V11.8211L16.0614 13.4257V12.6471L18.7918 11.0267ZM8.71724 10.1061L9.09076 9.9009L11.858 11.5002L14.804 9.85355L15.246 10.1061V10.548L12.4577 12.1683V15.4827L12 15.7931L11.6423 15.5405V12.3682L8.71724 10.6585V10.1061ZM10.2113 13.9465L7.31785 12.3525V15.5247L6.56555 15.0986L6.54977 8.90134L7.70716 8.21216L8.41737 8.65408L7.28629 9.33799L7.29155 11.4318L10.2061 13.1416V13.9465H10.2113ZM17.4292 14.2727V15.1302L11.979 18.2657L10.8321 17.587V16.7716L12 17.4292L13.8729 16.3454V12.9732L14.5778 12.5208L14.5989 15.9141L17.4292 14.2727ZM14.7883 8.2069L11.879 9.89038L11.2319 9.49055L14.0728 7.81234L11.2793 6.19726L12 5.77639L17.4082 8.91186V10.2165L16.6506 10.6637V9.3222L14.7883 8.2069Z" fill="#719CD0"/>
</svg>
