<svg width="24" height="24" viewBox="0 0 24 24" fill="none" xmlns="http://www.w3.org/2000/svg">
<path fill-rule="evenodd" clip-rule="evenodd" d="M9.13611 7.02595V7.15668C9.13611 9.31922 11.9159 10.4732 12.0026 10.5088V2.54868C11.9159 2.63169 9.13611 5.29625 9.13611 7.02595Z" fill="#5CFF96"/>
<path fill-rule="evenodd" clip-rule="evenodd" d="M12.0027 2.54858V10.509C12.0899 10.4734 14.8691 9.31941 14.8691 7.15658V7.02585C14.8691 5.29644 12.0899 2.6316 12.0027 2.54858Z" fill="#00B269"/>
<path fill-rule="evenodd" clip-rule="evenodd" d="M11.9498 10.3267C11.9498 10.3267 10.7814 9.23959 8.57507 9.38726C6.3682 9.53522 5.36359 12.5293 3.96594 12.4313C3.96594 12.4313 6.37639 14.392 8.45902 14.7328C10.3353 15.0194 12.2762 13.6214 11.9498 10.3267Z" fill="#5CFF96"/>
<path fill-rule="evenodd" clip-rule="evenodd" d="M12.0039 10.2482C12.0039 10.2482 12.4898 9.76426 13.6503 9.50336C14.1034 9.40172 14.641 9.34581 15.2605 9.38732C17.4671 9.53527 18.4717 12.5293 19.8696 12.4314C19.8696 12.4314 17.4589 14.3917 15.3766 14.7328C13.8524 14.9655 12.2856 14.0868 11.9259 11.9833C11.8429 11.4968 11.9426 10.8668 12.0039 10.2482Z" fill="#00B269"/>
<path fill-rule="evenodd" clip-rule="evenodd" d="M11.9187 20.0888L1.94348 14.3296V4.8341L11.9187 -6.10352e-05L21.894 4.8341V14.3296L11.9187 20.0888ZM2.96673 13.739L11.9187 18.9074L20.8707 13.739V5.47504L11.9187 1.13697L2.96673 5.47504V13.739Z" fill="#241F21"/>
<mask id="mask0" mask-type="alpha" maskUnits="userSpaceOnUse" x="1" y="0" width="21" height="24">
<path d="M1.92004 23.9748H21.9154V-6.10352e-05H1.92004V23.9748Z" fill="white"/>
</mask>
<g mask="url(#mask0)">
<path fill-rule="evenodd" clip-rule="evenodd" d="M11.6923 19.4981H12.1723V10.2482H11.6923V19.4981Z" fill="#241F21"/>
<path fill-rule="evenodd" clip-rule="evenodd" d="M11.9796 23.4215L1.92017 17.6137V18.1672L11.9796 23.9749L21.9153 18.2383V17.6849L11.9796 23.4215Z" fill="#54BD87"/>
<path fill-rule="evenodd" clip-rule="evenodd" d="M1.92004 16.4935V17.0469L11.9794 22.8549L21.9154 17.1183V16.5649L11.9794 22.3012L1.92004 16.4935Z" fill="#54BD87"/>
<path fill-rule="evenodd" clip-rule="evenodd" d="M11.9796 21.7345L21.9153 15.9979V15.4445L11.9796 21.1811L1.92017 15.3734V15.9268L11.9796 21.7345Z" fill="#54BD87"/>
<path fill-rule="evenodd" clip-rule="evenodd" d="M11.9177 10.7742L2.34851 5.69294L2.55971 5.2951L11.9177 10.264L21.2758 5.2951L21.487 5.69294L11.9177 10.7742Z" fill="#241F21"/>
</g>
</svg>
