<svg width="24" height="24" viewBox="0 0 24 24" fill="none" xmlns="http://www.w3.org/2000/svg">
<g clip-path="url(#clip0)">
<path fill-rule="evenodd" clip-rule="evenodd" d="M16.5359 15.871L21.0843 19.7419V19.6452C21.4714 19.1613 21.8585 18.5806 22.2456 18L17.1165 15C16.923 15.2903 16.7294 15.5806 16.5359 15.871Z" fill="url(#paint0_linear)"/>
<path fill-rule="evenodd" clip-rule="evenodd" d="M17.8906 12H23.7939V12.0968C23.7939 12.6774 23.6971 13.2581 23.6003 13.8387V14.0323V14.2258C23.5035 14.8065 23.31 15.3871 23.1164 15.9677V16.0645L17.5035 14.0323C17.7939 13.4516 17.8906 12.7742 17.8906 12Z" fill="url(#paint1_linear)"/>
<path fill-rule="evenodd" clip-rule="evenodd" d="M22.3422 5.99999C22.6326 6.58064 22.9229 7.16129 23.1164 7.74193L23.2132 7.8387V7.93548C23.4068 8.51612 23.6003 9.09677 23.6971 9.67741V9.77419L17.8906 10.8387C17.6971 9.77419 17.31 8.80645 16.6326 8.03225L21.181 4.16129V4.25806C21.5681 4.8387 21.9551 5.41935 22.3422 5.99999Z" fill="url(#paint2_linear)"/>
<path fill-rule="evenodd" clip-rule="evenodd" d="M13.0519 6.09677C12.6648 6 12.3745 6 11.9874 6V0C12.6648 0 13.3423 0.096774 14.0197 0.193548C14.6971 0.290322 15.2777 0.483871 15.9552 0.677419C16.5358 0.870968 17.2132 1.16129 17.7939 1.54839C18.3745 1.83871 18.8584 2.22581 19.439 2.70968H19.5358L15.7616 7.25806C15.2777 6.77419 14.6003 6.48387 14.0197 6.19355C13.7294 6.19355 13.3423 6.09677 13.0519 6.09677Z" fill="url(#paint3_linear)"/>
<path d="M11.9875 0V6C8.69713 6 5.98745 8.70968 5.98745 12C5.98745 15.2903 8.69713 18 11.9875 18C13.7294 18 15.4713 17.2258 16.5358 15.871L21.0842 19.7419C18.8584 22.4516 15.4713 24 11.9875 24C5.40681 24 0.0842285 18.6774 0.0842285 12C0.0842285 5.32258 5.31003 0 11.9875 0ZM17.6004 14.0323L23.2133 16.0645C23.0197 16.7419 22.6326 17.3226 22.3423 18L17.2133 15C17.31 14.7097 17.5036 14.4194 17.6004 14.0323ZM23.6971 9.87097C23.7939 10.5484 23.8907 11.2258 23.8907 12H17.9875C17.9875 11.6129 17.9875 11.3226 17.8907 10.9355L23.6971 9.87097ZM19.6326 2.80645C20.1165 3.29032 20.6971 3.77419 21.0842 4.25806L16.5358 8.12903C16.3423 7.83871 16.052 7.64516 15.7616 7.35484L19.6326 2.80645Z" fill="#1D2667"/>
</g>
<defs>
<linearGradient id="paint0_linear" x1="20.0368" y1="16.4325" x2="18.6695" y2="18.4518" gradientUnits="userSpaceOnUse">
<stop stop-color="white" stop-opacity="0"/>
<stop offset="1" stop-opacity="0.1"/>
</linearGradient>
<linearGradient id="paint1_linear" x1="21.1447" y1="13.352" x2="20.6049" y2="14.9233" gradientUnits="userSpaceOnUse">
<stop stop-color="white" stop-opacity="0"/>
<stop offset="1" stop-opacity="0.1"/>
</linearGradient>
<linearGradient id="paint2_linear" x1="18.9176" y1="6.66202" x2="21.1305" y2="10.6218" gradientUnits="userSpaceOnUse">
<stop stop-color="white" stop-opacity="0"/>
<stop offset="1" stop-opacity="0.1"/>
</linearGradient>
<linearGradient id="paint3_linear" x1="11.9297" y1="1.61048" x2="18.3278" y2="6.45485" gradientUnits="userSpaceOnUse">
<stop stop-color="white" stop-opacity="0"/>
<stop offset="1" stop-opacity="0.1"/>
</linearGradient>
<clipPath id="clip0">
<rect width="24" height="24" fill="white"/>
</clipPath>
</defs>
</svg>
