<svg width="24" height="24" viewBox="0 0 24 24" fill="none" xmlns="http://www.w3.org/2000/svg">
<path d="M11.9929 0C5.37991 0 0 5.37981 0 11.9928C0 18.6056 5.38002 23.9857 11.9929 23.9857C18.6056 23.9857 23.9855 18.6056 23.9855 11.9928C23.9855 5.37981 18.6056 0 11.9929 0ZM11.9929 23.2211C5.80166 23.2211 0.764617 18.1841 0.764617 11.9929C0.764617 5.80155 5.80166 0.764617 11.9929 0.764617C18.1841 0.764617 23.221 5.80155 23.221 11.9929C23.221 18.1841 18.1841 23.2211 11.9929 23.2211Z" fill="#1D1D1B"/>
<path d="M11.9929 7.74978C13.3337 7.74978 14.4206 6.66286 14.4206 5.32208C14.4206 3.9813 13.3337 2.89438 11.9929 2.89438C10.6521 2.89438 9.56519 3.9813 9.56519 5.32208C9.56519 6.66286 10.6521 7.74978 11.9929 7.74978Z" fill="#128ACF"/>
<path d="M5.71786 17.1113C7.05864 17.1113 8.14556 16.0243 8.14556 14.6836C8.14556 13.3428 7.05864 12.2559 5.71786 12.2559C4.37708 12.2559 3.29016 13.3428 3.29016 14.6836C3.29016 16.0243 4.37708 17.1113 5.71786 17.1113Z" fill="#128ACF"/>
<path d="M6.1615 11.3835C6.35974 9.47282 7.48013 7.833 9.06772 6.91497C8.80954 6.44174 8.66258 5.89904 8.66258 5.32209C8.66258 5.25538 8.66512 5.18919 8.66903 5.12354C6.22166 6.31265 4.50138 8.77164 4.36975 11.6384C4.78198 11.4556 5.23787 11.3532 5.71798 11.3532C5.86853 11.3532 6.01634 11.3642 6.1615 11.3835Z" fill="#1D1D1B"/>
<path d="M17.8225 11.3703C17.9337 11.3591 18.0462 11.3532 18.1602 11.3532C18.6828 11.3532 19.1772 11.4739 19.6171 11.6882C19.5033 8.80029 17.7781 6.31952 15.3168 5.12354C15.3204 5.18919 15.323 5.25538 15.323 5.32209C15.323 5.89904 15.1762 6.44174 14.9181 6.91497C16.5021 7.83109 17.6206 9.46532 17.8225 11.3703Z" fill="#1D1D1B"/>
<path d="M15.5008 16.6877C14.5219 17.421 13.3073 17.856 11.9929 17.856C10.6471 17.856 9.40695 17.3992 8.41639 16.6339C8.05882 17.1278 7.56962 17.5197 6.99976 17.7577C8.33932 18.9193 10.0848 19.625 11.993 19.625C13.8853 19.625 15.6174 18.9312 16.9528 17.7869C16.372 17.5606 15.8702 17.177 15.5008 16.6877Z" fill="#1D1D1B"/>
<path d="M18.1601 17.111C19.5009 17.111 20.5878 16.0241 20.5878 14.6833C20.5878 13.3426 19.5009 12.2556 18.1601 12.2556C16.8193 12.2556 15.7324 13.3426 15.7324 14.6833C15.7324 16.0241 16.8193 17.111 18.1601 17.111Z" fill="#128ACF"/>
<path d="M11.9929 1.61508C6.27046 1.61508 1.61499 6.27045 1.61499 11.9928C1.61499 17.7153 6.27046 22.3705 11.9929 22.3705C17.7151 22.3705 22.3706 17.7153 22.3706 11.9928C22.3706 6.27045 17.715 1.61508 11.9929 1.61508ZM18.1602 18.0137C18.0594 18.0137 17.9596 18.0084 17.8611 17.9997C16.3455 19.4806 14.274 20.3949 11.9929 20.3949C9.70627 20.3949 7.63043 19.4763 6.11409 17.9893C5.98405 18.0049 5.8521 18.0136 5.71793 18.0136C3.87871 18.0136 2.38754 16.5226 2.38754 14.6835C2.38754 13.6522 2.85644 12.7306 3.5924 12.1199C3.59177 12.0775 3.59081 12.0352 3.59081 11.9928C3.59081 8.46787 5.77312 5.44303 8.85749 4.19799C9.31867 2.91182 10.5481 1.99189 11.9928 1.99189C13.4374 1.99189 14.6669 2.91193 15.1279 4.19799C18.2123 5.44303 20.3947 8.46777 20.3947 11.9928C20.3947 12.0661 20.3938 12.139 20.392 12.2118C21.0665 12.8211 21.4906 13.7025 21.4906 14.6835C21.4906 16.5227 19.9995 18.0137 18.1602 18.0137Z" fill="#128ACF"/>
</svg>
