<svg width="24" height="24" viewBox="0 0 24 24" fill="none" xmlns="http://www.w3.org/2000/svg">
<g clip-path="url(#clip0)">
<path d="M15.3788 15.0047H14.3623C14.1741 15.0047 14.0141 14.8541 14.0141 14.6565V11.9835L12.2352 13.0941C12.0847 13.1882 11.8964 13.1882 11.7458 13.0941L9.97642 11.9835V14.6565C9.97642 14.8447 9.82583 15.0047 9.62818 15.0047H8.62112C8.43289 15.0047 8.27289 14.8541 8.27289 14.6565V9.49884C8.27289 9.24472 8.47995 9.03766 8.73406 9.03766C8.82818 9.03766 8.91289 9.06589 8.98818 9.12236L11.7929 11.0518C11.9058 11.1365 12.0658 11.1365 12.1788 11.0518L14.9835 9.12236C15.1905 8.98119 15.4823 9.03766 15.6235 9.24472C15.6799 9.32001 15.6988 9.41413 15.7082 9.49884V14.6565C15.7176 14.8447 15.567 15.0047 15.3788 15.0047Z" fill="#FF4A4A"/>
<path d="M6.7576 14.9953H0.451716C0.197598 14.9953 -0.00946045 14.7882 -0.00946045 14.5341V9.34824C-4.8684e-05 9.15059 0.15054 9 0.348187 9H1.36466C1.55289 9 1.71289 9.15059 1.71289 9.34824V13.2918H5.53407V9.34824C5.53407 9.16 5.68466 9 5.8823 9H6.87054C7.05877 9 7.21877 9.15059 7.21877 9.34824V14.5341C7.21877 14.7882 7.01172 14.9953 6.7576 14.9953Z" fill="#FF4A4A"/>
<path d="M17.2423 9H23.5482C23.8023 9 24.0094 9.20706 24.0094 9.46118V14.6471C24.0094 14.8353 23.8588 14.9953 23.6706 14.9953H22.6541C22.4658 14.9953 22.3058 14.8447 22.3058 14.6471V10.9294C22.3058 10.8071 22.2023 10.7035 22.08 10.7035H18.72C18.5976 10.7035 18.4941 10.8071 18.4941 10.9294V14.6471C18.4941 14.8353 18.3435 14.9953 18.1458 14.9953H17.1294C16.9411 14.9953 16.7811 14.8447 16.7811 14.6471V9.46118C16.7811 9.20706 16.9882 9 17.2423 9Z" fill="#FF4A4A"/>
<path d="M19.887 11.7953H20.8941C21.0823 11.7953 21.2423 11.9459 21.2423 12.1435V13.1694C21.2423 13.3576 21.0917 13.5176 20.8941 13.5176H19.887C19.6988 13.5176 19.5388 13.3671 19.5388 13.1694V12.1341C19.5388 11.9459 19.6988 11.7953 19.887 11.7953Z" fill="#FF4A4A"/>
</g>
<defs>
<clipPath id="clip0">
<rect width="24" height="24" fill="white"/>
</clipPath>
</defs>
</svg>
