<svg width="24" height="24" viewBox="0 0 24 24" fill="none" xmlns="http://www.w3.org/2000/svg">
<path fill-rule="evenodd" clip-rule="evenodd" d="M24 12C24 18.6274 18.6274 24 12 24C5.37255 24 0 18.6274 0 12C0 5.37255 5.37255 0 12 0C18.6274 0 24 5.37255 24 12Z" fill="black"/>
<path fill-rule="evenodd" clip-rule="evenodd" d="M4.87292 9.36264H5.57642V12.506C5.57642 13.0605 5.67692 13.4596 5.87794 13.7033C6.07896 13.9471 6.40475 14.069 6.85525 14.069C7.30342 14.069 7.62808 13.9471 7.8291 13.7033C8.03012 13.4596 8.13063 13.0605 8.13063 12.506V9.36264H8.83412V12.5926C8.83412 13.2673 8.66718 13.7767 8.33337 14.1209C7.99949 14.4652 7.50683 14.6373 6.85525 14.6373C6.20134 14.6373 5.70749 14.4652 5.37368 14.1209C5.0398 13.7767 4.87292 13.2673 4.87292 12.5926V9.36264Z" fill="#BEF400"/>
<path fill-rule="evenodd" clip-rule="evenodd" d="M10.1476 9.36264H11.0903L13.3845 13.6912V9.36264H14.0638V14.5368H13.1211L10.8269 10.2083V14.5368H10.1476V9.36264Z" fill="#BEF400"/>
<path fill-rule="evenodd" clip-rule="evenodd" d="M16.157 12.0658V13.9616H17.2798C17.6564 13.9616 17.9354 13.8836 18.1168 13.7276C18.2981 13.5717 18.3889 13.3331 18.3889 13.012C18.3889 12.6886 18.2981 12.45 18.1168 12.2963C17.9354 12.1427 17.6564 12.0658 17.2798 12.0658H16.157ZM16.157 9.93791V11.4974H17.1933C17.5352 11.4974 17.7899 11.4333 17.9574 11.3051C18.1249 11.1769 18.2087 10.9811 18.2087 10.7177C18.2087 10.4567 18.1249 10.2614 17.9574 10.132C17.7899 10.0027 17.5352 9.93791 17.1933 9.93791H16.157ZM15.457 9.36264H17.2452C17.7789 9.36264 18.1901 9.47356 18.479 9.69532C18.7677 9.91716 18.9122 10.2325 18.9122 10.6415C18.9122 10.958 18.8383 11.2098 18.6904 11.3969C18.5425 11.5841 18.3253 11.7009 18.0388 11.747C18.383 11.821 18.6505 11.9752 18.8411 12.2097C19.0318 12.4442 19.127 12.737 19.127 13.0882C19.127 13.5503 18.9699 13.9073 18.6557 14.1591C18.3415 14.4109 17.8944 14.5368 17.3145 14.5368H15.457V9.36264Z" fill="#BEF400"/>
</svg>
