<svg width="24" height="24" viewBox="0 0 24 24" fill="none" xmlns="http://www.w3.org/2000/svg">
<mask id="mask0" mask-type="alpha" maskUnits="userSpaceOnUse" x="0" y="0" width="24" height="24">
<path d="M0 6.10352e-05H24V24H0V6.10352e-05Z" fill="white"/>
</mask>
<g mask="url(#mask0)">
<path fill-rule="evenodd" clip-rule="evenodd" d="M12 6.10352e-05C18.6275 6.10352e-05 24 5.37252 24 12.0001C24 18.6271 18.6275 24.0001 12 24.0001C5.37245 24.0001 0 18.6271 0 12.0001C0 5.37252 5.37245 6.10352e-05 12 6.10352e-05Z" fill="#2775CA"/>
</g>
<path fill-rule="evenodd" clip-rule="evenodd" d="M9.75054 20.3433C9.75054 20.6255 9.5295 20.7859 9.2565 20.7007C5.62827 19.5432 2.99768 16.1411 2.99768 12.1268C2.99768 8.11268 5.62827 4.7104 9.2565 3.55295C9.5295 3.46827 9.75054 3.62809 9.75054 3.91036V4.60718C9.75054 4.79509 9.60491 5.01627 9.42586 5.07749C6.55527 6.13159 4.49891 8.88927 4.49891 12.122C4.49891 15.3548 6.55527 18.113 9.42586 19.1666C9.60491 19.2326 9.75054 19.4489 9.75054 19.6374V20.3433Z" fill="white"/>
<path fill-rule="evenodd" clip-rule="evenodd" d="M12.7481 17.7502C12.7481 17.9575 12.5788 18.1269 12.3718 18.1269H11.6234C11.4164 18.1269 11.247 17.9575 11.247 17.7502V16.5646C9.60932 16.3435 8.80955 15.4256 8.593 14.1787C8.55523 13.9667 8.72459 13.7739 8.94114 13.7739H9.79764C9.97641 13.7739 10.1271 13.9011 10.1647 14.0796C10.3248 14.8232 10.753 15.3926 12.0658 15.3926C13.0352 15.3926 13.7225 14.8514 13.7225 14.0424C13.7225 13.2326 13.3176 12.9269 11.8964 12.6914C9.79764 12.4091 8.80477 11.7737 8.80477 10.1267C8.80477 8.85619 9.76491 7.8681 11.2518 7.65619V6.49382C11.2518 6.28669 11.4213 6.11719 11.6282 6.11719H12.3765C12.5835 6.11719 12.7529 6.28669 12.7529 6.49382V7.68919C13.9623 7.90601 14.7294 8.5926 14.9789 9.73137C15.0258 9.94819 14.8565 10.1501 14.6354 10.1501H13.8446C13.6753 10.1501 13.5341 10.0371 13.4825 9.87251C13.2707 9.14814 12.7529 8.83764 11.854 8.83764C10.8611 8.83764 10.3481 9.31751 10.3481 9.99032C10.3481 10.7009 10.6401 11.0583 12.1649 11.2799C14.2258 11.5622 15.2895 12.1503 15.2895 13.906C15.2895 15.2376 14.3012 16.3153 12.7529 16.5646V17.7502H12.7481Z" fill="white"/>
<path fill-rule="evenodd" clip-rule="evenodd" d="M14.7436 20.7007C14.4708 20.7859 14.2495 20.6255 14.2495 20.3433V19.647C14.2495 19.4399 14.3766 19.247 14.5742 19.1761C17.4448 18.122 19.5011 15.3644 19.5011 12.1316C19.5011 8.89882 17.4448 6.14114 14.5742 5.08705C14.3954 5.02105 14.2495 4.80478 14.2495 4.61618V3.91991C14.2495 3.63764 14.4708 3.47305 14.7436 3.56196C18.3718 4.72009 21.0024 8.12223 21.0024 12.1364C20.9979 16.141 18.3718 19.5385 14.7436 20.7007Z" fill="white"/>
</svg>
