<svg width="24" height="24" viewBox="0 0 24 24" fill="none" xmlns="http://www.w3.org/2000/svg">
<path d="M12 24C18.6274 24 24 18.6274 24 12C24 5.37258 18.6274 0 12 0C5.37258 0 0 5.37258 0 12C0 18.6274 5.37258 24 12 24Z" fill="#30367A"/>
<path d="M10.7647 16.7235V6.771H7.875V4.5H16.125V6.771H13.2352V16.7235H10.7647ZM10.0995 19.5C8.60775 19.5 7.902 18.783 7.902 17.2665V7.422H10.0725V17.166C10.0725 17.406 10.1512 17.4855 10.3867 17.4855H13.641C13.8765 17.4855 13.956 17.4053 13.956 17.166V7.422H16.125V17.2665C16.125 18.783 15.4185 19.5 13.9275 19.5H10.0995Z" fill="white"/>
</svg>
