<svg width="24" height="24" viewBox="0 0 24 24" fill="none" xmlns="http://www.w3.org/2000/svg">
<path d="M12 0C5.37252 0 0 5.37228 0 12C0 18.6277 5.37252 24 12 24C18.6275 24 24 18.6277 24 12C24 5.37228 18.6277 0 12 0ZM12 8.41512C12.6369 8.41512 13.1532 8.93138 13.1532 9.56824C13.1532 10.2051 12.637 10.7214 12.0002 10.7215C11.3633 10.7216 10.8469 10.2054 10.8468 9.56856C10.8469 8.93165 11.3631 8.41532 12 8.41512ZM17.2255 16.2092C16.759 16.2094 16.3384 15.9284 16.1598 15.4974C15.9812 15.0664 16.0799 14.5703 16.4097 14.2404C16.7396 13.9106 17.2357 13.8119 17.6667 13.9904C18.0977 14.1689 18.3786 14.5895 18.3786 15.056C18.3785 15.6929 17.8623 16.2091 17.2255 16.2094V16.2092ZM12 20.988L4.72536 6.8184H8.52744L12.0253 13.992L15.4474 6.8184H19.2754L12 20.988Z" fill="#418BCA"/>
</svg>
