<svg width="24" height="24" viewBox="0 0 24 24" fill="none" xmlns="http://www.w3.org/2000/svg">
<path fill-rule="evenodd" clip-rule="evenodd" d="M16.4167 2.02394L13.5896 0.467073C13.0777 0.185244 12.5114 0.044281 11.9452 0.044281V10.8147C12.2314 10.8147 12.5177 10.6834 12.7013 10.4209L16.9555 4.34146C17.5007 3.56239 17.2497 2.48258 16.4167 2.02394Z" fill="#4480B5"/>
<path fill-rule="evenodd" clip-rule="evenodd" d="M21.7118 4.73496L18.9534 3.216C19.939 3.98322 20.1816 5.41362 19.4405 6.47266L13.0763 15.5675C12.8015 15.9602 12.3734 16.1565 11.9452 16.1565V23.9355C12.5704 23.9355 13.1954 23.6488 13.5967 23.0755L22.8887 9.79671C24.0794 8.09515 23.531 5.73679 21.7118 4.73496Z" fill="#41494E"/>
<path fill-rule="evenodd" clip-rule="evenodd" d="M7.47362 2.02394L10.3007 0.467073C10.8127 0.185244 11.3789 0.044281 11.9452 0.044281V10.8147C11.6589 10.8147 11.3727 10.6834 11.189 10.4209L6.93485 4.34146C6.3897 3.56239 6.64067 2.48258 7.47362 2.02394Z" fill="#81ACCD"/>
<path fill-rule="evenodd" clip-rule="evenodd" d="M2.17852 4.73496L4.93686 3.216C3.95139 3.98322 3.70874 5.41362 4.4498 6.47266L10.814 15.5675C11.0888 15.9602 11.517 16.1565 11.9452 16.1565V23.9355C11.32 23.9355 10.6949 23.6488 10.2937 23.0755L1.00164 9.79671C-0.189053 8.09515 0.359323 5.73679 2.17852 4.73496Z" fill="#55646D"/>
</svg>
