<svg width="24" height="24" viewBox="0 0 24 24" fill="none" xmlns="http://www.w3.org/2000/svg">
<g clip-path="url(#clip0)">
<path fill-rule="evenodd" clip-rule="evenodd" d="M0.214107 2.99992H7.07485C7.11146 2.99921 7.14765 3.0079 7.17995 3.02514C7.21077 3.04224 7.23679 3.06682 7.25562 3.09661L15.6087 16.4524C15.631 16.486 15.6428 16.5255 15.6428 16.5659C15.6428 16.6062 15.631 16.6457 15.6087 16.6794L12.191 22.1318C12.1722 22.1616 12.1461 22.1862 12.1153 22.2033C12.0837 22.2206 12.0483 22.2296 12.0123 22.2296C11.9763 22.2296 11.9409 22.2206 11.9093 22.2033C11.8785 22.1862 11.8525 22.1616 11.8337 22.1318L0.0333399 3.32362C0.0129699 3.29221 0.00135947 3.25592 -0.000291165 3.21852C-0.00193984 3.18047 0.00677841 3.14269 0.0249322 3.10922C0.04377 3.0758 0.0713921 3.04818 0.104806 3.02934C0.137863 3.00973 0.175668 2.99955 0.214107 2.99992ZM14.5956 2.99992H23.7853C23.8237 2.99955 23.8616 3.00973 23.8946 3.02934C23.9234 3.04989 23.9465 3.07736 23.9619 3.10922C23.9798 3.14277 23.9885 3.18049 23.9871 3.21852C23.988 3.25515 23.9793 3.29138 23.9619 3.32362L19.3712 10.6552C19.3524 10.685 19.3264 10.7096 19.2956 10.7267C19.264 10.744 19.2286 10.753 19.1926 10.753C19.1566 10.753 19.1211 10.744 19.0896 10.7267C19.0588 10.7096 19.0327 10.685 19.0139 10.6552L14.419 3.32362C14.3987 3.29221 14.3871 3.25592 14.3854 3.21852C14.3838 3.18047 14.3925 3.14269 14.4106 3.10922C14.4295 3.0758 14.4571 3.04818 14.4905 3.02934C14.5223 3.01045 14.5586 3.0003 14.5956 2.99992Z" fill="#FF8836"/>
</g>
<defs>
<clipPath id="clip0">
<rect width="24" height="24" fill="white"/>
</clipPath>
</defs>
</svg>
