<svg width="24" height="24" viewBox="0 0 24 24" fill="none" xmlns="http://www.w3.org/2000/svg">
<path d="M12 24C18.6274 24 24 18.6274 24 12C24 5.37258 18.6274 0 12 0C5.37258 0 0 5.37258 0 12C0 18.6274 5.37258 24 12 24Z" fill="#399B32"/>
<path d="M16.4175 5.60101C16.3365 5.92651 16.3507 6.34351 16.4408 6.38101C16.5307 6.41926 16.7573 6.20401 16.89 5.95951C17.0175 5.73451 17.1307 5.66776 17.2875 5.72551C17.4952 5.80651 17.4622 5.87851 17.0363 6.24676C16.6823 6.55351 16.611 6.66376 16.7062 6.75901C16.7625 6.81676 16.8045 6.80701 17.0077 6.69676C17.2627 6.56326 17.4053 6.57226 17.4053 6.72601C17.4053 6.79726 17.3108 6.85501 16.9657 6.98851C16.7198 7.08451 16.4782 7.209 16.422 7.27126C16.3088 7.39575 16.11 7.78875 15.8738 8.36775C15.6705 8.87025 15.4762 9.23926 15.3488 9.38251C15.2445 9.49726 14.895 9.57001 14.1578 9.62701C13.8128 9.65551 13.77 9.651 13.7512 9.56925C13.6981 9.34639 13.6556 9.12114 13.6238 8.89426C13.6238 8.88001 13.7985 8.88451 14.016 8.89951C14.4037 8.92801 14.7908 9.03301 14.9708 9.15751C15.108 9.25351 15.1223 9.23926 15.1838 8.97076C15.2588 8.66476 15.42 8.26275 15.6652 7.76475C15.8497 7.39575 15.855 7.36726 15.8355 7.01776C15.8123 6.63001 15.7455 6.46276 15.5145 6.20851C15.429 6.11851 15.3772 6.01726 15.3915 5.97901C15.4035 5.9496 15.413 5.91925 15.42 5.88826C15.42 5.87851 15.462 5.86876 15.51 5.86876C15.5662 5.86876 15.6652 5.95501 15.7552 6.08401C16.0057 6.43876 16.0815 6.37126 16.0815 5.78251C16.0815 5.51476 16.1003 5.40001 16.1617 5.33251C16.2562 5.22751 16.332 5.22301 16.4122 5.31826C16.4595 5.37601 16.4595 5.43826 16.4175 5.60101ZM12.6593 7.60651C12.6923 7.96126 12.7583 8.08501 12.9713 8.1615C13.056 8.19526 13.1738 8.24401 13.2308 8.26276C13.368 8.31976 13.4062 8.52525 13.5525 9.86625C13.7085 11.3213 13.7415 11.5275 13.8885 11.9775C14.1105 12.6615 14.091 13.4565 13.8315 14.256C13.6987 14.6678 13.5525 14.8545 13.2502 15.0173C12.645 15.3375 12.0202 15.1035 11.5342 14.3753C11.1727 13.8503 11.0392 13.1978 11.1652 12.5708C11.2365 12.2355 11.274 11.7285 11.2403 11.6033C11.2268 11.5418 11.0753 11.3505 10.905 11.1683C10.3755 10.6178 9.8175 9.63151 9.927 9.4545C9.96 9.40651 9.98325 9.25801 9.98325 9.12901C9.98325 8.86576 9.90825 8.76001 9.57675 8.57401C9.35925 8.44951 9.345 8.32501 9.525 7.98001C9.624 7.77901 9.681 7.73625 10.1775 7.48201C10.683 7.224 10.9102 7.15201 11.6617 7.01776C11.9737 6.96001 12.2002 6.96526 12.3705 7.03726C12.5692 7.12351 12.6255 7.233 12.6593 7.60725V7.60651ZM8.187 9.39225C8.187 9.636 8.26725 9.87601 8.32425 9.81376C8.34825 9.78976 8.39925 9.65551 8.44725 9.51676C8.52225 9.27676 8.66025 9.13425 8.75475 9.19576C8.835 9.24826 8.8065 9.52575 8.70225 9.69826C8.5605 9.933 8.5605 10.3785 8.7075 10.6755C8.85375 10.9628 9.156 11.2785 9.28875 11.2785C9.369 11.2733 9.4635 11.1585 9.72375 10.7138L10.0538 10.1535L10.1063 10.4888C10.1588 10.8668 10.1347 10.9815 9.92175 11.3505C9.6855 11.7668 9.42075 12.0923 9.32175 12.0923C9.2085 12.0923 8.95275 11.8388 8.73525 11.5133C8.6505 11.3783 8.41425 11.1203 8.2155 10.9335L7.85175 10.5938L7.62975 10.632C7.49387 10.6574 7.35618 10.6719 7.218 10.6755C7.04775 10.68 7.029 10.6703 7.0155 10.551C7.0005 10.446 7.0245 10.4123 7.1235 10.3883C7.23129 10.3693 7.34141 10.3675 7.44975 10.383C7.58175 10.4025 7.6815 10.3928 7.73325 10.3545C7.8135 10.2968 7.809 10.287 7.72875 10.1918C7.6815 10.134 7.53975 10.0575 7.407 10.0148C7.077 9.90975 6.86325 9.76575 6.86325 9.6555C6.86325 9.51225 7.04325 9.47851 7.1895 9.59775C7.677 10.0005 7.8135 10.0575 7.94175 9.92776C8.03175 9.83776 8.00775 9.66526 7.85625 9.36375C7.72425 9.09525 7.67625 8.84626 7.7475 8.77501C7.79475 8.72251 7.91775 8.73676 8.0025 8.80351C8.10225 8.88451 8.187 9.1485 8.187 9.39225ZM16.833 13.7048C16.7153 13.83 16.3748 14.2275 16.077 14.586C15.1973 15.6488 15.108 15.7635 15.1455 15.8025C15.183 15.84 15.93 15.51 16.1002 15.381C16.3132 15.213 16.7002 14.802 16.7715 14.6625C16.8045 14.6055 16.8518 14.4285 16.8855 14.2748C16.9417 13.9875 17.0977 13.7678 17.2395 13.7678C17.334 13.7678 17.3767 13.878 17.3392 14.0213C17.2748 14.1831 17.1957 14.3388 17.103 14.4863C16.9845 14.682 16.9043 14.859 16.9132 14.8785C16.9605 14.9498 17.136 14.916 17.3392 14.7968C17.457 14.7293 17.6273 14.553 17.7548 14.3708C18.0052 14.0168 18.1755 13.8638 18.327 13.8638C18.4545 13.8638 18.606 14.0265 18.573 14.1218C18.558 14.16 18.3405 14.3468 18.0953 14.5343C17.67 14.8545 17.5372 15.0218 17.613 15.1463C17.6557 15.2183 18.048 15.1223 18.4642 14.9363C19.173 14.6153 19.3673 14.5958 19.4805 14.811C19.575 14.9888 19.3432 15.0983 18.4357 15.2993C18.1852 15.357 17.9107 15.4478 17.826 15.5003L17.67 15.5963L17.7787 15.687C17.8733 15.7643 17.9722 15.7785 18.4403 15.7785C18.861 15.7785 19.0177 15.7973 19.0883 15.8498C19.1783 15.9218 19.173 15.927 19.041 16.0463C18.9555 16.1183 18.876 16.1565 18.828 16.137C18.6202 16.0508 17.916 15.9218 17.6603 15.9218C17.202 15.9218 17.1638 16.0898 17.58 16.2518C17.769 16.329 17.8403 16.4153 17.802 16.5158C17.76 16.6305 17.646 16.611 17.235 16.4198C16.4025 16.032 16.2517 16.0125 15.255 16.1423C14.7817 16.2045 14.6445 16.2098 14.5928 16.161C14.4885 16.0748 14.5072 15.9938 14.6542 15.8648C14.772 15.7643 15.6848 14.0648 15.642 14.0265C15.618 14.0025 14.697 14.3325 14.0295 14.61C13.9447 14.6438 13.9447 14.6393 14.0295 14.505C14.3422 13.9928 15.2445 13.4175 16.2945 13.059C16.8383 12.8723 16.8713 12.8678 17.0978 12.8723C17.2493 12.882 17.292 12.9015 17.301 12.9773C17.316 13.0973 17.1263 13.3943 16.833 13.7048ZM5.994 15.396C6.16875 15.645 6.57075 16.0665 6.6315 16.0665C6.69375 16.0665 6.64125 15.6495 6.528 15.2138C6.42375 14.8163 6.41475 14.625 6.495 14.544C6.5565 14.4818 6.765 14.4675 6.84975 14.5245C6.88275 14.544 6.92025 14.817 6.94875 15.2288C7.00125 15.9803 7.03875 16.119 7.2225 16.2383C7.341 16.32 7.35 16.32 7.407 16.2435C7.4355 16.2 7.4685 16.023 7.47375 15.846C7.48725 15.372 7.60125 15.1613 7.80375 15.2288C7.9605 15.276 7.97475 15.4725 7.85625 15.846C7.719 16.281 7.69575 16.5975 7.75725 17.0235C7.84725 17.6033 8.06475 18.12 8.17275 18.0098C8.19675 17.991 8.21025 17.3445 8.2155 16.5788C8.22 15.3818 8.22975 15.1425 8.301 14.9175C8.433 14.505 8.4615 14.4863 8.98125 14.4863C9.837 14.4863 11.4255 14.7165 11.6378 14.8688C11.865 15.0323 11.8177 15.09 11.3685 15.2333C10.3898 15.5348 9.91275 15.5925 9.32175 15.4778C9.12825 15.4388 8.95275 15.4155 8.934 15.4253C8.91525 15.4343 8.934 15.5445 8.9715 15.669C9.09 16.0568 9.057 16.296 8.778 17.148C8.63175 17.5838 8.4945 18.0915 8.47575 18.273C8.457 18.4553 8.4045 18.6368 8.376 18.675C8.253 18.8235 8.1165 18.7568 7.89375 18.4455C7.6155 18.063 7.17525 17.6415 6.92025 17.5073C6.8115 17.4495 6.45225 17.3445 6.126 17.2673C5.54025 17.1338 5.35125 17.0423 5.42175 16.9283C5.44575 16.8848 5.54925 16.8803 5.7765 16.899C6.192 16.9425 6.22575 16.8848 5.94675 16.6215C5.64252 16.3514 5.29389 16.136 4.91625 15.9848C4.5615 15.8415 4.5 15.7935 4.5 15.6788C4.5 15.5873 4.632 15.4913 4.76025 15.4913C4.80225 15.4913 4.992 15.621 5.17575 15.7838C5.5635 16.1138 5.83275 16.272 5.97975 16.2488C6.24975 16.2098 5.92725 15.5828 5.42175 15.1613C5.23725 15.0083 5.058 14.8215 5.01975 14.7495C4.95825 14.6295 4.95825 14.616 5.04375 14.5538C5.1222 14.5081 5.21286 14.488 5.30325 14.496C5.45025 14.511 5.48325 14.5395 5.658 14.8455C5.76225 15.0323 5.913 15.2805 5.994 15.396ZM12.7725 7.17601C13.014 7.1385 13.065 7.33425 13.065 7.32976C13.1932 7.65975 13.1175 8.07225 13.1175 8.07225C12.9472 8.0385 12.8197 7.82776 12.8197 7.82776C12.7207 7.59301 12.7725 7.17676 12.7725 7.17676V7.17601ZM9.3645 8.541C9.3645 8.541 9.72825 8.74201 9.8655 8.95726C9.8655 8.95726 9.96 9.18226 9.88875 9.34501C9.88875 9.34501 9.51075 9.16801 9.32175 8.87101C9.32175 8.87626 9.19875 8.718 9.3645 8.541Z" fill="white"/>
</svg>
