<svg width="24" height="24" viewBox="0 0 24 24" fill="none" xmlns="http://www.w3.org/2000/svg">
<g clip-path="url(#clip0)">
<path d="M19.5694 5.0368L18.9105 5.69578C20.4829 7.41534 21.3549 9.6611 21.3549 11.9912C21.3549 14.3213 20.4829 16.5671 18.9105 18.2867L19.5694 18.9456C21.3181 17.0488 22.289 14.5634 22.289 11.9835C22.289 9.40364 21.3181 6.91822 19.5694 5.02142V5.0368Z" fill="#5A5564"/>
<path d="M5.71116 5.09389C7.43072 3.52146 9.67649 2.64946 12.0066 2.64946C14.3367 2.64946 16.5825 3.52146 18.302 5.09389L18.961 4.43491C17.0642 2.6862 14.5788 1.71533 11.9989 1.71533C9.41902 1.71533 6.93361 2.6862 5.0368 4.43491L5.71116 5.09389Z" fill="#5A5564"/>
<path d="M5.09389 18.2933C3.52332 16.5741 2.65247 14.3297 2.65247 12.0011C2.65247 9.67254 3.52332 7.42815 5.09389 5.70897L4.43491 5.04999C2.6862 6.94679 1.71533 9.4322 1.71533 12.0121C1.71533 14.592 2.6862 17.0774 4.43491 18.9742L5.09389 18.2933Z" fill="#5A5564"/>
<path d="M18.2932 18.9017C16.5736 20.4742 14.3279 21.3462 11.9978 21.3462C9.66764 21.3462 7.42188 20.4742 5.70231 18.9017L5.04333 19.5607C6.94014 21.3094 9.42555 22.2803 12.0054 22.2803C14.5853 22.2803 17.0708 21.3094 18.9676 19.5607L18.2932 18.9017Z" fill="#5A5564"/>
<path d="M16.1603 9.80119C16.0285 8.42612 14.8424 7.96483 13.3421 7.82425V5.93079H12.1823V7.78911C11.877 7.78911 11.5651 7.78911 11.2553 7.78911V5.93079H10.1043V7.83743H7.75177V9.07851C7.75177 9.07851 8.60844 9.06313 8.59526 9.07851C8.74973 9.06152 8.90476 9.10515 9.02768 9.20021C9.15061 9.29527 9.23183 9.43435 9.25424 9.58812V14.8072C9.25094 14.8615 9.2368 14.9145 9.21265 14.9631C9.1885 15.0118 9.15484 15.0552 9.11366 15.0906C9.07325 15.1267 9.02595 15.1543 8.97461 15.1716C8.92328 15.189 8.86896 15.1958 8.81492 15.1916C8.8303 15.2048 7.97143 15.1916 7.97143 15.1916L7.75177 16.5777H10.0824V18.5151H11.2422V16.6062H12.1691V18.5063H13.3311V16.5909C15.2905 16.4722 16.6568 15.989 16.8281 14.1548C16.9665 12.6787 16.2724 12.0197 15.1631 11.754C15.8374 11.4223 16.2548 10.8072 16.1603 9.80119ZM14.5349 13.9264C14.5349 15.3674 12.0659 15.2026 11.2795 15.2026V12.6458C12.0659 12.648 14.5349 12.4217 14.5349 13.9264ZM13.9967 10.324C13.9967 11.6419 11.9363 11.4816 11.2817 11.4816V9.15758C11.9363 9.15758 13.9967 8.9511 13.9967 10.324Z" fill="#F09242"/>
<path d="M11.9978 24C9.62462 23.9995 7.30485 23.2954 5.33179 21.9767C3.35874 20.658 1.82101 18.7838 0.913031 16.5912C0.00505138 14.3985 -0.232403 11.9859 0.230689 9.65835C0.693782 7.33079 1.83663 5.19279 3.51472 3.51469C5.19282 1.8366 7.33082 0.693751 9.65838 0.230659C11.986 -0.232434 14.3986 0.00502087 16.5912 0.913C18.7838 1.82098 20.658 3.35871 21.9767 5.33176C23.2955 7.30482 23.9996 9.62459 24 11.9978C24.0003 13.574 23.69 15.1349 23.087 16.5912C22.4839 18.0475 21.5999 19.3707 20.4853 20.4853C19.3707 21.5998 18.0475 22.4839 16.5912 23.087C15.1349 23.69 13.574 24.0003 11.9978 24ZM11.9978 0.935724C9.81137 0.937462 7.67453 1.58735 5.85735 2.80324C4.04018 4.01913 2.62426 5.74645 1.78855 7.76687C0.952839 9.78729 0.734858 12.0101 1.16216 14.1544C1.58945 16.2987 2.64285 18.2681 4.1892 19.8139C5.73555 21.3596 7.70544 22.4122 9.84989 22.8387C11.9943 23.2651 14.2171 23.0463 16.2372 22.2098C18.2572 21.3732 19.984 19.9566 21.1992 18.139C22.4143 16.3213 23.0634 14.1842 23.0643 11.9978C23.0648 10.5446 22.779 9.10547 22.223 7.76281C21.667 6.42016 20.8518 5.20026 19.824 4.17288C18.7962 3.1455 17.576 2.33079 16.2331 1.77534C14.8902 1.21988 13.451 0.93457 11.9978 0.935724Z" fill="#282138"/>
</g>
<defs>
<clipPath id="clip0">
<rect width="24" height="24" fill="white"/>
</clipPath>
</defs>
</svg>
