<svg width="24" height="24" viewBox="0 0 24 24" fill="none" xmlns="http://www.w3.org/2000/svg">
<path d="M12 24C18.6274 24 24 18.6274 24 12C24 5.37258 18.6274 0 12 0C5.37258 0 0 5.37258 0 12C0 18.6274 5.37258 24 12 24Z" fill="#004A80"/>
<path d="M17.25 14.655L16.1377 18.75H6.75V18.0652L11.8425 12.276L6.85275 5.994V5.25H16.101L16.4235 8.439H15.831C15.4403 7.71225 15.1087 7.1685 14.835 6.80775C14.562 6.447 14.3182 6.22275 14.1037 6.1335C13.9523 6.06 13.7437 6.0075 13.4782 5.976C13.1612 5.94111 12.8424 5.92483 12.5235 5.92725H9.89625L13.833 10.8323V11.0685L8.967 16.5922H14.5207C14.7937 16.5922 15.0442 16.527 15.2708 16.3973C15.4972 16.2668 15.6938 16.1032 15.8595 15.9067C16.0253 15.7155 16.179 15.4972 16.3208 15.252C16.4628 15.0054 16.5876 14.7493 16.6942 14.4855L17.25 14.655Z" fill="white"/>
</svg>
