<svg width="24" height="24" viewBox="0 0 24 24" fill="none" xmlns="http://www.w3.org/2000/svg">
<path d="M20.4844 2H23.9531L16.7344 9.1475C14.1202 11.7345 9.88172 11.7345 7.26563 9.1475L0.0440674 2H3.51563L9.00001 7.42953C9.79908 8.21708 10.876 8.65857 11.9979 8.65857C13.1198 8.65857 14.1967 8.21708 14.9958 7.42953L20.4844 2Z" fill="#23292F"/>
<path d="M3.47109 21.875H0L7.26562 14.6834C9.87984 12.0964 14.1183 12.0964 16.7344 14.6834L24 21.875H20.5312L15 16.4014C14.2009 15.6139 13.124 15.1724 12.0021 15.1724C10.8802 15.1724 9.80329 15.6139 9.00422 16.4014L3.47109 21.875Z" fill="#23292F"/>
</svg>
