<svg width="24" height="24" viewBox="0 0 24 24" fill="none" xmlns="http://www.w3.org/2000/svg">
<path d="M12 24C18.6274 24 24 18.6274 24 12C24 5.37258 18.6274 0 12 0C5.37258 0 0 5.37258 0 12C0 18.6274 5.37258 24 12 24Z" fill="#D21E2B"/>
<path d="M12.105 4.39125V2.25L20.0745 6.849L18.2317 7.92L12.105 4.39125ZM18.354 15.204V8.148L20.2147 7.077V16.275L18.3547 15.204H18.354ZM12.105 18.9608L18.2317 15.4327L20.0745 16.503L12.105 21.102V18.9608ZM3.873 16.503L5.733 15.4327L11.8417 18.9608V21.102L3.873 16.503ZM3.75 7.077L5.59275 8.148V15.204L3.75 16.275V7.077ZM3.873 6.849L11.8417 2.25V4.39125L5.73375 7.92L3.873 6.849ZM11.991 4.593L5.84775 8.1225V15.2137L11.991 18.7598L18.117 15.2137V8.1225L11.991 4.59375V4.593ZM16.9237 10.9305L16.6605 11.3865L14.9055 10.404L12.6585 11.667L14.9047 12.9307L16.6597 11.9482L16.9237 12.4042L15.4493 13.2292L16.9237 14.0543L16.6605 14.511L15.186 13.686V15.336H14.6415V13.3875L12.3952 12.1238V14.6512L14.133 15.6165L13.8697 16.0643L12.3952 15.2393V16.8892H11.85V15.2393L10.3755 16.0643L10.095 15.6083L11.85 14.6423V12.1238L9.603 13.3875V15.336H9.04125V13.686L7.58475 14.511L7.3035 14.0543L8.778 13.2292L7.3035 12.4042L7.58475 11.9482L9.3225 12.9307L11.5867 11.667L9.32175 10.4032L7.58475 11.3857L7.3035 10.9298L8.778 10.1047L7.3035 9.27975L7.58475 8.82375L9.04125 9.64875V7.98975H9.60375V9.93825L11.85 11.202V8.6835L10.1122 7.7175L10.3755 7.2615L11.85 8.0865V6.4365H12.3945V8.0865L13.869 7.2615L14.1315 7.7175L12.3945 8.6835V11.211L14.6407 9.94725V7.98975H15.1852V9.63975L16.6597 8.81475L16.9222 9.2715L15.4485 10.0965L16.923 10.9298L16.9237 10.9305Z" fill="white"/>
</svg>
