<svg width="24" height="24" viewBox="0 0 24 24" fill="none" xmlns="http://www.w3.org/2000/svg">
<mask id="mask0" mask-type="alpha" maskUnits="userSpaceOnUse" x="0" y="0" width="24" height="24">
<path d="M24 12C24 18.6275 18.6275 24 12 24C5.37247 24 0 18.6275 0 12C0 5.37247 5.37247 0 12 0C18.6275 0 24 5.37247 24 12Z" fill="white"/>
</mask>
<g mask="url(#mask0)">
<path fill-rule="evenodd" clip-rule="evenodd" d="M4.06872 0H2.00366L12.5185 9.85165H25.2378V8.17518H12.8997L4.06872 0Z" fill="#FFFFFE"/>
<path fill-rule="evenodd" clip-rule="evenodd" d="M1.97083 24.6176H4.09341L12.8802 16.4425H25.2378V14.743H12.5185L1.97083 24.6176Z" fill="#FFFFFE"/>
<path fill-rule="evenodd" clip-rule="evenodd" d="M-1.23779 2.92413V4.97543L6.93456 12.3088L-1.23779 19.6267V21.6628L8.81891 12.3088L-1.23779 2.92413Z" fill="#F1AF2B"/>
<path fill-rule="evenodd" clip-rule="evenodd" d="M-1.23779 4.9754V19.5808L6.67974 12.3088L-1.23779 4.9754Z" fill="#0A0B09"/>
<path fill-rule="evenodd" clip-rule="evenodd" d="M-1.23779 4.9754L6.67974 12.3088L-1.23779 19.5808V19.6267L6.93456 12.3088L-1.23779 4.9754Z" fill="#0A0B09"/>
<path fill-rule="evenodd" clip-rule="evenodd" d="M4.09344 24.6176H25.2378V16.4424H12.8803L4.09344 24.6176Z" fill="#283172"/>
<path fill-rule="evenodd" clip-rule="evenodd" d="M4.06866 0L12.8996 8.17518H25.2377V0H4.06866Z" fill="#CB3733"/>
<path fill-rule="evenodd" clip-rule="evenodd" d="M2.00362 0H-1.23779V2.92412L8.81891 12.3088L-1.23779 21.6628V24.6176H1.9708L12.5184 14.7431H25.2377V9.85165H12.5184L2.00362 0Z" fill="#16714A"/>
</g>
</svg>
