<svg width="24" height="24" viewBox="0 0 24 24" fill="none" xmlns="http://www.w3.org/2000/svg">
<path d="M12 24C5.33333 24 0 18.6 0 12C0 5.4 5.4 0 12 0C18.6 0 24 5.4 24 12C24 18.5333 18.7333 24 12 24ZM7.13333 17.4667C7.2 17.4 7.2 17.3333 7.2 17.3333C8.26667 15.4667 9.33333 13.5333 10.4 11.6667C11.3333 10 12.2667 8.33333 13.2 6.73333C13.2667 6.66667 13.2667 6.66667 13.3333 6.66667H16.7333C15.2 9.33333 13.7333 12 12.2 14.6667H20.6C20.6667 14.6667 20.7333 14.6 20.7333 14.5333C21.1333 13.0667 21.2 11.5333 20.8667 10.0667C20.4667 8.26667 19.5333 6.73333 18.2 5.46667C17.6 4.86667 16.9333 4.4 16.2 4.06667C14.4 3.13333 12.4667 2.86667 10.4667 3.2C8.46667 3.53333 6.73333 4.53333 5.4 6C5.2 6.13333 5.06667 6.33333 4.86667 6.53333V6.6H12.7333C12.6667 6.66667 12.6667 6.73333 12.6 6.8C12.1333 7.66667 11.6667 8.46667 11.2 9.33333C11.1333 9.4 11.0667 9.46667 11 9.46667H3.46667C2.2 13.4 4 18.3333 8.4 20.2667C12.6667 22.2 17.2 20.4 19.2667 17.4667H7.13333ZM20.8667 19.5333C22.4 17.8667 23.7333 15.0667 23.6667 11.7333C23.6 9 22.6667 6.6 20.8667 4.46667L19.2667 6.06667C22.0667 9.4 22.2 14.4 19.2667 17.9333C19.8667 18.4667 20.4 19 20.8667 19.5333Z" fill="#C87035"/>
</svg>
