<svg width="24" height="24" viewBox="0 0 24 24" fill="none" xmlns="http://www.w3.org/2000/svg">
<path d="M12 24C18.6274 24 24 18.6274 24 12C24 5.37258 18.6274 0 12 0C5.37258 0 0 5.37258 0 12C0 18.6274 5.37258 24 12 24Z" fill="#183C87"/>
<path fill-rule="evenodd" clip-rule="evenodd" d="M3.75 11.7112L7.12125 9.80775L10.4918 11.7112V15.3465L7.12125 17.25L3.75 15.3465V11.7112ZM13.5075 11.7112L16.8787 9.80775L20.25 11.7112V15.3465L16.8787 17.25L13.5082 15.3465V11.7112H13.5075ZM13.1535 14.8688L11.9708 15.519L10.8465 14.9017V11.4225L7.7715 9.6855V8.4225L11.9708 6L16.1693 8.4225V9.72L13.1535 11.4225V14.8695V14.8688Z" fill="white"/>
</svg>
