<svg width="24" height="24" viewBox="0 0 24 24" fill="none" xmlns="http://www.w3.org/2000/svg">
<g clip-path="url(#clip0)">
<path d="M10.5867 3.46667C10.5867 3.4 10.6533 3.4 10.72 3.33333C12.5867 2.26667 14.52 1.13333 16.3867 0.0666667C16.4533 0.0666667 16.4533 0.0666667 16.52 0H16.5867L17.5867 0.6C19.2533 1.53333 20.8533 2.53333 22.52 3.46667V3.6C22.4533 3.6 22.3867 3.66667 22.32 3.66667L21.32 4.26667C20.72 4.6 20.0533 5 19.4533 5.33333C18.92 5.66667 18.3867 6 17.7867 6.26667C17.3867 6.53333 16.9867 6.73333 16.5867 7C16.5867 7 16.52 7 16.52 6.93333C14.9867 6.06667 13.52 5.2 11.9867 4.33333C11.52 4 11.0533 3.73333 10.5867 3.46667Z" fill="#234871"/>
<path d="M1.91998 8.60002C1.98665 8.60002 1.98665 8.53336 2.05332 8.53336C3.91998 7.46669 5.85332 6.33336 7.71998 5.20002C7.78665 5.13336 7.85332 5.13336 7.98665 5.20002C9.85332 6.33336 11.7866 7.40002 13.6533 8.53336C13.72 8.53336 13.72 8.53336 13.7866 8.60002C12.92 9.06669 12.0533 9.60002 11.2533 10.0667L7.85332 12.0667C7.71998 11.9334 7.51998 11.8667 7.31998 11.7334C6.78665 11.4 6.25332 11.1334 5.71998 10.8C5.25332 10.5334 4.71998 10.2 4.25332 9.93336C3.65332 9.60002 3.11998 9.26669 2.51998 8.93336C2.38665 8.86669 2.18665 8.73336 1.91998 8.60002Z" fill="#1B2E58"/>
<path d="M1.91998 8.60004C2.11998 8.6667 2.38665 8.8667 2.58665 8.93337C3.18665 9.2667 3.71998 9.60004 4.31998 9.93337C4.78665 10.2 5.31998 10.5334 5.78665 10.8C6.31998 11.1334 6.85332 11.4 7.38665 11.7334C7.58665 11.8 7.71998 11.9334 7.91998 12.0667V19C7.31998 18.6667 6.78665 18.3334 6.25332 18C4.85332 17.2 3.45332 16.4 2.05332 15.5334C2.05332 15.5334 1.98665 15.4667 1.91998 15.4667V8.60004ZM16.52 24C16.52 24 16.52 23.9334 16.52 24C16.5866 23.8667 16.52 23.8667 16.52 23.8V17.0667C18.2533 16.0667 19.92 15.0667 21.6533 14.0667C21.92 13.9334 22.1867 13.7334 22.4533 13.6V20.5334C22.3867 20.5334 22.3867 20.5334 22.32 20.6C20.4533 21.7334 18.52 22.8 16.6533 23.9334C16.5866 23.9334 16.5866 23.9334 16.52 24Z" fill="#234871"/>
<path d="M16.52 6.93333C16.92 6.66666 17.32 6.46666 17.72 6.19999C18.2534 5.86666 18.7867 5.53333 19.3867 5.26666C19.9867 4.93333 20.6534 4.53333 21.2534 4.19999L22.2534 3.59999C22.32 3.53333 22.3867 3.53333 22.4534 3.53333V10.4667C22.3867 10.4667 22.32 10.5333 22.32 10.5333C20.4534 11.6 18.5867 12.7333 16.6534 13.8C16.6534 13.8 16.5867 13.8667 16.52 13.8667V11.1333V6.93333Z" fill="#1B2E58"/>
<path d="M22.4533 13.6667C22.1867 13.8 21.92 13.9334 21.6533 14.1334C19.92 15.1334 18.2533 16.1334 16.52 17.1334C14.92 16.2 13.2533 15.2667 11.6533 14.2667C11.32 14.0667 10.9867 13.8667 10.5867 13.6667C10.7867 13.5334 10.9867 13.4 11.12 13.3334C11.6533 13.0667 12.12 12.7334 12.6533 12.4667C12.7867 12.4 12.8533 12.4 12.92 12.4667C14.12 13.1334 15.2533 13.8667 16.4533 14.5334C16.52 14.6 16.5867 14.6 16.6533 14.5334C17.7867 13.8667 18.9867 13.2 20.12 12.4667C20.1867 12.4 20.32 12.4 20.3867 12.4667C21.12 12.8 21.7867 13.2 22.4533 13.6667C22.4533 13.6 22.4533 13.6 22.4533 13.6667Z" fill="#69FEBB"/>
<path d="M10.5867 13.6667C10.92 13.8667 11.2534 14.0667 11.6534 14.2667C13.2534 15.2 14.92 16.1334 16.52 17.1334V24L15.52 23.4C13.92 22.4667 12.32 21.5334 10.6534 20.6C10.5867 20.5334 10.52 20.5334 10.52 20.4V13.8C10.5867 13.7334 10.5867 13.6667 10.5867 13.6667Z" fill="#1B2E58"/>
<path d="M16.52 6.93331V13.8666C16.32 13.8 16.1867 13.7333 16.0533 13.6C15.52 13.3333 15.0533 13 14.52 12.7333C14.4533 12.6666 14.3867 12.6 14.3867 12.5333V8.46664C14.3867 8.39998 14.3867 8.33331 14.2533 8.26664C13.0533 7.59998 11.8533 6.86664 10.6533 6.19998C10.5867 6.13331 10.5867 6.13331 10.5867 6.06664V3.66664V3.59998C11.0533 3.73331 11.52 3.99998 11.9867 4.26664C13.4533 5.13331 14.9867 5.99998 16.52 6.93331C16.52 6.86664 16.52 6.93331 16.52 6.93331Z" fill="#69FEBB"/>
<path d="M7.85333 19V12.0667L11.2533 10.0667C12.12 9.60004 12.9867 9.0667 13.7867 8.60004C13.8533 8.6667 13.7867 8.6667 13.7867 8.73337V10.8667C13.7867 10.9334 13.7867 11 13.6533 11.0667C12.4533 11.8 11.1867 12.4667 9.98667 13.2C9.92 13.2667 9.92 13.3334 9.92 13.4V17.6667C9.92 17.8 9.92 17.8667 9.78666 17.8667C9.18667 18.2 8.52 18.6 7.85333 19C7.92 18.9334 7.85333 19 7.85333 19Z" fill="#69FDBB"/>
</g>
<defs>
<clipPath id="clip0">
<rect width="24" height="24" fill="white"/>
</clipPath>
</defs>
</svg>
