<svg width="24" height="24" viewBox="0 0 24 24" fill="none" xmlns="http://www.w3.org/2000/svg">
<g clip-path="url(#clip0)">
<path d="M12.1116 17.7291H23.4528C23.9712 17.7291 24.3673 16.8698 23.4528 16.4978C22.5815 16.1449 14.4831 12.8302 13.6814 12.499C12.7693 13.6007 12.0228 14.5104 11.8908 14.7C11.5404 15.2184 10.3571 16.6586 12.1116 17.7291Z" fill="url(#paint0_linear)"/>
<path d="M0.60246 7C0.441959 7.01809 0.293154 7.09277 0.182744 7.21066C0.0723346 7.32855 0.00754508 7.48192 0 7.64326L0 7.52805C0.0167492 7.70076 0.0822902 7.86514 0.188969 8.002C0.295648 8.13885 0.439061 8.24253 0.60246 8.30093C1.58176 8.69217 9.88659 12.0621 9.88659 12.0621V12.1893C11.0603 10.8404 12.1212 9.48425 12.3924 9.16022V9.29703C13.6814 7.80408 11.2331 7 11.2331 7H0.60246Z" fill="url(#paint1_linear)"/>
<path d="M16.8473 7H11.1491C11.1491 7 13.5829 7.70087 12.306 9.21302L9.80977 12.1653C8.19921 14.0639 6.37503 16.2049 6.0918 16.5314C5.61175 17.0858 5.85177 17.7315 6.67026 17.7315H12.2412C10.4842 16.649 11.5475 15.2448 11.9124 14.7168C12.0444 14.5296 12.7885 13.6271 13.7006 12.5326C15.3207 10.5884 17.4737 8.0441 17.6706 7.80408C17.9754 7.43444 17.4881 7 16.8473 7Z" fill="#007AFF"/>
<path opacity="0.3" d="M11.5764 7H11.1491C11.1491 7 13.583 7.70087 12.306 9.21302L9.80978 12.1653C8.73607 13.431 9.54656 15.2856 12.2412 17.7291C10.4794 16.649 11.5404 15.2376 11.9052 14.7168C12.0372 14.5296 12.7813 13.6271 13.6934 12.5326C15.3207 10.5884 17.4737 8.0441 17.6706 7.80408C17.9754 7.43444 17.4881 7 16.8473 7H11.5668H11.5764Z" fill="url(#paint2_linear)"/>
<g opacity="0.84">
<path opacity="0.84" d="M11.5763 7H11.1491C11.1491 7 13.5829 7.70087 12.306 9.21302L9.80977 12.1653C8.19921 14.0639 6.37503 16.2049 6.0918 16.5314C5.61175 17.0858 5.85177 17.7315 6.67026 17.7315H12.2412C10.4794 16.6514 11.5403 15.24 11.9052 14.7192C12.0372 14.532 12.7813 13.6295 13.6934 12.535C15.3207 10.5884 17.4737 8.0441 17.6706 7.80408C17.9754 7.43444 17.4881 7 16.8473 7H11.5667H11.5763Z" fill="#007AFF"/>
<path opacity="0.84" d="M11.5763 7H11.1491C11.1491 7 13.5829 7.70087 12.306 9.21302L9.80977 12.1653C8.19921 14.0639 6.37503 16.2049 6.0918 16.5314C5.61175 17.0858 5.85177 17.7315 6.67026 17.7315H12.2412C10.4794 16.6514 11.5403 15.24 11.9052 14.7192C12.0372 14.532 12.7813 13.6295 13.6934 12.535C15.3207 10.5884 17.4737 8.0441 17.6706 7.80408C17.9754 7.43444 17.4881 7 16.8473 7H11.5667H11.5763Z" fill="url(#paint3_linear)"/>
</g>
<path opacity="0.45" d="M11.1491 7C11.1491 7 13.5829 7.70087 12.306 9.21302L9.80977 12.1653C8.19921 14.0639 6.37503 16.2049 6.0918 16.5314C5.61175 17.0858 5.85177 17.7315 6.67026 17.7315H12.2412C10.4794 16.6514 11.5403 15.24 11.9052 14.7192C12.0372 14.532 12.7813 13.6295 13.6934 12.535C14.339 11.7597 14.0654 9.62826 13.3333 8.45455C13.0085 7.93609 12.2804 7.45125 11.1491 7Z" fill="#B8CFFF" fill-opacity="0.5"/>
<path d="M11.1491 7C11.1491 7 13.5829 7.70087 12.306 9.21302L9.80976 12.1653C8.09918 14.1863 8.90967 16.0409 12.2412 17.7291C10.4794 16.649 11.5403 15.2376 11.9052 14.7168C12.0372 14.5296 12.8005 13.6055 13.6933 12.5326C15.6055 10.2411 14.7575 8.39694 11.1491 7Z" fill="url(#paint4_linear)"/>
</g>
<defs>
<linearGradient id="paint0_linear" x1="9.4878" y1="14.5189" x2="14.0443" y2="19.3891" gradientUnits="userSpaceOnUse">
<stop stop-color="#878A96"/>
<stop offset="1" stop-color="#DADDE6"/>
</linearGradient>
<linearGradient id="paint1_linear" x1="-1.29306e+06" y1="-94326.7" x2="-1.2931e+06" y2="-94434.1" gradientUnits="userSpaceOnUse">
<stop stop-color="#878A96"/>
<stop offset="1" stop-color="#DADDE6"/>
</linearGradient>
<linearGradient id="paint2_linear" x1="17.9168" y1="12.9807" x2="9.47344" y2="12.1861" gradientUnits="userSpaceOnUse">
<stop stop-color="white"/>
<stop offset="1" stop-color="#2B72FF"/>
</linearGradient>
<linearGradient id="paint3_linear" x1="11.9071" y1="7.41248" x2="11.9071" y2="18.1206" gradientUnits="userSpaceOnUse">
<stop stop-color="white" stop-opacity="0.5"/>
<stop offset="1" stop-opacity="0.5"/>
</linearGradient>
<linearGradient id="paint4_linear" x1="11.4885" y1="18.1206" x2="13.0644" y2="7.57955" gradientUnits="userSpaceOnUse">
<stop stop-color="#74ABE9"/>
<stop offset="1" stop-color="#2C5C96"/>
</linearGradient>
<clipPath id="clip0">
<rect width="24" height="24" fill="white"/>
</clipPath>
</defs>
</svg>
