<svg width="26" height="26" viewBox="0 0 26 26" fill="none" xmlns="http://www.w3.org/2000/svg">
<path d="M13.0001 14.0832C12.7128 14.0832 12.4372 13.969 12.234 13.7659C12.0309 13.5627 11.9167 13.2872 11.9167 12.9998C11.9167 12.7125 12.0309 12.437 12.234 12.2338C12.4372 12.0306 12.7128 11.9165 13.0001 11.9165C13.2874 11.9165 13.5629 12.0306 13.7661 12.2338C13.9693 12.437 14.0834 12.7125 14.0834 12.9998C14.0834 13.2872 13.9693 13.5627 13.7661 13.7659C13.5629 13.969 13.2874 14.0832 13.0001 14.0832Z" fill="currentColor"/>
<path d="M17.3334 14.0832C17.0461 14.0832 16.7705 13.969 16.5674 13.7659C16.3642 13.5627 16.2501 13.2872 16.2501 12.9998C16.2501 12.7125 16.3642 12.437 16.5674 12.2338C16.7705 12.0306 17.0461 11.9165 17.3334 11.9165C17.6207 11.9165 17.8963 12.0306 18.0994 12.2338C18.3026 12.437 18.4167 12.7125 18.4167 12.9998C18.4167 13.2872 18.3026 13.5627 18.0994 13.7659C17.8963 13.969 17.6207 14.0832 17.3334 14.0832Z" fill="currentColor"/>
<path d="M8.66675 14.0832C8.37943 14.0832 8.10388 13.969 7.90072 13.7659C7.69755 13.5627 7.58342 13.2872 7.58342 12.9998C7.58342 12.7125 7.69755 12.437 7.90072 12.2338C8.10388 12.0306 8.37943 11.9165 8.66675 11.9165C8.95407 11.9165 9.22962 12.0306 9.43278 12.2338C9.63595 12.437 9.75008 12.7125 9.75008 12.9998C9.75008 13.2872 9.63595 13.5627 9.43278 13.7659C9.22962 13.969 8.95407 14.0832 8.66675 14.0832Z" fill="currentColor"/>
</svg>
