<svg width="20" height="20" viewBox="0 0 20 20" fill="none" xmlns="http://www.w3.org/2000/svg">
<path d="M6.66699 17.5001V13.3334V17.5001ZM6.66699 13.3334V2.98092C6.667 2.89184 6.6908 2.80437 6.73595 2.72758C6.78109 2.65078 6.84593 2.58744 6.92377 2.5441C7.0016 2.50077 7.08959 2.47902 7.17865 2.48109C7.26771 2.48317 7.3546 2.509 7.43033 2.55592L14.7553 7.09092C14.8265 7.13501 14.8854 7.19626 14.9267 7.26903C14.968 7.34181 14.9904 7.4238 14.9918 7.50747C14.9932 7.59115 14.9736 7.67384 14.9348 7.74797C14.8959 7.8221 14.8391 7.88529 14.7695 7.93175L6.66699 13.3334Z" stroke="currentColor" stroke-width="1.5" stroke-linecap="round" stroke-linejoin="round"/>
</svg>
