<svg width="24" height="24" viewBox="0 0 24 24" fill="none" xmlns="http://www.w3.org/2000/svg">
<path d="M15 17H14H12H17H15ZM16 1V3H8V1H6V3H5C3.89 3 3.01 3.9 3.01 5L3 19C3 20.1 3.89 21 5 21H19C20.1 21 21 20.1 21 19V5C21 3.9 20.1 3 19 3H18V1H16ZM19 19H5V8H19V19Z" fill="#D4B553"/>
<path d="M8.68892 12.9446H9.69886C9.69034 12.1286 9.04048 11.5767 8.02628 11.5767C7.02912 11.5767 6.31108 12.12 6.31747 12.9318C6.31534 13.5945 6.77983 13.9673 7.53409 14.1399L7.99006 14.2464C8.46946 14.3572 8.68466 14.4872 8.68892 14.7322C8.68466 14.9986 8.43537 15.1839 8.01136 15.1839C7.54474 15.1839 7.23793 14.9666 7.21449 14.5469H6.20455C6.21733 15.5675 6.92685 16.0554 8.02415 16.0554C9.1108 16.0554 9.75426 15.5632 9.75852 14.7344C9.75426 14.0376 9.28338 13.6115 8.42259 13.4219L8.04759 13.3366C7.65128 13.2514 7.39986 13.1193 7.40838 12.8594C7.41051 12.6207 7.61506 12.4482 8.02415 12.4482C8.43537 12.4482 8.66122 12.6335 8.68892 12.9446ZM10.9203 16L11.208 15.0838H12.7144L13.002 16H14.1355L12.6632 11.6364H11.2591L9.7868 16H10.9203ZM11.4594 14.2827L11.943 12.7358H11.9771L12.4629 14.2827H11.4594ZM13.7377 12.4929H15.0629V16H16.1027V12.4929H17.4259V11.6364H13.7377V12.4929Z" fill="#D4B553"/>
</svg>

