<svg width="20" height="20" viewBox="0 0 20 20" fill="none" xmlns="http://www.w3.org/2000/svg">
  <path
    d="M7.50033 18.3332C9.04742 18.3332 10.5312 17.7186 11.6251 16.6246C12.7191 15.5307 13.3337 14.0469 13.3337 12.4998C13.3337 10.9527 12.7191 9.46901 11.6251 8.37505C10.5312 7.28109 9.04742 6.6665 7.50033 6.6665C5.95323 6.6665 4.4695 7.28109 3.37554 8.37505C2.28157 9.46901 1.66699 10.9527 1.66699 12.4998C1.66699 14.0469 2.28157 15.5307 3.37554 16.6246C4.4695 17.7186 5.95323 18.3332 7.50033 18.3332V18.3332Z"
    stroke="currentColor" stroke-width="1.5" stroke-linecap="round" stroke-linejoin="round" />
  <path
    d="M12.5003 13.3332C14.0474 13.3332 15.5312 12.7186 16.6251 11.6246C17.7191 10.5307 18.3337 9.04693 18.3337 7.49984C18.3337 5.95274 17.7191 4.46901 16.6251 3.37505C15.5312 2.28109 14.0474 1.6665 12.5003 1.6665C10.9532 1.6665 9.4695 2.28109 8.37554 3.37505C7.28157 4.46901 6.66699 5.95274 6.66699 7.49984C6.66699 9.04693 7.28157 10.5307 8.37554 11.6246C9.4695 12.7186 10.9532 13.3332 12.5003 13.3332V13.3332Z"
    stroke="currentColor" stroke-width="1.5" stroke-linecap="round" stroke-linejoin="round" />
</svg>