<svg width="20" height="20" viewBox="0 0 20 20" fill="none" xmlns="http://www.w3.org/2000/svg">
  <path
    d="M10.0001 17.0834C11.5472 17.0834 13.0309 16.4688 14.1249 15.3749C15.2188 14.2809 15.8334 12.7972 15.8334 11.2501C15.8334 9.70299 15.2188 8.21925 14.1249 7.12529C13.0309 6.03133 11.5472 5.41675 10.0001 5.41675C8.45299 5.41675 6.96925 6.03133 5.87529 7.12529C4.78133 8.21925 4.16675 9.70299 4.16675 11.2501C4.16675 12.7972 4.78133 14.2809 5.87529 15.3749C6.96925 16.4688 8.45299 17.0834 10.0001 17.0834V17.0834Z"
    stroke="currentColor" stroke-width="1.5" stroke-linecap="round" stroke-linejoin="round" />
  <path d="M3.33337 6.07508C4.58004 4.19925 7.09754 2.91675 10 2.91675C12.9025 2.91675 15.42 4.19925 16.6667 6.07508"
    stroke="currentColor" stroke-width="1.5" stroke-linecap="round" stroke-linejoin="round" />
</svg>