<svg width="20" height="20" viewBox="0 0 20 20" fill="none" xmlns="http://www.w3.org/2000/svg">
  <path
    d="M2.5 6.16667V3C2.5 2.86739 2.55268 2.74021 2.64645 2.64645C2.74021 2.55268 2.86739 2.5 3 2.5H7.83333C7.96594 2.5 8.09312 2.55268 8.18689 2.64645C8.28066 2.74021 8.33333 2.86739 8.33333 3V6.16667C8.33333 6.29928 8.28066 6.42645 8.18689 6.52022C8.09312 6.61399 7.96594 6.66667 7.83333 6.66667H3C2.86739 6.66667 2.74021 6.61399 2.64645 6.52022C2.55268 6.42645 2.5 6.29928 2.5 6.16667V6.16667Z"
    stroke="currentColor" stroke-width="1.5" />
  <path
    d="M11.667 16.9999V13.8333C11.667 13.7006 11.7197 13.5735 11.8134 13.4797C11.9072 13.3859 12.0344 13.3333 12.167 13.3333H17.0003C17.1329 13.3333 17.2601 13.3859 17.3539 13.4797C17.4476 13.5735 17.5003 13.7006 17.5003 13.8333V16.9999C17.5003 17.1325 17.4476 17.2597 17.3539 17.3535C17.2601 17.4472 17.1329 17.4999 17.0003 17.4999H12.167C12.0344 17.4999 11.9072 17.4472 11.8134 17.3535C11.7197 17.2597 11.667 17.1325 11.667 16.9999V16.9999Z"
    stroke="currentColor" stroke-width="1.5" />
  <path
    d="M11.667 10.3333V3C11.667 2.86739 11.7197 2.74021 11.8134 2.64645C11.9072 2.55268 12.0344 2.5 12.167 2.5H17.0003C17.1329 2.5 17.2601 2.55268 17.3539 2.64645C17.4476 2.74021 17.5003 2.86739 17.5003 3V10.3333C17.5003 10.4659 17.4476 10.5931 17.3539 10.6869C17.2601 10.7807 17.1329 10.8333 17.0003 10.8333H12.167C12.0344 10.8333 11.9072 10.7807 11.8134 10.6869C11.7197 10.5931 11.667 10.4659 11.667 10.3333V10.3333Z"
    stroke="currentColor" stroke-width="1.5" />
  <path
    d="M2.5 17.0001V9.66675C2.5 9.53414 2.55268 9.40696 2.64645 9.31319C2.74021 9.21943 2.86739 9.16675 3 9.16675H7.83333C7.96594 9.16675 8.09312 9.21943 8.18689 9.31319C8.28066 9.40696 8.33333 9.53414 8.33333 9.66675V17.0001C8.33333 17.1327 8.28066 17.2599 8.18689 17.3536C8.09312 17.4474 7.96594 17.5001 7.83333 17.5001H3C2.86739 17.5001 2.74021 17.4474 2.64645 17.3536C2.55268 17.2599 2.5 17.1327 2.5 17.0001V17.0001Z"
    stroke="currentColor" stroke-width="1.5" />
</svg>