<svg width="20" height="20" viewBox="0 0 20 20" fill="none" xmlns="http://www.w3.org/2000/svg">
  <path d="M17.083 17.083L18.333 18.333" stroke="currentColor" stroke-width="1.5" stroke-linecap="round"
    stroke-linejoin="round" />
  <path
    d="M12.5 15C12.5 15.663 12.7634 16.2989 13.2322 16.7678C13.7011 17.2366 14.337 17.5 15 17.5C15.663 17.5 16.2989 17.2366 16.7678 16.7678C17.2366 16.2989 17.5 15.663 17.5 15C17.5 14.337 17.2366 13.7011 16.7678 13.2322C16.2989 12.7634 15.663 12.5 15 12.5C14.337 12.5 13.7011 12.7634 13.2322 13.2322C12.7634 13.7011 12.5 14.337 12.5 15Z"
    stroke="currentColor" stroke-width="1.5" stroke-linecap="round" stroke-linejoin="round" />
  <path
    d="M16.6663 9.99984V4.79067C16.6664 4.72489 16.6535 4.65975 16.6283 4.59897C16.6031 4.5382 16.5662 4.48299 16.5197 4.4365L13.8963 1.81317C13.8027 1.71938 13.6756 1.66662 13.543 1.6665H3.83301C3.7004 1.6665 3.57322 1.71918 3.47945 1.81295C3.38569 1.90672 3.33301 2.0339 3.33301 2.1665V17.8332C3.33301 17.9658 3.38569 18.093 3.47945 18.1867C3.57322 18.2805 3.7004 18.3332 3.83301 18.3332H9.16634"
    stroke="currentColor" stroke-width="1.5" stroke-linecap="round" stroke-linejoin="round" />
  <path
    d="M13.333 4.4998V1.96147C13.3331 1.9032 13.3505 1.84626 13.3829 1.79785C13.4153 1.74943 13.4613 1.7117 13.5152 1.68942C13.569 1.66713 13.6283 1.66129 13.6854 1.67263C13.7426 1.68397 13.7951 1.71198 13.8363 1.75313L16.5797 4.49647C16.6212 4.53756 16.6496 4.59011 16.6612 4.6474C16.6728 4.70469 16.667 4.76413 16.6446 4.81814C16.6223 4.87214 16.5844 4.91827 16.5357 4.95062C16.487 4.98298 16.4298 5.0001 16.3713 4.9998H13.833C13.7004 4.9998 13.5732 4.94712 13.4795 4.85335C13.3857 4.75959 13.333 4.63241 13.333 4.4998Z"
    fill="white" stroke="currentColor" stroke-width="1.5" stroke-linecap="round" stroke-linejoin="round" />
</svg>