<?xml version="1.0" encoding="utf-8"?>
<!-- Generator: Adobe Illustrator 16.0.0, SVG Export Plug-In . SVG Version: 6.00 Build 0)  -->
<!DOCTYPE svg PUBLIC "-//W3C//DTD SVG 1.0//EN" "http://www.w3.org/TR/2001/REC-SVG-20010904/DTD/svg10.dtd">
<svg fill="white" version="1.0" id="Layer_1" xmlns="http://www.w3.org/2000/svg"
	xmlns:xlink="http://www.w3.org/1999/xlink" x="0px" y="0px" width="100px" height="100px" viewBox="0 0 100 100"
	enable-background="new 0 0 100 100" xml:space="preserve">
	<path d="M63.333,10v6.191l-10.54,4.518c-1.009,0.43-1.95,1.13-2.793,1.966c-0.843-0.836-1.784-1.537-2.793-1.966l-10.54-4.518V10H30
	v56.666c0,3.666,2.757,7.849,6.126,9.294l10.541,4.516V90h6.666v-9.524l10.541-4.516C67.243,74.515,70,70.332,70,66.666V10H63.333z
	 M46.667,73.809l-6.938-2.969c-1.683-0.723-3.063-2.818-3.063-4.648v-3.334l6.937,2.977c1.683,0.723,3.063,2.813,3.063,4.641V73.809
	z M46.667,60.475l-6.938-2.969c-1.683-0.723-3.063-2.818-3.063-4.648v-3.333l6.937,2.975c1.683,0.723,3.063,2.813,3.063,4.643
	V60.475z M46.667,47.142l-6.938-2.972c-1.683-0.723-3.063-2.816-3.063-4.645v-3.333l6.937,2.972
	c1.683,0.723,3.063,2.815,3.063,4.645V47.142z M46.667,33.809l-6.938-2.972c-1.683-0.723-3.063-2.815-3.063-4.645v-3.333
	l6.937,2.972c1.683,0.723,3.063,2.816,3.063,4.645V33.809z M63.333,66.191c0,1.83-1.38,3.926-3.063,4.648l-6.938,2.969v-3.334
	c0-1.828,1.381-3.918,3.063-4.641l6.937-2.977V66.191z M63.333,52.857c0,1.83-1.38,3.926-3.063,4.648l-6.938,2.969v-3.332
	c0-1.83,1.381-3.92,3.063-4.643l6.937-2.975V52.857z M63.333,39.525c0,1.829-1.38,3.922-3.063,4.645l-6.938,2.972v-3.333
	c0-1.83,1.381-3.922,3.063-4.645l6.937-2.972V39.525z M63.333,26.191c0,1.83-1.38,3.922-3.063,4.645l-6.938,2.972v-3.333
	c0-1.829,1.381-3.922,3.063-4.645l6.937-2.972V26.191z" />
</svg>